<svg width="4" height="14" viewBox="0 0 4 14" fill="none" xmlns="http://www.w3.org/2000/svg">
<path d="M2.01725 3.448C1.56925 3.448 1.18525 3.296 0.86525 2.992C0.54525 2.672 0.38525 2.272 0.38525 1.792C0.38525 1.328 0.54525 0.943999 0.86525 0.639999C1.18525 0.319999 1.56925 0.159999 2.01725 0.159999C2.46525 0.159999 2.84125 0.311999 3.14525 0.615999C3.44925 0.92 3.60125 1.312 3.60125 1.792C3.60125 2.272 3.44125 2.672 3.12125 2.992C2.81725 3.296 2.44925 3.448 2.01725 3.448ZM2.01725 13.144C1.56925 13.144 1.18525 12.992 0.86525 12.688C0.54525 12.368 0.38525 11.968 0.38525 11.488C0.38525 11.024 0.54525 10.64 0.86525 10.336C1.18525 10.016 1.56925 9.856 2.01725 9.856C2.46525 9.856 2.84125 10.008 3.14525 10.312C3.44925 10.616 3.60125 11.008 3.60125 11.488C3.60125 11.968 3.44125 12.368 3.12125 12.688C2.81725 12.992 2.44925 13.144 2.01725 13.144Z" fill="black"/>
</svg>
