<svg width="168" height="14" viewBox="0 0 168 14" fill="none" xmlns="http://www.w3.org/2000/svg">
<path fill-rule="evenodd" clip-rule="evenodd" d="M13.3422 1.15255C12.932 1.01149 12.4955 0.970952 12.0674 1.03414L4.17936 1.02896C3.75128 0.965774 3.31483 1.00631 2.90457 1.14737C2.49431 1.28842 2.12153 1.52612 1.81576 1.84164C1.50997 2.15715 1.27962 2.54179 1.1429 2.9651C1.0062 3.38842 0.966906 3.83876 1.02814 4.28046V9.97576C0.966772 10.4178 1.0061 10.8685 1.14298 11.2921C1.27987 11.7157 1.51056 12.1006 1.81673 12.4162C2.1229 12.7317 2.49615 12.9693 2.90684 13.1101C3.31752 13.2509 3.75438 13.291 4.1827 13.2273H12.0674C12.4945 13.2891 12.9297 13.2477 13.3386 13.1064C13.7476 12.9651 14.1191 12.7277 14.424 12.4129C14.7289 12.0982 14.9587 11.7147 15.0955 11.2927C15.2322 10.8706 15.2721 10.4216 15.212 9.98094V6.72944H7.33392V7.54231H14.4308V9.98094C14.4767 10.3122 14.4472 10.6499 14.3446 10.9673C14.242 11.2848 14.0692 11.5732 13.8399 11.8098C13.6106 12.0465 13.3311 12.2247 13.0234 12.3306C12.7158 12.4364 12.3885 12.4669 12.0674 12.4196H4.1827C3.86166 12.4669 3.53436 12.4364 3.2267 12.3306C2.91905 12.2247 2.63951 12.0465 2.41019 11.8098C2.18089 11.5732 2.00811 11.2848 1.90555 10.9673C1.80298 10.6499 1.77344 10.3122 1.81929 9.98094V4.28563C1.77344 3.95438 1.80298 3.61666 1.90555 3.29921C2.00811 2.98177 2.18089 2.69333 2.41019 2.45672C2.63951 2.2201 2.91905 2.04184 3.2267 1.93601C3.53436 1.83018 3.86166 1.7997 4.1827 1.84701H12.0674C12.3881 1.8006 12.7148 1.83174 13.0218 1.93796C13.3288 2.04419 13.6077 2.22259 13.8364 2.45908C14.0651 2.69558 14.2374 2.98371 14.3397 3.30069C14.442 3.61768 14.4715 3.95486 14.4258 4.28563H15.2186C15.2799 3.84394 15.2406 3.3936 15.1039 2.97028C14.9672 2.54696 14.7368 2.16232 14.431 1.84682C14.1253 1.5313 13.7525 1.2936 13.3422 1.15255ZM32.3918 1.15316C31.9815 1.01211 31.5451 0.971573 31.1169 1.03476L20.0809 1.04166V13.2346H20.8687V7.53939H31.1135C31.4347 7.49208 31.762 7.52256 32.0696 7.62839C32.3772 7.73422 32.6569 7.91248 32.8862 8.14909C33.1155 8.3857 33.2883 8.67414 33.3908 8.99157C33.4934 9.30902 33.523 9.64672 33.477 9.97798V13.2294H34.2681V9.97798C34.3342 9.42352 34.2452 8.86118 34.012 8.35705C33.7789 7.8529 33.4111 7.42794 32.9518 7.13209C33.4111 6.83624 33.7789 6.41127 34.012 5.90714C34.2452 5.40301 34.3342 4.84065 34.2681 4.28621C34.3295 3.84452 34.2902 3.39418 34.1534 2.97087C34.0167 2.54756 33.7864 2.16293 33.4806 1.84743C33.1747 1.53191 32.8021 1.29422 32.3918 1.15316ZM33.477 4.28645C33.523 3.95521 33.4934 3.61751 33.3908 3.30007C33.2883 2.98265 33.1155 2.69422 32.8862 2.45762C32.6569 2.22102 32.3772 2.04276 32.0696 1.93694C31.762 1.83111 31.4347 1.80064 31.1136 1.84794H20.8688V6.72496H31.1102C31.4315 6.77285 31.7594 6.74282 32.0673 6.63727C32.3754 6.53171 32.6554 6.35352 32.8852 6.11685C33.1148 5.88018 33.288 5.59153 33.3907 5.27379C33.4935 4.95608 33.523 4.61802 33.477 4.28645ZM41.0088 13.1086C41.4191 13.2497 41.8554 13.2902 42.2835 13.227H50.1615C50.5897 13.2902 51.0261 13.2497 51.4364 13.1086C51.8467 12.9676 52.2194 12.7299 52.5253 12.4144C52.8311 12.0989 53.0614 11.7142 53.198 11.2909C53.3349 10.8676 53.3742 10.4173 53.3128 9.9756V4.2804C53.3742 3.83871 53.3349 3.38837 53.198 2.96507C53.0614 2.54176 52.8311 2.15712 52.5253 1.84163C52.2194 1.52611 51.8467 1.28842 51.4364 1.14737C51.0261 1.00631 50.5897 0.965775 50.1615 1.02896H42.2835C41.8554 0.965775 41.4191 1.00631 41.0088 1.14737C40.5985 1.28842 40.2258 1.52611 39.9199 1.84163C39.6141 2.15712 39.3838 2.54176 39.2471 2.96507C39.1103 3.38837 39.071 3.83871 39.1322 4.2804V9.9756C39.071 10.4173 39.1103 10.8676 39.2471 11.2909C39.3838 11.7142 39.6141 12.0989 39.9199 12.4144C40.2258 12.7299 40.5985 12.9676 41.0088 13.1086ZM39.9166 9.97833C39.8708 10.3096 39.9004 10.6472 40.003 10.9647C40.1055 11.2821 40.2783 11.5705 40.5076 11.8071C40.7369 12.0437 41.0166 12.2219 41.3242 12.3278C41.6317 12.4336 41.9591 12.464 42.2801 12.4168H50.1581C50.4792 12.464 50.8065 12.4336 51.1141 12.3278C51.4217 12.2219 51.7014 12.0437 51.9307 11.8071C52.16 11.5705 52.3328 11.2821 52.4353 10.9647C52.5379 10.6472 52.5675 10.3096 52.5215 9.97833V4.28347C52.5675 3.95224 52.5379 3.61455 52.4353 3.29712C52.3328 2.97971 52.16 2.6913 51.9307 2.4547C51.7014 2.21811 51.4217 2.03986 51.1141 1.93404C50.8065 1.82821 50.4792 1.79774 50.1581 1.84504H42.2801C41.9591 1.79774 41.6317 1.82821 41.3242 1.93404C41.0166 2.03986 40.7369 2.21811 40.5076 2.4547C40.2783 2.6913 40.1055 2.97971 40.003 3.29712C39.9004 3.61455 39.8708 3.95224 39.9166 4.28347V9.97833ZM71.571 1.03479V9.9763C71.617 10.3076 71.5874 10.6453 71.4849 10.9627C71.3824 11.2801 71.2096 11.5686 70.9803 11.8052C70.7509 12.0418 70.4713 12.2201 70.1637 12.3259C69.8561 12.4317 69.5288 12.4622 69.2078 12.4149H61.3296C61.0086 12.4622 60.6813 12.4317 60.3737 12.3259C60.0661 12.2201 59.7864 12.0418 59.5571 11.8052C59.3278 11.5686 59.155 11.2801 59.0525 10.9627C58.9499 10.6453 58.9203 10.3076 58.9663 9.9763V1.03479H58.1783V9.9763C58.1171 10.418 58.1564 10.8683 58.2933 11.2916C58.4299 11.7149 58.6602 12.0996 58.966 12.4151C59.2719 12.7306 59.6446 12.9683 60.0549 13.1093C60.4652 13.2504 60.9015 13.2909 61.3296 13.2278H69.2078C69.6358 13.2909 70.0722 13.2504 70.4825 13.1093C70.8928 12.9683 71.2654 12.7306 71.5714 12.4151C71.8771 12.0996 72.1074 11.7149 72.2441 11.2916C72.3809 10.8683 72.4202 10.418 72.359 9.9763V1.03479H71.571ZM88.2555 1.03475C88.6836 0.971574 89.1199 1.01211 89.5302 1.15316C89.9405 1.29421 90.3132 1.53189 90.6191 1.8474C90.9249 2.16288 91.1552 2.54751 91.2918 2.9708C91.4286 3.39409 91.468 3.84442 91.4067 4.28609C91.468 4.72776 91.4286 5.17808 91.2918 5.60136C91.1552 6.02466 90.9249 6.40929 90.6191 6.72478C90.3132 7.04027 89.9405 7.27796 89.5302 7.419C89.1199 7.56007 88.6836 7.6006 88.2555 7.53742H78.0141V13.2324H77.2261V1.03993L88.2555 1.03475ZM90.533 3.29993C90.6355 3.61734 90.6651 3.955 90.6191 4.28622H90.6208C90.6668 4.61758 90.6372 4.95544 90.5346 5.27298C90.4319 5.59053 90.259 5.87903 90.0295 6.11565C89.8 6.35226 89.5202 6.53047 89.2123 6.63616C88.9045 6.74184 88.577 6.77207 88.2559 6.72449H78.0144V1.84794H88.2559C88.5768 1.80064 88.9042 1.83111 89.2118 1.93693C89.5193 2.04274 89.799 2.22098 90.0283 2.45756C90.2576 2.69414 90.4304 2.98254 90.533 3.29993ZM99.0557 13.2274C98.6277 13.2906 98.1913 13.25 97.781 13.109C97.3707 12.9679 96.9981 12.7302 96.6922 12.4147C96.3864 12.0993 96.1561 11.7146 96.0194 11.2913C95.8826 10.868 95.8433 10.4177 95.9045 9.97603H96.6925C96.6465 10.3073 96.6761 10.645 96.7786 10.9624C96.8812 11.2798 97.054 11.5683 97.2833 11.8049C97.5126 12.0415 97.7922 12.2197 98.0998 12.3256C98.4074 12.4314 98.7348 12.4618 99.0557 12.4146H106.934C107.255 12.4618 107.582 12.4314 107.89 12.3256C108.197 12.2197 108.477 12.0415 108.706 11.8049C108.936 11.5683 109.108 11.2798 109.211 10.9624C109.314 10.645 109.343 10.3073 109.297 9.97603C109.343 9.64478 109.314 9.30708 109.211 8.98964C109.108 8.67222 108.936 8.38379 108.706 8.14718C108.477 7.9106 108.197 7.73232 107.89 7.6265C107.582 7.52067 107.255 7.4902 106.934 7.5375H99.0557C98.6277 7.60068 98.1913 7.56014 97.781 7.41908C97.3707 7.27803 96.9981 7.04034 96.6922 6.72485C96.3864 6.40936 96.1561 6.02471 96.0194 5.60141C95.8826 5.17813 95.8433 4.72781 95.9045 4.28613C95.8433 3.84445 95.8826 3.39412 96.0194 2.97082C96.1561 2.54752 96.3864 2.1629 96.6922 1.84741C96.9981 1.5319 97.3707 1.29421 97.781 1.15316C98.1913 1.01211 98.6277 0.971574 99.0557 1.03475H106.934C107.362 0.971867 107.798 1.01263 108.208 1.15382C108.618 1.295 108.991 1.53273 109.296 1.84818C109.602 2.16364 109.832 2.54818 109.969 2.97132C110.105 3.39445 110.144 3.8446 110.083 4.28613H109.295C109.341 3.95488 109.312 3.61718 109.209 3.29974C109.107 2.98232 108.934 2.69389 108.705 2.45728C108.475 2.22068 108.196 2.04242 107.888 1.9366C107.581 1.83077 107.253 1.80029 106.932 1.8476H99.0541C98.7331 1.80029 98.4058 1.83077 98.0982 1.9366C97.7906 2.04242 97.5109 2.22068 97.2816 2.45728C97.0523 2.69389 96.8795 2.98232 96.777 3.29974C96.6744 3.61718 96.6448 3.95488 96.6908 4.28613C96.6448 4.61737 96.6744 4.95507 96.777 5.2725C96.8795 5.58992 97.0523 5.87837 97.2816 6.11495C97.5109 6.35156 97.7906 6.52983 98.0982 6.63566C98.4058 6.74148 98.7331 6.77194 99.0541 6.72466H106.932C107.36 6.66147 107.797 6.70201 108.207 6.84306C108.617 6.98413 108.99 7.2218 109.296 7.53731C109.602 7.8528 109.832 8.23742 109.969 8.66072C110.105 9.08402 110.145 9.53435 110.083 9.97603C110.145 10.4177 110.105 10.868 109.969 11.2913C109.832 11.7146 109.602 12.0993 109.296 12.4147C108.99 12.7302 108.617 12.9679 108.207 13.109C107.797 13.25 107.36 13.2906 106.932 13.2274H99.0557ZM115.74 13.2277V7.53251H128.349V13.2277H129.137V1.03479H128.349V6.73H115.74V1.03479H114.953V13.2277H115.74ZM137.15 13.227C136.722 13.2896 136.286 13.2486 135.876 13.1073C135.466 12.966 135.094 12.7282 134.789 12.4128C134.483 12.0974 134.253 11.7129 134.117 11.2899C133.98 10.8669 133.941 10.417 134.002 9.9756V4.2804C133.941 3.83871 133.98 3.38837 134.117 2.96507C134.253 2.54176 134.484 2.15712 134.789 1.84163C135.095 1.52611 135.468 1.28842 135.878 1.14737C136.289 1.00631 136.725 0.965775 137.153 1.02896H145.041C145.469 0.965775 145.906 1.00631 146.316 1.14737C146.726 1.28842 147.099 1.52611 147.405 1.84163C147.711 2.15712 147.941 2.54176 148.078 2.96507C148.215 3.38837 148.254 3.83871 148.193 4.2804V9.9756C148.254 10.4173 148.215 10.8676 148.078 11.2909C147.941 11.7142 147.711 12.0989 147.405 12.4144C147.099 12.7299 146.726 12.9676 146.316 13.1086C145.906 13.2497 145.469 13.2902 145.041 13.227H137.15ZM134.873 10.9628C134.77 10.6454 134.741 10.3077 134.787 9.97641L134.8 4.28648C134.754 3.95523 134.784 3.61753 134.886 3.30009C134.989 2.98266 135.162 2.69423 135.391 2.45763C135.62 2.22102 135.9 2.04277 136.207 1.93694C136.515 1.83111 136.842 1.80064 137.163 1.84794H145.041C145.362 1.80083 145.689 1.83125 145.996 1.9368C146.303 2.04235 146.583 2.22014 146.812 2.45613C147.041 2.69211 147.214 2.97983 147.317 3.29659C147.42 3.61334 147.45 3.95045 147.405 4.2813V9.97641C147.451 10.3077 147.421 10.6454 147.319 10.9628C147.216 11.2802 147.043 11.5687 146.814 11.8052C146.585 12.0418 146.305 12.2201 145.997 12.3259C145.69 12.4318 145.363 12.4622 145.041 12.4149H137.15C136.829 12.4622 136.502 12.4318 136.194 12.3259C135.886 12.2201 135.607 12.0418 135.377 11.8052C135.148 11.5687 134.975 11.2802 134.873 10.9628ZM164.077 1.03475C164.505 0.971574 164.942 1.01211 165.352 1.15316C165.762 1.29421 166.135 1.53189 166.441 1.8474C166.747 2.16288 166.978 2.54751 167.113 2.9708C167.25 3.39409 167.289 3.84442 167.229 4.28609C167.289 4.72776 167.25 5.17808 167.113 5.60136C166.978 6.02466 166.747 6.40929 166.441 6.72478C166.135 7.04027 165.762 7.27796 165.352 7.419C164.942 7.56007 164.505 7.6006 164.077 7.53742H153.839V13.2324H153.051V1.03993L164.077 1.03475ZM166.355 3.30003C166.458 3.61745 166.486 3.95514 166.441 4.28638H166.451C166.496 4.61827 166.468 4.95666 166.364 5.27469C166.261 5.59271 166.088 5.88158 165.858 6.11831C165.628 6.35506 165.347 6.53315 165.039 6.63844C164.73 6.74373 164.402 6.77329 164.081 6.72481H153.839V1.84794H164.077C164.398 1.80064 164.726 1.83111 165.033 1.93694C165.341 2.04276 165.621 2.22101 165.85 2.4576C166.079 2.6942 166.252 2.98261 166.355 3.30003Z" fill="black"/>
<path d="M12.0674 1.03414L12.0673 1.28414L12.0857 1.28415L12.1039 1.28146L12.0674 1.03414ZM13.3422 1.15255L13.4235 0.91613L13.4235 0.916129L13.3422 1.15255ZM4.17936 1.02896L4.14285 1.27628L4.16092 1.27895L4.17919 1.27896L4.17936 1.02896ZM2.90457 1.14737L2.82329 0.910951V0.910951L2.90457 1.14737ZM1.81576 1.84164L1.99528 2.01563L1.99529 2.01562L1.81576 1.84164ZM1.1429 2.9651L0.904999 2.88827L0.904997 2.88827L1.1429 2.9651ZM1.02814 4.28046H1.27814V4.26321L1.27577 4.24613L1.02814 4.28046ZM1.02814 9.97576L1.27577 10.0101L1.27814 9.99303V9.97576H1.02814ZM1.14298 11.2921L0.905095 11.369L1.14298 11.2921ZM1.81673 12.4162L1.6373 12.5902L1.6373 12.5902L1.81673 12.4162ZM2.90684 13.1101L2.98792 12.8737L2.98792 12.8737L2.90684 13.1101ZM4.1827 13.2273V12.9773H4.16419L4.14589 12.98L4.1827 13.2273ZM12.0674 13.2273L12.1032 12.9798L12.0854 12.9773H12.0674V13.2273ZM13.3386 13.1064L13.257 12.8701L13.257 12.8701L13.3386 13.1064ZM14.424 12.4129L14.6036 12.5869L14.6036 12.5869L14.424 12.4129ZM15.0955 11.2927L15.3333 11.3697L15.3333 11.3697L15.0955 11.2927ZM15.212 9.98094H14.962V9.99792L14.9643 10.0147L15.212 9.98094ZM15.212 6.72944H15.462V6.47944H15.212V6.72944ZM7.33392 6.72944V6.47944H7.08392V6.72944H7.33392ZM7.33392 7.54231H7.08392V7.79231H7.33392V7.54231ZM14.4308 7.54231H14.6808V7.29231H14.4308V7.54231ZM14.4308 9.98094H14.1808V9.99815L14.1832 10.0152L14.4308 9.98094ZM13.8399 11.8098L13.6604 11.6358L13.6604 11.6359L13.8399 11.8098ZM13.0234 12.3306L13.1047 12.567H13.1047L13.0234 12.3306ZM12.0674 12.4196L12.1039 12.1722L12.0857 12.1696H12.0674V12.4196ZM4.1827 12.4196V12.1696H4.16439L4.14627 12.1722L4.1827 12.4196ZM3.2267 12.3306L3.14538 12.567L3.14538 12.567L3.2267 12.3306ZM2.41019 11.8098L2.58972 11.6359L2.41019 11.8098ZM1.90555 10.9673L2.14344 10.8905V10.8905L1.90555 10.9673ZM1.81929 9.98094L2.06693 10.0152L2.06929 9.99815V9.98094H1.81929ZM1.81929 4.28563H2.06929V4.26842L2.06693 4.25136L1.81929 4.28563ZM1.90555 3.29921L1.66766 3.22234L1.66766 3.22235L1.90555 3.29921ZM2.41019 2.45672L2.23067 2.28273L2.23066 2.28274L2.41019 2.45672ZM3.2267 1.93601L3.14538 1.69961L3.14538 1.69961L3.2267 1.93601ZM4.1827 1.84701L4.14626 2.09434L4.16438 2.09701H4.1827V1.84701ZM12.0674 1.84701V2.09701H12.0854L12.1032 2.09443L12.0674 1.84701ZM13.0218 1.93796L13.1036 1.70171L13.1036 1.7017L13.0218 1.93796ZM13.8364 2.45908L13.6567 2.63288V2.63288L13.8364 2.45908ZM14.3397 3.30069L14.5776 3.22391V3.22391L14.3397 3.30069ZM14.4258 4.28563L14.1782 4.25146L14.139 4.53563H14.4258V4.28563ZM15.2186 4.28563V4.53563H15.4364L15.4663 4.31997L15.2186 4.28563ZM15.1039 2.97028L14.866 3.04711L14.866 3.04711L15.1039 2.97028ZM14.431 1.84682L14.2515 2.0208L14.2515 2.02081L14.431 1.84682ZM31.1169 1.03476L31.117 1.28476L31.1353 1.28474L31.1534 1.28208L31.1169 1.03476ZM32.3918 1.15316L32.3105 1.38958L32.3918 1.15316ZM20.0809 1.04166L20.0807 0.791659L19.8309 0.791815V1.04166H20.0809ZM20.0809 13.2346H19.8309V13.4846H20.0809V13.2346ZM20.8687 13.2346V13.4846H21.1187V13.2346H20.8687ZM20.8687 7.53939V7.28939H20.6187V7.53939H20.8687ZM31.1135 7.53939V7.78939H31.1319L31.15 7.78672L31.1135 7.53939ZM32.0696 7.62839L31.9883 7.86479L32.0696 7.62839ZM33.3908 8.99157L33.6287 8.91473L33.6287 8.91473L33.3908 8.99157ZM33.477 9.97798L33.2293 9.94359L33.227 9.9607V9.97798H33.477ZM33.477 13.2294H33.227V13.4794H33.477V13.2294ZM34.2681 13.2294V13.4794H34.5181V13.2294H34.2681ZM34.2681 9.97798L34.0199 9.9484L34.0181 9.96314V9.97798H34.2681ZM34.012 8.35705L33.7851 8.46199L33.7851 8.462L34.012 8.35705ZM32.9518 7.13209L32.8164 6.92192L32.4901 7.1321L32.8164 7.34227L32.9518 7.13209ZM34.012 5.90714L33.7851 5.80219V5.80219L34.012 5.90714ZM34.2681 4.28621L34.0205 4.2518L34.0161 4.28375L34.0199 4.31579L34.2681 4.28621ZM34.1534 2.97087L33.9155 3.04767L33.9155 3.04776L34.1534 2.97087ZM33.4806 1.84743L33.6602 1.67345L33.6601 1.6734L33.4806 1.84743ZM33.3908 3.30007L33.6287 3.22323L33.6287 3.22323L33.3908 3.30007ZM33.477 4.28645L33.2293 4.25206L33.2246 4.28643L33.2293 4.3208L33.477 4.28645ZM32.8862 2.45762L33.0657 2.28363L33.0657 2.28363L32.8862 2.45762ZM31.1136 1.84794V2.09794H31.1319L31.15 2.09527L31.1136 1.84794ZM20.8688 1.84794V1.59794H20.6188V1.84794H20.8688ZM20.8688 6.72496H20.6188V6.97496H20.8688V6.72496ZM31.1102 6.72496L31.1471 6.47769L31.1287 6.47496H31.1102V6.72496ZM32.0673 6.63727L31.9863 6.40077L31.9862 6.40078L32.0673 6.63727ZM32.8852 6.11685L33.0645 6.29101L33.0646 6.29094L32.8852 6.11685ZM33.3907 5.27379L33.1528 5.19679L33.1528 5.1969L33.3907 5.27379ZM42.2835 13.227V12.977H42.2651L42.247 12.9797L42.2835 13.227ZM41.0088 13.1086L41.09 12.8722L41.09 12.8722L41.0088 13.1086ZM50.1615 13.227L50.198 12.9797L50.1799 12.977H50.1615V13.227ZM51.4364 13.1086L51.3551 12.8722L51.3551 12.8722L51.4364 13.1086ZM52.5253 12.4144L52.7048 12.5884L52.7048 12.5884L52.5253 12.4144ZM53.198 11.2909L52.9601 11.214L52.9601 11.2141L53.198 11.2909ZM53.3128 9.9756H53.0628V9.99288L53.0652 10.01L53.3128 9.9756ZM53.3128 4.2804L53.0652 4.24598L53.0628 4.26311V4.2804H53.3128ZM53.198 2.96507L52.9601 3.04187L52.9601 3.04195L53.198 2.96507ZM52.5253 1.84163L52.7048 1.66764L52.7048 1.6676L52.5253 1.84163ZM51.4364 1.14737L51.3551 1.38378V1.38378L51.4364 1.14737ZM50.1615 1.02896V1.27896H50.1799L50.198 1.27628L50.1615 1.02896ZM42.2835 1.02896L42.247 1.27628L42.2651 1.27896H42.2835V1.02896ZM41.0088 1.14737L40.9275 0.910946L41.0088 1.14737ZM39.9199 1.84163L39.7404 1.6676L39.7403 1.66764L39.9199 1.84163ZM39.2471 2.96507L39.485 3.04195L39.4851 3.04187L39.2471 2.96507ZM39.1322 4.2804H39.3822V4.26315L39.3799 4.24608L39.1322 4.2804ZM39.1322 9.9756L39.3799 10.0099L39.3822 9.99284V9.9756H39.1322ZM39.2471 11.2909L39.4851 11.2141L39.485 11.214L39.2471 11.2909ZM39.9199 12.4144L39.7403 12.5884L39.7404 12.5884L39.9199 12.4144ZM40.003 10.9647L40.2408 10.8878L40.003 10.9647ZM39.9166 9.97833L40.1643 10.0126L40.1666 9.99554V9.97833H39.9166ZM40.5076 11.8071L40.6871 11.6331L40.6871 11.6331L40.5076 11.8071ZM42.2801 12.4168V12.1668H42.2617L42.2436 12.1694L42.2801 12.4168ZM50.1581 12.4168L50.1945 12.1694L50.1764 12.1668H50.1581V12.4168ZM51.9307 11.8071L51.7512 11.6331L51.7512 11.6331L51.9307 11.8071ZM52.4353 10.9647L52.1974 10.8878L52.4353 10.9647ZM52.5215 9.97833H52.2715V9.9956L52.2739 10.0127L52.5215 9.97833ZM52.5215 4.28347L52.2739 4.24909L52.2715 4.2662V4.28347H52.5215ZM52.4353 3.29712L52.6732 3.22028V3.22028L52.4353 3.29712ZM51.9307 2.4547L51.7512 2.62869L51.7512 2.62869L51.9307 2.4547ZM51.1141 1.93404L51.1955 1.69763L51.1141 1.93404ZM50.1581 1.84504V2.09504H50.1764L50.1945 2.09237L50.1581 1.84504ZM42.2801 1.84504L42.2436 2.09237L42.2617 2.09504H42.2801V1.84504ZM41.3242 1.93404L41.2428 1.69763L41.3242 1.93404ZM40.5076 2.4547L40.3281 2.28071L40.5076 2.4547ZM40.003 3.29712L39.7651 3.22028V3.22028L40.003 3.29712ZM39.9166 4.28347H40.1666V4.26626L40.1643 4.24921L39.9166 4.28347ZM71.571 9.9763H71.321V9.99358L71.3234 10.0107L71.571 9.9763ZM71.571 1.03479V0.784791H71.321V1.03479H71.571ZM70.9803 11.8052L70.8007 11.6312V11.6312L70.9803 11.8052ZM70.1637 12.3259L70.0824 12.0895H70.0823L70.1637 12.3259ZM69.2078 12.4149L69.2442 12.1676L69.2261 12.1649H69.2078V12.4149ZM61.3296 12.4149V12.1649H61.3112L61.2931 12.1676L61.3296 12.4149ZM60.3737 12.3259L60.455 12.0895L60.3737 12.3259ZM59.5571 11.8052L59.7366 11.6312L59.7366 11.6312L59.5571 11.8052ZM58.9663 9.9763L59.2139 10.0107L59.2163 9.99358V9.9763H58.9663ZM58.9663 1.03479H59.2163V0.784791H58.9663V1.03479ZM58.1783 1.03479V0.784791H57.9283V1.03479H58.1783ZM58.1783 9.9763L58.426 10.0106L58.4283 9.99355V9.9763H58.1783ZM58.2933 11.2916L58.5312 11.2148L58.5311 11.2148L58.2933 11.2916ZM58.966 12.4151L58.7865 12.5891L58.7865 12.5891L58.966 12.4151ZM60.0549 13.1093L60.1361 12.8729L60.1361 12.8729L60.0549 13.1093ZM61.3296 13.2278V12.9778H61.3112L61.2931 12.9804L61.3296 13.2278ZM69.2078 13.2278L69.2443 12.9804L69.2261 12.9778H69.2078V13.2278ZM70.4825 13.1093L70.4012 12.8729L70.4012 12.8729L70.4825 13.1093ZM71.5714 12.4151L71.7508 12.5891L71.7509 12.5891L71.5714 12.4151ZM72.2441 11.2916L72.0062 11.2148L72.0062 11.2148L72.2441 11.2916ZM72.359 9.9763H72.109V9.99355L72.1114 10.0106L72.359 9.9763ZM72.359 1.03479H72.609V0.784791H72.359V1.03479ZM89.5302 1.15316L89.6115 0.916739V0.916739L89.5302 1.15316ZM88.2555 1.03475L88.2556 1.28475L88.2739 1.28475L88.292 1.28207L88.2555 1.03475ZM90.6191 1.8474L90.7986 1.67341L90.7986 1.67337L90.6191 1.8474ZM91.2918 2.9708L91.0539 3.0476L91.0539 3.04769L91.2918 2.9708ZM91.4067 4.28609L91.1591 4.25177L91.1544 4.28609L91.1591 4.32041L91.4067 4.28609ZM91.2918 5.60136L91.0539 5.52447L91.0539 5.52456L91.2918 5.60136ZM90.6191 6.72478L90.7986 6.89881L90.7986 6.89877L90.6191 6.72478ZM89.5302 7.419L89.449 7.18258L89.449 7.18258L89.5302 7.419ZM88.2555 7.53742L88.292 7.2901L88.2739 7.28742H88.2555V7.53742ZM78.0141 7.53742V7.28742H77.7641V7.53742H78.0141ZM78.0141 13.2324V13.4824H78.2641V13.2324H78.0141ZM77.2261 13.2324H76.9761V13.4824H77.2261V13.2324ZM77.2261 1.03993L77.226 0.789932L76.9761 0.790049V1.03993H77.2261ZM90.6191 4.28622L90.3715 4.25183L90.332 4.53622H90.6191V4.28622ZM90.533 3.29993L90.7709 3.22308L90.7709 3.22308L90.533 3.29993ZM90.6208 4.28622L90.8684 4.25184L90.8385 4.03622H90.6208V4.28622ZM90.5346 5.27298L90.7725 5.34992L90.7725 5.3498L90.5346 5.27298ZM89.2123 6.63616L89.1311 6.3997L89.1311 6.39971L89.2123 6.63616ZM88.2559 6.72449L88.2925 6.47719L88.2743 6.47449H88.2559V6.72449ZM78.0144 6.72449H77.7644V6.97449H78.0144V6.72449ZM78.0144 1.84794V1.59794H77.7644V1.84794H78.0144ZM88.2559 1.84794V2.09794H88.2742L88.2923 2.09527L88.2559 1.84794ZM90.0283 2.45756L89.8488 2.63156L90.0283 2.45756ZM97.781 13.109L97.8623 12.8726L97.8623 12.8726L97.781 13.109ZM99.0557 13.2274V12.9774H99.0374L99.0192 12.9801L99.0557 13.2274ZM96.6922 12.4147L96.5126 12.5887L96.5127 12.5888L96.6922 12.4147ZM96.0194 11.2913L96.2573 11.2145L96.2573 11.2144L96.0194 11.2913ZM95.9045 9.97603V9.72603H95.6868L95.6569 9.9417L95.9045 9.97603ZM96.6925 9.97603L96.9401 10.0104L96.9796 9.72603H96.6925V9.97603ZM97.2833 11.8049L97.4628 11.6309V11.6309L97.2833 11.8049ZM98.0998 12.3256L98.0185 12.562L98.0998 12.3256ZM99.0557 12.4146V12.1646H99.0374L99.0193 12.1672L99.0557 12.4146ZM106.934 12.4146L106.97 12.1672L106.952 12.1646H106.934V12.4146ZM107.89 12.3256L107.971 12.562L107.89 12.3256ZM108.706 11.8049L108.527 11.6309L108.527 11.6309L108.706 11.8049ZM109.297 9.97603L109.05 9.94176L109.045 9.97603L109.05 10.0103L109.297 9.97603ZM109.211 8.98964L109.449 8.9128V8.9128L109.211 8.98964ZM108.706 8.14718L108.886 7.97319V7.97319L108.706 8.14718ZM106.934 7.5375V7.7875H106.952L106.97 7.78483L106.934 7.5375ZM99.0557 7.5375V7.2875H99.0374L99.0192 7.29018L99.0557 7.5375ZM97.781 7.41908L97.8623 7.18266L97.8623 7.18266L97.781 7.41908ZM96.6922 6.72485L96.5126 6.89883L96.5127 6.89888L96.6922 6.72485ZM96.0194 5.60141L96.2573 5.52461L96.2573 5.52452L96.0194 5.60141ZM95.9045 4.28613L96.1522 4.32045L96.1569 4.28613L96.1522 4.2518L95.9045 4.28613ZM96.0194 2.97082L96.2573 3.04771L96.2573 3.04763L96.0194 2.97082ZM96.6922 1.84741L96.5127 1.67338L96.5126 1.67342L96.6922 1.84741ZM97.781 1.15316L97.8623 1.38958L97.781 1.15316ZM99.0557 1.03475L99.0192 1.28207L99.0374 1.28475H99.0557V1.03475ZM106.934 1.03475V1.28475H106.952L106.97 1.2821L106.934 1.03475ZM108.208 1.15382L108.29 0.917442L108.289 0.917431L108.208 1.15382ZM109.296 1.84818L109.476 1.67429L109.476 1.67424L109.296 1.84818ZM109.969 2.97132L110.207 2.89457L110.207 2.8945L109.969 2.97132ZM110.083 4.28613V4.53613H110.301L110.331 4.32046L110.083 4.28613ZM109.295 4.28613L109.048 4.25174L109.008 4.53613H109.295V4.28613ZM109.209 3.29974L109.447 3.2229V3.2229L109.209 3.29974ZM108.705 2.45728L108.884 2.28329L108.705 2.45728ZM107.888 1.9366L107.807 2.173V2.173L107.888 1.9366ZM106.932 1.8476V2.0976H106.951L106.969 2.09493L106.932 1.8476ZM99.0541 1.8476L99.0176 2.09493L99.0357 2.0976H99.0541V1.8476ZM98.0982 1.9366L98.1795 2.173L98.1795 2.173L98.0982 1.9366ZM97.2816 2.45728L97.1021 2.28329L97.2816 2.45728ZM96.777 3.29974L96.5391 3.2229V3.2229L96.777 3.29974ZM96.6908 4.28613L96.9385 4.32051L96.9432 4.28613L96.9385 4.25174L96.6908 4.28613ZM97.2816 6.11495L97.4611 5.94096L97.4611 5.94096L97.2816 6.11495ZM98.0982 6.63566L98.1795 6.39926L98.1795 6.39926L98.0982 6.63566ZM99.0541 6.72466V6.47466H99.0357L99.0176 6.47732L99.0541 6.72466ZM106.932 6.72466V6.97466H106.951L106.969 6.97198L106.932 6.72466ZM108.207 6.84306L108.288 6.60665L108.288 6.60664L108.207 6.84306ZM109.296 7.53731L109.475 7.36332L109.475 7.36328L109.296 7.53731ZM109.969 8.66072L109.731 8.73753L109.731 8.73762L109.969 8.66072ZM110.083 9.97603L109.836 9.94161L109.831 9.97603L109.836 10.0104L110.083 9.97603ZM109.969 11.2913L109.731 11.2144L109.731 11.2145L109.969 11.2913ZM109.296 12.4147L109.475 12.5888L109.475 12.5887L109.296 12.4147ZM108.207 13.109L108.126 12.8726L108.126 12.8726L108.207 13.109ZM106.932 13.2274L106.969 12.9801L106.951 12.9774H106.932V13.2274ZM115.74 7.53251V7.28251H115.49V7.53251H115.74ZM115.74 13.2277V13.4777H115.99V13.2277H115.74ZM128.349 7.53251H128.599V7.28251H128.349V7.53251ZM128.349 13.2277H128.099V13.4777H128.349V13.2277ZM129.137 13.2277V13.4777H129.387V13.2277H129.137ZM129.137 1.03479H129.387V0.784791H129.137V1.03479ZM128.349 1.03479V0.784791H128.099V1.03479H128.349ZM128.349 6.73V6.98H128.599V6.73H128.349ZM115.74 6.73H115.49V6.98H115.74V6.73ZM115.74 1.03479H115.99V0.784791H115.74V1.03479ZM114.953 1.03479V0.784791H114.703V1.03479H114.953ZM114.953 13.2277H114.703V13.4777H114.953V13.2277ZM135.876 13.1073L135.794 13.3437L135.795 13.3437L135.876 13.1073ZM137.15 13.227V12.977H137.132L137.114 12.9797L137.15 13.227ZM134.789 12.4128L134.968 12.2389L134.968 12.2389L134.789 12.4128ZM134.117 11.2899L133.879 11.3667V11.3667L134.117 11.2899ZM134.002 9.9756L134.25 10.0099L134.252 9.99285V9.9756H134.002ZM134.002 4.2804H134.252V4.26311L134.25 4.24598L134.002 4.2804ZM134.117 2.96507L134.355 3.04196L134.355 3.04187L134.117 2.96507ZM134.789 1.84163L134.61 1.6676L134.61 1.66764L134.789 1.84163ZM135.878 1.14737L135.797 0.910946L135.878 1.14737ZM137.153 1.02896L137.117 1.27628L137.135 1.27896H137.153V1.02896ZM145.041 1.02896V1.27896H145.06L145.078 1.27628L145.041 1.02896ZM146.316 1.14737L146.397 0.910946L146.397 0.910945L146.316 1.14737ZM147.405 1.84163L147.585 1.66764L147.584 1.6676L147.405 1.84163ZM148.078 2.96507L147.84 3.04187L147.84 3.04195L148.078 2.96507ZM148.193 4.2804L147.945 4.24608L147.943 4.26315V4.2804H148.193ZM148.193 9.9756H147.943V9.99284L147.945 10.0099L148.193 9.9756ZM148.078 11.2909L147.84 11.214L147.84 11.2141L148.078 11.2909ZM147.405 12.4144L147.584 12.5884L147.585 12.5884L147.405 12.4144ZM146.316 13.1086L146.235 12.8722V12.8722L146.316 13.1086ZM145.041 13.227L145.078 12.9797L145.06 12.977H145.041V13.227ZM134.787 9.97641L135.034 10.0108L135.037 9.99397L135.037 9.97699L134.787 9.97641ZM134.873 10.9628L135.111 10.8859V10.8859L134.873 10.9628ZM134.8 4.28648L135.05 4.28706L135.05 4.26956L135.048 4.25222L134.8 4.28648ZM134.886 3.30009L135.124 3.37693V3.37693L134.886 3.30009ZM135.391 2.45763L135.211 2.28363V2.28364L135.391 2.45763ZM136.207 1.93694L136.289 2.17334L136.207 1.93694ZM137.163 1.84794L137.127 2.09527L137.145 2.09794H137.163V1.84794ZM145.041 1.84794V2.09794H145.06L145.078 2.09529L145.041 1.84794ZM145.996 1.9368L146.077 1.70038L146.077 1.70036L145.996 1.9368ZM146.812 2.45613L146.991 2.28197V2.28196L146.812 2.45613ZM147.317 3.29659L147.079 3.37381L147.079 3.37391L147.317 3.29659ZM147.405 4.2813L147.157 4.24775L147.155 4.26445V4.2813H147.405ZM147.405 9.97641H147.155V9.99362L147.157 10.0107L147.405 9.97641ZM147.319 10.9628L147.081 10.8859V10.8859L147.319 10.9628ZM146.814 11.8052L146.635 11.6312L146.635 11.6313L146.814 11.8052ZM145.997 12.3259L145.916 12.0895V12.0895L145.997 12.3259ZM145.041 12.4149L145.078 12.1676L145.06 12.1649H145.041V12.4149ZM137.15 12.4149V12.1649H137.132L137.114 12.1676L137.15 12.4149ZM136.194 12.3259L136.113 12.5623V12.5623L136.194 12.3259ZM135.377 11.8052L135.557 11.6312V11.6312L135.377 11.8052ZM165.352 1.15316L165.433 0.916739L165.352 1.15316ZM164.077 1.03475L164.077 1.28475L164.096 1.28475L164.114 1.28207L164.077 1.03475ZM166.441 1.8474L166.261 2.02143L166.262 2.02148L166.441 1.8474ZM167.113 2.9708L166.875 3.04701L166.876 3.04786L167.113 2.9708ZM167.229 4.28609L166.981 4.25231L166.976 4.28609L166.981 4.31987L167.229 4.28609ZM167.113 5.60136L166.876 5.5243L166.875 5.52515L167.113 5.60136ZM166.441 6.72478L166.262 6.5507L166.261 6.55074L166.441 6.72478ZM165.352 7.419L165.271 7.18258L165.271 7.18258L165.352 7.419ZM164.077 7.53742L164.114 7.2901L164.096 7.28742H164.077V7.53742ZM153.839 7.53742V7.28742H153.589V7.53742H153.839ZM153.839 13.2324V13.4824H154.089V13.2324H153.839ZM153.051 13.2324H152.801V13.4824H153.051V13.2324ZM153.051 1.03993L153.051 0.789932L152.801 0.790049V1.03993H153.051ZM166.441 4.28638L166.193 4.25261L166.155 4.53638H166.441V4.28638ZM166.355 3.30003L166.117 3.37687L166.117 3.37733L166.355 3.30003ZM166.451 4.28638L166.699 4.25266L166.669 4.03638H166.451V4.28638ZM166.364 5.27469L166.127 5.19742L166.127 5.19764L166.364 5.27469ZM165.858 6.11831L165.679 5.94404L165.679 5.94405L165.858 6.11831ZM165.039 6.63844L165.12 6.87505L165.12 6.87504L165.039 6.63844ZM164.081 6.72481L164.118 6.47761L164.1 6.47481H164.081V6.72481ZM153.839 6.72481H153.589V6.97481H153.839V6.72481ZM153.839 1.84794V1.59794H153.589V1.84794H153.839ZM164.077 1.84794V2.09794H164.096L164.114 2.09527L164.077 1.84794ZM165.033 1.93694L165.115 1.70053V1.70053L165.033 1.93694ZM165.85 2.4576L166.029 2.28361V2.2836L165.85 2.4576ZM12.1039 1.28146C12.4923 1.22413 12.8884 1.26088 13.2609 1.38896L13.4235 0.916129C12.9755 0.762105 12.4987 0.717775 12.0309 0.786815L12.1039 1.28146ZM4.17919 1.27896L12.0673 1.28414L12.0676 0.784135L4.17952 0.778958L4.17919 1.27896ZM2.98585 1.38378C3.35839 1.2557 3.75445 1.21895 4.14285 1.27628L4.21586 0.781637C3.74811 0.712597 3.27127 0.756928 2.82329 0.910951L2.98585 1.38378ZM1.99529 2.01562C2.27405 1.72798 2.61329 1.51188 2.98585 1.38378L2.82329 0.910951C2.37533 1.06497 1.96902 1.32426 1.63623 1.66766L1.99529 2.01562ZM1.3808 3.04194C1.50591 2.65457 1.71648 2.30329 1.99528 2.01563L1.63624 1.66765C1.30346 2.011 1.05333 2.429 0.904999 2.88827L1.3808 3.04194ZM1.27577 4.24613C1.2197 3.84165 1.2557 3.42931 1.3808 3.04193L0.904997 2.88827C0.756688 3.34753 0.714115 3.83587 0.780509 4.31479L1.27577 4.24613ZM1.27814 9.97576V4.28046H0.778141V9.97576H1.27814ZM1.38087 11.2152C1.25561 10.8276 1.21957 10.4149 1.27577 10.0101L0.780516 9.94138C0.713976 10.4207 0.756586 10.9094 0.905095 11.369L1.38087 11.2152ZM1.99616 12.2421C1.71701 11.9543 1.50613 11.6029 1.38087 11.2152L0.905095 11.369C1.05361 11.8286 1.30411 12.2468 1.6373 12.5902L1.99616 12.2421ZM2.98792 12.8737C2.61495 12.7458 2.27528 12.5298 1.99616 12.2421L1.6373 12.5902C1.97053 12.9337 2.37734 13.1929 2.82577 13.3466L2.98792 12.8737ZM4.14589 12.98C3.75726 13.0378 3.36083 13.0015 2.98792 12.8737L2.82577 13.3466C3.27422 13.5004 3.7515 13.5442 4.21952 13.4745L4.14589 12.98ZM12.0674 12.9773H4.1827V13.4773H12.0674V12.9773ZM13.257 12.8701C12.8856 12.9984 12.4907 13.0359 12.1032 12.9798L12.0316 13.4747C12.4983 13.5422 12.9737 13.497 13.4203 13.3427L13.257 12.8701ZM14.2444 12.239C13.9665 12.5259 13.6284 12.7417 13.257 12.8701L13.4203 13.3427C13.8668 13.1884 14.2718 12.9294 14.6036 12.5869L14.2444 12.239ZM14.8577 11.2156C14.7325 11.6018 14.5224 11.952 14.2444 12.239L14.6036 12.5869C14.9353 12.2444 15.1849 11.8276 15.3333 11.3697L14.8577 11.2156ZM14.9643 10.0147C15.0193 10.4183 14.9828 10.8294 14.8576 11.2156L15.3333 11.3697C15.4817 10.9118 15.5249 10.4249 15.4597 9.94713L14.9643 10.0147ZM14.962 6.72944V9.98094H15.462V6.72944H14.962ZM7.33392 6.97944H15.212V6.47944H7.33392V6.97944ZM7.58392 7.54231V6.72944H7.08392V7.54231H7.58392ZM14.4308 7.29231H7.33392V7.79231H14.4308V7.29231ZM14.6808 9.98094V7.54231H14.1808V9.98094H14.6808ZM14.5825 11.0442C14.6967 10.6908 14.7295 10.3151 14.6785 9.94668L14.1832 10.0152C14.2239 10.3093 14.1977 10.609 14.1067 10.8905L14.5825 11.0442ZM14.0194 11.9838C14.2757 11.7194 14.4683 11.3976 14.5825 11.0442L14.1067 10.8905C14.0157 11.172 13.8627 11.4271 13.6604 11.6358L14.0194 11.9838ZM13.1047 12.567C13.4501 12.4482 13.7631 12.2483 14.0195 11.9838L13.6604 11.6359C13.4581 11.8446 13.2121 12.0013 12.9421 12.0942L13.1047 12.567ZM12.031 12.6669C12.3917 12.72 12.7594 12.6858 13.1047 12.567L12.9421 12.0942C12.6722 12.187 12.3852 12.2137 12.1039 12.1722L12.031 12.6669ZM4.1827 12.6696H12.0674V12.1696H4.1827V12.6696ZM3.14538 12.567C3.49076 12.6858 3.85843 12.72 4.21913 12.6669L4.14627 12.1722C3.86489 12.2137 3.57796 12.187 3.30802 12.0942L3.14538 12.567ZM2.23067 11.9838C2.48699 12.2483 2.80005 12.4482 3.14538 12.567L3.30802 12.0942C3.03806 12.0013 2.79203 11.8446 2.58972 11.6359L2.23067 11.9838ZM1.66766 11.0442C1.78183 11.3976 1.97439 11.7194 2.23067 11.9838L2.58972 11.6359C2.38739 11.4271 2.23439 11.172 2.14344 10.8905L1.66766 11.0442ZM1.57165 9.94666C1.52065 10.3151 1.55348 10.6909 1.66766 11.0442L2.14344 10.8905C2.05248 10.609 2.02623 10.3093 2.06693 10.0152L1.57165 9.94666ZM1.56929 4.28563V9.98094H2.06929V4.28563H1.56929ZM1.66766 3.22235C1.55348 3.57572 1.52065 3.95143 1.57165 4.31991L2.06693 4.25136C2.02623 3.95732 2.05248 3.6576 2.14344 3.37607L1.66766 3.22235ZM2.23066 2.28274C1.9744 2.54718 1.78184 2.86896 1.66766 3.22234L2.14344 3.37607C2.23439 3.09458 2.38739 2.83948 2.58972 2.6307L2.23066 2.28274ZM3.14538 1.69961C2.80006 1.8184 2.487 2.01825 2.23067 2.28273L2.58972 2.6307C2.79202 2.42196 3.03805 2.26529 3.30802 2.17242L3.14538 1.69961ZM4.21915 1.59968C3.85843 1.54653 3.49075 1.58081 3.14538 1.69961L3.30802 2.17242C3.57797 2.07956 3.86489 2.05288 4.14626 2.09434L4.21915 1.59968ZM12.0674 1.59701H4.1827V2.09701H12.0674V1.59701ZM13.1036 1.7017C12.7589 1.58246 12.3919 1.54745 12.0316 1.59959L12.1032 2.09443C12.3843 2.05376 12.6707 2.08101 12.9401 2.17422L13.1036 1.7017ZM14.0161 2.28529C13.7604 2.02094 13.4481 1.82094 13.1036 1.70171L12.9401 2.17422C13.2095 2.26744 13.4549 2.42423 13.6567 2.63288L14.0161 2.28529ZM14.5776 3.22391C14.4637 2.87103 14.2717 2.5496 14.0161 2.28529L13.6567 2.63288C13.8585 2.84155 14.0111 3.09638 14.1018 3.37747L14.5776 3.22391ZM14.6735 4.31981C14.7243 3.95189 14.6915 3.57678 14.5776 3.22391L14.1018 3.37747C14.1925 3.65858 14.2187 3.95783 14.1782 4.25146L14.6735 4.31981ZM15.2186 4.03563H14.4258V4.53563H15.2186V4.03563ZM14.866 3.04711C14.9911 3.43449 15.0271 3.84683 14.971 4.2513L15.4663 4.31997C15.5327 3.84105 15.4901 3.3527 15.3418 2.89344L14.866 3.04711ZM14.2515 2.02081C14.5303 2.30847 14.7409 2.65975 14.866 3.04711L15.3418 2.89345C15.1935 2.43417 14.9433 2.01618 14.6106 1.67283L14.2515 2.02081ZM13.2609 1.38896C13.6335 1.51706 13.9727 1.73316 14.2515 2.0208L14.6106 1.67284C14.2778 1.32944 13.8714 1.07014 13.4235 0.91613L13.2609 1.38896ZM31.1534 1.28208C31.5419 1.22475 31.9379 1.2615 32.3105 1.38958L32.473 0.916745C32.025 0.762726 31.5483 0.718398 31.0804 0.787434L31.1534 1.28208ZM20.0811 1.29166L31.117 1.28476L31.1167 0.784756L20.0807 0.791659L20.0811 1.29166ZM20.3309 13.2346V1.04166H19.8309V13.2346H20.3309ZM20.8687 12.9846H20.0809V13.4846H20.8687V12.9846ZM20.6187 7.53939V13.2346H21.1187V7.53939H20.6187ZM31.1135 7.28939H20.8687V7.78939H31.1135V7.28939ZM32.1509 7.39199C31.8056 7.27318 31.4379 7.23891 31.0771 7.29206L31.15 7.78672C31.4315 7.74526 31.7184 7.77194 31.9883 7.86479L32.1509 7.39199ZM33.0657 7.9751C32.8094 7.7106 32.4962 7.51077 32.1509 7.39199L31.9883 7.86479C32.2582 7.95767 32.5044 8.11436 32.7067 8.32308L33.0657 7.9751ZM33.6287 8.91473C33.5146 8.56133 33.322 8.23954 33.0657 7.9751L32.7067 8.32308C32.909 8.53186 33.062 8.78694 33.1529 9.06841L33.6287 8.91473ZM33.7246 10.0124C33.7758 9.64378 33.7428 9.26805 33.6287 8.91473L33.1529 9.06841C33.2439 9.34998 33.2701 9.64966 33.2293 9.94359L33.7246 10.0124ZM33.727 13.2294V9.97798H33.227V13.2294H33.727ZM34.2681 12.9794H33.477V13.4794H34.2681V12.9794ZM34.0181 9.97798V13.2294H34.5181V9.97798H34.0181ZM33.7851 8.462C33.9988 8.92395 34.0805 9.43971 34.0199 9.9484L34.5164 10.0076C34.5879 9.40734 34.4916 8.79841 34.2389 8.2521L33.7851 8.462ZM32.8164 7.34227C33.2351 7.61197 33.5715 8.00013 33.7851 8.46199L34.2389 8.25211C33.9862 7.70568 33.587 7.2439 33.0871 6.92192L32.8164 7.34227ZM33.7851 5.80219C33.5715 6.26404 33.2351 6.6522 32.8164 6.92192L33.0871 7.34227C33.587 7.02027 33.9862 6.5585 34.2389 6.01208L33.7851 5.80219ZM34.0199 4.31579C34.0805 4.82447 33.9988 5.34024 33.7851 5.80219L34.2389 6.01209C34.4916 5.46578 34.5879 4.85683 34.5164 4.25663L34.0199 4.31579ZM33.9155 3.04776C34.0407 3.4351 34.0767 3.84739 34.0205 4.2518L34.5157 4.32062C34.5823 3.84165 34.5397 3.35326 34.3913 2.89399L33.9155 3.04776ZM33.3011 2.02141C33.5799 2.30906 33.7904 2.66033 33.9155 3.04767L34.3913 2.89407C34.243 2.43479 33.9929 2.01679 33.6602 1.67345L33.3011 2.02141ZM32.3105 1.38958C32.6831 1.51767 33.0222 1.73376 33.3012 2.02146L33.6601 1.6734C33.3272 1.33007 32.9211 1.07077 32.473 0.916745L32.3105 1.38958ZM33.1529 3.37691C33.2439 3.65847 33.2702 3.95815 33.2293 4.25206L33.7246 4.32083C33.7758 3.95227 33.7428 3.57654 33.6287 3.22323L33.1529 3.37691ZM32.7067 2.63161C32.909 2.84038 33.062 3.09546 33.1529 3.37691L33.6287 3.22323C33.5146 2.86984 33.322 2.54806 33.0657 2.28363L32.7067 2.63161ZM31.9883 2.17334C32.2583 2.26622 32.5044 2.4229 32.7067 2.63161L33.0657 2.28363C32.8094 2.01914 32.4962 1.81931 32.151 1.70054L31.9883 2.17334ZM31.15 2.09527C31.4315 2.05381 31.7184 2.08049 31.9883 2.17334L32.151 1.70054C31.8056 1.58173 31.4379 1.54746 31.0771 1.60061L31.15 2.09527ZM20.8688 2.09794H31.1136V1.59794H20.8688V2.09794ZM21.1188 6.72496V1.84794H20.6188V6.72496H21.1188ZM31.1102 6.47496H20.8688V6.97496H31.1102V6.47496ZM31.9862 6.40078C31.7161 6.49337 31.4287 6.51966 31.1471 6.47769L31.0734 6.97223C31.4343 7.02603 31.8026 6.99227 32.1483 6.87376L31.9862 6.40078ZM32.7058 5.94269C32.503 6.15153 32.2566 6.30813 31.9863 6.40077L32.1483 6.87377C32.4942 6.75528 32.8077 6.55552 33.0645 6.29101L32.7058 5.94269ZM33.1528 5.1969C33.0617 5.47862 32.9084 5.73391 32.7058 5.94275L33.0646 6.29094C33.3213 6.02645 33.5142 5.70443 33.6285 5.35068L33.1528 5.1969ZM33.2293 4.3208C33.2702 4.61517 33.244 4.91515 33.1528 5.19679L33.6285 5.3508C33.7431 4.99701 33.7758 4.62087 33.7246 4.2521L33.2293 4.3208ZM42.247 12.9797C41.8586 13.037 41.4626 13.0003 41.09 12.8722L40.9275 13.345C41.3755 13.4991 41.8523 13.5434 42.32 13.4744L42.247 12.9797ZM50.1615 12.977H42.2835V13.477H50.1615V12.977ZM51.3551 12.8722C50.9826 13.0003 50.5866 13.037 50.198 12.9797L50.125 13.4744C50.5929 13.5434 51.0697 13.4991 51.5177 13.345L51.3551 12.8722ZM52.3458 12.2403C52.0669 12.528 51.7277 12.7441 51.3551 12.8722L51.5177 13.345C51.9657 13.191 52.3719 12.9317 52.7048 12.5884L52.3458 12.2403ZM52.9601 11.2141C52.8351 11.6015 52.6245 11.9527 52.3458 12.2404L52.7048 12.5884C53.0376 12.245 53.2877 11.827 53.4359 11.3677L52.9601 11.2141ZM53.0652 10.01C53.1214 10.4144 53.0853 10.8267 52.9601 11.214L53.4359 11.3678C53.5844 10.9085 53.627 10.4201 53.5604 9.94118L53.0652 10.01ZM53.0628 4.2804V9.9756H53.5628V4.2804H53.0628ZM52.9601 3.04195C53.0853 3.42929 53.1214 3.84158 53.0652 4.24598L53.5604 4.31481C53.627 3.83584 53.5844 3.34745 53.4359 2.88818L52.9601 3.04195ZM52.3458 2.01561C52.6245 2.30326 52.8351 2.65452 52.9601 3.04187L53.4359 2.88826C53.2877 2.42899 53.0376 2.01099 52.7048 1.66764L52.3458 2.01561ZM51.3551 1.38378C51.7277 1.51187 52.0669 1.72796 52.3458 2.01566L52.7048 1.6676C52.3719 1.32427 51.9657 1.06497 51.5177 0.910946L51.3551 1.38378ZM50.198 1.27628C50.5866 1.21895 50.9826 1.2557 51.3551 1.38378L51.5177 0.910946C51.0697 0.756927 50.5929 0.7126 50.125 0.781635L50.198 1.27628ZM42.2835 1.27896H50.1615V0.778957H42.2835V1.27896ZM41.09 1.38378C41.4626 1.2557 41.8586 1.21895 42.247 1.27628L42.32 0.781637C41.8523 0.712597 41.3755 0.75693 40.9275 0.910946L41.09 1.38378ZM40.0994 2.01566C40.3783 1.72796 40.7175 1.51187 41.09 1.38378L40.9275 0.910946C40.4795 1.06497 40.0733 1.32427 39.7404 1.6676L40.0994 2.01566ZM39.4851 3.04187C39.6101 2.65452 39.8206 2.30326 40.0994 2.01561L39.7403 1.66764C39.4076 2.01099 39.1575 2.42899 39.0092 2.88826L39.4851 3.04187ZM39.3799 4.24608C39.3238 3.84161 39.3598 3.42929 39.485 3.04195L39.0093 2.88818C38.8608 3.34745 38.8182 3.83581 38.8846 4.31472L39.3799 4.24608ZM39.3822 9.9756V4.2804H38.8822V9.9756H39.3822ZM39.485 11.214C39.3598 10.8267 39.3238 10.4144 39.3799 10.0099L38.8846 9.94127C38.8182 10.4202 38.8608 10.9085 39.0093 11.3678L39.485 11.214ZM40.0994 12.2404C39.8206 11.9527 39.6101 11.6015 39.4851 11.2141L39.0092 11.3677C39.1575 11.827 39.4076 12.245 39.7403 12.5884L40.0994 12.2404ZM41.09 12.8722C40.7175 12.7441 40.3783 12.528 40.0993 12.2403L39.7404 12.5884C40.0733 12.9317 40.4795 13.191 40.9275 13.345L41.09 12.8722ZM40.2408 10.8878C40.1499 10.6063 40.1236 10.3066 40.1643 10.0126L39.669 9.94406C39.618 10.3125 39.6509 10.6882 39.7651 11.0415L40.2408 10.8878ZM40.6871 11.6331C40.4848 11.4243 40.3318 11.1693 40.2408 10.8878L39.7651 11.0415C39.8792 11.3949 40.0718 11.7167 40.3281 11.9811L40.6871 11.6331ZM41.4055 12.0914C41.1355 11.9985 40.8894 11.8418 40.6871 11.6331L40.3281 11.9811C40.5844 12.2456 40.8976 12.4454 41.2428 12.5642L41.4055 12.0914ZM42.2436 12.1694C41.9623 12.2109 41.6754 12.1842 41.4055 12.0914L41.2428 12.5642C41.5881 12.683 41.9559 12.7172 42.3165 12.6641L42.2436 12.1694ZM50.1581 12.1668H42.2801V12.6668H50.1581V12.1668ZM51.0328 12.0914C50.763 12.1842 50.476 12.2109 50.1945 12.1694L50.1217 12.6641C50.4824 12.7172 50.8501 12.683 51.1955 12.5642L51.0328 12.0914ZM51.7512 11.6331C51.5489 11.8418 51.3028 11.9985 51.0328 12.0914L51.1955 12.5642C51.5407 12.4454 51.8539 12.2456 52.1102 11.9811L51.7512 11.6331ZM52.1974 10.8878C52.1065 11.1693 51.9535 11.4243 51.7512 11.6331L52.1102 11.9811C52.3665 11.7167 52.5591 11.3949 52.6732 11.0415L52.1974 10.8878ZM52.2739 10.0127C52.3147 10.3066 52.2884 10.6063 52.1974 10.8878L52.6732 11.0415C52.7874 10.6882 52.8203 10.3125 52.7691 9.94394L52.2739 10.0127ZM52.2715 4.28347V9.97833H52.7715V4.28347H52.2715ZM52.1974 3.37397C52.2884 3.65552 52.3147 3.95518 52.2739 4.24909L52.7691 4.31786C52.8203 3.9493 52.7874 3.57359 52.6732 3.22028L52.1974 3.37397ZM51.7512 2.62869C51.9535 2.83746 52.1065 3.09253 52.1974 3.37397L52.6732 3.22028C52.5591 2.8669 52.3665 2.54513 52.1102 2.28071L51.7512 2.62869ZM51.0328 2.17044C51.3028 2.26331 51.5489 2.41999 51.7512 2.62869L52.1102 2.28071C51.8539 2.01622 51.5407 1.8164 51.1955 1.69763L51.0328 2.17044ZM50.1945 2.09237C50.476 2.05091 50.7629 2.0776 51.0328 2.17044L51.1955 1.69763C50.8501 1.57883 50.4824 1.54457 50.1216 1.59771L50.1945 2.09237ZM42.2801 2.09504H50.1581V1.59504H42.2801V2.09504ZM41.4055 2.17044C41.6754 2.07759 41.9623 2.05091 42.2436 2.09237L42.3165 1.59771C41.9558 1.54456 41.5881 1.57884 41.2428 1.69763L41.4055 2.17044ZM40.6871 2.62869C40.8894 2.41999 41.1355 2.26331 41.4055 2.17044L41.2428 1.69763C40.8976 1.8164 40.5844 2.01622 40.3281 2.28071L40.6871 2.62869ZM40.2408 3.37397C40.3318 3.09253 40.4848 2.83746 40.6871 2.62869L40.3281 2.28071C40.0718 2.54513 39.8792 2.8669 39.7651 3.22028L40.2408 3.37397ZM40.1643 4.24921C40.1236 3.95522 40.1499 3.65552 40.2408 3.37397L39.7651 3.22028C39.6509 3.57359 39.618 3.94926 39.669 4.31774L40.1643 4.24921ZM40.1666 9.97833V4.28347H39.6666V9.97833H40.1666ZM71.821 9.9763V1.03479H71.321V9.9763H71.821ZM71.7228 11.0395C71.8369 10.6862 71.8698 10.3105 71.8187 9.94192L71.3234 10.0107C71.3642 10.3046 71.3379 10.6043 71.247 10.8859L71.7228 11.0395ZM71.1598 11.9792C71.4161 11.7147 71.6086 11.3929 71.7228 11.0395L71.247 10.8859C71.1561 11.1673 71.0031 11.4224 70.8007 11.6312L71.1598 11.9792ZM70.245 12.5623C70.5902 12.4435 70.9034 12.2437 71.1598 11.9792L70.8007 11.6312C70.5984 11.8399 70.3523 11.9966 70.0824 12.0895L70.245 12.5623ZM69.1713 12.6622C69.532 12.7154 69.8997 12.6811 70.245 12.5623L70.0823 12.0895C69.8125 12.1823 69.5255 12.209 69.2442 12.1676L69.1713 12.6622ZM61.3296 12.6649H69.2078V12.1649H61.3296V12.6649ZM60.2923 12.5623C60.6376 12.6811 61.0054 12.7154 61.366 12.6622L61.2931 12.1676C61.0118 12.209 60.7249 12.1823 60.455 12.0895L60.2923 12.5623ZM59.3776 11.9792C59.6339 12.2437 59.9471 12.4435 60.2923 12.5623L60.455 12.0895C60.185 11.9966 59.9389 11.8399 59.7366 11.6312L59.3776 11.9792ZM58.8146 11.0395C58.9287 11.3929 59.1213 11.7147 59.3776 11.9792L59.7366 11.6312C59.5343 11.4224 59.3813 11.1673 59.2904 10.8859L58.8146 11.0395ZM58.7187 9.94192C58.6675 10.3105 58.7004 10.6862 58.8146 11.0395L59.2904 10.8859C59.1994 10.6043 59.1731 10.3046 59.2139 10.0107L58.7187 9.94192ZM58.7163 1.03479V9.9763H59.2163V1.03479H58.7163ZM58.1783 1.28479H58.9663V0.784791H58.1783V1.28479ZM58.4283 9.9763V1.03479H57.9283V9.9763H58.4283ZM58.5311 11.2148C58.4059 10.8274 58.3699 10.4151 58.426 10.0106L57.9307 9.94198C57.8643 10.4209 57.9069 10.9093 58.0554 11.3685L58.5311 11.2148ZM59.1455 12.2411C58.8667 11.9535 58.6562 11.6022 58.5312 11.2148L58.0553 11.3684C58.2036 11.8277 58.4537 12.2457 58.7865 12.5891L59.1455 12.2411ZM60.1361 12.8729C59.7636 12.7448 59.4244 12.5287 59.1455 12.2411L58.7865 12.5891C59.1194 12.9324 59.5256 13.1917 59.9736 13.3458L60.1361 12.8729ZM61.2931 12.9804C60.9047 13.0378 60.5087 13.001 60.1361 12.8729L59.9736 13.3458C60.4216 13.4998 60.8984 13.5441 61.3661 13.4751L61.2931 12.9804ZM69.2078 12.9778H61.3296V13.4778H69.2078V12.9778ZM70.4012 12.8729C70.0286 13.001 69.6326 13.0378 69.2443 12.9804L69.1713 13.4751C69.639 13.5441 70.1158 13.4998 70.5638 13.3458L70.4012 12.8729ZM71.3919 12.2411C71.1129 12.5287 70.7738 12.7448 70.4012 12.8729L70.5638 13.3458C71.0118 13.1917 71.418 12.9324 71.7508 12.5891L71.3919 12.2411ZM72.0062 11.2148C71.8811 11.6022 71.6706 11.9535 71.3918 12.2411L71.7509 12.5891C72.0836 12.2457 72.3337 11.8277 72.482 11.3684L72.0062 11.2148ZM72.1114 10.0106C72.1674 10.4151 72.1314 10.8274 72.0062 11.2148L72.482 11.3685C72.6304 10.9093 72.673 10.4209 72.6066 9.94198L72.1114 10.0106ZM72.109 1.03479V9.9763H72.609V1.03479H72.109ZM71.571 1.28479H72.359V0.784791H71.571V1.28479ZM89.6115 0.916739C89.1635 0.762728 88.6867 0.718397 88.219 0.787434L88.292 1.28207C88.6804 1.22475 89.0764 1.2615 89.449 1.38958L89.6115 0.916739ZM90.7986 1.67337C90.4657 1.33005 90.0595 1.07075 89.6115 0.916739L89.449 1.38958C89.8215 1.51766 90.1607 1.73374 90.4396 2.02143L90.7986 1.67337ZM91.5297 2.894C91.3815 2.43473 91.1314 2.01675 90.7986 1.67341L90.4396 2.02138C90.7183 2.30902 90.9289 2.66028 91.0539 3.0476L91.5297 2.894ZM91.6544 4.32041C91.7207 3.84152 91.6782 3.35317 91.5297 2.89391L91.0539 3.04769C91.1791 3.43502 91.2152 3.84731 91.1591 4.25177L91.6544 4.32041ZM91.5297 5.67825C91.6782 5.219 91.7207 4.73066 91.6544 4.25177L91.1591 4.32041C91.2152 4.72487 91.1791 5.13716 91.0539 5.52447L91.5297 5.67825ZM90.7986 6.89877C91.1314 6.55543 91.3815 6.13742 91.5297 5.67816L91.0539 5.52456C90.9289 5.91189 90.7183 6.26316 90.4396 6.55079L90.7986 6.89877ZM89.6115 7.65542C90.0595 7.50141 90.4657 7.24212 90.7986 6.89881L90.4396 6.55075C90.1607 6.83842 89.8215 7.0545 89.449 7.18258L89.6115 7.65542ZM88.219 7.78474C88.6867 7.85378 89.1635 7.80945 89.6115 7.65542L89.449 7.18258C89.0764 7.31068 88.6804 7.34743 88.292 7.2901L88.219 7.78474ZM78.0141 7.78742H88.2555V7.28742H78.0141V7.78742ZM78.2641 13.2324V7.53742H77.7641V13.2324H78.2641ZM77.2261 13.4824H78.0141V12.9824H77.2261V13.4824ZM76.9761 1.03993V13.2324H77.4761V1.03993H76.9761ZM88.2554 0.784755L77.226 0.789932L77.2262 1.28993L88.2556 1.28475L88.2554 0.784755ZM90.8667 4.3206C90.9179 3.95206 90.885 3.57637 90.7709 3.22308L90.2951 3.37678C90.386 3.65831 90.4123 3.95795 90.3715 4.25183L90.8667 4.3206ZM90.6208 4.03622H90.6191V4.53622H90.6208V4.03622ZM90.7725 5.3498C90.8867 4.99639 90.9196 4.62052 90.8684 4.25184L90.3731 4.32059C90.414 4.61465 90.3877 4.91449 90.2967 5.19617L90.7725 5.3498ZM90.209 6.2897C90.4654 6.02526 90.6582 5.70341 90.7725 5.34992L90.2968 5.19605C90.2057 5.47765 90.0525 5.73281 89.85 5.9416L90.209 6.2897ZM89.2934 6.87262C89.639 6.75399 89.9524 6.55421 90.209 6.2897L89.85 5.9416C89.6476 6.15032 89.4013 6.30694 89.1311 6.3997L89.2934 6.87262ZM88.2192 6.97179C88.58 7.02524 88.9479 6.99125 89.2934 6.87261L89.1311 6.39971C88.8611 6.49242 88.574 6.51889 88.2925 6.47719L88.2192 6.97179ZM78.0144 6.97449H88.2559V6.47449H78.0144V6.97449ZM77.7644 1.84794V6.72449H78.2644V1.84794H77.7644ZM88.2559 1.59794H78.0144V2.09794H88.2559V1.59794ZM89.2931 1.70052C88.9478 1.58174 88.5801 1.54746 88.2194 1.60061L88.2923 2.09527C88.5736 2.05382 88.8605 2.08049 89.1304 2.17333L89.2931 1.70052ZM90.2078 2.28356C89.9515 2.01909 89.6383 1.81928 89.2931 1.70052L89.1304 2.17333C89.4004 2.2662 89.6465 2.42287 89.8488 2.63156L90.2078 2.28356ZM90.7709 3.22308C90.6567 2.86972 90.4641 2.54797 90.2078 2.28356L89.8488 2.63156C90.0512 2.84031 90.2042 3.09536 90.2951 3.37678L90.7709 3.22308ZM97.6998 13.3454C98.1478 13.4994 98.6245 13.5438 99.0922 13.4747L99.0192 12.9801C98.6309 13.0374 98.2349 13.0007 97.8623 12.8726L97.6998 13.3454ZM96.5127 12.5888C96.8456 12.9321 97.2517 13.1914 97.6998 13.3454L97.8623 12.8726C97.4897 12.7445 97.1506 12.5284 96.8717 12.2407L96.5127 12.5888ZM95.7815 11.3681C95.9298 11.8274 96.1799 12.2454 96.5126 12.5887L96.8717 12.2408C96.5929 11.9531 96.3824 11.6018 96.2573 11.2145L95.7815 11.3681ZM95.6569 9.9417C95.5905 10.4206 95.6331 10.909 95.7816 11.3682L96.2573 11.2144C96.1321 10.8271 96.0961 10.4148 96.1522 10.0104L95.6569 9.9417ZM96.6925 9.72603H95.9045V10.226H96.6925V9.72603ZM97.0165 10.8856C96.9256 10.604 96.8993 10.3043 96.9401 10.0104L96.4449 9.94164C96.3937 10.3102 96.4266 10.6859 96.5407 11.0392L97.0165 10.8856ZM97.4628 11.6309C97.2605 11.4221 97.1075 11.167 97.0165 10.8856L96.5407 11.0392C96.6549 11.3926 96.8475 11.7144 97.1037 11.9788L97.4628 11.6309ZM98.1812 12.0892C97.9112 11.9963 97.6651 11.8396 97.4628 11.6309L97.1037 11.9788C97.3601 12.2433 97.6733 12.4432 98.0185 12.562L98.1812 12.0892ZM99.0193 12.1672C98.738 12.2087 98.451 12.182 98.1812 12.0892L98.0185 12.562C98.3638 12.6808 98.7315 12.715 99.0922 12.6619L99.0193 12.1672ZM106.934 12.1646H99.0557V12.6646H106.934V12.1646ZM107.808 12.0892C107.539 12.182 107.252 12.2087 106.97 12.1672L106.897 12.6619C107.258 12.715 107.626 12.6808 107.971 12.562L107.808 12.0892ZM108.527 11.6309C108.325 11.8396 108.078 11.9963 107.808 12.0892L107.971 12.562C108.316 12.4432 108.63 12.2433 108.886 11.9788L108.527 11.6309ZM108.973 10.8856C108.882 11.167 108.729 11.4221 108.527 11.6309L108.886 11.9789C109.142 11.7144 109.335 11.3926 109.449 11.0392L108.973 10.8856ZM109.05 10.0103C109.09 10.3043 109.064 10.604 108.973 10.8856L109.449 11.0392C109.563 10.6859 109.596 10.3103 109.545 9.94176L109.05 10.0103ZM108.973 9.06648C109.064 9.34804 109.09 9.64776 109.05 9.94176L109.545 10.0103C109.596 9.6418 109.563 9.26612 109.449 8.9128L108.973 9.06648ZM108.527 8.32117C108.729 8.52995 108.882 8.78503 108.973 9.06648L109.449 8.9128C109.335 8.55941 109.142 8.23763 108.886 7.97319L108.527 8.32117ZM107.808 7.8629C108.078 7.95577 108.325 8.11247 108.527 8.32118L108.886 7.97319C108.63 7.70872 108.316 7.50887 107.971 7.3901L107.808 7.8629ZM106.97 7.78483C107.252 7.74337 107.539 7.77005 107.808 7.8629L107.971 7.3901C107.626 7.2713 107.258 7.23702 106.897 7.29017L106.97 7.78483ZM99.0557 7.7875H106.934V7.2875H99.0557V7.7875ZM97.6998 7.65549C98.1478 7.80953 98.6245 7.85386 99.0922 7.78482L99.0192 7.29018C98.6309 7.3475 98.2349 7.31076 97.8623 7.18266L97.6998 7.65549ZM96.5127 6.89888C96.8456 7.24218 97.2517 7.50148 97.6998 7.6555L97.8623 7.18266C97.4897 7.05458 97.1506 6.83849 96.8717 6.55081L96.5127 6.89888ZM95.7815 5.67822C95.9298 6.13748 96.1799 6.55549 96.5126 6.89883L96.8717 6.55086C96.5929 6.26322 96.3824 5.91195 96.2573 5.52461L95.7815 5.67822ZM95.6569 4.2518C95.5905 4.7307 95.6331 5.21905 95.7816 5.6783L96.2573 5.52452C96.1321 5.13721 96.0961 4.72491 96.1522 4.32045L95.6569 4.2518ZM95.7816 2.89393C95.6331 3.3532 95.5905 3.84155 95.6569 4.32045L96.1522 4.2518C96.0961 3.84735 96.1321 3.43504 96.2573 3.04771L95.7816 2.89393ZM96.5126 1.67342C96.1799 2.01676 95.9298 2.43475 95.7815 2.89402L96.2573 3.04763C96.3824 2.66029 96.5929 2.30903 96.8717 2.02139L96.5126 1.67342ZM97.6998 0.916741C97.2517 1.07076 96.8456 1.33005 96.5127 1.67338L96.8717 2.02144C97.1506 1.73375 97.4897 1.51766 97.8623 1.38958L97.6998 0.916741ZM99.0922 0.787435C98.6245 0.718396 98.1478 0.762728 97.6998 0.916741L97.8623 1.38958C98.2349 1.2615 98.6309 1.22475 99.0192 1.28207L99.0922 0.787435ZM106.934 0.784755H99.0557V1.28475H106.934V0.784755ZM108.289 0.917431C107.842 0.763273 107.365 0.718693 106.898 0.787413L106.97 1.2821C107.358 1.22504 107.754 1.26199 108.127 1.3902L108.289 0.917431ZM109.476 1.67424C109.143 1.3309 108.737 1.07159 108.29 0.917442L108.127 1.39019C108.499 1.51841 108.838 1.73456 109.117 2.02213L109.476 1.67424ZM110.207 2.8945C110.058 2.43539 109.808 2.01754 109.476 1.67429L109.117 2.02208C109.395 2.30974 109.606 2.66097 109.731 3.04815L110.207 2.8945ZM110.331 4.32046C110.397 3.84171 110.355 3.35358 110.207 2.89457L109.731 3.04807C109.856 3.43532 109.892 3.8475 109.836 4.25179L110.331 4.32046ZM109.295 4.53613H110.083V4.03613H109.295V4.53613ZM108.971 3.37658C109.062 3.65814 109.089 3.95782 109.048 4.25174L109.543 4.32051C109.594 3.95194 109.561 3.57622 109.447 3.2229L108.971 3.37658ZM108.525 2.63127C108.728 2.84005 108.881 3.09513 108.971 3.37658L109.447 3.2229C109.333 2.86951 109.141 2.54773 108.884 2.28329L108.525 2.63127ZM107.807 2.173C108.077 2.26587 108.323 2.42256 108.525 2.63127L108.884 2.28329C108.628 2.0188 108.315 1.81897 107.969 1.7002L107.807 2.173ZM106.969 2.09493C107.25 2.05347 107.537 2.08015 107.807 2.173L107.969 1.7002C107.624 1.58139 107.256 1.54712 106.896 1.60027L106.969 2.09493ZM99.0541 2.0976H106.932V1.5976H99.0541V2.0976ZM98.1795 2.173C98.4494 2.08015 98.7363 2.05347 99.0176 2.09493L99.0905 1.60027C98.7299 1.54712 98.3621 1.58139 98.0168 1.7002L98.1795 2.173ZM97.4611 2.63127C97.6634 2.42256 97.9095 2.26587 98.1795 2.173L98.0168 1.7002C97.6716 1.81897 97.3584 2.0188 97.1021 2.28329L97.4611 2.63127ZM97.0149 3.37658C97.1058 3.09512 97.2588 2.84004 97.4611 2.63127L97.1021 2.28329C96.8458 2.54773 96.6532 2.86951 96.5391 3.2229L97.0149 3.37658ZM96.9385 4.25174C96.8976 3.95782 96.9239 3.65814 97.0149 3.37658L96.5391 3.2229C96.4249 3.57621 96.392 3.95194 96.4432 4.32051L96.9385 4.25174ZM97.0149 5.19565C96.9239 4.91411 96.8976 4.61443 96.9385 4.32051L96.4432 4.25174C96.392 4.62031 96.4249 4.99604 96.5391 5.34934L97.0149 5.19565ZM97.4611 5.94096C97.2588 5.73221 97.1058 5.47712 97.0149 5.19565L96.5391 5.34934C96.6532 5.70272 96.8458 6.02452 97.1021 6.28895L97.4611 5.94096ZM98.1795 6.39926C97.9095 6.30638 97.6634 6.14968 97.4611 5.94096L97.1021 6.28894C97.3584 6.55343 97.6716 6.75328 98.0168 6.87206L98.1795 6.39926ZM99.0176 6.47732C98.7363 6.51877 98.4494 6.4921 98.1795 6.39926L98.0168 6.87206C98.3621 6.99086 98.7299 7.02512 99.0905 6.97199L99.0176 6.47732ZM106.932 6.47466H99.0541V6.97466H106.932V6.47466ZM108.288 6.60664C107.84 6.45263 107.363 6.4083 106.896 6.47734L106.969 6.97198C107.357 6.91465 107.753 6.9514 108.126 7.07948L108.288 6.60664ZM109.475 7.36328C109.142 7.01995 108.736 6.76068 108.288 6.60665L108.126 7.07948C108.498 7.20758 108.837 7.42365 109.116 7.71134L109.475 7.36328ZM110.206 8.58392C110.058 8.12466 109.808 7.70666 109.475 7.36332L109.116 7.71129C109.395 7.99893 109.606 8.35019 109.731 8.73753L110.206 8.58392ZM110.331 10.0104C110.397 9.53148 110.355 9.0431 110.206 8.58383L109.731 8.73762C109.856 9.12495 109.892 9.53721 109.836 9.94161L110.331 10.0104ZM110.206 11.3682C110.355 10.909 110.397 10.4206 110.331 9.94161L109.836 10.0104C109.892 10.4148 109.856 10.8271 109.731 11.2144L110.206 11.3682ZM109.475 12.5887C109.808 12.2454 110.058 11.8274 110.206 11.3681L109.731 11.2145C109.606 11.6018 109.395 11.9531 109.116 12.2408L109.475 12.5887ZM108.288 13.3454C108.736 13.1914 109.142 12.9321 109.475 12.5888L109.116 12.2407C108.837 12.5284 108.498 12.7445 108.126 12.8726L108.288 13.3454ZM106.896 13.4747C107.363 13.5438 107.84 13.4994 108.288 13.3454L108.126 12.8726C107.753 13.0007 107.357 13.0374 106.969 12.9801L106.896 13.4747ZM99.0557 13.4774H106.932V12.9774H99.0557V13.4774ZM115.49 7.53251V13.2277H115.99V7.53251H115.49ZM128.349 7.28251H115.74V7.78251H128.349V7.28251ZM128.599 13.2277V7.53251H128.099V13.2277H128.599ZM129.137 12.9777H128.349V13.4777H129.137V12.9777ZM128.887 1.03479V13.2277H129.387V1.03479H128.887ZM128.349 1.28479H129.137V0.784791H128.349V1.28479ZM128.599 6.73V1.03479H128.099V6.73H128.599ZM115.74 6.98H128.349V6.48H115.74V6.98ZM115.49 1.03479V6.73H115.99V1.03479H115.49ZM114.953 1.28479H115.74V0.784791H114.953V1.28479ZM115.203 13.2277V1.03479H114.703V13.2277H115.203ZM115.74 12.9777H114.953V13.4777H115.74V12.9777ZM135.795 13.3437C136.242 13.498 136.719 13.5428 137.186 13.4744L137.114 12.9797C136.725 13.0364 136.33 12.9993 135.957 12.871L135.795 13.3437ZM134.609 12.5866C134.941 12.93 135.347 13.1893 135.794 13.3437L135.957 12.871C135.585 12.7426 135.246 12.5265 134.968 12.2389L134.609 12.5866ZM133.879 11.3667C134.027 11.8257 134.277 12.2434 134.609 12.5867L134.968 12.2389C134.69 11.9513 134.479 11.6002 134.354 11.2132L133.879 11.3667ZM133.754 9.94125C133.688 10.4199 133.731 10.9078 133.879 11.3667L134.354 11.2132C134.23 10.826 134.194 10.4141 134.25 10.0099L133.754 9.94125ZM133.752 4.2804V9.9756H134.252V4.2804H133.752ZM133.879 2.88818C133.73 3.34745 133.688 3.83584 133.754 4.31481L134.25 4.24598C134.193 3.84158 134.229 3.4293 134.355 3.04196L133.879 2.88818ZM134.61 1.66764C134.277 2.01099 134.027 2.42899 133.879 2.88826L134.355 3.04187C134.48 2.65452 134.69 2.30326 134.969 2.01562L134.61 1.66764ZM135.797 0.910946C135.349 1.06497 134.943 1.32427 134.61 1.6676L134.969 2.01566C135.248 1.72796 135.587 1.51187 135.96 1.38378L135.797 0.910946ZM137.19 0.781635C136.722 0.7126 136.245 0.756927 135.797 0.910946L135.96 1.38378C136.332 1.2557 136.728 1.21895 137.117 1.27628L137.19 0.781635ZM145.041 0.778957H137.153V1.27896H145.041V0.778957ZM146.397 0.910945C145.949 0.756928 145.473 0.712599 145.005 0.781635L145.078 1.27628C145.466 1.21895 145.862 1.2557 146.235 1.38379L146.397 0.910945ZM147.584 1.6676C147.252 1.32427 146.845 1.06497 146.397 0.910946L146.235 1.38378C146.607 1.51187 146.947 1.72796 147.225 2.01566L147.584 1.6676ZM148.316 2.88826C148.167 2.42899 147.917 2.01099 147.585 1.66764L147.225 2.01561C147.504 2.30326 147.715 2.65453 147.84 3.04187L148.316 2.88826ZM148.44 4.31472C148.507 3.83581 148.464 3.34746 148.316 2.88818L147.84 3.04195C147.965 3.42929 148.001 3.84161 147.945 4.24608L148.44 4.31472ZM148.443 9.9756V4.2804H147.943V9.9756H148.443ZM148.316 11.3678C148.464 10.9085 148.507 10.4202 148.44 9.94127L147.945 10.0099C148.001 10.4144 147.965 10.8267 147.84 11.214L148.316 11.3678ZM147.585 12.5884C147.917 12.245 148.167 11.827 148.316 11.3677L147.84 11.2141C147.715 11.6014 147.504 11.9527 147.225 12.2404L147.585 12.5884ZM146.397 13.345C146.845 13.191 147.252 12.9317 147.584 12.5884L147.226 12.2403C146.947 12.528 146.607 12.7441 146.235 12.8722L146.397 13.345ZM145.005 13.4744C145.473 13.5434 145.949 13.4991 146.397 13.345L146.235 12.8722C145.862 13.0003 145.466 13.037 145.078 12.9797L145.005 13.4744ZM137.15 13.477H145.041V12.977H137.15V13.477ZM134.539 9.94203C134.488 10.3106 134.521 10.6863 134.635 11.0396L135.111 10.8859C135.02 10.6044 134.994 10.3047 135.034 10.0108L134.539 9.94203ZM134.55 4.2859L134.537 9.97583L135.037 9.97699L135.05 4.28706L134.55 4.2859ZM134.648 3.22324C134.534 3.57657 134.501 3.95225 134.552 4.32074L135.048 4.25222C135.007 3.95822 135.033 3.65849 135.124 3.37693L134.648 3.22324ZM135.211 2.28364C134.955 2.54807 134.762 2.86985 134.648 3.22325L135.124 3.37693C135.215 3.09548 135.368 2.84039 135.57 2.63161L135.211 2.28364ZM136.126 1.70054C135.781 1.81931 135.468 2.01914 135.211 2.28363L135.57 2.63162C135.773 2.4229 136.019 2.26622 136.289 2.17334L136.126 1.70054ZM137.2 1.60061C136.839 1.54746 136.471 1.58174 136.126 1.70054L136.289 2.17334C136.559 2.08049 136.846 2.05381 137.127 2.09527L137.2 1.60061ZM145.041 1.59794H137.163V2.09794H145.041V1.59794ZM146.077 1.70036C145.732 1.58188 145.365 1.54766 145.005 1.6006L145.078 2.09529C145.359 2.05399 145.645 2.08063 145.915 2.17324L146.077 1.70036ZM146.991 2.28196C146.735 2.01815 146.422 1.81884 146.077 1.70038L145.915 2.17323C146.184 2.26586 146.43 2.42213 146.632 2.63029L146.991 2.28196ZM147.554 3.21936C147.44 2.86668 147.247 2.54569 146.991 2.28197L146.632 2.63028C146.835 2.83853 146.988 3.09299 147.079 3.37381L147.554 3.21936ZM147.653 4.31486C147.703 3.94696 147.669 3.57193 147.554 3.21926L147.079 3.37391C147.17 3.65474 147.197 3.95395 147.157 4.24775L147.653 4.31486ZM147.655 9.97641V4.2813H147.155V9.97641H147.655ZM147.557 11.0396C147.671 10.6863 147.704 10.3106 147.653 9.94215L147.157 10.0107C147.198 10.3047 147.172 10.6044 147.081 10.8859L147.557 11.0396ZM146.994 11.9792C147.25 11.7148 147.442 11.393 147.557 11.0396L147.081 10.8859C146.99 11.1674 146.837 11.4225 146.635 11.6312L146.994 11.9792ZM146.079 12.5623C146.424 12.4436 146.737 12.2437 146.994 11.9792L146.635 11.6313C146.432 11.84 146.186 11.9967 145.916 12.0895L146.079 12.5623ZM145.005 12.6623C145.366 12.7154 145.733 12.6812 146.079 12.5623L145.916 12.0895C145.646 12.1824 145.359 12.2091 145.078 12.1676L145.005 12.6623ZM137.15 12.6649H145.041V12.1649H137.15V12.6649ZM136.113 12.5623C136.458 12.6812 136.826 12.7154 137.187 12.6623L137.114 12.1676C136.832 12.2091 136.545 12.1824 136.275 12.0895L136.113 12.5623ZM135.198 11.9792C135.454 12.2437 135.768 12.4436 136.113 12.5623L136.275 12.0895C136.005 11.9967 135.759 11.84 135.557 11.6312L135.198 11.9792ZM134.635 11.0396C134.749 11.393 134.942 11.7148 135.198 11.9792L135.557 11.6312C135.355 11.4225 135.202 11.1674 135.111 10.8859L134.635 11.0396ZM165.433 0.916739C164.985 0.762728 164.509 0.718397 164.041 0.787434L164.114 1.28207C164.502 1.22475 164.898 1.2615 165.271 1.38958L165.433 0.916739ZM166.62 1.67337C166.288 1.33005 165.881 1.07075 165.433 0.916739L165.271 1.38958C165.643 1.51766 165.982 1.73374 166.261 2.02143L166.62 1.67337ZM167.351 2.89459C167.204 2.43471 166.953 2.01656 166.62 1.67331L166.262 2.02148C166.541 2.30921 166.751 2.6603 166.875 3.04701L167.351 2.89459ZM167.476 4.31987C167.542 3.84164 167.5 3.35341 167.351 2.89374L166.876 3.04786C167.001 3.43478 167.036 3.84719 166.981 4.25231L167.476 4.31987ZM167.351 5.67842C167.5 5.21877 167.542 4.73053 167.476 4.25231L166.981 4.31987C167.036 4.72499 167.001 5.1374 166.876 5.5243L167.351 5.67842ZM166.62 6.89886C166.953 6.55561 167.204 6.13745 167.351 5.67757L166.875 5.52515C166.751 5.91186 166.541 6.26297 166.262 6.5507L166.62 6.89886ZM165.433 7.65542C165.881 7.50141 166.288 7.24212 166.62 6.89882L166.261 6.55074C165.983 6.83842 165.643 7.0545 165.271 7.18258L165.433 7.65542ZM164.041 7.78474C164.509 7.85378 164.985 7.80945 165.433 7.65542L165.271 7.18258C164.898 7.31068 164.502 7.34743 164.114 7.2901L164.041 7.78474ZM153.839 7.78742H164.077V7.28742H153.839V7.78742ZM154.089 13.2324V7.53742H153.589V13.2324H154.089ZM153.051 13.4824H153.839V12.9824H153.051V13.4824ZM152.801 1.03993V13.2324H153.301V1.03993H152.801ZM164.077 0.784755L153.051 0.789932L153.052 1.28993L164.077 1.28475L164.077 0.784755ZM166.689 4.32014C166.739 3.95259 166.707 3.57688 166.592 3.22272L166.117 3.37733C166.208 3.65803 166.234 3.9577 166.193 4.25261L166.689 4.32014ZM166.451 4.03638H166.441V4.53638H166.451V4.03638ZM166.602 5.35197C166.718 4.9972 166.749 4.62082 166.699 4.25266L166.203 4.32009C166.244 4.61571 166.218 4.91612 166.127 5.19742L166.602 5.35197ZM166.037 6.29257C166.295 6.02794 166.488 5.70567 166.602 5.35174L166.127 5.19764C166.035 5.47975 165.882 5.73521 165.679 5.94404L166.037 6.29257ZM165.12 6.87504C165.466 6.75686 165.78 6.5572 166.037 6.29257L165.679 5.94405C165.476 6.15292 165.229 6.30945 164.958 6.40184L165.12 6.87504ZM164.044 6.97202C164.405 7.02648 164.773 6.99323 165.12 6.87505L164.958 6.40183C164.687 6.49422 164.4 6.52009 164.118 6.47761L164.044 6.97202ZM153.839 6.97481H164.081V6.47481H153.839V6.97481ZM153.589 1.84794V6.72481H154.089V1.84794H153.589ZM164.077 1.59794H153.839V2.09794H164.077V1.59794ZM165.115 1.70053C164.769 1.58174 164.402 1.54746 164.041 1.60061L164.114 2.09527C164.395 2.05381 164.682 2.08049 164.952 2.17334L165.115 1.70053ZM166.029 2.2836C165.773 2.01912 165.46 1.8193 165.115 1.70053L164.952 2.17334C165.222 2.26621 165.468 2.42289 165.67 2.6316L166.029 2.2836ZM166.592 3.22318C166.478 2.8698 166.286 2.54803 166.029 2.28361L165.67 2.63159C165.873 2.84036 166.026 3.09543 166.117 3.37687L166.592 3.22318Z" fill="black"/>
</svg>
