<svg width="168" height="14" viewBox="0 0 168 14" fill="none" xmlns="http://www.w3.org/2000/svg">
<path fill-rule="evenodd" clip-rule="evenodd" d="M13.3422 1.15255C12.932 1.01149 12.4955 0.970952 12.0674 1.03414L4.17936 1.02896C3.75128 0.965774 3.31483 1.00631 2.90457 1.14737C2.49431 1.28842 2.12153 1.52612 1.81576 1.84164C1.50997 2.15715 1.27962 2.54179 1.1429 2.9651C1.0062 3.38842 0.966906 3.83876 1.02814 4.28046V9.97576C0.966772 10.4178 1.0061 10.8685 1.14298 11.2921C1.27987 11.7157 1.51056 12.1006 1.81673 12.4162C2.1229 12.7317 2.49615 12.9693 2.90684 13.1101C3.31752 13.2509 3.75438 13.291 4.1827 13.2273H12.0674C12.4945 13.2891 12.9297 13.2477 13.3386 13.1064C13.7476 12.9651 14.1191 12.7277 14.424 12.4129C14.7289 12.0982 14.9587 11.7147 15.0955 11.2927C15.2322 10.8706 15.2721 10.4216 15.212 9.98094V6.72944H7.33392V7.54231H14.4308V9.98094C14.4767 10.3122 14.4472 10.6499 14.3446 10.9673C14.242 11.2848 14.0692 11.5732 13.8399 11.8098C13.6106 12.0465 13.3311 12.2247 13.0234 12.3306C12.7158 12.4364 12.3885 12.4669 12.0674 12.4196H4.1827C3.86166 12.4669 3.53436 12.4364 3.2267 12.3306C2.91905 12.2247 2.63951 12.0465 2.41019 11.8098C2.18089 11.5732 2.00811 11.2848 1.90555 10.9673C1.80298 10.6499 1.77344 10.3122 1.81929 9.98094V4.28563C1.77344 3.95438 1.80298 3.61666 1.90555 3.29921C2.00811 2.98177 2.18089 2.69333 2.41019 2.45672C2.63951 2.2201 2.91905 2.04184 3.2267 1.93601C3.53436 1.83018 3.86166 1.7997 4.1827 1.84701H12.0674C12.3881 1.8006 12.7148 1.83174 13.0218 1.93796C13.3288 2.04419 13.6077 2.22259 13.8364 2.45908C14.0651 2.69558 14.2374 2.98371 14.3397 3.30069C14.442 3.61768 14.4715 3.95486 14.4258 4.28563H15.2186C15.2799 3.84394 15.2406 3.3936 15.1039 2.97028C14.9672 2.54696 14.7368 2.16232 14.431 1.84682C14.1253 1.5313 13.7525 1.2936 13.3422 1.15255ZM32.3909 1.15323C31.9806 1.01217 31.5443 0.971634 31.1161 1.03482L20.0801 1.04172V13.2347H20.8679V7.53945H31.1127C31.4339 7.49215 31.7612 7.52262 32.0688 7.62845C32.3764 7.73428 32.656 7.91254 32.8854 8.14915C33.1147 8.38576 33.2875 8.6742 33.39 8.99163C33.4925 9.30908 33.5221 9.64679 33.4761 9.97804V13.2295H34.2673V9.97804C34.3334 9.42358 34.2444 8.86124 34.0112 8.35711C33.778 7.85296 33.4102 7.428 32.9509 7.13216C33.4102 6.8363 33.778 6.41133 34.0112 5.9072C34.2444 5.40307 34.3334 4.84071 34.2673 4.28627C34.3287 3.84458 34.2894 3.39424 34.1525 2.97093C34.0159 2.54762 33.7856 2.16299 33.4798 1.84749C33.1739 1.53197 32.8012 1.29428 32.3909 1.15323ZM33.4773 4.28633C33.5233 3.95508 33.4937 3.61738 33.3912 3.29995C33.2887 2.98253 33.1159 2.6941 32.8866 2.4575C32.6572 2.22089 32.3776 2.04264 32.07 1.93681C31.7624 1.83099 31.4351 1.80051 31.1139 1.84782H20.8691V6.72483H31.1106C31.4319 6.77272 31.7597 6.7427 32.0676 6.63715C32.3757 6.53158 32.6557 6.3534 32.8856 6.11672C33.1152 5.88005 33.2883 5.5914 33.391 5.27367C33.4939 4.95596 33.5233 4.6179 33.4773 4.28633ZM41.0081 13.1086C41.4184 13.2497 41.8548 13.2902 42.2828 13.227H50.1609C50.5891 13.2902 51.0255 13.2497 51.4357 13.1086C51.846 12.9676 52.2187 12.7299 52.5246 12.4144C52.8304 12.0989 53.0607 11.7142 53.1974 11.2909C53.3342 10.8676 53.3735 10.4173 53.3121 9.9756V4.2804C53.3735 3.83871 53.3342 3.38837 53.1974 2.96507C53.0607 2.54176 52.8304 2.15712 52.5246 1.84163C52.2187 1.52611 51.846 1.28842 51.4357 1.14737C51.0255 1.00631 50.5891 0.965775 50.1609 1.02896H42.2828C41.8548 0.965775 41.4184 1.00631 41.0081 1.14737C40.5978 1.28842 40.2251 1.52611 39.9192 1.84163C39.6134 2.15712 39.3831 2.54176 39.2465 2.96507C39.1096 3.38837 39.0703 3.83871 39.1316 4.2804V9.9756C39.0703 10.4173 39.1096 10.8676 39.2465 11.2909C39.3831 11.7142 39.6134 12.0989 39.9192 12.4144C40.2251 12.7299 40.5978 12.9676 41.0081 13.1086ZM39.9174 9.97915C39.8716 10.3104 39.9012 10.6481 40.0037 10.9655C40.1063 11.2829 40.2791 11.5713 40.5084 11.8079C40.7377 12.0445 41.0173 12.2228 41.3249 12.3286C41.6325 12.4344 41.9599 12.4649 42.2808 12.4176H50.1589C50.48 12.4649 50.8073 12.4344 51.1149 12.3286C51.4225 12.2228 51.7022 12.0445 51.9315 11.8079C52.1608 11.5713 52.3336 11.2829 52.4361 10.9655C52.5387 10.6481 52.5683 10.3104 52.5223 9.97915V4.2843C52.5683 3.95306 52.5387 3.61537 52.4361 3.29795C52.3336 2.98054 52.1608 2.69212 51.9315 2.45552C51.7022 2.21893 51.4225 2.04068 51.1149 1.93486C50.8073 1.82904 50.48 1.79856 50.1589 1.84586H42.2808C41.9599 1.79856 41.6325 1.82904 41.3249 1.93486C41.0173 2.04068 40.7377 2.21893 40.5084 2.45552C40.2791 2.69212 40.1063 2.98054 40.0037 3.29795C39.9012 3.61537 39.8716 3.95306 39.9174 4.2843V9.97915ZM71.5711 1.03516V9.97667C71.6171 10.3079 71.5875 10.6456 71.485 10.9631C71.3824 11.2805 71.2097 11.569 70.9803 11.8055C70.751 12.0422 70.4714 12.2204 70.1638 12.3263C69.8562 12.4321 69.5288 12.4625 69.2079 12.4153H61.3297C61.0087 12.4625 60.6813 12.4321 60.3738 12.3263C60.0662 12.2204 59.7865 12.0422 59.5572 11.8055C59.3279 11.569 59.1551 11.2805 59.0525 10.9631C58.95 10.6456 58.9204 10.3079 58.9664 9.97667V1.03516H58.1784V9.97667C58.1172 10.4184 58.1565 10.8687 58.2933 11.292C58.43 11.7153 58.6603 12.1 58.9661 12.4155C59.272 12.731 59.6447 12.9686 60.055 13.1097C60.4652 13.2508 60.9016 13.2913 61.3297 13.2281H69.2079C69.6359 13.2913 70.0723 13.2508 70.4826 13.1097C70.8929 12.9686 71.2655 12.731 71.5715 12.4155C71.8772 12.1 72.1075 11.7153 72.2442 11.292C72.381 10.8687 72.4203 10.4184 72.3591 9.97667V1.03516H71.5711ZM88.256 1.03482C88.684 0.971635 89.1204 1.01217 89.5307 1.15322C89.941 1.29427 90.3136 1.53196 90.6195 1.84746C90.9253 2.16295 91.1556 2.54757 91.2923 2.97086C91.4291 3.39416 91.4684 3.84448 91.4072 4.28615C91.4684 4.72782 91.4291 5.17814 91.2923 5.60142C91.1556 6.02472 90.9253 6.40935 90.6195 6.72484C90.3136 7.04033 89.941 7.27802 89.5307 7.41906C89.1204 7.56013 88.684 7.60066 88.256 7.53748H78.0145V13.2325H77.2266V1.03999L88.256 1.03482ZM90.5323 3.29981C90.6348 3.61721 90.6644 3.95488 90.6184 4.28609H90.6201C90.6661 4.61746 90.6365 4.95532 90.5339 5.27286C90.4312 5.59041 90.2583 5.87891 90.0288 6.11553C89.7993 6.35214 89.5195 6.53034 89.2116 6.63604C88.9038 6.74171 88.5763 6.77194 88.2551 6.72437H78.0137V1.84781H88.2551C88.5761 1.80052 88.9035 1.83099 89.2111 1.9368C89.5186 2.04262 89.7983 2.22086 90.0276 2.45744C90.2569 2.69402 90.4297 2.98242 90.5323 3.29981ZM99.0562 13.2275C98.6282 13.2906 98.1918 13.2501 97.7815 13.109C97.3712 12.968 96.9986 12.7303 96.6926 12.4148C96.3869 12.0993 96.1566 11.7147 96.0199 11.2914C95.8831 10.8681 95.8438 10.4178 95.905 9.97609H96.693C96.647 10.3073 96.6766 10.645 96.7791 10.9625C96.8816 11.2799 97.0544 11.5683 97.2837 11.8049C97.513 12.0415 97.7927 12.2198 98.1003 12.3256C98.4079 12.4314 98.7352 12.4619 99.0562 12.4146H106.934C107.255 12.4619 107.583 12.4314 107.89 12.3256C108.198 12.2198 108.478 12.0415 108.707 11.8049C108.936 11.5683 109.109 11.2799 109.211 10.9625C109.314 10.645 109.344 10.3073 109.298 9.97609C109.344 9.64484 109.314 9.30714 109.211 8.9897C109.109 8.67228 108.936 8.38385 108.707 8.14724C108.478 7.91066 108.198 7.73238 107.89 7.62656C107.583 7.52073 107.255 7.49026 106.934 7.53756H99.0562C98.6282 7.60074 98.1918 7.5602 97.7815 7.41914C97.3712 7.27809 96.9986 7.0404 96.6926 6.72491C96.3869 6.40942 96.1566 6.02477 96.0199 5.60147C95.8831 5.17819 95.8438 4.72787 95.905 4.28619C95.8438 3.84451 95.8831 3.39418 96.0199 2.97088C96.1566 2.54758 96.3869 2.16296 96.6926 1.84747C96.9986 1.53196 97.3712 1.29427 97.7815 1.15322C98.1918 1.01217 98.6282 0.971635 99.0562 1.03482H106.934C107.362 0.971928 107.798 1.01269 108.209 1.15388C108.619 1.29506 108.991 1.53279 109.297 1.84825C109.602 2.1637 109.833 2.54824 109.969 2.97138C110.106 3.39451 110.145 3.84466 110.084 4.28619H109.296C109.342 3.95494 109.312 3.61724 109.21 3.2998C109.107 2.98238 108.934 2.69395 108.705 2.45734C108.476 2.22074 108.196 2.04248 107.889 1.93666C107.581 1.83083 107.254 1.80036 106.933 1.84766H99.0545C98.7336 1.80036 98.4062 1.83083 98.0986 1.93666C97.791 2.04248 97.5114 2.22074 97.2821 2.45734C97.0527 2.69395 96.88 2.98238 96.7774 3.2998C96.6749 3.61724 96.6453 3.95494 96.6913 4.28619C96.6453 4.61743 96.6749 4.95514 96.7774 5.27256C96.88 5.58998 97.0527 5.87843 97.2821 6.11502C97.5114 6.35162 97.791 6.52989 98.0986 6.63572C98.4062 6.74154 98.7336 6.772 99.0545 6.72472H106.933C107.361 6.66154 107.797 6.70207 108.207 6.84312C108.618 6.98419 108.99 7.22186 109.296 7.53737C109.602 7.85286 109.832 8.23748 109.969 8.66078C110.106 9.08408 110.145 9.53441 110.084 9.97609C110.145 10.4178 110.106 10.8681 109.969 11.2914C109.832 11.7147 109.602 12.0993 109.296 12.4148C108.99 12.7303 108.618 12.968 108.207 13.109C107.797 13.2501 107.361 13.2906 106.933 13.2275H99.0562ZM115.741 13.2281V7.53288H128.349V13.2281H129.137V1.03516H128.349V6.73037H115.741V1.03516H114.953V13.2281H115.741ZM137.151 13.227C136.723 13.2896 136.287 13.2486 135.877 13.1073C135.467 12.966 135.095 12.7282 134.789 12.4128C134.484 12.0974 134.254 11.7129 134.117 11.2899C133.981 10.8669 133.942 10.417 134.003 9.9756V4.2804C133.941 3.83871 133.981 3.38837 134.118 2.96507C134.254 2.54176 134.484 2.15712 134.79 1.84163C135.096 1.52611 135.469 1.28842 135.879 1.14737C136.289 1.00631 136.726 0.965775 137.154 1.02896H145.042C145.47 0.965775 145.907 1.00631 146.317 1.14737C146.727 1.28842 147.1 1.52611 147.406 1.84163C147.712 2.15712 147.942 2.54176 148.079 2.96507C148.215 3.38837 148.255 3.83871 148.193 4.2804V9.9756C148.255 10.4173 148.215 10.8676 148.079 11.2909C147.942 11.7142 147.712 12.0989 147.406 12.4144C147.1 12.7299 146.727 12.9676 146.317 13.1086C145.907 13.2497 145.47 13.2902 145.042 13.227H137.151ZM134.873 10.9627C134.77 10.6452 134.741 10.3075 134.787 9.97628L134.8 4.28636C134.754 3.95511 134.784 3.61741 134.886 3.29996C134.989 2.98254 135.162 2.69411 135.391 2.4575C135.62 2.2209 135.9 2.04264 136.207 1.93682C136.515 1.83099 136.842 1.80051 137.163 1.84782H145.041C145.362 1.8007 145.689 1.83113 145.996 1.93668C146.303 2.04223 146.583 2.22002 146.812 2.456C147.041 2.69199 147.214 2.97971 147.317 3.29646C147.42 3.61321 147.45 3.95033 147.405 4.28118V9.97628C147.451 10.3075 147.421 10.6452 147.319 10.9627C147.216 11.2801 147.043 11.5685 146.814 11.8051C146.585 12.0417 146.305 12.22 145.997 12.3258C145.69 12.4316 145.363 12.4621 145.041 12.4148H137.15C136.829 12.4621 136.502 12.4316 136.194 12.3258C135.886 12.22 135.607 12.0417 135.377 11.8051C135.148 11.5685 134.975 11.2801 134.873 10.9627ZM164.077 1.03482C164.505 0.971635 164.941 1.01217 165.351 1.15322C165.762 1.29427 166.134 1.53196 166.44 1.84746C166.746 2.16295 166.977 2.54757 167.113 2.97086C167.25 3.39416 167.288 3.84448 167.228 4.28615C167.288 4.72782 167.25 5.17814 167.113 5.60142C166.977 6.02472 166.746 6.40935 166.44 6.72484C166.134 7.04033 165.762 7.27802 165.351 7.41906C164.941 7.56013 164.505 7.60066 164.077 7.53748H153.839V13.2325H153.051V1.03999L164.077 1.03482ZM166.355 3.2999C166.458 3.61733 166.487 3.95502 166.442 4.28625H166.452C166.497 4.61814 166.468 4.95654 166.365 5.27457C166.262 5.59258 166.089 5.88145 165.859 6.11819C165.628 6.35494 165.348 6.53303 165.039 6.63832C164.731 6.7436 164.403 6.77316 164.081 6.72469H153.84V1.84782H164.078C164.399 1.80051 164.726 1.83099 165.034 1.93681C165.342 2.04263 165.621 2.22088 165.85 2.45748C166.08 2.69407 166.253 2.98249 166.355 3.2999Z" fill="black"/>
<path d="M12.0674 1.03414L12.0673 1.28414L12.0857 1.28415L12.1039 1.28146L12.0674 1.03414ZM13.3422 1.15255L13.4235 0.91613L13.4235 0.916129L13.3422 1.15255ZM4.17936 1.02896L4.14285 1.27628L4.16092 1.27895L4.17919 1.27896L4.17936 1.02896ZM2.90457 1.14737L2.82329 0.910951V0.910951L2.90457 1.14737ZM1.81576 1.84164L1.99528 2.01563L1.99529 2.01562L1.81576 1.84164ZM1.1429 2.9651L0.904999 2.88827L0.904997 2.88827L1.1429 2.9651ZM1.02814 4.28046H1.27814V4.26321L1.27577 4.24613L1.02814 4.28046ZM1.02814 9.97576L1.27577 10.0101L1.27814 9.99303V9.97576H1.02814ZM1.14298 11.2921L0.905095 11.369L1.14298 11.2921ZM1.81673 12.4162L1.6373 12.5902L1.6373 12.5902L1.81673 12.4162ZM2.90684 13.1101L2.98792 12.8737L2.98792 12.8737L2.90684 13.1101ZM4.1827 13.2273V12.9773H4.16419L4.14589 12.98L4.1827 13.2273ZM12.0674 13.2273L12.1032 12.9798L12.0854 12.9773H12.0674V13.2273ZM13.3386 13.1064L13.257 12.8701L13.257 12.8701L13.3386 13.1064ZM14.424 12.4129L14.6036 12.5869L14.6036 12.5869L14.424 12.4129ZM15.0955 11.2927L15.3333 11.3697L15.3333 11.3697L15.0955 11.2927ZM15.212 9.98094H14.962V9.99792L14.9643 10.0147L15.212 9.98094ZM15.212 6.72944H15.462V6.47944H15.212V6.72944ZM7.33392 6.72944V6.47944H7.08392V6.72944H7.33392ZM7.33392 7.54231H7.08392V7.79231H7.33392V7.54231ZM14.4308 7.54231H14.6808V7.29231H14.4308V7.54231ZM14.4308 9.98094H14.1808V9.99815L14.1832 10.0152L14.4308 9.98094ZM13.8399 11.8098L13.6604 11.6358L13.6604 11.6359L13.8399 11.8098ZM13.0234 12.3306L13.1047 12.567H13.1047L13.0234 12.3306ZM12.0674 12.4196L12.1039 12.1722L12.0857 12.1696H12.0674V12.4196ZM4.1827 12.4196V12.1696H4.16439L4.14627 12.1722L4.1827 12.4196ZM3.2267 12.3306L3.14538 12.567L3.14538 12.567L3.2267 12.3306ZM2.41019 11.8098L2.58972 11.6359L2.41019 11.8098ZM1.90555 10.9673L2.14344 10.8905V10.8905L1.90555 10.9673ZM1.81929 9.98094L2.06693 10.0152L2.06929 9.99815V9.98094H1.81929ZM1.81929 4.28563H2.06929V4.26842L2.06693 4.25136L1.81929 4.28563ZM1.90555 3.29921L1.66766 3.22234L1.66766 3.22235L1.90555 3.29921ZM2.41019 2.45672L2.23067 2.28273L2.23066 2.28274L2.41019 2.45672ZM3.2267 1.93601L3.14538 1.69961L3.14538 1.69961L3.2267 1.93601ZM4.1827 1.84701L4.14626 2.09434L4.16438 2.09701H4.1827V1.84701ZM12.0674 1.84701V2.09701H12.0854L12.1032 2.09443L12.0674 1.84701ZM13.0218 1.93796L13.1036 1.70171L13.1036 1.7017L13.0218 1.93796ZM13.8364 2.45908L13.6567 2.63288V2.63288L13.8364 2.45908ZM14.3397 3.30069L14.5776 3.22391V3.22391L14.3397 3.30069ZM14.4258 4.28563L14.1782 4.25146L14.139 4.53563H14.4258V4.28563ZM15.2186 4.28563V4.53563H15.4364L15.4663 4.31997L15.2186 4.28563ZM15.1039 2.97028L14.866 3.04711L14.866 3.04711L15.1039 2.97028ZM14.431 1.84682L14.2515 2.0208L14.2515 2.02081L14.431 1.84682ZM31.1161 1.03482L31.1162 1.28482L31.1345 1.2848L31.1526 1.28214L31.1161 1.03482ZM32.3909 1.15323L32.4722 0.916806V0.916806L32.3909 1.15323ZM20.0801 1.04172L20.0799 0.79172L19.8301 0.791876V1.04172H20.0801ZM20.0801 13.2347H19.8301V13.4847H20.0801V13.2347ZM20.8679 13.2347V13.4847H21.1179V13.2347H20.8679ZM20.8679 7.53945V7.28945H20.6179V7.53945H20.8679ZM31.1127 7.53945V7.78945H31.131L31.1491 7.78678L31.1127 7.53945ZM32.0688 7.62845L32.1501 7.39205L32.0688 7.62845ZM32.8854 8.14915L32.7058 8.32314V8.32314L32.8854 8.14915ZM33.39 8.99163L33.6279 8.91479L33.6279 8.91478L33.39 8.99163ZM33.4761 9.97804L33.2285 9.94366L33.2261 9.96077V9.97804H33.4761ZM33.4761 13.2295H33.2261V13.4795H33.4761V13.2295ZM34.2673 13.2295V13.4795H34.5173V13.2295H34.2673ZM34.2673 9.97804L34.019 9.94846L34.0173 9.9632V9.97804H34.2673ZM34.0112 8.35711L33.7843 8.46205V8.46206L34.0112 8.35711ZM32.9509 7.13216L32.8155 6.92198L32.4893 7.13216L32.8156 7.34233L32.9509 7.13216ZM34.0112 5.9072L34.2381 6.01215V6.01214L34.0112 5.9072ZM34.2673 4.28627L34.0197 4.25186L34.0152 4.28381L34.019 4.31585L34.2673 4.28627ZM34.1525 2.97093L33.9146 3.04774L33.9147 3.04782L34.1525 2.97093ZM33.4798 1.84749L33.6593 1.67351L33.6593 1.67346L33.4798 1.84749ZM33.3912 3.29995L33.6291 3.22311L33.6291 3.2231L33.3912 3.29995ZM33.4773 4.28633L33.2297 4.25194L33.2249 4.28631L33.2297 4.32068L33.4773 4.28633ZM32.8866 2.4575L32.707 2.63149V2.63149L32.8866 2.4575ZM32.07 1.93681L32.1513 1.70041L32.07 1.93681ZM31.1139 1.84782V2.09782H31.1322L31.1503 2.09515L31.1139 1.84782ZM20.8691 1.84782V1.59782H20.6191V1.84782H20.8691ZM20.8691 6.72483H20.6191V6.97483H20.8691V6.72483ZM31.1106 6.72483L31.1474 6.47756L31.1291 6.47483H31.1106V6.72483ZM32.0676 6.63715L31.9866 6.40064L31.9866 6.40065L32.0676 6.63715ZM32.8856 6.11672L33.0649 6.29089L33.065 6.29082L32.8856 6.11672ZM33.391 5.27367L33.1532 5.19666L33.1531 5.19678L33.391 5.27367ZM42.2828 13.227V12.977H42.2644L42.2463 12.9797L42.2828 13.227ZM41.0081 13.1086L41.0894 12.8722L41.0894 12.8722L41.0081 13.1086ZM50.1609 13.227L50.1974 12.9797L50.1792 12.977H50.1609V13.227ZM51.4357 13.1086L51.3545 12.8722L51.3545 12.8722L51.4357 13.1086ZM52.5246 12.4144L52.7041 12.5884L52.7042 12.5884L52.5246 12.4144ZM53.1974 11.2909L52.9595 11.214L52.9594 11.2141L53.1974 11.2909ZM53.3121 9.9756H53.0621V9.99288L53.0645 10.01L53.3121 9.9756ZM53.3121 4.2804L53.0645 4.24598L53.0621 4.26311V4.2804H53.3121ZM53.1974 2.96507L52.9594 3.04187L52.9595 3.04195L53.1974 2.96507ZM52.5246 1.84163L52.7042 1.66764L52.7041 1.6676L52.5246 1.84163ZM51.4357 1.14737L51.3545 1.38378V1.38378L51.4357 1.14737ZM50.1609 1.02896V1.27896H50.1792L50.1974 1.27628L50.1609 1.02896ZM42.2828 1.02896L42.2463 1.27628L42.2644 1.27896H42.2828V1.02896ZM41.0081 1.14737L40.9268 0.910946L41.0081 1.14737ZM39.9192 1.84163L39.7397 1.6676L39.7397 1.66764L39.9192 1.84163ZM39.2465 2.96507L39.4844 3.04195L39.4844 3.04187L39.2465 2.96507ZM39.1316 4.2804H39.3816V4.26315L39.3792 4.24608L39.1316 4.2804ZM39.1316 9.9756L39.3792 10.0099L39.3816 9.99284V9.9756H39.1316ZM39.2465 11.2909L39.4844 11.2141L39.4844 11.214L39.2465 11.2909ZM39.9192 12.4144L39.7397 12.5884L39.7397 12.5884L39.9192 12.4144ZM39.9174 9.97915L40.1651 10.0134L40.1674 9.99636V9.97915H39.9174ZM40.5084 11.8079L40.6879 11.6339L40.6879 11.6339L40.5084 11.8079ZM42.2808 12.4176V12.1676H42.2625L42.2444 12.1702L42.2808 12.4176ZM50.1589 12.4176L50.1953 12.1702L50.1772 12.1676H50.1589V12.4176ZM51.9315 11.8079L51.752 11.6339L51.752 11.6339L51.9315 11.8079ZM52.5223 9.97915H52.2723V9.99642L52.2747 10.0135L52.5223 9.97915ZM52.5223 4.2843L52.2747 4.24991L52.2723 4.26702V4.2843H52.5223ZM52.4361 3.29795L52.674 3.2211V3.2211L52.4361 3.29795ZM51.9315 2.45552L51.752 2.62952L51.752 2.62952L51.9315 2.45552ZM50.1589 1.84586V2.09586H50.1772L50.1953 2.09319L50.1589 1.84586ZM42.2808 1.84586L42.2444 2.09319L42.2625 2.09586H42.2808V1.84586ZM40.0037 3.29795L39.7659 3.2211V3.2211L40.0037 3.29795ZM39.9174 4.2843H40.1674V4.26708L40.1651 4.25003L39.9174 4.2843ZM71.5711 9.97667H71.3211V9.99394L71.3235 10.0111L71.5711 9.97667ZM71.5711 1.03516V0.785156H71.3211V1.03516H71.5711ZM70.9803 11.8055L70.8008 11.6315L70.8008 11.6316L70.9803 11.8055ZM69.2079 12.4153L69.2443 12.1679L69.2262 12.1653H69.2079V12.4153ZM61.3297 12.4153V12.1653H61.3113L61.2932 12.1679L61.3297 12.4153ZM59.5572 11.8055L59.7367 11.6316L59.7367 11.6315L59.5572 11.8055ZM58.9664 9.97667L59.214 10.0111L59.2164 9.99394V9.97667H58.9664ZM58.9664 1.03516H59.2164V0.785156H58.9664V1.03516ZM58.1784 1.03516V0.785156H57.9284V1.03516H58.1784ZM58.1784 9.97667L58.4261 10.011L58.4284 9.99391V9.97667H58.1784ZM58.2933 11.292L58.5313 11.2152L58.5312 11.2151L58.2933 11.292ZM58.9661 12.4155L58.7865 12.5894L58.7866 12.5895L58.9661 12.4155ZM60.055 13.1097L60.1362 12.8733L60.1362 12.8733L60.055 13.1097ZM61.3297 13.2281V12.9781H61.3113L61.2931 12.9808L61.3297 13.2281ZM69.2079 13.2281L69.2444 12.9808L69.2262 12.9781H69.2079V13.2281ZM70.4826 13.1097L70.4013 12.8733L70.4013 12.8733L70.4826 13.1097ZM71.5715 12.4155L71.7509 12.5895L71.751 12.5894L71.5715 12.4155ZM72.2442 11.292L72.0063 11.2151L72.0063 11.2152L72.2442 11.292ZM72.3591 9.97667H72.1091V9.99391L72.1115 10.011L72.3591 9.97667ZM72.3591 1.03516H72.6091V0.785156H72.3591V1.03516ZM89.5307 1.15322L89.6119 0.9168V0.9168L89.5307 1.15322ZM88.256 1.03482L88.2561 1.28482L88.2744 1.28481L88.2925 1.28214L88.256 1.03482ZM90.6195 1.84746L90.7991 1.67347L90.799 1.67343L90.6195 1.84746ZM91.2923 2.97086L91.0544 3.04766L91.0544 3.04775L91.2923 2.97086ZM91.4072 4.28615L91.1595 4.25183L91.1548 4.28615L91.1595 4.32047L91.4072 4.28615ZM91.2923 5.60142L91.0544 5.52453L91.0544 5.52462L91.2923 5.60142ZM90.6195 6.72484L90.799 6.89887L90.7991 6.89883L90.6195 6.72484ZM89.5307 7.41906L89.4494 7.18264L89.4494 7.18265L89.5307 7.41906ZM88.256 7.53748L88.2925 7.29016L88.2743 7.28748H88.256V7.53748ZM78.0145 7.53748V7.28748H77.7645V7.53748H78.0145ZM78.0145 13.2325V13.4825H78.2645V13.2325H78.0145ZM77.2266 13.2325H76.9766V13.4825H77.2266V13.2325ZM77.2266 1.03999L77.2264 0.789993L76.9766 0.79011V1.03999H77.2266ZM90.6184 4.28609L90.3708 4.2517L90.3313 4.53609H90.6184V4.28609ZM90.5323 3.29981L90.7702 3.22296L90.7701 3.22296L90.5323 3.29981ZM90.6201 4.28609L90.8677 4.25172L90.8378 4.03609H90.6201V4.28609ZM90.5339 5.27286L90.7718 5.34979L90.7718 5.34968L90.5339 5.27286ZM89.2116 6.63604L89.1304 6.39958L89.1304 6.39959L89.2116 6.63604ZM88.2551 6.72437L88.2918 6.47707L88.2736 6.47437H88.2551V6.72437ZM78.0137 6.72437H77.7637V6.97437H78.0137V6.72437ZM78.0137 1.84781V1.59781H77.7637V1.84781H78.0137ZM88.2551 1.84781V2.09781H88.2735L88.2916 2.09514L88.2551 1.84781ZM89.2111 1.9368L89.2924 1.7004L89.2111 1.9368ZM90.0276 2.45744L90.2071 2.28344L90.0276 2.45744ZM97.7815 13.109L97.8628 12.8726L97.8628 12.8726L97.7815 13.109ZM99.0562 13.2275V12.9775H99.0378L99.0197 12.9801L99.0562 13.2275ZM96.6926 12.4148L96.5131 12.5888L96.5132 12.5888L96.6926 12.4148ZM96.0199 11.2914L96.2578 11.2146L96.2578 11.2145L96.0199 11.2914ZM95.905 9.97609V9.72609H95.6873L95.6574 9.94177L95.905 9.97609ZM96.693 9.97609L96.9406 10.0105L96.9801 9.72609H96.693V9.97609ZM97.2837 11.8049L97.4632 11.6309V11.6309L97.2837 11.8049ZM98.1003 12.3256L98.1816 12.0892L98.1003 12.3256ZM99.0562 12.4146V12.1646H99.0379L99.0198 12.1673L99.0562 12.4146ZM106.934 12.4146L106.971 12.1673L106.953 12.1646H106.934V12.4146ZM107.89 12.3256L107.809 12.0892L107.89 12.3256ZM108.707 11.8049L108.527 11.6309L108.527 11.6309L108.707 11.8049ZM109.298 9.97609L109.05 9.94183L109.045 9.97609L109.05 10.0104L109.298 9.97609ZM109.211 8.9897L109.449 8.91286V8.91286L109.211 8.9897ZM108.707 8.14724L108.886 7.97325V7.97325L108.707 8.14724ZM106.934 7.53756V7.78756H106.953L106.971 7.78489L106.934 7.53756ZM99.0562 7.53756V7.28756H99.0378L99.0197 7.29024L99.0562 7.53756ZM97.7815 7.41914L97.8628 7.18272L97.8628 7.18272L97.7815 7.41914ZM96.6926 6.72491L96.5131 6.89889L96.5132 6.89894L96.6926 6.72491ZM96.0199 5.60147L96.2578 5.52467L96.2578 5.52458L96.0199 5.60147ZM95.905 4.28619L96.1526 4.32051L96.1574 4.28619L96.1526 4.25187L95.905 4.28619ZM96.0199 2.97088L96.2578 3.04777L96.2578 3.04769L96.0199 2.97088ZM96.6926 1.84747L96.5132 1.67344L96.5131 1.67348L96.6926 1.84747ZM97.7815 1.15322L97.7002 0.916802L97.7815 1.15322ZM99.0562 1.03482L99.0197 1.28214L99.0378 1.28482H99.0562V1.03482ZM106.934 1.03482V1.28482H106.953L106.971 1.28216L106.934 1.03482ZM108.209 1.15388L108.29 0.917502L108.29 0.917492L108.209 1.15388ZM109.297 1.84825L109.476 1.67435L109.476 1.6743L109.297 1.84825ZM109.969 2.97138L110.207 2.89463L110.207 2.89456L109.969 2.97138ZM110.084 4.28619V4.53619H110.301L110.331 4.32052L110.084 4.28619ZM109.296 4.28619L109.048 4.2518L109.009 4.53619H109.296V4.28619ZM109.21 3.2998L109.448 3.22296V3.22296L109.21 3.2998ZM108.705 2.45734L108.885 2.28335L108.705 2.45734ZM106.933 1.84766V2.09766H106.951L106.969 2.09499L106.933 1.84766ZM99.0545 1.84766L99.0181 2.09499L99.0362 2.09766H99.0545V1.84766ZM98.0986 1.93666L98.18 2.17306L98.18 2.17306L98.0986 1.93666ZM97.2821 2.45734L97.1025 2.28335L97.2821 2.45734ZM96.7774 3.2998L96.5395 3.22296V3.22296L96.7774 3.2998ZM96.6913 4.28619L96.9389 4.32057L96.9437 4.28619L96.9389 4.2518L96.6913 4.28619ZM96.7774 5.27256L96.5395 5.3494L96.7774 5.27256ZM97.2821 6.11502L97.4616 5.94103L97.4616 5.94102L97.2821 6.11502ZM98.0986 6.63572L98.18 6.39932V6.39932L98.0986 6.63572ZM99.0545 6.72472V6.47472H99.0362L99.0181 6.47739L99.0545 6.72472ZM106.933 6.72472V6.97472H106.951L106.969 6.97204L106.933 6.72472ZM108.207 6.84312L108.289 6.60671L108.289 6.6067L108.207 6.84312ZM109.296 7.53737L109.476 7.36338L109.476 7.36334L109.296 7.53737ZM109.969 8.66078L109.731 8.73759L109.731 8.73768L109.969 8.66078ZM110.084 9.97609L109.836 9.94167L109.831 9.97609L109.836 10.0105L110.084 9.97609ZM109.969 11.2914L109.731 11.2145L109.731 11.2146L109.969 11.2914ZM109.296 12.4148L109.476 12.5888L109.476 12.5888L109.296 12.4148ZM108.207 13.109L108.126 12.8726L108.126 12.8726L108.207 13.109ZM106.933 13.2275L106.969 12.9801L106.951 12.9775H106.933V13.2275ZM115.741 7.53288V7.28288H115.491V7.53288H115.741ZM115.741 13.2281V13.4781H115.991V13.2281H115.741ZM128.349 7.53288H128.599V7.28288H128.349V7.53288ZM128.349 13.2281H128.099V13.4781H128.349V13.2281ZM129.137 13.2281V13.4781H129.387V13.2281H129.137ZM129.137 1.03516H129.387V0.785156H129.137V1.03516ZM128.349 1.03516V0.785156H128.099V1.03516H128.349ZM128.349 6.73037V6.98037H128.599V6.73037H128.349ZM115.741 6.73037H115.491V6.98037H115.741V6.73037ZM115.741 1.03516H115.991V0.785156H115.741V1.03516ZM114.953 1.03516V0.785156H114.703V1.03516H114.953ZM114.953 13.2281H114.703V13.4781H114.953V13.2281ZM135.877 13.1073L135.795 13.3437L135.795 13.3437L135.877 13.1073ZM137.151 13.227V12.977H137.132L137.115 12.9797L137.151 13.227ZM134.789 12.4128L134.969 12.2389L134.969 12.2389L134.789 12.4128ZM134.117 11.2899L133.879 11.3667V11.3667L134.117 11.2899ZM134.003 9.9756L134.25 10.0099L134.253 9.99285V9.9756H134.003ZM134.003 4.2804H134.253V4.26311L134.25 4.24598L134.003 4.2804ZM134.118 2.96507L134.355 3.04196L134.355 3.04187L134.118 2.96507ZM134.79 1.84163L134.611 1.6676L134.611 1.66764L134.79 1.84163ZM135.879 1.14737L135.798 0.910946L135.879 1.14737ZM137.154 1.02896L137.118 1.27628L137.136 1.27896H137.154V1.02896ZM145.042 1.02896V1.27896H145.06L145.079 1.27628L145.042 1.02896ZM146.317 1.14737L146.398 0.910946L146.398 0.910945L146.317 1.14737ZM147.406 1.84163L147.585 1.66764L147.585 1.6676L147.406 1.84163ZM148.079 2.96507L147.841 3.04187L147.841 3.04195L148.079 2.96507ZM148.193 4.2804L147.946 4.24608L147.943 4.26315V4.2804H148.193ZM148.193 9.9756H147.943V9.99284L147.946 10.0099L148.193 9.9756ZM148.079 11.2909L147.841 11.214L147.841 11.2141L148.079 11.2909ZM147.406 12.4144L147.585 12.5884L147.585 12.5884L147.406 12.4144ZM146.317 13.1086L146.236 12.8722V12.8722L146.317 13.1086ZM145.042 13.227L145.079 12.9797L145.06 12.977H145.042V13.227ZM134.787 9.97628L135.034 10.0107L135.037 9.99384L135.037 9.97686L134.787 9.97628ZM134.873 10.9627L135.111 10.8858V10.8858L134.873 10.9627ZM134.8 4.28636L135.05 4.28694L135.05 4.26944L135.048 4.2521L134.8 4.28636ZM134.886 3.29996L135.124 3.37681V3.3768L134.886 3.29996ZM135.391 2.4575L135.211 2.28351V2.28352L135.391 2.4575ZM137.163 1.84782L137.127 2.09515L137.145 2.09782H137.163V1.84782ZM145.041 1.84782V2.09782H145.06L145.078 2.09516L145.041 1.84782ZM145.996 1.93668L146.077 1.70025L146.077 1.70024L145.996 1.93668ZM146.812 2.456L146.991 2.28185V2.28184L146.812 2.456ZM147.317 3.29646L147.079 3.37369L147.079 3.37379L147.317 3.29646ZM147.405 4.28118L147.157 4.24762L147.155 4.26432V4.28118H147.405ZM147.405 9.97628H147.155V9.99349L147.157 10.0105L147.405 9.97628ZM147.319 10.9627L147.081 10.8858V10.8858L147.319 10.9627ZM146.814 11.8051L146.634 11.6311L146.634 11.6311L146.814 11.8051ZM145.997 12.3258L145.916 12.0894V12.0894L145.997 12.3258ZM145.041 12.4148L145.078 12.1675L145.06 12.1648H145.041V12.4148ZM137.15 12.4148V12.1648H137.132L137.114 12.1675L137.15 12.4148ZM136.194 12.3258L136.113 12.5622V12.5622L136.194 12.3258ZM135.377 11.8051L135.557 11.6311L135.377 11.8051ZM165.351 1.15322L165.27 1.38964L165.351 1.15322ZM164.077 1.03482L164.077 1.28482L164.095 1.28481L164.113 1.28214L164.077 1.03482ZM166.44 1.84746L166.261 2.02149L166.261 2.02154L166.44 1.84746ZM167.113 2.97086L166.875 3.04707L166.875 3.04792L167.113 2.97086ZM167.228 4.28615L166.98 4.25237L166.976 4.28615L166.98 4.31993L167.228 4.28615ZM167.113 5.60142L166.875 5.52436L166.875 5.52521L167.113 5.60142ZM166.44 6.72484L166.261 6.55076L166.261 6.55081L166.44 6.72484ZM165.351 7.41906L165.27 7.18264L165.27 7.18265L165.351 7.41906ZM164.077 7.53748L164.113 7.29016L164.095 7.28748H164.077V7.53748ZM153.839 7.53748V7.28748H153.589V7.53748H153.839ZM153.839 13.2325V13.4825H154.089V13.2325H153.839ZM153.051 13.2325H152.801V13.4825H153.051V13.2325ZM153.051 1.03999L153.051 0.789993L152.801 0.79011V1.03999H153.051ZM166.442 4.28625L166.194 4.25249L166.155 4.53625H166.442V4.28625ZM166.355 3.2999L166.117 3.37674L166.117 3.37721L166.355 3.2999ZM166.452 4.28625L166.699 4.25254L166.67 4.03625H166.452V4.28625ZM166.365 5.27457L166.127 5.1973L166.127 5.19752L166.365 5.27457ZM165.859 6.11819L165.679 5.94392L165.679 5.94393L165.859 6.11819ZM165.039 6.63832L165.12 6.87492L165.12 6.87491L165.039 6.63832ZM164.081 6.72469L164.119 6.47748L164.1 6.47469H164.081V6.72469ZM153.84 6.72469H153.59V6.97469H153.84V6.72469ZM153.84 1.84782V1.59782H153.59V1.84782H153.84ZM164.078 1.84782V2.09782H164.096L164.114 2.09515L164.078 1.84782ZM165.034 1.93681L165.115 1.70041V1.70041L165.034 1.93681ZM165.85 2.45748L166.03 2.28349V2.28348L165.85 2.45748ZM12.1039 1.28146C12.4923 1.22413 12.8884 1.26088 13.2609 1.38896L13.4235 0.916129C12.9755 0.762105 12.4987 0.717775 12.0309 0.786815L12.1039 1.28146ZM4.17919 1.27896L12.0673 1.28414L12.0676 0.784135L4.17952 0.778958L4.17919 1.27896ZM2.98585 1.38378C3.35839 1.2557 3.75445 1.21895 4.14285 1.27628L4.21586 0.781637C3.74811 0.712597 3.27127 0.756928 2.82329 0.910951L2.98585 1.38378ZM1.99529 2.01562C2.27405 1.72798 2.61329 1.51188 2.98585 1.38378L2.82329 0.910951C2.37533 1.06497 1.96902 1.32426 1.63623 1.66766L1.99529 2.01562ZM1.3808 3.04194C1.50591 2.65457 1.71648 2.30329 1.99528 2.01563L1.63624 1.66765C1.30346 2.011 1.05333 2.429 0.904999 2.88827L1.3808 3.04194ZM1.27577 4.24613C1.2197 3.84165 1.2557 3.42931 1.3808 3.04193L0.904997 2.88827C0.756688 3.34753 0.714115 3.83587 0.780509 4.31479L1.27577 4.24613ZM1.27814 9.97576V4.28046H0.778141V9.97576H1.27814ZM1.38087 11.2152C1.25561 10.8276 1.21957 10.4149 1.27577 10.0101L0.780516 9.94138C0.713976 10.4207 0.756586 10.9094 0.905095 11.369L1.38087 11.2152ZM1.99616 12.2421C1.71701 11.9543 1.50613 11.6029 1.38087 11.2152L0.905095 11.369C1.05361 11.8286 1.30411 12.2468 1.6373 12.5902L1.99616 12.2421ZM2.98792 12.8737C2.61495 12.7458 2.27528 12.5298 1.99616 12.2421L1.6373 12.5902C1.97053 12.9337 2.37734 13.1929 2.82577 13.3466L2.98792 12.8737ZM4.14589 12.98C3.75726 13.0378 3.36083 13.0015 2.98792 12.8737L2.82577 13.3466C3.27422 13.5004 3.7515 13.5442 4.21952 13.4745L4.14589 12.98ZM12.0674 12.9773H4.1827V13.4773H12.0674V12.9773ZM13.257 12.8701C12.8856 12.9984 12.4907 13.0359 12.1032 12.9798L12.0316 13.4747C12.4983 13.5422 12.9737 13.497 13.4203 13.3427L13.257 12.8701ZM14.2444 12.239C13.9665 12.5259 13.6284 12.7417 13.257 12.8701L13.4203 13.3427C13.8668 13.1884 14.2718 12.9294 14.6036 12.5869L14.2444 12.239ZM14.8577 11.2156C14.7325 11.6018 14.5224 11.952 14.2444 12.239L14.6036 12.5869C14.9353 12.2444 15.1849 11.8276 15.3333 11.3697L14.8577 11.2156ZM14.9643 10.0147C15.0193 10.4183 14.9828 10.8294 14.8576 11.2156L15.3333 11.3697C15.4817 10.9118 15.5249 10.4249 15.4597 9.94713L14.9643 10.0147ZM14.962 6.72944V9.98094H15.462V6.72944H14.962ZM7.33392 6.97944H15.212V6.47944H7.33392V6.97944ZM7.58392 7.54231V6.72944H7.08392V7.54231H7.58392ZM14.4308 7.29231H7.33392V7.79231H14.4308V7.29231ZM14.6808 9.98094V7.54231H14.1808V9.98094H14.6808ZM14.5825 11.0442C14.6967 10.6908 14.7295 10.3151 14.6785 9.94668L14.1832 10.0152C14.2239 10.3093 14.1977 10.609 14.1067 10.8905L14.5825 11.0442ZM14.0194 11.9838C14.2757 11.7194 14.4683 11.3976 14.5825 11.0442L14.1067 10.8905C14.0157 11.172 13.8627 11.4271 13.6604 11.6358L14.0194 11.9838ZM13.1047 12.567C13.4501 12.4482 13.7631 12.2483 14.0195 11.9838L13.6604 11.6359C13.4581 11.8446 13.2121 12.0013 12.9421 12.0942L13.1047 12.567ZM12.031 12.6669C12.3917 12.72 12.7594 12.6858 13.1047 12.567L12.9421 12.0942C12.6722 12.187 12.3852 12.2137 12.1039 12.1722L12.031 12.6669ZM4.1827 12.6696H12.0674V12.1696H4.1827V12.6696ZM3.14538 12.567C3.49076 12.6858 3.85843 12.72 4.21913 12.6669L4.14627 12.1722C3.86489 12.2137 3.57796 12.187 3.30802 12.0942L3.14538 12.567ZM2.23067 11.9838C2.48699 12.2483 2.80005 12.4482 3.14538 12.567L3.30802 12.0942C3.03806 12.0013 2.79203 11.8446 2.58972 11.6359L2.23067 11.9838ZM1.66766 11.0442C1.78183 11.3976 1.97439 11.7194 2.23067 11.9838L2.58972 11.6359C2.38739 11.4271 2.23439 11.172 2.14344 10.8905L1.66766 11.0442ZM1.57165 9.94666C1.52065 10.3151 1.55348 10.6909 1.66766 11.0442L2.14344 10.8905C2.05248 10.609 2.02623 10.3093 2.06693 10.0152L1.57165 9.94666ZM1.56929 4.28563V9.98094H2.06929V4.28563H1.56929ZM1.66766 3.22235C1.55348 3.57572 1.52065 3.95143 1.57165 4.31991L2.06693 4.25136C2.02623 3.95732 2.05248 3.6576 2.14344 3.37607L1.66766 3.22235ZM2.23066 2.28274C1.9744 2.54718 1.78184 2.86896 1.66766 3.22234L2.14344 3.37607C2.23439 3.09458 2.38739 2.83948 2.58972 2.6307L2.23066 2.28274ZM3.14538 1.69961C2.80006 1.8184 2.487 2.01825 2.23067 2.28273L2.58972 2.6307C2.79202 2.42196 3.03805 2.26529 3.30802 2.17242L3.14538 1.69961ZM4.21915 1.59968C3.85843 1.54653 3.49075 1.58081 3.14538 1.69961L3.30802 2.17242C3.57797 2.07956 3.86489 2.05288 4.14626 2.09434L4.21915 1.59968ZM12.0674 1.59701H4.1827V2.09701H12.0674V1.59701ZM13.1036 1.7017C12.7589 1.58246 12.3919 1.54745 12.0316 1.59959L12.1032 2.09443C12.3843 2.05376 12.6707 2.08101 12.9401 2.17422L13.1036 1.7017ZM14.0161 2.28529C13.7604 2.02094 13.4481 1.82094 13.1036 1.70171L12.9401 2.17422C13.2095 2.26744 13.4549 2.42423 13.6567 2.63288L14.0161 2.28529ZM14.5776 3.22391C14.4637 2.87103 14.2717 2.5496 14.0161 2.28529L13.6567 2.63288C13.8585 2.84155 14.0111 3.09638 14.1018 3.37747L14.5776 3.22391ZM14.6735 4.31981C14.7243 3.95189 14.6915 3.57678 14.5776 3.22391L14.1018 3.37747C14.1925 3.65858 14.2187 3.95783 14.1782 4.25146L14.6735 4.31981ZM15.2186 4.03563H14.4258V4.53563H15.2186V4.03563ZM14.866 3.04711C14.9911 3.43449 15.0271 3.84683 14.971 4.2513L15.4663 4.31997C15.5327 3.84105 15.4901 3.3527 15.3418 2.89344L14.866 3.04711ZM14.2515 2.02081C14.5303 2.30847 14.7409 2.65975 14.866 3.04711L15.3418 2.89345C15.1935 2.43417 14.9433 2.01618 14.6106 1.67283L14.2515 2.02081ZM13.2609 1.38896C13.6335 1.51706 13.9727 1.73316 14.2515 2.0208L14.6106 1.67284C14.2778 1.32944 13.8714 1.07014 13.4235 0.91613L13.2609 1.38896ZM31.1526 1.28214C31.5411 1.22481 31.9371 1.26156 32.3097 1.38964L32.4722 0.916806C32.0242 0.762787 31.5474 0.718459 31.0796 0.787494L31.1526 1.28214ZM20.0802 1.29172L31.1162 1.28482L31.1159 0.784817L20.0799 0.79172L20.0802 1.29172ZM20.3301 13.2347V1.04172H19.8301V13.2347H20.3301ZM20.8679 12.9847H20.0801V13.4847H20.8679V12.9847ZM20.6179 7.53945V13.2347H21.1179V7.53945H20.6179ZM31.1127 7.28945H20.8679V7.78945H31.1127V7.28945ZM32.1501 7.39205C31.8048 7.27324 31.4371 7.23897 31.0763 7.29212L31.1491 7.78678C31.4306 7.74532 31.7176 7.772 31.9875 7.86485L32.1501 7.39205ZM33.0649 7.97516C32.8085 7.71066 32.4953 7.51083 32.1501 7.39205L31.9875 7.86485C32.2574 7.95773 32.5036 8.11442 32.7058 8.32314L33.0649 7.97516ZM33.6279 8.91478C33.5137 8.56139 33.3212 8.2396 33.0649 7.97516L32.7058 8.32314C32.9082 8.53192 33.0612 8.787 33.1521 9.06847L33.6279 8.91478ZM33.7238 10.0124C33.7749 9.64385 33.742 9.26811 33.6279 8.91479L33.1521 9.06847C33.243 9.35004 33.2693 9.64973 33.2285 9.94366L33.7238 10.0124ZM33.7261 13.2295V9.97804H33.2261V13.2295H33.7261ZM34.2673 12.9795H33.4761V13.4795H34.2673V12.9795ZM34.0173 9.97804V13.2295H34.5173V9.97804H34.0173ZM33.7843 8.46206C33.998 8.92401 34.0797 9.43977 34.019 9.94846L34.5155 10.0076C34.5871 9.4074 34.4908 8.79847 34.2381 8.25217L33.7843 8.46206ZM32.8156 7.34233C33.2343 7.61203 33.5707 8.00019 33.7843 8.46205L34.2381 8.25217C33.9854 7.70574 33.5862 7.24396 33.0863 6.92198L32.8156 7.34233ZM33.7843 5.80225C33.5707 6.2641 33.2343 6.65226 32.8155 6.92198L33.0863 7.34233C33.5862 7.02033 33.9854 6.55856 34.2381 6.01215L33.7843 5.80225ZM34.019 4.31585C34.0797 4.82453 33.998 5.3403 33.7843 5.80226L34.2381 6.01214C34.4908 5.46584 34.5871 4.85689 34.5155 4.25669L34.019 4.31585ZM33.9147 3.04782C34.0399 3.43516 34.0759 3.84745 34.0197 4.25186L34.5149 4.32068C34.5815 3.84171 34.5389 3.35332 34.3904 2.89404L33.9147 3.04782ZM33.3003 2.02147C33.5791 2.30912 33.7896 2.66039 33.9146 3.04774L34.3905 2.89413C34.2422 2.43486 33.9921 2.01685 33.6593 1.67351L33.3003 2.02147ZM32.3097 1.38964C32.6822 1.51773 33.0214 1.73382 33.3003 2.02152L33.6593 1.67346C33.3264 1.33013 32.9202 1.07083 32.4722 0.916806L32.3097 1.38964ZM33.1533 3.37679C33.2442 3.65835 33.2705 3.95802 33.2297 4.25194L33.7249 4.32071C33.7761 3.95214 33.7432 3.57642 33.6291 3.22311L33.1533 3.37679ZM32.707 2.63149C32.9094 2.84026 33.0624 3.09533 33.1533 3.37679L33.6291 3.2231C33.5149 2.86972 33.3224 2.54794 33.0661 2.2835L32.707 2.63149ZM31.9887 2.17322C32.2586 2.26609 32.5047 2.42277 32.707 2.63149L33.0661 2.2835C32.8097 2.01901 32.4965 1.81919 32.1513 1.70041L31.9887 2.17322ZM31.1503 2.09515C31.4318 2.05369 31.7188 2.08037 31.9887 2.17322L32.1513 1.70041C31.806 1.58161 31.4383 1.54734 31.0775 1.60049L31.1503 2.09515ZM20.8691 2.09782H31.1139V1.59782H20.8691V2.09782ZM21.1191 6.72483V1.84782H20.6191V6.72483H21.1191ZM31.1106 6.47483H20.8691V6.97483H31.1106V6.47483ZM31.9866 6.40065C31.7165 6.49325 31.4291 6.51954 31.1474 6.47756L31.0737 6.9721C31.4347 7.02591 31.803 6.99215 32.1487 6.87364L31.9866 6.40065ZM32.7062 5.94256C32.5034 6.1514 32.257 6.30801 31.9866 6.40064L32.1487 6.87365C32.4945 6.75515 32.8081 6.55539 33.0649 6.29089L32.7062 5.94256ZM33.1531 5.19678C33.0621 5.4785 32.9088 5.73378 32.7061 5.94263L33.065 6.29082C33.3216 6.02632 33.5146 5.7043 33.6289 5.35056L33.1531 5.19678ZM33.2297 4.32068C33.2705 4.61505 33.2444 4.91503 33.1532 5.19666L33.6289 5.35068C33.7434 4.99689 33.7761 4.62075 33.7249 4.25197L33.2297 4.32068ZM42.2463 12.9797C41.8579 13.037 41.4619 13.0003 41.0894 12.8722L40.9268 13.345C41.3748 13.4991 41.8516 13.5434 42.3193 13.4744L42.2463 12.9797ZM50.1609 12.977H42.2828V13.477H50.1609V12.977ZM51.3545 12.8722C50.9819 13.0003 50.5859 13.037 50.1974 12.9797L50.1244 13.4744C50.5922 13.5434 51.069 13.4991 51.517 13.345L51.3545 12.8722ZM52.3452 12.2403C52.0662 12.528 51.727 12.7441 51.3545 12.8722L51.517 13.345C51.965 13.191 52.3712 12.9317 52.7041 12.5884L52.3452 12.2403ZM52.9594 11.2141C52.8344 11.6015 52.6239 11.9527 52.3451 12.2404L52.7042 12.5884C53.0369 12.245 53.287 11.827 53.4353 11.3677L52.9594 11.2141ZM53.0645 10.01C53.1207 10.4144 53.0847 10.8267 52.9595 11.214L53.4352 11.3678C53.5837 10.9085 53.6263 10.4201 53.5597 9.94118L53.0645 10.01ZM53.0621 4.2804V9.9756H53.5621V4.2804H53.0621ZM52.9595 3.04195C53.0847 3.42929 53.1207 3.84158 53.0645 4.24598L53.5597 4.31481C53.6263 3.83584 53.5837 3.34745 53.4352 2.88818L52.9595 3.04195ZM52.3451 2.01561C52.6239 2.30326 52.8344 2.65452 52.9594 3.04187L53.4353 2.88826C53.287 2.42899 53.0369 2.01099 52.7042 1.66764L52.3451 2.01561ZM51.3545 1.38378C51.727 1.51187 52.0662 1.72796 52.3451 2.01566L52.7041 1.6676C52.3712 1.32427 51.965 1.06497 51.517 0.910946L51.3545 1.38378ZM50.1974 1.27628C50.5859 1.21895 50.9819 1.2557 51.3545 1.38378L51.517 0.910946C51.069 0.756927 50.5922 0.7126 50.1244 0.781635L50.1974 1.27628ZM42.2828 1.27896H50.1609V0.778957H42.2828V1.27896ZM41.0894 1.38378C41.4619 1.2557 41.8579 1.21895 42.2463 1.27628L42.3193 0.781637C41.8516 0.712597 41.3748 0.75693 40.9268 0.910946L41.0894 1.38378ZM40.0987 2.01566C40.3776 1.72796 40.7168 1.51187 41.0894 1.38378L40.9268 0.910946C40.4788 1.06497 40.0726 1.32427 39.7397 1.6676L40.0987 2.01566ZM39.4844 3.04187C39.6094 2.65452 39.82 2.30326 40.0987 2.01561L39.7397 1.66764C39.4069 2.01099 39.1568 2.42899 39.0086 2.88826L39.4844 3.04187ZM39.3792 4.24608C39.3231 3.84161 39.3592 3.42929 39.4844 3.04195L39.0086 2.88818C38.8601 3.34745 38.8176 3.83581 38.8839 4.31472L39.3792 4.24608ZM39.3816 9.9756V4.2804H38.8816V9.9756H39.3816ZM39.4844 11.214C39.3592 10.8267 39.3231 10.4144 39.3792 10.0099L38.8839 9.94127C38.8176 10.4202 38.8601 10.9085 39.0086 11.3678L39.4844 11.214ZM40.0987 12.2404C39.82 11.9527 39.6094 11.6015 39.4844 11.2141L39.0086 11.3677C39.1568 11.827 39.4069 12.245 39.7397 12.5884L40.0987 12.2404ZM41.0894 12.8722C40.7168 12.7441 40.3776 12.528 40.0987 12.2403L39.7397 12.5884C40.0726 12.9317 40.4788 13.191 40.9268 13.345L41.0894 12.8722ZM40.2416 10.8886C40.1507 10.6071 40.1244 10.3074 40.1651 10.0134L39.6698 9.94488C39.6188 10.3134 39.6517 10.689 39.7659 11.0423L40.2416 10.8886ZM40.6879 11.6339C40.4855 11.4252 40.3326 11.1701 40.2416 10.8886L39.7659 11.0423C39.88 11.3957 40.0726 11.7175 40.3289 11.9819L40.6879 11.6339ZM41.4063 12.0922C41.1363 11.9993 40.8902 11.8426 40.6879 11.6339L40.3289 11.9819C40.5852 12.2464 40.8984 12.4462 41.2436 12.565L41.4063 12.0922ZM42.2444 12.1702C41.9631 12.2117 41.6761 12.185 41.4063 12.0922L41.2436 12.565C41.5889 12.6838 41.9566 12.718 42.3173 12.6649L42.2444 12.1702ZM50.1589 12.1676H42.2808V12.6676H50.1589V12.1676ZM51.0336 12.0922C50.7637 12.185 50.4768 12.2117 50.1953 12.1702L50.1224 12.6649C50.4832 12.718 50.8509 12.6838 51.1963 12.565L51.0336 12.0922ZM51.752 11.6339C51.5497 11.8426 51.3036 11.9993 51.0336 12.0922L51.1963 12.565C51.5415 12.4462 51.8547 12.2464 52.111 11.9819L51.752 11.6339ZM52.1982 10.8886C52.1073 11.1701 51.9543 11.4252 51.752 11.6339L52.111 11.9819C52.3673 11.7175 52.5599 11.3957 52.674 11.0423L52.1982 10.8886ZM52.2747 10.0135C52.3155 10.3074 52.2892 10.6071 52.1982 10.8886L52.674 11.0423C52.7882 10.689 52.8211 10.3133 52.7699 9.94476L52.2747 10.0135ZM52.2723 4.2843V9.97915H52.7723V4.2843H52.2723ZM52.1982 3.37479C52.2892 3.65634 52.3155 3.956 52.2747 4.24991L52.7699 4.31868C52.8211 3.95012 52.7882 3.57441 52.674 3.2211L52.1982 3.37479ZM51.752 2.62952C51.9543 2.83828 52.1073 3.09335 52.1982 3.37479L52.674 3.2211C52.5599 2.86772 52.3673 2.54595 52.111 2.28153L51.752 2.62952ZM51.0336 2.17126C51.3036 2.26413 51.5497 2.42081 51.752 2.62952L52.111 2.28153C51.8547 2.01704 51.5415 1.81722 51.1963 1.69846L51.0336 2.17126ZM50.1953 2.09319C50.4768 2.05173 50.7637 2.07842 51.0336 2.17126L51.1963 1.69846C50.8509 1.57966 50.4832 1.54539 50.1224 1.59853L50.1953 2.09319ZM42.2808 2.09586H50.1589V1.59586H42.2808V2.09586ZM41.4063 2.17126C41.6762 2.07841 41.9631 2.05174 42.2444 2.09319L42.3173 1.59853C41.9566 1.54539 41.5889 1.57966 41.2436 1.69846L41.4063 2.17126ZM40.6879 2.62952C40.8902 2.42081 41.1363 2.26413 41.4063 2.17126L41.2436 1.69846C40.8984 1.81722 40.5852 2.01704 40.3289 2.28153L40.6879 2.62952ZM40.2416 3.37479C40.3326 3.09335 40.4855 2.83828 40.6879 2.62952L40.3289 2.28153C40.0726 2.54596 39.88 2.86772 39.7659 3.2211L40.2416 3.37479ZM40.1651 4.25003C40.1244 3.95604 40.1507 3.65634 40.2416 3.37479L39.7659 3.2211C39.6517 3.57441 39.6188 3.95008 39.6698 4.31856L40.1651 4.25003ZM40.1674 9.97915V4.2843H39.6674V9.97915H40.1674ZM71.8211 9.97667V1.03516H71.3211V9.97667H71.8211ZM71.7229 11.0399C71.837 10.6866 71.8699 10.3109 71.8187 9.94228L71.3235 10.0111C71.3643 10.305 71.338 10.6047 71.2471 10.8862L71.7229 11.0399ZM71.1599 11.9795C71.4162 11.7151 71.6087 11.3933 71.7229 11.0399L71.2471 10.8862C71.1562 11.1677 71.0032 11.4228 70.8008 11.6315L71.1599 11.9795ZM70.2451 12.5627C70.5903 12.4439 70.9035 12.244 71.1599 11.9795L70.8008 11.6316C70.5985 11.8403 70.3524 11.997 70.0824 12.0899L70.2451 12.5627ZM69.1714 12.6626C69.5321 12.7157 69.8998 12.6815 70.2451 12.5627L70.0824 12.0899C69.8126 12.1827 69.5256 12.2094 69.2443 12.1679L69.1714 12.6626ZM61.3297 12.6653H69.2079V12.1653H61.3297V12.6653ZM60.2924 12.5627C60.6377 12.6815 61.0055 12.7157 61.3661 12.6626L61.2932 12.1679C61.0119 12.2094 60.725 12.1827 60.4551 12.0899L60.2924 12.5627ZM59.3777 11.9795C59.634 12.244 59.9472 12.4439 60.2924 12.5627L60.4551 12.0899C60.1851 11.997 59.939 11.8403 59.7367 11.6316L59.3777 11.9795ZM58.8147 11.0399C58.9288 11.3933 59.1214 11.7151 59.3777 11.9795L59.7367 11.6315C59.5344 11.4228 59.3814 11.1677 59.2904 10.8862L58.8147 11.0399ZM58.7188 9.94228C58.6676 10.3109 58.7005 10.6866 58.8147 11.0399L59.2904 10.8862C59.1995 10.6047 59.1732 10.305 59.214 10.0111L58.7188 9.94228ZM58.7164 1.03516V9.97667H59.2164V1.03516H58.7164ZM58.1784 1.28516H58.9664V0.785156H58.1784V1.28516ZM58.4284 9.97667V1.03516H57.9284V9.97667H58.4284ZM58.5312 11.2151C58.406 10.8278 58.37 10.4155 58.4261 10.011L57.9308 9.94235C57.8644 10.4213 57.907 10.9096 58.0555 11.3689L58.5312 11.2151ZM59.1456 12.2415C58.8668 11.9538 58.6563 11.6025 58.5313 11.2152L58.0554 11.3688C58.2037 11.8281 58.4538 12.2461 58.7865 12.5894L59.1456 12.2415ZM60.1362 12.8733C59.7637 12.7452 59.4245 12.5291 59.1456 12.2414L58.7866 12.5895C59.1195 12.9328 59.5257 13.1921 59.9737 13.3461L60.1362 12.8733ZM61.2931 12.9808C60.9048 13.0381 60.5088 13.0014 60.1362 12.8733L59.9737 13.3461C60.4217 13.5002 60.8985 13.5445 61.3662 13.4754L61.2931 12.9808ZM69.2079 12.9781H61.3297V13.4781H69.2079V12.9781ZM70.4013 12.8733C70.0287 13.0014 69.6327 13.0381 69.2444 12.9808L69.1714 13.4754C69.6391 13.5445 70.1158 13.5002 70.5639 13.3461L70.4013 12.8733ZM71.392 12.2414C71.113 12.5291 70.7739 12.7452 70.4013 12.8733L70.5639 13.3461C71.0119 13.1921 71.418 12.9328 71.7509 12.5895L71.392 12.2414ZM72.0063 11.2152C71.8812 11.6025 71.6707 11.9538 71.3919 12.2415L71.751 12.5894C72.0837 12.2461 72.3338 11.8281 72.4821 11.3688L72.0063 11.2152ZM72.1115 10.011C72.1675 10.4155 72.1315 10.8278 72.0063 11.2151L72.4821 11.3689C72.6305 10.9096 72.6731 10.4213 72.6067 9.94235L72.1115 10.011ZM72.1091 1.03516V9.97667H72.6091V1.03516H72.1091ZM71.5711 1.28516H72.3591V0.785156H71.5711V1.28516ZM89.6119 0.9168C89.1639 0.762789 88.6872 0.718458 88.2195 0.787495L88.2925 1.28214C88.6808 1.22481 89.0768 1.26156 89.4494 1.38964L89.6119 0.9168ZM90.799 1.67343C90.4661 1.33011 90.06 1.07082 89.6119 0.9168L89.4494 1.38964C89.822 1.51772 90.1611 1.7338 90.4401 2.02149L90.799 1.67343ZM91.5302 2.89406C91.3819 2.43479 91.1318 2.01681 90.7991 1.67347L90.44 2.02145C90.7188 2.30908 90.9293 2.66034 91.0544 3.04766L91.5302 2.89406ZM91.6548 4.32047C91.7212 3.84158 91.6786 3.35323 91.5302 2.89397L91.0544 3.04775C91.1796 3.43508 91.2156 3.84737 91.1595 4.25183L91.6548 4.32047ZM91.5302 5.67831C91.6786 5.21907 91.7212 4.73072 91.6548 4.25183L91.1595 4.32047C91.2156 4.72493 91.1796 5.13722 91.0544 5.52453L91.5302 5.67831ZM90.7991 6.89883C91.1318 6.55549 91.3819 6.13748 91.5302 5.67823L91.0544 5.52462C90.9293 5.91195 90.7188 6.26322 90.44 6.55085L90.7991 6.89883ZM89.6119 7.65548C90.06 7.50147 90.4661 7.24218 90.799 6.89887L90.4401 6.55081C90.1611 6.83848 89.822 7.05456 89.4494 7.18264L89.6119 7.65548ZM88.2195 7.7848C88.6872 7.85384 89.1639 7.80951 89.612 7.65548L89.4494 7.18265C89.0768 7.31074 88.6808 7.34749 88.2925 7.29016L88.2195 7.7848ZM78.0145 7.78748H88.256V7.28748H78.0145V7.78748ZM78.2645 13.2325V7.53748H77.7645V13.2325H78.2645ZM77.2266 13.4825H78.0145V12.9825H77.2266V13.4825ZM76.9766 1.03999V13.2325H77.4766V1.03999H76.9766ZM88.2559 0.784815L77.2264 0.789993L77.2267 1.28999L88.2561 1.28482L88.2559 0.784815ZM90.866 4.32048C90.9172 3.95194 90.8843 3.57624 90.7702 3.22296L90.2944 3.37665C90.3853 3.65818 90.4116 3.95782 90.3708 4.2517L90.866 4.32048ZM90.6201 4.03609H90.6184V4.53609H90.6201V4.03609ZM90.7718 5.34968C90.8859 4.99627 90.9189 4.6204 90.8677 4.25172L90.3724 4.32047C90.4133 4.61452 90.387 4.91437 90.296 5.19604L90.7718 5.34968ZM90.2083 6.28958C90.4647 6.02513 90.6575 5.70329 90.7718 5.34979L90.2961 5.19593C90.205 5.47753 90.0518 5.73269 89.8493 5.94147L90.2083 6.28958ZM89.2927 6.87249C89.6383 6.75387 89.9517 6.55409 90.2083 6.28958L89.8493 5.94147C89.6469 6.15019 89.4006 6.30682 89.1304 6.39958L89.2927 6.87249ZM88.2185 6.97167C88.5793 7.02512 88.9472 6.99113 89.2927 6.87249L89.1304 6.39959C88.8604 6.4923 88.5733 6.51877 88.2918 6.47707L88.2185 6.97167ZM78.0137 6.97437H88.2551V6.47437H78.0137V6.97437ZM77.7637 1.84781V6.72437H78.2637V1.84781H77.7637ZM88.2551 1.59781H78.0137V2.09781H88.2551V1.59781ZM89.2924 1.7004C88.9471 1.58161 88.5794 1.54734 88.2187 1.60049L88.2916 2.09514C88.5729 2.05369 88.8598 2.08037 89.1297 2.17321L89.2924 1.7004ZM90.2071 2.28344C89.9508 2.01897 89.6376 1.81916 89.2924 1.7004L89.1297 2.17321C89.3997 2.26608 89.6458 2.42274 89.8481 2.63144L90.2071 2.28344ZM90.7701 3.22296C90.656 2.8696 90.4634 2.54785 90.2071 2.28344L89.8481 2.63144C90.0505 2.84019 90.2035 3.09524 90.2944 3.37666L90.7701 3.22296ZM97.7002 13.3455C98.1482 13.4995 98.625 13.5438 99.0927 13.4748L99.0197 12.9801C98.6314 13.0375 98.2354 13.0007 97.8628 12.8726L97.7002 13.3455ZM96.5132 12.5888C96.846 12.9321 97.2522 13.1914 97.7002 13.3455L97.8628 12.8726C97.4902 12.7445 97.1511 12.5284 96.8721 12.2408L96.5132 12.5888ZM95.782 11.3682C95.9303 11.8274 96.1804 12.2455 96.5131 12.5888L96.8722 12.2408C96.5934 11.9532 96.3829 11.6019 96.2578 11.2146L95.782 11.3682ZM95.6574 9.94177C95.591 10.4207 95.6336 10.909 95.782 11.3683L96.2578 11.2145C96.1326 10.8272 96.0966 10.4149 96.1526 10.0104L95.6574 9.94177ZM96.693 9.72609H95.905V10.2261H96.693V9.72609ZM97.017 10.8856C96.9261 10.6041 96.8998 10.3044 96.9406 10.0105L96.4453 9.9417C96.3942 10.3103 96.4271 10.686 96.5412 11.0393L97.017 10.8856ZM97.4632 11.6309C97.2609 11.4222 97.1079 11.1671 97.017 10.8856L96.5412 11.0393C96.6554 11.3927 96.8479 11.7145 97.1042 11.9789L97.4632 11.6309ZM98.1816 12.0892C97.9117 11.9963 97.6655 11.8396 97.4632 11.6309L97.1042 11.9789C97.3605 12.2434 97.6737 12.4432 98.019 12.562L98.1816 12.0892ZM99.0198 12.1673C98.7385 12.2087 98.4515 12.1821 98.1816 12.0892L98.019 12.562C98.3643 12.6808 98.732 12.7151 99.0926 12.6619L99.0198 12.1673ZM106.934 12.1646H99.0562V12.6646H106.934V12.1646ZM107.809 12.0892C107.539 12.1821 107.252 12.2087 106.971 12.1673L106.898 12.6619C107.259 12.7151 107.626 12.6808 107.972 12.562L107.809 12.0892ZM108.527 11.6309C108.325 11.8396 108.079 11.9963 107.809 12.0892L107.972 12.562C108.317 12.4432 108.63 12.2434 108.886 11.9789L108.527 11.6309ZM108.974 10.8856C108.883 11.1671 108.73 11.4222 108.527 11.6309L108.886 11.9789C109.143 11.7145 109.335 11.3927 109.449 11.0393L108.974 10.8856ZM109.05 10.0104C109.091 10.3044 109.065 10.6041 108.974 10.8856L109.449 11.0393C109.563 10.686 109.596 10.3103 109.545 9.94183L109.05 10.0104ZM108.974 9.06654C109.065 9.3481 109.091 9.64782 109.05 9.94183L109.545 10.0104C109.596 9.64186 109.563 9.26618 109.449 8.91286L108.974 9.06654ZM108.527 8.32123C108.73 8.53001 108.883 8.78509 108.974 9.06654L109.449 8.91286C109.335 8.55947 109.143 8.23769 108.886 7.97325L108.527 8.32123ZM107.809 7.86296C108.079 7.95583 108.325 8.11253 108.527 8.32124L108.886 7.97325C108.63 7.70878 108.317 7.50893 107.972 7.39016L107.809 7.86296ZM106.971 7.78489C107.252 7.74343 107.539 7.77011 107.809 7.86296L107.972 7.39016C107.626 7.27136 107.259 7.23708 106.898 7.29023L106.971 7.78489ZM99.0562 7.78756H106.934V7.28756H99.0562V7.78756ZM97.7002 7.65555C98.1482 7.80959 98.625 7.85392 99.0927 7.78488L99.0197 7.29024C98.6314 7.34756 98.2354 7.31082 97.8628 7.18272L97.7002 7.65555ZM96.5132 6.89894C96.846 7.24225 97.2522 7.50154 97.7002 7.65556L97.8628 7.18272C97.4902 7.05464 97.1511 6.83855 96.8721 6.55087L96.5132 6.89894ZM95.782 5.67828C95.9303 6.13754 96.1804 6.55555 96.5131 6.89889L96.8722 6.55092C96.5934 6.26328 96.3829 5.91201 96.2578 5.52467L95.782 5.67828ZM95.6574 4.25187C95.591 4.73076 95.6336 5.21911 95.782 5.67837L96.2578 5.52458C96.1326 5.13727 96.0966 4.72497 96.1526 4.32051L95.6574 4.25187ZM95.782 2.894C95.6336 3.35326 95.591 3.84161 95.6574 4.32051L96.1526 4.25187C96.0966 3.84741 96.1326 3.4351 96.2578 3.04777L95.782 2.894ZM96.5131 1.67348C96.1804 2.01682 95.9303 2.43482 95.782 2.89408L96.2578 3.04769C96.3829 2.66035 96.5934 2.30909 96.8722 2.02145L96.5131 1.67348ZM97.7002 0.916802C97.2522 1.07082 96.846 1.33011 96.5132 1.67344L96.8721 2.0215C97.1511 1.73381 97.4902 1.51772 97.8628 1.38964L97.7002 0.916802ZM99.0927 0.787496C98.625 0.718457 98.1482 0.762789 97.7002 0.916802L97.8628 1.38964C98.2354 1.26156 98.6314 1.22481 99.0197 1.28214L99.0927 0.787496ZM106.934 0.784816H99.0562V1.28482H106.934V0.784816ZM108.29 0.917492C107.842 0.763334 107.366 0.718753 106.898 0.787473L106.971 1.28216C107.359 1.2251 107.755 1.26205 108.127 1.39026L108.29 0.917492ZM109.476 1.6743C109.144 1.33096 108.738 1.07165 108.29 0.917502L108.127 1.39025C108.499 1.51848 108.839 1.73462 109.117 2.02219L109.476 1.6743ZM110.207 2.89456C110.059 2.43545 109.809 2.0176 109.476 1.67435L109.117 2.02214C109.396 2.3098 109.606 2.66103 109.731 3.04821L110.207 2.89456ZM110.331 4.32052C110.398 3.84177 110.355 3.35364 110.207 2.89463L109.731 3.04813C109.856 3.43538 109.892 3.84756 109.836 4.25185L110.331 4.32052ZM109.296 4.53619H110.084V4.03619H109.296V4.53619ZM108.972 3.37664C109.063 3.6582 109.089 3.95788 109.048 4.2518L109.544 4.32057C109.595 3.952 109.562 3.57628 109.448 3.22296L108.972 3.37664ZM108.526 2.63133C108.728 2.84011 108.881 3.09519 108.972 3.37664L109.448 3.22296C109.334 2.86957 109.141 2.54779 108.885 2.28335L108.526 2.63133ZM107.807 2.17306C108.077 2.26593 108.323 2.42262 108.526 2.63133L108.885 2.28335C108.628 2.01886 108.315 1.81903 107.97 1.70026L107.807 2.17306ZM106.969 2.09499C107.25 2.05353 107.537 2.08021 107.807 2.17306L107.97 1.70026C107.625 1.58146 107.257 1.54718 106.896 1.60033L106.969 2.09499ZM99.0545 2.09766H106.933V1.59766H99.0545V2.09766ZM98.18 2.17306C98.4498 2.08021 98.7368 2.05353 99.0181 2.09499L99.091 1.60033C98.7303 1.54718 98.3626 1.58146 98.0173 1.70026L98.18 2.17306ZM97.4616 2.63133C97.6639 2.42262 97.91 2.26594 98.18 2.17306L98.0173 1.70026C97.6721 1.81903 97.3589 2.01886 97.1025 2.28335L97.4616 2.63133ZM97.0153 3.37664C97.1062 3.09518 97.2592 2.84011 97.4616 2.63133L97.1025 2.28335C96.8462 2.54779 96.6537 2.86957 96.5395 3.22296L97.0153 3.37664ZM96.9389 4.2518C96.8981 3.95788 96.9244 3.65821 97.0153 3.37664L96.5395 3.22296C96.4254 3.57627 96.3925 3.952 96.4437 4.32057L96.9389 4.2518ZM97.0153 5.19571C96.9244 4.91417 96.8981 4.61449 96.9389 4.32057L96.4437 4.2518C96.3925 4.62038 96.4254 4.9961 96.5395 5.3494L97.0153 5.19571ZM97.4616 5.94102C97.2592 5.73227 97.1062 5.47718 97.0153 5.19571L96.5395 5.3494C96.6537 5.70278 96.8462 6.02459 97.1025 6.28901L97.4616 5.94102ZM98.18 6.39932C97.91 6.30644 97.6639 6.14974 97.4616 5.94103L97.1025 6.28901C97.3589 6.55349 97.6721 6.75334 98.0173 6.87212L98.18 6.39932ZM99.0181 6.47739C98.7368 6.51883 98.4498 6.49216 98.18 6.39932L98.0173 6.87212C98.3626 6.99092 98.7303 7.02518 99.091 6.97205L99.0181 6.47739ZM106.933 6.47472H99.0545V6.97472H106.933V6.47472ZM108.289 6.6067C107.841 6.45269 107.364 6.40836 106.896 6.4774L106.969 6.97204C107.358 6.91471 107.754 6.95146 108.126 7.07954L108.289 6.6067ZM109.476 7.36334C109.143 7.02001 108.737 6.76074 108.289 6.60671L108.126 7.07954C108.499 7.20764 108.838 7.42371 109.117 7.7114L109.476 7.36334ZM110.207 8.58398C110.059 8.12472 109.809 7.70672 109.476 7.36338L109.117 7.71136C109.396 7.999 109.606 8.35025 109.731 8.73759L110.207 8.58398ZM110.331 10.0105C110.398 9.53154 110.355 9.04316 110.207 8.58389L109.731 8.73768C109.856 9.12501 109.892 9.53728 109.836 9.94167L110.331 10.0105ZM110.207 11.3683C110.355 10.909 110.398 10.4206 110.331 9.94167L109.836 10.0105C109.892 10.4149 109.856 10.8272 109.731 11.2145L110.207 11.3683ZM109.476 12.5888C109.809 12.2455 110.059 11.8274 110.207 11.3682L109.731 11.2146C109.606 11.6019 109.396 11.9532 109.117 12.2408L109.476 12.5888ZM108.289 13.3455C108.737 13.1914 109.143 12.9321 109.476 12.5888L109.117 12.2408C108.838 12.5284 108.499 12.7445 108.126 12.8726L108.289 13.3455ZM106.896 13.4748C107.364 13.5438 107.841 13.4995 108.289 13.3455L108.126 12.8726C107.754 13.0007 107.358 13.0375 106.969 12.9801L106.896 13.4748ZM99.0562 13.4775H106.933V12.9775H99.0562V13.4775ZM115.491 7.53288V13.2281H115.991V7.53288H115.491ZM128.349 7.28288H115.741V7.78288H128.349V7.28288ZM128.599 13.2281V7.53288H128.099V13.2281H128.599ZM129.137 12.9781H128.349V13.4781H129.137V12.9781ZM128.887 1.03516V13.2281H129.387V1.03516H128.887ZM128.349 1.28516H129.137V0.785156H128.349V1.28516ZM128.599 6.73037V1.03516H128.099V6.73037H128.599ZM115.741 6.98037H128.349V6.48037H115.741V6.98037ZM115.491 1.03516V6.73037H115.991V1.03516H115.491ZM114.953 1.28516H115.741V0.785156H114.953V1.28516ZM115.203 13.2281V1.03516H114.703V13.2281H115.203ZM115.741 12.9781H114.953V13.4781H115.741V12.9781ZM135.795 13.3437C136.243 13.498 136.719 13.5428 137.187 13.4744L137.115 12.9797C136.726 13.0364 136.331 12.9993 135.958 12.871L135.795 13.3437ZM134.61 12.5866C134.942 12.93 135.348 13.1893 135.795 13.3437L135.958 12.871C135.586 12.7426 135.247 12.5265 134.969 12.2389L134.61 12.5866ZM133.879 11.3667C134.028 11.8257 134.277 12.2434 134.61 12.5867L134.969 12.2389C134.691 11.9513 134.48 11.6002 134.355 11.2132L133.879 11.3667ZM133.755 9.94125C133.689 10.4199 133.731 10.9078 133.879 11.3667L134.355 11.2132C134.23 10.826 134.194 10.4141 134.25 10.0099L133.755 9.94125ZM133.753 4.2804V9.9756H134.253V4.2804H133.753ZM133.88 2.88818C133.731 3.34745 133.689 3.83584 133.755 4.31481L134.25 4.24598C134.194 3.84158 134.23 3.4293 134.355 3.04196L133.88 2.88818ZM134.611 1.66764C134.278 2.01099 134.028 2.42899 133.88 2.88826L134.355 3.04187C134.48 2.65452 134.691 2.30326 134.97 2.01562L134.611 1.66764ZM135.798 0.910946C135.35 1.06497 134.944 1.32427 134.611 1.6676L134.97 2.01566C135.249 1.72796 135.588 1.51187 135.96 1.38378L135.798 0.910946ZM137.191 0.781635C136.723 0.7126 136.246 0.756927 135.798 0.910946L135.96 1.38378C136.333 1.2557 136.729 1.21895 137.118 1.27628L137.191 0.781635ZM145.042 0.778957H137.154V1.27896H145.042V0.778957ZM146.398 0.910945C145.95 0.756928 145.473 0.712599 145.006 0.781635L145.079 1.27628C145.467 1.21895 145.863 1.2557 146.236 1.38379L146.398 0.910945ZM147.585 1.6676C147.252 1.32427 146.846 1.06497 146.398 0.910946L146.236 1.38378C146.608 1.51187 146.947 1.72796 147.226 2.01566L147.585 1.6676ZM148.316 2.88826C148.168 2.42899 147.918 2.01099 147.585 1.66764L147.226 2.01561C147.505 2.30326 147.716 2.65453 147.841 3.04187L148.316 2.88826ZM148.441 4.31472C148.507 3.83581 148.465 3.34746 148.316 2.88818L147.841 3.04195C147.966 3.42929 148.002 3.84161 147.946 4.24608L148.441 4.31472ZM148.443 9.9756V4.2804H147.943V9.9756H148.443ZM148.316 11.3678C148.465 10.9085 148.507 10.4202 148.441 9.94127L147.946 10.0099C148.002 10.4144 147.966 10.8267 147.841 11.214L148.316 11.3678ZM147.585 12.5884C147.918 12.245 148.168 11.827 148.316 11.3677L147.841 11.2141C147.716 11.6014 147.505 11.9527 147.226 12.2404L147.585 12.5884ZM146.398 13.345C146.846 13.191 147.252 12.9317 147.585 12.5884L147.226 12.2403C146.947 12.528 146.608 12.7441 146.236 12.8722L146.398 13.345ZM145.006 13.4744C145.473 13.5434 145.95 13.4991 146.398 13.345L146.236 12.8722C145.863 13.0003 145.467 13.037 145.079 12.9797L145.006 13.4744ZM137.151 13.477H145.042V12.977H137.151V13.477ZM134.539 9.9419C134.488 10.3105 134.521 10.6862 134.635 11.0395L135.111 10.8858C135.02 10.6043 134.993 10.3046 135.034 10.0107L134.539 9.9419ZM134.55 4.28578L134.537 9.9757L135.037 9.97686L135.05 4.28694L134.55 4.28578ZM134.648 3.22312C134.534 3.57644 134.501 3.95213 134.552 4.32061L135.048 4.2521C135.007 3.95809 135.033 3.65837 135.124 3.37681L134.648 3.22312ZM135.211 2.28352C134.955 2.54795 134.762 2.86973 134.648 3.22313L135.124 3.3768C135.215 3.09535 135.368 2.84027 135.57 2.63149L135.211 2.28352ZM136.126 1.70042C135.781 1.81919 135.468 2.01902 135.211 2.28351L135.57 2.6315C135.773 2.42278 136.019 2.26609 136.289 2.17322L136.126 1.70042ZM137.2 1.60049C136.839 1.54734 136.471 1.58161 136.126 1.70042L136.289 2.17322C136.559 2.08037 136.846 2.05369 137.127 2.09515L137.2 1.60049ZM145.041 1.59782H137.163V2.09782H145.041V1.59782ZM146.077 1.70024C145.732 1.58176 145.365 1.54754 145.005 1.60047L145.078 2.09516C145.359 2.05387 145.645 2.0805 145.915 2.17312L146.077 1.70024ZM146.991 2.28184C146.735 2.01803 146.422 1.81872 146.077 1.70025L145.915 2.1731C146.184 2.26573 146.43 2.42201 146.632 2.63017L146.991 2.28184ZM147.554 3.21924C147.44 2.86656 147.247 2.54557 146.991 2.28185L146.632 2.63016C146.835 2.83841 146.988 3.09286 147.079 3.37369L147.554 3.21924ZM147.653 4.31474C147.703 3.94683 147.669 3.57181 147.554 3.21913L147.079 3.37379C147.17 3.65462 147.197 3.95382 147.157 4.24762L147.653 4.31474ZM147.655 9.97628V4.28118H147.155V9.97628H147.655ZM147.557 11.0395C147.671 10.6862 147.704 10.3105 147.653 9.94203L147.157 10.0105C147.198 10.3045 147.172 10.6043 147.081 10.8858L147.557 11.0395ZM146.993 11.9791C147.25 11.7147 147.442 11.3929 147.557 11.0395L147.081 10.8858C146.99 11.1673 146.837 11.4224 146.634 11.6311L146.993 11.9791ZM146.079 12.5622C146.424 12.4434 146.737 12.2436 146.994 11.9791L146.634 11.6311C146.432 11.8398 146.186 11.9965 145.916 12.0894L146.079 12.5622ZM145.005 12.6622C145.366 12.7153 145.733 12.681 146.079 12.5622L145.916 12.0894C145.646 12.1823 145.359 12.2089 145.078 12.1675L145.005 12.6622ZM137.15 12.6648H145.041V12.1648H137.15V12.6648ZM136.113 12.5622C136.458 12.681 136.826 12.7153 137.187 12.6622L137.114 12.1675C136.832 12.2089 136.545 12.1823 136.275 12.0894L136.113 12.5622ZM135.198 11.9791C135.454 12.2436 135.767 12.4434 136.113 12.5622L136.275 12.0894C136.005 11.9965 135.759 11.8398 135.557 11.6311L135.198 11.9791ZM134.635 11.0395C134.749 11.3929 134.942 11.7147 135.198 11.9791L135.557 11.6311C135.355 11.4224 135.202 11.1673 135.111 10.8858L134.635 11.0395ZM165.433 0.9168C164.985 0.762789 164.508 0.718458 164.04 0.787495L164.113 1.28214C164.502 1.22481 164.898 1.26156 165.27 1.38964L165.433 0.9168ZM166.62 1.67343C166.287 1.33011 165.881 1.07081 165.433 0.9168L165.27 1.38964C165.643 1.51772 165.982 1.73381 166.261 2.02149L166.62 1.67343ZM167.351 2.89465C167.204 2.43477 166.953 2.01662 166.62 1.67337L166.261 2.02154C166.54 2.30927 166.751 2.66036 166.875 3.04707L167.351 2.89465ZM167.476 4.31993C167.541 3.8417 167.499 3.35347 167.35 2.89381L166.875 3.04792C167 3.43484 167.036 3.84725 166.98 4.25237L167.476 4.31993ZM167.35 5.67848C167.499 5.21883 167.541 4.7306 167.476 4.25237L166.98 4.31993C167.036 4.72505 167 5.13746 166.875 5.52436L167.35 5.67848ZM166.62 6.89893C166.953 6.55568 167.204 6.13751 167.351 5.67763L166.875 5.52521C166.751 5.91192 166.54 6.26303 166.261 6.55076L166.62 6.89893ZM165.433 7.65548C165.881 7.50147 166.287 7.24218 166.62 6.89888L166.261 6.55081C165.982 6.83848 165.643 7.05456 165.27 7.18264L165.433 7.65548ZM164.04 7.7848C164.508 7.85384 164.985 7.80951 165.433 7.65548L165.27 7.18265C164.898 7.31074 164.502 7.34749 164.113 7.29016L164.04 7.7848ZM153.839 7.78748H164.077V7.28748H153.839V7.78748ZM154.089 13.2325V7.53748H153.589V13.2325H154.089ZM153.051 13.4825H153.839V12.9825H153.051V13.4825ZM152.801 1.03999V13.2325H153.301V1.03999H152.801ZM164.077 0.784815L153.051 0.789993L153.051 1.28999L164.077 1.28482L164.077 0.784815ZM166.689 4.32002C166.739 3.95246 166.708 3.57676 166.593 3.2226L166.117 3.37721C166.209 3.65791 166.234 3.95757 166.194 4.25249L166.689 4.32002ZM166.452 4.03625H166.442V4.53625H166.452V4.03625ZM166.603 5.35184C166.718 4.99708 166.749 4.62069 166.699 4.25254L166.204 4.31996C166.244 4.61559 166.219 4.916 166.127 5.1973L166.603 5.35184ZM166.038 6.29245C166.295 6.02782 166.488 5.70555 166.603 5.35162L166.127 5.19752C166.036 5.47962 165.882 5.73509 165.679 5.94392L166.038 6.29245ZM165.12 6.87491C165.466 6.75673 165.781 6.55707 166.038 6.29244L165.679 5.94393C165.476 6.1528 165.229 6.30933 164.959 6.40172L165.12 6.87491ZM164.044 6.97189C164.405 7.02636 164.774 6.99311 165.12 6.87492L164.959 6.40171C164.688 6.49409 164.4 6.51997 164.119 6.47748L164.044 6.97189ZM153.84 6.97469H164.081V6.47469H153.84V6.97469ZM153.59 1.84782V6.72469H154.09V1.84782H153.59ZM164.078 1.59782H153.84V2.09782H164.078V1.59782ZM165.115 1.70041C164.77 1.58161 164.402 1.54734 164.042 1.60049L164.114 2.09515C164.396 2.05369 164.683 2.08037 164.953 2.17321L165.115 1.70041ZM166.03 2.28348C165.774 2.019 165.46 1.81918 165.115 1.70041L164.953 2.17321C165.223 2.26609 165.469 2.42277 165.671 2.63147L166.03 2.28348ZM166.593 3.22306C166.479 2.86968 166.286 2.54791 166.03 2.28349L165.671 2.63147C165.873 2.84024 166.026 3.09531 166.117 3.37674L166.593 3.22306Z" fill="black"/>
</svg>
