<svg width="135" height="12" viewBox="0 0 135 12" fill="none" xmlns="http://www.w3.org/2000/svg">
<path fill-rule="evenodd" clip-rule="evenodd" d="M11.2358 1.50014C10.9086 1.387 10.5609 1.3559 10.2204 1.40929L3.94047 1.44013C3.59939 1.39054 3.2521 1.42552 2.92612 1.54231C2.60015 1.65909 2.30445 1.85448 2.06246 2.11299C1.82045 2.37149 1.63881 2.68601 1.53189 3.03162C1.42498 3.37724 1.39575 3.74445 1.44651 4.10417L1.47242 8.74595C1.42558 9.10648 1.45893 9.47364 1.56984 9.81828C1.68075 10.1629 1.86616 10.4756 2.11134 10.7314C2.35653 10.9873 2.65476 11.1793 2.98237 11.2922C3.30996 11.4051 3.65793 11.4358 3.99864 11.382L10.2759 11.3469C10.6162 11.3954 10.9624 11.3597 11.2873 11.2427C11.6123 11.1257 11.907 10.9306 12.1483 10.6728C12.3896 10.4149 12.5708 10.1013 12.6778 9.75672C12.7847 9.41214 12.8144 9.046 12.7645 8.68713L12.7497 6.0371L6.47783 6.07211L6.48153 6.73462L12.1316 6.70308L12.1427 8.6906C12.1807 8.96038 12.1587 9.23576 12.0785 9.49493C11.9983 9.7541 11.862 9.98997 11.6805 10.1838C11.4991 10.3777 11.2773 10.5242 11.0329 10.6118C10.7884 10.6995 10.528 10.7257 10.2722 10.6886L3.99497 10.7237C3.73959 10.7636 3.47888 10.7403 3.23346 10.6554C2.98806 10.5705 2.76469 10.4264 2.58105 10.2346C2.39743 10.0428 2.25856 9.80847 2.17546 9.55022C2.09236 9.29195 2.06731 9.01684 2.1023 8.74666L2.07639 4.10488C2.03838 3.8351 2.06036 3.55972 2.14057 3.30054C2.22078 3.04137 2.35702 2.80551 2.5385 2.61165C2.71998 2.41779 2.94173 2.27125 3.18617 2.18363C3.43062 2.09601 3.69105 2.06972 3.94686 2.10685L10.2241 2.0718C10.4792 2.03255 10.7394 2.05648 10.9843 2.14169C11.2292 2.2269 11.452 2.37106 11.6352 2.56279C11.8183 2.75452 11.9568 2.98859 12.0397 3.24648C12.1226 3.50438 12.1476 3.77905 12.1128 4.04885L12.7439 4.04532C12.7907 3.68506 12.7574 3.3182 12.6466 2.97379C12.5358 2.62939 12.3507 2.31692 12.1058 2.06114C11.8609 1.80535 11.5631 1.61327 11.2358 1.50014ZM26.4016 1.41547C26.0743 1.30233 25.7267 1.27123 25.3861 1.32463L16.6001 1.37931L16.6556 11.3169L17.2828 11.3134L17.2569 6.67165L25.413 6.62612C25.6685 6.58614 25.9292 6.60952 26.1746 6.69441C26.4199 6.77929 26.6434 6.92334 26.827 7.11516C27.0107 7.30699 27.1495 7.54131 27.2326 7.79957C27.3157 8.05784 27.3408 8.33295 27.3057 8.60314L27.3205 11.2532L27.9503 11.2497L27.9355 8.59962C27.9856 8.14743 27.9122 7.6895 27.7243 7.27965C27.5363 6.86979 27.2416 6.52507 26.8746 6.28599C27.2389 6.04282 27.5298 5.69482 27.7131 5.2829C27.8965 4.87098 27.9647 4.41225 27.9096 3.96066C27.9565 3.60039 27.9231 3.23353 27.8123 2.88913C27.7016 2.54472 27.5164 2.23226 27.2716 1.97648C27.0266 1.72068 26.7288 1.52861 26.4016 1.41547ZM27.2798 3.96417C27.3149 3.69399 27.2898 3.41887 27.2067 3.1606C27.1236 2.90234 26.9848 2.66802 26.8011 2.4762C26.6175 2.28437 26.394 2.14033 26.1487 2.05544C25.9033 1.97056 25.6426 1.94717 25.3871 1.98715L17.231 2.03269L17.2532 6.00774L25.4066 5.96222C25.6626 5.99982 25.9235 5.97389 26.1682 5.88649C26.413 5.79908 26.6351 5.65261 26.817 5.45868C26.9987 5.26476 27.1352 5.02873 27.2155 4.7693C27.296 4.50989 27.3179 4.23422 27.2798 3.96417ZM33.316 11.1218C33.6433 11.2349 33.9909 11.266 34.3314 11.2126L40.6033 11.1776C40.9445 11.2272 41.2917 11.1922 41.6177 11.0754C41.9437 10.9586 42.2393 10.7633 42.4814 10.5048C42.7234 10.2463 42.905 9.93173 43.0119 9.58612C43.1189 9.2405 43.1481 8.87329 43.0973 8.51357L43.0713 3.87179C43.1182 3.51153 43.0849 3.14467 42.974 2.80026C42.8633 2.45586 42.6782 2.14339 42.4333 1.88761C42.1883 1.63182 41.8906 1.43974 41.5633 1.32661C41.236 1.21347 40.8884 1.18237 40.5478 1.23576L34.2759 1.27078C33.9348 1.22119 33.5876 1.25617 33.2616 1.37295C32.9356 1.48974 32.64 1.68512 32.3979 1.94364C32.1559 2.20214 31.9743 2.51665 31.8674 2.86227C31.7604 3.20789 31.7312 3.5751 31.7819 3.93482L31.8078 8.5766C31.7611 8.93686 31.7945 9.30372 31.9053 9.64813C32.016 9.99252 32.2011 10.305 32.446 10.5608C32.691 10.8166 32.9887 11.0086 33.316 11.1218ZM32.4324 8.57311C32.3974 8.8433 32.4225 9.11841 32.5056 9.37667C32.5886 9.63493 32.7275 9.86926 32.9111 10.0611C33.0948 10.2529 33.3182 10.397 33.5636 10.4818C33.809 10.5667 34.0697 10.5901 34.325 10.5501L40.5969 10.5151C40.8528 10.5522 41.1133 10.526 41.3577 10.4383C41.6021 10.3507 41.8239 10.2042 42.0054 10.0103C42.1869 9.81645 42.3231 9.58059 42.4033 9.32141C42.4835 9.06224 42.5055 8.78687 42.4674 8.51709L42.4415 3.87531C42.4766 3.60512 42.4515 3.33001 42.3684 3.07174C42.2853 2.81348 42.1465 2.57916 41.9628 2.38733C41.7792 2.19551 41.5557 2.05146 41.3104 1.96658C41.065 1.88169 40.8043 1.85831 40.5488 1.89829L34.2769 1.9333C34.0212 1.89617 33.7607 1.92247 33.5163 2.01009C33.2719 2.09771 33.0501 2.24424 32.8686 2.4381C32.6871 2.63197 32.5509 2.86782 32.4707 3.12699C32.3905 3.38618 32.3685 3.66155 32.4065 3.93133L32.4324 8.57311ZM57.5925 1.14483L57.6331 8.43242C57.6713 8.7022 57.6492 8.97757 57.5691 9.23675C57.4889 9.49592 57.3526 9.73178 57.1711 9.92563C56.9897 10.1195 56.7678 10.266 56.5234 10.3537C56.279 10.4413 56.0186 10.4676 55.7628 10.4304L49.4908 10.4655C49.2355 10.5054 48.9747 10.4821 48.7294 10.3972C48.484 10.3123 48.2605 10.1682 48.0769 9.9764C47.8933 9.78459 47.7544 9.55026 47.6713 9.292C47.5882 9.03374 47.5631 8.75863 47.5982 8.48844L47.5576 1.20085L46.9302 1.20435L46.9709 8.49195C46.9242 8.85221 46.9575 9.21907 47.0684 9.56348C47.1791 9.90786 47.3642 10.2203 47.6091 10.4761C47.8541 10.7319 48.1518 10.924 48.4791 11.0371C48.8064 11.1503 49.154 11.1814 49.4945 11.128L55.7665 11.093C56.1076 11.1426 56.4548 11.1076 56.7808 10.9908C57.1068 10.874 57.4024 10.6786 57.6445 10.4201C57.8865 10.1616 58.0681 9.84707 58.175 9.50147C58.282 9.15585 58.3112 8.78864 58.2605 8.42892L58.2198 1.14133L57.5925 1.14483ZM70.8754 1.07067C71.2159 1.01727 71.5635 1.04838 71.8908 1.16151C72.2181 1.27465 72.5158 1.46673 72.7608 1.72252C73.0057 1.9783 73.1908 2.29077 73.3015 2.63517C73.4124 2.97957 73.4457 3.34644 73.399 3.7067C73.4497 4.06642 73.4205 4.43363 73.3135 4.77924C73.2066 5.12486 73.025 5.43938 72.783 5.69788C72.5409 5.95638 72.2453 6.15177 71.9193 6.26855C71.5933 6.38535 71.2461 6.42033 70.905 6.37074L62.7516 6.41626L62.7775 11.058L62.1501 11.0615L62.0947 1.12391L70.8754 1.07067ZM72.6986 2.90663C72.7817 3.1649 72.8068 3.44002 72.7717 3.7102L72.773 3.7102C72.8111 3.9801 72.7891 4.25563 72.7089 4.51493C72.6286 4.77423 72.4922 5.01017 72.3106 5.20406C72.129 5.39795 71.907 5.54446 71.6623 5.63198C71.4178 5.71949 71.1572 5.74559 70.9013 5.70823L62.7479 5.75375L62.7257 1.7787L70.8791 1.73318C71.1345 1.6932 71.3952 1.71659 71.6406 1.80147C71.8859 1.88636 72.1094 2.0304 72.293 2.22223C72.4767 2.41405 72.6155 2.64837 72.6986 2.90663ZM79.529 10.9603C79.1885 11.0137 78.8409 10.9826 78.5136 10.8694C78.1864 10.7563 77.8886 10.5642 77.6436 10.3084C77.3988 10.0527 77.2136 9.74019 77.1029 9.3958C76.9921 9.0514 76.9587 8.68453 77.0055 8.32427L77.6328 8.32077C77.5977 8.59096 77.6228 8.86607 77.7058 9.12433C77.7889 9.38259 77.9278 9.61692 78.1114 9.80873C78.2951 10.0006 78.5185 10.1446 78.7639 10.2295C79.0093 10.3144 79.27 10.3378 79.5253 10.2978L85.7973 10.2628C86.0531 10.2999 86.3136 10.2736 86.558 10.186C86.8024 10.0984 87.0242 9.95182 87.2057 9.75796C87.3872 9.56411 87.5234 9.32824 87.6036 9.06907C87.6838 8.8099 87.7058 8.53452 87.6678 8.26475C87.7028 7.99456 87.6777 7.71945 87.5946 7.46117C87.5115 7.20291 87.3727 6.9686 87.189 6.77677C87.0054 6.58496 86.7819 6.4409 86.5366 6.35601C86.2912 6.27113 86.0305 6.24774 85.7751 6.28772L79.5031 6.32274C79.1626 6.37614 78.815 6.34504 78.4878 6.23188C78.1605 6.11875 77.8627 5.92667 77.6177 5.67089C77.3729 5.41511 77.1877 5.10263 77.077 4.75823C76.9662 4.41384 76.9328 4.04697 76.9796 3.68671C76.9288 3.32699 76.9581 2.95978 77.0651 2.61416C77.1719 2.26854 77.3535 1.95403 77.5955 1.69553C77.8376 1.43702 78.1332 1.24163 78.4592 1.12484C78.7853 1.00806 79.1325 0.973079 79.4735 1.02267L85.7456 0.987657C86.0859 0.934499 86.4334 0.965784 86.7605 1.07903C87.0875 1.19229 87.3853 1.38439 87.63 1.64014C87.8746 1.8959 88.0597 2.20829 88.1705 2.55257C88.281 2.89683 88.3144 3.26356 88.2677 3.62369L87.6405 3.62719C87.6756 3.35701 87.6505 3.0819 87.5674 2.82362C87.4843 2.56536 87.3455 2.33104 87.1618 2.13922C86.9782 1.94739 86.7547 1.80335 86.5093 1.71846C86.264 1.63358 86.0032 1.61019 85.7479 1.65017L79.4759 1.68519C79.2201 1.64806 78.9597 1.67435 78.7153 1.76197C78.4709 1.84959 78.249 1.99613 78.0676 2.18999C77.8861 2.38385 77.7498 2.61971 77.6696 2.87888C77.5895 3.13806 77.5674 3.41344 77.6056 3.68322C77.5704 3.9534 77.5955 4.22852 77.6786 4.48678C77.7617 4.74504 77.9006 4.97937 78.0842 5.17118C78.2678 5.363 78.4913 5.50706 78.7367 5.59195C78.982 5.67683 79.2428 5.70021 79.4981 5.66024L85.7701 5.62522C86.1106 5.57183 86.4582 5.60293 86.7855 5.71606C87.1128 5.82922 87.4105 6.02128 87.6555 6.27707C87.9004 6.53285 88.0855 6.84532 88.1962 7.18972C88.3071 7.53412 88.3404 7.90099 88.2935 8.26125C88.3444 8.62097 88.3152 8.98818 88.2082 9.3338C88.1013 9.67941 87.9197 9.99393 87.6777 10.2524C87.4356 10.5109 87.14 10.7063 86.814 10.8231C86.488 10.9399 86.1408 10.9749 85.7997 10.9253L79.529 10.9603ZM92.812 10.8861L92.7861 6.24436L102.824 6.18833L102.85 10.8301L103.477 10.8266L103.421 0.888977L102.794 0.892478L102.82 5.53426L92.7824 5.5903L92.7565 0.948516L92.1293 0.952018L92.1848 10.8896L92.812 10.8861ZM109.857 10.791C109.516 10.8439 109.169 10.8124 108.842 10.6991C108.515 10.5857 108.218 10.3936 107.973 10.1378C107.728 9.88211 107.544 9.56982 107.433 9.22567C107.322 8.88151 107.289 8.51494 107.336 8.15494L107.31 3.51317C107.259 3.15345 107.288 2.78623 107.395 2.44062C107.502 2.095 107.684 1.78048 107.926 1.52199C108.168 1.26347 108.463 1.06808 108.789 0.951299C109.115 0.834514 109.463 0.799533 109.804 0.849126L116.084 0.814067C116.424 0.760669 116.772 0.79177 117.099 0.904908C117.426 1.01805 117.724 1.21012 117.969 1.46592C118.214 1.7217 118.399 2.03416 118.51 2.37857C118.621 2.72297 118.654 3.08983 118.607 3.45009L118.633 8.09187C118.684 8.45159 118.655 8.81881 118.548 9.16442C118.441 9.51003 118.259 9.82456 118.017 10.0831C117.775 10.3416 117.479 10.5369 117.153 10.6537C116.827 10.7705 116.48 10.8055 116.139 10.7559L109.857 10.791ZM108.033 8.95502C107.95 8.69676 107.925 8.42165 107.96 8.15146L107.945 3.51384C107.907 3.24406 107.929 2.96869 108.009 2.7095C108.089 2.45033 108.226 2.21448 108.407 2.02061C108.589 1.82675 108.81 1.68022 109.055 1.5926C109.299 1.50498 109.56 1.47868 109.815 1.51581L116.087 1.4808C116.342 1.44097 116.603 1.46432 116.848 1.54898C117.093 1.63364 117.316 1.77731 117.499 1.96863C117.683 2.15995 117.822 2.39369 117.905 2.6514C117.989 2.90911 118.014 3.18374 117.98 3.4536L118.006 8.09538C118.044 8.36516 118.022 8.64053 117.942 8.8997C117.862 9.15887 117.725 9.39474 117.544 9.58859C117.362 9.78245 117.14 9.929 116.896 10.0166C116.652 10.1042 116.391 10.1305 116.135 10.0934L109.853 10.1285C109.597 10.1684 109.337 10.1451 109.091 10.0602C108.846 9.97531 108.623 9.83125 108.439 9.63942C108.255 9.44761 108.116 9.21328 108.033 8.95502ZM131.239 0.733679C131.579 0.680281 131.927 0.711383 132.254 0.824521C132.581 0.937658 132.879 1.12973 133.124 1.38553C133.369 1.64131 133.555 1.95377 133.665 2.29818C133.776 2.64258 133.808 3.00945 133.762 3.36971C133.812 3.72943 133.784 4.09664 133.677 4.44225C133.571 4.78786 133.389 5.10239 133.146 5.36089C132.904 5.61939 132.609 5.81478 132.283 5.93156C131.957 6.04836 131.609 6.08334 131.268 6.03375L123.118 6.07925L123.143 10.721L122.516 10.7245L122.461 0.786904L131.239 0.733679ZM133.062 2.56964C133.146 2.82791 133.17 3.10302 133.135 3.37321L133.143 3.37316C133.181 3.64348 133.16 3.91943 133.079 4.17911C132.998 4.43877 132.862 4.67499 132.679 4.86898C132.497 5.06297 132.275 5.20938 132.03 5.29656C131.785 5.38375 131.524 5.40931 131.267 5.37122L123.114 5.41674L123.092 1.44169L131.243 1.39619C131.498 1.35621 131.759 1.37959 132.004 1.46448C132.249 1.54936 132.473 1.69341 132.656 1.88523C132.84 2.07706 132.979 2.31138 133.062 2.56964Z" fill="black"/>
<path d="M10.2204 1.40929L10.2228 1.90929L10.2606 1.9091L10.2978 1.90326L10.2204 1.40929ZM11.2358 1.50014L11.3992 1.02758L11.3992 1.02758L11.2358 1.50014ZM3.94047 1.44013L3.86853 1.93493L3.90554 1.94031L3.94293 1.94013L3.94047 1.44013ZM2.92612 1.54231L3.09476 2.01301L2.92612 1.54231ZM2.06246 2.11299L2.42746 2.45471L2.42748 2.45469L2.06246 2.11299ZM1.53189 3.03162L1.05422 2.88385L1.05422 2.88387L1.53189 3.03162ZM1.44651 4.10417L1.9465 4.10138L1.94631 4.06768L1.9416 4.03431L1.44651 4.10417ZM1.47242 8.74595L1.96826 8.81038L1.9726 8.77691L1.97242 8.74316L1.47242 8.74595ZM1.56984 9.81828L1.09388 9.97145L1.09388 9.97145L1.56984 9.81828ZM2.11134 10.7314L1.75035 11.0774L1.75036 11.0774L2.11134 10.7314ZM2.98237 11.2922L3.14531 10.8195L3.14531 10.8195L2.98237 11.2922ZM3.99864 11.382L3.99585 10.882L3.95796 10.8822L3.92054 10.8881L3.99864 11.382ZM10.2759 11.3469L10.3464 10.8519L10.3099 10.8467L10.2731 10.8469L10.2759 11.3469ZM11.2873 11.2427L11.118 10.7723L11.118 10.7723L11.2873 11.2427ZM12.1483 10.6728L12.5134 11.0144L12.5134 11.0144L12.1483 10.6728ZM12.6778 9.75672L13.1553 9.90494L13.1553 9.90492L12.6778 9.75672ZM12.7645 8.68713L12.2645 8.68992L12.2647 8.7231L12.2693 8.75596L12.7645 8.68713ZM12.7497 6.0371L13.2497 6.03431L13.2469 5.53431L12.7469 5.53711L12.7497 6.0371ZM6.47783 6.07211L6.47504 5.57212L5.97505 5.57491L5.97784 6.0749L6.47783 6.07211ZM6.48153 6.73462L5.98154 6.73741L5.98433 7.2374L6.48432 7.23461L6.48153 6.73462ZM12.1316 6.70308L12.6316 6.70029L12.6288 6.20029L12.1288 6.20309L12.1316 6.70308ZM12.1427 8.6906L11.6427 8.69339L11.6429 8.72703L11.6475 8.76033L12.1427 8.6906ZM12.0785 9.49493L12.5561 9.64275L12.5561 9.64275L12.0785 9.49493ZM11.6805 10.1838L11.3155 9.84209L11.3155 9.84212L11.6805 10.1838ZM11.0329 10.6118L11.2016 11.0825L11.2016 11.0825L11.0329 10.6118ZM10.2722 10.6886L10.344 10.1938L10.3069 10.1884L10.2694 10.1886L10.2722 10.6886ZM3.99497 10.7237L3.99217 10.2237L3.95469 10.2239L3.91765 10.2297L3.99497 10.7237ZM3.23346 10.6554L3.07002 11.1279L3.07002 11.1279L3.23346 10.6554ZM2.58105 10.2346L2.94223 9.88885L2.58105 10.2346ZM2.17546 9.55022L1.69949 9.70336L1.69949 9.70336L2.17546 9.55022ZM2.1023 8.74666L2.59816 8.81088L2.60248 8.77751L2.60229 8.74386L2.1023 8.74666ZM2.07639 4.10488L2.57638 4.10209L2.57619 4.06844L2.5715 4.03513L2.07639 4.10488ZM2.14057 3.30054L1.66292 3.15271L1.66292 3.15272L2.14057 3.30054ZM2.5385 2.61165L2.17348 2.26994L2.17347 2.26995L2.5385 2.61165ZM3.18617 2.18363L3.01746 1.71296L3.01745 1.71296L3.18617 2.18363ZM3.94686 2.10685L3.87504 2.60166L3.91215 2.60705L3.94965 2.60684L3.94686 2.10685ZM10.2241 2.0718L10.2269 2.5718L10.2637 2.57159L10.3001 2.56599L10.2241 2.0718ZM10.9843 2.14169L11.1486 1.66946L11.1486 1.66946L10.9843 2.14169ZM12.0397 3.24648L12.5157 3.0935L12.0397 3.24648ZM12.1128 4.04885L11.6169 3.98482L11.5436 4.55203L12.1155 4.54884L12.1128 4.04885ZM12.7439 4.04532L12.7467 4.54532L13.1836 4.54288L13.2398 4.10966L12.7439 4.04532ZM12.6466 2.97379L12.1706 3.12687L12.1706 3.12689L12.6466 2.97379ZM12.1058 2.06114L11.7446 2.4069L11.7446 2.40691L12.1058 2.06114ZM25.3861 1.32463L25.3892 1.82462L25.4266 1.82439L25.4635 1.81859L25.3861 1.32463ZM26.4016 1.41547L26.5649 0.942908L26.5649 0.942908L26.4016 1.41547ZM16.6001 1.37931L16.597 0.879315L16.0973 0.882424L16.1001 1.3821L16.6001 1.37931ZM16.6556 11.3169L16.1556 11.3197L16.1584 11.8197L16.6584 11.8169L16.6556 11.3169ZM17.2828 11.3134L17.2856 11.8134L17.7856 11.8106L17.7828 11.3106L17.2828 11.3134ZM17.2569 6.67165L17.2541 6.17166L16.7541 6.17445L16.7569 6.67444L17.2569 6.67165ZM25.413 6.62612L25.4158 7.12611L25.4533 7.1259L25.4903 7.1201L25.413 6.62612ZM26.1746 6.69441L26.0111 7.16693L26.0111 7.16693L26.1746 6.69441ZM26.827 7.11516L26.4658 7.46093L26.4658 7.46093L26.827 7.11516ZM27.2326 7.79957L27.7086 7.64647L27.7086 7.64646L27.2326 7.79957ZM27.3057 8.60314L26.8098 8.5387L26.8055 8.57218L26.8057 8.60593L27.3057 8.60314ZM27.3205 11.2532L26.8205 11.256L26.8233 11.756L27.3232 11.7532L27.3205 11.2532ZM27.9503 11.2497L27.9531 11.7496L28.4531 11.7469L28.4503 11.2469L27.9503 11.2497ZM27.9355 8.59962L27.4386 8.54459L27.4354 8.57341L27.4355 8.60241L27.9355 8.59962ZM27.7243 7.27965L27.2698 7.48804L27.2698 7.48805L27.7243 7.27965ZM26.8746 6.28599L26.597 5.87012L25.9663 6.29107L26.6017 6.70494L26.8746 6.28599ZM27.7131 5.2829L27.2563 5.07959L27.2563 5.07959L27.7131 5.2829ZM27.9096 3.96066L27.4138 3.89616L27.4057 3.95867L27.4133 4.02124L27.9096 3.96066ZM27.8123 2.88913L27.3363 3.04215L27.3363 3.04232L27.8123 2.88913ZM27.2716 1.97648L27.6328 1.63072L27.6327 1.63063L27.2716 1.97648ZM27.2067 3.1606L27.6827 3.0075L27.6827 3.0075L27.2067 3.1606ZM27.2798 3.96417L26.7839 3.89974L26.7752 3.96696L26.7847 4.03407L27.2798 3.96417ZM26.8011 2.4762L26.4399 2.82196L26.4399 2.82196L26.8011 2.4762ZM26.1487 2.05544L25.9852 2.52796L25.9852 2.52796L26.1487 2.05544ZM25.3871 1.98715L25.3899 2.48714L25.4274 2.48694L25.4644 2.48114L25.3871 1.98715ZM17.231 2.03269L17.2282 1.53269L16.7282 1.53548L16.731 2.03548L17.231 2.03269ZM17.2532 6.00774L16.7532 6.01053L16.756 6.51052L17.2559 6.50773L17.2532 6.00774ZM25.4066 5.96222L25.4793 5.46753L25.4418 5.46201L25.4038 5.46223L25.4066 5.96222ZM26.1682 5.88649L26 5.41561L26 5.41563L26.1682 5.88649ZM26.817 5.45868L27.1817 5.80074L27.1818 5.80061L26.817 5.45868ZM27.2155 4.7693L26.738 4.6212L26.7379 4.62143L27.2155 4.7693ZM34.3314 11.2126L34.3286 10.7126L34.291 10.7128L34.2539 10.7187L34.3314 11.2126ZM33.316 11.1218L33.4794 10.6492L33.4794 10.6492L33.316 11.1218ZM40.6033 11.1776L40.6752 10.6828L40.6381 10.6774L40.6005 10.6776L40.6033 11.1776ZM41.6177 11.0754L41.4491 10.6047L41.4491 10.6047L41.6177 11.0754ZM42.4814 10.5048L42.8464 10.8466L42.8464 10.8465L42.4814 10.5048ZM43.0119 9.58612L42.5343 9.43825L42.5342 9.43841L43.0119 9.58612ZM43.0973 8.51357L42.5973 8.51636L42.5975 8.55015L42.6022 8.5836L43.0973 8.51357ZM43.0713 3.87179L42.5755 3.8073L42.5712 3.8408L42.5713 3.87458L43.0713 3.87179ZM42.974 2.80026L42.498 2.95329L42.4981 2.95346L42.974 2.80026ZM42.4333 1.88761L42.7945 1.54186L42.7944 1.54177L42.4333 1.88761ZM41.5633 1.32661L41.3999 1.79917L41.3999 1.79917L41.5633 1.32661ZM40.5478 1.23576L40.5506 1.73576L40.5881 1.73555L40.6252 1.72973L40.5478 1.23576ZM34.2759 1.27078L34.2039 1.76558L34.2411 1.77098L34.2787 1.77077L34.2759 1.27078ZM33.2616 1.37295L33.093 0.902243L33.093 0.902243L33.2616 1.37295ZM32.3979 1.94364L32.0329 1.60185L32.0329 1.60194L32.3979 1.94364ZM31.8674 2.86227L32.3451 3.01014L32.3451 3.00997L31.8674 2.86227ZM31.7819 3.93482L32.2819 3.93203L32.2817 3.89834L32.277 3.86497L31.7819 3.93482ZM31.8078 8.5766L32.3037 8.64091L32.308 8.6075L32.3078 8.57381L31.8078 8.5766ZM31.9053 9.64813L32.3813 9.49509L32.3813 9.49493L31.9053 9.64813ZM32.446 10.5608L32.0848 10.9065L32.0849 10.9066L32.446 10.5608ZM32.5056 9.37667L32.9815 9.22357L32.5056 9.37667ZM32.4324 8.57311L32.9282 8.63731L32.9325 8.60395L32.9324 8.57032L32.4324 8.57311ZM32.9111 10.0611L33.2723 9.71531L33.2723 9.7153L32.9111 10.0611ZM33.5636 10.4818L33.4001 10.9544L33.4001 10.9544L33.5636 10.4818ZM34.325 10.5501L34.3222 10.0501L34.2847 10.0503L34.2477 10.0561L34.325 10.5501ZM40.5969 10.5151L40.6687 10.0203L40.6316 10.0149L40.5941 10.0151L40.5969 10.5151ZM42.0054 10.0103L41.6404 9.66858L41.6404 9.66859L42.0054 10.0103ZM42.4033 9.32141L41.9256 9.17363L41.9256 9.17364L42.4033 9.32141ZM42.4674 8.51709L41.9674 8.51988L41.9676 8.55363L41.9723 8.58705L42.4674 8.51709ZM42.4415 3.87531L41.9457 3.81088L41.9413 3.84435L41.9415 3.8781L42.4415 3.87531ZM42.3684 3.07174L42.8444 2.91864L42.8444 2.91863L42.3684 3.07174ZM41.3104 1.96658L41.4738 1.49405L41.4738 1.49405L41.3104 1.96658ZM40.5488 1.89829L40.5516 2.39828L40.5891 2.39807L40.6261 2.39227L40.5488 1.89829ZM34.2769 1.9333L34.2051 2.42812L34.2422 2.4335L34.2797 2.43329L34.2769 1.9333ZM33.5163 2.01009L33.3476 1.53942L33.3476 1.53942L33.5163 2.01009ZM32.8686 2.4381L33.2336 2.77981L33.2336 2.77981L32.8686 2.4381ZM32.4707 3.12699L31.993 2.97921L31.993 2.97922L32.4707 3.12699ZM32.4065 3.93133L32.9064 3.92854L32.9063 3.89491L32.9016 3.8616L32.4065 3.93133ZM57.6331 8.43242L57.1332 8.43521L57.1333 8.46897L57.1381 8.50239L57.6331 8.43242ZM57.5925 1.14483L57.5897 0.644836L57.0897 0.647628L57.0925 1.14762L57.5925 1.14483ZM57.5691 9.23675L57.0914 9.08896L57.0914 9.08897L57.5691 9.23675ZM57.1711 9.92563L56.8061 9.58391L56.8061 9.58392L57.1711 9.92563ZM56.5234 10.3537L56.3547 9.88299L56.3547 9.883L56.5234 10.3537ZM55.7628 10.4304L55.8346 9.93563L55.7975 9.93025L55.76 9.93046L55.7628 10.4304ZM49.4908 10.4655L49.488 9.96547L49.4505 9.96568L49.4134 9.97148L49.4908 10.4655ZM48.7294 10.3972L48.8928 9.92465L48.8928 9.92465L48.7294 10.3972ZM48.0769 9.9764L48.4381 9.63064L48.4381 9.63063L48.0769 9.9764ZM47.6713 9.292L47.1953 9.4451L47.1953 9.44511L47.6713 9.292ZM47.5982 8.48844L48.0941 8.55288L48.0984 8.51941L48.0982 8.48565L47.5982 8.48844ZM47.5576 1.20085L48.0576 1.19806L48.0548 0.698067L47.5548 0.700859L47.5576 1.20085ZM46.9302 1.20435L46.9274 0.704361L46.4275 0.707152L46.4302 1.20714L46.9302 1.20435ZM46.9709 8.49195L47.4668 8.55626L47.4711 8.52285L47.4709 8.48915L46.9709 8.49195ZM47.0684 9.56348L47.5444 9.41044L47.5443 9.41028L47.0684 9.56348ZM47.6091 10.4761L47.2479 10.8219L47.248 10.822L47.6091 10.4761ZM48.4791 11.0371L48.6425 10.5646L48.6425 10.5646L48.4791 11.0371ZM49.4945 11.128L49.4917 10.628L49.4541 10.6282L49.417 10.634L49.4945 11.128ZM55.7665 11.093L55.8385 10.5982L55.8013 10.5928L55.7637 10.593L55.7665 11.093ZM56.7808 10.9908L56.6122 10.5201L56.6121 10.5201L56.7808 10.9908ZM57.6445 10.4201L58.0094 10.7619L58.0095 10.7618L57.6445 10.4201ZM58.175 9.50147L57.6973 9.3536L57.6973 9.35376L58.175 9.50147ZM58.2605 8.42892L57.7605 8.43171L57.7607 8.4654L57.7654 8.49876L58.2605 8.42892ZM58.2198 1.14133L58.7198 1.13853L58.717 0.638543L58.217 0.641334L58.2198 1.14133ZM71.8908 1.16151L72.0541 0.688952L71.8908 1.16151ZM70.8754 1.07067L70.8785 1.57066L70.9159 1.57044L70.9529 1.56463L70.8754 1.07067ZM72.7608 1.72252L73.122 1.37677L73.1219 1.37668L72.7608 1.72252ZM73.3015 2.63517L72.8255 2.7882L72.8256 2.78837L73.3015 2.63517ZM73.399 3.7067L72.9031 3.64239L72.8944 3.70952L72.9039 3.77654L73.399 3.7067ZM73.3135 4.77924L72.8359 4.63136L72.8358 4.63153L73.3135 4.77924ZM72.783 5.69788L73.1479 6.03968L73.148 6.03958L72.783 5.69788ZM71.9193 6.26855L71.7507 5.79785L71.7507 5.79785L71.9193 6.26855ZM70.905 6.37074L70.977 5.87594L70.9398 5.87054L70.9022 5.87075L70.905 6.37074ZM62.7516 6.41626L62.7488 5.91627L62.2488 5.91906L62.2516 6.41905L62.7516 6.41626ZM62.7775 11.058L62.7803 11.558L63.2803 11.5552L63.2775 11.0552L62.7775 11.058ZM62.1501 11.0615L61.6502 11.0643L61.6529 11.5643L62.1529 11.5615L62.1501 11.0615ZM62.0947 1.12391L62.0916 0.623923L61.5919 0.626953L61.5947 1.1267L62.0947 1.12391ZM72.7717 3.7102L72.2758 3.64577L72.2021 4.21339L72.7745 4.2102L72.7717 3.7102ZM72.6986 2.90663L73.1746 2.75354L73.1746 2.75352L72.6986 2.90663ZM72.773 3.7102L73.2681 3.64026L73.207 3.20777L72.7702 3.2102L72.773 3.7102ZM72.7089 4.51493L73.1865 4.66287L73.1866 4.66264L72.7089 4.51493ZM71.6623 5.63198L71.4939 5.16119L71.4939 5.16121L71.6623 5.63198ZM70.9013 5.70823L70.9735 5.21348L70.9362 5.20803L70.8985 5.20824L70.9013 5.70823ZM62.7479 5.75375L62.2479 5.75654L62.2507 6.25654L62.7506 6.25374L62.7479 5.75375ZM62.7257 1.7787L62.7229 1.27871L62.2229 1.2815L62.2257 1.78149L62.7257 1.7787ZM70.8791 1.73318L70.8819 2.23317L70.9194 2.23296L70.9565 2.22716L70.8791 1.73318ZM71.6406 1.80147L71.4771 2.27399L71.4771 2.27399L71.6406 1.80147ZM72.293 2.22223L72.6542 1.87647L72.6542 1.87646L72.293 2.22223ZM78.5136 10.8694L78.677 10.3969L78.677 10.3969L78.5136 10.8694ZM79.529 10.9603L79.5262 10.4603L79.4887 10.4605L79.4515 10.4663L79.529 10.9603ZM77.6436 10.3084L77.2824 10.6542L77.2825 10.6543L77.6436 10.3084ZM77.1029 9.3958L77.5789 9.24278L77.5789 9.2426L77.1029 9.3958ZM77.0055 8.32427L77.0027 7.82428L76.5658 7.82672L76.5096 8.25995L77.0055 8.32427ZM77.6328 8.32077L78.1286 8.38519L78.2024 7.81758L77.63 7.82078L77.6328 8.32077ZM77.7058 9.12433L77.2299 9.27743L77.2299 9.27744L77.7058 9.12433ZM78.1114 9.80873L78.4726 9.46297L78.4726 9.46295L78.1114 9.80873ZM79.5253 10.2978L79.5225 9.7978L79.485 9.79801L79.448 9.80381L79.5253 10.2978ZM85.7973 10.2628L85.8691 9.76796L85.832 9.76257L85.7945 9.76278L85.7973 10.2628ZM87.2057 9.75796L86.8407 9.41623L86.8407 9.41625L87.2057 9.75796ZM87.6036 9.06907L88.0813 9.21685L88.0813 9.21685L87.6036 9.06907ZM87.6678 8.26475L87.172 8.20054L87.1633 8.26756L87.1727 8.33448L87.6678 8.26475ZM87.5946 7.46117L88.0706 7.30808L88.0706 7.30807L87.5946 7.46117ZM87.189 6.77677L87.5502 6.431L87.5502 6.431L87.189 6.77677ZM85.7751 6.28772L85.7779 6.78772L85.8154 6.78751L85.8525 6.7817L85.7751 6.28772ZM79.5031 6.32274L79.5003 5.82275L79.4628 5.82296L79.4256 5.82878L79.5031 6.32274ZM78.4878 6.23188L78.6511 5.75933L78.6511 5.75932L78.4878 6.23188ZM77.6177 5.67089L77.2565 6.01665L77.2566 6.01674L77.6177 5.67089ZM77.077 4.75823L77.553 4.60521L77.553 4.60502L77.077 4.75823ZM76.9796 3.68671L77.4754 3.75103L77.4841 3.68389L77.4747 3.61686L76.9796 3.68671ZM77.0651 2.61416L77.5427 2.76204L77.5428 2.76185L77.0651 2.61416ZM77.5955 1.69553L77.2306 1.35374L77.2305 1.35383L77.5955 1.69553ZM78.4592 1.12484L78.2906 0.654136L78.4592 1.12484ZM79.4735 1.02267L79.4016 1.51747L79.4388 1.52287L79.4763 1.52266L79.4735 1.02267ZM85.7456 0.987657L85.7483 1.48765L85.7858 1.48744L85.8227 1.48167L85.7456 0.987657ZM86.7605 1.07903L86.9242 0.606565L86.9241 0.606544L86.7605 1.07903ZM87.63 1.64014L87.9914 1.29457L87.9913 1.29447L87.63 1.64014ZM88.1705 2.55257L88.6465 2.39966L88.6464 2.39949L88.1705 2.55257ZM88.2677 3.62369L88.2704 4.12368L88.7073 4.12125L88.7635 3.68803L88.2677 3.62369ZM87.6405 3.62719L87.1446 3.56276L87.0709 4.13038L87.6432 4.12719L87.6405 3.62719ZM87.5674 2.82362L88.0434 2.67053L88.0434 2.67051L87.5674 2.82362ZM87.1618 2.13922L87.523 1.79346L87.523 1.79345L87.1618 2.13922ZM86.5093 1.71846L86.3459 2.19098L86.3459 2.19098L86.5093 1.71846ZM85.7479 1.65017L85.7507 2.15016L85.7882 2.14996L85.8253 2.14415L85.7479 1.65017ZM79.4759 1.68519L79.4041 2.18L79.4412 2.18539L79.4787 2.18518L79.4759 1.68519ZM78.7153 1.76197L78.884 2.23264L78.884 2.23264L78.7153 1.76197ZM78.0676 2.18999L77.7025 1.84827L77.7025 1.84828L78.0676 2.18999ZM77.6696 2.87888L78.1473 3.02666L78.1473 3.02665L77.6696 2.87888ZM77.6056 3.68322L78.1014 3.74765L78.1101 3.6804L78.1006 3.61325L77.6056 3.68322ZM77.6786 4.48678L78.1546 4.33367L78.1546 4.33366L77.6786 4.48678ZM78.0842 5.17118L78.4454 4.82541L78.4454 4.8254L78.0842 5.17118ZM78.7367 5.59195L78.5732 6.06447L78.5732 6.06447L78.7367 5.59195ZM79.4981 5.66024L79.4953 5.16025L79.4578 5.16046L79.4208 5.16625L79.4981 5.66024ZM85.7701 5.62522L85.7729 6.12522L85.8105 6.12501L85.8476 6.11919L85.7701 5.62522ZM86.7855 5.71606L86.9489 5.24351L86.9488 5.2435L86.7855 5.71606ZM87.6555 6.27707L88.0167 5.93132L88.0166 5.93123L87.6555 6.27707ZM88.1962 7.18972L87.7202 7.34275L87.7203 7.34292L88.1962 7.18972ZM88.2935 8.26125L87.7977 8.19677L87.789 8.26407L87.7985 8.33127L88.2935 8.26125ZM88.2082 9.3338L87.7305 9.18593L87.7305 9.18609L88.2082 9.3338ZM87.6777 10.2524L88.0426 10.5942L88.0427 10.5941L87.6777 10.2524ZM86.814 10.8231L86.6454 10.3524L86.6454 10.3524L86.814 10.8231ZM85.7997 10.9253L85.8717 10.4305L85.8345 10.4251L85.7969 10.4253L85.7997 10.9253ZM92.7861 6.24436L92.7833 5.74437L92.2833 5.74716L92.2861 6.24716L92.7861 6.24436ZM92.812 10.8861L92.8148 11.3861L93.3148 11.3833L93.312 10.8834L92.812 10.8861ZM102.824 6.18833L103.324 6.18554L103.321 5.68554L102.821 5.68833L102.824 6.18833ZM102.85 10.8301L102.35 10.8329L102.352 11.3329L102.852 11.3301L102.85 10.8301ZM103.477 10.8266L103.48 11.3266L103.98 11.3238L103.977 10.8238L103.477 10.8266ZM103.421 0.888977L103.921 0.886186L103.919 0.386193L103.419 0.388985L103.421 0.888977ZM102.794 0.892478L102.791 0.392486L102.291 0.395277L102.294 0.89527L102.794 0.892478ZM102.82 5.53426L102.823 6.03425L103.323 6.03146L103.32 5.53147L102.82 5.53426ZM92.7824 5.5903L92.2824 5.59309L92.2852 6.09308L92.7852 6.09029L92.7824 5.5903ZM92.7565 0.948516L93.2565 0.945725L93.2537 0.445733L92.7537 0.448524L92.7565 0.948516ZM92.1293 0.952018L92.1265 0.452026L91.6265 0.454817L91.6293 0.954809L92.1293 0.952018ZM92.1848 10.8896L91.6848 10.8924L91.6876 11.3924L92.1876 11.3896L92.1848 10.8896ZM108.842 10.6991L108.678 11.1715L108.678 11.1715L108.842 10.6991ZM109.857 10.791L109.854 10.291L109.817 10.2912L109.78 10.2969L109.857 10.791ZM107.973 10.1378L108.335 9.79233L108.334 9.79224L107.973 10.1378ZM107.433 9.22567L106.957 9.37862L106.957 9.37864L107.433 9.22567ZM107.336 8.15494L107.832 8.2193L107.836 8.18587L107.836 8.15215L107.336 8.15494ZM107.31 3.51317L107.81 3.51037L107.81 3.47659L107.805 3.44315L107.31 3.51317ZM107.395 2.44062L107.873 2.58849L107.873 2.58832L107.395 2.44062ZM107.926 1.52199L107.561 1.1802L107.561 1.18028L107.926 1.52199ZM108.789 0.951299L108.621 0.48059L108.621 0.480591L108.789 0.951299ZM109.804 0.849126L109.732 1.34393L109.769 1.34933L109.807 1.34912L109.804 0.849126ZM116.084 0.814067L116.086 1.31406L116.124 1.31385L116.161 1.30803L116.084 0.814067ZM117.099 0.904908L116.936 1.37747L117.099 0.904908ZM117.969 1.46592L118.33 1.12016L118.33 1.12007L117.969 1.46592ZM118.51 2.37857L118.034 2.53159L118.034 2.53176L118.51 2.37857ZM118.607 3.45009L118.111 3.38577L118.107 3.41919L118.107 3.45289L118.607 3.45009ZM118.633 8.09187L118.133 8.09466L118.133 8.12836L118.138 8.16173L118.633 8.09187ZM118.548 9.16442L118.07 9.01656L118.07 9.01672L118.548 9.16442ZM118.017 10.0831L118.382 10.4249L118.382 10.4248L118.017 10.0831ZM117.153 10.6537L116.985 10.183L116.985 10.183L117.153 10.6537ZM116.139 10.7559L116.211 10.2611L116.174 10.2557L116.136 10.2559L116.139 10.7559ZM107.96 8.15146L108.456 8.2159L108.46 8.18299L108.46 8.1498L107.96 8.15146ZM108.033 8.95502L108.509 8.80192L108.509 8.80192L108.033 8.95502ZM107.945 3.51384L108.445 3.51218L108.445 3.47798L108.44 3.44412L107.945 3.51384ZM108.009 2.7095L107.531 2.56171L107.531 2.56173L108.009 2.7095ZM108.407 2.02061L108.042 1.6789L108.042 1.6789L108.407 2.02061ZM109.055 1.5926L108.886 1.12193L108.886 1.12193L109.055 1.5926ZM109.815 1.51581L109.744 2.01062L109.781 2.01601L109.818 2.0158L109.815 1.51581ZM116.087 1.4808L116.09 1.98079L116.127 1.98058L116.164 1.97481L116.087 1.4808ZM116.848 1.54898L117.011 1.07641L117.011 1.07638L116.848 1.54898ZM117.499 1.96863L117.139 2.31473L117.139 2.31473L117.499 1.96863ZM117.905 2.6514L117.43 2.80524L117.43 2.80545L117.905 2.6514ZM117.98 3.4536L117.484 3.39078L117.48 3.42345L117.48 3.45639L117.98 3.4536ZM118.006 8.09538L117.506 8.09817L117.506 8.1318L117.511 8.1651L118.006 8.09538ZM117.942 8.8997L117.464 8.75191L117.464 8.75192L117.942 8.8997ZM117.544 9.58859L117.179 9.24687L117.179 9.24688L117.544 9.58859ZM116.135 10.0934L116.207 9.59858L116.17 9.59321L116.133 9.59341L116.135 10.0934ZM109.853 10.1285L109.85 9.62849L109.813 9.6287L109.776 9.63449L109.853 10.1285ZM108.439 9.63942L108.8 9.29366L108.8 9.29364L108.439 9.63942ZM132.254 0.824521L132.091 1.29708L132.091 1.29708L132.254 0.824521ZM131.239 0.733679L131.242 1.23367L131.279 1.23344L131.316 1.22764L131.239 0.733679ZM133.124 1.38553L132.763 1.73137L132.763 1.73149L133.124 1.38553ZM133.665 2.29818L133.188 2.45004L133.189 2.45171L133.665 2.29818ZM133.762 3.36971L133.266 3.30647L133.258 3.37252L133.267 3.43848L133.762 3.36971ZM133.677 4.44225L133.199 4.29404L133.199 4.29572L133.677 4.44225ZM133.146 5.36089L132.782 5.01898L132.781 5.01909L133.146 5.36089ZM132.283 5.93156L132.114 5.46085L132.114 5.46086L132.283 5.93156ZM131.268 6.03375L131.34 5.53895L131.303 5.53354L131.266 5.53375L131.268 6.03375ZM123.118 6.07925L123.115 5.57926L122.615 5.58205L122.618 6.08204L123.118 6.07925ZM123.143 10.721L123.146 11.221L123.646 11.2182L123.643 10.7182L123.143 10.721ZM122.516 10.7245L122.016 10.7273L122.019 11.2273L122.519 11.2245L122.516 10.7245ZM122.461 0.786904L122.458 0.286914L121.958 0.289944L121.961 0.789696L122.461 0.786904ZM133.135 3.37321L132.639 3.30998L132.567 3.87639L133.138 3.8732L133.135 3.37321ZM133.062 2.56964L132.586 2.72275L132.586 2.72364L133.062 2.56964ZM133.143 3.37316L133.639 3.30453L133.578 2.87073L133.141 2.87317L133.143 3.37316ZM133.079 4.17911L132.601 4.03049L132.601 4.03091L133.079 4.17911ZM132.679 4.86898L133.044 5.21124L133.044 5.21124L132.679 4.86898ZM132.03 5.29656L132.197 5.76767L132.197 5.76764L132.03 5.29656ZM131.267 5.37122L131.341 4.87666L131.303 4.87102L131.265 4.87123L131.267 5.37122ZM123.114 5.41674L122.614 5.41953L122.617 5.91953L123.117 5.91673L123.114 5.41674ZM123.092 1.44169L123.089 0.9417L122.589 0.944491L122.592 1.44448L123.092 1.44169ZM131.243 1.39619L131.245 1.89618L131.283 1.89597L131.32 1.89017L131.243 1.39619ZM132.004 1.46448L132.167 0.991959L132.167 0.991955L132.004 1.46448ZM132.656 1.88523L133.018 1.53948L133.018 1.53947L132.656 1.88523ZM10.2978 1.90326C10.5572 1.86259 10.8221 1.88616 11.0724 1.97269L11.3992 1.02758C10.995 0.88784 10.5646 0.849199 10.1429 0.915332L10.2978 1.90326ZM3.94293 1.94013L10.2228 1.90929L10.2179 0.909301L3.93802 0.94014L3.94293 1.94013ZM3.09476 2.01301C3.34409 1.92368 3.60879 1.89717 3.86853 1.93493L4.01242 0.945337C3.58998 0.883917 3.16011 0.92736 2.75749 1.0716L3.09476 2.01301ZM2.42748 2.45469C2.61647 2.25281 2.8453 2.10238 3.09476 2.01301L2.75749 1.0716C2.35499 1.2158 1.99244 1.45615 1.69743 1.77129L2.42748 2.45469ZM2.00955 3.17939C2.0946 2.90449 2.23836 2.65669 2.42746 2.45471L1.69745 1.77127C1.40253 2.08629 1.18302 2.46752 1.05422 2.88385L2.00955 3.17939ZM1.9416 4.03431C1.90109 3.74721 1.92451 3.45432 2.00956 3.17938L1.05422 2.88387C0.925449 3.30016 0.890407 3.7417 0.951414 4.17404L1.9416 4.03431ZM1.97242 8.74316L1.9465 4.10138L0.946517 4.10697L0.972431 8.74874L1.97242 8.74316ZM2.0458 9.66512C1.95758 9.39096 1.93087 9.09812 1.96826 8.81038L0.976591 8.68153C0.920287 9.11485 0.960292 9.55633 1.09388 9.97145L2.0458 9.66512ZM2.47234 10.3855C2.28075 10.1855 2.13401 9.93923 2.0458 9.66512L1.09388 9.97145C1.22748 10.3866 1.45156 10.7656 1.75035 11.0774L2.47234 10.3855ZM3.14531 10.8195C2.8946 10.7331 2.66381 10.5853 2.47233 10.3855L1.75036 11.0774C2.04925 11.3893 2.41492 11.6255 2.81943 11.7649L3.14531 10.8195ZM3.92054 10.8881C3.66107 10.9291 3.39586 10.9058 3.14531 10.8195L2.81942 11.7649C3.22406 11.9044 3.65479 11.9426 4.07674 11.8758L3.92054 10.8881ZM10.2731 10.8469L3.99585 10.882L4.00143 11.882L10.2787 11.8469L10.2731 10.8469ZM11.118 10.7723C10.8694 10.8618 10.6055 10.8888 10.3464 10.8519L10.2054 11.8419C10.6268 11.902 11.0554 11.8577 11.4567 11.7132L11.118 10.7723ZM11.7832 10.3311C11.5947 10.5325 11.3666 10.6828 11.118 10.7723L11.4567 11.7132C11.8579 11.5687 12.2192 11.3287 12.5134 11.0144L11.7832 10.3311ZM12.2002 9.6085C12.1152 9.88258 11.9717 10.1296 11.7832 10.3311L12.5134 11.0144C12.8074 10.7001 13.0265 10.32 13.1553 9.90494L12.2002 9.6085ZM12.2693 8.75596C12.3091 9.04238 12.2853 9.33441 12.2002 9.60852L13.1553 9.90492C13.2841 9.48987 13.3197 9.04962 13.2598 8.6183L12.2693 8.75596ZM12.2497 6.03989L12.2645 8.68992L13.2645 8.68434L13.2497 6.03431L12.2497 6.03989ZM6.48063 6.5721L12.7525 6.53709L12.7469 5.53711L6.47504 5.57212L6.48063 6.5721ZM6.98153 6.73183L6.97783 6.06932L5.97784 6.0749L5.98154 6.73741L6.98153 6.73183ZM12.1288 6.20309L6.47874 6.23463L6.48432 7.23461L12.1344 7.20307L12.1288 6.20309ZM12.6427 8.68781L12.6316 6.70029L11.6316 6.70587L11.6427 8.69339L12.6427 8.68781ZM12.5561 9.64275C12.6582 9.31292 12.686 8.96324 12.6378 8.62088L11.6475 8.76033C11.6753 8.95752 11.6592 9.1586 11.6008 9.3471L12.5561 9.64275ZM12.0455 10.5255C12.2799 10.2752 12.454 9.97262 12.5561 9.64275L11.6008 9.3471C11.5425 9.53558 11.4441 9.70475 11.3155 9.84209L12.0455 10.5255ZM11.2016 11.0825C11.5225 10.9675 11.8111 10.776 12.0456 10.5255L11.3155 9.84212C11.187 9.97937 11.0321 10.081 10.8642 10.1412L11.2016 11.0825ZM10.2004 11.1835C10.5375 11.2324 10.8805 11.1976 11.2016 11.0825L10.8642 10.1412C10.6963 10.2013 10.5185 10.2191 10.344 10.1938L10.2004 11.1835ZM3.99776 11.2237L10.275 11.1886L10.2694 10.1886L3.99217 10.2237L3.99776 11.2237ZM3.07002 11.1279C3.39237 11.2394 3.73573 11.2703 4.07228 11.2177L3.91765 10.2297C3.74345 10.257 3.56539 10.2411 3.3969 10.1829L3.07002 11.1279ZM2.21988 10.5804C2.45714 10.8282 2.74782 11.0165 3.07002 11.1279L3.39691 10.1829C3.22829 10.1245 3.07225 10.0247 2.94223 9.88885L2.21988 10.5804ZM1.69949 9.70336C1.80526 10.0321 1.98273 10.3327 2.21988 10.5804L2.94223 9.88885C2.81212 9.75295 2.71186 9.58488 2.65143 9.39707L1.69949 9.70336ZM1.60644 8.68244C1.56203 9.02535 1.59374 9.3747 1.69949 9.70336L2.65143 9.39707C2.59098 9.20921 2.57259 9.00833 2.59816 8.81088L1.60644 8.68244ZM1.57639 4.10767L1.60231 8.74945L2.60229 8.74386L2.57638 4.10209L1.57639 4.10767ZM1.66292 3.15272C1.56085 3.48255 1.53304 3.83223 1.58128 4.17463L2.5715 4.03513C2.54372 3.83797 2.55987 3.6369 2.61822 3.44836L1.66292 3.15272ZM2.17347 2.26995C1.93913 2.5203 1.76501 2.82283 1.66292 3.15271L2.61822 3.44836C2.67654 3.2599 2.77492 3.09073 2.90352 2.95335L2.17347 2.26995ZM3.01745 1.71296C2.69654 1.82799 2.40797 2.01946 2.17348 2.26994L2.90351 2.95336C3.032 2.81611 3.18691 2.71452 3.35488 2.65431L3.01745 1.71296ZM4.01868 1.61203C3.68153 1.5631 3.33853 1.59788 3.01746 1.71296L3.35487 2.65431C3.52272 2.59415 3.70058 2.57634 3.87504 2.60166L4.01868 1.61203ZM10.2213 1.57181L3.94407 1.60686L3.94965 2.60684L10.2269 2.5718L10.2213 1.57181ZM11.1486 1.66946C10.827 1.55755 10.4842 1.52589 10.148 1.57762L10.3001 2.56599C10.4741 2.53922 10.6518 2.55541 10.82 2.61392L11.1486 1.66946ZM11.9967 2.21741C11.7601 1.96971 11.4701 1.78133 11.1486 1.66946L10.82 2.61392C10.9883 2.67247 11.1439 2.77242 11.2736 2.90817L11.9967 2.21741ZM12.5157 3.0935C12.4102 2.76525 12.2332 2.46501 11.9967 2.21741L11.2736 2.90817C11.4034 3.04404 11.5034 3.21192 11.5637 3.39947L12.5157 3.0935ZM12.6086 4.11287C12.6528 3.7705 12.6212 3.42171 12.5157 3.0935L11.5637 3.39947C11.624 3.58704 11.6423 3.78761 11.6169 3.98482L12.6086 4.11287ZM12.7411 3.54533L12.11 3.54885L12.1155 4.54884L12.7467 4.54532L12.7411 3.54533ZM12.1706 3.12689C12.2587 3.40086 12.2854 3.69346 12.2481 3.98099L13.2398 4.10966C13.296 3.67666 13.256 3.23554 13.1226 2.8207L12.1706 3.12689ZM11.7446 2.40691C11.936 2.60678 12.0825 2.85295 12.1706 3.12687L13.1226 2.82072C12.9891 2.40583 12.7654 2.02707 12.467 1.71538L11.7446 2.40691ZM11.0724 1.97269C11.3229 2.05927 11.5534 2.20714 11.7446 2.4069L12.467 1.71539C12.1685 1.40356 11.8032 1.16727 11.3992 1.02758L11.0724 1.97269ZM25.4635 1.81859C25.7229 1.77793 25.9879 1.80149 26.2382 1.88803L26.5649 0.942908C26.1607 0.803173 25.7304 0.764535 25.3086 0.830662L25.4635 1.81859ZM16.6032 1.8793L25.3892 1.82462L25.383 0.824638L16.597 0.879315L16.6032 1.8793ZM17.1556 11.3141L17.1001 1.37651L16.1001 1.3821L16.1556 11.3197L17.1556 11.3141ZM17.28 10.8134L16.6528 10.8169L16.6584 11.8169L17.2856 11.8134L17.28 10.8134ZM16.7569 6.67444L16.7828 11.3162L17.7828 11.3106L17.7569 6.66886L16.7569 6.67444ZM25.4102 6.12613L17.2541 6.17166L17.2597 7.17164L25.4158 7.12611L25.4102 6.12613ZM26.338 6.22189C26.0157 6.11038 25.6723 6.07945 25.3357 6.13213L25.4903 7.1201C25.6646 7.09283 25.8427 7.10867 26.0111 7.16693L26.338 6.22189ZM27.1882 6.7694C26.9509 6.52151 26.6601 6.3333 26.338 6.22188L26.0111 7.16693C26.1797 7.22528 26.3359 7.32516 26.4658 7.46093L27.1882 6.7694ZM27.7086 7.64646C27.6028 7.31771 27.4253 7.01712 27.1882 6.7694L26.4658 7.46093C26.596 7.59686 26.6962 7.7649 26.7566 7.95267L27.7086 7.64646ZM27.8015 8.66757C27.8461 8.32445 27.8143 7.97505 27.7086 7.64647L26.7566 7.95266C26.8171 8.14063 26.8355 8.34145 26.8098 8.5387L27.8015 8.66757ZM27.8204 11.2504L27.8057 8.60035L26.8057 8.60593L26.8205 11.256L27.8204 11.2504ZM27.9475 10.7497L27.3177 10.7532L27.3232 11.7532L27.9531 11.7496L27.9475 10.7497ZM27.4355 8.60241L27.4503 11.2524L28.4503 11.2469L28.4355 8.59683L27.4355 8.60241ZM27.2698 7.48805C27.4196 7.81489 27.4787 8.1817 27.4386 8.54459L28.4325 8.65466C28.4924 8.11316 28.4047 7.56411 28.1788 7.07126L27.2698 7.48805ZM26.6017 6.70494C26.887 6.89082 27.12 7.16144 27.2698 7.48804L28.1788 7.07126C27.9527 6.57814 27.5962 6.15931 27.1475 5.86704L26.6017 6.70494ZM27.2563 5.07959C27.1102 5.40783 26.8803 5.68104 26.597 5.87012L27.1522 6.70186C27.5975 6.40459 27.9493 5.98181 28.1699 5.48621L27.2563 5.07959ZM27.4133 4.02124C27.4575 4.38364 27.4025 4.7511 27.2563 5.07959L28.1699 5.48621C28.3904 4.99087 28.4719 4.44086 28.4059 3.90008L27.4133 4.02124ZM27.3363 3.04232C27.4245 3.31624 27.4512 3.60875 27.4138 3.89616L28.4054 4.02515C28.4618 3.59203 28.4218 3.15082 28.2882 2.73593L27.3363 3.04232ZM26.9104 2.32223C27.1017 2.52208 27.2482 2.76824 27.3363 3.04215L28.2883 2.7361C28.1549 2.3212 27.9312 1.94244 27.6328 1.63072L26.9104 2.32223ZM26.2382 1.88803C26.4886 1.97459 26.7191 2.12244 26.9105 2.32232L27.6327 1.63063C27.3342 1.31892 26.9691 1.08262 26.5649 0.942908L26.2382 1.88803ZM26.7307 3.3137C26.7912 3.50167 26.8096 3.70249 26.7839 3.89974L27.7756 4.02861C27.8202 3.68548 27.7884 3.33608 27.6827 3.0075L26.7307 3.3137ZM26.4399 2.82196C26.5701 2.95789 26.6703 3.12593 26.7307 3.3137L27.6827 3.0075C27.5769 2.67874 27.3994 2.37815 27.1623 2.13043L26.4399 2.82196ZM25.9852 2.52796C26.1538 2.58631 26.31 2.6862 26.4399 2.82196L27.1623 2.13043C26.925 1.88255 26.6342 1.69434 26.3121 1.58292L25.9852 2.52796ZM25.4644 2.48114C25.6387 2.45386 25.8168 2.4697 25.9852 2.52796L26.3121 1.58292C25.9898 1.47141 25.6464 1.44048 25.3098 1.49317L25.4644 2.48114ZM17.2338 2.53268L25.3899 2.48714L25.3843 1.48716L17.2282 1.53269L17.2338 2.53268ZM17.7532 6.00494L17.731 2.02989L16.731 2.03548L16.7532 6.01053L17.7532 6.00494ZM25.4038 5.46223L17.2504 5.50774L17.2559 6.50773L25.4094 6.46221L25.4038 5.46223ZM26 5.41563C25.8321 5.47559 25.654 5.49318 25.4793 5.46753L25.334 6.45691C25.6713 6.50646 26.0149 6.47219 26.3364 6.35736L26 5.41563ZM26.4523 5.11663C26.3234 5.25401 26.1682 5.35556 26 5.41561L26.3363 6.35738C26.6577 6.24261 26.9467 6.05121 27.1817 5.80074L26.4523 5.11663ZM26.7379 4.62143C26.6795 4.81002 26.581 4.97932 26.4522 5.11676L27.1818 5.80061C27.4165 5.5502 27.5909 5.24743 27.6932 4.91717L26.7379 4.62143ZM26.7847 4.03407C26.8126 4.23153 26.7964 4.43274 26.738 4.6212L27.6931 4.9174C27.7956 4.58704 27.8232 4.2369 27.7749 3.89427L26.7847 4.03407ZM34.2539 10.7187C33.9947 10.7593 33.7298 10.7358 33.4794 10.6492L33.1527 11.5943C33.5569 11.7341 33.9872 11.7727 34.4089 11.7066L34.2539 10.7187ZM40.6005 10.6776L34.3286 10.7126L34.3342 11.7126L40.6061 11.6776L40.6005 10.6776ZM41.4491 10.6047C41.1997 10.6941 40.9351 10.7206 40.6752 10.6828L40.5314 11.6724C40.9539 11.7338 41.3837 11.6904 41.7863 11.5461L41.4491 10.6047ZM42.1165 10.163C41.9273 10.3649 41.6985 10.5154 41.4491 10.6047L41.7863 11.5461C42.1889 11.4019 42.5513 11.1616 42.8464 10.8466L42.1165 10.163ZM42.5342 9.43841C42.4492 9.71329 42.3055 9.96108 42.1164 10.1631L42.8464 10.8465C43.1413 10.5314 43.3608 10.1502 43.4896 9.73383L42.5342 9.43841ZM42.6022 8.5836C42.6428 8.87057 42.6194 9.16336 42.5343 9.43825L43.4895 9.73399C43.6184 9.31764 43.6535 8.87601 43.5923 8.44354L42.6022 8.5836ZM42.5713 3.87458L42.5973 8.51636L43.5972 8.51078L43.5713 3.869L42.5713 3.87458ZM42.4981 2.95346C42.5862 3.22738 42.6129 3.51989 42.5755 3.8073L43.5672 3.93629C43.6235 3.50317 43.5835 3.06195 43.45 2.64707L42.4981 2.95346ZM42.0721 2.23337C42.2634 2.43322 42.4099 2.67938 42.498 2.95329L43.45 2.64724C43.3166 2.23234 43.0929 1.85357 42.7945 1.54186L42.0721 2.23337ZM41.3999 1.79917C41.6503 1.88573 41.8808 2.03358 42.0722 2.23345L42.7944 1.54177C42.4959 1.23006 42.1308 0.993758 41.7266 0.854043L41.3999 1.79917ZM40.6252 1.72973C40.8846 1.68906 41.1496 1.71263 41.3999 1.79917L41.7266 0.854044C41.3224 0.714309 40.8921 0.675671 40.4703 0.741798L40.6252 1.72973ZM34.2787 1.77077L40.5506 1.73576L40.545 0.735772L34.2731 0.770787L34.2787 1.77077ZM33.4302 1.84366C33.6796 1.75432 33.9443 1.72781 34.2039 1.76558L34.3478 0.775983C33.9254 0.714558 33.4956 0.758009 33.093 0.902243L33.4302 1.84366ZM32.7628 2.28543C32.952 2.08342 33.1808 1.93301 33.4302 1.84366L33.093 0.902243C32.6904 1.04646 32.328 1.28682 32.0329 1.60185L32.7628 2.28543ZM32.3451 3.00997C32.4301 2.73509 32.5738 2.48731 32.7629 2.28534L32.0329 1.60194C31.738 1.91696 31.5185 2.29821 31.3897 2.71456L32.3451 3.00997ZM32.277 3.86497C32.2365 3.57788 32.26 3.28502 32.3451 3.01014L31.3898 2.7144C31.2609 3.13075 31.2258 3.57232 31.2868 4.00466L32.277 3.86497ZM32.3078 8.57381L32.2819 3.93203L31.2819 3.93761L31.3078 8.57939L32.3078 8.57381ZM32.3813 9.49493C32.2931 9.22102 32.2664 8.92844 32.3037 8.64091L31.312 8.51228C31.2558 8.94528 31.2958 9.38643 31.4293 9.80132L32.3813 9.49493ZM32.8072 10.215C32.6159 10.0152 32.4694 9.769 32.3813 9.49509L31.4293 9.80116C31.5627 10.216 31.7864 10.5948 32.0848 10.9065L32.8072 10.215ZM33.4794 10.6492C33.229 10.5626 32.9985 10.4148 32.8071 10.2149L32.0849 10.9066C32.3834 11.2183 32.7485 11.4546 33.1527 11.5943L33.4794 10.6492ZM32.9815 9.22357C32.9211 9.03562 32.9027 8.83471 32.9282 8.63731L31.9365 8.50891C31.8921 8.85188 31.9239 9.2012 32.0296 9.52977L32.9815 9.22357ZM33.2723 9.7153C33.1422 9.57939 33.0419 9.41134 32.9815 9.22357L32.0296 9.52977C32.1353 9.85852 32.3128 10.1591 32.55 10.4068L33.2723 9.7153ZM33.7271 10.0093C33.5584 9.95097 33.4023 9.85108 33.2723 9.71531L32.55 10.4068C32.7873 10.6547 33.0781 10.8429 33.4001 10.9544L33.7271 10.0093ZM34.2477 10.0561C34.0736 10.0834 33.8955 10.0676 33.7271 10.0093L33.4001 10.9544C33.7225 11.0659 34.0659 11.0968 34.4024 11.0441L34.2477 10.0561ZM40.5941 10.0151L34.3222 10.0501L34.3278 11.0501L40.5997 11.0151L40.5941 10.0151ZM41.1889 9.96766C41.0212 10.0278 40.8433 10.0456 40.6687 10.0203L40.5252 11.0099C40.8623 11.0588 41.2053 11.0241 41.5264 10.909L41.1889 9.96766ZM41.6404 9.66859C41.5119 9.80581 41.3569 9.90744 41.1889 9.96766L41.5264 10.909C41.8472 10.794 42.1359 10.6025 42.3704 10.352L41.6404 9.66859ZM41.9256 9.17364C41.8673 9.36207 41.769 9.53123 41.6404 9.66858L42.3704 10.352C42.6048 10.1017 42.7789 9.7991 42.881 9.46919L41.9256 9.17364ZM41.9723 8.58705C42.0002 8.78401 41.984 8.98502 41.9256 9.17363L42.881 9.4692C42.983 9.13946 43.0109 8.78972 42.9625 8.44713L41.9723 8.58705ZM41.9415 3.8781L41.9674 8.51988L42.9674 8.5143L42.9415 3.87252L41.9415 3.8781ZM41.8924 3.22484C41.9529 3.4128 41.9713 3.61362 41.9457 3.81088L42.9373 3.93974C42.9819 3.59662 42.9501 3.24722 42.8444 2.91864L41.8924 3.22484ZM41.6017 2.7331C41.7318 2.86903 41.832 3.03707 41.8924 3.22484L42.8444 2.91863C42.7387 2.58988 42.5612 2.28929 42.324 2.04157L41.6017 2.7331ZM41.1469 2.4391C41.3156 2.49745 41.4717 2.59733 41.6017 2.7331L42.324 2.04157C42.0867 1.79368 41.7959 1.60547 41.4738 1.49405L41.1469 2.4391ZM40.6261 2.39227C40.8004 2.365 40.9785 2.38084 41.1469 2.4391L41.4738 1.49405C41.1515 1.38255 40.8081 1.35162 40.4715 1.4043L40.6261 2.39227ZM34.2797 2.43329L40.5516 2.39828L40.546 1.3983L34.2741 1.43331L34.2797 2.43329ZM33.685 2.48076C33.8528 2.42061 34.0307 2.4028 34.2051 2.42812L34.3488 1.43849C34.0117 1.38955 33.6686 1.42433 33.3476 1.53942L33.685 2.48076ZM33.2336 2.77981C33.362 2.64261 33.517 2.54099 33.685 2.48076L33.3476 1.53942C33.0268 1.65443 32.7381 1.84587 32.5036 2.0964L33.2336 2.77981ZM32.9483 3.27477C33.0066 3.08634 33.105 2.91719 33.2336 2.77981L32.5036 2.09639C32.2692 2.34674 32.0951 2.6493 31.993 2.97921L32.9483 3.27477ZM32.9016 3.8616C32.8738 3.6645 32.89 3.4634 32.9483 3.27477L31.993 2.97922C31.891 3.30896 31.8631 3.65861 31.9113 4.00106L32.9016 3.8616ZM32.9324 8.57032L32.9064 3.92854L31.9065 3.93412L31.9324 8.5759L32.9324 8.57032ZM58.1331 8.42963L58.0925 1.14204L57.0925 1.14762L57.1332 8.43521L58.1331 8.42963ZM58.0467 9.38453C58.1487 9.0548 58.1766 8.70506 58.1282 8.36245L57.1381 8.50239C57.1659 8.69934 57.1497 8.90035 57.0914 9.08896L58.0467 9.38453ZM57.5361 10.2674C57.7705 10.017 57.9447 9.71443 58.0467 9.38452L57.0914 9.08897C57.0331 9.27741 56.9347 9.44656 56.8061 9.58391L57.5361 10.2674ZM56.6922 10.8243C57.013 10.7093 57.3016 10.5179 57.5362 10.2673L56.8061 9.58392C56.6777 9.72114 56.5227 9.82277 56.3547 9.88299L56.6922 10.8243ZM55.691 10.9253C56.0281 10.9742 56.3711 10.9394 56.6922 10.8243L56.3547 9.883C56.1869 9.94314 56.009 9.96095 55.8346 9.93563L55.691 10.9253ZM49.4936 10.9655L55.7656 10.9304L55.76 9.93046L49.488 9.96547L49.4936 10.9655ZM48.5659 10.8697C48.8882 10.9812 49.2316 11.0121 49.5681 10.9594L49.4134 9.97148C49.2393 9.99874 49.0612 9.98292 48.8928 9.92465L48.5659 10.8697ZM47.7157 10.3222C47.953 10.57 48.2438 10.7583 48.5659 10.8697L48.8928 9.92465C48.7242 9.86631 48.568 9.76642 48.4381 9.63064L47.7157 10.3222ZM47.1953 9.44511C47.3011 9.77385 47.4786 10.0745 47.7157 10.3222L48.4381 9.63063C48.3079 9.49472 48.2077 9.32667 48.1473 9.1389L47.1953 9.44511ZM47.1024 8.42401C47.0578 8.76713 47.0896 9.11654 47.1953 9.4451L48.1473 9.1389C48.0868 8.95095 48.0684 8.75013 48.0941 8.55288L47.1024 8.42401ZM47.0576 1.20364L47.0983 8.49124L48.0982 8.48565L48.0576 1.19806L47.0576 1.20364ZM46.933 1.70435L47.5604 1.70084L47.5548 0.700859L46.9274 0.704361L46.933 1.70435ZM47.4709 8.48915L47.4302 1.20156L46.4302 1.20714L46.4709 8.49474L47.4709 8.48915ZM47.5443 9.41028C47.4562 9.13636 47.4295 8.84379 47.4668 8.55626L46.4751 8.42763C46.4189 8.86063 46.4589 9.30178 46.5924 9.71667L47.5443 9.41028ZM47.9703 10.1304C47.7789 9.93052 47.6325 9.68435 47.5444 9.41044L46.5924 9.71651C46.7258 10.1314 46.9495 10.5102 47.2479 10.8219L47.9703 10.1304ZM48.6425 10.5646C48.3921 10.478 48.1616 10.3301 47.9702 10.1303L47.248 10.822C47.5465 11.1337 47.9116 11.37 48.3158 11.5097L48.6425 10.5646ZM49.417 10.634C49.1578 10.6747 48.8928 10.6511 48.6425 10.5646L48.3157 11.5097C48.72 11.6494 49.1502 11.6881 49.5719 11.6219L49.417 10.634ZM55.7637 10.593L49.4917 10.628L49.4973 11.628L55.7693 11.593L55.7637 10.593ZM56.6121 10.5201C56.3628 10.6094 56.0981 10.6359 55.8385 10.5982L55.6946 11.5878C56.117 11.6492 56.5468 11.6057 56.9494 11.4615L56.6121 10.5201ZM57.2796 10.0783C57.0904 10.2803 56.8616 10.4307 56.6122 10.5201L56.9494 11.4615C57.352 11.3173 57.7144 11.0769 58.0094 10.7619L57.2796 10.0783ZM57.6973 9.35376C57.6123 9.62863 57.4686 9.87643 57.2795 10.0784L58.0095 10.7618C58.3044 10.4468 58.5239 10.0655 58.6527 9.64918L57.6973 9.35376ZM57.7654 8.49876C57.8059 8.78586 57.7824 9.07871 57.6973 9.3536L58.6526 9.64934C58.7815 9.23299 58.8166 8.79142 58.7556 8.35908L57.7654 8.49876ZM57.7198 1.14412L57.7605 8.43171L58.7605 8.42613L58.7198 1.13853L57.7198 1.14412ZM57.5953 1.64482L58.2226 1.64132L58.217 0.641334L57.5897 0.644836L57.5953 1.64482ZM72.0541 0.688952C71.6499 0.549223 71.2197 0.510574 70.798 0.576711L70.9529 1.56463C71.2121 1.52398 71.4771 1.54753 71.7274 1.63408L72.0541 0.688952ZM73.1219 1.37668C72.8234 1.06497 72.4583 0.828668 72.0541 0.688952L71.7274 1.63408C71.9778 1.72064 72.2083 1.86848 72.3997 2.06836L73.1219 1.37668ZM73.7775 2.48214C73.6441 2.06725 73.4204 1.68848 73.122 1.37677L72.3996 2.06828C72.591 2.26813 72.7374 2.51429 72.8255 2.7882L73.7775 2.48214ZM73.8948 3.77101C73.951 3.33802 73.911 2.89687 73.7775 2.48197L72.8256 2.78837C72.9137 3.06228 72.9404 3.35485 72.9031 3.64239L73.8948 3.77101ZM73.7911 4.92712C73.92 4.51077 73.9551 4.06919 73.8941 3.63686L72.9039 3.77654C72.9444 4.06365 72.9209 4.3565 72.8359 4.63136L73.7911 4.92712ZM73.148 6.03958C73.4429 5.72455 73.6624 5.34329 73.7912 4.92694L72.8358 4.63153C72.7508 4.90642 72.6071 5.15421 72.418 5.35618L73.148 6.03958ZM72.0879 6.73926C72.4905 6.59504 72.8529 6.35468 73.1479 6.03968L72.4181 5.35608C72.2289 5.55808 72.0001 5.70849 71.7507 5.79785L72.0879 6.73926ZM70.8331 6.86554C71.2555 6.92696 71.6853 6.88351 72.0879 6.73926L71.7507 5.79785C71.5013 5.8872 71.2367 5.91371 70.977 5.87594L70.8331 6.86554ZM62.7543 6.91625L70.9078 6.87073L70.9022 5.87075L62.7488 5.91627L62.7543 6.91625ZM63.2775 11.0552L63.2515 6.41347L62.2516 6.41905L62.2775 11.0608L63.2775 11.0552ZM62.1529 11.5615L62.7803 11.558L62.7747 10.558L62.1474 10.5615L62.1529 11.5615ZM61.5947 1.1267L61.6502 11.0643L62.6501 11.0587L62.5947 1.12112L61.5947 1.1267ZM70.8724 0.570682L62.0916 0.623923L62.0977 1.6239L70.8785 1.57066L70.8724 0.570682ZM73.2675 3.77464C73.3121 3.43152 73.2803 3.08212 73.1746 2.75354L72.2226 3.05972C72.2831 3.24769 72.3015 3.44851 72.2758 3.64577L73.2675 3.77464ZM72.7702 3.2102L72.7689 3.21021L72.7745 4.2102L72.7758 4.21019L72.7702 3.2102ZM73.1866 4.66264C73.2886 4.33282 73.3165 3.98296 73.2681 3.64026L72.2779 3.78013C72.3058 3.97724 72.2896 4.17845 72.2312 4.36722L73.1866 4.66264ZM72.6755 5.54588C72.91 5.2955 73.0843 4.99287 73.1865 4.66287L72.2313 4.36699C72.1729 4.55559 72.0744 4.72484 71.9457 4.86224L72.6755 5.54588ZM71.8308 6.10276C72.1519 5.98787 72.4408 5.79644 72.6755 5.54588L71.9457 4.86224C71.8171 4.99947 71.6621 5.10104 71.4939 5.16119L71.8308 6.10276ZM70.8291 6.20299C71.1663 6.25221 71.5095 6.21771 71.8308 6.10274L71.4939 5.16121C71.3261 5.22126 71.1481 5.23896 70.9735 5.21348L70.8291 6.20299ZM62.7506 6.25374L70.9041 6.20822L70.8985 5.20824L62.7451 5.25376L62.7506 6.25374ZM62.2257 1.78149L62.2479 5.75654L63.2478 5.75096L63.2257 1.77591L62.2257 1.78149ZM70.8763 1.23319L62.7229 1.27871L62.7285 2.27869L70.8819 2.23317L70.8763 1.23319ZM71.804 1.32895C71.4817 1.21745 71.1383 1.1865 70.8018 1.2392L70.9565 2.22716C71.1306 2.1999 71.3087 2.21572 71.4771 2.27399L71.804 1.32895ZM72.6542 1.87646C72.4169 1.62858 72.1261 1.44037 71.804 1.32895L71.4771 2.27399C71.6458 2.33234 71.8019 2.43223 71.9318 2.568L72.6542 1.87646ZM73.1746 2.75352C73.0688 2.42477 72.8913 2.12418 72.6542 1.87647L71.9318 2.56799C72.062 2.70392 72.1622 2.87197 72.2226 3.05974L73.1746 2.75352ZM78.3503 11.342C78.7545 11.4817 79.1848 11.5204 79.6065 11.4543L79.4515 10.4663C79.1923 10.507 78.9274 10.4834 78.677 10.3969L78.3503 11.342ZM77.2825 10.6543C77.5811 10.966 77.9461 11.2023 78.3503 11.342L78.677 10.3969C78.4266 10.3103 78.1961 10.1625 78.0047 9.9626L77.2825 10.6543ZM76.6269 9.54882C76.7603 9.96371 76.984 10.3425 77.2824 10.6542L78.0048 9.96269C77.8135 9.76284 77.667 9.51667 77.5789 9.24278L76.6269 9.54882ZM76.5096 8.25995C76.4534 8.69295 76.4934 9.13411 76.627 9.549L77.5789 9.2426C77.4907 8.96868 77.464 8.67611 77.5013 8.38859L76.5096 8.25995ZM77.63 7.82078L77.0027 7.82428L77.0082 8.82426L77.6356 8.82076L77.63 7.82078ZM78.1818 8.97123C78.1214 8.78328 78.103 8.58245 78.1286 8.38519L77.1369 8.25634C77.0924 8.59946 77.1242 8.94886 77.2299 9.27743L78.1818 8.97123ZM78.4726 9.46295C78.3425 9.32705 78.2422 9.15901 78.1818 8.97121L77.2299 9.27744C77.3356 9.60617 77.5131 9.90678 77.7503 10.1545L78.4726 9.46295ZM78.9274 9.75698C78.7587 9.69863 78.6026 9.59874 78.4726 9.46297L77.7502 10.1545C77.9875 10.4024 78.2783 10.5906 78.6004 10.702L78.9274 9.75698ZM79.448 9.80381C79.2738 9.83107 79.0958 9.81524 78.9274 9.75698L78.6004 10.702C78.9227 10.8135 79.2661 10.8444 79.6026 10.7918L79.448 9.80381ZM85.7945 9.76278L79.5225 9.7978L79.5281 10.7978L85.8001 10.7628L85.7945 9.76278ZM86.3892 9.71532C86.2215 9.77546 86.0436 9.79327 85.8691 9.76796L85.7255 10.7576C86.0626 10.8065 86.4056 10.7718 86.7267 10.6567L86.3892 9.71532ZM86.8407 9.41625C86.7122 9.55347 86.5572 9.65509 86.3892 9.71532L86.7267 10.6567C87.0475 10.5416 87.3362 10.3502 87.5707 10.0997L86.8407 9.41625ZM87.1259 8.92129C87.0676 9.10973 86.9693 9.27889 86.8407 9.41623L87.5707 10.0997C87.8051 9.84933 87.9792 9.54675 88.0813 9.21685L87.1259 8.92129ZM87.1727 8.33448C87.2005 8.53158 87.1843 8.73267 87.1259 8.92129L88.0813 9.21685C88.1833 8.88712 88.2112 8.53747 88.1629 8.19501L87.1727 8.33448ZM87.1186 7.61427C87.1791 7.80224 87.1975 8.00315 87.172 8.20054L88.1637 8.32895C88.2081 7.98597 88.1763 7.63665 88.0706 7.30808L87.1186 7.61427ZM86.8279 7.12254C86.958 7.25847 87.0582 7.42651 87.1186 7.61427L88.0706 7.30807C87.9649 6.97932 87.7874 6.67872 87.5502 6.431L86.8279 7.12254ZM86.3731 6.82854C86.5418 6.88688 86.6979 6.98678 86.8279 7.12254L87.5502 6.431C87.3129 6.18314 87.0221 5.99492 86.7 5.88349L86.3731 6.82854ZM85.8525 6.7817C86.0266 6.75444 86.2047 6.77027 86.3731 6.82854L86.7 5.88349C86.3777 5.77199 86.0343 5.74104 85.6978 5.79374L85.8525 6.7817ZM79.5059 6.82273L85.7779 6.78772L85.7724 5.78773L79.5003 5.82275L79.5059 6.82273ZM78.3244 6.70444C78.7286 6.84419 79.1589 6.88284 79.5806 6.8167L79.4256 5.82878C79.1664 5.86944 78.9015 5.84588 78.6511 5.75933L78.3244 6.70444ZM77.2566 6.01674C77.5552 6.32843 77.9202 6.56473 78.3244 6.70445L78.6511 5.75932C78.4007 5.67276 78.1703 5.52491 77.9788 5.32504L77.2566 6.01674ZM76.601 4.91125C76.7344 5.32615 76.9581 5.70493 77.2565 6.01665L77.9789 5.32514C77.7876 5.12529 77.6411 4.87912 77.553 4.60521L76.601 4.91125ZM76.4837 3.62239C76.4276 4.05539 76.4675 4.49655 76.6011 4.91143L77.553 4.60502C77.4648 4.33112 77.4381 4.03856 77.4754 3.75103L76.4837 3.62239ZM76.5874 2.46628C76.4585 2.88264 76.4235 3.32422 76.4845 3.75657L77.4747 3.61686C77.4342 3.32977 77.4576 3.03692 77.5427 2.76204L76.5874 2.46628ZM77.2305 1.35383C76.9356 1.66885 76.7161 2.0501 76.5874 2.46647L77.5428 2.76185C77.6277 2.48699 77.7715 2.23921 77.9605 2.03723L77.2305 1.35383ZM78.2906 0.654136C77.888 0.798355 77.5256 1.03872 77.2306 1.35374L77.9605 2.03732C78.1497 1.83531 78.3784 1.6849 78.6279 1.59555L78.2906 0.654136ZM79.5455 0.527876C79.1231 0.466451 78.6933 0.509902 78.2906 0.654136L78.6279 1.59555C78.8773 1.50622 79.1419 1.47971 79.4016 1.51747L79.5455 0.527876ZM85.7428 0.487664L79.4707 0.52268L79.4763 1.52266L85.7483 1.48765L85.7428 0.487664ZM86.9241 0.606544C86.5201 0.466685 86.09 0.427802 85.6684 0.493646L85.8227 1.48167C86.0818 1.44119 86.3467 1.46488 86.597 1.55153L86.9241 0.606544ZM87.9913 1.29447C87.6929 0.982673 87.3279 0.746382 86.9242 0.606565L86.5969 1.5515C86.8472 1.63819 87.0777 1.78611 87.2688 1.98582L87.9913 1.29447ZM88.6464 2.39949C88.5131 1.98473 88.2894 1.60614 87.9914 1.29457L87.2687 1.98572C87.4599 2.18566 87.6064 2.43185 87.6945 2.70565L88.6464 2.39949ZM88.7635 3.68803C88.8197 3.25514 88.7797 2.81422 88.6465 2.39966L87.6944 2.70548C87.7824 2.97944 87.8091 3.27198 87.7718 3.55936L88.7635 3.68803ZM87.6432 4.12719L88.2704 4.12368L88.2649 3.1237L87.6377 3.1272L87.6432 4.12719ZM87.0914 2.97671C87.1519 3.16468 87.1703 3.36551 87.1446 3.56276L88.1363 3.69163C88.1809 3.34851 88.1491 2.99911 88.0434 2.67053L87.0914 2.97671ZM86.8006 2.48498C86.9308 2.62091 87.031 2.78896 87.0914 2.97674L88.0434 2.67051C87.9376 2.34176 87.7601 2.04118 87.523 1.79346L86.8006 2.48498ZM86.3459 2.19098C86.5145 2.24934 86.6707 2.34922 86.8006 2.48499L87.523 1.79345C87.2857 1.54557 86.9949 1.35736 86.6728 1.24594L86.3459 2.19098ZM85.8253 2.14415C85.9994 2.11689 86.1774 2.13271 86.3459 2.19098L86.6728 1.24594C86.3505 1.13444 86.0071 1.10349 85.6706 1.15619L85.8253 2.14415ZM79.4787 2.18518L85.7507 2.15016L85.7451 1.15018L79.4731 1.1852L79.4787 2.18518ZM78.884 2.23264C79.0518 2.17249 79.2297 2.15468 79.4041 2.18L79.5477 1.19037C79.2106 1.14144 78.8676 1.17621 78.5465 1.29131L78.884 2.23264ZM78.4326 2.5317C78.561 2.39449 78.716 2.29287 78.884 2.23264L78.5465 1.29131C78.2258 1.40632 77.9371 1.59776 77.7025 1.84827L78.4326 2.5317ZM78.1473 3.02665C78.2056 2.83823 78.304 2.66907 78.4326 2.5317L77.7025 1.84828C77.4682 2.09863 77.2941 2.40119 77.192 2.7311L78.1473 3.02665ZM78.1006 3.61325C78.0728 3.41629 78.089 3.21528 78.1473 3.02666L77.192 2.7311C77.09 3.06084 77.0621 3.41058 77.1105 3.75319L78.1006 3.61325ZM78.1546 4.33366C78.0941 4.14572 78.0758 3.94491 78.1014 3.74765L77.1097 3.61878C77.0651 3.9619 77.0969 4.31131 77.2026 4.63989L78.1546 4.33366ZM78.4454 4.8254C78.3152 4.6895 78.215 4.52145 78.1546 4.33367L77.2026 4.63988C77.3084 4.96862 77.4859 5.26923 77.723 5.51695L78.4454 4.8254ZM78.9001 5.11943C78.7315 5.06108 78.5754 4.96119 78.4454 4.82541L77.723 5.51695C77.9603 5.76482 78.2511 5.95305 78.5732 6.06447L78.9001 5.11943ZM79.4208 5.16625C79.2466 5.19351 79.0686 5.17769 78.9001 5.11943L78.5732 6.06447C78.8955 6.17598 79.2389 6.2069 79.5754 6.15422L79.4208 5.16625ZM85.7673 5.12523L79.4953 5.16025L79.5009 6.16023L85.7729 6.12522L85.7673 5.12523ZM86.9488 5.2435C86.5446 5.10377 86.1144 5.06512 85.6926 5.13126L85.8476 6.11919C86.1068 6.07853 86.3718 6.10208 86.6221 6.18863L86.9488 5.2435ZM88.0166 5.93123C87.7181 5.61951 87.353 5.38323 86.9489 5.24351L86.6221 6.18862C86.8725 6.2752 87.103 6.42305 87.2944 6.62291L88.0166 5.93123ZM88.6722 7.03669C88.5388 6.6218 88.3151 6.24303 88.0167 5.93132L87.2943 6.62283C87.4856 6.82268 87.6321 7.06884 87.7202 7.34275L88.6722 7.03669ZM88.7894 8.32574C88.8457 7.89263 88.8057 7.45142 88.6722 7.03652L87.7203 7.34292C87.8084 7.61683 87.8351 7.90934 87.7977 8.19677L88.7894 8.32574ZM88.6858 9.48168C88.8147 9.06532 88.8498 8.62368 88.7886 8.19123L87.7985 8.33127C87.8391 8.61826 87.8156 8.91105 87.7305 9.18593L88.6858 9.48168ZM88.0427 10.5941C88.3376 10.2791 88.5571 9.89784 88.6859 9.48151L87.7305 9.18609C87.6455 9.46097 87.5018 9.70876 87.3127 9.91073L88.0427 10.5941ZM86.9826 11.2938C87.3852 11.1496 87.7476 10.9092 88.0426 10.5942L87.3128 9.91063C87.1236 10.1126 86.8948 10.263 86.6454 10.3524L86.9826 11.2938ZM85.7278 11.4201C86.1502 11.4815 86.58 11.4381 86.9826 11.2938L86.6454 10.3524C86.396 10.4417 86.1313 10.4683 85.8717 10.4305L85.7278 11.4201ZM79.5318 11.4603L85.8025 11.4253L85.7969 10.4253L79.5262 10.4603L79.5318 11.4603ZM92.2861 6.24716L92.312 10.8889L93.312 10.8834L93.2861 6.24157L92.2861 6.24716ZM102.821 5.68833L92.7833 5.74437L92.7889 6.74436L102.827 6.68832L102.821 5.68833ZM103.35 10.8273L103.324 6.18554L102.324 6.19112L102.35 10.8329L103.35 10.8273ZM103.474 10.3266L102.847 10.3301L102.852 11.3301L103.48 11.3266L103.474 10.3266ZM102.921 0.891768L102.977 10.8294L103.977 10.8238L103.921 0.886186L102.921 0.891768ZM102.797 1.39247L103.424 1.38897L103.419 0.388985L102.791 0.392486L102.797 1.39247ZM103.32 5.53147L103.294 0.889687L102.294 0.89527L102.32 5.53705L103.32 5.53147ZM92.7852 6.09029L102.823 6.03425L102.817 5.03426L92.7796 5.0903L92.7852 6.09029ZM92.2565 0.951308L92.2824 5.59309L93.2824 5.5875L93.2565 0.945725L92.2565 0.951308ZM92.1321 1.45201L92.7593 1.44851L92.7537 0.448524L92.1265 0.452026L92.1321 1.45201ZM92.6848 10.8869L92.6293 0.949226L91.6293 0.954809L91.6848 10.8924L92.6848 10.8869ZM92.8092 10.3862L92.182 10.3897L92.1876 11.3896L92.8148 11.3861L92.8092 10.3862ZM108.678 11.1715C109.082 11.3115 109.512 11.3506 109.933 11.2851L109.78 10.2969C109.521 10.3372 109.256 10.3134 109.006 10.2266L108.678 11.1715ZM107.612 10.4833C107.91 10.7951 108.275 11.0315 108.678 11.1715L109.006 10.2267C108.756 10.1399 108.525 9.99199 108.335 9.79233L107.612 10.4833ZM106.957 9.37864C107.09 9.79331 107.314 10.1718 107.612 10.4834L108.334 9.79224C108.143 9.59237 107.997 9.34634 107.909 9.07271L106.957 9.37864ZM106.84 8.09058C106.784 8.52337 106.824 8.96415 106.957 9.37862L107.909 9.07272C107.821 8.79887 107.794 8.50651 107.832 8.2193L106.84 8.09058ZM106.81 3.51596L106.836 8.15774L107.836 8.15215L107.81 3.51037L106.81 3.51596ZM106.918 2.29274C106.789 2.7091 106.754 3.15073 106.815 3.58318L107.805 3.44315C107.764 3.15616 107.788 2.86337 107.873 2.58849L106.918 2.29274ZM107.561 1.18028C107.266 1.49531 107.046 1.87656 106.918 2.29291L107.873 2.58832C107.958 2.31344 108.102 2.06566 108.291 1.86369L107.561 1.18028ZM108.621 0.480591C108.218 0.62481 107.856 0.86517 107.561 1.1802L108.291 1.86377C108.48 1.66177 108.709 1.51136 108.958 1.42201L108.621 0.480591ZM109.876 0.354325C109.453 0.292912 109.023 0.336351 108.621 0.48059L108.958 1.42201C109.207 1.33268 109.472 1.30615 109.732 1.34393L109.876 0.354325ZM116.081 0.314075L109.801 0.349133L109.807 1.34912L116.086 1.31406L116.081 0.314075ZM117.262 0.432346C116.858 0.292612 116.428 0.253973 116.006 0.320101L116.161 1.30803C116.42 1.26736 116.685 1.29093 116.936 1.37747L117.262 0.432346ZM118.33 1.12007C118.032 0.808363 117.667 0.572062 117.262 0.432346L116.936 1.37747C117.186 1.46403 117.417 1.61188 117.608 1.81176L118.33 1.12007ZM118.986 2.22554C118.852 1.81064 118.629 1.43187 118.33 1.12016L117.608 1.81167C117.799 2.01152 117.946 2.25769 118.034 2.53159L118.986 2.22554ZM119.103 3.51442C119.159 3.08141 119.119 2.64026 118.986 2.22538L118.034 2.53176C118.122 2.80568 118.149 3.09825 118.111 3.38577L119.103 3.51442ZM119.133 8.08908L119.107 3.4473L118.107 3.45289L118.133 8.09466L119.133 8.08908ZM119.025 9.31229C119.154 8.89594 119.189 8.45437 119.128 8.02202L118.138 8.16173C118.179 8.44882 118.155 8.74167 118.07 9.01656L119.025 9.31229ZM118.382 10.4248C118.677 10.1097 118.897 9.72847 119.025 9.31213L118.07 9.01672C117.985 9.29158 117.841 9.53938 117.652 9.74135L118.382 10.4248ZM117.322 11.1244C117.725 10.9802 118.087 10.7399 118.382 10.4249L117.652 9.74126C117.463 9.94325 117.234 10.0937 116.985 10.183L117.322 11.1244ZM116.067 11.2507C116.49 11.3121 116.919 11.2687 117.322 11.1244L116.985 10.183C116.735 10.2724 116.471 10.2989 116.211 10.2611L116.067 11.2507ZM109.859 11.291L116.142 11.2559L116.136 10.2559L109.854 10.291L109.859 11.291ZM107.464 8.08702C107.42 8.43015 107.452 8.77956 107.557 9.10812L108.509 8.80192C108.449 8.61396 108.43 8.41314 108.456 8.2159L107.464 8.08702ZM107.445 3.5155L107.46 8.15312L108.46 8.1498L108.445 3.51218L107.445 3.5155ZM107.531 2.56173C107.429 2.89147 107.402 3.24112 107.45 3.58356L108.44 3.44412C108.412 3.247 108.428 3.0459 108.487 2.85727L107.531 2.56173ZM108.042 1.6789C107.808 1.92925 107.634 2.2318 107.531 2.56171L108.487 2.85729C108.545 2.66885 108.643 2.4997 108.772 2.36232L108.042 1.6789ZM108.886 1.12193C108.565 1.23694 108.277 1.42838 108.042 1.6789L108.772 2.36232C108.9 2.22511 109.055 2.1235 109.223 2.06326L108.886 1.12193ZM109.887 1.021C109.55 0.972059 109.207 1.00684 108.886 1.12193L109.223 2.06326C109.391 2.00312 109.569 1.98531 109.744 2.01062L109.887 1.021ZM116.084 0.980803L109.813 1.01582L109.818 2.0158L116.09 1.98079L116.084 0.980803ZM117.011 1.07638C116.689 0.965186 116.346 0.934299 116.01 0.986782L116.164 1.97481C116.338 1.94764 116.516 1.96345 116.685 2.02158L117.011 1.07638ZM117.86 1.62252C117.623 1.37526 117.333 1.18754 117.011 1.07641L116.684 2.02155C116.853 2.07974 117.009 2.17935 117.139 2.31473L117.86 1.62252ZM118.381 2.49756C118.275 2.1694 118.097 1.86955 117.86 1.62252L117.139 2.31473C117.269 2.45035 117.369 2.61797 117.43 2.80524L118.381 2.49756ZM118.476 3.51642C118.519 3.17415 118.487 2.82545 118.381 2.49734L117.43 2.80545C117.49 2.99276 117.509 3.19332 117.484 3.39078L118.476 3.51642ZM118.506 8.09258L118.48 3.45081L117.48 3.45639L117.506 8.09817L118.506 8.09258ZM118.419 9.04749C118.521 8.71775 118.549 8.36809 118.501 8.02565L117.511 8.1651C117.539 8.36222 117.522 8.56331 117.464 8.75191L118.419 9.04749ZM117.909 9.93031C118.143 9.67996 118.317 9.37738 118.419 9.04748L117.464 8.75192C117.406 8.94036 117.307 9.10952 117.179 9.24687L117.909 9.93031ZM117.065 10.4873C117.386 10.3723 117.674 10.1808 117.909 9.9303L117.179 9.24688C117.05 9.3841 116.895 9.48573 116.727 9.54595L117.065 10.4873ZM116.064 10.5882C116.401 10.6371 116.744 10.6024 117.065 10.4873L116.727 9.54595C116.56 9.60608 116.382 9.62391 116.207 9.59858L116.064 10.5882ZM109.856 10.6285L116.138 10.5934L116.133 9.59341L109.85 9.62849L109.856 10.6285ZM108.928 10.5327C109.25 10.6442 109.594 10.6751 109.93 10.6225L109.776 9.63449C109.601 9.66176 109.423 9.64593 109.255 9.58767L108.928 10.5327ZM108.078 9.98518C108.315 10.2331 108.606 10.4213 108.928 10.5327L109.255 9.58767C109.086 9.52932 108.93 9.42943 108.8 9.29366L108.078 9.98518ZM107.557 9.10812C107.663 9.43686 107.841 9.73748 108.078 9.9852L108.8 9.29364C108.67 9.15774 108.57 8.98969 108.509 8.80192L107.557 9.10812ZM132.418 0.35196C132.013 0.212229 131.583 0.17358 131.161 0.239718L131.316 1.22764C131.576 1.18698 131.84 1.21054 132.091 1.29708L132.418 0.35196ZM133.485 1.03968C133.187 0.727978 132.822 0.491675 132.417 0.351957L132.091 1.29708C132.341 1.38364 132.572 1.53149 132.763 1.73137L133.485 1.03968ZM134.141 2.14632C134.008 1.73021 133.784 1.35112 133.485 1.03957L132.763 1.73149C132.955 1.9315 133.101 2.17734 133.188 2.45004L134.141 2.14632ZM134.258 3.43294C134.313 3.00129 134.275 2.56034 134.14 2.14465L133.189 2.45171C133.277 2.72482 133.303 3.01761 133.266 3.30647L134.258 3.43294ZM134.154 4.59045C134.284 4.17331 134.318 3.73195 134.258 3.30094L133.267 3.43848C133.307 3.72691 133.284 4.01997 133.199 4.29404L134.154 4.59045ZM133.511 5.70279C133.806 5.38793 134.027 5.00634 134.155 4.58878L133.199 4.29572C133.115 4.56938 132.971 4.81685 132.782 5.01898L133.511 5.70279ZM132.451 6.40227C132.854 6.25805 133.216 6.01769 133.511 5.70269L132.781 5.01909C132.592 5.22109 132.363 5.3715 132.114 5.46085L132.451 6.40227ZM131.196 6.52854C131.619 6.58997 132.049 6.54652 132.451 6.40226L132.114 5.46086C131.865 5.5502 131.6 5.57671 131.34 5.53895L131.196 6.52854ZM123.12 6.57924L131.271 6.53374L131.266 5.53375L123.115 5.57926L123.12 6.57924ZM123.643 10.7182L123.618 6.07646L122.618 6.08204L122.643 10.7238L123.643 10.7182ZM122.519 11.2245L123.146 11.221L123.141 10.221L122.514 10.2245L122.519 11.2245ZM121.961 0.789696L122.016 10.7273L123.016 10.7217L122.961 0.784113L121.961 0.789696ZM131.236 0.233689L122.458 0.286914L122.464 1.2869L131.242 1.23367L131.236 0.233689ZM133.631 3.43643C133.675 3.09528 133.645 2.74588 133.538 2.41564L132.586 2.72364C132.647 2.90993 132.665 3.11077 132.639 3.30998L133.631 3.43643ZM133.141 2.87317L133.133 2.87322L133.138 3.8732L133.146 3.87316L133.141 2.87317ZM133.556 4.32773C133.66 3.99581 133.686 3.64558 133.639 3.30453L132.648 3.4418C132.676 3.64138 132.66 3.84304 132.601 4.03049L133.556 4.32773ZM133.044 5.21124C133.279 4.96061 133.454 4.65758 133.556 4.3273L132.601 4.03091C132.543 4.21997 132.444 4.38938 132.315 4.52671L133.044 5.21124ZM132.197 5.76764C132.519 5.65317 132.809 5.46186 133.044 5.21124L132.315 4.52671C132.186 4.66408 132.03 4.76559 131.862 4.82549L132.197 5.76764ZM131.194 5.86579C131.531 5.91598 131.875 5.88217 132.197 5.76767L131.862 4.82546C131.694 4.88533 131.516 4.90263 131.341 4.87666L131.194 5.86579ZM123.117 5.91673L131.27 5.87122L131.265 4.87123L123.111 4.91675L123.117 5.91673ZM122.592 1.44448L122.614 5.41953L123.614 5.41395L123.592 1.4389L122.592 1.44448ZM131.24 0.896196L123.089 0.9417L123.094 1.94168L131.245 1.89618L131.24 0.896196ZM132.167 0.991955C131.845 0.880454 131.502 0.849508 131.165 0.902208L131.32 1.89017C131.494 1.8629 131.672 1.87873 131.84 1.937L132.167 0.991955ZM133.018 1.53947C132.78 1.29158 132.489 1.10338 132.167 0.991959L131.84 1.937C132.009 1.99535 132.165 2.09524 132.295 2.231L133.018 1.53947ZM133.538 2.41652C133.432 2.08778 133.255 1.78719 133.018 1.53948L132.295 2.23099C132.425 2.36692 132.526 2.53497 132.586 2.72275L133.538 2.41652Z" fill="black"/>
</svg>
