<svg width="28" height="26" viewBox="0 0 28 26" fill="none" xmlns="http://www.w3.org/2000/svg">
<path d="M17.8497 3.04327C16.0646 1.26044 13.6925 0.186831 11.175 0.022194C8.65744 -0.142443 6.16581 0.613105 4.1637 2.14826C2.16159 3.68341 0.785341 5.89362 0.291034 8.36765C-0.203273 10.8417 0.218022 13.411 1.47653 15.5977L0 20.9863L5.5156 19.5382C7.04085 20.3698 8.75059 20.8047 10.4878 20.8031H10.4921C13.2597 20.803 15.9155 19.7105 17.8821 17.7632C19.8487 15.8158 20.9672 13.1709 20.9945 10.4035C20.98 9.03011 20.6948 7.67312 20.1551 6.41016C19.6155 5.1472 18.8321 4.00307 17.8497 3.04327ZM10.4921 19.051C8.94183 19.0525 7.41978 18.6364 6.08583 17.8466L5.77307 17.6608L2.50552 18.517L3.37381 15.3281L3.16733 14.9998C2.47591 13.8605 2.05662 12.5772 1.94206 11.2495C1.82749 9.92177 2.02075 8.58554 2.5068 7.3447C2.99285 6.10387 3.75858 4.99188 4.74444 4.09522C5.73031 3.19857 6.90972 2.54142 8.19096 2.17489C9.4722 1.80836 10.8207 1.74233 12.1316 1.98193C13.4426 2.22153 14.6805 2.76031 15.7493 3.55636C16.818 4.3524 17.6887 5.38426 18.2937 6.57167C18.8986 7.75909 19.2215 9.07005 19.2372 10.4026C19.2122 12.7053 18.2797 14.9051 16.6424 16.5244C15.005 18.1436 12.7949 19.0515 10.4921 19.051ZM15.2344 12.5712C14.9752 12.4398 13.6974 11.8117 13.4581 11.7279C13.2188 11.6441 13.046 11.5966 12.8723 11.8592C12.6987 12.1219 12.2019 12.7025 12.0472 12.8805C11.8926 13.0584 11.7423 13.0774 11.4848 12.9461C9.98594 12.3491 8.73612 11.2578 7.9425 9.8531C7.67554 9.39347 8.20947 9.4263 8.70626 8.43359C8.74008 8.36178 8.75565 8.28272 8.75159 8.20344C8.74751 8.12416 8.72393 8.04712 8.68293 7.97914C8.61727 7.84782 8.09715 6.56827 7.88116 6.04816C7.67035 5.54188 7.45436 5.61618 7.29539 5.60322C7.13642 5.59026 6.97226 5.59371 6.7986 5.59371C6.66746 5.59767 6.53851 5.62837 6.41966 5.68393C6.30081 5.7395 6.19456 5.81875 6.10743 5.91684C5.81384 6.19571 5.58143 6.53256 5.42497 6.90603C5.2685 7.2795 5.19139 7.68142 5.19853 8.08628C5.2844 9.06629 5.6523 10.0004 6.25776 10.7758C7.37399 12.447 8.90471 13.8 10.7003 14.7026C12.3496 15.4145 12.9967 15.4758 13.821 15.354C14.1833 15.2812 14.5265 15.1337 14.8288 14.921C15.131 14.7083 15.3857 14.435 15.5766 14.1185C15.7464 13.7296 15.7986 13.2996 15.7269 12.8813C15.6656 12.7673 15.4928 12.7016 15.2344 12.5746V12.5712Z" fill="black" fill-opacity="0.8"/>
<path d="M26.9992 24.6164L20.8252 22.5584C19.5559 23.1979 18.1547 23.5319 16.7334 23.5338H16.7093C15.4198 23.5324 14.1448 23.2606 12.9668 22.7361C11.7888 22.2115 10.7339 21.4458 9.87012 20.4883C10.1008 20.5047 10.3409 20.5134 10.5854 20.5134C13.2196 20.5104 15.745 19.4626 17.6077 17.6C19.4704 15.7373 20.5181 13.2119 20.5211 10.5777C20.5225 8.76103 20.0248 6.97891 19.0825 5.42578C19.6846 5.58729 20.2687 5.81022 20.8252 6.09104C22.3548 6.85516 23.6413 8.03032 24.5404 9.48472C25.4399 10.9383 25.9167 12.6136 25.9175 14.323C25.9191 15.753 25.5849 17.1634 24.942 18.4407L27 24.6138L26.9992 24.6164Z" stroke="black" stroke-opacity="0.8" stroke-width="2" stroke-linecap="round" stroke-linejoin="round"/>
</svg>
