<svg width="26" height="26" viewBox="0 0 26 26" fill="none" xmlns="http://www.w3.org/2000/svg">
<path fill-rule="evenodd" clip-rule="evenodd" d="M15.5234 21.6671C15.4508 21.6671 15.3761 21.6639 15.3013 21.6563C14.348 21.5621 13.6005 20.8893 13.3947 19.9414L10.4881 6.51673L7.49483 13.4306C7.32258 13.8271 6.93149 14.0838 6.50033 14.0838H3.25033C2.65124 14.0838 2.16699 13.5985 2.16699 13.0005C2.16699 12.4014 2.65124 11.9171 3.25033 11.9171H5.78966L8.50449 5.64573C8.88907 4.76173 9.73624 4.24715 10.6993 4.34356C11.6527 4.43781 12.4002 5.11056 12.606 6.05848L15.5126 19.4831L18.5058 12.5693C18.6781 12.1728 19.0681 11.9171 19.5003 11.9171H22.7503C23.3494 11.9171 23.8337 12.4014 23.8337 13.0005C23.8337 13.5985 23.3494 14.0838 22.7503 14.0838H20.211L17.4962 20.3541C17.1419 21.1699 16.3825 21.6671 15.5234 21.6671" fill="#A08BC8"/>
</svg>
