<svg width="21" height="17" viewBox="0 0 21 17" fill="none" xmlns="http://www.w3.org/2000/svg">
<path d="M19.9928 3.93695L17.8425 0.497575C17.7466 0.345649 17.614 0.220388 17.4568 0.133406C17.2996 0.046424 17.123 0.000537052 16.9434 0L3.53311 0C3.35297 4.67468e-05 3.17578 0.0457003 3.01805 0.132705C2.86033 0.21971 2.72719 0.345233 2.63107 0.497575L0.478792 3.93695C0.2128 4.34595 0.0519864 4.81434 0.0106488 5.30047C-0.0306889 5.78661 0.04873 6.27542 0.241845 6.72347C0.43496 7.17151 0.735787 7.56489 1.11758 7.86865C1.49938 8.1724 1.95031 8.37712 2.43029 8.46459C2.5811 8.48463 2.73306 8.49467 2.88519 8.49466C3.34802 8.49486 3.80564 8.39704 4.22793 8.20763C4.65022 8.01821 5.0276 7.74151 5.33524 7.39572C5.64297 7.74123 6.02032 8.01773 6.44249 8.20706C6.86466 8.39639 7.32211 8.49427 7.7848 8.49427C8.24748 8.49427 8.70493 8.39639 9.12711 8.20706C9.54928 8.01773 9.92662 7.74123 10.2344 7.39572C10.5421 7.74123 10.9194 8.01773 11.3416 8.20706C11.7638 8.39639 12.2212 8.49427 12.6839 8.49427C13.1466 8.49427 13.6041 8.39639 14.0262 8.20706C14.4484 8.01773 14.8257 7.74123 15.1335 7.39572C15.4415 7.74098 15.819 8.01733 16.2412 8.20669C16.6634 8.39606 17.1208 8.49419 17.5835 8.49466C17.7357 8.49479 17.8876 8.48474 18.0384 8.46459C18.519 8.37818 18.9708 8.17414 19.3534 7.87067C19.736 7.56719 20.0375 7.17374 20.231 6.7254C20.4245 6.27706 20.5041 5.78778 20.4625 5.30123C20.4209 4.81468 20.2596 4.34598 19.9928 3.93695ZM17.5864 9.56255C17.2561 9.55909 16.9273 9.51677 16.6068 9.43646V12.7488H3.86482V9.43355C3.54405 9.51223 3.21543 9.55453 2.88519 9.55964C2.68537 9.55973 2.48576 9.54644 2.28771 9.51987C2.10388 9.49228 1.9221 9.45242 1.74358 9.40057V15.9331C1.74281 16.0734 1.76988 16.2125 1.82323 16.3423C1.87657 16.4721 1.95513 16.59 2.05436 16.6892C2.15358 16.7884 2.27151 16.867 2.4013 16.9203C2.53109 16.9737 2.67018 17.0008 2.81051 17H17.6766C17.817 17.0008 17.9561 16.9737 18.0858 16.9203C18.2156 16.867 18.3336 16.7884 18.4328 16.6892C18.532 16.59 18.6106 16.4721 18.6639 16.3423C18.7173 16.2125 18.7443 16.0734 18.7436 15.9331V9.40057C18.5658 9.4552 18.3838 9.49511 18.1994 9.51987C17.9975 9.54655 17.794 9.55984 17.5903 9.55964L17.5864 9.56255Z" fill="white"/>
</svg>
