<svg width="369" height="54" viewBox="0 0 369 54" fill="none" xmlns="http://www.w3.org/2000/svg">
<g filter="url(#filter0_d_9157_9905)">
<rect x="7" y="6" width="355" height="40" rx="5" fill="#D3DEDC"/>
</g>
<path d="M23.858 30V22.245H29.083V23.356H25.222V25.501H28.83V26.623H25.222V28.878H29.083V30H23.858ZM32.5813 30.11C32.0973 30.11 31.6719 29.9963 31.3053 29.769C30.9386 29.5343 30.6526 29.2007 30.4473 28.768C30.2419 28.3353 30.1393 27.8183 30.1393 27.217C30.1393 26.6157 30.2419 26.1023 30.4473 25.677C30.6526 25.2443 30.9386 24.9143 31.3053 24.687C31.6719 24.4523 32.0973 24.335 32.5813 24.335C33.0506 24.335 33.4613 24.4523 33.8133 24.687C34.1726 24.9143 34.4109 25.2223 34.5283 25.611H34.4073L34.5283 24.445H35.8483C35.8263 24.6723 35.8043 24.9033 35.7823 25.138C35.7676 25.3727 35.7603 25.6037 35.7603 25.831V30H34.3963L34.3853 28.856H34.5173C34.3999 29.2373 34.1616 29.5417 33.8023 29.769C33.4429 29.9963 33.0359 30.11 32.5813 30.11ZM32.9663 29.054C33.3989 29.054 33.7473 28.9037 34.0113 28.603C34.2753 28.295 34.4073 27.833 34.4073 27.217C34.4073 26.601 34.2753 26.1427 34.0113 25.842C33.7473 25.5413 33.3989 25.391 32.9663 25.391C32.5336 25.391 32.1853 25.5413 31.9213 25.842C31.6573 26.1427 31.5253 26.601 31.5253 27.217C31.5253 27.833 31.6536 28.295 31.9103 28.603C32.1743 28.9037 32.5263 29.054 32.9663 29.054ZM37.4466 30V25.864C37.4466 25.6293 37.4392 25.391 37.4246 25.149C37.4172 24.907 37.3989 24.6723 37.3696 24.445H38.7006L38.8546 25.963H38.6346C38.7079 25.5963 38.8289 25.292 38.9976 25.05C39.1736 24.808 39.3862 24.6283 39.6356 24.511C39.8849 24.3937 40.1562 24.335 40.4496 24.335C40.5816 24.335 40.6879 24.3423 40.7686 24.357C40.8492 24.3643 40.9299 24.3827 41.0106 24.412L40.9996 25.622C40.8602 25.5633 40.7392 25.5267 40.6366 25.512C40.5412 25.4973 40.4202 25.49 40.2736 25.49C39.9582 25.49 39.6906 25.556 39.4706 25.688C39.2579 25.82 39.0966 26.0033 38.9866 26.238C38.8839 26.4727 38.8326 26.7403 38.8326 27.041V30H37.4466ZM41.9759 30V25.831C41.9759 25.6037 41.9686 25.3727 41.9539 25.138C41.9393 24.9033 41.9173 24.6723 41.8879 24.445H43.2189L43.3289 25.545H43.1969C43.3729 25.1563 43.6333 24.8593 43.9779 24.654C44.3226 24.4413 44.7223 24.335 45.1769 24.335C45.8296 24.335 46.3209 24.5183 46.6509 24.885C46.9809 25.2517 47.1459 25.8237 47.1459 26.601V30H45.7709V26.667C45.7709 26.2197 45.6829 25.9007 45.5069 25.71C45.3383 25.512 45.0816 25.413 44.7369 25.413C44.3116 25.413 43.9743 25.545 43.7249 25.809C43.4756 26.073 43.3509 26.425 43.3509 26.865V30H41.9759ZM54.5744 30.11C54.0024 30.11 53.5001 29.9927 53.0674 29.758C52.6421 29.5233 52.3121 29.1897 52.0774 28.757C51.8427 28.317 51.7254 27.7963 51.7254 27.195C51.7254 26.5937 51.8427 26.0803 52.0774 25.655C52.3194 25.2297 52.6531 24.9033 53.0784 24.676C53.5037 24.4487 54.0024 24.335 54.5744 24.335C54.9411 24.335 55.2967 24.3937 55.6414 24.511C55.9934 24.621 56.2794 24.7823 56.4994 24.995L56.0814 25.952C55.8834 25.7687 55.6597 25.633 55.4104 25.545C55.1684 25.4497 54.9301 25.402 54.6954 25.402C54.2041 25.402 53.8191 25.556 53.5404 25.864C53.2691 26.172 53.1334 26.6193 53.1334 27.206C53.1334 27.7927 53.2691 28.2437 53.5404 28.559C53.8191 28.8743 54.2041 29.032 54.6954 29.032C54.9227 29.032 55.1574 28.988 55.3994 28.9C55.6487 28.812 55.8761 28.6763 56.0814 28.493L56.4994 29.439C56.2721 29.6517 55.9824 29.8167 55.6304 29.934C55.2857 30.0513 54.9337 30.11 54.5744 30.11ZM59.8782 30.11C59.3942 30.11 58.9688 29.9963 58.6022 29.769C58.2355 29.5343 57.9495 29.2007 57.7442 28.768C57.5388 28.3353 57.4362 27.8183 57.4362 27.217C57.4362 26.6157 57.5388 26.1023 57.7442 25.677C57.9495 25.2443 58.2355 24.9143 58.6022 24.687C58.9688 24.4523 59.3942 24.335 59.8782 24.335C60.3475 24.335 60.7582 24.4523 61.1102 24.687C61.4695 24.9143 61.7078 25.2223 61.8252 25.611H61.7042L61.8252 24.445H63.1452C63.1232 24.6723 63.1012 24.9033 63.0792 25.138C63.0645 25.3727 63.0572 25.6037 63.0572 25.831V30H61.6932L61.6822 28.856H61.8142C61.6968 29.2373 61.4585 29.5417 61.0992 29.769C60.7398 29.9963 60.3328 30.11 59.8782 30.11ZM60.2632 29.054C60.6958 29.054 61.0442 28.9037 61.3082 28.603C61.5722 28.295 61.7042 27.833 61.7042 27.217C61.7042 26.601 61.5722 26.1427 61.3082 25.842C61.0442 25.5413 60.6958 25.391 60.2632 25.391C59.8305 25.391 59.4822 25.5413 59.2182 25.842C58.9542 26.1427 58.8222 26.601 58.8222 27.217C58.8222 27.833 58.9505 28.295 59.2072 28.603C59.4712 28.9037 59.8232 29.054 60.2632 29.054ZM66.7344 30.11C66.2578 30.11 65.8178 30.055 65.4144 29.945C65.0184 29.8277 64.6848 29.6663 64.4134 29.461L64.7984 28.537C65.0771 28.7277 65.3851 28.8743 65.7224 28.977C66.0598 29.0797 66.4008 29.131 66.7454 29.131C67.1121 29.131 67.3834 29.0687 67.5594 28.944C67.7428 28.8193 67.8344 28.6507 67.8344 28.438C67.8344 28.2693 67.7758 28.1373 67.6584 28.042C67.5484 27.9393 67.3688 27.8623 67.1194 27.811L66.0194 27.602C65.5501 27.4993 65.1908 27.3233 64.9414 27.074C64.6994 26.8247 64.5784 26.4983 64.5784 26.095C64.5784 25.7503 64.6701 25.446 64.8534 25.182C65.0441 24.918 65.3118 24.7127 65.6564 24.566C66.0084 24.412 66.4191 24.335 66.8884 24.335C67.2991 24.335 67.6841 24.39 68.0434 24.5C68.4101 24.61 68.7181 24.775 68.9674 24.995L68.5714 25.886C68.3441 25.7027 68.0838 25.5597 67.7904 25.457C67.4971 25.3543 67.2111 25.303 66.9324 25.303C66.5511 25.303 66.2724 25.3727 66.0964 25.512C65.9204 25.644 65.8324 25.8163 65.8324 26.029C65.8324 26.1903 65.8838 26.326 65.9864 26.436C66.0964 26.5387 66.2651 26.6157 66.4924 26.667L67.5924 26.876C68.0838 26.9713 68.4541 27.14 68.7034 27.382C68.9601 27.6167 69.0884 27.9393 69.0884 28.35C69.0884 28.7167 68.9894 29.032 68.7914 29.296C68.5934 29.56 68.3184 29.7617 67.9664 29.901C67.6144 30.0403 67.2038 30.11 66.7344 30.11ZM70.4652 30V21.904H71.8402V25.556H71.6862C71.8549 25.16 72.1152 24.8593 72.4672 24.654C72.8192 24.4413 73.2225 24.335 73.6772 24.335C74.3372 24.335 74.8285 24.522 75.1512 24.896C75.4739 25.2627 75.6352 25.8237 75.6352 26.579V30H74.2602V26.645C74.2602 26.2123 74.1759 25.9007 74.0072 25.71C73.8459 25.512 73.5855 25.413 73.2262 25.413C72.8082 25.413 72.4709 25.545 72.2142 25.809C71.9649 26.0657 71.8402 26.4103 71.8402 26.843V30H70.4652ZM80.4721 30.11C80.0028 30.11 79.5921 29.9963 79.2401 29.769C78.8881 29.5343 78.6534 29.219 78.5361 28.823H78.6571V30H77.2931V21.904H78.6681V25.578H78.5361C78.6608 25.1967 78.8991 24.896 79.2511 24.676C79.6031 24.4487 80.0101 24.335 80.4721 24.335C80.9635 24.335 81.3925 24.4523 81.7591 24.687C82.1258 24.9217 82.4118 25.2553 82.6171 25.688C82.8225 26.1133 82.9251 26.6267 82.9251 27.228C82.9251 27.8293 82.8225 28.3463 82.6171 28.779C82.4118 29.2043 82.1221 29.5343 81.7481 29.769C81.3814 29.9963 80.9561 30.11 80.4721 30.11ZM80.0871 29.054C80.5198 29.054 80.8681 28.9037 81.1321 28.603C81.4035 28.3023 81.5391 27.844 81.5391 27.228C81.5391 26.612 81.4035 26.1537 81.1321 25.853C80.8681 25.545 80.5198 25.391 80.0871 25.391C79.6544 25.391 79.3061 25.5413 79.0421 25.842C78.7781 26.1427 78.6461 26.601 78.6461 27.217C78.6461 27.833 78.7781 28.295 79.0421 28.603C79.3061 28.9037 79.6544 29.054 80.0871 29.054ZM86.4594 30.11C85.9754 30.11 85.5501 29.9963 85.1834 29.769C84.8167 29.5343 84.5307 29.2007 84.3254 28.768C84.1201 28.3353 84.0174 27.8183 84.0174 27.217C84.0174 26.6157 84.1201 26.1023 84.3254 25.677C84.5307 25.2443 84.8167 24.9143 85.1834 24.687C85.5501 24.4523 85.9754 24.335 86.4594 24.335C86.9287 24.335 87.3394 24.4523 87.6914 24.687C88.0507 24.9143 88.2891 25.2223 88.4064 25.611H88.2854L88.4064 24.445H89.7264C89.7044 24.6723 89.6824 24.9033 89.6604 25.138C89.6457 25.3727 89.6384 25.6037 89.6384 25.831V30H88.2744L88.2634 28.856H88.3954C88.2781 29.2373 88.0397 29.5417 87.6804 29.769C87.3211 29.9963 86.9141 30.11 86.4594 30.11ZM86.8444 29.054C87.2771 29.054 87.6254 28.9037 87.8894 28.603C88.1534 28.295 88.2854 27.833 88.2854 27.217C88.2854 26.601 88.1534 26.1427 87.8894 25.842C87.6254 25.5413 87.2771 25.391 86.8444 25.391C86.4117 25.391 86.0634 25.5413 85.7994 25.842C85.5354 26.1427 85.4034 26.601 85.4034 27.217C85.4034 27.833 85.5317 28.295 85.7884 28.603C86.0524 28.9037 86.4044 29.054 86.8444 29.054ZM93.8877 30.11C93.3157 30.11 92.8134 29.9927 92.3807 29.758C91.9554 29.5233 91.6254 29.1897 91.3907 28.757C91.156 28.317 91.0387 27.7963 91.0387 27.195C91.0387 26.5937 91.156 26.0803 91.3907 25.655C91.6327 25.2297 91.9664 24.9033 92.3917 24.676C92.817 24.4487 93.3157 24.335 93.8877 24.335C94.2544 24.335 94.61 24.3937 94.9547 24.511C95.3067 24.621 95.5927 24.7823 95.8127 24.995L95.3947 25.952C95.1967 25.7687 94.973 25.633 94.7237 25.545C94.4817 25.4497 94.2434 25.402 94.0087 25.402C93.5174 25.402 93.1324 25.556 92.8537 25.864C92.5824 26.172 92.4467 26.6193 92.4467 27.206C92.4467 27.7927 92.5824 28.2437 92.8537 28.559C93.1324 28.8743 93.5174 29.032 94.0087 29.032C94.236 29.032 94.4707 28.988 94.7127 28.9C94.962 28.812 95.1894 28.6763 95.3947 28.493L95.8127 29.439C95.5854 29.6517 95.2957 29.8167 94.9437 29.934C94.599 30.0513 94.247 30.11 93.8877 30.11ZM97.0787 30V21.904H98.4537V26.81H98.4757L100.731 24.445H102.392L99.5867 27.382L99.5977 26.832L102.59 30H100.885L98.4757 27.514H98.4537V30H97.0787ZM108.011 30L105.965 24.478H106.911L108.616 29.34H108.33L110.09 24.478H110.86L112.587 29.34H112.312L114.028 24.478H114.93L112.873 30H112.015L110.233 25.061H110.673L108.88 30H108.011ZM116.298 30V21.904H117.189V25.699H117.046C117.2 25.2663 117.456 24.94 117.816 24.72C118.182 24.4927 118.604 24.379 119.081 24.379C119.741 24.379 120.232 24.5587 120.555 24.918C120.877 25.27 121.039 25.8053 121.039 26.524V30H120.148V26.579C120.148 26.0657 120.045 25.6917 119.84 25.457C119.642 25.2223 119.319 25.105 118.872 25.105C118.358 25.105 117.948 25.2627 117.64 25.578C117.339 25.8933 117.189 26.3077 117.189 26.821V30H116.298ZM125.396 30.099C124.531 30.099 123.849 29.8497 123.35 29.351C122.851 28.845 122.602 28.1447 122.602 27.25C122.602 26.6707 122.712 26.1683 122.932 25.743C123.152 25.3103 123.46 24.9767 123.856 24.742C124.252 24.5 124.707 24.379 125.22 24.379C125.726 24.379 126.151 24.4853 126.496 24.698C126.841 24.9107 127.105 25.215 127.288 25.611C127.471 25.9997 127.563 26.4617 127.563 26.997V27.327H123.284V26.766H126.98L126.793 26.909C126.793 26.3223 126.661 25.864 126.397 25.534C126.133 25.204 125.741 25.039 125.22 25.039C124.67 25.039 124.241 25.2333 123.933 25.622C123.625 26.0033 123.471 26.5203 123.471 27.173V27.272C123.471 27.9613 123.64 28.4857 123.977 28.845C124.322 29.197 124.802 29.373 125.418 29.373C125.748 29.373 126.056 29.3253 126.342 29.23C126.635 29.1273 126.914 28.9623 127.178 28.735L127.486 29.362C127.244 29.5967 126.936 29.78 126.562 29.912C126.195 30.0367 125.807 30.099 125.396 30.099ZM129.126 30V25.754C129.126 25.5487 129.115 25.3397 129.093 25.127C129.079 24.907 129.06 24.6907 129.038 24.478H129.896L130.006 25.688H129.874C130.036 25.2627 130.292 24.94 130.644 24.72C131.004 24.4927 131.418 24.379 131.887 24.379C132.54 24.379 133.031 24.555 133.361 24.907C133.699 25.2517 133.867 25.798 133.867 26.546V30H132.976V26.601C132.976 26.0803 132.87 25.7027 132.657 25.468C132.452 25.226 132.129 25.105 131.689 25.105C131.176 25.105 130.769 25.2627 130.468 25.578C130.168 25.8933 130.017 26.315 130.017 26.843V30H129.126ZM138.62 32.497L138.411 31.76C138.756 31.6793 139.042 31.584 139.269 31.474C139.504 31.3713 139.698 31.232 139.852 31.056C140.006 30.88 140.138 30.66 140.248 30.396L140.534 29.747L140.512 30.121L138.103 24.478H139.071L141.062 29.329H140.776L142.745 24.478H143.68L141.128 30.462C140.981 30.814 140.82 31.1073 140.644 31.342C140.468 31.584 140.277 31.7783 140.072 31.925C139.874 32.079 139.654 32.2 139.412 32.288C139.17 32.376 138.906 32.4457 138.62 32.497ZM147.074 30.099C146.546 30.099 146.084 29.9853 145.688 29.758C145.3 29.5233 144.999 29.1933 144.786 28.768C144.574 28.3353 144.467 27.8257 144.467 27.239C144.467 26.645 144.574 26.1353 144.786 25.71C144.999 25.2847 145.3 24.9583 145.688 24.731C146.084 24.4963 146.546 24.379 147.074 24.379C147.61 24.379 148.072 24.4963 148.46 24.731C148.856 24.9583 149.161 25.2847 149.373 25.71C149.593 26.1353 149.703 26.645 149.703 27.239C149.703 27.8257 149.593 28.3353 149.373 28.768C149.161 29.1933 148.856 29.5233 148.46 29.758C148.072 29.9853 147.61 30.099 147.074 30.099ZM147.074 29.373C147.602 29.373 148.02 29.1933 148.328 28.834C148.636 28.4673 148.79 27.9357 148.79 27.239C148.79 26.535 148.633 26.0033 148.317 25.644C148.009 25.2773 147.595 25.094 147.074 25.094C146.554 25.094 146.139 25.2773 145.831 25.644C145.523 26.0033 145.369 26.535 145.369 27.239C145.369 27.9357 145.523 28.4673 145.831 28.834C146.139 29.1933 146.554 29.373 147.074 29.373ZM153.24 30.099C152.587 30.099 152.092 29.9193 151.755 29.56C151.425 29.2007 151.26 28.6507 151.26 27.91V24.478H152.151V27.888C152.151 28.394 152.253 28.768 152.459 29.01C152.664 29.2447 152.983 29.362 153.416 29.362C153.9 29.362 154.288 29.2043 154.582 28.889C154.875 28.5737 155.022 28.152 155.022 27.624V24.478H155.913V30H155.044V28.757H155.187C155.033 29.1823 154.783 29.5123 154.439 29.747C154.101 29.9817 153.702 30.099 153.24 30.099ZM162.746 30.099C162.306 30.099 161.896 30.0403 161.514 29.923C161.133 29.7983 160.818 29.626 160.568 29.406L160.876 28.779C161.148 28.9917 161.441 29.1493 161.756 29.252C162.079 29.3547 162.413 29.406 162.757 29.406C163.197 29.406 163.527 29.329 163.747 29.175C163.975 29.0137 164.088 28.7937 164.088 28.515C164.088 28.3023 164.015 28.1337 163.868 28.009C163.729 27.877 163.498 27.7743 163.175 27.701L162.152 27.492C161.683 27.3893 161.331 27.217 161.096 26.975C160.862 26.7257 160.744 26.4103 160.744 26.029C160.744 25.7063 160.829 25.424 160.997 25.182C161.166 24.9327 161.412 24.7383 161.734 24.599C162.057 24.4523 162.435 24.379 162.867 24.379C163.271 24.379 163.641 24.4413 163.978 24.566C164.323 24.6833 164.609 24.8557 164.836 25.083L164.517 25.699C164.297 25.4863 164.044 25.3287 163.758 25.226C163.48 25.116 163.19 25.061 162.889 25.061C162.457 25.061 162.13 25.149 161.91 25.325C161.698 25.4937 161.591 25.7173 161.591 25.996C161.591 26.2087 161.657 26.3847 161.789 26.524C161.929 26.656 162.141 26.755 162.427 26.821L163.45 27.03C163.949 27.14 164.319 27.3123 164.561 27.547C164.811 27.7743 164.935 28.0823 164.935 28.471C164.935 28.801 164.844 29.0907 164.66 29.34C164.477 29.582 164.22 29.769 163.89 29.901C163.568 30.033 163.186 30.099 162.746 30.099ZM166.566 30V21.904H167.457V25.699H167.314C167.468 25.2663 167.725 24.94 168.084 24.72C168.451 24.4927 168.873 24.379 169.349 24.379C170.009 24.379 170.501 24.5587 170.823 24.918C171.146 25.27 171.307 25.8053 171.307 26.524V30H170.416V26.579C170.416 26.0657 170.314 25.6917 170.108 25.457C169.91 25.2223 169.588 25.105 169.14 25.105C168.627 25.105 168.216 25.2627 167.908 25.578C167.608 25.8933 167.457 26.3077 167.457 26.821V30H166.566ZM175.478 30.099C174.95 30.099 174.488 29.9853 174.092 29.758C173.703 29.5233 173.402 29.1933 173.19 28.768C172.977 28.3353 172.871 27.8257 172.871 27.239C172.871 26.645 172.977 26.1353 173.19 25.71C173.402 25.2847 173.703 24.9583 174.092 24.731C174.488 24.4963 174.95 24.379 175.478 24.379C176.013 24.379 176.475 24.4963 176.864 24.731C177.26 24.9583 177.564 25.2847 177.777 25.71C177.997 26.1353 178.107 26.645 178.107 27.239C178.107 27.8257 177.997 28.3353 177.777 28.768C177.564 29.1933 177.26 29.5233 176.864 29.758C176.475 29.9853 176.013 30.099 175.478 30.099ZM175.478 29.373C176.006 29.373 176.424 29.1933 176.732 28.834C177.04 28.4673 177.194 27.9357 177.194 27.239C177.194 26.535 177.036 26.0033 176.721 25.644C176.413 25.2773 175.998 25.094 175.478 25.094C174.957 25.094 174.543 25.2773 174.235 25.644C173.927 26.0033 173.773 26.535 173.773 27.239C173.773 27.9357 173.927 28.4673 174.235 28.834C174.543 29.1933 174.957 29.373 175.478 29.373ZM179.696 32.376V25.754C179.696 25.5487 179.685 25.3397 179.663 25.127C179.648 24.907 179.63 24.6907 179.608 24.478H180.466L180.587 25.787H180.455C180.572 25.3543 180.811 25.0133 181.17 24.764C181.529 24.5073 181.958 24.379 182.457 24.379C182.956 24.379 183.385 24.4927 183.744 24.72C184.111 24.9473 184.397 25.2737 184.602 25.699C184.807 26.1243 184.91 26.6377 184.91 27.239C184.91 27.833 184.807 28.3427 184.602 28.768C184.404 29.1933 184.122 29.5233 183.755 29.758C183.388 29.9853 182.956 30.099 182.457 30.099C181.966 30.099 181.54 29.9743 181.181 29.725C180.822 29.4757 180.583 29.1347 180.466 28.702H180.587V32.376H179.696ZM182.281 29.373C182.809 29.373 183.227 29.1933 183.535 28.834C183.85 28.4673 184.008 27.9357 184.008 27.239C184.008 26.535 183.85 26.0033 183.535 25.644C183.227 25.2773 182.809 25.094 182.281 25.094C181.76 25.094 181.342 25.2773 181.027 25.644C180.719 26.0033 180.565 26.535 180.565 27.239C180.565 27.9357 180.719 28.4673 181.027 28.834C181.342 29.1933 181.76 29.373 182.281 29.373ZM191.034 30L188.988 24.478H189.934L191.639 29.34H191.353L193.113 24.478H193.883L195.61 29.34H195.335L197.051 24.478H197.953L195.896 30H195.038L193.256 25.061H193.696L191.903 30H191.034ZM199.32 30V24.478H200.211V30H199.32ZM199.21 23.224V22.223H200.31V23.224H199.21ZM204.099 30.099C203.557 30.099 203.142 29.945 202.856 29.637C202.57 29.3217 202.427 28.8487 202.427 28.218V25.171H201.349V24.478H202.427V22.971L203.318 22.718V24.478H204.902V25.171H203.318V28.119C203.318 28.559 203.392 28.8743 203.538 29.065C203.692 29.2483 203.92 29.34 204.22 29.34C204.36 29.34 204.484 29.329 204.594 29.307C204.704 29.2777 204.803 29.2447 204.891 29.208V29.956C204.789 30 204.664 30.033 204.517 30.055C204.378 30.0843 204.239 30.099 204.099 30.099ZM206.187 30V21.904H207.078V25.699H206.935C207.089 25.2663 207.346 24.94 207.705 24.72C208.072 24.4927 208.493 24.379 208.97 24.379C209.63 24.379 210.121 24.5587 210.444 24.918C210.767 25.27 210.928 25.8053 210.928 26.524V30H210.037V26.579C210.037 26.0657 209.934 25.6917 209.729 25.457C209.531 25.2223 209.208 25.105 208.761 25.105C208.248 25.105 207.837 25.2627 207.529 25.578C207.228 25.8933 207.078 26.3077 207.078 26.821V30H206.187ZM216.187 30V25.171H215.109V24.478H216.429L216.187 24.709V23.785C216.187 23.1617 216.344 22.685 216.66 22.355C216.975 22.025 217.426 21.86 218.013 21.86C218.159 21.86 218.31 21.8747 218.464 21.904C218.625 21.926 218.757 21.959 218.86 22.003V22.74C218.772 22.7033 218.662 22.674 218.53 22.652C218.405 22.6227 218.277 22.608 218.145 22.608C217.917 22.608 217.723 22.6557 217.562 22.751C217.4 22.839 217.279 22.9747 217.199 23.158C217.118 23.3413 217.078 23.576 217.078 23.862V24.665L216.935 24.478H218.618V25.171H217.078V30H216.187ZM219.795 30V25.809C219.795 25.589 219.788 25.3653 219.773 25.138C219.766 24.9107 219.751 24.6907 219.729 24.478H220.587L220.697 25.82L220.543 25.831C220.617 25.501 220.745 25.2297 220.928 25.017C221.112 24.8043 221.328 24.6467 221.577 24.544C221.827 24.434 222.087 24.379 222.358 24.379C222.468 24.379 222.564 24.3827 222.644 24.39C222.732 24.3973 222.813 24.4157 222.886 24.445L222.875 25.237C222.765 25.2003 222.663 25.1783 222.567 25.171C222.479 25.1563 222.377 25.149 222.259 25.149C221.937 25.149 221.654 25.226 221.412 25.38C221.178 25.534 220.998 25.732 220.873 25.974C220.756 26.216 220.697 26.4727 220.697 26.744V30H219.795ZM224.014 30V24.478H224.905V30H224.014ZM223.904 23.224V22.223H225.004V23.224H223.904ZM229.288 30.099C228.422 30.099 227.74 29.8497 227.242 29.351C226.743 28.845 226.494 28.1447 226.494 27.25C226.494 26.6707 226.604 26.1683 226.824 25.743C227.044 25.3103 227.352 24.9767 227.748 24.742C228.144 24.5 228.598 24.379 229.112 24.379C229.618 24.379 230.043 24.4853 230.388 24.698C230.732 24.9107 230.996 25.215 231.18 25.611C231.363 25.9997 231.455 26.4617 231.455 26.997V27.327H227.176V26.766H230.872L230.685 26.909C230.685 26.3223 230.553 25.864 230.289 25.534C230.025 25.204 229.632 25.039 229.112 25.039C228.562 25.039 228.133 25.2333 227.825 25.622C227.517 26.0033 227.363 26.5203 227.363 27.173V27.272C227.363 27.9613 227.531 28.4857 227.869 28.845C228.213 29.197 228.694 29.373 229.31 29.373C229.64 29.373 229.948 29.3253 230.234 29.23C230.527 29.1273 230.806 28.9623 231.07 28.735L231.378 29.362C231.136 29.5967 230.828 29.78 230.454 29.912C230.087 30.0367 229.698 30.099 229.288 30.099ZM233.018 30V25.754C233.018 25.5487 233.007 25.3397 232.985 25.127C232.97 24.907 232.952 24.6907 232.93 24.478H233.788L233.898 25.688H233.766C233.927 25.2627 234.184 24.94 234.536 24.72C234.895 24.4927 235.31 24.379 235.779 24.379C236.432 24.379 236.923 24.555 237.253 24.907C237.59 25.2517 237.759 25.798 237.759 26.546V30H236.868V26.601C236.868 26.0803 236.762 25.7027 236.549 25.468C236.344 25.226 236.021 25.105 235.581 25.105C235.068 25.105 234.661 25.2627 234.36 25.578C234.059 25.8933 233.909 26.315 233.909 26.843V30H233.018ZM241.753 30.099C241.269 30.099 240.844 29.9853 240.477 29.758C240.111 29.5233 239.825 29.1933 239.619 28.768C239.421 28.3427 239.322 27.833 239.322 27.239C239.322 26.6377 239.421 26.1243 239.619 25.699C239.825 25.2737 240.111 24.9473 240.477 24.72C240.844 24.4927 241.269 24.379 241.753 24.379C242.252 24.379 242.681 24.5037 243.04 24.753C243.407 25.0023 243.653 25.3397 243.777 25.765H243.645V21.904H244.536V30H243.656V28.68H243.777C243.66 29.12 243.418 29.4683 243.051 29.725C242.685 29.9743 242.252 30.099 241.753 30.099ZM241.94 29.373C242.461 29.373 242.879 29.1933 243.194 28.834C243.51 28.4673 243.667 27.9357 243.667 27.239C243.667 26.535 243.51 26.0033 243.194 25.644C242.879 25.2773 242.461 25.094 241.94 25.094C241.42 25.094 241.002 25.2773 240.686 25.644C240.378 26.0033 240.224 26.535 240.224 27.239C240.224 27.9357 240.378 28.4673 240.686 28.834C241.002 29.1933 241.42 29.373 241.94 29.373ZM248.296 30.099C247.856 30.099 247.445 30.0403 247.064 29.923C246.683 29.7983 246.367 29.626 246.118 29.406L246.426 28.779C246.697 28.9917 246.991 29.1493 247.306 29.252C247.629 29.3547 247.962 29.406 248.307 29.406C248.747 29.406 249.077 29.329 249.297 29.175C249.524 29.0137 249.638 28.7937 249.638 28.515C249.638 28.3023 249.565 28.1337 249.418 28.009C249.279 27.877 249.048 27.7743 248.725 27.701L247.702 27.492C247.233 27.3893 246.881 27.217 246.646 26.975C246.411 26.7257 246.294 26.4103 246.294 26.029C246.294 25.7063 246.378 25.424 246.547 25.182C246.716 24.9327 246.961 24.7383 247.284 24.599C247.607 24.4523 247.984 24.379 248.417 24.379C248.82 24.379 249.191 24.4413 249.528 24.566C249.873 24.6833 250.159 24.8557 250.386 25.083L250.067 25.699C249.847 25.4863 249.594 25.3287 249.308 25.226C249.029 25.116 248.74 25.061 248.439 25.061C248.006 25.061 247.68 25.149 247.46 25.325C247.247 25.4937 247.141 25.7173 247.141 25.996C247.141 26.2087 247.207 26.3847 247.339 26.524C247.478 26.656 247.691 26.755 247.977 26.821L249 27.03C249.499 27.14 249.869 27.3123 250.111 27.547C250.36 27.7743 250.485 28.0823 250.485 28.471C250.485 28.801 250.393 29.0907 250.21 29.34C250.027 29.582 249.77 29.769 249.44 29.901C249.117 30.033 248.736 30.099 248.296 30.099Z" fill="black"/>
<path fill-rule="evenodd" clip-rule="evenodd" d="M263.052 23.0747C262.818 23.0056 262.569 22.9858 262.324 23.0167L257.817 23.0142C257.572 22.9832 257.323 23.0031 257.088 23.0721C256.854 23.1412 256.641 23.2576 256.466 23.412C256.291 23.5665 256.16 23.7547 256.082 23.962C256.004 24.1692 255.981 24.3897 256.016 24.6059V27.3939C255.981 27.6103 256.003 27.8309 256.082 28.0383C256.16 28.2456 256.292 28.434 256.467 28.5885C256.642 28.743 256.855 28.8593 257.09 28.9282C257.324 28.9972 257.574 29.0168 257.819 28.9856H262.324C262.568 29.0158 262.817 28.9956 263.05 28.9264C263.284 28.8572 263.496 28.741 263.671 28.5869C263.845 28.4329 263.976 28.2451 264.054 28.0385C264.132 27.8319 264.155 27.6121 264.121 27.3964V25.8047H259.619V26.2026H263.674V27.3964C263.701 27.5586 263.684 27.7239 263.625 27.8793C263.567 28.0347 263.468 28.1759 263.337 28.2917C263.206 28.4075 263.046 28.4948 262.87 28.5466C262.694 28.5984 262.507 28.6133 262.324 28.5902H257.819C257.635 28.6133 257.448 28.5984 257.272 28.5466C257.097 28.4948 256.937 28.4075 256.806 28.2917C256.675 28.1759 256.576 28.0347 256.517 27.8793C256.459 27.7239 256.442 27.5586 256.468 27.3964V24.6084C256.442 24.4462 256.459 24.2809 256.517 24.1255C256.576 23.9701 256.675 23.8289 256.806 23.7131C256.937 23.5973 257.097 23.51 257.272 23.4582C257.448 23.4064 257.635 23.3915 257.819 23.4146H262.324C262.507 23.3919 262.694 23.4072 262.869 23.4592C263.045 23.5112 263.204 23.5985 263.335 23.7143C263.466 23.83 263.564 23.9711 263.622 24.1263C263.681 24.2814 263.698 24.4465 263.672 24.6084H264.125C264.16 24.3922 264.137 24.1717 264.059 23.9645C263.981 23.7573 263.849 23.569 263.675 23.4145C263.5 23.2601 263.287 23.1437 263.052 23.0747ZM273.937 23.0747C273.703 23.0056 273.454 22.9858 273.209 23.0167L266.903 23.0201V28.989H267.353V26.201H273.207C273.391 26.1778 273.578 26.1927 273.753 26.2445C273.929 26.2963 274.089 26.3836 274.22 26.4994C274.351 26.6152 274.45 26.7564 274.508 26.9118C274.567 27.0672 274.584 27.2326 274.558 27.3947V28.9864H275.01V27.3947C275.047 27.1233 274.997 26.848 274.863 26.6012C274.73 26.3544 274.52 26.1464 274.257 26.0016C274.52 25.8567 274.73 25.6487 274.863 25.4019C274.997 25.1551 275.047 24.8798 275.01 24.6084C275.045 24.3922 275.022 24.1717 274.944 23.9645C274.866 23.7573 274.734 23.569 274.56 23.4145C274.385 23.2601 274.172 23.1437 273.937 23.0747ZM274.558 24.6084C274.584 24.4462 274.567 24.2809 274.508 24.1255C274.45 23.9701 274.351 23.8289 274.22 23.7131C274.089 23.5973 273.929 23.51 273.753 23.4582C273.578 23.4064 273.391 23.3915 273.207 23.4146H267.353V25.8022H273.205C273.389 25.8256 273.576 25.8109 273.752 25.7593C273.928 25.7076 274.088 25.6203 274.219 25.5045C274.351 25.3886 274.45 25.2473 274.508 25.0918C274.567 24.9362 274.584 24.7707 274.558 24.6084ZM278.861 28.9276C279.096 28.9967 279.345 29.0165 279.59 28.9856H284.091C284.336 29.0165 284.585 28.9967 284.82 28.9276C285.054 28.8586 285.267 28.7422 285.442 28.5877C285.617 28.4333 285.748 28.245 285.826 28.0378C285.904 27.8306 285.927 27.6101 285.892 27.3939V24.6059C285.927 24.3897 285.904 24.1692 285.826 23.962C285.748 23.7547 285.617 23.5665 285.442 23.412C285.267 23.2576 285.054 23.1412 284.82 23.0721C284.585 23.0031 284.336 22.9832 284.091 23.0142H279.59C279.345 22.9832 279.096 23.0031 278.861 23.0721C278.627 23.1412 278.414 23.2576 278.239 23.412C278.064 23.5665 277.933 23.7547 277.855 23.962C277.776 24.1692 277.754 24.3897 277.789 24.6059V27.3939C277.754 27.6101 277.776 27.8306 277.855 28.0378C277.933 28.245 278.064 28.4333 278.239 28.5877C278.414 28.7422 278.627 28.8586 278.861 28.9276ZM278.237 27.3939C278.211 27.556 278.228 27.7214 278.287 27.8768C278.345 28.0321 278.444 28.1734 278.575 28.2892C278.706 28.405 278.866 28.4923 279.041 28.5441C279.217 28.5959 279.404 28.6108 279.588 28.5877H284.089C284.273 28.6108 284.46 28.5959 284.636 28.5441C284.811 28.4923 284.971 28.405 285.102 28.2892C285.233 28.1734 285.332 28.0321 285.391 27.8768C285.449 27.7214 285.466 27.556 285.44 27.3939V24.6059C285.466 24.4437 285.449 24.2784 285.391 24.123C285.332 23.9676 285.233 23.8264 285.102 23.7106C284.971 23.5947 284.811 23.5075 284.636 23.4557C284.46 23.4039 284.273 23.3889 284.089 23.4121H279.588C279.404 23.3889 279.217 23.4039 279.041 23.4557C278.866 23.5075 278.706 23.5947 278.575 23.7106C278.444 23.8264 278.345 23.9676 278.287 24.123C278.228 24.2784 278.211 24.4437 278.237 24.6059V27.3939ZM296.325 23.0167V27.3939C296.351 27.556 296.334 27.7214 296.276 27.8768C296.217 28.0321 296.118 28.1734 295.987 28.2892C295.856 28.405 295.696 28.4923 295.521 28.5441C295.345 28.5959 295.158 28.6108 294.974 28.5877H290.473C290.289 28.6108 290.102 28.5959 289.926 28.5441C289.751 28.4923 289.591 28.405 289.46 28.2892C289.329 28.1734 289.23 28.0321 289.172 27.8768C289.113 27.7214 289.096 27.556 289.122 27.3939V23.0167H288.672V27.3939C288.637 27.6101 288.66 27.8306 288.738 28.0378C288.816 28.245 288.947 28.4333 289.122 28.5877C289.297 28.7422 289.51 28.8586 289.744 28.9276C289.979 28.9967 290.228 29.0165 290.473 28.9856H294.974C295.219 29.0165 295.468 28.9967 295.703 28.9276C295.937 28.8586 296.15 28.7422 296.325 28.5877C296.5 28.4333 296.631 28.245 296.709 28.0378C296.788 27.8306 296.81 27.6101 296.775 27.3939V23.0167H296.325ZM305.858 23.0167C306.103 22.9858 306.352 23.0056 306.587 23.0747C306.821 23.1437 307.034 23.2601 307.209 23.4145C307.384 23.569 307.515 23.7573 307.593 23.9645C307.672 24.1717 307.694 24.3922 307.659 24.6084C307.694 24.8246 307.672 25.0451 307.593 25.2523C307.515 25.4595 307.384 25.6478 307.209 25.8023C307.034 25.9567 306.821 26.0731 306.587 26.1421C306.352 26.2112 306.103 26.231 305.858 26.2001H300.006V28.9881H299.556V23.0192L305.858 23.0167ZM306.871 23.7131C307.002 23.8289 307.101 23.9701 307.16 24.1255C307.218 24.2809 307.235 24.4462 307.21 24.6084C307.236 24.7706 307.219 24.9361 307.161 25.0915C307.102 25.247 307.003 25.3882 306.872 25.5041C306.741 25.6199 306.581 25.7072 306.405 25.7589C306.229 25.8107 306.042 25.8255 305.858 25.8022H300.006V23.4146H305.858C306.042 23.3915 306.229 23.4064 306.405 23.4582C306.58 23.51 306.74 23.5973 306.871 23.7131ZM312.03 28.9856C311.785 29.0165 311.536 28.9967 311.301 28.9276C311.067 28.8586 310.854 28.7422 310.679 28.5877C310.504 28.4333 310.373 28.245 310.295 28.0378C310.216 27.8306 310.194 27.6101 310.229 27.3939H310.679C310.653 27.556 310.67 27.7214 310.728 27.8768C310.787 28.0321 310.886 28.1734 311.017 28.2892C311.148 28.405 311.308 28.4923 311.483 28.5441C311.659 28.5959 311.846 28.6108 312.03 28.5877H316.531C316.715 28.6108 316.902 28.5959 317.078 28.5441C317.253 28.4923 317.413 28.405 317.544 28.2892C317.675 28.1734 317.774 28.0321 317.832 27.8768C317.891 27.7214 317.908 27.556 317.882 27.3939C317.908 27.2317 317.891 27.0664 317.832 26.911C317.774 26.7556 317.675 26.6144 317.544 26.4986C317.413 26.3828 317.253 26.2955 317.078 26.2437C316.902 26.1919 316.715 26.1769 316.531 26.2001H312.03C311.785 26.231 311.536 26.2112 311.301 26.1421C311.067 26.0731 310.854 25.9567 310.679 25.8023C310.504 25.6478 310.373 25.4595 310.295 25.2523C310.216 25.0451 310.194 24.8246 310.229 24.6084C310.194 24.3922 310.216 24.1717 310.295 23.9645C310.373 23.7573 310.504 23.569 310.679 23.4145C310.854 23.2601 311.067 23.1437 311.301 23.0747C311.536 23.0056 311.785 22.9858 312.03 23.0167H316.531C316.776 22.9859 317.025 23.0059 317.259 23.075C317.494 23.1441 317.707 23.2605 317.881 23.4149C318.056 23.5694 318.187 23.7576 318.265 23.9648C318.343 24.1719 318.366 24.3923 318.331 24.6084H317.881C317.907 24.4462 317.89 24.2809 317.832 24.1255C317.773 23.9701 317.674 23.8289 317.543 23.7131C317.412 23.5973 317.252 23.51 317.077 23.4582C316.901 23.4064 316.714 23.3915 316.53 23.4146H312.029C311.845 23.3915 311.658 23.4064 311.482 23.4582C311.307 23.51 311.147 23.5973 311.016 23.7131C310.885 23.8289 310.786 23.9701 310.728 24.1255C310.669 24.2809 310.652 24.4462 310.678 24.6084C310.652 24.7706 310.669 24.9359 310.728 25.0913C310.786 25.2467 310.885 25.3879 311.016 25.5037C311.147 25.6195 311.307 25.7068 311.482 25.7586C311.658 25.8104 311.845 25.8253 312.029 25.8022H316.53C316.775 25.7713 317.024 25.7911 317.259 25.8601C317.493 25.9292 317.706 26.0456 317.881 26.2C318.056 26.3545 318.187 26.5428 318.265 26.75C318.344 26.9572 318.366 27.1777 318.331 27.3939C318.366 27.6101 318.344 27.8306 318.265 28.0378C318.187 28.245 318.056 28.4333 317.881 28.5877C317.706 28.7422 317.493 28.8586 317.259 28.9276C317.024 28.9967 316.775 29.0165 316.53 28.9856H312.03ZM321.563 28.9856V26.1976H328.768V28.9856H329.218V23.0167H328.768V25.8047H321.563V23.0167H321.113V28.9856H321.563ZM333.797 28.9856C333.552 29.0162 333.303 28.9961 333.069 28.927C332.835 28.8578 332.622 28.7414 332.448 28.587C332.273 28.4326 332.142 28.2444 332.064 28.0373C331.986 27.8302 331.963 27.6099 331.998 27.3939V24.6059C331.963 24.3897 331.986 24.1692 332.064 23.962C332.142 23.7547 332.273 23.5665 332.448 23.412C332.623 23.2576 332.836 23.1412 333.07 23.0721C333.305 23.0031 333.554 22.9832 333.799 23.0142H338.306C338.551 22.9832 338.8 23.0031 339.035 23.0721C339.269 23.1412 339.482 23.2576 339.657 23.412C339.831 23.5665 339.963 23.7547 340.041 23.962C340.119 24.1692 340.142 24.3897 340.107 24.6059V27.3939C340.142 27.6101 340.119 27.8306 340.041 28.0378C339.963 28.245 339.831 28.4333 339.657 28.5877C339.482 28.7422 339.269 28.8586 339.035 28.9276C338.8 28.9967 338.551 29.0165 338.306 28.9856H333.797ZM332.496 27.8768C332.437 27.7214 332.42 27.556 332.446 27.3939L332.454 24.6084C332.428 24.4462 332.445 24.2809 332.503 24.1255C332.562 23.9701 332.661 23.8289 332.792 23.7131C332.923 23.5973 333.082 23.51 333.258 23.4582C333.434 23.4064 333.621 23.3915 333.804 23.4146H338.306C338.489 23.3916 338.676 23.4065 338.852 23.4581C339.027 23.5098 339.187 23.5968 339.318 23.7124C339.449 23.8279 339.547 23.9687 339.606 24.1238C339.665 24.2789 339.682 24.4439 339.657 24.6059V27.3939C339.683 27.556 339.666 27.7214 339.607 27.8768C339.549 28.0321 339.45 28.1734 339.319 28.2892C339.188 28.405 339.028 28.4923 338.852 28.5441C338.677 28.5959 338.49 28.6108 338.306 28.5877H333.797C333.613 28.6108 333.426 28.5959 333.251 28.5441C333.075 28.4923 332.915 28.405 332.784 28.2892C332.653 28.1734 332.554 28.0321 332.496 27.8768ZM349.184 23.0167C349.428 22.9858 349.677 23.0056 349.912 23.0747C350.146 23.1437 350.359 23.2601 350.534 23.4145C350.709 23.569 350.841 23.7573 350.918 23.9645C350.997 24.1717 351.019 24.3922 350.984 24.6084C351.019 24.8246 350.997 25.0451 350.918 25.2523C350.841 25.4595 350.709 25.6478 350.534 25.8023C350.359 25.9567 350.146 26.0731 349.912 26.1421C349.677 26.2112 349.428 26.231 349.184 26.2001H343.333V28.9881H342.883V23.0192L349.184 23.0167ZM350.485 24.1255C350.544 24.2809 350.56 24.4462 350.534 24.6084H350.54C350.566 24.7709 350.549 24.9366 350.49 25.0923C350.431 25.2479 350.332 25.3894 350.201 25.5053C350.069 25.6212 349.909 25.7084 349.733 25.7599C349.557 25.8114 349.369 25.8259 349.185 25.8022H343.333V23.4146H349.184C349.367 23.3915 349.554 23.4064 349.73 23.4582C349.906 23.51 350.065 23.5973 350.196 23.7131C350.327 23.8289 350.426 23.9701 350.485 24.1255Z" fill="black"/>
<path d="M262.324 23.0167L262.324 23.5167L262.355 23.5167L262.387 23.5128L262.324 23.0167ZM263.052 23.0747L263.194 22.595L263.194 22.595L263.052 23.0747ZM257.817 23.0142L257.754 23.5102L257.785 23.5142L257.816 23.5142L257.817 23.0142ZM257.088 23.0721L257.23 23.5518L257.23 23.5518L257.088 23.0721ZM256.466 23.412L256.797 23.7866L256.797 23.7866L256.466 23.412ZM256.082 23.962L255.614 23.7856L255.614 23.7856L256.082 23.962ZM256.016 24.6059H256.516V24.5657L256.51 24.526L256.016 24.6059ZM256.016 27.3939L256.51 27.4739L256.516 27.4341V27.3939H256.016ZM256.082 28.0383L256.55 27.8618L256.55 27.8618L256.082 28.0383ZM256.467 28.5885L256.136 28.9633L256.136 28.9633L256.467 28.5885ZM257.09 28.9282L257.23 28.4485L257.23 28.4485L257.09 28.9282ZM257.819 28.9856V28.4856H257.787L257.755 28.4896L257.819 28.9856ZM262.324 28.9856L262.386 28.4894L262.355 28.4856H262.324V28.9856ZM263.05 28.9264L262.908 28.447L262.908 28.447L263.05 28.9264ZM263.671 28.5869L264.002 28.9615L264.002 28.9615L263.671 28.5869ZM264.054 28.0385L264.522 28.2154L264.522 28.2154L264.054 28.0385ZM264.121 27.3964H263.621V27.436L263.627 27.4751L264.121 27.3964ZM264.121 25.8047H264.621V25.3047H264.121V25.8047ZM259.619 25.8047V25.3047H259.119V25.8047H259.619ZM259.619 26.2026H259.119V26.7026H259.619V26.2026ZM263.674 26.2026H264.174V25.7026H263.674V26.2026ZM263.674 27.3964H263.174V27.4365L263.181 27.4761L263.674 27.3964ZM263.337 28.2917L263.006 27.9171L263.006 27.9171L263.337 28.2917ZM262.324 28.5902L262.387 28.0941L262.355 28.0902H262.324V28.5902ZM257.819 28.5902V28.0902H257.787L257.756 28.0941L257.819 28.5902ZM257.272 28.5466L257.131 29.0262L257.131 29.0262L257.272 28.5466ZM256.806 28.2917L257.137 27.9171L257.137 27.9171L256.806 28.2917ZM256.468 27.3964L256.962 27.4762L256.968 27.4365V27.3964H256.468ZM256.468 24.6084H256.968V24.5683L256.962 24.5287L256.468 24.6084ZM256.517 24.1255L256.05 23.9491L256.05 23.9491L256.517 24.1255ZM256.806 23.7131L256.475 23.3385L256.475 23.3385L256.806 23.7131ZM257.272 23.4582L257.131 22.9786L257.131 22.9786L257.272 23.4582ZM257.819 23.4146L257.756 23.9107L257.787 23.9146H257.819V23.4146ZM262.324 23.4146V23.9146H262.355L262.386 23.9108L262.324 23.4146ZM262.869 23.4592L263.011 22.9798L263.011 22.9798L262.869 23.4592ZM263.622 24.1263L264.09 23.95L264.09 23.95L263.622 24.1263ZM263.672 24.6084L263.178 24.5289L263.085 25.1084H263.672V24.6084ZM264.125 24.6084V25.1084H264.55L264.618 24.6883L264.125 24.6084ZM264.059 23.9645L263.591 24.1409L263.591 24.1409L264.059 23.9645ZM263.675 23.4145L263.343 23.7892L263.343 23.7892L263.675 23.4145ZM273.209 23.0167L273.209 23.5167L273.241 23.5167L273.272 23.5128L273.209 23.0167ZM273.937 23.0747L273.796 23.5543L273.796 23.5543L273.937 23.0747ZM266.903 23.0201L266.903 22.5201L266.403 22.5204V23.0201H266.903ZM266.903 28.989H266.403V29.489H266.903V28.989ZM267.353 28.989V29.489H267.853V28.989H267.353ZM267.353 26.201V25.701H266.853V26.201H267.353ZM273.207 26.201V26.701H273.239L273.27 26.697L273.207 26.201ZM274.508 26.9118L274.976 26.7355L274.976 26.7355L274.508 26.9118ZM274.558 27.3947L274.064 27.3147L274.058 27.3545V27.3947H274.558ZM274.558 28.9864H274.058V29.4864H274.558V28.9864ZM275.01 28.9864V29.4864H275.51V28.9864H275.01ZM275.01 27.3947L274.514 27.3258L274.51 27.3601V27.3947H275.01ZM274.863 26.6012L274.423 26.8387L274.423 26.8388L274.863 26.6012ZM274.257 26.0016L274.016 25.5638L273.223 26.0016L274.016 26.4393L274.257 26.0016ZM274.863 25.4019L274.423 25.1644L274.423 25.1644L274.863 25.4019ZM275.01 24.6084L274.516 24.5283L274.504 24.6027L274.514 24.6773L275.01 24.6084ZM274.944 23.9645L274.476 24.1408L274.476 24.141L274.944 23.9645ZM274.56 23.4145L274.891 23.0399L274.891 23.0399L274.56 23.4145ZM274.508 24.1255L274.976 23.9491L274.976 23.9491L274.508 24.1255ZM274.558 24.6084L274.064 24.5284L274.051 24.6084L274.064 24.6883L274.558 24.6084ZM273.207 23.4146V23.9146H273.239L273.27 23.9107L273.207 23.4146ZM267.353 23.4146V22.9146H266.853V23.4146H267.353ZM267.353 25.8022H266.853V26.3022H267.353V25.8022ZM273.205 25.8022L273.269 25.3062L273.237 25.3022H273.205V25.8022ZM273.752 25.7593L273.611 25.2795L273.611 25.2795L273.752 25.7593ZM274.219 25.5045L274.55 25.8794L274.55 25.8793L274.219 25.5045ZM274.508 25.0918L274.041 24.915L274.04 24.9153L274.508 25.0918ZM279.59 28.9856V28.4856H279.558L279.527 28.4895L279.59 28.9856ZM278.861 28.9276L279.002 28.448L279.002 28.448L278.861 28.9276ZM284.091 28.9856L284.154 28.4895L284.123 28.4856H284.091V28.9856ZM284.82 28.9276L284.678 28.448L284.678 28.448L284.82 28.9276ZM285.442 28.5877L285.773 28.9624L285.773 28.9624L285.442 28.5877ZM285.826 28.0378L285.358 27.8613L285.358 27.8615L285.826 28.0378ZM285.892 27.3939H285.392V27.4342L285.398 27.4739L285.892 27.3939ZM285.892 24.6059L285.398 24.5258L285.392 24.5656V24.6059H285.892ZM285.826 23.962L285.358 24.1383L285.358 24.1385L285.826 23.962ZM285.442 23.412L285.773 23.0374L285.773 23.0373L285.442 23.412ZM284.82 23.0721L284.961 22.5925L284.961 22.5925L284.82 23.0721ZM284.091 23.0142V23.5142H284.123L284.154 23.5102L284.091 23.0142ZM279.59 23.0142L279.527 23.5102L279.558 23.5142H279.59V23.0142ZM278.861 23.0721L278.72 22.5925L278.72 22.5925L278.861 23.0721ZM278.239 23.412L277.908 23.0373L277.908 23.0374L278.239 23.412ZM277.855 23.962L278.322 24.1385L278.323 24.1383L277.855 23.962ZM277.789 24.6059H278.289V24.5657L278.283 24.526L277.789 24.6059ZM277.789 27.3939L278.283 27.4737L278.289 27.4341V27.3939H277.789ZM277.855 28.0378L278.323 27.8615L278.322 27.8613L277.855 28.0378ZM278.239 28.5877L277.908 28.9624L277.908 28.9624L278.239 28.5877ZM278.287 27.8768L277.819 28.0531L277.819 28.0531L278.287 27.8768ZM278.237 27.3939L278.731 27.4736L278.737 27.434V27.3939H278.237ZM278.575 28.2892L278.906 27.9146L278.906 27.9145L278.575 28.2892ZM279.041 28.5441L279.183 28.0645L279.183 28.0645L279.041 28.5441ZM279.588 28.5877V28.0877H279.556L279.525 28.0916L279.588 28.5877ZM284.089 28.5877L284.152 28.0916L284.121 28.0877H284.089V28.5877ZM284.636 28.5441L284.494 28.0645L284.494 28.0645L284.636 28.5441ZM285.102 28.2892L284.771 27.9145L284.771 27.9146L285.102 28.2892ZM285.391 27.8768L285.858 28.0531L285.858 28.0531L285.391 27.8768ZM285.44 27.3939H284.94V27.4341L284.946 27.4739L285.44 27.3939ZM285.44 24.6059L284.946 24.5259L284.94 24.5656V24.6059H285.44ZM285.391 24.123L285.858 23.9466L285.858 23.9466L285.391 24.123ZM285.102 23.7106L285.433 23.336L285.433 23.3359L285.102 23.7106ZM284.089 23.4121V23.9121H284.121L284.152 23.9082L284.089 23.4121ZM279.588 23.4121L279.525 23.9082L279.556 23.9121H279.588V23.4121ZM278.575 23.7106L278.906 24.0852L278.906 24.0852L278.575 23.7106ZM278.287 24.123L277.819 23.9466L277.819 23.9466L278.287 24.123ZM278.237 24.6059H278.737V24.5658L278.731 24.5262L278.237 24.6059ZM296.325 27.3939H295.825V27.4341L295.831 27.4739L296.325 27.3939ZM296.325 23.0167V22.5167H295.825V23.0167H296.325ZM296.276 27.8768L295.808 27.7004L295.808 27.7004L296.276 27.8768ZM295.987 28.2892L295.656 27.9145L295.656 27.9146L295.987 28.2892ZM295.521 28.5441L295.662 29.0237L295.662 29.0237L295.521 28.5441ZM294.974 28.5877L295.037 28.0916L295.006 28.0877H294.974V28.5877ZM290.473 28.5877V28.0877H290.441L290.41 28.0916L290.473 28.5877ZM289.926 28.5441L289.785 29.0237L289.785 29.0237L289.926 28.5441ZM289.46 28.2892L289.791 27.9146L289.791 27.9146L289.46 28.2892ZM289.172 27.8768L288.704 28.0531L288.704 28.0532L289.172 27.8768ZM289.122 27.3939L289.616 27.4739L289.622 27.4341V27.3939H289.122ZM289.122 23.0167H289.622V22.5167H289.122V23.0167ZM288.672 23.0167V22.5167H288.172V23.0167H288.672ZM288.672 27.3939L289.166 27.4737L289.172 27.4341V27.3939H288.672ZM288.738 28.0378L289.206 27.8615L289.206 27.8613L288.738 28.0378ZM289.122 28.5877L288.791 28.9624L288.791 28.9624L289.122 28.5877ZM289.744 28.9276L289.886 28.448L289.886 28.448L289.744 28.9276ZM290.473 28.9856V28.4856H290.441L290.41 28.4895L290.473 28.9856ZM294.974 28.9856L295.037 28.4895L295.006 28.4856H294.974V28.9856ZM295.703 28.9276L295.561 28.448L295.561 28.448L295.703 28.9276ZM296.325 28.5877L296.656 28.9624L296.656 28.9624L296.325 28.5877ZM296.709 28.0378L296.242 27.8613L296.241 27.8615L296.709 28.0378ZM296.775 27.3939H296.275V27.4341L296.281 27.4737L296.775 27.3939ZM296.775 23.0167H297.275V22.5167H296.775V23.0167ZM306.587 23.0747L306.446 23.5543L306.446 23.5543L306.587 23.0747ZM305.858 23.0167L305.859 23.5167L305.89 23.5167L305.921 23.5128L305.858 23.0167ZM307.209 23.4145L307.54 23.0399L307.54 23.0399L307.209 23.4145ZM307.593 23.9645L307.126 24.1408L307.126 24.141L307.593 23.9645ZM307.659 24.6084L307.166 24.5286L307.153 24.6084L307.166 24.6883L307.659 24.6084ZM307.593 25.2523L307.126 25.0758L307.126 25.076L307.593 25.2523ZM307.209 25.8023L307.54 26.177L307.54 26.1769L307.209 25.8023ZM306.587 26.1421L306.446 25.6625L306.446 25.6625L306.587 26.1421ZM305.858 26.2001L305.921 25.7041L305.89 25.7001H305.858V26.2001ZM300.006 26.2001V25.7001H299.506V26.2001H300.006ZM300.006 28.9881V29.4881H300.506V28.9881H300.006ZM299.556 28.9881H299.056V29.4881H299.556V28.9881ZM299.556 23.0192L299.556 22.5192L299.056 22.5194V23.0192H299.556ZM307.16 24.1255L307.627 23.9491L307.627 23.9491L307.16 24.1255ZM307.21 24.6084L306.716 24.5313L306.704 24.6098L306.716 24.6884L307.21 24.6084ZM307.161 25.0915L307.628 25.2681L307.628 25.2678L307.161 25.0915ZM306.872 25.5041L306.541 25.1294L306.541 25.1294L306.872 25.5041ZM306.405 25.7589L306.264 25.2792L306.264 25.2793L306.405 25.7589ZM305.858 25.8022L305.921 25.3062L305.89 25.3022H305.858V25.8022ZM300.006 25.8022H299.506V26.3022H300.006V25.8022ZM300.006 23.4146V22.9146H299.506V23.4146H300.006ZM305.858 23.4146V23.9146H305.89L305.921 23.9107L305.858 23.4146ZM306.405 23.4582L306.263 23.9378L306.263 23.9378L306.405 23.4582ZM311.301 28.9276L311.443 28.448L311.443 28.448L311.301 28.9276ZM312.03 28.9856V28.4856H311.998L311.967 28.4895L312.03 28.9856ZM310.679 28.5877L310.348 28.9624L310.348 28.9624L310.679 28.5877ZM310.295 28.0378L310.763 27.8615L310.762 27.8613L310.295 28.0378ZM310.229 27.3939V26.8939H309.803L309.735 27.314L310.229 27.3939ZM310.679 27.3939L311.173 27.4739L311.267 26.8939H310.679V27.3939ZM310.728 27.8768L310.261 28.0531L310.261 28.0532L310.728 27.8768ZM311.017 28.2892L311.348 27.9146L311.348 27.9145L311.017 28.2892ZM311.483 28.5441L311.625 28.0645L311.625 28.0645L311.483 28.5441ZM312.03 28.5877V28.0877H311.998L311.967 28.0916L312.03 28.5877ZM316.531 28.5877L316.594 28.0916L316.563 28.0877H316.531V28.5877ZM317.078 28.5441L316.936 28.0645L316.936 28.0645L317.078 28.5441ZM317.544 28.2892L317.213 27.9145L317.213 27.9146L317.544 28.2892ZM317.832 27.8768L318.3 28.0532L318.3 28.0531L317.832 27.8768ZM317.882 27.3939L317.388 27.3142L317.375 27.3939L317.388 27.4736L317.882 27.3939ZM317.832 26.911L318.3 26.7346L318.3 26.7346L317.832 26.911ZM317.544 26.4986L317.875 26.124L317.875 26.1239L317.544 26.4986ZM316.531 26.2001V26.7001H316.563L316.594 26.6962L316.531 26.2001ZM312.03 26.2001V25.7001H311.998L311.967 25.7041L312.03 26.2001ZM311.301 26.1421L311.443 25.6625L311.443 25.6625L311.301 26.1421ZM310.679 25.8023L310.348 26.1769L310.348 26.177L310.679 25.8023ZM310.295 25.2523L310.763 25.076L310.762 25.0758L310.295 25.2523ZM310.229 24.6084L310.723 24.6883L310.736 24.6084L310.723 24.5286L310.229 24.6084ZM310.295 23.9645L310.762 24.141L310.763 24.1408L310.295 23.9645ZM310.679 23.4145L310.348 23.0398L310.348 23.0399L310.679 23.4145ZM311.301 23.0747L311.16 22.595L311.16 22.595L311.301 23.0747ZM312.03 23.0167L311.967 23.5128L311.998 23.5167H312.03V23.0167ZM316.531 23.0167V23.5167H316.563L316.594 23.5128L316.531 23.0167ZM317.259 23.075L317.401 22.5954L317.401 22.5954L317.259 23.075ZM317.881 23.4149L318.213 23.0405L318.212 23.0404L317.881 23.4149ZM318.265 23.9648L318.733 23.7886L318.733 23.7884L318.265 23.9648ZM318.331 24.6084V25.1084H318.756L318.824 24.6883L318.331 24.6084ZM317.881 24.6084L317.387 24.5284L317.293 25.1084H317.881V24.6084ZM317.832 24.1255L318.299 23.9491L318.299 23.9491L317.832 24.1255ZM317.543 23.7131L317.874 23.3385L317.874 23.3385L317.543 23.7131ZM317.077 23.4582L317.218 22.9786L317.218 22.9786L317.077 23.4582ZM316.53 23.4146V23.9146H316.562L316.593 23.9107L316.53 23.4146ZM312.029 23.4146L311.966 23.9107L311.997 23.9146H312.029V23.4146ZM311.482 23.4582L311.341 22.9786L311.341 22.9786L311.482 23.4582ZM311.016 23.7131L311.347 24.0877L311.347 24.0877L311.016 23.7131ZM310.728 24.1255L311.195 24.3019L311.195 24.3019L310.728 24.1255ZM310.678 24.6084L311.172 24.6884L311.185 24.6084L311.172 24.5284L310.678 24.6084ZM310.728 25.0913L311.195 24.9149L311.195 24.9149L310.728 25.0913ZM311.016 25.5037L311.347 25.1291L311.347 25.1291L311.016 25.5037ZM312.029 25.8022V25.3022H311.997L311.966 25.3061L312.029 25.8022ZM316.53 25.8022V26.3022H316.562L316.593 26.2982L316.53 25.8022ZM317.259 25.8601L317.4 25.3805L317.4 25.3805L317.259 25.8601ZM317.881 26.2L318.212 25.8254L318.212 25.8253L317.881 26.2ZM318.265 26.75L317.797 26.9263L317.798 26.9265L318.265 26.75ZM318.331 27.3939L317.837 27.3138L317.824 27.3939L317.837 27.4739L318.331 27.3939ZM318.265 28.0378L317.798 27.8613L317.797 27.8615L318.265 28.0378ZM317.881 28.5877L318.212 28.9624L318.212 28.9624L317.881 28.5877ZM317.259 28.9276L317.117 28.448L317.117 28.448L317.259 28.9276ZM316.53 28.9856L316.593 28.4895L316.562 28.4856H316.53V28.9856ZM321.563 26.1976V25.6976H321.063V26.1976H321.563ZM321.563 28.9856V29.4856H322.063V28.9856H321.563ZM328.768 26.1976H329.268V25.6976H328.768V26.1976ZM328.768 28.9856H328.268V29.4856H328.768V28.9856ZM329.218 28.9856V29.4856H329.718V28.9856H329.218ZM329.218 23.0167H329.718V22.5167H329.218V23.0167ZM328.768 23.0167V22.5167H328.268V23.0167H328.768ZM328.768 25.8047V26.3047H329.268V25.8047H328.768ZM321.563 25.8047H321.063V26.3047H321.563V25.8047ZM321.563 23.0167H322.063V22.5167H321.563V23.0167ZM321.113 23.0167V22.5167H320.613V23.0167H321.113ZM321.113 28.9856H320.613V29.4856H321.113V28.9856ZM333.069 28.927L332.927 29.4065L332.927 29.4065L333.069 28.927ZM333.797 28.9856V28.4856H333.766L333.735 28.4895L333.797 28.9856ZM332.448 28.587L332.779 28.2126L332.779 28.2125L332.448 28.587ZM332.064 28.0373L331.596 28.2135L331.596 28.2135L332.064 28.0373ZM331.998 27.3939L332.492 27.4738L332.498 27.4341V27.3939H331.998ZM331.998 24.6059H332.498V24.5656L332.492 24.5258L331.998 24.6059ZM332.064 23.962L332.532 24.1385L332.532 24.1383L332.064 23.962ZM332.448 23.412L332.117 23.0373L332.117 23.0374L332.448 23.412ZM333.07 23.0721L332.929 22.5925L332.929 22.5925L333.07 23.0721ZM333.799 23.0142L333.736 23.5102L333.767 23.5142H333.799V23.0142ZM338.306 23.0142V23.5142H338.338L338.369 23.5102L338.306 23.0142ZM339.035 23.0721L339.176 22.5925L339.176 22.5925L339.035 23.0721ZM339.657 23.412L339.988 23.0374L339.988 23.0373L339.657 23.412ZM340.041 23.962L339.573 24.1383L339.573 24.1385L340.041 23.962ZM340.107 24.6059L339.613 24.526L339.607 24.5657V24.6059H340.107ZM340.107 27.3939H339.607V27.4341L339.613 27.4737L340.107 27.3939ZM340.041 28.0378L339.573 27.8613L339.573 27.8615L340.041 28.0378ZM339.657 28.5877L339.988 28.9624L339.988 28.9624L339.657 28.5877ZM339.035 28.9276L338.893 28.448L338.893 28.448L339.035 28.9276ZM338.306 28.9856L338.369 28.4895L338.338 28.4856H338.306V28.9856ZM332.446 27.3939L332.94 27.4739L332.946 27.4348L332.946 27.3952L332.446 27.3939ZM332.496 27.8768L332.028 28.0531L332.028 28.0531L332.496 27.8768ZM332.454 24.6084L332.954 24.6098L332.954 24.569L332.948 24.5287L332.454 24.6084ZM332.503 24.1255L332.035 23.9491L332.035 23.9491L332.503 24.1255ZM333.258 23.4582L333.4 23.9378L333.4 23.9378L333.258 23.4582ZM333.804 23.4146L333.742 23.9107L333.773 23.9146H333.804V23.4146ZM338.306 23.4146V23.9146H338.337L338.369 23.9107L338.306 23.4146ZM338.852 23.4581L338.993 22.9785L338.993 22.9785L338.852 23.4581ZM339.318 23.7124L338.987 24.0873L338.987 24.0873L339.318 23.7124ZM339.606 24.1238L339.139 24.301L339.139 24.3013L339.606 24.1238ZM339.657 24.6059L339.163 24.5278L339.157 24.5666V24.6059H339.657ZM339.657 27.3939H339.157V27.434L339.163 27.4736L339.657 27.3939ZM339.607 27.8768L339.139 27.7003L339.139 27.7004L339.607 27.8768ZM339.319 28.2892L338.988 27.9145L338.988 27.9146L339.319 28.2892ZM338.852 28.5441L338.711 28.0645L338.711 28.0645L338.852 28.5441ZM338.306 28.5877L338.369 28.0916L338.337 28.0877H338.306V28.5877ZM333.797 28.5877V28.0877H333.766L333.734 28.0916L333.797 28.5877ZM333.251 28.5441L333.109 29.0237L333.109 29.0237L333.251 28.5441ZM332.784 28.2892L333.115 27.9146L333.115 27.9145L332.784 28.2892ZM349.912 23.0747L350.053 22.595L350.053 22.595L349.912 23.0747ZM349.184 23.0167L349.184 23.5167L349.215 23.5167L349.246 23.5128L349.184 23.0167ZM350.534 23.4145L350.203 23.7892L350.203 23.7893L350.534 23.4145ZM350.918 23.9645L350.45 24.1395L350.451 24.1414L350.918 23.9645ZM350.984 24.6084L350.49 24.5298L350.478 24.6084L350.49 24.687L350.984 24.6084ZM350.918 25.2523L350.451 25.0754L350.45 25.0773L350.918 25.2523ZM350.534 25.8023L350.203 25.4275L350.203 25.4276L350.534 25.8023ZM349.912 26.1421L349.771 25.6625L349.771 25.6625L349.912 26.1421ZM349.184 26.2001L349.246 25.7041L349.215 25.7001H349.184V26.2001ZM343.333 26.2001V25.7001H342.833V26.2001H343.333ZM343.333 28.9881V29.4881H343.833V28.9881H343.333ZM342.883 28.9881H342.383V29.4881H342.883V28.9881ZM342.883 23.0192L342.883 22.5192L342.383 22.5194V23.0192H342.883ZM350.534 24.6084L350.04 24.5298L349.948 25.1084H350.534V24.6084ZM350.485 24.1255L350.017 24.3019L350.017 24.3029L350.485 24.1255ZM350.54 24.6084L351.034 24.53L350.967 24.1084H350.54V24.6084ZM350.49 25.0923L350.023 24.9149L350.023 24.9154L350.49 25.0923ZM350.201 25.5053L349.87 25.1301L349.87 25.1301L350.201 25.5053ZM349.733 25.7599L349.873 26.2398L349.873 26.2398L349.733 25.7599ZM349.185 25.8022L349.25 25.3063L349.218 25.3022H349.185V25.8022ZM343.333 25.8022H342.833V26.3022H343.333V25.8022ZM343.333 23.4146V22.9146H342.833V23.4146H343.333ZM349.184 23.4146V23.9146H349.215L349.246 23.9107L349.184 23.4146ZM349.73 23.4582L349.871 22.9786L349.871 22.9786L349.73 23.4582ZM350.196 23.7131L349.865 24.0877L349.865 24.0877L350.196 23.7131ZM262.387 23.5128C262.564 23.4904 262.743 23.5049 262.911 23.5543L263.194 22.595C262.893 22.5063 262.574 22.4812 262.261 22.5207L262.387 23.5128ZM257.816 23.5142L262.324 23.5167L262.324 22.5167L257.817 22.5142L257.816 23.5142ZM257.23 23.5518C257.397 23.5024 257.577 23.4879 257.754 23.5102L257.879 22.5181C257.567 22.4786 257.248 22.5038 256.947 22.5925L257.23 23.5518ZM256.797 23.7866C256.915 23.683 257.062 23.6011 257.23 23.5518L256.947 22.5925C256.646 22.6812 256.367 22.8321 256.135 23.0374L256.797 23.7866ZM256.55 24.1384C256.597 24.0114 256.68 23.8901 256.797 23.7866L256.135 23.0374C255.903 23.2428 255.722 23.4981 255.614 23.7856L256.55 24.1384ZM256.51 24.526C256.489 24.397 256.502 24.2648 256.55 24.1383L255.614 23.7856C255.505 24.0736 255.473 24.3823 255.523 24.6857L256.51 24.526ZM256.516 27.3939V24.6059H255.516V27.3939H256.516ZM256.55 27.8618C256.502 27.7352 256.489 27.603 256.51 27.4739L255.523 27.3139C255.473 27.6175 255.505 27.9265 255.614 28.2147L256.55 27.8618ZM256.798 28.2137C256.68 28.1102 256.597 27.9888 256.55 27.8618L255.614 28.2147C255.722 28.5025 255.903 28.7578 256.136 28.9633L256.798 28.2137ZM257.23 28.4485C257.063 28.3992 256.915 28.3174 256.798 28.2137L256.136 28.9633C256.368 29.1686 256.647 29.3194 256.949 29.408L257.23 28.4485ZM257.755 28.4896C257.578 28.5122 257.398 28.4978 257.23 28.4485L256.949 29.408C257.25 29.4965 257.569 29.5214 257.882 29.4816L257.755 28.4896ZM262.324 28.4856H257.819V29.4856H262.324V28.4856ZM262.908 28.447C262.741 28.4964 262.562 28.5113 262.386 28.4894L262.263 29.4818C262.574 29.5204 262.892 29.4947 263.192 29.4058L262.908 28.447ZM263.339 28.2124C263.222 28.3158 263.076 28.3975 262.908 28.447L263.192 29.4058C263.493 29.3169 263.77 29.1662 264.002 28.9615L263.339 28.2124ZM263.587 27.8617C263.539 27.9882 263.456 28.1092 263.339 28.2124L264.002 28.9615C264.234 28.7565 264.414 28.502 264.522 28.2154L263.587 27.8617ZM263.627 27.4751C263.648 27.6038 263.634 27.7356 263.587 27.8617L264.522 28.2154C264.631 27.9283 264.663 27.6205 264.615 27.3178L263.627 27.4751ZM263.621 25.8047V27.3964H264.621V25.8047H263.621ZM259.619 26.3047H264.121V25.3047H259.619V26.3047ZM260.119 26.2026V25.8047H259.119V26.2026H260.119ZM263.674 25.7026H259.619V26.7026H263.674V25.7026ZM264.174 27.3964V26.2026H263.174V27.3964H264.174ZM264.093 28.0557C264.182 27.8196 264.208 27.566 264.168 27.3167L263.181 27.4761C263.193 27.5511 263.186 27.6282 263.157 27.7028L264.093 28.0557ZM263.668 28.6663C263.857 28.4995 264.004 28.2914 264.093 28.0557L263.157 27.7028C263.129 27.778 263.079 27.8523 263.006 27.9171L263.668 28.6663ZM263.012 29.0262C263.254 28.9548 263.48 28.833 263.668 28.6663L263.006 27.9171C262.932 27.9821 262.838 28.0349 262.729 28.067L263.012 29.0262ZM262.261 29.0863C262.513 29.118 262.769 29.0977 263.012 29.0262L262.729 28.067C262.62 28.0992 262.502 28.1087 262.387 28.0941L262.261 29.0863ZM257.819 29.0902H262.324V28.0902H257.819V29.0902ZM257.131 29.0262C257.374 29.0977 257.63 29.118 257.881 29.0863L257.756 28.0941C257.64 28.1087 257.523 28.0992 257.414 28.067L257.131 29.0262ZM256.475 28.6663C256.663 28.8329 256.888 28.9547 257.131 29.0262L257.414 28.067C257.305 28.0349 257.211 27.9821 257.137 27.9171L256.475 28.6663ZM256.05 28.0557C256.138 28.2914 256.286 28.4995 256.475 28.6663L257.137 27.9171C257.064 27.8523 257.014 27.778 256.985 27.7028L256.05 28.0557ZM255.975 27.3167C255.934 27.566 255.961 27.8196 256.05 28.0557L256.985 27.7028C256.957 27.6282 256.95 27.5511 256.962 27.4762L255.975 27.3167ZM255.968 24.6084V27.3964H256.968V24.6084H255.968ZM256.05 23.9491C255.961 24.1852 255.934 24.4388 255.975 24.6881L256.962 24.5287C256.95 24.4537 256.957 24.3766 256.985 24.302L256.05 23.9491ZM256.475 23.3385C256.286 23.5053 256.138 23.7134 256.05 23.9491L256.985 24.302C257.014 24.2268 257.064 24.1526 257.137 24.0877L256.475 23.3385ZM257.131 22.9786C256.888 23.0501 256.663 23.1719 256.475 23.3385L257.137 24.0877C257.211 24.0227 257.305 23.9699 257.414 23.9378L257.131 22.9786ZM257.881 22.9186C257.63 22.8869 257.374 22.9071 257.131 22.9786L257.414 23.9378C257.523 23.9057 257.64 23.8961 257.756 23.9107L257.881 22.9186ZM262.324 22.9146H257.819V23.9146H262.324V22.9146ZM263.011 22.9798C262.769 22.908 262.513 22.8873 262.263 22.9184L262.386 23.9108C262.501 23.8965 262.618 23.9063 262.727 23.9385L263.011 22.9798ZM263.666 23.34C263.478 23.1734 263.254 23.0515 263.011 22.9798L262.727 23.9385C262.836 23.9708 262.93 24.0235 263.003 24.0885L263.666 23.34ZM264.09 23.95C264.002 23.7147 263.855 23.5068 263.666 23.34L263.003 24.0885C263.076 24.1533 263.126 24.2275 263.155 24.3025L264.09 23.95ZM264.165 24.6879C264.205 24.439 264.179 24.1858 264.09 23.95L263.155 24.3025C263.183 24.3771 263.19 24.454 263.178 24.5289L264.165 24.6879ZM264.125 24.1084H263.672V25.1084H264.125V24.1084ZM263.591 24.1409C263.639 24.2673 263.652 24.3995 263.631 24.5285L264.618 24.6883C264.667 24.3849 264.636 24.0761 264.527 23.7881L263.591 24.1409ZM263.343 23.7892C263.46 23.8926 263.543 24.014 263.591 24.1409L264.527 23.7881C264.419 23.5006 264.238 23.2454 264.006 23.0399L263.343 23.7892ZM262.911 23.5543C263.079 23.6037 263.226 23.6855 263.343 23.7892L264.006 23.0399C263.774 22.8347 263.495 22.6838 263.194 22.595L262.911 23.5543ZM273.272 23.5128C273.449 23.4904 273.629 23.5049 273.796 23.5543L274.079 22.595C273.778 22.5063 273.459 22.4812 273.146 22.5207L273.272 23.5128ZM266.903 23.5201L273.209 23.5167L273.209 22.5167L266.903 22.5201L266.903 23.5201ZM267.403 28.989V23.0201H266.403V28.989H267.403ZM267.353 28.489H266.903V29.489H267.353V28.489ZM266.853 26.201V28.989H267.853V26.201H266.853ZM273.207 25.701H267.353V26.701H273.207V25.701ZM273.895 25.7649C273.652 25.6934 273.396 25.6732 273.144 25.7049L273.27 26.697C273.385 26.6824 273.503 26.692 273.612 26.7241L273.895 25.7649ZM274.551 26.1248C274.363 25.9581 274.137 25.8364 273.895 25.7649L273.612 26.7241C273.721 26.7563 273.815 26.809 273.889 26.874L274.551 26.1248ZM274.976 26.7355C274.887 26.4997 274.74 26.2916 274.551 26.1248L273.889 26.874C273.962 26.9389 274.012 27.0132 274.04 27.0882L274.976 26.7355ZM275.051 27.4747C275.092 27.2251 275.065 26.9715 274.976 26.7355L274.04 27.0882C274.069 27.163 274.076 27.24 274.064 27.3147L275.051 27.4747ZM275.058 28.9864V27.3947H274.058V28.9864H275.058ZM275.01 28.4864H274.558V29.4864H275.01V28.4864ZM274.51 27.3947V28.9864H275.51V27.3947H274.51ZM274.423 26.8388C274.507 26.9944 274.537 27.1626 274.514 27.3258L275.505 27.4636C275.558 27.084 275.486 26.7016 275.303 26.3637L274.423 26.8388ZM274.016 26.4393C274.2 26.5411 274.339 26.6822 274.423 26.8387L275.303 26.3637C275.121 26.0267 274.839 25.7516 274.499 25.5638L274.016 26.4393ZM274.423 25.1644C274.339 25.3209 274.2 25.462 274.016 25.5638L274.499 26.4393C274.839 26.2515 275.121 25.9765 275.303 25.6394L274.423 25.1644ZM274.514 24.6773C274.537 24.8405 274.507 25.0087 274.423 25.1644L275.303 25.6394C275.486 25.3015 275.558 24.9191 275.505 24.5395L274.514 24.6773ZM274.476 24.141C274.524 24.2674 274.537 24.3995 274.516 24.5283L275.503 24.6885C275.552 24.3849 275.521 24.0761 275.412 23.788L274.476 24.141ZM274.229 23.7892C274.346 23.8926 274.428 24.0139 274.476 24.1408L275.412 23.7882C275.304 23.5007 275.123 23.2454 274.891 23.0399L274.229 23.7892ZM273.796 23.5543C273.964 23.6037 274.111 23.6855 274.229 23.7892L274.891 23.0399C274.659 22.8347 274.38 22.6838 274.079 22.595L273.796 23.5543ZM274.04 24.3019C274.069 24.3767 274.076 24.4537 274.064 24.5284L275.051 24.6884C275.092 24.4388 275.065 24.1852 274.976 23.9491L274.04 24.3019ZM273.889 24.0877C273.962 24.1526 274.012 24.2268 274.04 24.3019L274.976 23.9491C274.887 23.7134 274.74 23.5053 274.551 23.3385L273.889 24.0877ZM273.612 23.9378C273.721 23.97 273.815 24.0227 273.889 24.0877L274.551 23.3385C274.363 23.1718 274.137 23.0501 273.895 22.9786L273.612 23.9378ZM273.27 23.9107C273.385 23.8961 273.503 23.9057 273.612 23.9378L273.895 22.9786C273.652 22.9071 273.396 22.8869 273.144 22.9186L273.27 23.9107ZM267.353 23.9146H273.207V22.9146H267.353V23.9146ZM267.853 25.8022V23.4146H266.853V25.8022H267.853ZM273.205 25.3022H267.353V26.3022H273.205V25.3022ZM273.611 25.2795C273.502 25.3115 273.384 25.321 273.269 25.3062L273.142 26.2982C273.393 26.3303 273.65 26.3103 273.893 26.239L273.611 25.2795ZM273.889 25.1296C273.815 25.1947 273.72 25.2474 273.611 25.2795L273.893 26.239C274.136 26.1677 274.361 26.046 274.55 25.8794L273.889 25.1296ZM274.04 24.9153C274.012 24.9904 273.962 25.0648 273.888 25.1297L274.55 25.8793C274.739 25.7125 274.887 25.5042 274.976 25.2683L274.04 24.9153ZM274.064 24.6883C274.076 24.7635 274.069 24.8405 274.041 24.915L274.976 25.2685C275.065 25.0319 275.092 24.778 275.051 24.5285L274.064 24.6883ZM279.527 28.4895C279.35 28.5119 279.17 28.4974 279.002 28.448L278.72 29.4072C279.021 29.4959 279.34 29.5211 279.652 29.4816L279.527 28.4895ZM284.091 28.4856H279.59V29.4856H284.091V28.4856ZM284.678 28.448C284.511 28.4974 284.331 28.5119 284.154 28.4895L284.028 29.4816C284.341 29.5211 284.66 29.496 284.961 29.4072L284.678 28.448ZM285.111 28.213C284.993 28.3168 284.846 28.3986 284.678 28.448L284.961 29.4072C285.262 29.3185 285.541 29.1676 285.773 28.9624L285.111 28.213ZM285.358 27.8615C285.311 27.9884 285.228 28.1097 285.111 28.2131L285.773 28.9624C286.005 28.7569 286.186 28.5016 286.294 28.2141L285.358 27.8615ZM285.398 27.4739C285.419 27.6028 285.406 27.7349 285.358 27.8613L286.294 28.2143C286.403 27.9262 286.435 27.6174 286.385 27.3138L285.398 27.4739ZM285.392 24.6059V27.3939H286.392V24.6059H285.392ZM285.358 24.1385C285.406 24.2649 285.419 24.3969 285.398 24.5258L286.385 24.6859C286.435 24.3824 286.403 24.0735 286.294 23.7855L285.358 24.1385ZM285.111 23.7866C285.228 23.89 285.311 24.0114 285.358 24.1383L286.294 23.7857C286.186 23.4981 286.005 23.2429 285.773 23.0374L285.111 23.7866ZM284.678 23.5518C284.846 23.6011 284.993 23.6829 285.111 23.7867L285.773 23.0373C285.541 22.8322 285.262 22.6812 284.961 22.5925L284.678 23.5518ZM284.154 23.5102C284.331 23.4879 284.511 23.5024 284.678 23.5518L284.961 22.5925C284.66 22.5038 284.341 22.4786 284.028 22.5181L284.154 23.5102ZM279.59 23.5142H284.091V22.5142H279.59V23.5142ZM279.002 23.5518C279.17 23.5024 279.35 23.4879 279.527 23.5102L279.652 22.5181C279.34 22.4786 279.021 22.5038 278.72 22.5925L279.002 23.5518ZM278.57 23.7867C278.688 23.6829 278.835 23.6011 279.002 23.5518L278.72 22.5925C278.419 22.6812 278.14 22.8322 277.908 23.0373L278.57 23.7867ZM278.323 24.1383C278.37 24.0114 278.453 23.89 278.57 23.7866L277.908 23.0374C277.675 23.2429 277.495 23.4981 277.387 23.7857L278.323 24.1383ZM278.283 24.526C278.262 24.397 278.275 24.2649 278.322 24.1385L277.387 23.7855C277.278 24.0735 277.246 24.3823 277.295 24.6857L278.283 24.526ZM278.289 27.3939V24.6059H277.289V27.3939H278.289ZM278.322 27.8613C278.275 27.7349 278.262 27.6028 278.283 27.4737L277.295 27.314C277.246 27.6174 277.278 27.9262 277.387 28.2143L278.322 27.8613ZM278.57 28.2131C278.453 28.1097 278.37 27.9884 278.323 27.8615L277.387 28.2141C277.495 28.5016 277.675 28.7569 277.908 28.9624L278.57 28.2131ZM279.002 28.448C278.835 28.3986 278.688 28.3168 278.57 28.213L277.908 28.9624C278.14 29.1676 278.419 29.3185 278.72 29.4072L279.002 28.448ZM278.754 27.7004C278.726 27.6256 278.719 27.5485 278.731 27.4736L277.744 27.3142C277.703 27.5636 277.73 27.8171 277.819 28.0531L278.754 27.7004ZM278.906 27.9145C278.833 27.8497 278.783 27.7755 278.754 27.7004L277.819 28.0531C277.908 28.2888 278.055 28.497 278.244 28.6638L278.906 27.9145ZM279.183 28.0645C279.074 28.0323 278.98 27.9796 278.906 27.9146L278.244 28.6638C278.432 28.8304 278.658 28.9522 278.9 29.0237L279.183 28.0645ZM279.525 28.0916C279.409 28.1062 279.292 28.0966 279.183 28.0645L278.9 29.0237C279.143 29.0952 279.399 29.1154 279.65 29.0837L279.525 28.0916ZM284.089 28.0877H279.588V29.0877H284.089V28.0877ZM284.494 28.0645C284.385 28.0966 284.268 28.1062 284.152 28.0916L284.027 29.0837C284.278 29.1154 284.534 29.0952 284.777 29.0237L284.494 28.0645ZM284.771 27.9146C284.697 27.9796 284.603 28.0323 284.494 28.0645L284.777 29.0237C285.019 28.9522 285.245 28.8304 285.433 28.6638L284.771 27.9146ZM284.923 27.7004C284.894 27.7755 284.844 27.8497 284.771 27.9145L285.433 28.6638C285.622 28.497 285.769 28.2888 285.858 28.0531L284.923 27.7004ZM284.946 27.4739C284.958 27.5486 284.951 27.6256 284.923 27.7004L285.858 28.0531C285.947 27.8171 285.974 27.5635 285.933 27.3139L284.946 27.4739ZM284.94 24.6059V27.3939H285.94V24.6059H284.94ZM284.923 24.2994C284.951 24.3742 284.958 24.4512 284.946 24.5259L285.933 24.6859C285.974 24.4363 285.947 24.1826 285.858 23.9466L284.923 24.2994ZM284.771 24.0852C284.844 24.15 284.894 24.2243 284.923 24.2994L285.858 23.9466C285.769 23.7109 285.622 23.5028 285.433 23.336L284.771 24.0852ZM284.494 23.9353C284.603 23.9674 284.697 24.0202 284.771 24.0852L285.433 23.3359C285.245 23.1693 285.019 23.0475 284.777 22.9761L284.494 23.9353ZM284.152 23.9082C284.268 23.8936 284.385 23.9031 284.494 23.9353L284.777 22.9761C284.534 22.9046 284.278 22.8843 284.027 22.916L284.152 23.9082ZM279.588 23.9121H284.089V22.9121H279.588V23.9121ZM279.183 23.9353C279.292 23.9031 279.409 23.8936 279.525 23.9082L279.65 22.916C279.399 22.8843 279.143 22.9046 278.9 22.9761L279.183 23.9353ZM278.906 24.0852C278.98 24.0202 279.074 23.9674 279.183 23.9353L278.9 22.9761C278.658 23.0475 278.432 23.1693 278.244 23.336L278.906 24.0852ZM278.754 24.2994C278.783 24.2243 278.833 24.15 278.906 24.0852L278.244 23.3359C278.055 23.5028 277.908 23.7109 277.819 23.9466L278.754 24.2994ZM278.731 24.5262C278.719 24.4513 278.726 24.3742 278.754 24.2994L277.819 23.9466C277.73 24.1826 277.703 24.4362 277.744 24.6856L278.731 24.5262ZM278.737 27.3939V24.6059H277.737V27.3939H278.737ZM296.825 27.3939V23.0167H295.825V27.3939H296.825ZM296.743 28.0532C296.832 27.8171 296.859 27.5635 296.818 27.3139L295.831 27.4739C295.843 27.5486 295.836 27.6256 295.808 27.7004L296.743 28.0532ZM296.318 28.6638C296.507 28.497 296.655 28.2888 296.743 28.0531L295.808 27.7004C295.779 27.7755 295.729 27.8497 295.656 27.9145L296.318 28.6638ZM295.662 29.0237C295.904 28.9522 296.13 28.8304 296.318 28.6638L295.656 27.9146C295.582 27.9796 295.488 28.0323 295.379 28.0645L295.662 29.0237ZM294.912 29.0837C295.163 29.1154 295.419 29.0952 295.662 29.0237L295.379 28.0645C295.27 28.0966 295.153 28.1062 295.037 28.0916L294.912 29.0837ZM290.473 29.0877H294.974V28.0877H290.473V29.0877ZM289.785 29.0237C290.028 29.0952 290.284 29.1154 290.535 29.0837L290.41 28.0916C290.294 28.1062 290.177 28.0966 290.068 28.0645L289.785 29.0237ZM289.129 28.6638C289.317 28.8304 289.543 28.9522 289.785 29.0237L290.068 28.0645C289.959 28.0323 289.865 27.9796 289.791 27.9146L289.129 28.6638ZM288.704 28.0532C288.793 28.2888 288.94 28.497 289.129 28.6638L289.791 27.9146C289.718 27.8497 289.668 27.7755 289.639 27.7004L288.704 28.0532ZM288.629 27.3139C288.588 27.5635 288.615 27.8171 288.704 28.0531L289.639 27.7004C289.611 27.6256 289.604 27.5486 289.616 27.4739L288.629 27.3139ZM288.622 23.0167V27.3939H289.622V23.0167H288.622ZM288.672 23.5167H289.122V22.5167H288.672V23.5167ZM289.172 27.3939V23.0167H288.172V27.3939H289.172ZM289.206 27.8613C289.158 27.7349 289.145 27.6028 289.166 27.4737L288.178 27.314C288.129 27.6174 288.161 27.9262 288.27 28.2143L289.206 27.8613ZM289.453 28.2131C289.336 28.1097 289.253 27.9884 289.206 27.8615L288.27 28.2141C288.378 28.5016 288.559 28.7569 288.791 28.9624L289.453 28.2131ZM289.886 28.448C289.718 28.3986 289.571 28.3168 289.453 28.213L288.791 28.9624C289.023 29.1676 289.302 29.3185 289.603 29.4072L289.886 28.448ZM290.41 28.4895C290.233 28.5119 290.053 28.4974 289.886 28.448L289.603 29.4072C289.904 29.4959 290.223 29.5211 290.535 29.4816L290.41 28.4895ZM294.974 28.4856H290.473V29.4856H294.974V28.4856ZM295.561 28.448C295.394 28.4974 295.214 28.5119 295.037 28.4895L294.912 29.4816C295.224 29.5211 295.543 29.4959 295.844 29.4072L295.561 28.448ZM295.994 28.213C295.876 28.3168 295.729 28.3986 295.561 28.448L295.844 29.4072C296.145 29.3185 296.424 29.1676 296.656 28.9624L295.994 28.213ZM296.241 27.8615C296.194 27.9884 296.111 28.1097 295.994 28.2131L296.656 28.9624C296.889 28.7569 297.069 28.5016 297.177 28.2141L296.241 27.8615ZM296.281 27.4737C296.302 27.6028 296.289 27.7349 296.242 27.8613L297.177 28.2143C297.286 27.9262 297.318 27.6174 297.269 27.314L296.281 27.4737ZM296.275 23.0167V27.3939H297.275V23.0167H296.275ZM296.325 23.5167H296.775V22.5167H296.325V23.5167ZM306.728 22.595C306.427 22.5063 306.108 22.4812 305.796 22.5207L305.921 23.5128C306.098 23.4904 306.278 23.5049 306.446 23.5543L306.728 22.595ZM307.54 23.0399C307.308 22.8347 307.029 22.6838 306.728 22.595L306.446 23.5543C306.613 23.6037 306.761 23.6855 306.878 23.7892L307.54 23.0399ZM308.061 23.7882C307.953 23.5007 307.773 23.2454 307.54 23.0399L306.878 23.7892C306.995 23.8926 307.078 24.0139 307.126 24.1408L308.061 23.7882ZM308.153 24.6883C308.202 24.3848 308.17 24.0761 308.061 23.788L307.126 24.141C307.173 24.2674 307.186 24.3995 307.166 24.5286L308.153 24.6883ZM308.061 25.4288C308.17 25.1408 308.202 24.832 308.153 24.5286L307.166 24.6883C307.186 24.8173 307.173 24.9494 307.126 25.0758L308.061 25.4288ZM307.54 26.1769C307.773 25.9714 307.953 25.7161 308.061 25.4286L307.126 25.076C307.078 25.2029 306.995 25.3242 306.878 25.4277L307.54 26.1769ZM306.728 26.6218C307.029 26.533 307.308 26.3821 307.54 26.177L306.878 25.4276C306.761 25.5313 306.613 25.6131 306.446 25.6625L306.728 26.6218ZM305.796 26.6962C306.108 26.7357 306.427 26.7105 306.728 26.6218L306.446 25.6625C306.278 25.7119 306.098 25.7264 305.921 25.7041L305.796 26.6962ZM300.006 26.7001H305.858V25.7001H300.006V26.7001ZM300.506 28.9881V26.2001H299.506V28.9881H300.506ZM299.556 29.4881H300.006V28.4881H299.556V29.4881ZM299.056 23.0192V28.9881H300.056V23.0192H299.056ZM305.858 22.5167L299.556 22.5192L299.556 23.5192L305.859 23.5167L305.858 22.5167ZM307.627 23.9491C307.539 23.7134 307.391 23.5053 307.202 23.3385L306.54 24.0877C306.613 24.1526 306.663 24.2268 306.692 24.3019L307.627 23.9491ZM307.704 24.6856C307.742 24.4378 307.716 24.1852 307.627 23.9491L306.692 24.3019C306.72 24.3767 306.728 24.4547 306.716 24.5313L307.704 24.6856ZM307.628 25.2678C307.717 25.0318 307.744 24.7781 307.703 24.5284L306.716 24.6884C306.728 24.7632 306.721 24.8403 306.693 24.9152L307.628 25.2678ZM307.203 25.8788C307.392 25.712 307.539 25.5038 307.628 25.2681L306.693 24.915C306.664 24.9902 306.614 25.0645 306.541 25.1294L307.203 25.8788ZM306.546 26.2386C306.789 26.1672 307.014 26.0455 307.203 25.8788L306.541 25.1294C306.467 25.1944 306.373 25.2471 306.264 25.2792L306.546 26.2386ZM305.795 26.2982C306.047 26.3301 306.303 26.31 306.546 26.2386L306.264 25.2793C306.155 25.3113 306.037 25.3209 305.921 25.3062L305.795 26.2982ZM300.006 26.3022H305.858V25.3022H300.006V26.3022ZM299.506 23.4146V25.8022H300.506V23.4146H299.506ZM305.858 22.9146H300.006V23.9146H305.858V22.9146ZM306.546 22.9786C306.304 22.9071 306.047 22.8869 305.796 22.9186L305.921 23.9107C306.037 23.8961 306.154 23.9057 306.263 23.9378L306.546 22.9786ZM307.202 23.3385C307.014 23.1718 306.788 23.0501 306.546 22.9786L306.263 23.9378C306.372 23.97 306.467 24.0227 306.54 24.0877L307.202 23.3385ZM311.16 29.4072C311.461 29.4959 311.78 29.5211 312.092 29.4816L311.967 28.4895C311.79 28.5119 311.61 28.4974 311.443 28.448L311.16 29.4072ZM310.348 28.9624C310.58 29.1676 310.859 29.3185 311.16 29.4072L311.443 28.448C311.275 28.3986 311.128 28.3168 311.01 28.213L310.348 28.9624ZM309.827 28.2141C309.935 28.5016 310.115 28.7569 310.348 28.9624L311.01 28.2131C310.893 28.1097 310.81 27.9884 310.763 27.8615L309.827 28.2141ZM309.735 27.314C309.686 27.6174 309.718 27.9262 309.827 28.2143L310.762 27.8613C310.715 27.7349 310.702 27.6028 310.723 27.4737L309.735 27.314ZM310.679 26.8939H310.229V27.8939H310.679V26.8939ZM311.196 27.7004C311.168 27.6256 311.161 27.5486 311.173 27.4739L310.186 27.3139C310.145 27.5635 310.172 27.8171 310.261 28.0531L311.196 27.7004ZM311.348 27.9145C311.275 27.8497 311.225 27.7755 311.196 27.7004L310.261 28.0532C310.349 28.2888 310.497 28.497 310.686 28.6638L311.348 27.9145ZM311.625 28.0645C311.516 28.0323 311.422 27.9796 311.348 27.9146L310.686 28.6638C310.874 28.8304 311.1 28.9522 311.342 29.0237L311.625 28.0645ZM311.967 28.0916C311.851 28.1062 311.734 28.0966 311.625 28.0645L311.342 29.0237C311.585 29.0952 311.841 29.1154 312.092 29.0837L311.967 28.0916ZM316.531 28.0877H312.03V29.0877H316.531V28.0877ZM316.936 28.0645C316.827 28.0966 316.71 28.1062 316.594 28.0916L316.469 29.0837C316.72 29.1154 316.976 29.0952 317.219 29.0237L316.936 28.0645ZM317.213 27.9146C317.139 27.9796 317.045 28.0323 316.936 28.0645L317.219 29.0237C317.461 28.9522 317.687 28.8304 317.875 28.6638L317.213 27.9146ZM317.365 27.7004C317.336 27.7755 317.286 27.8497 317.213 27.9145L317.875 28.6638C318.064 28.497 318.211 28.2888 318.3 28.0532L317.365 27.7004ZM317.388 27.4736C317.4 27.5485 317.393 27.6256 317.365 27.7004L318.3 28.0531C318.389 27.8171 318.416 27.5636 318.375 27.3142L317.388 27.4736ZM317.365 27.0874C317.393 27.1622 317.4 27.2393 317.388 27.3142L318.375 27.4736C318.416 27.2242 318.389 26.9706 318.3 26.7346L317.365 27.0874ZM317.213 26.8732C317.286 26.938 317.336 27.0123 317.365 27.0874L318.3 26.7346C318.211 26.4989 318.064 26.2908 317.875 26.124L317.213 26.8732ZM316.936 26.7233C317.045 26.7554 317.139 26.8082 317.213 26.8732L317.875 26.1239C317.687 25.9573 317.461 25.8355 317.219 25.7641L316.936 26.7233ZM316.594 26.6962C316.71 26.6816 316.827 26.6911 316.936 26.7233L317.219 25.7641C316.976 25.6926 316.72 25.6723 316.469 25.704L316.594 26.6962ZM312.03 26.7001H316.531V25.7001H312.03V26.7001ZM311.16 26.6218C311.461 26.7105 311.78 26.7357 312.092 26.6962L311.967 25.7041C311.79 25.7264 311.61 25.7119 311.443 25.6625L311.16 26.6218ZM310.348 26.177C310.58 26.3821 310.859 26.533 311.16 26.6218L311.443 25.6625C311.275 25.6131 311.128 25.5313 311.01 25.4276L310.348 26.177ZM309.827 25.4286C309.935 25.7161 310.115 25.9714 310.348 26.1769L311.01 25.4277C310.893 25.3242 310.81 25.2029 310.763 25.076L309.827 25.4286ZM309.735 24.5286C309.686 24.832 309.718 25.1408 309.827 25.4288L310.762 25.0758C310.715 24.9494 310.702 24.8173 310.723 24.6883L309.735 24.5286ZM309.827 23.788C309.718 24.0761 309.686 24.3848 309.735 24.6883L310.723 24.5286C310.702 24.3995 310.715 24.2674 310.762 24.141L309.827 23.788ZM310.348 23.0399C310.115 23.2454 309.935 23.5007 309.827 23.7882L310.763 24.1408C310.81 24.0139 310.893 23.8926 311.01 23.7892L310.348 23.0399ZM311.16 22.595C310.859 22.6838 310.58 22.8347 310.348 23.0398L311.01 23.7892C311.128 23.6855 311.275 23.6037 311.443 23.5543L311.16 22.595ZM312.092 22.5207C311.78 22.4812 311.461 22.5063 311.16 22.595L311.443 23.5543C311.61 23.5049 311.79 23.4904 311.967 23.5128L312.092 22.5207ZM316.531 22.5167H312.03V23.5167H316.531V22.5167ZM317.401 22.5954C317.1 22.5066 316.781 22.4813 316.469 22.5206L316.594 23.5128C316.77 23.4905 316.95 23.5051 317.118 23.5546L317.401 22.5954ZM318.212 23.0404C317.98 22.8351 317.702 22.6842 317.401 22.5954L317.118 23.5546C317.285 23.604 317.433 23.6859 317.55 23.7895L318.212 23.0404ZM318.733 23.7884C318.625 23.5009 318.445 23.2458 318.213 23.0405L317.55 23.7894C317.667 23.8929 317.75 24.0143 317.798 24.1411L318.733 23.7884ZM318.824 24.6883C318.874 24.3849 318.842 24.0763 318.733 23.7886L317.797 24.1409C317.845 24.2674 317.858 24.3996 317.837 24.5285L318.824 24.6883ZM317.881 25.1084H318.331V24.1084H317.881V25.1084ZM317.364 24.3019C317.392 24.3767 317.399 24.4537 317.387 24.5284L318.374 24.6884C318.415 24.4388 318.388 24.1852 318.299 23.9491L317.364 24.3019ZM317.212 24.0877C317.285 24.1526 317.335 24.2268 317.364 24.3019L318.299 23.9491C318.21 23.7134 318.063 23.5053 317.874 23.3385L317.212 24.0877ZM316.935 23.9378C317.044 23.97 317.138 24.0227 317.212 24.0877L317.874 23.3385C317.686 23.1718 317.46 23.0501 317.218 22.9786L316.935 23.9378ZM316.593 23.9107C316.709 23.8961 316.826 23.9057 316.935 23.9378L317.218 22.9786C316.975 22.9071 316.719 22.8869 316.468 22.9186L316.593 23.9107ZM312.029 23.9146H316.53V22.9146H312.029V23.9146ZM311.624 23.9378C311.733 23.9057 311.85 23.8961 311.966 23.9107L312.091 22.9186C311.84 22.8869 311.584 22.9071 311.341 22.9786L311.624 23.9378ZM311.347 24.0877C311.421 24.0227 311.515 23.97 311.624 23.9378L311.341 22.9786C311.099 23.0501 310.873 23.1718 310.685 23.3385L311.347 24.0877ZM311.195 24.3019C311.224 24.2268 311.274 24.1526 311.347 24.0877L310.685 23.3385C310.496 23.5053 310.349 23.7134 310.26 23.9491L311.195 24.3019ZM311.172 24.5284C311.16 24.4537 311.167 24.3767 311.195 24.3019L310.26 23.9491C310.171 24.1852 310.144 24.4388 310.185 24.6884L311.172 24.5284ZM311.195 24.9149C311.167 24.8401 311.16 24.7631 311.172 24.6884L310.185 24.5284C310.144 24.778 310.171 25.0317 310.26 25.2677L311.195 24.9149ZM311.347 25.1291C311.274 25.0643 311.224 24.99 311.195 24.9149L310.26 25.2677C310.349 25.5034 310.496 25.7115 310.685 25.8783L311.347 25.1291ZM311.624 25.279C311.515 25.2469 311.421 25.1941 311.347 25.1291L310.685 25.8783C310.873 26.045 311.099 26.1668 311.341 26.2382L311.624 25.279ZM311.966 25.3061C311.85 25.3207 311.733 25.3111 311.624 25.279L311.341 26.2382C311.584 26.3097 311.84 26.3299 312.091 26.2982L311.966 25.3061ZM316.53 25.3022H312.029V26.3022H316.53V25.3022ZM317.4 25.3805C317.099 25.2918 316.78 25.2666 316.468 25.3061L316.593 26.2982C316.77 26.2759 316.95 26.2904 317.117 26.3398L317.4 25.3805ZM318.212 25.8253C317.98 25.6202 317.701 25.4693 317.4 25.3805L317.117 26.3398C317.285 26.3892 317.432 26.471 317.55 26.5747L318.212 25.8253ZM318.733 26.5737C318.625 26.2861 318.445 26.0309 318.212 25.8254L317.55 26.5746C317.667 26.678 317.75 26.7994 317.797 26.9263L318.733 26.5737ZM318.824 27.4739C318.874 27.1704 318.842 26.8615 318.733 26.5735L317.798 26.9265C317.845 27.0529 317.858 27.1849 317.837 27.3138L318.824 27.4739ZM318.733 28.2143C318.842 27.9262 318.874 27.6174 318.824 27.3138L317.837 27.4739C317.858 27.6028 317.845 27.7349 317.798 27.8613L318.733 28.2143ZM318.212 28.9624C318.445 28.7569 318.625 28.5016 318.733 28.2141L317.797 27.8615C317.75 27.9884 317.667 28.1097 317.55 28.2131L318.212 28.9624ZM317.4 29.4072C317.701 29.3185 317.98 29.1676 318.212 28.9624L317.55 28.213C317.432 28.3168 317.285 28.3986 317.117 28.448L317.4 29.4072ZM316.468 29.4816C316.78 29.5211 317.099 29.4959 317.4 29.4072L317.117 28.448C316.95 28.4974 316.77 28.5119 316.593 28.4895L316.468 29.4816ZM312.03 29.4856H316.53V28.4856H312.03V29.4856ZM321.063 26.1976V28.9856H322.063V26.1976H321.063ZM328.768 25.6976H321.563V26.6976H328.768V25.6976ZM329.268 28.9856V26.1976H328.268V28.9856H329.268ZM329.218 28.4856H328.768V29.4856H329.218V28.4856ZM328.718 23.0167V28.9856H329.718V23.0167H328.718ZM328.768 23.5167H329.218V22.5167H328.768V23.5167ZM329.268 25.8047V23.0167H328.268V25.8047H329.268ZM321.563 26.3047H328.768V25.3047H321.563V26.3047ZM321.063 23.0167V25.8047H322.063V23.0167H321.063ZM321.113 23.5167H321.563V22.5167H321.113V23.5167ZM321.613 28.9856V23.0167H320.613V28.9856H321.613ZM321.563 28.4856H321.113V29.4856H321.563V28.4856ZM332.927 29.4065C333.228 29.4954 333.547 29.5208 333.859 29.4817L333.735 28.4895C333.558 28.5116 333.378 28.4969 333.211 28.4474L332.927 29.4065ZM332.116 28.9613C332.348 29.1666 332.626 29.3176 332.927 29.4065L333.211 28.4475C333.043 28.398 332.896 28.3161 332.779 28.2126L332.116 28.9613ZM331.596 28.2135C331.704 28.501 331.884 28.7561 332.116 28.9614L332.779 28.2125C332.662 28.109 332.579 27.9878 332.532 27.8611L331.596 28.2135ZM331.505 27.314C331.456 27.6173 331.487 27.9258 331.596 28.2135L332.532 27.8611C332.484 27.7346 332.471 27.6026 332.492 27.4738L331.505 27.314ZM331.498 24.6059V27.3939H332.498V24.6059H331.498ZM331.596 23.7855C331.487 24.0735 331.455 24.3824 331.505 24.6859L332.492 24.5258C332.471 24.3969 332.484 24.2649 332.532 24.1385L331.596 23.7855ZM332.117 23.0374C331.885 23.2429 331.704 23.4981 331.596 23.7857L332.532 24.1383C332.579 24.0114 332.662 23.89 332.779 23.7866L332.117 23.0374ZM332.929 22.5925C332.628 22.6812 332.349 22.8322 332.117 23.0373L332.779 23.7867C332.897 23.6829 333.044 23.6011 333.212 23.5518L332.929 22.5925ZM333.862 22.5181C333.549 22.4786 333.23 22.5038 332.929 22.5925L333.212 23.5518C333.379 23.5024 333.559 23.4879 333.736 23.5102L333.862 22.5181ZM338.306 22.5142H333.799V23.5142H338.306V22.5142ZM339.176 22.5925C338.875 22.5038 338.556 22.4786 338.243 22.5181L338.369 23.5102C338.546 23.4879 338.726 23.5024 338.893 23.5518L339.176 22.5925ZM339.988 23.0373C339.756 22.8322 339.477 22.6812 339.176 22.5925L338.893 23.5518C339.061 23.6011 339.208 23.6829 339.326 23.7867L339.988 23.0373ZM340.509 23.7857C340.401 23.4981 340.22 23.2429 339.988 23.0374L339.326 23.7866C339.443 23.89 339.525 24.0114 339.573 24.1383L340.509 23.7857ZM340.6 24.6857C340.649 24.3823 340.618 24.0735 340.509 23.7855L339.573 24.1385C339.621 24.2649 339.634 24.397 339.613 24.526L340.6 24.6857ZM340.607 27.3939V24.6059H339.607V27.3939H340.607ZM340.509 28.2143C340.618 27.9262 340.649 27.6174 340.6 27.314L339.613 27.4737C339.634 27.6028 339.621 27.7349 339.573 27.8613L340.509 28.2143ZM339.988 28.9624C340.22 28.7569 340.401 28.5016 340.509 28.2141L339.573 27.8615C339.525 27.9884 339.443 28.1097 339.326 28.2131L339.988 28.9624ZM339.176 29.4072C339.477 29.3185 339.756 29.1676 339.988 28.9624L339.326 28.2131C339.208 28.3168 339.061 28.3986 338.893 28.448L339.176 29.4072ZM338.243 29.4816C338.556 29.5211 338.875 29.496 339.176 29.4072L338.893 28.448C338.726 28.4974 338.546 28.5119 338.369 28.4895L338.243 29.4816ZM333.797 29.4856H338.306V28.4856H333.797V29.4856ZM331.953 27.3139C331.912 27.5635 331.939 27.8171 332.028 28.0531L332.964 27.7004C332.935 27.6256 332.928 27.5486 332.94 27.4739L331.953 27.3139ZM331.954 24.6071L331.946 27.3925L332.946 27.3952L332.954 24.6098L331.954 24.6071ZM332.035 23.9491C331.946 24.1852 331.92 24.4387 331.96 24.6881L332.948 24.5287C332.936 24.4538 332.943 24.3767 332.971 24.3019L332.035 23.9491ZM332.461 23.3385C332.272 23.5053 332.124 23.7134 332.035 23.9491L332.971 24.3019C332.999 24.2268 333.049 24.1526 333.123 24.0877L332.461 23.3385ZM333.117 22.9786C332.874 23.0501 332.649 23.1718 332.461 23.3385L333.123 24.0877C333.196 24.0227 333.291 23.97 333.4 23.9378L333.117 22.9786ZM333.867 22.9186C333.616 22.8869 333.359 22.9071 333.117 22.9786L333.4 23.9378C333.509 23.9057 333.626 23.8961 333.742 23.9107L333.867 22.9186ZM338.306 22.9146H333.804V23.9146H338.306V22.9146ZM338.993 22.9785C338.751 22.9072 338.494 22.887 338.244 22.9186L338.369 23.9107C338.484 23.8962 338.601 23.9057 338.71 23.9378L338.993 22.9785ZM339.648 23.3374C339.46 23.1712 339.235 23.0498 338.993 22.9785L338.71 23.9378C338.819 23.9698 338.913 24.0225 338.987 24.0873L339.648 23.3374ZM340.074 23.9466C339.985 23.7113 339.837 23.5037 339.648 23.3374L338.987 24.0873C339.06 24.152 339.11 24.2262 339.139 24.301L340.074 23.9466ZM340.15 24.684C340.19 24.4352 340.163 24.1821 340.074 23.9463L339.139 24.3013C339.167 24.3757 339.175 24.4526 339.163 24.5278L340.15 24.684ZM340.157 27.3939V24.6059H339.157V27.3939H340.157ZM340.075 28.0532C340.164 27.8171 340.191 27.5636 340.15 27.3142L339.163 27.4736C339.175 27.5485 339.168 27.6256 339.139 27.7003L340.075 28.0532ZM339.65 28.6638C339.839 28.497 339.986 28.2888 340.075 28.0531L339.139 27.7004C339.111 27.7755 339.061 27.8497 338.988 27.9145L339.65 28.6638ZM338.994 29.0237C339.236 28.9522 339.462 28.8304 339.65 28.6638L338.988 27.9146C338.914 27.9796 338.82 28.0323 338.711 28.0645L338.994 29.0237ZM338.243 29.0837C338.495 29.1154 338.751 29.0952 338.994 29.0237L338.711 28.0645C338.602 28.0966 338.484 28.1062 338.369 28.0916L338.243 29.0837ZM333.797 29.0877H338.306V28.0877H333.797V29.0877ZM333.109 29.0237C333.352 29.0952 333.608 29.1154 333.86 29.0837L333.734 28.0916C333.619 28.1062 333.501 28.0966 333.392 28.0645L333.109 29.0237ZM332.453 28.6638C332.641 28.8304 332.867 28.9522 333.109 29.0237L333.392 28.0645C333.283 28.0323 333.189 27.9796 333.115 27.9146L332.453 28.6638ZM332.028 28.0531C332.117 28.2888 332.264 28.497 332.453 28.6638L333.115 27.9145C333.042 27.8497 332.992 27.7754 332.964 27.7004L332.028 28.0531ZM350.053 22.595C349.752 22.5063 349.433 22.4812 349.121 22.5207L349.246 23.5128C349.423 23.4904 349.603 23.5049 349.771 23.5543L350.053 22.595ZM350.865 23.0398C350.633 22.8347 350.354 22.6838 350.053 22.595L349.771 23.5543C349.938 23.6037 350.086 23.6855 350.203 23.7892L350.865 23.0398ZM351.387 23.7895C351.279 23.5006 351.097 23.245 350.865 23.0398L350.203 23.7893C350.321 23.893 350.403 24.014 350.45 24.1395L351.387 23.7895ZM351.478 24.687C351.526 24.3851 351.495 24.0766 351.386 23.7876L350.451 24.1414C350.498 24.2669 350.511 24.3992 350.49 24.5298L351.478 24.687ZM351.386 25.4292C351.495 25.1402 351.526 24.8317 351.478 24.5298L350.49 24.687C350.511 24.8176 350.498 24.95 350.451 25.0754L351.386 25.4292ZM350.865 26.1771C351.097 25.9718 351.279 25.7162 351.387 25.4273L350.45 25.0773C350.403 25.2028 350.321 25.3238 350.203 25.4275L350.865 26.1771ZM350.053 26.6218C350.354 26.533 350.633 26.3821 350.865 26.177L350.203 25.4276C350.086 25.5313 349.938 25.6131 349.771 25.6625L350.053 26.6218ZM349.121 26.6962C349.433 26.7357 349.752 26.7105 350.053 26.6218L349.771 25.6625C349.603 25.7119 349.423 25.7264 349.246 25.7041L349.121 26.6962ZM343.333 26.7001H349.184V25.7001H343.333V26.7001ZM343.833 28.9881V26.2001H342.833V28.9881H343.833ZM342.883 29.4881H343.333V28.4881H342.883V29.4881ZM342.383 23.0192V28.9881H343.383V23.0192H342.383ZM349.183 22.5167L342.883 22.5192L342.883 23.5192L349.184 23.5167L349.183 22.5167ZM351.028 24.687C351.067 24.4397 351.042 24.1861 350.952 23.9481L350.017 24.3029C350.045 24.3758 350.053 24.4528 350.04 24.5298L351.028 24.687ZM350.54 24.1084H350.534V25.1084H350.54V24.1084ZM350.958 25.2696C351.048 25.0313 351.073 24.7774 351.034 24.53L350.046 24.6869C350.058 24.7643 350.051 24.8418 350.023 24.9149L350.958 25.2696ZM350.532 25.8804C350.721 25.7134 350.869 25.505 350.958 25.2691L350.023 24.9154C349.994 24.9909 349.944 25.0653 349.87 25.1301L350.532 25.8804ZM349.873 26.2398C350.116 26.1687 350.342 26.047 350.532 25.8804L349.87 25.1301C349.796 25.1953 349.702 25.248 349.593 25.28L349.873 26.2398ZM349.121 26.2981C349.373 26.3306 349.63 26.3109 349.873 26.2398L349.593 25.28C349.483 25.312 349.365 25.3213 349.25 25.3063L349.121 26.2981ZM343.333 26.3022H349.185V25.3022H343.333V26.3022ZM342.833 23.4146V25.8022H343.833V23.4146H342.833ZM349.184 22.9146H343.333V23.9146H349.184V22.9146ZM349.871 22.9786C349.629 22.9071 349.372 22.8869 349.121 22.9186L349.246 23.9107C349.362 23.8961 349.479 23.9057 349.588 23.9378L349.871 22.9786ZM350.527 23.3385C350.339 23.1718 350.114 23.0501 349.871 22.9786L349.588 23.9378C349.697 23.97 349.792 24.0227 349.865 24.0877L350.527 23.3385ZM350.953 23.9491C350.864 23.7134 350.716 23.5053 350.527 23.3385L349.865 24.0877C349.939 24.1526 349.989 24.2268 350.017 24.3019L350.953 23.9491Z" fill="black"/>
<defs>
<filter id="filter0_d_9157_9905" x="0" y="0" width="369" height="54" filterUnits="userSpaceOnUse" color-interpolation-filters="sRGB">
<feFlood flood-opacity="0" result="BackgroundImageFix"/>
<feColorMatrix in="SourceAlpha" type="matrix" values="0 0 0 0 0 0 0 0 0 0 0 0 0 0 0 0 0 0 127 0" result="hardAlpha"/>
<feOffset dy="1"/>
<feGaussianBlur stdDeviation="3.5"/>
<feColorMatrix type="matrix" values="0 0 0 0 0 0 0 0 0 0 0 0 0 0 0 0 0 0 0.08 0"/>
<feBlend mode="normal" in2="BackgroundImageFix" result="effect1_dropShadow_9157_9905"/>
<feBlend mode="normal" in="SourceGraphic" in2="effect1_dropShadow_9157_9905" result="shape"/>
</filter>
</defs>
</svg>
