<svg width="369" height="54" viewBox="0 0 369 54" fill="none" xmlns="http://www.w3.org/2000/svg">
<g filter="url(#filter0_d_9157_9867)">
<rect x="7" y="6" width="355" height="40" rx="5" fill="white"/>
</g>
<path d="M23.858 30V22.245H29.083V23.356H25.222V25.501H28.83V26.623H25.222V28.878H29.083V30H23.858ZM32.5813 30.11C32.0973 30.11 31.6719 29.9963 31.3053 29.769C30.9386 29.5343 30.6526 29.2007 30.4473 28.768C30.2419 28.3353 30.1393 27.8183 30.1393 27.217C30.1393 26.6157 30.2419 26.1023 30.4473 25.677C30.6526 25.2443 30.9386 24.9143 31.3053 24.687C31.6719 24.4523 32.0973 24.335 32.5813 24.335C33.0506 24.335 33.4613 24.4523 33.8133 24.687C34.1726 24.9143 34.4109 25.2223 34.5283 25.611H34.4073L34.5283 24.445H35.8483C35.8263 24.6723 35.8043 24.9033 35.7823 25.138C35.7676 25.3727 35.7603 25.6037 35.7603 25.831V30H34.3963L34.3853 28.856H34.5173C34.3999 29.2373 34.1616 29.5417 33.8023 29.769C33.4429 29.9963 33.0359 30.11 32.5813 30.11ZM32.9663 29.054C33.3989 29.054 33.7473 28.9037 34.0113 28.603C34.2753 28.295 34.4073 27.833 34.4073 27.217C34.4073 26.601 34.2753 26.1427 34.0113 25.842C33.7473 25.5413 33.3989 25.391 32.9663 25.391C32.5336 25.391 32.1853 25.5413 31.9213 25.842C31.6573 26.1427 31.5253 26.601 31.5253 27.217C31.5253 27.833 31.6536 28.295 31.9103 28.603C32.1743 28.9037 32.5263 29.054 32.9663 29.054ZM37.4466 30V25.864C37.4466 25.6293 37.4392 25.391 37.4246 25.149C37.4172 24.907 37.3989 24.6723 37.3696 24.445H38.7006L38.8546 25.963H38.6346C38.7079 25.5963 38.8289 25.292 38.9976 25.05C39.1736 24.808 39.3862 24.6283 39.6356 24.511C39.8849 24.3937 40.1562 24.335 40.4496 24.335C40.5816 24.335 40.6879 24.3423 40.7686 24.357C40.8492 24.3643 40.9299 24.3827 41.0106 24.412L40.9996 25.622C40.8602 25.5633 40.7392 25.5267 40.6366 25.512C40.5412 25.4973 40.4202 25.49 40.2736 25.49C39.9582 25.49 39.6906 25.556 39.4706 25.688C39.2579 25.82 39.0966 26.0033 38.9866 26.238C38.8839 26.4727 38.8326 26.7403 38.8326 27.041V30H37.4466ZM41.9759 30V25.831C41.9759 25.6037 41.9686 25.3727 41.9539 25.138C41.9393 24.9033 41.9173 24.6723 41.8879 24.445H43.2189L43.3289 25.545H43.1969C43.3729 25.1563 43.6333 24.8593 43.9779 24.654C44.3226 24.4413 44.7223 24.335 45.1769 24.335C45.8296 24.335 46.3209 24.5183 46.6509 24.885C46.9809 25.2517 47.1459 25.8237 47.1459 26.601V30H45.7709V26.667C45.7709 26.2197 45.6829 25.9007 45.5069 25.71C45.3383 25.512 45.0816 25.413 44.7369 25.413C44.3116 25.413 43.9743 25.545 43.7249 25.809C43.4756 26.073 43.3509 26.425 43.3509 26.865V30H41.9759ZM54.5744 30.11C54.0024 30.11 53.5001 29.9927 53.0674 29.758C52.6421 29.5233 52.3121 29.1897 52.0774 28.757C51.8427 28.317 51.7254 27.7963 51.7254 27.195C51.7254 26.5937 51.8427 26.0803 52.0774 25.655C52.3194 25.2297 52.6531 24.9033 53.0784 24.676C53.5037 24.4487 54.0024 24.335 54.5744 24.335C54.9411 24.335 55.2967 24.3937 55.6414 24.511C55.9934 24.621 56.2794 24.7823 56.4994 24.995L56.0814 25.952C55.8834 25.7687 55.6597 25.633 55.4104 25.545C55.1684 25.4497 54.9301 25.402 54.6954 25.402C54.2041 25.402 53.8191 25.556 53.5404 25.864C53.2691 26.172 53.1334 26.6193 53.1334 27.206C53.1334 27.7927 53.2691 28.2437 53.5404 28.559C53.8191 28.8743 54.2041 29.032 54.6954 29.032C54.9227 29.032 55.1574 28.988 55.3994 28.9C55.6487 28.812 55.8761 28.6763 56.0814 28.493L56.4994 29.439C56.2721 29.6517 55.9824 29.8167 55.6304 29.934C55.2857 30.0513 54.9337 30.11 54.5744 30.11ZM59.8782 30.11C59.3942 30.11 58.9688 29.9963 58.6022 29.769C58.2355 29.5343 57.9495 29.2007 57.7442 28.768C57.5388 28.3353 57.4362 27.8183 57.4362 27.217C57.4362 26.6157 57.5388 26.1023 57.7442 25.677C57.9495 25.2443 58.2355 24.9143 58.6022 24.687C58.9688 24.4523 59.3942 24.335 59.8782 24.335C60.3475 24.335 60.7582 24.4523 61.1102 24.687C61.4695 24.9143 61.7078 25.2223 61.8252 25.611H61.7042L61.8252 24.445H63.1452C63.1232 24.6723 63.1012 24.9033 63.0792 25.138C63.0645 25.3727 63.0572 25.6037 63.0572 25.831V30H61.6932L61.6822 28.856H61.8142C61.6968 29.2373 61.4585 29.5417 61.0992 29.769C60.7398 29.9963 60.3328 30.11 59.8782 30.11ZM60.2632 29.054C60.6958 29.054 61.0442 28.9037 61.3082 28.603C61.5722 28.295 61.7042 27.833 61.7042 27.217C61.7042 26.601 61.5722 26.1427 61.3082 25.842C61.0442 25.5413 60.6958 25.391 60.2632 25.391C59.8305 25.391 59.4822 25.5413 59.2182 25.842C58.9542 26.1427 58.8222 26.601 58.8222 27.217C58.8222 27.833 58.9505 28.295 59.2072 28.603C59.4712 28.9037 59.8232 29.054 60.2632 29.054ZM66.7344 30.11C66.2578 30.11 65.8178 30.055 65.4144 29.945C65.0184 29.8277 64.6848 29.6663 64.4134 29.461L64.7984 28.537C65.0771 28.7277 65.3851 28.8743 65.7224 28.977C66.0598 29.0797 66.4008 29.131 66.7454 29.131C67.1121 29.131 67.3834 29.0687 67.5594 28.944C67.7428 28.8193 67.8344 28.6507 67.8344 28.438C67.8344 28.2693 67.7758 28.1373 67.6584 28.042C67.5484 27.9393 67.3688 27.8623 67.1194 27.811L66.0194 27.602C65.5501 27.4993 65.1908 27.3233 64.9414 27.074C64.6994 26.8247 64.5784 26.4983 64.5784 26.095C64.5784 25.7503 64.6701 25.446 64.8534 25.182C65.0441 24.918 65.3118 24.7127 65.6564 24.566C66.0084 24.412 66.4191 24.335 66.8884 24.335C67.2991 24.335 67.6841 24.39 68.0434 24.5C68.4101 24.61 68.7181 24.775 68.9674 24.995L68.5714 25.886C68.3441 25.7027 68.0838 25.5597 67.7904 25.457C67.4971 25.3543 67.2111 25.303 66.9324 25.303C66.5511 25.303 66.2724 25.3727 66.0964 25.512C65.9204 25.644 65.8324 25.8163 65.8324 26.029C65.8324 26.1903 65.8838 26.326 65.9864 26.436C66.0964 26.5387 66.2651 26.6157 66.4924 26.667L67.5924 26.876C68.0838 26.9713 68.4541 27.14 68.7034 27.382C68.9601 27.6167 69.0884 27.9393 69.0884 28.35C69.0884 28.7167 68.9894 29.032 68.7914 29.296C68.5934 29.56 68.3184 29.7617 67.9664 29.901C67.6144 30.0403 67.2038 30.11 66.7344 30.11ZM70.4652 30V21.904H71.8402V25.556H71.6862C71.8549 25.16 72.1152 24.8593 72.4672 24.654C72.8192 24.4413 73.2225 24.335 73.6772 24.335C74.3372 24.335 74.8285 24.522 75.1512 24.896C75.4739 25.2627 75.6352 25.8237 75.6352 26.579V30H74.2602V26.645C74.2602 26.2123 74.1759 25.9007 74.0072 25.71C73.8459 25.512 73.5855 25.413 73.2262 25.413C72.8082 25.413 72.4709 25.545 72.2142 25.809C71.9649 26.0657 71.8402 26.4103 71.8402 26.843V30H70.4652ZM80.4721 30.11C80.0028 30.11 79.5921 29.9963 79.2401 29.769C78.8881 29.5343 78.6534 29.219 78.5361 28.823H78.6571V30H77.2931V21.904H78.6681V25.578H78.5361C78.6608 25.1967 78.8991 24.896 79.2511 24.676C79.6031 24.4487 80.0101 24.335 80.4721 24.335C80.9635 24.335 81.3925 24.4523 81.7591 24.687C82.1258 24.9217 82.4118 25.2553 82.6171 25.688C82.8225 26.1133 82.9251 26.6267 82.9251 27.228C82.9251 27.8293 82.8225 28.3463 82.6171 28.779C82.4118 29.2043 82.1221 29.5343 81.7481 29.769C81.3814 29.9963 80.9561 30.11 80.4721 30.11ZM80.0871 29.054C80.5198 29.054 80.8681 28.9037 81.1321 28.603C81.4035 28.3023 81.5391 27.844 81.5391 27.228C81.5391 26.612 81.4035 26.1537 81.1321 25.853C80.8681 25.545 80.5198 25.391 80.0871 25.391C79.6544 25.391 79.3061 25.5413 79.0421 25.842C78.7781 26.1427 78.6461 26.601 78.6461 27.217C78.6461 27.833 78.7781 28.295 79.0421 28.603C79.3061 28.9037 79.6544 29.054 80.0871 29.054ZM86.4594 30.11C85.9754 30.11 85.5501 29.9963 85.1834 29.769C84.8167 29.5343 84.5307 29.2007 84.3254 28.768C84.1201 28.3353 84.0174 27.8183 84.0174 27.217C84.0174 26.6157 84.1201 26.1023 84.3254 25.677C84.5307 25.2443 84.8167 24.9143 85.1834 24.687C85.5501 24.4523 85.9754 24.335 86.4594 24.335C86.9287 24.335 87.3394 24.4523 87.6914 24.687C88.0507 24.9143 88.2891 25.2223 88.4064 25.611H88.2854L88.4064 24.445H89.7264C89.7044 24.6723 89.6824 24.9033 89.6604 25.138C89.6457 25.3727 89.6384 25.6037 89.6384 25.831V30H88.2744L88.2634 28.856H88.3954C88.2781 29.2373 88.0397 29.5417 87.6804 29.769C87.3211 29.9963 86.9141 30.11 86.4594 30.11ZM86.8444 29.054C87.2771 29.054 87.6254 28.9037 87.8894 28.603C88.1534 28.295 88.2854 27.833 88.2854 27.217C88.2854 26.601 88.1534 26.1427 87.8894 25.842C87.6254 25.5413 87.2771 25.391 86.8444 25.391C86.4117 25.391 86.0634 25.5413 85.7994 25.842C85.5354 26.1427 85.4034 26.601 85.4034 27.217C85.4034 27.833 85.5317 28.295 85.7884 28.603C86.0524 28.9037 86.4044 29.054 86.8444 29.054ZM93.8877 30.11C93.3157 30.11 92.8134 29.9927 92.3807 29.758C91.9554 29.5233 91.6254 29.1897 91.3907 28.757C91.156 28.317 91.0387 27.7963 91.0387 27.195C91.0387 26.5937 91.156 26.0803 91.3907 25.655C91.6327 25.2297 91.9664 24.9033 92.3917 24.676C92.817 24.4487 93.3157 24.335 93.8877 24.335C94.2544 24.335 94.61 24.3937 94.9547 24.511C95.3067 24.621 95.5927 24.7823 95.8127 24.995L95.3947 25.952C95.1967 25.7687 94.973 25.633 94.7237 25.545C94.4817 25.4497 94.2434 25.402 94.0087 25.402C93.5174 25.402 93.1324 25.556 92.8537 25.864C92.5824 26.172 92.4467 26.6193 92.4467 27.206C92.4467 27.7927 92.5824 28.2437 92.8537 28.559C93.1324 28.8743 93.5174 29.032 94.0087 29.032C94.236 29.032 94.4707 28.988 94.7127 28.9C94.962 28.812 95.1894 28.6763 95.3947 28.493L95.8127 29.439C95.5854 29.6517 95.2957 29.8167 94.9437 29.934C94.599 30.0513 94.247 30.11 93.8877 30.11ZM97.0787 30V21.904H98.4537V26.81H98.4757L100.731 24.445H102.392L99.5867 27.382L99.5977 26.832L102.59 30H100.885L98.4757 27.514H98.4537V30H97.0787ZM108.011 30L105.965 24.478H106.911L108.616 29.34H108.33L110.09 24.478H110.86L112.587 29.34H112.312L114.028 24.478H114.93L112.873 30H112.015L110.233 25.061H110.673L108.88 30H108.011ZM116.298 30V21.904H117.189V25.699H117.046C117.2 25.2663 117.456 24.94 117.816 24.72C118.182 24.4927 118.604 24.379 119.081 24.379C119.741 24.379 120.232 24.5587 120.555 24.918C120.877 25.27 121.039 25.8053 121.039 26.524V30H120.148V26.579C120.148 26.0657 120.045 25.6917 119.84 25.457C119.642 25.2223 119.319 25.105 118.872 25.105C118.358 25.105 117.948 25.2627 117.64 25.578C117.339 25.8933 117.189 26.3077 117.189 26.821V30H116.298ZM125.396 30.099C124.531 30.099 123.849 29.8497 123.35 29.351C122.851 28.845 122.602 28.1447 122.602 27.25C122.602 26.6707 122.712 26.1683 122.932 25.743C123.152 25.3103 123.46 24.9767 123.856 24.742C124.252 24.5 124.707 24.379 125.22 24.379C125.726 24.379 126.151 24.4853 126.496 24.698C126.841 24.9107 127.105 25.215 127.288 25.611C127.471 25.9997 127.563 26.4617 127.563 26.997V27.327H123.284V26.766H126.98L126.793 26.909C126.793 26.3223 126.661 25.864 126.397 25.534C126.133 25.204 125.741 25.039 125.22 25.039C124.67 25.039 124.241 25.2333 123.933 25.622C123.625 26.0033 123.471 26.5203 123.471 27.173V27.272C123.471 27.9613 123.64 28.4857 123.977 28.845C124.322 29.197 124.802 29.373 125.418 29.373C125.748 29.373 126.056 29.3253 126.342 29.23C126.635 29.1273 126.914 28.9623 127.178 28.735L127.486 29.362C127.244 29.5967 126.936 29.78 126.562 29.912C126.195 30.0367 125.807 30.099 125.396 30.099ZM129.126 30V25.754C129.126 25.5487 129.115 25.3397 129.093 25.127C129.079 24.907 129.06 24.6907 129.038 24.478H129.896L130.006 25.688H129.874C130.036 25.2627 130.292 24.94 130.644 24.72C131.004 24.4927 131.418 24.379 131.887 24.379C132.54 24.379 133.031 24.555 133.361 24.907C133.699 25.2517 133.867 25.798 133.867 26.546V30H132.976V26.601C132.976 26.0803 132.87 25.7027 132.657 25.468C132.452 25.226 132.129 25.105 131.689 25.105C131.176 25.105 130.769 25.2627 130.468 25.578C130.168 25.8933 130.017 26.315 130.017 26.843V30H129.126ZM138.62 32.497L138.411 31.76C138.756 31.6793 139.042 31.584 139.269 31.474C139.504 31.3713 139.698 31.232 139.852 31.056C140.006 30.88 140.138 30.66 140.248 30.396L140.534 29.747L140.512 30.121L138.103 24.478H139.071L141.062 29.329H140.776L142.745 24.478H143.68L141.128 30.462C140.981 30.814 140.82 31.1073 140.644 31.342C140.468 31.584 140.277 31.7783 140.072 31.925C139.874 32.079 139.654 32.2 139.412 32.288C139.17 32.376 138.906 32.4457 138.62 32.497ZM147.074 30.099C146.546 30.099 146.084 29.9853 145.688 29.758C145.3 29.5233 144.999 29.1933 144.786 28.768C144.574 28.3353 144.467 27.8257 144.467 27.239C144.467 26.645 144.574 26.1353 144.786 25.71C144.999 25.2847 145.3 24.9583 145.688 24.731C146.084 24.4963 146.546 24.379 147.074 24.379C147.61 24.379 148.072 24.4963 148.46 24.731C148.856 24.9583 149.161 25.2847 149.373 25.71C149.593 26.1353 149.703 26.645 149.703 27.239C149.703 27.8257 149.593 28.3353 149.373 28.768C149.161 29.1933 148.856 29.5233 148.46 29.758C148.072 29.9853 147.61 30.099 147.074 30.099ZM147.074 29.373C147.602 29.373 148.02 29.1933 148.328 28.834C148.636 28.4673 148.79 27.9357 148.79 27.239C148.79 26.535 148.633 26.0033 148.317 25.644C148.009 25.2773 147.595 25.094 147.074 25.094C146.554 25.094 146.139 25.2773 145.831 25.644C145.523 26.0033 145.369 26.535 145.369 27.239C145.369 27.9357 145.523 28.4673 145.831 28.834C146.139 29.1933 146.554 29.373 147.074 29.373ZM153.24 30.099C152.587 30.099 152.092 29.9193 151.755 29.56C151.425 29.2007 151.26 28.6507 151.26 27.91V24.478H152.151V27.888C152.151 28.394 152.253 28.768 152.459 29.01C152.664 29.2447 152.983 29.362 153.416 29.362C153.9 29.362 154.288 29.2043 154.582 28.889C154.875 28.5737 155.022 28.152 155.022 27.624V24.478H155.913V30H155.044V28.757H155.187C155.033 29.1823 154.783 29.5123 154.439 29.747C154.101 29.9817 153.702 30.099 153.24 30.099ZM162.746 30.099C162.306 30.099 161.896 30.0403 161.514 29.923C161.133 29.7983 160.818 29.626 160.568 29.406L160.876 28.779C161.148 28.9917 161.441 29.1493 161.756 29.252C162.079 29.3547 162.413 29.406 162.757 29.406C163.197 29.406 163.527 29.329 163.747 29.175C163.975 29.0137 164.088 28.7937 164.088 28.515C164.088 28.3023 164.015 28.1337 163.868 28.009C163.729 27.877 163.498 27.7743 163.175 27.701L162.152 27.492C161.683 27.3893 161.331 27.217 161.096 26.975C160.862 26.7257 160.744 26.4103 160.744 26.029C160.744 25.7063 160.829 25.424 160.997 25.182C161.166 24.9327 161.412 24.7383 161.734 24.599C162.057 24.4523 162.435 24.379 162.867 24.379C163.271 24.379 163.641 24.4413 163.978 24.566C164.323 24.6833 164.609 24.8557 164.836 25.083L164.517 25.699C164.297 25.4863 164.044 25.3287 163.758 25.226C163.48 25.116 163.19 25.061 162.889 25.061C162.457 25.061 162.13 25.149 161.91 25.325C161.698 25.4937 161.591 25.7173 161.591 25.996C161.591 26.2087 161.657 26.3847 161.789 26.524C161.929 26.656 162.141 26.755 162.427 26.821L163.45 27.03C163.949 27.14 164.319 27.3123 164.561 27.547C164.811 27.7743 164.935 28.0823 164.935 28.471C164.935 28.801 164.844 29.0907 164.66 29.34C164.477 29.582 164.22 29.769 163.89 29.901C163.568 30.033 163.186 30.099 162.746 30.099ZM166.566 30V21.904H167.457V25.699H167.314C167.468 25.2663 167.725 24.94 168.084 24.72C168.451 24.4927 168.873 24.379 169.349 24.379C170.009 24.379 170.501 24.5587 170.823 24.918C171.146 25.27 171.307 25.8053 171.307 26.524V30H170.416V26.579C170.416 26.0657 170.314 25.6917 170.108 25.457C169.91 25.2223 169.588 25.105 169.14 25.105C168.627 25.105 168.216 25.2627 167.908 25.578C167.608 25.8933 167.457 26.3077 167.457 26.821V30H166.566ZM175.478 30.099C174.95 30.099 174.488 29.9853 174.092 29.758C173.703 29.5233 173.402 29.1933 173.19 28.768C172.977 28.3353 172.871 27.8257 172.871 27.239C172.871 26.645 172.977 26.1353 173.19 25.71C173.402 25.2847 173.703 24.9583 174.092 24.731C174.488 24.4963 174.95 24.379 175.478 24.379C176.013 24.379 176.475 24.4963 176.864 24.731C177.26 24.9583 177.564 25.2847 177.777 25.71C177.997 26.1353 178.107 26.645 178.107 27.239C178.107 27.8257 177.997 28.3353 177.777 28.768C177.564 29.1933 177.26 29.5233 176.864 29.758C176.475 29.9853 176.013 30.099 175.478 30.099ZM175.478 29.373C176.006 29.373 176.424 29.1933 176.732 28.834C177.04 28.4673 177.194 27.9357 177.194 27.239C177.194 26.535 177.036 26.0033 176.721 25.644C176.413 25.2773 175.998 25.094 175.478 25.094C174.957 25.094 174.543 25.2773 174.235 25.644C173.927 26.0033 173.773 26.535 173.773 27.239C173.773 27.9357 173.927 28.4673 174.235 28.834C174.543 29.1933 174.957 29.373 175.478 29.373ZM179.696 32.376V25.754C179.696 25.5487 179.685 25.3397 179.663 25.127C179.648 24.907 179.63 24.6907 179.608 24.478H180.466L180.587 25.787H180.455C180.572 25.3543 180.811 25.0133 181.17 24.764C181.529 24.5073 181.958 24.379 182.457 24.379C182.956 24.379 183.385 24.4927 183.744 24.72C184.111 24.9473 184.397 25.2737 184.602 25.699C184.807 26.1243 184.91 26.6377 184.91 27.239C184.91 27.833 184.807 28.3427 184.602 28.768C184.404 29.1933 184.122 29.5233 183.755 29.758C183.388 29.9853 182.956 30.099 182.457 30.099C181.966 30.099 181.54 29.9743 181.181 29.725C180.822 29.4757 180.583 29.1347 180.466 28.702H180.587V32.376H179.696ZM182.281 29.373C182.809 29.373 183.227 29.1933 183.535 28.834C183.85 28.4673 184.008 27.9357 184.008 27.239C184.008 26.535 183.85 26.0033 183.535 25.644C183.227 25.2773 182.809 25.094 182.281 25.094C181.76 25.094 181.342 25.2773 181.027 25.644C180.719 26.0033 180.565 26.535 180.565 27.239C180.565 27.9357 180.719 28.4673 181.027 28.834C181.342 29.1933 181.76 29.373 182.281 29.373ZM191.034 30L188.988 24.478H189.934L191.639 29.34H191.353L193.113 24.478H193.883L195.61 29.34H195.335L197.051 24.478H197.953L195.896 30H195.038L193.256 25.061H193.696L191.903 30H191.034ZM199.32 30V24.478H200.211V30H199.32ZM199.21 23.224V22.223H200.31V23.224H199.21ZM204.099 30.099C203.557 30.099 203.142 29.945 202.856 29.637C202.57 29.3217 202.427 28.8487 202.427 28.218V25.171H201.349V24.478H202.427V22.971L203.318 22.718V24.478H204.902V25.171H203.318V28.119C203.318 28.559 203.392 28.8743 203.538 29.065C203.692 29.2483 203.92 29.34 204.22 29.34C204.36 29.34 204.484 29.329 204.594 29.307C204.704 29.2777 204.803 29.2447 204.891 29.208V29.956C204.789 30 204.664 30.033 204.517 30.055C204.378 30.0843 204.239 30.099 204.099 30.099ZM206.187 30V21.904H207.078V25.699H206.935C207.089 25.2663 207.346 24.94 207.705 24.72C208.072 24.4927 208.493 24.379 208.97 24.379C209.63 24.379 210.121 24.5587 210.444 24.918C210.767 25.27 210.928 25.8053 210.928 26.524V30H210.037V26.579C210.037 26.0657 209.934 25.6917 209.729 25.457C209.531 25.2223 209.208 25.105 208.761 25.105C208.248 25.105 207.837 25.2627 207.529 25.578C207.228 25.8933 207.078 26.3077 207.078 26.821V30H206.187ZM216.187 30V25.171H215.109V24.478H216.429L216.187 24.709V23.785C216.187 23.1617 216.344 22.685 216.66 22.355C216.975 22.025 217.426 21.86 218.013 21.86C218.159 21.86 218.31 21.8747 218.464 21.904C218.625 21.926 218.757 21.959 218.86 22.003V22.74C218.772 22.7033 218.662 22.674 218.53 22.652C218.405 22.6227 218.277 22.608 218.145 22.608C217.917 22.608 217.723 22.6557 217.562 22.751C217.4 22.839 217.279 22.9747 217.199 23.158C217.118 23.3413 217.078 23.576 217.078 23.862V24.665L216.935 24.478H218.618V25.171H217.078V30H216.187ZM219.795 30V25.809C219.795 25.589 219.788 25.3653 219.773 25.138C219.766 24.9107 219.751 24.6907 219.729 24.478H220.587L220.697 25.82L220.543 25.831C220.617 25.501 220.745 25.2297 220.928 25.017C221.112 24.8043 221.328 24.6467 221.577 24.544C221.827 24.434 222.087 24.379 222.358 24.379C222.468 24.379 222.564 24.3827 222.644 24.39C222.732 24.3973 222.813 24.4157 222.886 24.445L222.875 25.237C222.765 25.2003 222.663 25.1783 222.567 25.171C222.479 25.1563 222.377 25.149 222.259 25.149C221.937 25.149 221.654 25.226 221.412 25.38C221.178 25.534 220.998 25.732 220.873 25.974C220.756 26.216 220.697 26.4727 220.697 26.744V30H219.795ZM224.014 30V24.478H224.905V30H224.014ZM223.904 23.224V22.223H225.004V23.224H223.904ZM229.288 30.099C228.422 30.099 227.74 29.8497 227.242 29.351C226.743 28.845 226.494 28.1447 226.494 27.25C226.494 26.6707 226.604 26.1683 226.824 25.743C227.044 25.3103 227.352 24.9767 227.748 24.742C228.144 24.5 228.598 24.379 229.112 24.379C229.618 24.379 230.043 24.4853 230.388 24.698C230.732 24.9107 230.996 25.215 231.18 25.611C231.363 25.9997 231.455 26.4617 231.455 26.997V27.327H227.176V26.766H230.872L230.685 26.909C230.685 26.3223 230.553 25.864 230.289 25.534C230.025 25.204 229.632 25.039 229.112 25.039C228.562 25.039 228.133 25.2333 227.825 25.622C227.517 26.0033 227.363 26.5203 227.363 27.173V27.272C227.363 27.9613 227.531 28.4857 227.869 28.845C228.213 29.197 228.694 29.373 229.31 29.373C229.64 29.373 229.948 29.3253 230.234 29.23C230.527 29.1273 230.806 28.9623 231.07 28.735L231.378 29.362C231.136 29.5967 230.828 29.78 230.454 29.912C230.087 30.0367 229.698 30.099 229.288 30.099ZM233.018 30V25.754C233.018 25.5487 233.007 25.3397 232.985 25.127C232.97 24.907 232.952 24.6907 232.93 24.478H233.788L233.898 25.688H233.766C233.927 25.2627 234.184 24.94 234.536 24.72C234.895 24.4927 235.31 24.379 235.779 24.379C236.432 24.379 236.923 24.555 237.253 24.907C237.59 25.2517 237.759 25.798 237.759 26.546V30H236.868V26.601C236.868 26.0803 236.762 25.7027 236.549 25.468C236.344 25.226 236.021 25.105 235.581 25.105C235.068 25.105 234.661 25.2627 234.36 25.578C234.059 25.8933 233.909 26.315 233.909 26.843V30H233.018ZM241.753 30.099C241.269 30.099 240.844 29.9853 240.477 29.758C240.111 29.5233 239.825 29.1933 239.619 28.768C239.421 28.3427 239.322 27.833 239.322 27.239C239.322 26.6377 239.421 26.1243 239.619 25.699C239.825 25.2737 240.111 24.9473 240.477 24.72C240.844 24.4927 241.269 24.379 241.753 24.379C242.252 24.379 242.681 24.5037 243.04 24.753C243.407 25.0023 243.653 25.3397 243.777 25.765H243.645V21.904H244.536V30H243.656V28.68H243.777C243.66 29.12 243.418 29.4683 243.051 29.725C242.685 29.9743 242.252 30.099 241.753 30.099ZM241.94 29.373C242.461 29.373 242.879 29.1933 243.194 28.834C243.51 28.4673 243.667 27.9357 243.667 27.239C243.667 26.535 243.51 26.0033 243.194 25.644C242.879 25.2773 242.461 25.094 241.94 25.094C241.42 25.094 241.002 25.2773 240.686 25.644C240.378 26.0033 240.224 26.535 240.224 27.239C240.224 27.9357 240.378 28.4673 240.686 28.834C241.002 29.1933 241.42 29.373 241.94 29.373ZM248.296 30.099C247.856 30.099 247.445 30.0403 247.064 29.923C246.683 29.7983 246.367 29.626 246.118 29.406L246.426 28.779C246.697 28.9917 246.991 29.1493 247.306 29.252C247.629 29.3547 247.962 29.406 248.307 29.406C248.747 29.406 249.077 29.329 249.297 29.175C249.524 29.0137 249.638 28.7937 249.638 28.515C249.638 28.3023 249.565 28.1337 249.418 28.009C249.279 27.877 249.048 27.7743 248.725 27.701L247.702 27.492C247.233 27.3893 246.881 27.217 246.646 26.975C246.411 26.7257 246.294 26.4103 246.294 26.029C246.294 25.7063 246.378 25.424 246.547 25.182C246.716 24.9327 246.961 24.7383 247.284 24.599C247.607 24.4523 247.984 24.379 248.417 24.379C248.82 24.379 249.191 24.4413 249.528 24.566C249.873 24.6833 250.159 24.8557 250.386 25.083L250.067 25.699C249.847 25.4863 249.594 25.3287 249.308 25.226C249.029 25.116 248.74 25.061 248.439 25.061C248.006 25.061 247.68 25.149 247.46 25.325C247.247 25.4937 247.141 25.7173 247.141 25.996C247.141 26.2087 247.207 26.3847 247.339 26.524C247.478 26.656 247.691 26.755 247.977 26.821L249 27.03C249.499 27.14 249.869 27.3123 250.111 27.547C250.36 27.7743 250.485 28.0823 250.485 28.471C250.485 28.801 250.393 29.0907 250.21 29.34C250.027 29.582 249.77 29.769 249.44 29.901C249.117 30.033 248.736 30.099 248.296 30.099Z" fill="black"/>
<path fill-rule="evenodd" clip-rule="evenodd" d="M263.756 24.0747C263.531 24.0056 263.292 23.9858 263.058 24.0167L258.74 24.0142C258.506 23.9832 258.267 24.0031 258.042 24.0721C257.818 24.1412 257.614 24.2576 257.447 24.412C257.279 24.5665 257.153 24.7547 257.078 24.962C257.003 25.1692 256.982 25.3897 257.015 25.6059V28.3939C256.982 28.6103 257.003 28.8309 257.078 29.0383C257.153 29.2456 257.279 29.434 257.447 29.5885C257.615 29.743 257.819 29.8593 258.044 29.9282C258.268 29.9972 258.508 30.0168 258.742 29.9856H263.058C263.292 30.0158 263.53 29.9956 263.754 29.9264C263.977 29.8572 264.181 29.741 264.348 29.5869C264.514 29.4329 264.64 29.2451 264.715 29.0385C264.79 28.8319 264.812 28.6121 264.779 28.3964V26.8047H260.467V27.2026H264.351V28.3964C264.376 28.5586 264.36 28.7239 264.304 28.8793C264.248 29.0347 264.153 29.1759 264.028 29.2917C263.902 29.4075 263.749 29.4948 263.581 29.5466C263.413 29.5984 263.233 29.6133 263.058 29.5902H258.742C258.566 29.6133 258.387 29.5984 258.219 29.5466C258.05 29.4948 257.897 29.4075 257.772 29.2917C257.646 29.1759 257.552 29.0347 257.496 28.8793C257.44 28.7239 257.423 28.5586 257.448 28.3964V25.6084C257.423 25.4462 257.44 25.2809 257.496 25.1255C257.552 24.9701 257.646 24.8289 257.772 24.7131C257.897 24.5973 258.05 24.51 258.219 24.4582C258.387 24.4064 258.566 24.3915 258.742 24.4146H263.058C263.233 24.3919 263.412 24.4072 263.58 24.4592C263.748 24.5112 263.901 24.5985 264.026 24.7143C264.151 24.83 264.245 24.9711 264.301 25.1263C264.357 25.2814 264.374 25.4465 264.349 25.6084H264.783C264.816 25.3922 264.795 25.1717 264.72 24.9645C264.645 24.7573 264.519 24.569 264.351 24.4145C264.184 24.2601 263.98 24.1437 263.756 24.0747ZM274.182 24.0751C273.957 24.006 273.718 23.9862 273.484 24.0171L267.443 24.0205V29.9894H267.875V27.2013H273.482C273.658 27.1782 273.837 27.1931 274.005 27.2449C274.174 27.2967 274.327 27.384 274.452 27.4998C274.578 27.6156 274.672 27.7568 274.728 27.9122C274.785 28.0676 274.801 28.233 274.776 28.3951V29.9868H275.209V28.3951C275.245 28.1237 275.196 27.8484 275.068 27.6016C274.941 27.3548 274.74 27.1468 274.488 27.002C274.74 26.8571 274.941 26.6491 275.068 26.4023C275.196 26.1555 275.245 25.8802 275.209 25.6088C275.242 25.3926 275.221 25.1721 275.146 24.9649C275.071 24.7577 274.945 24.5694 274.778 24.4149C274.61 24.2605 274.406 24.1441 274.182 24.0751ZM274.777 25.6087C274.802 25.4465 274.786 25.2812 274.729 25.1258C274.673 24.9704 274.579 24.8292 274.453 24.7134C274.328 24.5975 274.175 24.5103 274.006 24.4585C273.838 24.4067 273.659 24.3917 273.483 24.4149H267.875V26.8024H273.481C273.657 26.8259 273.836 26.8112 274.005 26.7595C274.174 26.7078 274.327 26.6206 274.453 26.5047C274.578 26.3889 274.673 26.2476 274.729 26.092C274.786 25.9365 274.802 25.771 274.777 25.6087ZM278.899 29.9276C279.124 29.9967 279.363 30.0165 279.597 29.9856H283.909C284.143 30.0165 284.382 29.9967 284.607 29.9276C284.831 29.8586 285.035 29.7422 285.203 29.5877C285.37 29.4333 285.496 29.245 285.571 29.0378C285.646 28.8306 285.667 28.6101 285.634 28.3939V25.6059C285.667 25.3897 285.646 25.1692 285.571 24.962C285.496 24.7547 285.37 24.5665 285.203 24.412C285.035 24.2576 284.831 24.1412 284.607 24.0721C284.382 24.0031 284.143 23.9832 283.909 24.0142H279.597C279.363 23.9832 279.124 24.0031 278.899 24.0721C278.675 24.1412 278.471 24.2576 278.303 24.412C278.136 24.5665 278.01 24.7547 277.935 24.962C277.86 25.1692 277.839 25.3897 277.872 25.6059V28.3939C277.839 28.6101 277.86 28.8306 277.935 29.0378C278.01 29.245 278.136 29.4333 278.303 29.5877C278.471 29.7422 278.675 29.8586 278.899 29.9276ZM278.3 28.3937C278.275 28.5559 278.291 28.7212 278.348 28.8766C278.404 29.032 278.498 29.1732 278.624 29.289C278.749 29.4049 278.902 29.4921 279.071 29.5439C279.239 29.5958 279.418 29.6107 279.594 29.5875H283.906C284.082 29.6107 284.261 29.5958 284.429 29.5439C284.598 29.4921 284.751 29.4049 284.876 29.289C285.002 29.1732 285.096 29.032 285.152 28.8766C285.209 28.7212 285.225 28.5559 285.2 28.3937V25.6057C285.225 25.4436 285.209 25.2783 285.152 25.1229C285.096 24.9675 285.002 24.8263 284.876 24.7104C284.751 24.5946 284.598 24.5073 284.429 24.4555C284.261 24.4037 284.082 24.3888 283.906 24.412H279.594C279.418 24.3888 279.239 24.4037 279.071 24.4555C278.902 24.5073 278.749 24.5946 278.624 24.7104C278.498 24.8263 278.404 24.9675 278.348 25.1229C278.291 25.2783 278.275 25.4436 278.3 25.6057V28.3937ZM295.627 24.0166V28.3938C295.652 28.5559 295.636 28.7213 295.58 28.8766C295.524 29.032 295.429 29.1732 295.304 29.2891C295.178 29.4049 295.025 29.4922 294.857 29.544C294.688 29.5958 294.509 29.6107 294.334 29.5875H290.021C289.846 29.6107 289.667 29.5958 289.498 29.544C289.33 29.4922 289.177 29.4049 289.051 29.2891C288.926 29.1732 288.831 29.032 288.775 28.8766C288.719 28.7213 288.703 28.5559 288.728 28.3938V24.0166H288.297V28.3938C288.263 28.61 288.285 28.8305 288.359 29.0377C288.434 29.2449 288.56 29.4332 288.728 29.5876C288.895 29.7421 289.099 29.8584 289.324 29.9275C289.548 29.9966 289.787 30.0164 290.021 29.9855H294.334C294.568 30.0164 294.807 29.9966 295.031 29.9275C295.256 29.8584 295.46 29.7421 295.627 29.5876C295.795 29.4332 295.921 29.2449 295.995 29.0377C296.07 28.8305 296.092 28.61 296.058 28.3938V24.0166H295.627ZM304.76 24.0171C304.994 23.9862 305.233 24.006 305.457 24.0751C305.682 24.1441 305.886 24.2605 306.053 24.4149C306.221 24.5694 306.347 24.7577 306.422 24.9649C306.496 25.1721 306.518 25.3926 306.484 25.6088C306.518 25.825 306.496 26.0455 306.422 26.2527C306.347 26.4599 306.221 26.6482 306.053 26.8027C305.886 26.9571 305.682 27.0735 305.457 27.1425C305.233 27.2116 304.994 27.2314 304.76 27.2005H299.154V29.9885H298.723V24.0196L304.76 24.0171ZM306.005 25.1258C306.061 25.2812 306.077 25.4465 306.052 25.6087H306.053C306.078 25.7709 306.062 25.9363 306.006 26.0918C305.95 26.2473 305.855 26.3885 305.729 26.5044C305.604 26.6202 305.451 26.7074 305.282 26.7592C305.114 26.8109 304.934 26.8257 304.759 26.8024H299.153V24.4149H304.759C304.934 24.3917 305.113 24.4067 305.282 24.4585C305.45 24.5103 305.603 24.5975 305.729 24.7134C305.854 24.8292 305.949 24.9704 306.005 25.1258ZM310.67 29.986C310.436 30.0169 310.197 29.9971 309.973 29.928C309.748 29.859 309.544 29.7426 309.377 29.5881C309.209 29.4337 309.083 29.2454 309.008 29.0382C308.934 28.831 308.912 28.6105 308.946 28.3943H309.377C309.352 28.5564 309.368 28.7218 309.424 28.8772C309.48 29.0325 309.575 29.1738 309.7 29.2896C309.826 29.4054 309.979 29.4927 310.147 29.5445C310.316 29.5963 310.495 29.6112 310.67 29.588H314.983C315.158 29.6112 315.337 29.5963 315.506 29.5445C315.674 29.4927 315.827 29.4054 315.953 29.2896C316.078 29.1738 316.173 29.0325 316.229 28.8772C316.285 28.7218 316.301 28.5564 316.276 28.3943C316.301 28.2321 316.285 28.0668 316.229 27.9114C316.173 27.756 316.078 27.6148 315.953 27.499C315.827 27.3832 315.674 27.2959 315.506 27.2441C315.337 27.1923 315.158 27.1773 314.983 27.2005H310.67C310.436 27.2314 310.197 27.2116 309.973 27.1425C309.748 27.0735 309.544 26.9571 309.377 26.8027C309.209 26.6482 309.083 26.4599 309.008 26.2527C308.934 26.0455 308.912 25.825 308.946 25.6088C308.912 25.3926 308.934 25.1721 309.008 24.9649C309.083 24.7577 309.209 24.5694 309.377 24.4149C309.544 24.2605 309.748 24.1441 309.973 24.0751C310.197 24.006 310.436 23.9862 310.67 24.0171H314.983C315.217 23.9863 315.455 24.0063 315.68 24.0754C315.904 24.1445 316.108 24.2609 316.276 24.4153C316.443 24.5697 316.569 24.758 316.644 24.9651C316.718 25.1723 316.74 25.3927 316.706 25.6088H316.275C316.3 25.4466 316.284 25.2813 316.228 25.1259C316.172 24.9705 316.077 24.8293 315.952 24.7135C315.826 24.5977 315.673 24.5104 315.505 24.4586C315.336 24.4068 315.157 24.3919 314.982 24.415H310.669C310.494 24.3919 310.315 24.4068 310.146 24.4586C309.978 24.5104 309.825 24.5977 309.699 24.7135C309.574 24.8293 309.479 24.9705 309.423 25.1259C309.367 25.2813 309.351 25.4466 309.376 25.6088C309.351 25.771 309.367 25.9363 309.423 26.0917C309.479 26.2471 309.574 26.3883 309.699 26.5041C309.825 26.6199 309.978 26.7072 310.146 26.759C310.315 26.8108 310.494 26.8257 310.669 26.8026H314.982C315.216 26.7716 315.455 26.7915 315.679 26.8605C315.904 26.9296 316.108 27.046 316.275 27.2004C316.443 27.3549 316.569 27.5431 316.644 27.7504C316.718 27.9576 316.74 28.1781 316.706 28.3943C316.74 28.6105 316.718 28.831 316.644 29.0382C316.569 29.2454 316.443 29.4337 316.275 29.5881C316.108 29.7426 315.904 29.859 315.679 29.928C315.455 29.9971 315.216 30.0169 314.982 29.986H310.67ZM319.803 29.9855V27.1975H326.704V29.9855H327.135V24.0166H326.704V26.8046H319.803V24.0166H319.372V29.9855H319.803ZM331.522 29.9856C331.287 30.0162 331.049 29.9961 330.824 29.927C330.6 29.8578 330.396 29.7414 330.229 29.587C330.062 29.4326 329.936 29.2444 329.861 29.0373C329.787 28.8302 329.765 28.6099 329.799 28.3939V25.6059C329.765 25.3897 329.786 25.1692 329.861 24.962C329.936 24.7547 330.062 24.5665 330.23 24.412C330.397 24.2576 330.601 24.1412 330.826 24.0721C331.05 24.0031 331.289 23.9832 331.523 24.0142H335.841C336.075 23.9832 336.314 24.0031 336.539 24.0721C336.763 24.1412 336.967 24.2576 337.135 24.412C337.302 24.5665 337.428 24.7547 337.503 24.962C337.578 25.1692 337.599 25.3897 337.566 25.6059V28.3939C337.599 28.6101 337.578 28.8306 337.503 29.0378C337.428 29.245 337.302 29.4333 337.135 29.5877C336.967 29.7422 336.763 29.8586 336.539 29.9276C336.314 29.9967 336.075 30.0165 335.841 29.9856H331.522ZM330.274 28.877C330.218 28.7216 330.202 28.5563 330.227 28.3941L330.234 25.6087C330.209 25.4465 330.225 25.2812 330.281 25.1258C330.337 24.9704 330.432 24.8292 330.558 24.7134C330.683 24.5975 330.836 24.5103 331.005 24.4585C331.173 24.4067 331.352 24.3917 331.528 24.4149H335.84C336.015 24.3918 336.194 24.4067 336.362 24.4584C336.53 24.5101 336.683 24.5971 336.809 24.7126C336.934 24.8282 337.029 24.969 337.085 25.1241C337.142 25.2791 337.158 25.4442 337.133 25.6061V28.3941C337.159 28.5563 337.142 28.7216 337.086 28.877C337.03 29.0324 336.936 29.1736 336.81 29.2894C336.684 29.4053 336.531 29.4925 336.363 29.5443C336.195 29.5962 336.016 29.6111 335.84 29.5879H331.52C331.345 29.6111 331.166 29.5962 330.997 29.5443C330.829 29.4925 330.676 29.4053 330.55 29.2894C330.425 29.1736 330.33 29.0324 330.274 28.877ZM346.26 24.0171C346.494 23.9862 346.733 24.006 346.957 24.0751C347.182 24.1441 347.386 24.2605 347.553 24.4149C347.721 24.5694 347.847 24.7577 347.921 24.9649C347.996 25.1721 348.017 25.3926 347.985 25.6088C348.017 25.825 347.996 26.0455 347.921 26.2527C347.847 26.4599 347.721 26.6482 347.553 26.8027C347.386 26.9571 347.182 27.0735 346.957 27.1425C346.733 27.2116 346.494 27.2314 346.26 27.2005H340.656V29.9885H340.225V24.0196L346.26 24.0171ZM347.507 25.1258C347.563 25.2812 347.579 25.4465 347.554 25.6087H347.56C347.584 25.7711 347.569 25.9368 347.512 26.0925C347.456 26.2482 347.361 26.3896 347.235 26.5055C347.109 26.6214 346.956 26.7086 346.787 26.7602C346.618 26.8117 346.438 26.8262 346.262 26.8024H340.657V24.4149H346.261C346.436 24.3917 346.615 24.4067 346.784 24.4585C346.952 24.5103 347.105 24.5975 347.231 24.7134C347.356 24.8292 347.451 24.9704 347.507 25.1258Z" fill="black"/>
<path d="M263.058 24.0167L263.057 24.5167L263.09 24.5167L263.123 24.5124L263.058 24.0167ZM263.756 24.0747L263.902 23.5968L263.902 23.5968L263.756 24.0747ZM258.74 24.0142L258.675 24.5099L258.707 24.5142L258.74 24.5142L258.74 24.0142ZM258.042 24.0721L257.896 23.5942L258.042 24.0721ZM257.447 24.412L257.786 24.7795L257.786 24.7794L257.447 24.412ZM257.078 24.962L256.608 24.7921L256.608 24.7922L257.078 24.962ZM257.015 25.6059H257.515V25.5674L257.51 25.5293L257.015 25.6059ZM257.015 28.3939L257.509 28.4706L257.515 28.4325V28.3939H257.015ZM257.078 29.0383L257.549 28.8684L257.078 29.0383ZM257.447 29.5885L257.108 29.9561L257.108 29.9562L257.447 29.5885ZM258.044 29.9282L258.19 29.4502L258.19 29.4502L258.044 29.9282ZM258.742 29.9856V29.4856H258.709L258.676 29.49L258.742 29.9856ZM263.058 29.9856L263.122 29.4897L263.09 29.4856H263.058V29.9856ZM263.754 29.9264L263.606 29.4487L263.606 29.4487L263.754 29.9264ZM264.348 29.5869L264.687 29.9543L264.687 29.9543L264.348 29.5869ZM264.715 29.0385L265.185 29.2089L265.185 29.2088L264.715 29.0385ZM264.779 28.3964H264.279V28.4343L264.285 28.4718L264.779 28.3964ZM264.779 26.8047H265.279V26.3047H264.779V26.8047ZM260.467 26.8047V26.3047H259.967V26.8047H260.467ZM260.467 27.2026H259.967V27.7026H260.467V27.2026ZM264.351 27.2026H264.851V26.7026H264.351V27.2026ZM264.351 28.3964H263.851V28.4349L263.857 28.4729L264.351 28.3964ZM264.028 29.2917L263.689 28.9243L263.689 28.9243L264.028 29.2917ZM263.058 29.5902L263.123 29.0945L263.091 29.0902H263.058V29.5902ZM258.742 29.5902V29.0902H258.709L258.677 29.0945L258.742 29.5902ZM258.219 29.5466L258.072 30.0245L258.072 30.0245L258.219 29.5466ZM257.772 29.2917L258.111 28.9243H258.111L257.772 29.2917ZM257.448 28.3964L257.943 28.4729L257.948 28.4349V28.3964H257.448ZM257.448 25.6084H257.948V25.57L257.943 25.5319L257.448 25.6084ZM257.496 25.1255L257.025 24.9556L257.025 24.9556L257.496 25.1255ZM257.772 24.7131L257.433 24.3457L257.433 24.3457L257.772 24.7131ZM258.219 24.4582L258.072 23.9803L258.072 23.9803L258.219 24.4582ZM258.742 24.4146L258.677 24.9103L258.709 24.9146H258.742V24.4146ZM263.058 24.4146V24.9146H263.09L263.122 24.9105L263.058 24.4146ZM263.58 24.4592L263.728 23.9815L263.728 23.9815L263.58 24.4592ZM264.301 25.1263L264.772 24.9565L264.772 24.9565L264.301 25.1263ZM264.349 25.6084L263.854 25.5322L263.766 26.1084H264.349V25.6084ZM264.783 25.6084V26.1084H265.211L265.277 25.685L264.783 25.6084ZM264.72 24.9645L264.249 25.1343L264.249 25.1343L264.72 24.9645ZM264.351 24.4145L264.012 24.782L264.012 24.782L264.351 24.4145ZM273.484 24.0171L273.484 24.5171L273.517 24.5171L273.549 24.5128L273.484 24.0171ZM274.182 24.0751L274.329 23.5972L274.329 23.5972L274.182 24.0751ZM267.443 24.0205L267.443 23.5205L266.943 23.5208V24.0205H267.443ZM267.443 29.9894H266.943V30.4894H267.443V29.9894ZM267.875 29.9894V30.4894H268.375V29.9894H267.875ZM267.875 27.2013V26.7013H267.375V27.2013H267.875ZM273.482 27.2013V27.7013H273.515L273.547 27.6971L273.482 27.2013ZM274.452 27.4998L274.791 27.1324L274.791 27.1324L274.452 27.4998ZM274.728 27.9122L275.199 27.7424V27.7424L274.728 27.9122ZM274.776 28.3951L274.282 28.3184L274.276 28.3565V28.3951H274.776ZM274.776 29.9868H274.276V30.4868H274.776V29.9868ZM275.209 29.9868V30.4868H275.709V29.9868H275.209ZM275.209 28.3951L274.713 28.3291L274.709 28.362V28.3951H275.209ZM275.068 27.6016L274.624 27.8313L274.624 27.8313L275.068 27.6016ZM274.488 27.002L274.239 26.5687L273.486 27.002L274.239 27.4352L274.488 27.002ZM275.068 26.4023L274.624 26.1726L274.624 26.1726L275.068 26.4023ZM275.209 25.6088L274.715 25.532L274.703 25.6033L274.713 25.6748L275.209 25.6088ZM275.146 24.9649L274.676 25.1347L274.676 25.1348L275.146 24.9649ZM274.778 24.4149L275.117 24.0475L275.117 24.0474L274.778 24.4149ZM274.729 25.1258L275.2 24.956L275.2 24.9559L274.729 25.1258ZM274.777 25.6087L274.282 25.532L274.271 25.6086L274.282 25.6853L274.777 25.6087ZM274.453 24.7134L274.114 25.0808L274.114 25.0808L274.453 24.7134ZM274.006 24.4585L273.859 24.9363V24.9363L274.006 24.4585ZM273.483 24.4149V24.9149H273.516L273.548 24.9106L273.483 24.4149ZM267.875 24.4149V23.9149H267.375V24.4149H267.875ZM267.875 26.8024H267.375V27.3024H267.875V26.8024ZM273.481 26.8024L273.547 26.3068L273.514 26.3024H273.481V26.8024ZM274.005 26.7595L273.858 26.2815L273.858 26.2815L274.005 26.7595ZM274.453 26.5047L274.791 26.8725L274.792 26.8724L274.453 26.5047ZM274.729 26.092L274.259 25.9218L274.259 25.9221L274.729 26.092ZM279.597 29.9856V29.4856H279.564L279.531 29.4899L279.597 29.9856ZM278.899 29.9276L279.046 29.4497L279.046 29.4497L278.899 29.9276ZM283.909 29.9856L283.974 29.4899L283.942 29.4856H283.909V29.9856ZM284.607 29.9276L284.46 29.4497L284.46 29.4497L284.607 29.9276ZM285.203 29.5877L285.542 29.9553L285.542 29.9552L285.203 29.5877ZM285.571 29.0378L285.101 28.8678L285.101 28.868L285.571 29.0378ZM285.634 28.3939H285.134V28.4325L285.14 28.4707L285.634 28.3939ZM285.634 25.6059L285.14 25.5291L285.134 25.5673V25.6059H285.634ZM285.571 24.962L285.101 25.1317L285.101 25.1319L285.571 24.962ZM285.203 24.412L285.542 24.0446L285.542 24.0445L285.203 24.412ZM284.607 24.0721L284.754 23.5942V23.5942L284.607 24.0721ZM283.909 24.0142V24.5142H283.942L283.974 24.5099L283.909 24.0142ZM279.597 24.0142L279.531 24.5099L279.564 24.5142H279.597V24.0142ZM278.899 24.0721L279.046 24.5501V24.5501L278.899 24.0721ZM278.303 24.412L277.964 24.0445L277.964 24.0446L278.303 24.412ZM277.935 24.962L278.405 25.1319L278.405 25.1317L277.935 24.962ZM277.872 25.6059H278.372V25.5674L278.366 25.5293L277.872 25.6059ZM277.872 28.3939L278.366 28.4704L278.372 28.4324V28.3939H277.872ZM277.935 29.0378L278.405 28.868L278.405 28.8678L277.935 29.0378ZM278.303 29.5877L277.964 29.9552L277.964 29.9553L278.303 29.5877ZM278.348 28.8766L277.877 29.0465L277.877 29.0465L278.348 28.8766ZM278.3 28.3937L278.794 28.4702L278.8 28.4322V28.3937H278.3ZM278.624 29.289L278.963 28.9216L278.963 28.9216L278.624 29.289ZM279.594 29.5875V29.0875H279.561L279.529 29.0918L279.594 29.5875ZM283.906 29.5875L283.971 29.0918L283.939 29.0875H283.906V29.5875ZM284.876 29.289L284.537 28.9216L284.537 28.9216L284.876 29.289ZM285.152 28.8766L284.682 28.7068L284.682 28.7068L285.152 28.8766ZM285.2 28.3937H284.7V28.4323L284.705 28.4704L285.2 28.3937ZM285.2 25.6057L284.705 25.529L284.7 25.5672V25.6057H285.2ZM285.152 25.1229L285.623 24.953V24.953L285.152 25.1229ZM284.876 24.7104L284.537 25.0779L284.537 25.0779L284.876 24.7104ZM284.429 24.4555L284.576 23.9776V23.9776L284.429 24.4555ZM283.906 24.412V24.912H283.939L283.971 24.9077L283.906 24.412ZM279.594 24.412L279.529 24.9077L279.561 24.912H279.594V24.412ZM279.071 24.4555L278.924 23.9776V23.9776L279.071 24.4555ZM278.624 24.7104L278.285 24.343L278.285 24.343L278.624 24.7104ZM278.348 25.1229L277.877 24.953L277.877 24.953L278.348 25.1229ZM278.3 25.6057H278.8V25.5673L278.794 25.5293L278.3 25.6057ZM295.627 28.3938H295.127V28.4324L295.133 28.4705L295.627 28.3938ZM295.627 24.0166V23.5166H295.127V24.0166H295.627ZM295.58 28.8766L295.11 28.7068L295.11 28.7068L295.58 28.8766ZM295.304 29.2891L294.965 28.9216L294.965 28.9216L295.304 29.2891ZM294.334 29.5875L294.399 29.0918L294.366 29.0875H294.334V29.5875ZM290.021 29.5875V29.0875H289.989L289.956 29.0918L290.021 29.5875ZM289.051 29.2891L289.39 28.9216L289.39 28.9216L289.051 29.2891ZM288.728 28.3938L289.222 28.4705L289.228 28.4324V28.3938H288.728ZM288.728 24.0166H289.228V23.5166H288.728V24.0166ZM288.297 24.0166V23.5166H287.797V24.0166H288.297ZM288.297 28.3938L288.791 28.4703L288.797 28.4323V28.3938H288.297ZM288.359 29.0377L288.83 28.8679L288.83 28.8677L288.359 29.0377ZM288.728 29.5876L288.389 29.9551L288.389 29.9552L288.728 29.5876ZM289.324 29.9275L289.471 29.4496L289.471 29.4496L289.324 29.9275ZM290.021 29.9855V29.4855H289.989L289.956 29.4898L290.021 29.9855ZM294.334 29.9855L294.399 29.4898L294.366 29.4855H294.334V29.9855ZM295.031 29.9275L294.884 29.4496L294.884 29.4496L295.031 29.9275ZM295.627 29.5876L295.966 29.9552L295.966 29.9551L295.627 29.5876ZM295.995 29.0377L295.525 28.8677L295.525 28.8679L295.995 29.0377ZM296.058 28.3938H295.558V28.4323L295.564 28.4703L296.058 28.3938ZM296.058 24.0166H296.558V23.5166H296.058V24.0166ZM305.457 24.0751L305.31 24.553V24.553L305.457 24.0751ZM304.76 24.0171L304.76 24.5171L304.793 24.5171L304.825 24.5128L304.76 24.0171ZM306.053 24.4149L306.392 24.0475L306.392 24.0474L306.053 24.4149ZM306.422 24.9649L305.951 25.1347L305.951 25.1348L306.422 24.9649ZM306.484 25.6088L305.99 25.5322L305.978 25.6088L305.99 25.6854L306.484 25.6088ZM306.422 26.2527L305.951 26.0828L305.951 26.0829L306.422 26.2527ZM306.053 26.8027L306.392 27.1702L306.392 27.1701L306.053 26.8027ZM305.457 27.1425L305.31 26.6646L305.31 26.6646L305.457 27.1425ZM304.76 27.2005L304.825 26.7048L304.792 26.7005H304.76V27.2005ZM299.154 27.2005V26.7005H298.654V27.2005H299.154ZM299.154 29.9885V30.4885H299.654V29.9885H299.154ZM298.723 29.9885H298.223V30.4885H298.723V29.9885ZM298.723 24.0196L298.722 23.5196L298.223 23.5198V24.0196H298.723ZM306.052 25.6087L305.558 25.532L305.469 26.1087H306.052V25.6087ZM306.005 25.1258L306.475 24.956L306.475 24.9559L306.005 25.1258ZM306.053 25.6087L306.547 25.532L306.481 25.1087H306.053V25.6087ZM306.006 26.0918L306.476 26.2618L306.476 26.2615L306.006 26.0918ZM305.282 26.7592L305.135 26.2812L305.135 26.2812L305.282 26.7592ZM304.759 26.8024L304.824 26.3068L304.792 26.3024H304.759V26.8024ZM299.153 26.8024H298.653V27.3024H299.153V26.8024ZM299.153 24.4149V23.9149H298.653V24.4149H299.153ZM304.759 24.4149V24.9149H304.791L304.824 24.9106L304.759 24.4149ZM305.282 24.4585L305.429 23.9806V23.9806L305.282 24.4585ZM305.729 24.7134L305.39 25.0808L305.729 24.7134ZM309.973 29.928L310.12 29.4501L310.12 29.4501L309.973 29.928ZM310.67 29.986V29.486H310.638L310.605 29.4903L310.67 29.986ZM309.377 29.5881L309.038 29.9556L309.038 29.9557L309.377 29.5881ZM309.008 29.0382L309.479 28.8684L309.479 28.8682L309.008 29.0382ZM308.946 28.3943V27.8943H308.517L308.451 28.3177L308.946 28.3943ZM309.377 28.3943L309.871 28.471L309.961 27.8943H309.377V28.3943ZM309.424 28.8772L308.954 29.047L308.954 29.047L309.424 28.8772ZM309.7 29.2896L310.039 28.9221L310.039 28.9221L309.7 29.2896ZM310.67 29.588V29.088H310.638L310.605 29.0923L310.67 29.588ZM314.983 29.588L315.048 29.0923L315.015 29.088H314.983V29.588ZM315.953 29.2896L315.614 28.9221L315.614 28.9221L315.953 29.2896ZM316.229 28.8772L315.759 28.7073L315.759 28.7073L316.229 28.8772ZM316.276 28.3943L315.782 28.3178L315.77 28.3943L315.782 28.4707L316.276 28.3943ZM316.229 27.9114L315.759 28.0812V28.0812L316.229 27.9114ZM315.953 27.499L316.292 27.1315L316.292 27.1315L315.953 27.499ZM314.983 27.2005V27.7005H315.015L315.048 27.6962L314.983 27.2005ZM310.67 27.2005V26.7005H310.638L310.605 26.7048L310.67 27.2005ZM309.973 27.1425L310.12 26.6646L310.12 26.6646L309.973 27.1425ZM309.377 26.8027L309.038 27.1701L309.038 27.1702L309.377 26.8027ZM309.008 26.2527L309.479 26.0829L309.479 26.0828L309.008 26.2527ZM308.946 25.6088L309.44 25.6854L309.452 25.6088L309.44 25.5322L308.946 25.6088ZM309.008 24.9649L309.479 25.1348L309.479 25.1346L309.008 24.9649ZM309.377 24.4149L309.038 24.0474L309.038 24.0475L309.377 24.4149ZM309.973 24.0751L309.826 23.5972V23.5972L309.973 24.0751ZM310.67 24.0171L310.605 24.5128L310.638 24.5171H310.67V24.0171ZM314.983 24.0171V24.5171H315.015L315.048 24.5128L314.983 24.0171ZM315.68 24.0754L315.827 23.5975L315.827 23.5975L315.68 24.0754ZM316.276 24.4153L316.615 24.048L316.615 24.048L316.276 24.4153ZM316.644 24.9651L317.114 24.7955L317.114 24.7953L316.644 24.9651ZM316.706 25.6088V26.1088H317.135L317.2 25.6854L316.706 25.6088ZM316.275 25.6088L315.781 25.5321L315.692 26.1088H316.275V25.6088ZM316.228 25.1259L315.758 25.2958V25.2958L316.228 25.1259ZM314.982 24.415V24.915H315.014L315.047 24.9107L314.982 24.415ZM310.669 24.415L310.604 24.9107L310.637 24.915H310.669V24.415ZM309.423 25.1259L308.953 24.9561L308.953 24.9561L309.423 25.1259ZM309.376 25.6088L309.87 25.6855L309.882 25.6088L309.87 25.5321L309.376 25.6088ZM309.423 26.0917L308.953 26.2615L308.953 26.2615L309.423 26.0917ZM309.699 26.5041L310.038 26.1367L310.038 26.1366L309.699 26.5041ZM310.669 26.8026V26.3026H310.637L310.604 26.3069L310.669 26.8026ZM314.982 26.8026V27.3026H315.014L315.047 27.2983L314.982 26.8026ZM315.679 26.8605L315.826 26.3826L315.826 26.3826L315.679 26.8605ZM316.275 27.2004L316.614 26.833L316.614 26.8329L316.275 27.2004ZM316.644 27.7504L316.173 27.9201L316.173 27.9203L316.644 27.7504ZM316.706 28.3943L316.212 28.3175L316.2 28.3943L316.212 28.471L316.706 28.3943ZM316.644 29.0382L316.173 28.8682L316.173 28.8684L316.644 29.0382ZM316.275 29.5881L316.614 29.9557L316.614 29.9556L316.275 29.5881ZM315.679 29.928L315.532 29.4501L315.532 29.4501L315.679 29.928ZM314.982 29.986L315.047 29.4903L315.014 29.486H314.982V29.986ZM319.803 27.1975V26.6975H319.303V27.1975H319.803ZM319.803 29.9855V30.4855H320.303V29.9855H319.803ZM326.704 27.1975H327.204V26.6975H326.704V27.1975ZM326.704 29.9855H326.204V30.4855H326.704V29.9855ZM327.135 29.9855V30.4855H327.635V29.9855H327.135ZM327.135 24.0166H327.635V23.5166H327.135V24.0166ZM326.704 24.0166V23.5166H326.204V24.0166H326.704ZM326.704 26.8046V27.3046H327.204V26.8046H326.704ZM319.803 26.8046H319.303V27.3046H319.803V26.8046ZM319.803 24.0166H320.303V23.5166H319.803V24.0166ZM319.372 24.0166V23.5166H318.872V24.0166H319.372ZM319.372 29.9855H318.872V30.4855H319.372V29.9855ZM330.824 29.927L330.677 30.4048L330.677 30.4048L330.824 29.927ZM331.522 29.9856V29.4856H331.489L331.457 29.4898L331.522 29.9856ZM330.229 29.587L330.569 29.2198L330.568 29.2197L330.229 29.587ZM329.861 29.0373L329.391 29.207V29.207L329.861 29.0373ZM329.799 28.3939L330.293 28.4705L330.299 28.4324V28.3939H329.799ZM329.799 25.6059H330.299V25.5673L330.293 25.5291L329.799 25.6059ZM329.861 24.962L330.332 25.1319L330.332 25.1317L329.861 24.962ZM330.23 24.412L329.891 24.0445L329.891 24.0446L330.23 24.412ZM330.826 24.0721L330.679 23.5942L330.826 24.0721ZM331.523 24.0142L331.458 24.5099L331.491 24.5142H331.523V24.0142ZM335.841 24.0142V24.5142H335.874L335.906 24.5099L335.841 24.0142ZM336.539 24.0721L336.686 23.5942L336.686 23.5942L336.539 24.0721ZM337.135 24.412L337.474 24.0446L337.474 24.0445L337.135 24.412ZM337.503 24.962L337.033 25.1317L337.033 25.1319L337.503 24.962ZM337.566 25.6059L337.072 25.5293L337.066 25.5674V25.6059H337.566ZM337.566 28.3939H337.066V28.4324L337.072 28.4705L337.566 28.3939ZM337.503 29.0378L337.033 28.8678L337.033 28.868L337.503 29.0378ZM337.135 29.5877L337.474 29.9553L337.474 29.9552L337.135 29.5877ZM336.539 29.9276L336.392 29.4497L336.392 29.4497L336.539 29.9276ZM335.841 29.9856L335.906 29.4899L335.874 29.4856H335.841V29.9856ZM330.227 28.3941L330.721 28.4708L330.727 28.4334L330.727 28.3954L330.227 28.3941ZM330.234 25.6087L330.734 25.61L330.734 25.5709L330.728 25.5322L330.234 25.6087ZM330.281 25.1258L329.811 24.9559L329.811 24.956L330.281 25.1258ZM330.558 24.7134L330.218 24.3459L330.218 24.3459L330.558 24.7134ZM331.005 24.4585L331.152 24.9364L331.152 24.9363L331.005 24.4585ZM331.528 24.4149L331.462 24.9106L331.495 24.9149H331.528V24.4149ZM335.84 24.4149V24.9149H335.872L335.905 24.9106L335.84 24.4149ZM336.362 24.4584L336.509 23.9805L336.509 23.9804L336.362 24.4584ZM336.809 24.7126L336.47 25.0804L336.47 25.0804L336.809 24.7126ZM337.085 25.1241L336.615 25.2947L336.615 25.295L337.085 25.1241ZM337.133 25.6061L336.639 25.5312L336.633 25.5685V25.6061H337.133ZM337.133 28.3941H336.633V28.4326L336.639 28.4706L337.133 28.3941ZM337.086 28.877L336.616 28.7072L336.616 28.7072L337.086 28.877ZM336.81 29.2894L336.471 28.922L336.471 28.922L336.81 29.2894ZM336.363 29.5443L336.51 30.0222L336.51 30.0222L336.363 29.5443ZM335.84 29.5879L335.905 29.0922L335.873 29.0879H335.84V29.5879ZM331.52 29.5879V29.0879H331.488L331.455 29.0922L331.52 29.5879ZM330.55 29.2894L330.889 28.922L330.889 28.922L330.55 29.2894ZM346.957 24.0751L347.104 23.5972L347.104 23.5972L346.957 24.0751ZM346.26 24.0171L346.26 24.5171L346.293 24.5171L346.325 24.5128L346.26 24.0171ZM347.553 24.4149L347.214 24.7825L347.214 24.7826L347.553 24.4149ZM347.921 24.9649L347.451 25.1334L347.451 25.1352L347.921 24.9649ZM347.985 25.6088L347.49 25.5335L347.479 25.6088L347.49 25.6841L347.985 25.6088ZM347.921 26.2527L347.451 26.0824L347.451 26.0842L347.921 26.2527ZM347.553 26.8027L347.214 26.4351L347.214 26.4351L347.553 26.8027ZM346.957 27.1425L346.81 26.6646L346.81 26.6646L346.957 27.1425ZM346.26 27.2005L346.325 26.7048L346.292 26.7005H346.26V27.2005ZM340.656 27.2005V26.7005H340.156V27.2005H340.656ZM340.656 29.9885V30.4885H341.156V29.9885H340.656ZM340.225 29.9885H339.725V30.4885H340.225V29.9885ZM340.225 24.0196L340.224 23.5196L339.725 23.5198V24.0196H340.225ZM347.554 25.6087L347.06 25.5333L346.972 26.1087H347.554V25.6087ZM347.507 25.1258L347.037 25.2956L347.037 25.2966L347.507 25.1258ZM347.56 25.6087L348.054 25.5335L347.989 25.1087H347.56V25.6087ZM347.512 26.0925L347.042 25.9217L347.042 25.9222L347.512 26.0925ZM347.235 26.5055L346.897 26.1376L346.897 26.1376L347.235 26.5055ZM346.787 26.7602L346.933 27.2384L346.933 27.2384L346.787 26.7602ZM346.262 26.8024L346.329 26.3069L346.296 26.3024H346.262V26.8024ZM340.657 26.8024H340.157V27.3024H340.657V26.8024ZM340.657 24.4149V23.9149H340.157V24.4149H340.657ZM346.261 24.4149V24.9149H346.293L346.326 24.9106L346.261 24.4149ZM346.784 24.4585L346.637 24.9363L346.637 24.9364L346.784 24.4585ZM347.231 24.7134L346.892 25.0808L347.231 24.7134ZM263.123 24.5124C263.287 24.4908 263.453 24.5048 263.609 24.5526L263.902 23.5968C263.609 23.5065 263.297 23.4807 262.992 23.521L263.123 24.5124ZM258.74 24.5142L263.057 24.5167L263.058 23.5167L258.741 23.5142L258.74 24.5142ZM258.189 24.5501C258.345 24.5023 258.511 24.4883 258.675 24.5099L258.806 23.5185C258.501 23.4782 258.189 23.5039 257.896 23.5942L258.189 24.5501ZM257.786 24.7794C257.896 24.6774 258.034 24.5978 258.189 24.5501L257.896 23.5942C257.602 23.6845 257.332 23.8378 257.107 24.0446L257.786 24.7794ZM257.548 25.1318C257.595 25.0026 257.675 24.8814 257.786 24.7795L257.107 24.0445C256.883 24.2515 256.711 24.5069 256.608 24.7921L257.548 25.1318ZM257.51 25.5293C257.489 25.3965 257.502 25.2607 257.548 25.1318L256.608 24.7922C256.505 25.0777 256.475 25.3828 256.521 25.6825L257.51 25.5293ZM257.515 28.3939V25.6059H256.515V28.3939H257.515ZM257.549 28.8684C257.502 28.7393 257.489 28.6035 257.509 28.4706L256.521 28.3172C256.475 28.6171 256.505 28.9225 256.608 29.2082L257.549 28.8684ZM257.786 29.2209C257.675 29.1189 257.595 28.9976 257.549 28.8684L256.608 29.2082C256.711 29.4936 256.884 29.7492 257.108 29.9561L257.786 29.2209ZM258.19 29.4502C258.035 29.4025 257.897 29.323 257.786 29.2209L257.108 29.9562C257.333 30.163 257.603 30.3161 257.897 30.4063L258.19 29.4502ZM258.676 29.49C258.512 29.5117 258.346 29.4979 258.19 29.4502L257.897 30.4063C258.191 30.4964 258.503 30.5219 258.808 30.4812L258.676 29.49ZM263.058 29.4856H258.742V30.4856H263.058V29.4856ZM263.606 29.4487C263.451 29.4966 263.285 29.5108 263.122 29.4897L262.994 30.4814C263.298 30.5208 263.608 30.4946 263.901 30.4041L263.606 29.4487ZM264.008 29.2196C263.898 29.3214 263.761 29.4008 263.606 29.4487L263.901 30.4041C264.194 30.3136 264.463 30.1606 264.687 29.9543L264.008 29.2196ZM264.245 28.8682C264.198 28.9971 264.119 29.1179 264.008 29.2196L264.687 29.9543C264.91 29.7478 265.082 29.4932 265.185 29.2089L264.245 28.8682ZM264.285 28.4718C264.305 28.6043 264.292 28.7397 264.245 28.8682L265.185 29.2088C265.288 28.9242 265.319 28.62 265.273 28.321L264.285 28.4718ZM264.279 26.8047V28.3964H265.279V26.8047H264.279ZM260.467 27.3047H264.779V26.3047H260.467V27.3047ZM260.967 27.2026V26.8047H259.967V27.2026H260.967ZM264.351 26.7026H260.467V27.7026H264.351V26.7026ZM264.851 28.3964V27.2026H263.851V28.3964H264.851ZM264.774 29.0492C264.859 28.8155 264.883 28.5655 264.845 28.32L263.857 28.4729C263.869 28.5516 263.862 28.6323 263.834 28.7094L264.774 29.0492ZM264.367 29.6592C264.549 29.4909 264.69 29.2826 264.774 29.0492L263.834 28.7094C263.806 28.7868 263.757 28.8609 263.689 28.9243L264.367 29.6592ZM263.728 30.0245C263.966 29.9514 264.185 29.8273 264.367 29.6591L263.689 28.9243C263.62 28.9878 263.533 29.0382 263.434 29.0687L263.728 30.0245ZM262.992 30.0859C263.239 30.1184 263.491 30.0976 263.728 30.0245L263.434 29.0687C263.335 29.0993 263.228 29.1083 263.123 29.0945L262.992 30.0859ZM258.742 30.0902H263.058V29.0902H258.742V30.0902ZM258.072 30.0245C258.309 30.0976 258.561 30.1184 258.807 30.0859L258.677 29.0945C258.572 29.1083 258.465 29.0993 258.366 29.0687L258.072 30.0245ZM257.433 29.6592C257.615 29.8273 257.834 29.9514 258.072 30.0245L258.366 29.0687C258.267 29.0382 258.18 28.9878 258.111 28.9243L257.433 29.6592ZM257.025 29.0492C257.11 29.2826 257.25 29.4908 257.433 29.6592L258.111 28.9243C258.042 28.8609 257.994 28.7868 257.966 28.7094L257.025 29.0492ZM256.954 28.32C256.916 28.5655 256.941 28.8155 257.025 29.0492L257.966 28.7094C257.938 28.6322 257.93 28.5516 257.943 28.4729L256.954 28.32ZM256.948 25.6084V28.3964H257.948V25.6084H256.948ZM257.025 24.9556C256.941 25.1893 256.916 25.4393 256.954 25.6849L257.943 25.5319C257.93 25.4532 257.938 25.3726 257.966 25.2954L257.025 24.9556ZM257.433 24.3457C257.25 24.514 257.11 24.7222 257.025 24.9556L257.966 25.2954C257.994 25.218 258.042 25.1439 258.111 25.0805L257.433 24.3457ZM258.072 23.9803C257.834 24.0534 257.615 24.1775 257.433 24.3457L258.111 25.0806C258.18 25.0171 258.267 24.9666 258.366 24.9361L258.072 23.9803ZM258.807 23.9189C258.561 23.8864 258.309 23.9072 258.072 23.9803L258.366 24.9361C258.465 24.9055 258.572 24.8965 258.677 24.9103L258.807 23.9189ZM263.058 23.9146H258.742V24.9146H263.058V23.9146ZM263.728 23.9815C263.491 23.9082 263.24 23.8869 262.994 23.9188L263.122 24.9105C263.227 24.8969 263.333 24.9062 263.432 24.9368L263.728 23.9815ZM264.365 24.3472C264.184 24.1791 263.965 24.0549 263.728 23.9815L263.432 24.9368C263.531 24.9674 263.618 25.0179 263.687 25.0814L264.365 24.3472ZM264.772 24.9565C264.688 24.7235 264.547 24.5154 264.365 24.3472L263.687 25.0814C263.755 25.1446 263.803 25.2187 263.831 25.296L264.772 24.9565ZM264.843 25.6847C264.881 25.4395 264.856 25.1899 264.772 24.9565L263.831 25.296C263.859 25.373 263.867 25.4535 263.854 25.5322L264.843 25.6847ZM264.783 25.1084H264.349V26.1084H264.783V25.1084ZM264.249 25.1343C264.296 25.2633 264.309 25.399 264.288 25.5318L265.277 25.685C265.323 25.3853 265.293 25.0802 265.19 24.7947L264.249 25.1343ZM264.012 24.782C264.123 24.8839 264.203 25.0051 264.249 25.1343L265.19 24.7947C265.087 24.5094 264.915 24.254 264.691 24.0471L264.012 24.782ZM263.609 24.5526C263.764 24.6004 263.902 24.6799 264.012 24.782L264.691 24.0471C264.466 23.8403 264.196 23.6871 263.902 23.5968L263.609 24.5526ZM273.549 24.5128C273.713 24.4912 273.879 24.5052 274.035 24.553L274.329 23.5972C274.035 23.5069 273.724 23.4811 273.418 23.5214L273.549 24.5128ZM267.444 24.5205L273.484 24.5171L273.484 23.5171L267.443 23.5205L267.444 24.5205ZM267.943 29.9894V24.0205H266.943V29.9894H267.943ZM267.875 29.4894H267.443V30.4894H267.875V29.4894ZM267.375 27.2013V29.9894H268.375V27.2013H267.375ZM273.482 26.7013H267.875V27.7013H273.482V26.7013ZM274.152 26.767C273.915 26.6939 273.663 26.6731 273.417 26.7056L273.547 27.6971C273.652 27.6832 273.759 27.6923 273.858 27.7228L274.152 26.767ZM274.791 27.1324C274.609 26.9642 274.39 26.8401 274.152 26.767L273.858 27.7228C273.958 27.7534 274.044 27.8038 274.113 27.8673L274.791 27.1324ZM275.199 27.7424C275.114 27.509 274.974 27.3007 274.791 27.1324L274.113 27.8673C274.182 27.9306 274.23 28.0047 274.258 28.0821L275.199 27.7424ZM275.27 28.4718C275.308 28.226 275.283 27.9759 275.199 27.7424L274.258 28.0821C274.286 28.1593 274.294 28.2399 274.282 28.3184L275.27 28.4718ZM275.276 29.9868V28.3951H274.276V29.9868H275.276ZM275.209 29.4868H274.776V30.4868H275.209V29.4868ZM274.709 28.3951V29.9868H275.709V28.3951H274.709ZM274.624 27.8313C274.706 27.9887 274.735 28.1609 274.713 28.3291L275.704 28.4612C275.754 28.0865 275.686 27.7081 275.513 27.3719L274.624 27.8313ZM274.239 27.4352C274.411 27.5344 274.543 27.6734 274.624 27.8313L275.513 27.372C275.339 27.0362 275.068 26.7591 274.738 26.5687L274.239 27.4352ZM274.624 26.1726C274.543 26.3305 274.411 26.4695 274.239 26.5687L274.738 27.4352C275.068 27.2448 275.339 26.9677 275.513 26.632L274.624 26.1726ZM274.713 25.6748C274.735 25.843 274.706 26.0153 274.624 26.1726L275.513 26.632C275.686 26.2958 275.754 25.9174 275.704 25.5428L274.713 25.6748ZM274.676 25.1348C274.722 25.2637 274.735 25.3994 274.715 25.532L275.703 25.6856C275.749 25.3858 275.719 25.0805 275.616 24.795L274.676 25.1348ZM274.439 24.7824C274.549 24.8843 274.629 25.0055 274.676 25.1347L275.616 24.7951C275.513 24.5099 275.341 24.2545 275.117 24.0475L274.439 24.7824ZM274.035 24.553C274.19 24.6007 274.328 24.6803 274.439 24.7825L275.117 24.0474C274.893 23.8407 274.622 23.6875 274.329 23.5972L274.035 24.553ZM274.259 25.2956C274.287 25.3729 274.295 25.4535 274.282 25.532L275.271 25.6854C275.309 25.4395 275.284 25.1895 275.2 24.956L274.259 25.2956ZM274.114 25.0808C274.183 25.1442 274.231 25.2183 274.259 25.2956L275.2 24.9559C275.115 24.7225 274.975 24.5142 274.792 24.3459L274.114 25.0808ZM273.859 24.9363C273.959 24.9669 274.045 25.0174 274.114 25.0808L274.792 24.3459C274.61 24.1777 274.391 24.0536 274.153 23.9806L273.859 24.9363ZM273.548 24.9106C273.653 24.8968 273.76 24.9058 273.859 24.9363L274.153 23.9806C273.916 23.9075 273.664 23.8867 273.418 23.9192L273.548 24.9106ZM267.875 24.9149H273.483V23.9149H267.875V24.9149ZM268.375 26.8024V24.4149H267.375V26.8024H268.375ZM273.481 26.3024H267.875V27.3024H273.481V26.3024ZM273.858 26.2815C273.759 26.3119 273.652 26.3208 273.547 26.3068L273.415 27.2981C273.662 27.3309 273.914 27.3105 274.152 27.2376L273.858 26.2815ZM274.114 26.137C274.045 26.2006 273.958 26.251 273.858 26.2815L274.151 27.2376C274.389 27.1647 274.609 27.0406 274.791 26.8725L274.114 26.137ZM274.259 25.9221C274.231 25.9995 274.183 26.0737 274.114 26.1371L274.792 26.8724C274.974 26.7041 275.115 26.4957 275.2 26.262L274.259 25.9221ZM274.282 25.6853C274.295 25.7642 274.287 25.8449 274.259 25.9218L275.199 26.2622C275.284 26.0281 275.309 25.7777 275.271 25.532L274.282 25.6853ZM279.531 29.4899C279.368 29.5115 279.202 29.4975 279.046 29.4497L278.752 30.4055C279.046 30.4958 279.357 30.5216 279.662 30.4813L279.531 29.4899ZM283.909 29.4856H279.597V30.4856H283.909V29.4856ZM284.46 29.4497C284.304 29.4975 284.138 29.5115 283.974 29.4899L283.843 30.4813C284.149 30.5216 284.46 30.4958 284.754 30.4055L284.46 29.4497ZM284.864 29.2202C284.753 29.3224 284.615 29.4019 284.46 29.4497L284.754 30.4055C285.047 30.3152 285.318 30.162 285.542 29.9553L284.864 29.2202ZM285.101 28.868C285.054 28.9972 284.974 29.1184 284.864 29.2203L285.542 29.9552C285.766 29.7482 285.938 29.4928 286.041 29.2075L285.101 28.868ZM285.14 28.4707C285.16 28.6033 285.147 28.739 285.101 28.8678L286.041 29.2077C286.144 28.9222 286.174 28.6169 286.128 28.3171L285.14 28.4707ZM285.134 25.6059V28.3939H286.134V25.6059H285.134ZM285.101 25.1319C285.147 25.2608 285.16 25.3964 285.14 25.5291L286.128 25.6826C286.174 25.3829 286.144 25.0776 286.041 24.792L285.101 25.1319ZM284.864 24.7794C284.974 24.8814 285.054 25.0026 285.101 25.1317L286.041 24.7922C285.938 24.5069 285.766 24.2515 285.542 24.0446L284.864 24.7794ZM284.46 24.5501C284.615 24.5978 284.753 24.6773 284.864 24.7795L285.542 24.0445C285.318 23.8378 285.047 23.6846 284.754 23.5942L284.46 24.5501ZM283.974 24.5099C284.138 24.4883 284.304 24.5023 284.46 24.5501L284.754 23.5942C284.46 23.5039 284.149 23.4782 283.843 23.5185L283.974 24.5099ZM279.597 24.5142H283.909V23.5142H279.597V24.5142ZM279.046 24.5501C279.202 24.5023 279.368 24.4883 279.531 24.5099L279.662 23.5185C279.357 23.4782 279.046 23.5039 278.752 23.5942L279.046 24.5501ZM278.642 24.7795C278.753 24.6773 278.891 24.5978 279.046 24.5501L278.752 23.5942C278.458 23.6846 278.188 23.8378 277.964 24.0445L278.642 24.7795ZM278.405 25.1317C278.452 25.0026 278.532 24.8814 278.642 24.7794L277.964 24.0446C277.74 24.2515 277.568 24.5069 277.465 24.7922L278.405 25.1317ZM278.366 25.5293C278.346 25.3965 278.359 25.2608 278.405 25.1319L277.465 24.792C277.361 25.0776 277.331 25.3828 277.378 25.6824L278.366 25.5293ZM278.372 28.3939V25.6059H277.372V28.3939H278.372ZM278.405 28.8678C278.359 28.739 278.346 28.6032 278.366 28.4704L277.378 28.3173C277.331 28.617 277.361 28.9222 277.465 29.2077L278.405 28.8678ZM278.642 29.2203C278.532 29.1184 278.452 28.9972 278.405 28.868L277.465 29.2075C277.568 29.4928 277.74 29.7482 277.964 29.9552L278.642 29.2203ZM279.046 29.4497C278.891 29.4019 278.753 29.3224 278.642 29.2202L277.964 29.9553C278.188 30.162 278.458 30.3152 278.752 30.4055L279.046 29.4497ZM278.818 28.7068C278.79 28.6295 278.782 28.5489 278.794 28.4702L277.806 28.3173C277.768 28.563 277.793 28.8129 277.877 29.0465L278.818 28.7068ZM278.963 28.9216C278.894 28.8583 278.846 28.7841 278.818 28.7068L277.877 29.0465C277.962 29.2799 278.102 29.4882 278.285 29.6565L278.963 28.9216ZM279.218 29.0661C279.118 29.0355 279.032 28.985 278.963 28.9216L278.285 29.6565C278.467 29.8247 278.686 29.9488 278.924 30.0218L279.218 29.0661ZM279.529 29.0918C279.424 29.1056 279.317 29.0966 279.218 29.0661L278.924 30.0218C279.161 30.0949 279.413 30.1157 279.659 30.0832L279.529 29.0918ZM283.906 29.0875H279.594V30.0875H283.906V29.0875ZM284.282 29.0661C284.183 29.0966 284.076 29.1056 283.971 29.0918L283.841 30.0832C284.087 30.1157 284.339 30.0949 284.576 30.0218L284.282 29.0661ZM284.537 28.9216C284.468 28.985 284.381 29.0355 284.282 29.0661L284.576 30.0218C284.814 29.9488 285.033 29.8247 285.215 29.6565L284.537 28.9216ZM284.682 28.7068C284.654 28.7841 284.606 28.8583 284.537 28.9216L285.215 29.6565C285.398 29.4882 285.538 29.2799 285.623 29.0465L284.682 28.7068ZM284.705 28.4704C284.718 28.549 284.71 28.6295 284.682 28.7068L285.623 29.0465C285.707 28.8129 285.732 28.5629 285.694 28.317L284.705 28.4704ZM284.7 25.6057V28.3937H285.7V25.6057H284.7ZM284.682 25.2927C284.71 25.37 284.718 25.4505 284.705 25.529L285.694 25.6824C285.732 25.4366 285.707 25.1866 285.623 24.953L284.682 25.2927ZM284.537 25.0779C284.606 25.1412 284.654 25.2153 284.682 25.2927L285.623 24.953C285.538 24.7196 285.398 24.5113 285.215 24.343L284.537 25.0779ZM284.282 24.9334C284.382 24.964 284.468 25.0144 284.537 25.0779L285.215 24.343C285.033 24.1748 284.814 24.0507 284.576 23.9776L284.282 24.9334ZM283.971 24.9077C284.076 24.8938 284.183 24.9029 284.282 24.9334L284.576 23.9776C284.339 23.9046 284.087 23.8838 283.841 23.9162L283.971 24.9077ZM279.594 24.912H283.906V23.912H279.594V24.912ZM279.218 24.9334C279.317 24.9029 279.424 24.8939 279.529 24.9077L279.659 23.9163C279.413 23.8838 279.161 23.9046 278.924 23.9776L279.218 24.9334ZM278.963 25.0779C279.032 25.0144 279.118 24.964 279.218 24.9334L278.924 23.9776C278.686 24.0507 278.467 24.1748 278.285 24.343L278.963 25.0779ZM278.818 25.2927C278.846 25.2154 278.894 25.1412 278.963 25.0779L278.285 24.343C278.102 24.5113 277.962 24.7196 277.877 24.953L278.818 25.2927ZM278.794 25.5293C278.782 25.4506 278.79 25.37 278.818 25.2927L277.877 24.953C277.793 25.1866 277.768 25.4365 277.806 25.6822L278.794 25.5293ZM278.8 28.3937V25.6057H277.8V28.3937H278.8ZM296.127 28.3938V24.0166H295.127V28.3938H296.127ZM296.05 29.0465C296.135 28.813 296.159 28.5629 296.121 28.3171L295.133 28.4705C295.145 28.549 295.138 28.6295 295.11 28.7068L296.05 29.0465ZM295.643 29.6565C295.825 29.4882 295.966 29.2799 296.05 29.0465L295.11 28.7068C295.082 28.7842 295.033 28.8583 294.965 28.9216L295.643 29.6565ZM295.004 30.0219C295.241 29.9488 295.461 29.8247 295.643 29.6565L294.965 28.9216C294.896 28.9851 294.809 29.0355 294.71 29.0661L295.004 30.0219ZM294.268 30.0833C294.515 30.1157 294.766 30.0949 295.004 30.0219L294.71 29.0661C294.61 29.0966 294.504 29.1057 294.399 29.0918L294.268 30.0833ZM290.021 30.0875H294.334V29.0875H290.021V30.0875ZM289.351 30.0219C289.589 30.0949 289.84 30.1157 290.087 30.0833L289.956 29.0918C289.851 29.1057 289.744 29.0966 289.645 29.0661L289.351 30.0219ZM288.712 29.6565C288.894 29.8247 289.114 29.9488 289.351 30.0219L289.645 29.0661C289.546 29.0355 289.459 28.9851 289.39 28.9216L288.712 29.6565ZM288.305 29.0465C288.389 29.2799 288.53 29.4882 288.712 29.6565L289.39 28.9216C289.322 28.8583 289.273 28.7842 289.245 28.7068L288.305 29.0465ZM288.234 28.3171C288.196 28.5629 288.22 28.813 288.305 29.0465L289.245 28.7068C289.217 28.6296 289.21 28.549 289.222 28.4705L288.234 28.3171ZM288.228 24.0166V28.3938H289.228V24.0166H288.228ZM288.297 24.5166H288.728V23.5166H288.297V24.5166ZM288.797 28.3938V24.0166H287.797V28.3938H288.797ZM288.83 28.8677C288.783 28.7388 288.77 28.6031 288.791 28.4703L287.802 28.3172C287.756 28.6169 287.786 28.9221 287.889 29.2076L288.83 28.8677ZM289.067 29.2202C288.956 29.1183 288.876 28.9971 288.83 28.8679L287.889 29.2074C287.992 29.4927 288.164 29.7481 288.389 29.9551L289.067 29.2202ZM289.471 29.4496C289.315 29.4018 289.178 29.3223 289.067 29.2201L288.389 29.9552C288.613 30.1619 288.883 30.3151 289.177 30.4054L289.471 29.4496ZM289.956 29.4898C289.793 29.5114 289.626 29.4974 289.471 29.4496L289.177 30.4054C289.47 30.4957 289.782 30.5215 290.087 30.4812L289.956 29.4898ZM294.334 29.4855H290.021V30.4855H294.334V29.4855ZM294.884 29.4496C294.729 29.4974 294.562 29.5114 294.399 29.4898L294.268 30.4812C294.573 30.5215 294.885 30.4957 295.178 30.4054L294.884 29.4496ZM295.288 29.2201C295.177 29.3223 295.04 29.4018 294.884 29.4496L295.178 30.4054C295.472 30.3151 295.742 30.1619 295.966 29.9552L295.288 29.2201ZM295.525 28.8679C295.479 28.9971 295.399 29.1183 295.288 29.2202L295.966 29.9551C296.191 29.7481 296.363 29.4927 296.466 29.2074L295.525 28.8679ZM295.564 28.4703C295.585 28.6031 295.572 28.7388 295.525 28.8677L296.466 29.2076C296.569 28.9221 296.599 28.6169 296.552 28.3172L295.564 28.4703ZM295.558 24.0166V28.3938H296.558V24.0166H295.558ZM295.627 24.5166H296.058V23.5166H295.627V24.5166ZM305.604 23.5972C305.311 23.5069 304.999 23.4811 304.694 23.5214L304.825 24.5128C304.989 24.4912 305.155 24.5052 305.31 24.553L305.604 23.5972ZM306.392 24.0474C306.168 23.8407 305.898 23.6875 305.604 23.5972L305.31 24.553C305.466 24.6007 305.604 24.6803 305.714 24.7825L306.392 24.0474ZM306.892 24.7951C306.789 24.5099 306.617 24.2545 306.392 24.0475L305.714 24.7824C305.825 24.8843 305.905 25.0055 305.951 25.1347L306.892 24.7951ZM306.979 25.6854C307.025 25.3857 306.995 25.0805 306.892 24.795L305.951 25.1348C305.998 25.2637 306.011 25.3994 305.99 25.5322L306.979 25.6854ZM306.892 26.4226C306.995 26.1371 307.025 25.8319 306.979 25.5322L305.99 25.6854C306.011 25.8182 305.998 25.9539 305.951 26.0828L306.892 26.4226ZM306.392 27.1701C306.617 26.9631 306.789 26.7077 306.892 26.4225L305.951 26.0829C305.905 26.2121 305.825 26.3333 305.714 26.4352L306.392 27.1701ZM305.604 27.6204C305.898 27.5301 306.168 27.3769 306.392 27.1702L305.714 26.4351C305.604 26.5373 305.466 26.6168 305.31 26.6646L305.604 27.6204ZM304.694 27.6962C304.999 27.7365 305.311 27.7108 305.604 27.6204L305.31 26.6646C305.155 26.7124 304.989 26.7264 304.825 26.7048L304.694 27.6962ZM299.154 27.7005H304.76V26.7005H299.154V27.7005ZM299.654 29.9885V27.2005H298.654V29.9885H299.654ZM298.723 30.4885H299.154V29.4885H298.723V30.4885ZM298.223 24.0196V29.9885H299.223V24.0196H298.223ZM304.759 23.5171L298.722 23.5196L298.723 24.5196L304.76 24.5171L304.759 23.5171ZM306.546 25.6854C306.584 25.4396 306.56 25.1895 306.475 24.956L305.535 25.2956C305.563 25.3729 305.57 25.4535 305.558 25.532L306.546 25.6854ZM306.053 25.1087H306.052V26.1087H306.053V25.1087ZM306.476 26.2615C306.561 26.028 306.585 25.7778 306.547 25.532L305.559 25.6853C305.571 25.764 305.564 25.8447 305.536 25.922L306.476 26.2615ZM306.068 26.8719C306.251 26.7036 306.392 26.4953 306.476 26.2618L305.536 25.9218C305.508 25.9992 305.459 26.0734 305.39 26.1368L306.068 26.8719ZM305.429 27.2372C305.667 27.1642 305.886 27.0401 306.068 26.8719L305.39 26.1368C305.322 26.2003 305.235 26.2507 305.135 26.2812L305.429 27.2372ZM304.693 27.2981C304.94 27.3308 305.191 27.3101 305.429 27.2372L305.135 26.2812C305.036 26.3117 304.929 26.3207 304.824 26.3068L304.693 27.2981ZM299.153 27.3024H304.759V26.3024H299.153V27.3024ZM298.653 24.4149V26.8024H299.653V24.4149H298.653ZM304.759 23.9149H299.153V24.9149H304.759V23.9149ZM305.429 23.9806C305.191 23.9075 304.94 23.8867 304.693 23.9192L304.824 24.9106C304.929 24.8968 305.036 24.9058 305.135 24.9363L305.429 23.9806ZM306.068 24.3459C305.886 24.1777 305.666 24.0536 305.429 23.9806L305.135 24.9363C305.234 24.9669 305.321 25.0174 305.39 25.0808L306.068 24.3459ZM306.475 24.9559C306.391 24.7225 306.25 24.5142 306.068 24.3459L305.39 25.0808C305.458 25.1442 305.507 25.2183 305.535 25.2956L306.475 24.9559ZM309.826 30.4059C310.119 30.4962 310.431 30.522 310.736 30.4817L310.605 29.4903C310.442 29.5119 310.275 29.4979 310.12 29.4501L309.826 30.4059ZM309.038 29.9557C309.262 30.1624 309.532 30.3156 309.826 30.4059L310.12 29.4501C309.964 29.4023 309.827 29.3228 309.716 29.2206L309.038 29.9557ZM308.538 29.2079C308.641 29.4932 308.813 29.7486 309.038 29.9556L309.716 29.2207C309.605 29.1188 309.525 28.9976 309.479 28.8684L308.538 29.2079ZM308.451 28.3177C308.405 28.6174 308.435 28.9226 308.538 29.2081L309.479 28.8682C309.432 28.7393 309.419 28.6036 309.44 28.4708L308.451 28.3177ZM309.377 27.8943H308.946V28.8943H309.377V27.8943ZM309.894 28.7073C309.866 28.6301 309.859 28.5495 309.871 28.471L308.883 28.3176C308.845 28.5634 308.869 28.8135 308.954 29.047L309.894 28.7073ZM310.039 28.9221C309.971 28.8588 309.922 28.7847 309.894 28.7073L308.954 29.047C309.038 29.2804 309.179 29.4887 309.361 29.657L310.039 28.9221ZM310.294 29.0666C310.195 29.036 310.108 28.9856 310.039 28.9221L309.361 29.657C309.543 29.8252 309.763 29.9493 310 30.0224L310.294 29.0666ZM310.605 29.0923C310.5 29.1062 310.393 29.0971 310.294 29.0666L310 30.0224C310.238 30.0954 310.489 30.1162 310.736 30.0838L310.605 29.0923ZM314.983 29.088H310.67V30.088H314.983V29.088ZM315.359 29.0666C315.259 29.0971 315.153 29.1062 315.048 29.0923L314.917 30.0838C315.164 30.1162 315.415 30.0954 315.653 30.0224L315.359 29.0666ZM315.614 28.9221C315.545 28.9856 315.458 29.036 315.359 29.0666L315.653 30.0224C315.89 29.9493 316.11 29.8252 316.292 29.657L315.614 28.9221ZM315.759 28.7073C315.731 28.7847 315.682 28.8588 315.614 28.9221L316.292 29.657C316.474 29.4887 316.615 29.2804 316.699 29.047L315.759 28.7073ZM315.782 28.4707C315.794 28.5494 315.787 28.6301 315.759 28.7073L316.699 29.047C316.784 28.8135 316.808 28.5635 316.77 28.3178L315.782 28.4707ZM315.759 28.0812C315.787 28.1585 315.794 28.2392 315.782 28.3178L316.77 28.4707C316.808 28.2251 316.784 27.9751 316.699 27.7416L315.759 28.0812ZM315.614 27.8664C315.682 27.9298 315.731 28.0039 315.759 28.0812L316.699 27.7416C316.615 27.5081 316.474 27.2998 316.292 27.1315L315.614 27.8664ZM315.359 27.722C315.458 27.7525 315.545 27.803 315.614 27.8664L316.292 27.1315C316.11 26.9633 315.89 26.8392 315.653 26.7662L315.359 27.722ZM315.048 27.6962C315.153 27.6824 315.259 27.6914 315.359 27.722L315.653 26.7662C315.415 26.6931 315.164 26.6723 314.917 26.7048L315.048 27.6962ZM310.67 27.7005H314.983V26.7005H310.67V27.7005ZM309.826 27.6204C310.119 27.7108 310.431 27.7365 310.736 27.6962L310.605 26.7048C310.442 26.7264 310.275 26.7124 310.12 26.6646L309.826 27.6204ZM309.038 27.1702C309.262 27.3769 309.532 27.5301 309.826 27.6204L310.12 26.6646C309.964 26.6169 309.827 26.5373 309.716 26.4351L309.038 27.1702ZM308.538 26.4224C308.641 26.7077 308.813 26.9631 309.038 27.1701L309.716 26.4352C309.605 26.3333 309.525 26.2121 309.479 26.0829L308.538 26.4224ZM308.451 25.5322C308.405 25.8319 308.435 26.1371 308.538 26.4226L309.479 26.0828C309.432 25.9539 309.419 25.8182 309.44 25.6854L308.451 25.5322ZM308.538 24.795C308.435 25.0805 308.405 25.3857 308.451 25.6854L309.44 25.5322C309.419 25.3994 309.432 25.2637 309.479 25.1348L308.538 24.795ZM309.038 24.0475C308.813 24.2545 308.641 24.5099 308.538 24.7952L309.479 25.1346C309.525 25.0055 309.605 24.8843 309.716 24.7824L309.038 24.0475ZM309.826 23.5972C309.532 23.6875 309.262 23.8407 309.038 24.0474L309.716 24.7825C309.827 24.6803 309.964 24.6007 310.12 24.553L309.826 23.5972ZM310.736 23.5214C310.431 23.4811 310.119 23.5069 309.826 23.5972L310.12 24.553C310.275 24.5052 310.442 24.4912 310.605 24.5128L310.736 23.5214ZM314.983 23.5171H310.67V24.5171H314.983V23.5171ZM315.827 23.5975C315.534 23.5071 315.222 23.4813 314.917 23.5214L315.048 24.5128C315.211 24.4914 315.377 24.5054 315.533 24.5533L315.827 23.5975ZM316.615 24.048C316.391 23.8411 316.121 23.6879 315.827 23.5975L315.533 24.5532C315.688 24.6011 315.826 24.6806 315.936 24.7827L316.615 24.048ZM317.114 24.7953C317.011 24.5102 316.839 24.2549 316.615 24.048L315.936 24.7826C316.047 24.8846 316.127 25.0058 316.173 25.135L317.114 24.7953ZM317.2 25.6854C317.247 25.3858 317.217 25.0808 317.114 24.7955L316.173 25.1348C316.22 25.2638 316.233 25.3995 316.212 25.5322L317.2 25.6854ZM316.275 26.1088H316.706V25.1088H316.275V26.1088ZM315.758 25.2958C315.786 25.373 315.793 25.4536 315.781 25.5321L316.769 25.6855C316.807 25.4397 316.783 25.1896 316.698 24.9561L315.758 25.2958ZM315.613 25.0809C315.681 25.1443 315.73 25.2184 315.758 25.2958L316.698 24.9561C316.614 24.7226 316.473 24.5144 316.291 24.3461L315.613 25.0809ZM315.358 24.9365C315.457 24.967 315.544 25.0175 315.613 25.0809L316.291 24.3461C316.109 24.1778 315.889 24.0538 315.652 23.9807L315.358 24.9365ZM315.047 24.9107C315.152 24.8969 315.259 24.9059 315.358 24.9365L315.652 23.9807C315.414 23.9076 315.163 23.8868 314.916 23.9193L315.047 24.9107ZM310.669 24.915H314.982V23.915H310.669V24.915ZM310.293 24.9365C310.393 24.9059 310.499 24.8969 310.604 24.9107L310.735 23.9193C310.488 23.8868 310.237 23.9076 309.999 23.9807L310.293 24.9365ZM310.038 25.0809C310.107 25.0175 310.194 24.967 310.293 24.9365L309.999 23.9807C309.762 24.0538 309.543 24.1778 309.36 24.3461L310.038 25.0809ZM309.893 25.2958C309.921 25.2184 309.97 25.1443 310.038 25.0809L309.36 24.3461C309.178 24.5144 309.037 24.7226 308.953 24.9561L309.893 25.2958ZM309.87 25.5321C309.858 25.4536 309.865 25.373 309.893 25.2957L308.953 24.9561C308.869 25.1896 308.844 25.4397 308.882 25.6855L309.87 25.5321ZM309.893 25.9218C309.865 25.8446 309.858 25.764 309.87 25.6855L308.882 25.5321C308.844 25.7779 308.869 26.028 308.953 26.2615L309.893 25.9218ZM310.038 26.1366C309.97 26.0733 309.921 25.9992 309.893 25.9218L308.953 26.2615C309.037 26.495 309.178 26.7032 309.36 26.8716L310.038 26.1366ZM310.293 26.2811C310.194 26.2506 310.107 26.2001 310.038 26.1367L309.36 26.8715C309.543 27.0398 309.762 27.1638 309.999 27.2369L310.293 26.2811ZM310.604 26.3069C310.499 26.3207 310.393 26.3117 310.293 26.2811L309.999 27.2369C310.237 27.31 310.488 27.3308 310.735 27.2983L310.604 26.3069ZM314.982 26.3026H310.669V27.3026H314.982V26.3026ZM315.826 26.3826C315.533 26.2923 315.221 26.2666 314.916 26.3069L315.047 27.2983C315.211 27.2767 315.377 27.2907 315.532 27.3385L315.826 26.3826ZM316.614 26.8329C316.39 26.6262 316.12 26.473 315.826 26.3826L315.532 27.3385C315.688 27.3862 315.826 27.4657 315.936 27.5679L316.614 26.8329ZM317.114 27.5806C317.011 27.2953 316.839 27.0399 316.614 26.833L315.936 27.5678C316.047 27.6698 316.127 27.791 316.173 27.9201L317.114 27.5806ZM317.2 28.471C317.247 28.1713 317.217 27.866 317.114 27.5804L316.173 27.9203C316.22 28.0492 316.233 28.1848 316.212 28.3175L317.2 28.471ZM317.114 29.2081C317.217 28.9226 317.247 28.6173 317.2 28.3175L316.212 28.471C316.233 28.6037 316.22 28.7393 316.173 28.8682L317.114 29.2081ZM316.614 29.9556C316.839 29.7486 317.011 29.4932 317.114 29.2079L316.173 28.8684C316.127 28.9976 316.047 29.1188 315.936 29.2207L316.614 29.9556ZM315.826 30.4059C316.12 30.3156 316.39 30.1624 316.614 29.9557L315.936 29.2206C315.826 29.3228 315.688 29.4023 315.532 29.4501L315.826 30.4059ZM314.916 30.4817C315.221 30.522 315.533 30.4962 315.826 30.4059L315.532 29.4501C315.377 29.4979 315.211 29.5119 315.047 29.4903L314.916 30.4817ZM310.67 30.486H314.982V29.486H310.67V30.486ZM319.303 27.1975V29.9855H320.303V27.1975H319.303ZM326.704 26.6975H319.803V27.6975H326.704V26.6975ZM327.204 29.9855V27.1975H326.204V29.9855H327.204ZM327.135 29.4855H326.704V30.4855H327.135V29.4855ZM326.635 24.0166V29.9855H327.635V24.0166H326.635ZM326.704 24.5166H327.135V23.5166H326.704V24.5166ZM327.204 26.8046V24.0166H326.204V26.8046H327.204ZM319.803 27.3046H326.704V26.3046H319.803V27.3046ZM319.303 24.0166V26.8046H320.303V24.0166H319.303ZM319.372 24.5166H319.803V23.5166H319.372V24.5166ZM319.872 29.9855V24.0166H318.872V29.9855H319.872ZM319.803 29.4855H319.372V30.4855H319.803V29.4855ZM330.677 30.4048C330.97 30.4952 331.281 30.5212 331.586 30.4814L331.457 29.4898C331.293 29.5112 331.127 29.4971 330.972 29.4492L330.677 30.4048ZM329.89 29.9542C330.114 30.161 330.384 30.3143 330.677 30.4048L330.972 29.4492C330.816 29.4013 330.679 29.3218 330.569 29.2198L329.89 29.9542ZM329.391 29.207C329.494 29.4921 329.666 29.7474 329.89 29.9543L330.568 29.2197C330.458 29.1177 330.378 28.9966 330.332 28.8676L329.391 29.207ZM329.304 28.3173C329.258 28.6168 329.288 28.9218 329.391 29.207L330.332 28.8676C330.285 28.7387 330.272 28.6031 330.293 28.4705L329.304 28.3173ZM329.299 25.6059V28.3939H330.299V25.6059H329.299ZM329.391 24.792C329.288 25.0776 329.258 25.3829 329.305 25.6826L330.293 25.5291C330.272 25.3964 330.285 25.2608 330.332 25.1319L329.391 24.792ZM329.891 24.0446C329.666 24.2515 329.494 24.5069 329.391 24.7922L330.332 25.1317C330.378 25.0025 330.458 24.8814 330.569 24.7794L329.891 24.0446ZM330.679 23.5942C330.385 23.6846 330.115 23.8378 329.891 24.0445L330.569 24.7795C330.679 24.6773 330.817 24.5978 330.973 24.5501L330.679 23.5942ZM331.589 23.5185C331.284 23.4782 330.972 23.5039 330.679 23.5942L330.973 24.5501C331.128 24.5023 331.294 24.4883 331.458 24.5099L331.589 23.5185ZM335.841 23.5142H331.523V24.5142H335.841V23.5142ZM336.686 23.5942C336.392 23.5039 336.081 23.4782 335.775 23.5185L335.906 24.5099C336.07 24.4883 336.236 24.5023 336.392 24.5501L336.686 23.5942ZM337.474 24.0445C337.25 23.8378 336.979 23.6846 336.686 23.5942L336.392 24.5501C336.547 24.5978 336.685 24.6773 336.796 24.7795L337.474 24.0445ZM337.973 24.7922C337.87 24.5069 337.698 24.2515 337.474 24.0446L336.796 24.7794C336.906 24.8814 336.986 25.0025 337.033 25.1317L337.973 24.7922ZM338.06 25.6824C338.106 25.3828 338.076 25.0776 337.973 24.792L337.033 25.1319C337.079 25.2608 337.092 25.3965 337.072 25.5293L338.06 25.6824ZM338.066 28.3939V25.6059H337.066V28.3939H338.066ZM337.973 29.2077C338.076 28.9222 338.106 28.617 338.06 28.3173L337.072 28.4705C337.092 28.6032 337.079 28.739 337.033 28.8678L337.973 29.2077ZM337.474 29.9552C337.698 29.7482 337.87 29.4928 337.973 29.2075L337.033 28.868C336.986 28.9972 336.906 29.1184 336.796 29.2203L337.474 29.9552ZM336.686 30.4055C336.979 30.3152 337.25 30.162 337.474 29.9553L336.796 29.2202C336.685 29.3224 336.547 29.4019 336.392 29.4497L336.686 30.4055ZM335.775 30.4813C336.081 30.5216 336.392 30.4958 336.686 30.4055L336.392 29.4497C336.236 29.4975 336.07 29.5115 335.906 29.4899L335.775 30.4813ZM331.522 30.4856H335.841V29.4856H331.522V30.4856ZM329.733 28.3174C329.695 28.5633 329.719 28.8133 329.804 29.0469L330.744 28.7072C330.716 28.6299 330.709 28.5493 330.721 28.4708L329.733 28.3174ZM329.734 25.6074L329.727 28.3928L330.727 28.3954L330.734 25.61L329.734 25.6074ZM329.811 24.956C329.727 25.1895 329.702 25.4395 329.74 25.6851L330.728 25.5322C330.716 25.4536 330.724 25.3729 330.752 25.2956L329.811 24.956ZM330.218 24.3459C330.036 24.5142 329.895 24.7225 329.811 24.9559L330.752 25.2956C330.78 25.2183 330.828 25.1442 330.897 25.0808L330.218 24.3459ZM330.857 23.9806C330.62 24.0536 330.401 24.1777 330.218 24.3459L330.897 25.0808C330.965 25.0174 331.052 24.9669 331.152 24.9364L330.857 23.9806ZM331.593 23.9192C331.347 23.8867 331.095 23.9075 330.857 23.9806L331.152 24.9363C331.251 24.9058 331.358 24.8968 331.462 24.9106L331.593 23.9192ZM335.84 23.9149H331.528V24.9149H335.84V23.9149ZM336.509 23.9804C336.272 23.9076 336.021 23.8868 335.775 23.9192L335.905 24.9106C336.01 24.8969 336.116 24.9059 336.215 24.9363L336.509 23.9804ZM337.147 24.3449C336.965 24.1771 336.746 24.0533 336.509 23.9805L336.215 24.9363C336.315 24.9668 336.401 25.0171 336.47 25.0804L337.147 24.3449ZM337.555 24.9534C337.47 24.7204 337.33 24.5127 337.147 24.3449L336.47 25.0804C336.539 25.1436 336.587 25.2176 336.615 25.2947L337.555 24.9534ZM337.628 25.681C337.665 25.436 337.64 25.1864 337.555 24.9532L336.615 25.295C336.643 25.3718 336.651 25.4524 336.639 25.5312L337.628 25.681ZM337.633 28.3941V25.6061H336.633V28.3941H337.633ZM337.556 29.0469C337.641 28.8133 337.666 28.5633 337.628 28.3177L336.639 28.4706C336.652 28.5493 336.644 28.6299 336.616 28.7072L337.556 29.0469ZM337.149 29.6569C337.331 29.4886 337.472 29.2803 337.556 29.0468L336.616 28.7072C336.588 28.7845 336.54 28.8586 336.471 28.922L337.149 29.6569ZM336.51 30.0222C336.748 29.9492 336.967 29.8251 337.149 29.6569L336.471 28.922C336.402 28.9854 336.315 29.0359 336.216 29.0665L336.51 30.0222ZM335.774 30.0836C336.021 30.1161 336.273 30.0953 336.51 30.0222L336.216 29.0665C336.117 29.097 336.01 29.106 335.905 29.0922L335.774 30.0836ZM331.52 30.0879H335.84V29.0879H331.52V30.0879ZM330.85 30.0222C331.088 30.0953 331.339 30.1161 331.586 30.0836L331.455 29.0922C331.35 29.106 331.243 29.097 331.144 29.0665L330.85 30.0222ZM330.211 29.6569C330.393 29.8251 330.613 29.9492 330.85 30.0222L331.144 29.0665C331.045 29.0359 330.958 28.9854 330.889 28.922L330.211 29.6569ZM329.804 29.0469C329.888 29.2803 330.029 29.4886 330.211 29.6569L330.889 28.922C330.821 28.8587 330.772 28.7845 330.744 28.7072L329.804 29.0469ZM347.104 23.5972C346.811 23.5069 346.499 23.4811 346.194 23.5214L346.325 24.5128C346.489 24.4912 346.655 24.5052 346.81 24.553L347.104 23.5972ZM347.892 24.0474C347.668 23.8407 347.398 23.6875 347.104 23.5972L346.81 24.553C346.966 24.6007 347.104 24.6803 347.214 24.7825L347.892 24.0474ZM348.392 24.7964C348.29 24.5098 348.116 24.2541 347.892 24.0473L347.214 24.7826C347.325 24.8847 347.405 25.0055 347.451 25.1334L348.392 24.7964ZM348.479 25.6841C348.524 25.386 348.495 25.081 348.391 24.7946L347.451 25.1352C347.498 25.2632 347.511 25.3992 347.49 25.5335L348.479 25.6841ZM348.391 26.423C348.495 26.1366 348.524 25.8316 348.479 25.5335L347.49 25.6841C347.511 25.8184 347.498 25.9544 347.451 26.0824L348.391 26.423ZM347.892 27.1703C348.116 26.9635 348.29 26.7078 348.392 26.4212L347.451 26.0842C347.405 26.2121 347.325 26.3329 347.214 26.4351L347.892 27.1703ZM347.104 27.6204C347.398 27.5301 347.668 27.3769 347.892 27.1702L347.214 26.4351C347.104 26.5373 346.966 26.6169 346.81 26.6646L347.104 27.6204ZM346.194 27.6962C346.499 27.7365 346.811 27.7108 347.104 27.6204L346.81 26.6646C346.655 26.7124 346.489 26.7264 346.325 26.7048L346.194 27.6962ZM340.656 27.7005H346.26V26.7005H340.656V27.7005ZM341.156 29.9885V27.2005H340.156V29.9885H341.156ZM340.225 30.4885H340.656V29.4885H340.225V30.4885ZM339.725 24.0196V29.9885H340.725V24.0196H339.725ZM346.259 23.5171L340.224 23.5196L340.225 24.5196L346.26 24.5171L346.259 23.5171ZM348.049 25.684C348.086 25.4404 348.062 25.1904 347.977 24.955L347.037 25.2966C347.064 25.372 347.072 25.4526 347.06 25.5333L348.049 25.684ZM347.56 25.1087H347.554V26.1087H347.56V25.1087ZM347.982 26.2633C348.068 26.0276 348.091 25.7772 348.054 25.5335L347.065 25.6839C347.078 25.7651 347.07 25.8461 347.042 25.9217L347.982 26.2633ZM347.574 26.8735C347.757 26.705 347.898 26.4964 347.982 26.2628L347.042 25.9222C347.014 26 346.965 26.0743 346.897 26.1376L347.574 26.8735ZM346.933 27.2384C347.171 27.1657 347.391 27.0417 347.574 26.8735L346.897 26.1376C346.827 26.2011 346.74 26.2516 346.641 26.2819L346.933 27.2384ZM346.196 27.298C346.442 27.3313 346.695 27.3111 346.933 27.2384L346.641 26.2819C346.541 26.3123 346.434 26.3211 346.329 26.3069L346.196 27.298ZM340.657 27.3024H346.262V26.3024H340.657V27.3024ZM340.157 24.4149V26.8024H341.157V24.4149H340.157ZM346.261 23.9149H340.657V24.9149H346.261V23.9149ZM346.931 23.9806C346.693 23.9075 346.442 23.8867 346.195 23.9192L346.326 24.9106C346.431 24.8968 346.537 24.9058 346.637 24.9363L346.931 23.9806ZM347.57 24.3459C347.388 24.1777 347.168 24.0536 346.931 23.9806L346.637 24.9364C346.736 24.9669 346.823 25.0174 346.892 25.0808L347.57 24.3459ZM347.977 24.9559C347.893 24.7225 347.752 24.5142 347.57 24.3459L346.892 25.0808C346.96 25.1442 347.009 25.2183 347.037 25.2956L347.977 24.9559Z" fill="black"/>
<defs>
<filter id="filter0_d_9157_9867" x="0" y="0" width="369" height="54" filterUnits="userSpaceOnUse" color-interpolation-filters="sRGB">
<feFlood flood-opacity="0" result="BackgroundImageFix"/>
<feColorMatrix in="SourceAlpha" type="matrix" values="0 0 0 0 0 0 0 0 0 0 0 0 0 0 0 0 0 0 127 0" result="hardAlpha"/>
<feOffset dy="1"/>
<feGaussianBlur stdDeviation="3.5"/>
<feColorMatrix type="matrix" values="0 0 0 0 0 0 0 0 0 0 0 0 0 0 0 0 0 0 0.08 0"/>
<feBlend mode="normal" in2="BackgroundImageFix" result="effect1_dropShadow_9157_9867"/>
<feBlend mode="normal" in="SourceGraphic" in2="effect1_dropShadow_9157_9867" result="shape"/>
</filter>
</defs>
</svg>
