<svg width="369" height="54" viewBox="0 0 369 54" fill="none" xmlns="http://www.w3.org/2000/svg">
<g filter="url(#filter0_d_9157_9886)">
<rect x="7" y="6" width="355" height="40" rx="5" fill="#171717"/>
</g>
<path d="M23.847 30V22.168H29.083V23.279H25.233V25.457H28.863V26.579H25.233V28.889H29.083V30H23.847ZM32.646 30.077C32.162 30.077 31.733 29.9633 31.359 29.736C30.985 29.5013 30.6953 29.1713 30.49 28.746C30.292 28.3133 30.193 27.8073 30.193 27.228C30.193 26.6413 30.2957 26.1317 30.501 25.699C30.7063 25.259 30.9923 24.918 31.359 24.676C31.733 24.4267 32.162 24.302 32.646 24.302C33.1153 24.302 33.5223 24.4193 33.867 24.654C34.219 24.8813 34.4573 25.2003 34.582 25.611L34.45 25.688V24.445H35.803V30H34.45V28.746L34.582 28.79C34.4573 29.2007 34.219 29.5197 33.867 29.747C33.5223 29.967 33.1153 30.077 32.646 30.077ZM33.02 29.021C33.4747 29.021 33.8267 28.8633 34.076 28.548C34.3253 28.2327 34.45 27.7853 34.45 27.206C34.45 26.612 34.3253 26.161 34.076 25.853C33.8267 25.5377 33.4747 25.38 33.02 25.38C32.558 25.38 32.1987 25.5413 31.942 25.864C31.6853 26.1867 31.557 26.6413 31.557 27.228C31.557 27.8 31.6853 28.2437 31.942 28.559C32.1987 28.867 32.558 29.021 33.02 29.021ZM37.4895 30V26.018C37.4895 25.7613 37.4822 25.501 37.4675 25.237C37.4602 24.9657 37.4382 24.7017 37.4015 24.445H38.6995L38.8535 25.875L38.6995 25.798C38.7949 25.3067 39.0112 24.9363 39.3485 24.687C39.6859 24.4377 40.0672 24.313 40.4925 24.313C40.6025 24.313 40.7052 24.3203 40.8005 24.335C40.8959 24.3497 40.9802 24.3717 41.0535 24.401L41.0315 25.655C40.8042 25.5597 40.5622 25.512 40.3055 25.512C39.9755 25.512 39.7042 25.578 39.4915 25.71C39.2862 25.842 39.1285 26.0217 39.0185 26.249C38.9159 26.469 38.8645 26.7183 38.8645 26.997V30H37.4895ZM41.9972 30V26.018C41.9972 25.754 41.9898 25.49 41.9752 25.226C41.9678 24.962 41.9458 24.7017 41.9092 24.445H43.2072L43.3282 25.545L43.2072 25.578C43.3832 25.16 43.6435 24.8447 43.9882 24.632C44.3402 24.412 44.7435 24.302 45.1982 24.302C46.5182 24.302 47.1782 25.0647 47.1782 26.59V30H45.8032V26.645C45.8032 26.2123 45.7188 25.897 45.5502 25.699C45.3815 25.4937 45.1212 25.391 44.7692 25.391C44.3438 25.391 44.0028 25.5267 43.7462 25.798C43.4968 26.062 43.3722 26.414 43.3722 26.854V30H41.9972ZM54.5519 30.077C53.9726 30.077 53.4702 29.9633 53.0449 29.736C52.6269 29.5013 52.3042 29.1713 52.0769 28.746C51.8569 28.3133 51.7469 27.8073 51.7469 27.228C51.7469 26.6413 51.8642 26.128 52.0989 25.688C52.3336 25.248 52.6672 24.907 53.0999 24.665C53.5326 24.423 54.0386 24.302 54.6179 24.302C55.0066 24.302 55.3842 24.3643 55.7509 24.489C56.1249 24.6137 56.4292 24.786 56.6639 25.006L56.2679 25.974C56.0332 25.7833 55.7839 25.6403 55.5199 25.545C55.2559 25.4423 54.9919 25.391 54.7279 25.391C54.2439 25.391 53.8589 25.545 53.5729 25.853C53.2942 26.161 53.1549 26.612 53.1549 27.206C53.1549 27.7927 53.2942 28.24 53.5729 28.548C53.8516 28.856 54.2402 29.01 54.7389 29.01C54.9956 29.01 55.2559 28.9623 55.5199 28.867C55.7839 28.7643 56.0332 28.614 56.2679 28.416L56.6639 29.384C56.4219 29.604 56.1102 29.7763 55.7289 29.901C55.3549 30.0183 54.9626 30.077 54.5519 30.077ZM59.9429 30.077C59.4589 30.077 59.0299 29.9633 58.6559 29.736C58.2819 29.5013 57.9922 29.1713 57.7869 28.746C57.5889 28.3133 57.4899 27.8073 57.4899 27.228C57.4899 26.6413 57.5925 26.1317 57.7979 25.699C58.0032 25.259 58.2892 24.918 58.6559 24.676C59.0299 24.4267 59.4589 24.302 59.9429 24.302C60.4122 24.302 60.8192 24.4193 61.1639 24.654C61.5159 24.8813 61.7542 25.2003 61.8789 25.611L61.7469 25.688V24.445H63.0999V30H61.7469V28.746L61.8789 28.79C61.7542 29.2007 61.5159 29.5197 61.1639 29.747C60.8192 29.967 60.4122 30.077 59.9429 30.077ZM60.3169 29.021C60.7715 29.021 61.1235 28.8633 61.3729 28.548C61.6222 28.2327 61.7469 27.7853 61.7469 27.206C61.7469 26.612 61.6222 26.161 61.3729 25.853C61.1235 25.5377 60.7715 25.38 60.3169 25.38C59.8549 25.38 59.4955 25.5413 59.2389 25.864C58.9822 26.1867 58.8539 26.6413 58.8539 27.228C58.8539 27.8 58.9822 28.2437 59.2389 28.559C59.4955 28.867 59.8549 29.021 60.3169 29.021ZM66.8324 30.077C65.8204 30.077 65.0211 29.846 64.4344 29.384L64.8194 28.416C65.1127 28.636 65.4317 28.801 65.7764 28.911C66.1211 29.021 66.4804 29.076 66.8544 29.076C67.1917 29.076 67.4484 29.021 67.6244 28.911C67.8004 28.801 67.8884 28.647 67.8884 28.449C67.8884 28.2803 67.8261 28.1483 67.7014 28.053C67.5767 27.9503 67.3641 27.8623 67.0634 27.789L66.1394 27.58C65.6334 27.47 65.2521 27.2867 64.9954 27.03C64.7461 26.766 64.6214 26.4323 64.6214 26.029C64.6214 25.6917 64.7167 25.3947 64.9074 25.138C65.0981 24.874 65.3657 24.6687 65.7104 24.522C66.0551 24.3753 66.4547 24.302 66.9094 24.302C67.3054 24.302 67.6867 24.3643 68.0534 24.489C68.4201 24.6063 68.7391 24.7787 69.0104 25.006L68.6144 25.952C68.3357 25.7393 68.0497 25.5817 67.7564 25.479C67.4704 25.3763 67.1844 25.325 66.8984 25.325C66.5831 25.325 66.3374 25.3837 66.1614 25.501C65.9854 25.6183 65.8974 25.7797 65.8974 25.985C65.8974 26.1463 65.9487 26.2747 66.0514 26.37C66.1614 26.4653 66.3484 26.5423 66.6124 26.601L67.5474 26.832C68.0974 26.9493 68.4971 27.14 68.7464 27.404C69.0031 27.6607 69.1314 28.0017 69.1314 28.427C69.1314 28.933 68.9261 29.3363 68.5154 29.637C68.1047 29.9303 67.5437 30.077 66.8324 30.077ZM70.4972 30V21.904H71.8722V25.567L71.7072 25.578C71.8832 25.16 72.1435 24.8447 72.4882 24.632C72.8402 24.412 73.2435 24.302 73.6982 24.302C75.0182 24.302 75.6782 25.0647 75.6782 26.59V30H74.3032V26.645C74.3032 26.2123 74.2188 25.897 74.0502 25.699C73.8815 25.4937 73.6212 25.391 73.2692 25.391C72.8438 25.391 72.5028 25.5267 72.2462 25.798C71.9968 26.062 71.8722 26.414 71.8722 26.854V30H70.4972ZM77.3143 30V21.904H78.6893V25.765L78.5683 25.6C78.6857 25.204 78.9167 24.8887 79.2613 24.654C79.606 24.4193 80.013 24.302 80.4823 24.302C80.9737 24.302 81.4027 24.4193 81.7693 24.654C82.136 24.8887 82.4257 25.2223 82.6383 25.655C82.851 26.0877 82.9573 26.5937 82.9573 27.173C82.9573 27.7523 82.851 28.262 82.6383 28.702C82.4257 29.142 82.1323 29.483 81.7583 29.725C81.3917 29.9597 80.9663 30.077 80.4823 30.077C80.013 30.077 79.606 29.967 79.2613 29.747C78.9167 29.5197 78.6857 29.2007 78.5683 28.79L78.6893 28.592V30H77.3143ZM80.1303 29.021C80.585 29.021 80.937 28.8597 81.1863 28.537C81.4357 28.2143 81.5603 27.7597 81.5603 27.173C81.5603 26.601 81.4357 26.161 81.1863 25.853C80.937 25.5377 80.585 25.38 80.1303 25.38C79.661 25.38 79.3017 25.5377 79.0523 25.853C78.8103 26.1683 78.6893 26.6157 78.6893 27.195C78.6893 27.7817 78.8103 28.2327 79.0523 28.548C79.3017 28.8633 79.661 29.021 80.1303 29.021ZM86.5026 30.077C86.0186 30.077 85.5896 29.9633 85.2156 29.736C84.8416 29.5013 84.552 29.1713 84.3466 28.746C84.1486 28.3133 84.0496 27.8073 84.0496 27.228C84.0496 26.6413 84.1523 26.1317 84.3576 25.699C84.563 25.259 84.849 24.918 85.2156 24.676C85.5896 24.4267 86.0186 24.302 86.5026 24.302C86.972 24.302 87.379 24.4193 87.7236 24.654C88.0756 24.8813 88.314 25.2003 88.4386 25.611L88.3066 25.688V24.445H89.6596V30H88.3066V28.746L88.4386 28.79C88.314 29.2007 88.0756 29.5197 87.7236 29.747C87.379 29.967 86.972 30.077 86.5026 30.077ZM86.8766 29.021C87.3313 29.021 87.6833 28.8633 87.9326 28.548C88.182 28.2327 88.3066 27.7853 88.3066 27.206C88.3066 26.612 88.182 26.161 87.9326 25.853C87.6833 25.5377 87.3313 25.38 86.8766 25.38C86.4146 25.38 86.0553 25.5413 85.7986 25.864C85.542 26.1867 85.4136 26.6413 85.4136 27.228C85.4136 27.8 85.542 28.2437 85.7986 28.559C86.0553 28.867 86.4146 29.021 86.8766 29.021ZM93.8652 30.077C93.2858 30.077 92.7835 29.9633 92.3582 29.736C91.9402 29.5013 91.6175 29.1713 91.3902 28.746C91.1702 28.3133 91.0602 27.8073 91.0602 27.228C91.0602 26.6413 91.1775 26.128 91.4122 25.688C91.6468 25.248 91.9805 24.907 92.4132 24.665C92.8458 24.423 93.3518 24.302 93.9312 24.302C94.3198 24.302 94.6975 24.3643 95.0642 24.489C95.4382 24.6137 95.7425 24.786 95.9772 25.006L95.5812 25.974C95.3465 25.7833 95.0972 25.6403 94.8332 25.545C94.5692 25.4423 94.3052 25.391 94.0412 25.391C93.5572 25.391 93.1722 25.545 92.8862 25.853C92.6075 26.161 92.4682 26.612 92.4682 27.206C92.4682 27.7927 92.6075 28.24 92.8862 28.548C93.1648 28.856 93.5535 29.01 94.0522 29.01C94.3088 29.01 94.5692 28.9623 94.8332 28.867C95.0972 28.7643 95.3465 28.614 95.5812 28.416L95.9772 29.384C95.7352 29.604 95.4235 29.7763 95.0422 29.901C94.6682 30.0183 94.2758 30.077 93.8652 30.077ZM100.895 30L98.2221 27.173L100.752 24.456H102.424L99.5532 27.492L99.6192 26.799L102.611 30H100.895ZM97.0891 30V21.904H98.4641V30H97.0891ZM108.033 30L105.987 24.467H106.922L108.627 29.34H108.341L110.101 24.467H110.882L112.62 29.34H112.334L114.072 24.467H114.952L112.906 30H112.048L110.222 25.017H110.706L108.891 30H108.033ZM116.308 30V21.904H117.199V25.589L117.056 25.699C117.21 25.2517 117.467 24.9143 117.826 24.687C118.186 24.4523 118.6 24.335 119.069 24.335C120.397 24.335 121.06 25.0647 121.06 26.524V30H120.169V26.568C120.169 26.0547 120.067 25.6807 119.861 25.446C119.656 25.204 119.333 25.083 118.893 25.083C118.38 25.083 117.969 25.2407 117.661 25.556C117.353 25.8713 117.199 26.2967 117.199 26.832V30H116.308ZM127.475 29.34C127.233 29.5673 126.921 29.747 126.54 29.879C126.166 30.011 125.781 30.077 125.385 30.077C124.813 30.077 124.318 29.9633 123.9 29.736C123.489 29.5087 123.17 29.1823 122.943 28.757C122.723 28.3243 122.613 27.811 122.613 27.217C122.613 26.645 122.723 26.1427 122.943 25.71C123.163 25.2773 123.467 24.94 123.856 24.698C124.252 24.456 124.706 24.335 125.22 24.335C125.711 24.335 126.133 24.445 126.485 24.665C126.837 24.8777 127.104 25.1857 127.288 25.589C127.478 25.9923 127.574 26.4763 127.574 27.041V27.206H123.394V26.623H127.068L126.782 27.03C126.796 26.3847 126.668 25.8897 126.397 25.545C126.133 25.2003 125.744 25.028 125.231 25.028C124.695 25.028 124.274 25.2187 123.966 25.6C123.665 25.974 123.515 26.4947 123.515 27.162C123.515 27.8807 123.672 28.4233 123.988 28.79C124.31 29.1567 124.78 29.34 125.396 29.34C125.718 29.34 126.026 29.2887 126.32 29.186C126.62 29.076 126.906 28.911 127.178 28.691L127.475 29.34ZM129.126 30V26.018C129.126 25.7613 129.119 25.5047 129.104 25.248C129.097 24.984 129.075 24.7237 129.038 24.467H129.885L129.984 25.611L129.874 25.699C130.028 25.2517 130.285 24.9143 130.644 24.687C131.003 24.4523 131.418 24.335 131.887 24.335C133.214 24.335 133.878 25.0647 133.878 26.524V30H132.987V26.568C132.987 26.0547 132.884 25.6807 132.679 25.446C132.474 25.204 132.151 25.083 131.711 25.083C131.198 25.083 130.787 25.2407 130.479 25.556C130.171 25.8713 130.017 26.2967 130.017 26.832V30H129.126ZM138.565 32.497L138.378 31.804C138.715 31.7233 138.998 31.628 139.225 31.518C139.46 31.4153 139.654 31.2797 139.808 31.111C139.969 30.9423 140.109 30.7187 140.226 30.44L140.578 29.626L140.776 29.351L142.8 24.467H143.691L141.106 30.506C140.908 30.9533 140.684 31.309 140.435 31.573C140.186 31.8443 139.903 32.0497 139.588 32.189C139.28 32.3283 138.939 32.431 138.565 32.497ZM140.589 30.286L138.103 24.467H139.038L141.04 29.351L140.589 30.286ZM147.096 30.077C146.568 30.077 146.106 29.9597 145.71 29.725C145.322 29.4903 145.017 29.1603 144.797 28.735C144.585 28.3023 144.478 27.7927 144.478 27.206C144.478 26.6267 144.585 26.1207 144.797 25.688C145.017 25.2553 145.322 24.9217 145.71 24.687C146.106 24.4523 146.568 24.335 147.096 24.335C147.624 24.335 148.083 24.4523 148.471 24.687C148.867 24.9217 149.172 25.2553 149.384 25.688C149.604 26.1207 149.714 26.6267 149.714 27.206C149.714 27.7927 149.604 28.3023 149.384 28.735C149.172 29.1603 148.867 29.4903 148.471 29.725C148.083 29.9597 147.624 30.077 147.096 30.077ZM147.096 29.34C147.639 29.34 148.057 29.1603 148.35 28.801C148.651 28.4343 148.801 27.9027 148.801 27.206C148.801 26.524 148.651 25.9997 148.35 25.633C148.05 25.2663 147.632 25.083 147.096 25.083C146.561 25.083 146.139 25.2663 145.831 25.633C145.531 25.9997 145.38 26.524 145.38 27.206C145.38 27.9027 145.527 28.4343 145.82 28.801C146.121 29.1603 146.546 29.34 147.096 29.34ZM153.261 30.077C152.601 30.077 152.102 29.8937 151.765 29.527C151.435 29.1603 151.27 28.6177 151.27 27.899V24.467H152.161V27.877C152.161 28.3757 152.264 28.7423 152.469 28.977C152.674 29.2117 152.986 29.329 153.404 29.329C153.895 29.329 154.291 29.1713 154.592 28.856C154.893 28.5407 155.043 28.119 155.043 27.591V24.467H155.934V30H155.065V28.801L155.197 28.735C155.05 29.175 154.801 29.5087 154.449 29.736C154.104 29.9633 153.708 30.077 153.261 30.077ZM162.79 30.077C161.859 30.077 161.122 29.8387 160.579 29.362L160.876 28.702C161.169 28.9293 161.47 29.098 161.778 29.208C162.093 29.3107 162.442 29.362 162.823 29.362C163.241 29.362 163.556 29.2923 163.769 29.153C163.989 29.0063 164.099 28.7973 164.099 28.526C164.099 28.306 164.026 28.1337 163.879 28.009C163.732 27.877 163.49 27.7707 163.153 27.69L162.218 27.47C161.756 27.3673 161.397 27.184 161.14 26.92C160.891 26.656 160.766 26.3407 160.766 25.974C160.766 25.6513 160.854 25.369 161.03 25.127C161.206 24.8777 161.452 24.6833 161.767 24.544C162.082 24.4047 162.456 24.335 162.889 24.335C163.278 24.335 163.644 24.3973 163.989 24.522C164.334 24.6467 164.623 24.8263 164.858 25.061L164.561 25.71C164.297 25.49 164.026 25.3287 163.747 25.226C163.476 25.116 163.19 25.061 162.889 25.061C162.493 25.061 162.185 25.138 161.965 25.292C161.752 25.446 161.646 25.655 161.646 25.919C161.646 26.1463 161.712 26.326 161.844 26.458C161.983 26.59 162.203 26.6927 162.504 26.766L163.439 26.997C163.96 27.107 164.341 27.2903 164.583 27.547C164.832 27.7963 164.957 28.1153 164.957 28.504C164.957 28.9807 164.763 29.362 164.374 29.648C163.985 29.934 163.457 30.077 162.79 30.077ZM166.577 30V21.904H167.468V25.589L167.325 25.699C167.479 25.2517 167.736 24.9143 168.095 24.687C168.454 24.4523 168.869 24.335 169.338 24.335C170.665 24.335 171.329 25.0647 171.329 26.524V30H170.438V26.568C170.438 26.0547 170.335 25.6807 170.13 25.446C169.925 25.204 169.602 25.083 169.162 25.083C168.649 25.083 168.238 25.2407 167.93 25.556C167.622 25.8713 167.468 26.2967 167.468 26.832V30H166.577ZM175.5 30.077C174.972 30.077 174.51 29.9597 174.114 29.725C173.725 29.4903 173.421 29.1603 173.201 28.735C172.988 28.3023 172.882 27.7927 172.882 27.206C172.882 26.6267 172.988 26.1207 173.201 25.688C173.421 25.2553 173.725 24.9217 174.114 24.687C174.51 24.4523 174.972 24.335 175.5 24.335C176.028 24.335 176.486 24.4523 176.875 24.687C177.271 24.9217 177.575 25.2553 177.788 25.688C178.008 26.1207 178.118 26.6267 178.118 27.206C178.118 27.7927 178.008 28.3023 177.788 28.735C177.575 29.1603 177.271 29.4903 176.875 29.725C176.486 29.9597 176.028 30.077 175.5 30.077ZM175.5 29.34C176.042 29.34 176.46 29.1603 176.754 28.801C177.054 28.4343 177.205 27.9027 177.205 27.206C177.205 26.524 177.054 25.9997 176.754 25.633C176.453 25.2663 176.035 25.083 175.5 25.083C174.964 25.083 174.543 25.2663 174.235 25.633C173.934 25.9997 173.784 26.524 173.784 27.206C173.784 27.9027 173.93 28.4343 174.224 28.801C174.524 29.1603 174.95 29.34 175.5 29.34ZM179.706 32.376V26.018C179.706 25.7613 179.699 25.5047 179.684 25.248C179.677 24.984 179.655 24.7237 179.618 24.467H180.465L180.564 25.611L180.476 25.776C180.601 25.314 180.839 24.9583 181.191 24.709C181.543 24.4597 181.969 24.335 182.467 24.335C182.951 24.335 183.377 24.456 183.743 24.698C184.117 24.94 184.407 25.2773 184.612 25.71C184.825 26.1427 184.931 26.6487 184.931 27.228C184.931 27.8073 184.825 28.3133 184.612 28.746C184.407 29.1713 184.121 29.5013 183.754 29.736C183.388 29.9633 182.959 30.077 182.467 30.077C181.969 30.077 181.543 29.9523 181.191 29.703C180.839 29.4537 180.601 29.098 180.476 28.636L180.597 28.526V32.376H179.706ZM182.302 29.34C182.838 29.34 183.256 29.1567 183.556 28.79C183.857 28.4233 184.007 27.9027 184.007 27.228C184.007 26.5533 183.857 26.029 183.556 25.655C183.256 25.2737 182.838 25.083 182.302 25.083C181.752 25.083 181.331 25.2663 181.037 25.633C180.744 25.9997 180.597 26.524 180.597 27.206C180.597 27.888 180.744 28.416 181.037 28.79C181.331 29.1567 181.752 29.34 182.302 29.34ZM191.055 30L189.009 24.467H189.944L191.649 29.34H191.363L193.123 24.467H193.904L195.642 29.34H195.356L197.094 24.467H197.974L195.928 30H195.07L193.244 25.017H193.728L191.913 30H191.055ZM199.331 30V24.467H200.222V30H199.331ZM199.243 22.124H200.332V23.136H199.243V22.124ZM201.371 25.171V24.467H204.924V25.171H201.371ZM204.902 29.208V29.967C204.777 30.0037 204.653 30.0293 204.528 30.044C204.411 30.066 204.279 30.077 204.132 30.077C203.619 30.077 203.208 29.9303 202.9 29.637C202.599 29.3437 202.449 28.9037 202.449 28.317V23.048L203.34 22.729V28.196C203.34 28.4893 203.38 28.7167 203.461 28.878C203.549 29.0393 203.666 29.153 203.813 29.219C203.96 29.2777 204.125 29.307 204.308 29.307C204.418 29.307 204.517 29.2997 204.605 29.285C204.693 29.2703 204.792 29.2447 204.902 29.208ZM206.198 30V21.904H207.089V25.589L206.946 25.699C207.1 25.2517 207.356 24.9143 207.716 24.687C208.075 24.4523 208.489 24.335 208.959 24.335C210.286 24.335 210.95 25.0647 210.95 26.524V30H210.059V26.568C210.059 26.0547 209.956 25.6807 209.751 25.446C209.545 25.204 209.223 25.083 208.783 25.083C208.269 25.083 207.859 25.2407 207.551 25.556C207.243 25.8713 207.089 26.2967 207.089 26.832V30H206.198ZM215.119 25.171V24.467H218.441V25.171H215.119ZM218.595 22.718C218.39 22.6593 218.199 22.63 218.023 22.63C217.847 22.63 217.686 22.663 217.539 22.729C217.4 22.7877 217.29 22.8977 217.209 23.059C217.129 23.2203 217.088 23.444 217.088 23.73V30H216.197V23.62C216.197 23.026 216.344 22.586 216.637 22.3C216.931 22.0067 217.334 21.86 217.847 21.86C217.972 21.86 218.097 21.8673 218.221 21.882C218.346 21.8967 218.471 21.9223 218.595 21.959V22.718ZM219.806 30V26.018C219.806 25.7613 219.799 25.5047 219.784 25.248C219.777 24.984 219.755 24.7237 219.718 24.467H220.565L220.686 25.831L220.565 25.798C220.668 25.314 220.888 24.951 221.225 24.709C221.57 24.4597 221.955 24.335 222.38 24.335C222.476 24.335 222.564 24.3423 222.644 24.357C222.732 24.3643 222.813 24.379 222.886 24.401L222.864 25.215C222.696 25.1563 222.501 25.127 222.281 25.127C221.9 25.127 221.592 25.2113 221.357 25.38C221.13 25.5487 220.961 25.765 220.851 26.029C220.749 26.2857 220.697 26.557 220.697 26.843V30H219.806ZM223.992 30V24.467H224.883V30H223.992ZM223.904 22.124H224.993V23.136H223.904V22.124ZM231.345 29.34C231.103 29.5673 230.791 29.747 230.41 29.879C230.036 30.011 229.651 30.077 229.255 30.077C228.683 30.077 228.188 29.9633 227.77 29.736C227.359 29.5087 227.04 29.1823 226.813 28.757C226.593 28.3243 226.483 27.811 226.483 27.217C226.483 26.645 226.593 26.1427 226.813 25.71C227.033 25.2773 227.337 24.94 227.726 24.698C228.122 24.456 228.577 24.335 229.09 24.335C229.581 24.335 230.003 24.445 230.355 24.665C230.707 24.8777 230.975 25.1857 231.158 25.589C231.349 25.9923 231.444 26.4763 231.444 27.041V27.206H227.264V26.623H230.938L230.652 27.03C230.667 26.3847 230.538 25.8897 230.267 25.545C230.003 25.2003 229.614 25.028 229.101 25.028C228.566 25.028 228.144 25.2187 227.836 25.6C227.535 25.974 227.385 26.4947 227.385 27.162C227.385 27.8807 227.543 28.4233 227.858 28.79C228.181 29.1567 228.65 29.34 229.266 29.34C229.589 29.34 229.897 29.2887 230.19 29.186C230.491 29.076 230.777 28.911 231.048 28.691L231.345 29.34ZM232.996 30V26.018C232.996 25.7613 232.989 25.5047 232.974 25.248C232.967 24.984 232.945 24.7237 232.908 24.467H233.755L233.854 25.611L233.744 25.699C233.898 25.2517 234.155 24.9143 234.514 24.687C234.874 24.4523 235.288 24.335 235.757 24.335C237.085 24.335 237.748 25.0647 237.748 26.524V30H236.857V26.568C236.857 26.0547 236.755 25.6807 236.549 25.446C236.344 25.204 236.021 25.083 235.581 25.083C235.068 25.083 234.657 25.2407 234.349 25.556C234.041 25.8713 233.887 26.2967 233.887 26.832V30H232.996ZM244.504 30H243.624V28.515L243.756 28.636C243.631 29.098 243.393 29.4537 243.041 29.703C242.689 29.9523 242.26 30.077 241.754 30.077C241.27 30.077 240.841 29.9597 240.467 29.725C240.1 29.483 239.814 29.1457 239.609 28.713C239.404 28.273 239.301 27.7633 239.301 27.184C239.301 26.6047 239.4 26.1023 239.598 25.677C239.803 25.2517 240.089 24.9217 240.456 24.687C240.83 24.4523 241.263 24.335 241.754 24.335C242.26 24.335 242.689 24.4633 243.041 24.72C243.393 24.9693 243.631 25.3213 243.756 25.776L243.613 25.886V21.904H244.504V30ZM241.93 29.34C242.465 29.34 242.88 29.1567 243.173 28.79C243.474 28.416 243.624 27.888 243.624 27.206C243.624 26.5313 243.477 26.0107 243.184 25.644C242.891 25.27 242.473 25.083 241.93 25.083C241.387 25.083 240.962 25.2663 240.654 25.633C240.353 25.9997 240.203 26.5167 240.203 27.184C240.203 27.866 240.353 28.3977 240.654 28.779C240.962 29.153 241.387 29.34 241.93 29.34ZM248.297 30.077C247.365 30.077 246.628 29.8387 246.086 29.362L246.383 28.702C246.676 28.9293 246.977 29.098 247.285 29.208C247.6 29.3107 247.948 29.362 248.33 29.362C248.748 29.362 249.063 29.2923 249.276 29.153C249.496 29.0063 249.606 28.7973 249.606 28.526C249.606 28.306 249.532 28.1337 249.386 28.009C249.239 27.877 248.997 27.7707 248.66 27.69L247.725 27.47C247.263 27.3673 246.903 27.184 246.647 26.92C246.397 26.656 246.273 26.3407 246.273 25.974C246.273 25.6513 246.361 25.369 246.537 25.127C246.713 24.8777 246.958 24.6833 247.274 24.544C247.589 24.4047 247.963 24.335 248.396 24.335C248.784 24.335 249.151 24.3973 249.496 24.522C249.84 24.6467 250.13 24.8263 250.365 25.061L250.068 25.71C249.804 25.49 249.532 25.3287 249.254 25.226C248.982 25.116 248.696 25.061 248.396 25.061C248 25.061 247.692 25.138 247.472 25.292C247.259 25.446 247.153 25.655 247.153 25.919C247.153 26.1463 247.219 26.326 247.351 26.458C247.49 26.59 247.71 26.6927 248.011 26.766L248.946 26.997C249.466 27.107 249.848 27.2903 250.09 27.547C250.339 27.7963 250.464 28.1153 250.464 28.504C250.464 28.9807 250.269 29.362 249.881 29.648C249.492 29.934 248.964 30.077 248.297 30.077Z" fill="white"/>
<path fill-rule="evenodd" clip-rule="evenodd" d="M263.052 24.0747C262.818 24.0056 262.569 23.9858 262.324 24.0167L257.817 24.0142C257.572 23.9832 257.323 24.0031 257.088 24.0721C256.854 24.1412 256.641 24.2576 256.466 24.412C256.291 24.5665 256.16 24.7547 256.082 24.962C256.004 25.1692 255.981 25.3897 256.016 25.6059V28.3939C255.981 28.6103 256.003 28.8309 256.082 29.0383C256.16 29.2456 256.292 29.434 256.467 29.5885C256.642 29.743 256.855 29.8593 257.09 29.9282C257.324 29.9972 257.574 30.0168 257.819 29.9856H262.324C262.568 30.0158 262.817 29.9956 263.05 29.9264C263.284 29.8572 263.496 29.741 263.671 29.5869C263.845 29.4329 263.976 29.2451 264.054 29.0385C264.132 28.8319 264.155 28.6121 264.121 28.3964V26.8047H259.619V27.2026H263.674V28.3964C263.701 28.5586 263.684 28.7239 263.625 28.8793C263.567 29.0347 263.468 29.1759 263.337 29.2917C263.206 29.4075 263.046 29.4948 262.87 29.5466C262.694 29.5984 262.507 29.6133 262.324 29.5902H257.819C257.635 29.6133 257.448 29.5984 257.272 29.5466C257.097 29.4948 256.937 29.4075 256.806 29.2917C256.675 29.1759 256.576 29.0347 256.517 28.8793C256.459 28.7239 256.442 28.5586 256.468 28.3964V25.6084C256.442 25.4462 256.459 25.2809 256.517 25.1255C256.576 24.9701 256.675 24.8289 256.806 24.7131C256.937 24.5973 257.097 24.51 257.272 24.4582C257.448 24.4064 257.635 24.3915 257.819 24.4146H262.324C262.507 24.3919 262.694 24.4072 262.869 24.4592C263.045 24.5112 263.204 24.5985 263.335 24.7143C263.466 24.83 263.564 24.9711 263.622 25.1263C263.681 25.2814 263.698 25.4465 263.672 25.6084H264.125C264.16 25.3922 264.137 25.1717 264.059 24.9645C263.981 24.7573 263.849 24.569 263.675 24.4145C263.5 24.2601 263.287 24.1437 263.052 24.0747ZM273.937 24.0747C273.703 24.0056 273.454 23.9858 273.209 24.0167L266.903 24.0201V29.989H267.353V27.201H273.207C273.391 27.1778 273.578 27.1927 273.753 27.2445C273.929 27.2963 274.089 27.3836 274.22 27.4994C274.351 27.6152 274.45 27.7564 274.508 27.9118C274.567 28.0672 274.584 28.2326 274.558 28.3947V29.9864H275.01V28.3947C275.047 28.1233 274.997 27.848 274.863 27.6012C274.73 27.3544 274.52 27.1464 274.257 27.0016C274.52 26.8567 274.73 26.6487 274.863 26.4019C274.997 26.1551 275.047 25.8798 275.01 25.6084C275.045 25.3922 275.022 25.1717 274.944 24.9645C274.866 24.7573 274.734 24.569 274.56 24.4145C274.385 24.2601 274.172 24.1437 273.937 24.0747ZM274.558 25.6084C274.584 25.4462 274.567 25.2809 274.508 25.1255C274.45 24.9701 274.351 24.8289 274.22 24.7131C274.089 24.5973 273.929 24.51 273.753 24.4582C273.578 24.4064 273.391 24.3915 273.207 24.4146H267.353V26.8022H273.205C273.389 26.8256 273.576 26.8109 273.752 26.7593C273.928 26.7076 274.088 26.6203 274.219 26.5045C274.351 26.3886 274.45 26.2473 274.508 26.0918C274.567 25.9362 274.584 25.7707 274.558 25.6084ZM278.861 29.9276C279.096 29.9967 279.345 30.0165 279.59 29.9856H284.091C284.336 30.0165 284.585 29.9967 284.82 29.9276C285.054 29.8586 285.267 29.7422 285.442 29.5877C285.617 29.4333 285.748 29.245 285.826 29.0378C285.904 28.8306 285.927 28.6101 285.892 28.3939V25.6059C285.927 25.3897 285.904 25.1692 285.826 24.962C285.748 24.7547 285.617 24.5665 285.442 24.412C285.267 24.2576 285.054 24.1412 284.82 24.0721C284.585 24.0031 284.336 23.9832 284.091 24.0142H279.59C279.345 23.9832 279.096 24.0031 278.861 24.0721C278.627 24.1412 278.414 24.2576 278.239 24.412C278.064 24.5665 277.933 24.7547 277.855 24.962C277.776 25.1692 277.754 25.3897 277.789 25.6059V28.3939C277.754 28.6101 277.776 28.8306 277.855 29.0378C277.933 29.245 278.064 29.4333 278.239 29.5877C278.414 29.7422 278.627 29.8586 278.861 29.9276ZM278.237 28.3939C278.211 28.556 278.228 28.7214 278.287 28.8768C278.345 29.0321 278.444 29.1734 278.575 29.2892C278.706 29.405 278.866 29.4923 279.041 29.5441C279.217 29.5959 279.404 29.6108 279.588 29.5877H284.089C284.273 29.6108 284.46 29.5959 284.636 29.5441C284.811 29.4923 284.971 29.405 285.102 29.2892C285.233 29.1734 285.332 29.0321 285.391 28.8768C285.449 28.7214 285.466 28.556 285.44 28.3939V25.6059C285.466 25.4437 285.449 25.2784 285.391 25.123C285.332 24.9676 285.233 24.8264 285.102 24.7106C284.971 24.5947 284.811 24.5075 284.636 24.4557C284.46 24.4039 284.273 24.3889 284.089 24.4121H279.588C279.404 24.3889 279.217 24.4039 279.041 24.4557C278.866 24.5075 278.706 24.5947 278.575 24.7106C278.444 24.8264 278.345 24.9676 278.287 25.123C278.228 25.2784 278.211 25.4437 278.237 25.6059V28.3939ZM296.325 24.0167V28.3939C296.351 28.556 296.334 28.7214 296.276 28.8768C296.217 29.0321 296.118 29.1734 295.987 29.2892C295.856 29.405 295.696 29.4923 295.521 29.5441C295.345 29.5959 295.158 29.6108 294.974 29.5877H290.473C290.289 29.6108 290.102 29.5959 289.926 29.5441C289.751 29.4923 289.591 29.405 289.46 29.2892C289.329 29.1734 289.23 29.0321 289.172 28.8768C289.113 28.7214 289.096 28.556 289.122 28.3939V24.0167H288.672V28.3939C288.637 28.6101 288.66 28.8306 288.738 29.0378C288.816 29.245 288.947 29.4333 289.122 29.5877C289.297 29.7422 289.51 29.8586 289.744 29.9276C289.979 29.9967 290.228 30.0165 290.473 29.9856H294.974C295.219 30.0165 295.468 29.9967 295.703 29.9276C295.937 29.8586 296.15 29.7422 296.325 29.5877C296.5 29.4333 296.631 29.245 296.709 29.0378C296.788 28.8306 296.81 28.6101 296.775 28.3939V24.0167H296.325ZM305.858 24.0167C306.103 23.9858 306.352 24.0056 306.587 24.0747C306.821 24.1437 307.034 24.2601 307.209 24.4145C307.384 24.569 307.515 24.7573 307.593 24.9645C307.672 25.1717 307.694 25.3922 307.659 25.6084C307.694 25.8246 307.672 26.0451 307.593 26.2523C307.515 26.4595 307.384 26.6478 307.209 26.8023C307.034 26.9567 306.821 27.0731 306.587 27.1421C306.352 27.2112 306.103 27.231 305.858 27.2001H300.006V29.9881H299.556V24.0192L305.858 24.0167ZM307.16 25.1255C307.218 25.2809 307.235 25.4462 307.209 25.6084H307.21C307.236 25.7706 307.219 25.9361 307.161 26.0915C307.102 26.247 307.003 26.3882 306.872 26.5041C306.741 26.6199 306.581 26.7072 306.405 26.7589C306.229 26.8107 306.042 26.8255 305.858 26.8022H300.006V24.4146H305.858C306.042 24.3915 306.229 24.4064 306.405 24.4582C306.58 24.51 306.74 24.5973 306.871 24.7131C307.002 24.8289 307.101 24.9701 307.16 25.1255ZM312.03 29.9856C311.785 30.0165 311.536 29.9967 311.301 29.9276C311.067 29.8586 310.854 29.7422 310.679 29.5877C310.504 29.4333 310.373 29.245 310.295 29.0378C310.216 28.8306 310.194 28.6101 310.229 28.3939H310.679C310.653 28.556 310.67 28.7214 310.728 28.8768C310.787 29.0321 310.886 29.1734 311.017 29.2892C311.148 29.405 311.308 29.4923 311.483 29.5441C311.659 29.5959 311.846 29.6108 312.03 29.5877H316.531C316.715 29.6108 316.902 29.5959 317.078 29.5441C317.253 29.4923 317.413 29.405 317.544 29.2892C317.675 29.1734 317.774 29.0321 317.832 28.8768C317.891 28.7214 317.908 28.556 317.882 28.3939C317.908 28.2317 317.891 28.0664 317.832 27.911C317.774 27.7556 317.675 27.6144 317.544 27.4986C317.413 27.3828 317.253 27.2955 317.078 27.2437C316.902 27.1919 316.715 27.1769 316.531 27.2001H312.03C311.785 27.231 311.536 27.2112 311.301 27.1421C311.067 27.0731 310.854 26.9567 310.679 26.8023C310.504 26.6478 310.373 26.4595 310.295 26.2523C310.216 26.0451 310.194 25.8246 310.229 25.6084C310.194 25.3922 310.216 25.1717 310.295 24.9645C310.373 24.7573 310.504 24.569 310.679 24.4145C310.854 24.2601 311.067 24.1437 311.301 24.0747C311.536 24.0056 311.785 23.9858 312.03 24.0167H316.531C316.776 23.9859 317.025 24.0059 317.259 24.075C317.494 24.1441 317.707 24.2605 317.881 24.4149C318.056 24.5694 318.187 24.7576 318.265 24.9648C318.343 25.1719 318.366 25.3923 318.331 25.6084H317.881C317.907 25.4462 317.89 25.2809 317.832 25.1255C317.773 24.9701 317.674 24.8289 317.543 24.7131C317.412 24.5973 317.252 24.51 317.077 24.4582C316.901 24.4064 316.714 24.3915 316.53 24.4146H312.029C311.845 24.3915 311.658 24.4064 311.482 24.4582C311.307 24.51 311.147 24.5973 311.016 24.7131C310.885 24.8289 310.786 24.9701 310.728 25.1255C310.669 25.2809 310.652 25.4462 310.678 25.6084C310.652 25.7706 310.669 25.9359 310.728 26.0913C310.786 26.2467 310.885 26.3879 311.016 26.5037C311.147 26.6195 311.307 26.7068 311.482 26.7586C311.658 26.8104 311.845 26.8253 312.029 26.8022H316.53C316.775 26.7713 317.024 26.7911 317.259 26.8601C317.493 26.9292 317.706 27.0456 317.881 27.2C318.056 27.3545 318.187 27.5428 318.265 27.75C318.344 27.9572 318.366 28.1777 318.331 28.3939C318.366 28.6101 318.344 28.8306 318.265 29.0378C318.187 29.245 318.056 29.4333 317.881 29.5877C317.706 29.7422 317.493 29.8586 317.259 29.9276C317.024 29.9967 316.775 30.0165 316.53 29.9856H312.03ZM321.563 29.9856V27.1976H328.768V29.9856H329.218V24.0167H328.768V26.8047H321.563V24.0167H321.113V29.9856H321.563ZM333.797 29.9856C333.552 30.0162 333.303 29.9961 333.069 29.927C332.835 29.8578 332.622 29.7414 332.448 29.587C332.273 29.4326 332.142 29.2444 332.064 29.0373C331.986 28.8302 331.963 28.6099 331.998 28.3939V25.6059C331.963 25.3897 331.986 25.1692 332.064 24.962C332.142 24.7547 332.273 24.5665 332.448 24.412C332.623 24.2576 332.836 24.1412 333.07 24.0721C333.305 24.0031 333.554 23.9832 333.799 24.0142H338.306C338.551 23.9832 338.8 24.0031 339.035 24.0721C339.269 24.1412 339.482 24.2576 339.657 24.412C339.831 24.5665 339.963 24.7547 340.041 24.962C340.119 25.1692 340.142 25.3897 340.107 25.6059V28.3939C340.142 28.6101 340.119 28.8306 340.041 29.0378C339.963 29.245 339.831 29.4333 339.657 29.5877C339.482 29.7422 339.269 29.8586 339.035 29.9276C338.8 29.9967 338.551 30.0165 338.306 29.9856H333.797ZM332.496 28.8768C332.437 28.7214 332.42 28.556 332.446 28.3939L332.454 25.6084C332.428 25.4462 332.445 25.2809 332.503 25.1255C332.562 24.9701 332.661 24.8289 332.792 24.7131C332.923 24.5973 333.082 24.51 333.258 24.4582C333.434 24.4064 333.621 24.3915 333.804 24.4146H338.306C338.489 24.3916 338.676 24.4065 338.852 24.4581C339.027 24.5098 339.187 24.5968 339.318 24.7124C339.449 24.8279 339.547 24.9687 339.606 25.1238C339.665 25.2789 339.682 25.4439 339.657 25.6059V28.3939C339.683 28.556 339.666 28.7214 339.607 28.8768C339.549 29.0321 339.45 29.1734 339.319 29.2892C339.188 29.405 339.028 29.4923 338.852 29.5441C338.677 29.5959 338.49 29.6108 338.306 29.5877H333.797C333.613 29.6108 333.426 29.5959 333.251 29.5441C333.075 29.4923 332.915 29.405 332.784 29.2892C332.653 29.1734 332.554 29.0321 332.496 28.8768ZM349.184 24.0167C349.428 23.9858 349.677 24.0056 349.912 24.0747C350.146 24.1437 350.359 24.2601 350.534 24.4145C350.709 24.569 350.841 24.7573 350.918 24.9645C350.997 25.1717 351.019 25.3922 350.984 25.6084C351.019 25.8246 350.997 26.0451 350.918 26.2523C350.841 26.4595 350.709 26.6478 350.534 26.8023C350.359 26.9567 350.146 27.0731 349.912 27.1421C349.677 27.2112 349.428 27.231 349.184 27.2001H343.333V29.9881H342.883V24.0192L349.184 24.0167ZM350.485 25.1255C350.544 25.2809 350.56 25.4462 350.534 25.6084H350.54C350.566 25.7709 350.549 25.9366 350.49 26.0923C350.431 26.2479 350.332 26.3894 350.201 26.5053C350.069 26.6212 349.909 26.7084 349.733 26.7599C349.557 26.8114 349.369 26.8259 349.185 26.8022H343.333V24.4146H349.184C349.367 24.3915 349.554 24.4064 349.73 24.4582C349.906 24.51 350.065 24.5973 350.196 24.7131C350.327 24.8289 350.426 24.9701 350.485 25.1255Z" fill="white"/>
<path d="M262.324 24.0167L262.324 24.5167L262.355 24.5167L262.387 24.5128L262.324 24.0167ZM263.052 24.0747L263.194 23.595L263.194 23.595L263.052 24.0747ZM257.817 24.0142L257.754 24.5102L257.785 24.5142L257.816 24.5142L257.817 24.0142ZM257.088 24.0721L257.23 24.5518L257.088 24.0721ZM256.466 24.412L256.797 24.7866L256.797 24.7866L256.466 24.412ZM256.082 24.962L255.614 24.7856L255.614 24.7856L256.082 24.962ZM256.016 25.6059H256.516V25.5657L256.51 25.526L256.016 25.6059ZM256.016 28.3939L256.51 28.4739L256.516 28.4341V28.3939H256.016ZM256.082 29.0383L256.55 28.8618L256.082 29.0383ZM256.467 29.5885L256.136 29.9633L256.136 29.9633L256.467 29.5885ZM257.09 29.9282L257.23 29.4485L257.23 29.4485L257.09 29.9282ZM257.819 29.9856V29.4856H257.787L257.755 29.4896L257.819 29.9856ZM262.324 29.9856L262.386 29.4894L262.355 29.4856H262.324V29.9856ZM263.05 29.9264L262.908 29.447L262.908 29.447L263.05 29.9264ZM263.671 29.5869L264.002 29.9615L264.002 29.9615L263.671 29.5869ZM264.054 29.0385L264.522 29.2154L264.522 29.2154L264.054 29.0385ZM264.121 28.3964H263.621V28.436L263.627 28.4751L264.121 28.3964ZM264.121 26.8047H264.621V26.3047H264.121V26.8047ZM259.619 26.8047V26.3047H259.119V26.8047H259.619ZM259.619 27.2026H259.119V27.7026H259.619V27.2026ZM263.674 27.2026H264.174V26.7026H263.674V27.2026ZM263.674 28.3964H263.174V28.4365L263.181 28.4761L263.674 28.3964ZM263.337 29.2917L263.006 28.9171L263.006 28.9171L263.337 29.2917ZM262.324 29.5902L262.387 29.0941L262.355 29.0902H262.324V29.5902ZM257.819 29.5902V29.0902H257.787L257.756 29.0941L257.819 29.5902ZM257.272 29.5466L257.131 30.0262L257.131 30.0262L257.272 29.5466ZM256.806 29.2917L257.137 28.9171H257.137L256.806 29.2917ZM256.468 28.3964L256.962 28.4762L256.968 28.4365V28.3964H256.468ZM256.468 25.6084H256.968V25.5683L256.962 25.5287L256.468 25.6084ZM256.517 25.1255L256.05 24.9491L256.05 24.9491L256.517 25.1255ZM256.806 24.7131L256.475 24.3385L256.475 24.3385L256.806 24.7131ZM257.272 24.4582L257.131 23.9786L257.131 23.9786L257.272 24.4582ZM257.819 24.4146L257.756 24.9107L257.787 24.9146H257.819V24.4146ZM262.324 24.4146V24.9146H262.355L262.386 24.9108L262.324 24.4146ZM262.869 24.4592L263.011 23.9798L263.011 23.9798L262.869 24.4592ZM263.622 25.1263L264.09 24.95V24.95L263.622 25.1263ZM263.672 25.6084L263.178 25.5289L263.085 26.1084H263.672V25.6084ZM264.125 25.6084V26.1084H264.55L264.618 25.6883L264.125 25.6084ZM264.059 24.9645L263.591 25.1409L263.591 25.1409L264.059 24.9645ZM263.675 24.4145L263.343 24.7892L263.343 24.7892L263.675 24.4145ZM273.209 24.0167L273.209 24.5167L273.241 24.5167L273.272 24.5128L273.209 24.0167ZM273.937 24.0747L273.796 24.5543L273.937 24.0747ZM266.903 24.0201L266.903 23.5201L266.403 23.5204V24.0201H266.903ZM266.903 29.989H266.403V30.489H266.903V29.989ZM267.353 29.989V30.489H267.853V29.989H267.353ZM267.353 27.201V26.701H266.853V27.201H267.353ZM273.207 27.201V27.701H273.239L273.27 27.697L273.207 27.201ZM274.508 27.9118L274.976 27.7355L274.976 27.7355L274.508 27.9118ZM274.558 28.3947L274.064 28.3147L274.058 28.3545V28.3947H274.558ZM274.558 29.9864H274.058V30.4864H274.558V29.9864ZM275.01 29.9864V30.4864H275.51V29.9864H275.01ZM275.01 28.3947L274.514 28.3258L274.51 28.3601V28.3947H275.01ZM274.863 27.6012L274.423 27.8387L274.423 27.8388L274.863 27.6012ZM274.257 27.0016L274.016 26.5638L273.223 27.0016L274.016 27.4393L274.257 27.0016ZM274.863 26.4019L274.423 26.1644L274.423 26.1644L274.863 26.4019ZM275.01 25.6084L274.516 25.5283L274.504 25.6027L274.514 25.6773L275.01 25.6084ZM274.944 24.9645L274.476 25.1408L274.476 25.141L274.944 24.9645ZM274.56 24.4145L274.891 24.0399L274.891 24.0399L274.56 24.4145ZM274.508 25.1255L274.976 24.9491L274.976 24.9491L274.508 25.1255ZM274.558 25.6084L274.064 25.5284L274.051 25.6084L274.064 25.6883L274.558 25.6084ZM273.207 24.4146V24.9146H273.239L273.27 24.9107L273.207 24.4146ZM267.353 24.4146V23.9146H266.853V24.4146H267.353ZM267.353 26.8022H266.853V27.3022H267.353V26.8022ZM273.205 26.8022L273.269 26.3062L273.237 26.3022H273.205V26.8022ZM273.752 26.7593L273.611 26.2795L273.611 26.2795L273.752 26.7593ZM274.219 26.5045L274.55 26.8794L274.55 26.8793L274.219 26.5045ZM274.508 26.0918L274.041 25.915L274.04 25.9153L274.508 26.0918ZM279.59 29.9856V29.4856H279.558L279.527 29.4895L279.59 29.9856ZM278.861 29.9276L279.002 29.448L279.002 29.448L278.861 29.9276ZM284.091 29.9856L284.154 29.4895L284.123 29.4856H284.091V29.9856ZM284.82 29.9276L284.678 29.448L284.678 29.448L284.82 29.9276ZM285.442 29.5877L285.773 29.9624L285.773 29.9624L285.442 29.5877ZM285.826 29.0378L285.358 28.8613L285.358 28.8615L285.826 29.0378ZM285.892 28.3939H285.392V28.4342L285.398 28.4739L285.892 28.3939ZM285.892 25.6059L285.398 25.5258L285.392 25.5656V25.6059H285.892ZM285.826 24.962L285.358 25.1383L285.358 25.1385L285.826 24.962ZM285.442 24.412L285.773 24.0374L285.773 24.0373L285.442 24.412ZM284.82 24.0721L284.961 23.5925L284.82 24.0721ZM284.091 24.0142V24.5142H284.123L284.154 24.5102L284.091 24.0142ZM279.59 24.0142L279.527 24.5102L279.558 24.5142H279.59V24.0142ZM278.861 24.0721L278.72 23.5925L278.861 24.0721ZM278.239 24.412L277.908 24.0373L277.908 24.0374L278.239 24.412ZM277.855 24.962L278.322 25.1385L278.323 25.1383L277.855 24.962ZM277.789 25.6059H278.289V25.5657L278.283 25.526L277.789 25.6059ZM277.789 28.3939L278.283 28.4737L278.289 28.4341V28.3939H277.789ZM277.855 29.0378L278.323 28.8615L278.322 28.8613L277.855 29.0378ZM278.239 29.5877L277.908 29.9624L277.908 29.9624L278.239 29.5877ZM278.287 28.8768L277.819 29.0531L277.819 29.0531L278.287 28.8768ZM278.237 28.3939L278.731 28.4736L278.737 28.434V28.3939H278.237ZM278.575 29.2892L278.906 28.9146L278.906 28.9145L278.575 29.2892ZM279.041 29.5441L279.183 29.0645V29.0645L279.041 29.5441ZM279.588 29.5877V29.0877H279.556L279.525 29.0916L279.588 29.5877ZM284.089 29.5877L284.152 29.0916L284.121 29.0877H284.089V29.5877ZM284.636 29.5441L284.494 29.0645V29.0645L284.636 29.5441ZM285.102 29.2892L284.771 28.9145L284.771 28.9146L285.102 29.2892ZM285.391 28.8768L285.858 29.0531L285.858 29.0531L285.391 28.8768ZM285.44 28.3939H284.94V28.4341L284.946 28.4739L285.44 28.3939ZM285.44 25.6059L284.946 25.5259L284.94 25.5656V25.6059H285.44ZM285.391 25.123L285.858 24.9466L285.858 24.9466L285.391 25.123ZM285.102 24.7106L285.433 24.336L285.433 24.3359L285.102 24.7106ZM284.089 24.4121V24.9121H284.121L284.152 24.9082L284.089 24.4121ZM279.588 24.4121L279.525 24.9082L279.556 24.9121H279.588V24.4121ZM278.575 24.7106L278.906 25.0852L278.906 25.0852L278.575 24.7106ZM278.287 25.123L277.819 24.9466L277.819 24.9466L278.287 25.123ZM278.237 25.6059H278.737V25.5658L278.731 25.5262L278.237 25.6059ZM296.325 28.3939H295.825V28.4341L295.831 28.4739L296.325 28.3939ZM296.325 24.0167V23.5167H295.825V24.0167H296.325ZM296.276 28.8768L295.808 28.7004L295.808 28.7004L296.276 28.8768ZM295.987 29.2892L295.656 28.9145L295.656 28.9146L295.987 29.2892ZM295.521 29.5441L295.662 30.0237L295.662 30.0237L295.521 29.5441ZM294.974 29.5877L295.037 29.0916L295.006 29.0877H294.974V29.5877ZM290.473 29.5877V29.0877H290.441L290.41 29.0916L290.473 29.5877ZM289.926 29.5441L289.785 30.0237L289.785 30.0237L289.926 29.5441ZM289.46 29.2892L289.791 28.9146L289.791 28.9146L289.46 29.2892ZM289.172 28.8768L288.704 29.0531L288.704 29.0532L289.172 28.8768ZM289.122 28.3939L289.616 28.4739L289.622 28.4341V28.3939H289.122ZM289.122 24.0167H289.622V23.5167H289.122V24.0167ZM288.672 24.0167V23.5167H288.172V24.0167H288.672ZM288.672 28.3939L289.166 28.4737L289.172 28.4341V28.3939H288.672ZM288.738 29.0378L289.206 28.8615L289.206 28.8613L288.738 29.0378ZM289.122 29.5877L288.791 29.9624L288.791 29.9624L289.122 29.5877ZM289.744 29.9276L289.886 29.448L289.886 29.448L289.744 29.9276ZM290.473 29.9856V29.4856H290.441L290.41 29.4895L290.473 29.9856ZM294.974 29.9856L295.037 29.4895L295.006 29.4856H294.974V29.9856ZM295.703 29.9276L295.561 29.448L295.561 29.448L295.703 29.9276ZM296.325 29.5877L296.656 29.9624L296.656 29.9624L296.325 29.5877ZM296.709 29.0378L296.242 28.8613L296.241 28.8615L296.709 29.0378ZM296.775 28.3939H296.275V28.4341L296.281 28.4737L296.775 28.3939ZM296.775 24.0167H297.275V23.5167H296.775V24.0167ZM306.587 24.0747L306.446 24.5543V24.5543L306.587 24.0747ZM305.858 24.0167L305.859 24.5167L305.89 24.5167L305.921 24.5128L305.858 24.0167ZM307.209 24.4145L307.54 24.0399L307.54 24.0399L307.209 24.4145ZM307.593 24.9645L307.126 25.1408L307.126 25.141L307.593 24.9645ZM307.659 25.6084L307.166 25.5286L307.153 25.6084L307.166 25.6883L307.659 25.6084ZM307.593 26.2523L307.126 26.0758L307.126 26.076L307.593 26.2523ZM307.209 26.8023L307.54 27.177L307.54 27.1769L307.209 26.8023ZM306.587 27.1421L306.446 26.6625L306.446 26.6625L306.587 27.1421ZM305.858 27.2001L305.921 26.7041L305.89 26.7001H305.858V27.2001ZM300.006 27.2001V26.7001H299.506V27.2001H300.006ZM300.006 29.9881V30.4881H300.506V29.9881H300.006ZM299.556 29.9881H299.056V30.4881H299.556V29.9881ZM299.556 24.0192L299.556 23.5192L299.056 23.5194V24.0192H299.556ZM307.209 25.6084L306.715 25.5284L306.621 26.1084H307.209V25.6084ZM307.16 25.1255L307.627 24.9491L307.627 24.9491L307.16 25.1255ZM307.21 25.6084L307.703 25.5284L307.635 25.1084H307.21V25.6084ZM307.161 26.0915L307.628 26.2681L307.628 26.2678L307.161 26.0915ZM306.872 26.5041L306.541 26.1294L306.541 26.1294L306.872 26.5041ZM306.405 26.7589L306.264 26.2792L306.264 26.2793L306.405 26.7589ZM305.858 26.8022L305.921 26.3062L305.89 26.3022H305.858V26.8022ZM300.006 26.8022H299.506V27.3022H300.006V26.8022ZM300.006 24.4146V23.9146H299.506V24.4146H300.006ZM305.858 24.4146V24.9146H305.89L305.921 24.9107L305.858 24.4146ZM306.405 24.4582L306.263 24.9378V24.9378L306.405 24.4582ZM311.301 29.9276L311.443 29.448L311.443 29.448L311.301 29.9276ZM312.03 29.9856V29.4856H311.998L311.967 29.4895L312.03 29.9856ZM310.679 29.5877L310.348 29.9624L310.348 29.9624L310.679 29.5877ZM310.295 29.0378L310.763 28.8615L310.762 28.8613L310.295 29.0378ZM310.229 28.3939V27.8939H309.803L309.735 28.314L310.229 28.3939ZM310.679 28.3939L311.173 28.4739L311.267 27.8939H310.679V28.3939ZM310.728 28.8768L310.261 29.0531L310.261 29.0532L310.728 28.8768ZM311.017 29.2892L311.348 28.9146L311.348 28.9145L311.017 29.2892ZM311.483 29.5441L311.625 29.0645L311.625 29.0645L311.483 29.5441ZM312.03 29.5877V29.0877H311.998L311.967 29.0916L312.03 29.5877ZM316.531 29.5877L316.594 29.0916L316.563 29.0877H316.531V29.5877ZM317.078 29.5441L316.936 29.0645L316.936 29.0645L317.078 29.5441ZM317.544 29.2892L317.213 28.9145L317.213 28.9146L317.544 29.2892ZM317.832 28.8768L318.3 29.0532L318.3 29.0531L317.832 28.8768ZM317.882 28.3939L317.388 28.3142L317.375 28.3939L317.388 28.4736L317.882 28.3939ZM317.832 27.911L318.3 27.7346L318.3 27.7346L317.832 27.911ZM317.544 27.4986L317.875 27.124L317.875 27.1239L317.544 27.4986ZM316.531 27.2001V27.7001H316.563L316.594 27.6962L316.531 27.2001ZM312.03 27.2001V26.7001H311.998L311.967 26.7041L312.03 27.2001ZM311.301 27.1421L311.443 26.6625L311.443 26.6625L311.301 27.1421ZM310.679 26.8023L310.348 27.1769L310.348 27.177L310.679 26.8023ZM310.295 26.2523L310.763 26.076L310.762 26.0758L310.295 26.2523ZM310.229 25.6084L310.723 25.6883L310.736 25.6084L310.723 25.5286L310.229 25.6084ZM310.295 24.9645L310.762 25.141L310.763 25.1408L310.295 24.9645ZM310.679 24.4145L310.348 24.0398L310.348 24.0399L310.679 24.4145ZM311.301 24.0747L311.16 23.595V23.595L311.301 24.0747ZM312.03 24.0167L311.967 24.5128L311.998 24.5167H312.03V24.0167ZM316.531 24.0167V24.5167H316.563L316.594 24.5128L316.531 24.0167ZM317.259 24.075L317.401 23.5954L317.401 23.5954L317.259 24.075ZM317.881 24.4149L318.213 24.0405L318.212 24.0404L317.881 24.4149ZM318.265 24.9648L318.733 24.7886L318.733 24.7884L318.265 24.9648ZM318.331 25.6084V26.1084H318.756L318.824 25.6883L318.331 25.6084ZM317.881 25.6084L317.387 25.5284L317.293 26.1084H317.881V25.6084ZM317.832 25.1255L318.299 24.9491L318.299 24.9491L317.832 25.1255ZM317.543 24.7131L317.874 24.3385L317.874 24.3385L317.543 24.7131ZM317.077 24.4582L317.218 23.9786L317.218 23.9786L317.077 24.4582ZM316.53 24.4146V24.9146H316.562L316.593 24.9107L316.53 24.4146ZM312.029 24.4146L311.966 24.9107L311.997 24.9146H312.029V24.4146ZM311.482 24.4582L311.341 23.9786L311.341 23.9786L311.482 24.4582ZM311.016 24.7131L311.347 25.0877L311.347 25.0877L311.016 24.7131ZM310.728 25.1255L311.195 25.3019V25.3019L310.728 25.1255ZM310.678 25.6084L311.172 25.6884L311.185 25.6084L311.172 25.5284L310.678 25.6084ZM310.728 26.0913L311.195 25.9149L311.195 25.9149L310.728 26.0913ZM311.016 26.5037L311.347 26.1291L311.347 26.1291L311.016 26.5037ZM312.029 26.8022V26.3022H311.997L311.966 26.3061L312.029 26.8022ZM316.53 26.8022V27.3022H316.562L316.593 27.2982L316.53 26.8022ZM317.259 26.8601L317.4 26.3805L317.4 26.3805L317.259 26.8601ZM317.881 27.2L318.212 26.8254L318.212 26.8253L317.881 27.2ZM318.265 27.75L317.797 27.9263L317.798 27.9265L318.265 27.75ZM318.331 28.3939L317.837 28.3138L317.824 28.3939L317.837 28.4739L318.331 28.3939ZM318.265 29.0378L317.798 28.8613L317.797 28.8615L318.265 29.0378ZM317.881 29.5877L318.212 29.9624L318.212 29.9624L317.881 29.5877ZM317.259 29.9276L317.117 29.448L317.117 29.448L317.259 29.9276ZM316.53 29.9856L316.593 29.4895L316.562 29.4856H316.53V29.9856ZM321.563 27.1976V26.6976H321.063V27.1976H321.563ZM321.563 29.9856V30.4856H322.063V29.9856H321.563ZM328.768 27.1976H329.268V26.6976H328.768V27.1976ZM328.768 29.9856H328.268V30.4856H328.768V29.9856ZM329.218 29.9856V30.4856H329.718V29.9856H329.218ZM329.218 24.0167H329.718V23.5167H329.218V24.0167ZM328.768 24.0167V23.5167H328.268V24.0167H328.768ZM328.768 26.8047V27.3047H329.268V26.8047H328.768ZM321.563 26.8047H321.063V27.3047H321.563V26.8047ZM321.563 24.0167H322.063V23.5167H321.563V24.0167ZM321.113 24.0167V23.5167H320.613V24.0167H321.113ZM321.113 29.9856H320.613V30.4856H321.113V29.9856ZM333.069 29.927L332.927 30.4065L332.927 30.4065L333.069 29.927ZM333.797 29.9856V29.4856H333.766L333.735 29.4895L333.797 29.9856ZM332.448 29.587L332.779 29.2126L332.779 29.2125L332.448 29.587ZM332.064 29.0373L331.596 29.2135V29.2135L332.064 29.0373ZM331.998 28.3939L332.492 28.4738L332.498 28.4341V28.3939H331.998ZM331.998 25.6059H332.498V25.5656L332.492 25.5258L331.998 25.6059ZM332.064 24.962L332.532 25.1385L332.532 25.1383L332.064 24.962ZM332.448 24.412L332.117 24.0373L332.117 24.0374L332.448 24.412ZM333.07 24.0721L332.929 23.5925L333.07 24.0721ZM333.799 24.0142L333.736 24.5102L333.767 24.5142H333.799V24.0142ZM338.306 24.0142V24.5142H338.338L338.369 24.5102L338.306 24.0142ZM339.035 24.0721L339.176 23.5925L339.176 23.5925L339.035 24.0721ZM339.657 24.412L339.988 24.0374L339.988 24.0373L339.657 24.412ZM340.041 24.962L339.573 25.1383L339.573 25.1385L340.041 24.962ZM340.107 25.6059L339.613 25.526L339.607 25.5657V25.6059H340.107ZM340.107 28.3939H339.607V28.4341L339.613 28.4737L340.107 28.3939ZM340.041 29.0378L339.573 28.8613L339.573 28.8615L340.041 29.0378ZM339.657 29.5877L339.988 29.9624L339.988 29.9624L339.657 29.5877ZM339.035 29.9276L338.893 29.448L338.893 29.448L339.035 29.9276ZM338.306 29.9856L338.369 29.4895L338.338 29.4856H338.306V29.9856ZM332.446 28.3939L332.94 28.4739L332.946 28.4348L332.946 28.3952L332.446 28.3939ZM332.496 28.8768L332.028 29.0531V29.0531L332.496 28.8768ZM332.454 25.6084L332.954 25.6098L332.954 25.569L332.948 25.5287L332.454 25.6084ZM332.503 25.1255L332.035 24.9491L332.035 24.9491L332.503 25.1255ZM333.258 24.4582L333.4 24.9378L333.4 24.9378L333.258 24.4582ZM333.804 24.4146L333.742 24.9107L333.773 24.9146H333.804V24.4146ZM338.306 24.4146V24.9146H338.337L338.369 24.9107L338.306 24.4146ZM338.852 24.4581L338.993 23.9785L338.993 23.9785L338.852 24.4581ZM339.318 24.7124L338.987 25.0873L338.987 25.0873L339.318 24.7124ZM339.606 25.1238L339.139 25.301L339.139 25.3013L339.606 25.1238ZM339.657 25.6059L339.163 25.5278L339.157 25.5666V25.6059H339.657ZM339.657 28.3939H339.157V28.434L339.163 28.4736L339.657 28.3939ZM339.607 28.8768L339.139 28.7003V28.7004L339.607 28.8768ZM339.319 29.2892L338.988 28.9145L338.988 28.9146L339.319 29.2892ZM338.852 29.5441L338.711 29.0645L338.711 29.0645L338.852 29.5441ZM338.306 29.5877L338.369 29.0916L338.337 29.0877H338.306V29.5877ZM333.797 29.5877V29.0877H333.766L333.734 29.0916L333.797 29.5877ZM333.251 29.5441L333.109 30.0237L333.109 30.0237L333.251 29.5441ZM332.784 29.2892L333.115 28.9146L333.115 28.9145L332.784 29.2892ZM349.912 24.0747L350.053 23.595L350.053 23.595L349.912 24.0747ZM349.184 24.0167L349.184 24.5167L349.215 24.5167L349.246 24.5128L349.184 24.0167ZM350.534 24.4145L350.203 24.7892L350.203 24.7893L350.534 24.4145ZM350.918 24.9645L350.45 25.1395L350.451 25.1414L350.918 24.9645ZM350.984 25.6084L350.49 25.5298L350.478 25.6084L350.49 25.687L350.984 25.6084ZM350.918 26.2523L350.451 26.0754L350.45 26.0773L350.918 26.2523ZM350.534 26.8023L350.203 26.4275L350.203 26.4276L350.534 26.8023ZM349.912 27.1421L349.771 26.6625L349.771 26.6625L349.912 27.1421ZM349.184 27.2001L349.246 26.7041L349.215 26.7001H349.184V27.2001ZM343.333 27.2001V26.7001H342.833V27.2001H343.333ZM343.333 29.9881V30.4881H343.833V29.9881H343.333ZM342.883 29.9881H342.383V30.4881H342.883V29.9881ZM342.883 24.0192L342.883 23.5192L342.383 23.5194V24.0192H342.883ZM350.534 25.6084L350.04 25.5298L349.948 26.1084H350.534V25.6084ZM350.485 25.1255L350.017 25.3019L350.017 25.3029L350.485 25.1255ZM350.54 25.6084L351.034 25.53L350.967 25.1084H350.54V25.6084ZM350.49 26.0923L350.023 25.9149L350.023 25.9154L350.49 26.0923ZM350.201 26.5053L349.87 26.1301V26.1301L350.201 26.5053ZM349.733 26.7599L349.873 27.2398L349.873 27.2398L349.733 26.7599ZM349.185 26.8022L349.25 26.3063L349.218 26.3022H349.185V26.8022ZM343.333 26.8022H342.833V27.3022H343.333V26.8022ZM343.333 24.4146V23.9146H342.833V24.4146H343.333ZM349.184 24.4146V24.9146H349.215L349.246 24.9107L349.184 24.4146ZM349.73 24.4582L349.871 23.9786L349.871 23.9786L349.73 24.4582ZM350.196 24.7131L349.865 25.0877L349.865 25.0877L350.196 24.7131ZM262.387 24.5128C262.564 24.4904 262.743 24.5049 262.911 24.5543L263.194 23.595C262.893 23.5063 262.574 23.4812 262.261 23.5207L262.387 24.5128ZM257.816 24.5142L262.324 24.5167L262.324 23.5167L257.817 23.5142L257.816 24.5142ZM257.23 24.5518C257.397 24.5024 257.577 24.4879 257.754 24.5102L257.879 23.5181C257.567 23.4786 257.248 23.5038 256.947 23.5925L257.23 24.5518ZM256.797 24.7866C256.915 24.683 257.062 24.6011 257.23 24.5518L256.947 23.5925C256.646 23.6812 256.367 23.8321 256.135 24.0374L256.797 24.7866ZM256.55 25.1384C256.597 25.0114 256.68 24.8901 256.797 24.7866L256.135 24.0374C255.903 24.2428 255.722 24.4981 255.614 24.7856L256.55 25.1384ZM256.51 25.526C256.489 25.397 256.502 25.2648 256.55 25.1383L255.614 24.7856C255.505 25.0736 255.473 25.3823 255.523 25.6857L256.51 25.526ZM256.516 28.3939V25.6059H255.516V28.3939H256.516ZM256.55 28.8618C256.502 28.7352 256.489 28.603 256.51 28.4739L255.523 28.3139C255.473 28.6175 255.505 28.9265 255.614 29.2147L256.55 28.8618ZM256.798 29.2137C256.68 29.1102 256.597 28.9888 256.55 28.8618L255.614 29.2147C255.722 29.5025 255.903 29.7578 256.136 29.9633L256.798 29.2137ZM257.23 29.4485C257.063 29.3992 256.915 29.3174 256.798 29.2137L256.136 29.9633C256.368 30.1686 256.647 30.3194 256.949 30.408L257.23 29.4485ZM257.755 29.4896C257.578 29.5122 257.398 29.4978 257.23 29.4485L256.949 30.408C257.25 30.4965 257.569 30.5214 257.882 30.4816L257.755 29.4896ZM262.324 29.4856H257.819V30.4856H262.324V29.4856ZM262.908 29.447C262.741 29.4964 262.562 29.5113 262.386 29.4894L262.263 30.4818C262.574 30.5204 262.892 30.4947 263.192 30.4058L262.908 29.447ZM263.339 29.2124C263.222 29.3158 263.076 29.3975 262.908 29.447L263.192 30.4058C263.493 30.3169 263.77 30.1662 264.002 29.9615L263.339 29.2124ZM263.587 28.8617C263.539 28.9882 263.456 29.1092 263.339 29.2124L264.002 29.9615C264.234 29.7565 264.414 29.502 264.522 29.2154L263.587 28.8617ZM263.627 28.4751C263.648 28.6038 263.634 28.7356 263.587 28.8617L264.522 29.2154C264.631 28.9283 264.663 28.6205 264.615 28.3178L263.627 28.4751ZM263.621 26.8047V28.3964H264.621V26.8047H263.621ZM259.619 27.3047H264.121V26.3047H259.619V27.3047ZM260.119 27.2026V26.8047H259.119V27.2026H260.119ZM263.674 26.7026H259.619V27.7026H263.674V26.7026ZM264.174 28.3964V27.2026H263.174V28.3964H264.174ZM264.093 29.0557C264.182 28.8196 264.208 28.566 264.168 28.3167L263.181 28.4761C263.193 28.5511 263.186 28.6282 263.157 28.7028L264.093 29.0557ZM263.668 29.6663C263.857 29.4995 264.004 29.2914 264.093 29.0557L263.157 28.7028C263.129 28.778 263.079 28.8523 263.006 28.9171L263.668 29.6663ZM263.012 30.0262C263.254 29.9548 263.48 29.833 263.668 29.6663L263.006 28.9171C262.932 28.9821 262.838 29.0349 262.729 29.067L263.012 30.0262ZM262.261 30.0863C262.513 30.118 262.769 30.0977 263.012 30.0262L262.729 29.067C262.62 29.0992 262.502 29.1087 262.387 29.0941L262.261 30.0863ZM257.819 30.0902H262.324V29.0902H257.819V30.0902ZM257.131 30.0262C257.374 30.0977 257.63 30.118 257.881 30.0863L257.756 29.0941C257.64 29.1087 257.523 29.0992 257.414 29.067L257.131 30.0262ZM256.475 29.6663C256.663 29.8329 256.888 29.9548 257.131 30.0262L257.414 29.067C257.305 29.0349 257.211 28.9821 257.137 28.9171L256.475 29.6663ZM256.05 29.0557C256.138 29.2914 256.286 29.4995 256.475 29.6663L257.137 28.9171C257.064 28.8523 257.014 28.778 256.985 28.7028L256.05 29.0557ZM255.975 28.3167C255.934 28.566 255.961 28.8196 256.05 29.0557L256.985 28.7028C256.957 28.6282 256.95 28.5511 256.962 28.4762L255.975 28.3167ZM255.968 25.6084V28.3964H256.968V25.6084H255.968ZM256.05 24.9491C255.961 25.1852 255.934 25.4388 255.975 25.6881L256.962 25.5287C256.95 25.4537 256.957 25.3766 256.985 25.302L256.05 24.9491ZM256.475 24.3385C256.286 24.5053 256.138 24.7134 256.05 24.9491L256.985 25.302C257.014 25.2268 257.064 25.1526 257.137 25.0877L256.475 24.3385ZM257.131 23.9786C256.888 24.0501 256.663 24.1719 256.475 24.3385L257.137 25.0877C257.211 25.0227 257.305 24.9699 257.414 24.9378L257.131 23.9786ZM257.881 23.9186C257.63 23.8869 257.374 23.9071 257.131 23.9786L257.414 24.9378C257.523 24.9057 257.64 24.8961 257.756 24.9107L257.881 23.9186ZM262.324 23.9146H257.819V24.9146H262.324V23.9146ZM263.011 23.9798C262.769 23.908 262.513 23.8873 262.263 23.9184L262.386 24.9108C262.501 24.8965 262.618 24.9063 262.727 24.9385L263.011 23.9798ZM263.666 24.34C263.478 24.1734 263.254 24.0515 263.011 23.9798L262.727 24.9385C262.836 24.9708 262.93 25.0235 263.003 25.0885L263.666 24.34ZM264.09 24.95C264.002 24.7147 263.855 24.5068 263.666 24.34L263.003 25.0885C263.076 25.1533 263.126 25.2275 263.155 25.3025L264.09 24.95ZM264.165 25.6879C264.205 25.439 264.179 25.1858 264.09 24.95L263.155 25.3025C263.183 25.3771 263.19 25.454 263.178 25.5289L264.165 25.6879ZM264.125 25.1084H263.672V26.1084H264.125V25.1084ZM263.591 25.1409C263.639 25.2673 263.652 25.3995 263.631 25.5285L264.618 25.6883C264.667 25.3849 264.636 25.0761 264.527 24.7881L263.591 25.1409ZM263.343 24.7892C263.46 24.8926 263.543 25.014 263.591 25.1409L264.527 24.7881C264.419 24.5006 264.238 24.2454 264.006 24.0399L263.343 24.7892ZM262.911 24.5543C263.079 24.6037 263.226 24.6855 263.343 24.7892L264.006 24.0399C263.774 23.8347 263.495 23.6838 263.194 23.595L262.911 24.5543ZM273.272 24.5128C273.449 24.4904 273.629 24.5049 273.796 24.5543L274.079 23.595C273.778 23.5063 273.459 23.4812 273.146 23.5207L273.272 24.5128ZM266.903 24.5201L273.209 24.5167L273.209 23.5167L266.903 23.5201L266.903 24.5201ZM267.403 29.989V24.0201H266.403V29.989H267.403ZM267.353 29.489H266.903V30.489H267.353V29.489ZM266.853 27.201V29.989H267.853V27.201H266.853ZM273.207 26.701H267.353V27.701H273.207V26.701ZM273.895 26.7649C273.652 26.6934 273.396 26.6732 273.144 26.7049L273.27 27.697C273.385 27.6824 273.503 27.692 273.612 27.7241L273.895 26.7649ZM274.551 27.1248C274.363 26.9581 274.137 26.8364 273.895 26.7649L273.612 27.7241C273.721 27.7563 273.815 27.809 273.889 27.874L274.551 27.1248ZM274.976 27.7355C274.887 27.4997 274.74 27.2916 274.551 27.1248L273.889 27.874C273.962 27.9389 274.012 28.0132 274.04 28.0882L274.976 27.7355ZM275.051 28.4747C275.092 28.2251 275.065 27.9715 274.976 27.7355L274.04 28.0882C274.069 28.163 274.076 28.24 274.064 28.3147L275.051 28.4747ZM275.058 29.9864V28.3947H274.058V29.9864H275.058ZM275.01 29.4864H274.558V30.4864H275.01V29.4864ZM274.51 28.3947V29.9864H275.51V28.3947H274.51ZM274.423 27.8388C274.507 27.9944 274.537 28.1626 274.514 28.3258L275.505 28.4636C275.558 28.084 275.486 27.7016 275.303 27.3637L274.423 27.8388ZM274.016 27.4393C274.2 27.5411 274.339 27.6822 274.423 27.8387L275.303 27.3637C275.121 27.0267 274.839 26.7516 274.499 26.5638L274.016 27.4393ZM274.423 26.1644C274.339 26.3209 274.2 26.462 274.016 26.5638L274.499 27.4393C274.839 27.2515 275.121 26.9765 275.303 26.6394L274.423 26.1644ZM274.514 25.6773C274.537 25.8405 274.507 26.0087 274.423 26.1644L275.303 26.6394C275.486 26.3015 275.558 25.9191 275.505 25.5395L274.514 25.6773ZM274.476 25.141C274.524 25.2674 274.537 25.3995 274.516 25.5283L275.503 25.6885C275.552 25.3849 275.521 25.0761 275.412 24.788L274.476 25.141ZM274.229 24.7892C274.346 24.8926 274.428 25.0139 274.476 25.1408L275.412 24.7882C275.304 24.5007 275.123 24.2454 274.891 24.0399L274.229 24.7892ZM273.796 24.5543C273.964 24.6037 274.111 24.6855 274.229 24.7892L274.891 24.0399C274.659 23.8347 274.38 23.6838 274.079 23.595L273.796 24.5543ZM274.04 25.3019C274.069 25.3767 274.076 25.4537 274.064 25.5284L275.051 25.6884C275.092 25.4388 275.065 25.1852 274.976 24.9491L274.04 25.3019ZM273.889 25.0877C273.962 25.1526 274.012 25.2268 274.04 25.3019L274.976 24.9491C274.887 24.7134 274.74 24.5053 274.551 24.3385L273.889 25.0877ZM273.612 24.9378C273.721 24.97 273.815 25.0227 273.889 25.0877L274.551 24.3385C274.363 24.1718 274.137 24.0501 273.895 23.9786L273.612 24.9378ZM273.27 24.9107C273.385 24.8961 273.503 24.9057 273.612 24.9378L273.895 23.9786C273.652 23.9071 273.396 23.8869 273.144 23.9186L273.27 24.9107ZM267.353 24.9146H273.207V23.9146H267.353V24.9146ZM267.853 26.8022V24.4146H266.853V26.8022H267.853ZM273.205 26.3022H267.353V27.3022H273.205V26.3022ZM273.611 26.2795C273.502 26.3115 273.384 26.321 273.269 26.3062L273.142 27.2982C273.393 27.3303 273.65 27.3103 273.893 27.239L273.611 26.2795ZM273.889 26.1296C273.815 26.1947 273.72 26.2474 273.611 26.2795L273.893 27.239C274.136 27.1677 274.361 27.046 274.55 26.8794L273.889 26.1296ZM274.04 25.9153C274.012 25.9904 273.962 26.0648 273.888 26.1297L274.55 26.8793C274.739 26.7125 274.887 26.5042 274.976 26.2683L274.04 25.9153ZM274.064 25.6883C274.076 25.7635 274.069 25.8405 274.041 25.915L274.976 26.2685C275.065 26.0319 275.092 25.778 275.051 25.5285L274.064 25.6883ZM279.527 29.4895C279.35 29.5119 279.17 29.4974 279.002 29.448L278.72 30.4072C279.021 30.4959 279.34 30.5211 279.652 30.4816L279.527 29.4895ZM284.091 29.4856H279.59V30.4856H284.091V29.4856ZM284.678 29.448C284.511 29.4974 284.331 29.5119 284.154 29.4895L284.028 30.4816C284.341 30.5211 284.66 30.496 284.961 30.4072L284.678 29.448ZM285.111 29.213C284.993 29.3168 284.846 29.3986 284.678 29.448L284.961 30.4072C285.262 30.3185 285.541 30.1676 285.773 29.9624L285.111 29.213ZM285.358 28.8615C285.311 28.9884 285.228 29.1097 285.111 29.2131L285.773 29.9624C286.005 29.7569 286.186 29.5016 286.294 29.2141L285.358 28.8615ZM285.398 28.4739C285.419 28.6028 285.406 28.7349 285.358 28.8613L286.294 29.2143C286.403 28.9262 286.435 28.6174 286.385 28.3138L285.398 28.4739ZM285.392 25.6059V28.3939H286.392V25.6059H285.392ZM285.358 25.1385C285.406 25.2649 285.419 25.3969 285.398 25.5258L286.385 25.6859C286.435 25.3824 286.403 25.0735 286.294 24.7855L285.358 25.1385ZM285.111 24.7866C285.228 24.89 285.311 25.0114 285.358 25.1383L286.294 24.7857C286.186 24.4981 286.005 24.2429 285.773 24.0374L285.111 24.7866ZM284.678 24.5518C284.846 24.6011 284.993 24.6829 285.111 24.7867L285.773 24.0373C285.541 23.8322 285.262 23.6812 284.961 23.5925L284.678 24.5518ZM284.154 24.5102C284.331 24.4879 284.511 24.5024 284.678 24.5518L284.961 23.5925C284.66 23.5038 284.341 23.4786 284.028 23.5181L284.154 24.5102ZM279.59 24.5142H284.091V23.5142H279.59V24.5142ZM279.002 24.5518C279.17 24.5024 279.35 24.4879 279.527 24.5102L279.652 23.5181C279.34 23.4786 279.021 23.5038 278.72 23.5925L279.002 24.5518ZM278.57 24.7867C278.688 24.6829 278.835 24.6011 279.002 24.5518L278.72 23.5925C278.419 23.6812 278.14 23.8322 277.908 24.0373L278.57 24.7867ZM278.323 25.1383C278.37 25.0114 278.453 24.89 278.57 24.7866L277.908 24.0374C277.675 24.2429 277.495 24.4981 277.387 24.7857L278.323 25.1383ZM278.283 25.526C278.262 25.397 278.275 25.2649 278.322 25.1385L277.387 24.7855C277.278 25.0735 277.246 25.3823 277.295 25.6857L278.283 25.526ZM278.289 28.3939V25.6059H277.289V28.3939H278.289ZM278.322 28.8613C278.275 28.7349 278.262 28.6028 278.283 28.4737L277.295 28.314C277.246 28.6174 277.278 28.9262 277.387 29.2143L278.322 28.8613ZM278.57 29.2131C278.453 29.1097 278.37 28.9884 278.323 28.8615L277.387 29.2141C277.495 29.5016 277.675 29.7569 277.908 29.9624L278.57 29.2131ZM279.002 29.448C278.835 29.3986 278.688 29.3168 278.57 29.213L277.908 29.9624C278.14 30.1676 278.419 30.3185 278.72 30.4072L279.002 29.448ZM278.754 28.7004C278.726 28.6256 278.719 28.5485 278.731 28.4736L277.744 28.3142C277.703 28.5636 277.73 28.8171 277.819 29.0531L278.754 28.7004ZM278.906 28.9145C278.833 28.8497 278.783 28.7755 278.754 28.7004L277.819 29.0531C277.908 29.2888 278.055 29.497 278.244 29.6638L278.906 28.9145ZM279.183 29.0645C279.074 29.0323 278.98 28.9796 278.906 28.9146L278.244 29.6638C278.432 29.8304 278.658 29.9522 278.9 30.0237L279.183 29.0645ZM279.525 29.0916C279.409 29.1062 279.292 29.0966 279.183 29.0645L278.9 30.0237C279.143 30.0952 279.399 30.1154 279.65 30.0837L279.525 29.0916ZM284.089 29.0877H279.588V30.0877H284.089V29.0877ZM284.494 29.0645C284.385 29.0966 284.268 29.1062 284.152 29.0916L284.027 30.0837C284.278 30.1154 284.534 30.0952 284.777 30.0237L284.494 29.0645ZM284.771 28.9146C284.697 28.9796 284.603 29.0323 284.494 29.0645L284.777 30.0237C285.019 29.9522 285.245 29.8304 285.433 29.6638L284.771 28.9146ZM284.923 28.7004C284.894 28.7755 284.844 28.8497 284.771 28.9145L285.433 29.6638C285.622 29.497 285.769 29.2888 285.858 29.0531L284.923 28.7004ZM284.946 28.4739C284.958 28.5486 284.951 28.6256 284.923 28.7004L285.858 29.0531C285.947 28.8171 285.974 28.5635 285.933 28.3139L284.946 28.4739ZM284.94 25.6059V28.3939H285.94V25.6059H284.94ZM284.923 25.2994C284.951 25.3742 284.958 25.4512 284.946 25.5259L285.933 25.6859C285.974 25.4363 285.947 25.1826 285.858 24.9466L284.923 25.2994ZM284.771 25.0852C284.844 25.15 284.894 25.2243 284.923 25.2994L285.858 24.9466C285.769 24.7109 285.622 24.5028 285.433 24.336L284.771 25.0852ZM284.494 24.9353C284.603 24.9674 284.697 25.0202 284.771 25.0852L285.433 24.3359C285.245 24.1693 285.019 24.0475 284.777 23.9761L284.494 24.9353ZM284.152 24.9082C284.268 24.8936 284.385 24.9031 284.494 24.9353L284.777 23.9761C284.534 23.9046 284.278 23.8843 284.027 23.916L284.152 24.9082ZM279.588 24.9121H284.089V23.9121H279.588V24.9121ZM279.183 24.9353C279.292 24.9031 279.409 24.8936 279.525 24.9082L279.65 23.916C279.399 23.8843 279.143 23.9046 278.9 23.9761L279.183 24.9353ZM278.906 25.0852C278.98 25.0202 279.074 24.9674 279.183 24.9353L278.9 23.9761C278.658 24.0475 278.432 24.1693 278.244 24.336L278.906 25.0852ZM278.754 25.2994C278.783 25.2243 278.833 25.15 278.906 25.0852L278.244 24.3359C278.055 24.5028 277.908 24.7109 277.819 24.9466L278.754 25.2994ZM278.731 25.5262C278.719 25.4513 278.726 25.3742 278.754 25.2994L277.819 24.9466C277.73 25.1826 277.703 25.4362 277.744 25.6856L278.731 25.5262ZM278.737 28.3939V25.6059H277.737V28.3939H278.737ZM296.825 28.3939V24.0167H295.825V28.3939H296.825ZM296.743 29.0532C296.832 28.8171 296.859 28.5635 296.818 28.3139L295.831 28.4739C295.843 28.5486 295.836 28.6256 295.808 28.7004L296.743 29.0532ZM296.318 29.6638C296.507 29.497 296.655 29.2888 296.743 29.0531L295.808 28.7004C295.779 28.7755 295.729 28.8497 295.656 28.9145L296.318 29.6638ZM295.662 30.0237C295.904 29.9522 296.13 29.8304 296.318 29.6638L295.656 28.9146C295.582 28.9796 295.488 29.0323 295.379 29.0645L295.662 30.0237ZM294.912 30.0837C295.163 30.1154 295.419 30.0952 295.662 30.0237L295.379 29.0645C295.27 29.0966 295.153 29.1062 295.037 29.0916L294.912 30.0837ZM290.473 30.0877H294.974V29.0877H290.473V30.0877ZM289.785 30.0237C290.028 30.0952 290.284 30.1154 290.535 30.0837L290.41 29.0916C290.294 29.1062 290.177 29.0966 290.068 29.0645L289.785 30.0237ZM289.129 29.6638C289.317 29.8304 289.543 29.9522 289.785 30.0237L290.068 29.0645C289.959 29.0323 289.865 28.9796 289.791 28.9146L289.129 29.6638ZM288.704 29.0532C288.793 29.2888 288.94 29.497 289.129 29.6638L289.791 28.9146C289.718 28.8497 289.668 28.7755 289.639 28.7004L288.704 29.0532ZM288.629 28.3139C288.588 28.5635 288.615 28.8171 288.704 29.0531L289.639 28.7004C289.611 28.6256 289.604 28.5486 289.616 28.4739L288.629 28.3139ZM288.622 24.0167V28.3939H289.622V24.0167H288.622ZM288.672 24.5167H289.122V23.5167H288.672V24.5167ZM289.172 28.3939V24.0167H288.172V28.3939H289.172ZM289.206 28.8613C289.158 28.7349 289.145 28.6028 289.166 28.4737L288.178 28.314C288.129 28.6174 288.161 28.9262 288.27 29.2143L289.206 28.8613ZM289.453 29.2131C289.336 29.1097 289.253 28.9884 289.206 28.8615L288.27 29.2141C288.378 29.5016 288.559 29.7569 288.791 29.9624L289.453 29.2131ZM289.886 29.448C289.718 29.3986 289.571 29.3168 289.453 29.213L288.791 29.9624C289.023 30.1676 289.302 30.3185 289.603 30.4072L289.886 29.448ZM290.41 29.4895C290.233 29.5119 290.053 29.4974 289.886 29.448L289.603 30.4072C289.904 30.4959 290.223 30.5211 290.535 30.4816L290.41 29.4895ZM294.974 29.4856H290.473V30.4856H294.974V29.4856ZM295.561 29.448C295.394 29.4974 295.214 29.5119 295.037 29.4895L294.912 30.4816C295.224 30.5211 295.543 30.4959 295.844 30.4072L295.561 29.448ZM295.994 29.213C295.876 29.3168 295.729 29.3986 295.561 29.448L295.844 30.4072C296.145 30.3185 296.424 30.1676 296.656 29.9624L295.994 29.213ZM296.241 28.8615C296.194 28.9884 296.111 29.1097 295.994 29.2131L296.656 29.9624C296.889 29.7569 297.069 29.5016 297.177 29.2141L296.241 28.8615ZM296.281 28.4737C296.302 28.6028 296.289 28.7349 296.242 28.8613L297.177 29.2143C297.286 28.9262 297.318 28.6174 297.269 28.314L296.281 28.4737ZM296.275 24.0167V28.3939H297.275V24.0167H296.275ZM296.325 24.5167H296.775V23.5167H296.325V24.5167ZM306.728 23.595C306.427 23.5063 306.108 23.4812 305.796 23.5207L305.921 24.5128C306.098 24.4904 306.278 24.5049 306.446 24.5543L306.728 23.595ZM307.54 24.0399C307.308 23.8347 307.029 23.6838 306.728 23.595L306.446 24.5543C306.613 24.6037 306.761 24.6855 306.878 24.7892L307.54 24.0399ZM308.061 24.7882C307.953 24.5007 307.773 24.2454 307.54 24.0399L306.878 24.7892C306.995 24.8926 307.078 25.0139 307.126 25.1408L308.061 24.7882ZM308.153 25.6883C308.202 25.3848 308.17 25.0761 308.061 24.788L307.126 25.141C307.173 25.2674 307.186 25.3995 307.166 25.5286L308.153 25.6883ZM308.061 26.4288C308.17 26.1408 308.202 25.832 308.153 25.5286L307.166 25.6883C307.186 25.8173 307.173 25.9494 307.126 26.0758L308.061 26.4288ZM307.54 27.1769C307.773 26.9714 307.953 26.7161 308.061 26.4286L307.126 26.076C307.078 26.2029 306.995 26.3242 306.878 26.4277L307.54 27.1769ZM306.728 27.6218C307.029 27.533 307.308 27.3821 307.54 27.177L306.878 26.4276C306.761 26.5313 306.613 26.6131 306.446 26.6625L306.728 27.6218ZM305.796 27.6962C306.108 27.7357 306.427 27.7105 306.728 27.6218L306.446 26.6625C306.278 26.7119 306.098 26.7264 305.921 26.7041L305.796 27.6962ZM300.006 27.7001H305.858V26.7001H300.006V27.7001ZM300.506 29.9881V27.2001H299.506V29.9881H300.506ZM299.556 30.4881H300.006V29.4881H299.556V30.4881ZM299.056 24.0192V29.9881H300.056V24.0192H299.056ZM305.858 23.5167L299.556 23.5192L299.556 24.5192L305.859 24.5167L305.858 23.5167ZM307.702 25.6884C307.743 25.4388 307.716 25.1852 307.627 24.9491L306.692 25.3019C306.72 25.3767 306.727 25.4537 306.715 25.5284L307.702 25.6884ZM307.21 25.1084H307.209V26.1084H307.21V25.1084ZM307.628 26.2678C307.717 26.0318 307.744 25.7781 307.703 25.5284L306.716 25.6884C306.728 25.7632 306.721 25.8403 306.693 25.9152L307.628 26.2678ZM307.203 26.8788C307.392 26.712 307.539 26.5038 307.628 26.2681L306.693 25.915C306.664 25.9902 306.614 26.0645 306.541 26.1294L307.203 26.8788ZM306.546 27.2386C306.789 27.1672 307.014 27.0455 307.203 26.8788L306.541 26.1294C306.467 26.1944 306.373 26.2471 306.264 26.2792L306.546 27.2386ZM305.795 27.2982C306.047 27.3301 306.303 27.31 306.546 27.2386L306.264 26.2793C306.155 26.3113 306.037 26.3209 305.921 26.3062L305.795 27.2982ZM300.006 27.3022H305.858V26.3022H300.006V27.3022ZM299.506 24.4146V26.8022H300.506V24.4146H299.506ZM305.858 23.9146H300.006V24.9146H305.858V23.9146ZM306.546 23.9786C306.304 23.9071 306.047 23.8869 305.796 23.9186L305.921 24.9107C306.037 24.8961 306.154 24.9057 306.263 24.9378L306.546 23.9786ZM307.202 24.3385C307.014 24.1718 306.788 24.0501 306.546 23.9786L306.263 24.9378C306.372 24.97 306.467 25.0227 306.54 25.0877L307.202 24.3385ZM307.627 24.9491C307.539 24.7134 307.391 24.5053 307.202 24.3385L306.54 25.0877C306.613 25.1526 306.663 25.2268 306.692 25.3019L307.627 24.9491ZM311.16 30.4072C311.461 30.4959 311.78 30.5211 312.092 30.4816L311.967 29.4895C311.79 29.5119 311.61 29.4974 311.443 29.448L311.16 30.4072ZM310.348 29.9624C310.58 30.1676 310.859 30.3185 311.16 30.4072L311.443 29.448C311.275 29.3986 311.128 29.3168 311.01 29.213L310.348 29.9624ZM309.827 29.2141C309.935 29.5016 310.115 29.7569 310.348 29.9624L311.01 29.2131C310.893 29.1097 310.81 28.9884 310.763 28.8615L309.827 29.2141ZM309.735 28.314C309.686 28.6174 309.718 28.9262 309.827 29.2143L310.762 28.8613C310.715 28.7349 310.702 28.6028 310.723 28.4737L309.735 28.314ZM310.679 27.8939H310.229V28.8939H310.679V27.8939ZM311.196 28.7004C311.168 28.6256 311.161 28.5486 311.173 28.4739L310.186 28.3139C310.145 28.5635 310.172 28.8171 310.261 29.0531L311.196 28.7004ZM311.348 28.9145C311.275 28.8497 311.225 28.7755 311.196 28.7004L310.261 29.0532C310.349 29.2888 310.497 29.497 310.686 29.6638L311.348 28.9145ZM311.625 29.0645C311.516 29.0323 311.422 28.9796 311.348 28.9146L310.686 29.6638C310.874 29.8304 311.1 29.9522 311.342 30.0237L311.625 29.0645ZM311.967 29.0916C311.851 29.1062 311.734 29.0966 311.625 29.0645L311.342 30.0237C311.585 30.0952 311.841 30.1154 312.092 30.0837L311.967 29.0916ZM316.531 29.0877H312.03V30.0877H316.531V29.0877ZM316.936 29.0645C316.827 29.0966 316.71 29.1062 316.594 29.0916L316.469 30.0837C316.72 30.1154 316.976 30.0952 317.219 30.0237L316.936 29.0645ZM317.213 28.9146C317.139 28.9796 317.045 29.0323 316.936 29.0645L317.219 30.0237C317.461 29.9522 317.687 29.8304 317.875 29.6638L317.213 28.9146ZM317.365 28.7004C317.336 28.7755 317.286 28.8497 317.213 28.9145L317.875 29.6638C318.064 29.497 318.211 29.2888 318.3 29.0532L317.365 28.7004ZM317.388 28.4736C317.4 28.5485 317.393 28.6256 317.365 28.7004L318.3 29.0531C318.389 28.8171 318.416 28.5636 318.375 28.3142L317.388 28.4736ZM317.365 28.0874C317.393 28.1622 317.4 28.2393 317.388 28.3142L318.375 28.4736C318.416 28.2242 318.389 27.9706 318.3 27.7346L317.365 28.0874ZM317.213 27.8732C317.286 27.938 317.336 28.0123 317.365 28.0874L318.3 27.7346C318.211 27.4989 318.064 27.2908 317.875 27.124L317.213 27.8732ZM316.936 27.7233C317.045 27.7554 317.139 27.8082 317.213 27.8732L317.875 27.1239C317.687 26.9573 317.461 26.8355 317.219 26.7641L316.936 27.7233ZM316.594 27.6962C316.71 27.6816 316.827 27.6911 316.936 27.7233L317.219 26.7641C316.976 26.6926 316.72 26.6723 316.469 26.704L316.594 27.6962ZM312.03 27.7001H316.531V26.7001H312.03V27.7001ZM311.16 27.6218C311.461 27.7105 311.78 27.7357 312.092 27.6962L311.967 26.7041C311.79 26.7264 311.61 26.7119 311.443 26.6625L311.16 27.6218ZM310.348 27.177C310.58 27.3821 310.859 27.533 311.16 27.6218L311.443 26.6625C311.275 26.6131 311.128 26.5313 311.01 26.4276L310.348 27.177ZM309.827 26.4286C309.935 26.7161 310.115 26.9714 310.348 27.1769L311.01 26.4277C310.893 26.3242 310.81 26.2029 310.763 26.076L309.827 26.4286ZM309.735 25.5286C309.686 25.832 309.718 26.1408 309.827 26.4288L310.762 26.0758C310.715 25.9494 310.702 25.8173 310.723 25.6883L309.735 25.5286ZM309.827 24.788C309.718 25.0761 309.686 25.3848 309.735 25.6883L310.723 25.5286C310.702 25.3995 310.715 25.2674 310.762 25.141L309.827 24.788ZM310.348 24.0399C310.115 24.2454 309.935 24.5007 309.827 24.7882L310.763 25.1408C310.81 25.0139 310.893 24.8926 311.01 24.7891L310.348 24.0399ZM311.16 23.595C310.859 23.6838 310.58 23.8347 310.348 24.0398L311.01 24.7892C311.128 24.6855 311.275 24.6037 311.443 24.5543L311.16 23.595ZM312.092 23.5207C311.78 23.4812 311.461 23.5063 311.16 23.595L311.443 24.5543C311.61 24.5049 311.79 24.4904 311.967 24.5128L312.092 23.5207ZM316.531 23.5167H312.03V24.5167H316.531V23.5167ZM317.401 23.5954C317.1 23.5066 316.781 23.4813 316.469 23.5206L316.594 24.5128C316.77 24.4905 316.95 24.5051 317.118 24.5546L317.401 23.5954ZM318.212 24.0404C317.98 23.8351 317.702 23.6842 317.401 23.5954L317.118 24.5546C317.285 24.604 317.433 24.6859 317.55 24.7895L318.212 24.0404ZM318.733 24.7884C318.625 24.5009 318.445 24.2458 318.213 24.0405L317.55 24.7894C317.667 24.8929 317.75 25.0143 317.798 25.1411L318.733 24.7884ZM318.824 25.6883C318.874 25.3849 318.842 25.0763 318.733 24.7886L317.797 25.1409C317.845 25.2674 317.858 25.3996 317.837 25.5285L318.824 25.6883ZM317.881 26.1084H318.331V25.1084H317.881V26.1084ZM317.364 25.3019C317.392 25.3767 317.399 25.4537 317.387 25.5284L318.374 25.6884C318.415 25.4388 318.388 25.1852 318.299 24.9491L317.364 25.3019ZM317.212 25.0877C317.285 25.1526 317.335 25.2268 317.364 25.3019L318.299 24.9491C318.21 24.7134 318.063 24.5053 317.874 24.3385L317.212 25.0877ZM316.935 24.9378C317.044 24.97 317.138 25.0227 317.212 25.0877L317.874 24.3385C317.686 24.1718 317.46 24.0501 317.218 23.9786L316.935 24.9378ZM316.593 24.9107C316.709 24.8961 316.826 24.9057 316.935 24.9378L317.218 23.9786C316.975 23.9071 316.719 23.8869 316.468 23.9186L316.593 24.9107ZM312.029 24.9146H316.53V23.9146H312.029V24.9146ZM311.624 24.9378C311.733 24.9057 311.85 24.8961 311.966 24.9107L312.091 23.9186C311.84 23.8869 311.584 23.9071 311.341 23.9786L311.624 24.9378ZM311.347 25.0877C311.421 25.0227 311.515 24.97 311.624 24.9378L311.341 23.9786C311.099 24.0501 310.873 24.1718 310.685 24.3385L311.347 25.0877ZM311.195 25.3019C311.224 25.2268 311.274 25.1526 311.347 25.0877L310.685 24.3385C310.496 24.5053 310.349 24.7134 310.26 24.9491L311.195 25.3019ZM311.172 25.5284C311.16 25.4537 311.167 25.3767 311.195 25.3019L310.26 24.9491C310.171 25.1852 310.144 25.4388 310.185 25.6884L311.172 25.5284ZM311.195 25.9149C311.167 25.8401 311.16 25.7631 311.172 25.6884L310.185 25.5284C310.144 25.778 310.171 26.0317 310.26 26.2677L311.195 25.9149ZM311.347 26.1291C311.274 26.0643 311.224 25.99 311.195 25.9149L310.26 26.2677C310.349 26.5034 310.496 26.7115 310.685 26.8783L311.347 26.1291ZM311.624 26.279C311.515 26.2469 311.421 26.1941 311.347 26.1291L310.685 26.8783C310.873 27.045 311.099 27.1668 311.341 27.2382L311.624 26.279ZM311.966 26.3061C311.85 26.3207 311.733 26.3111 311.624 26.279L311.341 27.2382C311.584 27.3097 311.84 27.3299 312.091 27.2982L311.966 26.3061ZM316.53 26.3022H312.029V27.3022H316.53V26.3022ZM317.4 26.3805C317.099 26.2918 316.78 26.2666 316.468 26.3061L316.593 27.2982C316.77 27.2759 316.95 27.2904 317.117 27.3398L317.4 26.3805ZM318.212 26.8253C317.98 26.6202 317.701 26.4693 317.4 26.3805L317.117 27.3398C317.285 27.3892 317.432 27.471 317.55 27.5747L318.212 26.8253ZM318.733 27.5737C318.625 27.2861 318.445 27.0309 318.212 26.8254L317.55 27.5746C317.667 27.678 317.75 27.7994 317.797 27.9263L318.733 27.5737ZM318.824 28.4739C318.874 28.1704 318.842 27.8615 318.733 27.5735L317.798 27.9265C317.845 28.0529 317.858 28.1849 317.837 28.3138L318.824 28.4739ZM318.733 29.2143C318.842 28.9262 318.874 28.6174 318.824 28.3138L317.837 28.4739C317.858 28.6028 317.845 28.7349 317.798 28.8613L318.733 29.2143ZM318.212 29.9624C318.445 29.7569 318.625 29.5016 318.733 29.2141L317.797 28.8615C317.75 28.9884 317.667 29.1097 317.55 29.2131L318.212 29.9624ZM317.4 30.4072C317.701 30.3185 317.98 30.1676 318.212 29.9624L317.55 29.213C317.432 29.3168 317.285 29.3986 317.117 29.448L317.4 30.4072ZM316.468 30.4816C316.78 30.5211 317.099 30.4959 317.4 30.4072L317.117 29.448C316.95 29.4974 316.77 29.5119 316.593 29.4895L316.468 30.4816ZM312.03 30.4856H316.53V29.4856H312.03V30.4856ZM321.063 27.1976V29.9856H322.063V27.1976H321.063ZM328.768 26.6976H321.563V27.6976H328.768V26.6976ZM329.268 29.9856V27.1976H328.268V29.9856H329.268ZM329.218 29.4856H328.768V30.4856H329.218V29.4856ZM328.718 24.0167V29.9856H329.718V24.0167H328.718ZM328.768 24.5167H329.218V23.5167H328.768V24.5167ZM329.268 26.8047V24.0167H328.268V26.8047H329.268ZM321.563 27.3047H328.768V26.3047H321.563V27.3047ZM321.063 24.0167V26.8047H322.063V24.0167H321.063ZM321.113 24.5167H321.563V23.5167H321.113V24.5167ZM321.613 29.9856V24.0167H320.613V29.9856H321.613ZM321.563 29.4856H321.113V30.4856H321.563V29.4856ZM332.927 30.4065C333.228 30.4954 333.547 30.5208 333.859 30.4817L333.735 29.4895C333.558 29.5116 333.378 29.4969 333.211 29.4474L332.927 30.4065ZM332.116 29.9613C332.348 30.1666 332.626 30.3176 332.927 30.4065L333.211 29.4475C333.043 29.398 332.896 29.3161 332.779 29.2126L332.116 29.9613ZM331.596 29.2135C331.704 29.501 331.884 29.7561 332.116 29.9614L332.779 29.2125C332.662 29.109 332.579 28.9878 332.532 28.8611L331.596 29.2135ZM331.505 28.314C331.456 28.6173 331.487 28.9258 331.596 29.2135L332.532 28.8611C332.484 28.7346 332.471 28.6026 332.492 28.4738L331.505 28.314ZM331.498 25.6059V28.3939H332.498V25.6059H331.498ZM331.596 24.7855C331.487 25.0735 331.455 25.3824 331.505 25.6859L332.492 25.5258C332.471 25.3969 332.484 25.2649 332.532 25.1385L331.596 24.7855ZM332.117 24.0374C331.885 24.2429 331.704 24.4981 331.596 24.7857L332.532 25.1383C332.579 25.0114 332.662 24.89 332.779 24.7866L332.117 24.0374ZM332.929 23.5925C332.628 23.6812 332.349 23.8322 332.117 24.0373L332.779 24.7867C332.897 24.6829 333.044 24.6011 333.212 24.5518L332.929 23.5925ZM333.862 23.5181C333.549 23.4786 333.23 23.5038 332.929 23.5925L333.212 24.5518C333.379 24.5024 333.559 24.4879 333.736 24.5102L333.862 23.5181ZM338.306 23.5142H333.799V24.5142H338.306V23.5142ZM339.176 23.5925C338.875 23.5038 338.556 23.4786 338.243 23.5181L338.369 24.5102C338.546 24.4879 338.726 24.5024 338.893 24.5518L339.176 23.5925ZM339.988 24.0373C339.756 23.8322 339.477 23.6812 339.176 23.5925L338.893 24.5518C339.061 24.6011 339.208 24.6829 339.326 24.7867L339.988 24.0373ZM340.509 24.7857C340.401 24.4981 340.22 24.2429 339.988 24.0374L339.326 24.7866C339.443 24.89 339.525 25.0114 339.573 25.1383L340.509 24.7857ZM340.6 25.6857C340.649 25.3823 340.618 25.0735 340.509 24.7855L339.573 25.1385C339.621 25.2649 339.634 25.397 339.613 25.526L340.6 25.6857ZM340.607 28.3939V25.6059H339.607V28.3939H340.607ZM340.509 29.2143C340.618 28.9262 340.649 28.6174 340.6 28.314L339.613 28.4737C339.634 28.6028 339.621 28.7349 339.573 28.8613L340.509 29.2143ZM339.988 29.9624C340.22 29.7569 340.401 29.5016 340.509 29.2141L339.573 28.8615C339.525 28.9884 339.443 29.1097 339.326 29.2131L339.988 29.9624ZM339.176 30.4072C339.477 30.3185 339.756 30.1676 339.988 29.9624L339.326 29.213C339.208 29.3168 339.061 29.3986 338.893 29.448L339.176 30.4072ZM338.243 30.4816C338.556 30.5211 338.875 30.496 339.176 30.4072L338.893 29.448C338.726 29.4974 338.546 29.5119 338.369 29.4895L338.243 30.4816ZM333.797 30.4856H338.306V29.4856H333.797V30.4856ZM331.953 28.3139C331.912 28.5635 331.939 28.8171 332.028 29.0531L332.964 28.7004C332.935 28.6256 332.928 28.5486 332.94 28.4739L331.953 28.3139ZM331.954 25.6071L331.946 28.3925L332.946 28.3952L332.954 25.6098L331.954 25.6071ZM332.035 24.9491C331.946 25.1852 331.92 25.4387 331.96 25.6881L332.948 25.5287C332.936 25.4538 332.943 25.3767 332.971 25.3019L332.035 24.9491ZM332.461 24.3385C332.272 24.5053 332.124 24.7134 332.035 24.9491L332.971 25.3019C332.999 25.2268 333.049 25.1526 333.123 25.0877L332.461 24.3385ZM333.117 23.9786C332.874 24.0501 332.649 24.1718 332.461 24.3385L333.123 25.0877C333.196 25.0227 333.291 24.97 333.4 24.9378L333.117 23.9786ZM333.867 23.9186C333.616 23.8869 333.359 23.9071 333.117 23.9786L333.4 24.9378C333.509 24.9057 333.626 24.8961 333.742 24.9107L333.867 23.9186ZM338.306 23.9146H333.804V24.9146H338.306V23.9146ZM338.993 23.9785C338.751 23.9072 338.494 23.887 338.244 23.9186L338.369 24.9107C338.484 24.8962 338.601 24.9057 338.71 24.9378L338.993 23.9785ZM339.648 24.3374C339.46 24.1712 339.235 24.0498 338.993 23.9785L338.71 24.9378C338.819 24.9698 338.913 25.0225 338.987 25.0873L339.648 24.3374ZM340.074 24.9466C339.985 24.7113 339.837 24.5037 339.648 24.3374L338.987 25.0873C339.06 25.152 339.11 25.2262 339.139 25.301L340.074 24.9466ZM340.15 25.684C340.19 25.4352 340.163 25.1821 340.074 24.9463L339.139 25.3013C339.167 25.3757 339.175 25.4526 339.163 25.5278L340.15 25.684ZM340.157 28.3939V25.6059H339.157V28.3939H340.157ZM340.075 29.0532C340.164 28.8171 340.191 28.5636 340.15 28.3142L339.163 28.4736C339.175 28.5485 339.168 28.6256 339.139 28.7003L340.075 29.0532ZM339.65 29.6638C339.839 29.497 339.986 29.2888 340.075 29.0531L339.139 28.7004C339.111 28.7755 339.061 28.8497 338.988 28.9145L339.65 29.6638ZM338.994 30.0237C339.236 29.9522 339.462 29.8304 339.65 29.6638L338.988 28.9146C338.914 28.9796 338.82 29.0323 338.711 29.0645L338.994 30.0237ZM338.243 30.0837C338.495 30.1154 338.751 30.0952 338.994 30.0237L338.711 29.0645C338.602 29.0966 338.484 29.1062 338.369 29.0916L338.243 30.0837ZM333.797 30.0877H338.306V29.0877H333.797V30.0877ZM333.109 30.0237C333.352 30.0952 333.608 30.1154 333.859 30.0837L333.734 29.0916C333.619 29.1062 333.501 29.0966 333.392 29.0645L333.109 30.0237ZM332.453 29.6638C332.641 29.8304 332.867 29.9522 333.109 30.0237L333.392 29.0645C333.283 29.0323 333.189 28.9796 333.115 28.9146L332.453 29.6638ZM332.028 29.0531C332.117 29.2888 332.264 29.497 332.453 29.6638L333.115 28.9145C333.042 28.8497 332.992 28.7754 332.964 28.7004L332.028 29.0531ZM350.053 23.595C349.752 23.5063 349.433 23.4812 349.121 23.5207L349.246 24.5128C349.423 24.4904 349.603 24.5049 349.771 24.5543L350.053 23.595ZM350.865 24.0398C350.633 23.8347 350.354 23.6838 350.053 23.595L349.771 24.5543C349.938 24.6037 350.086 24.6855 350.203 24.7892L350.865 24.0398ZM351.387 24.7895C351.279 24.5006 351.097 24.245 350.865 24.0398L350.203 24.7893C350.321 24.893 350.403 25.014 350.45 25.1395L351.387 24.7895ZM351.478 25.687C351.526 25.3851 351.495 25.0766 351.386 24.7876L350.451 25.1414C350.498 25.2669 350.511 25.3992 350.49 25.5298L351.478 25.687ZM351.386 26.4292C351.495 26.1402 351.526 25.8317 351.478 25.5298L350.49 25.687C350.511 25.8176 350.498 25.95 350.451 26.0754L351.386 26.4292ZM350.865 27.1771C351.097 26.9718 351.279 26.7162 351.387 26.4273L350.45 26.0773C350.403 26.2028 350.321 26.3238 350.203 26.4275L350.865 27.1771ZM350.053 27.6218C350.354 27.533 350.633 27.3821 350.865 27.177L350.203 26.4276C350.086 26.5313 349.938 26.6131 349.771 26.6625L350.053 27.6218ZM349.121 27.6962C349.433 27.7357 349.752 27.7105 350.053 27.6218L349.771 26.6625C349.603 26.7119 349.423 26.7264 349.246 26.7041L349.121 27.6962ZM343.333 27.7001H349.184V26.7001H343.333V27.7001ZM343.833 29.9881V27.2001H342.833V29.9881H343.833ZM342.883 30.4881H343.333V29.4881H342.883V30.4881ZM342.383 24.0192V29.9881H343.383V24.0192H342.383ZM349.183 23.5167L342.883 23.5192L342.883 24.5192L349.184 24.5167L349.183 23.5167ZM351.028 25.687C351.067 25.4397 351.042 25.1861 350.952 24.9481L350.017 25.3029C350.045 25.3758 350.053 25.4528 350.04 25.5298L351.028 25.687ZM350.54 25.1084H350.534V26.1084H350.54V25.1084ZM350.958 26.2696C351.048 26.0313 351.073 25.7774 351.034 25.53L350.046 25.6869C350.058 25.7643 350.051 25.8418 350.023 25.9149L350.958 26.2696ZM350.532 26.8804C350.721 26.7134 350.869 26.505 350.958 26.2691L350.023 25.9154C349.994 25.9909 349.944 26.0653 349.87 26.1301L350.532 26.8804ZM349.873 27.2398C350.116 27.1687 350.342 27.047 350.532 26.8804L349.87 26.1301C349.796 26.1953 349.702 26.248 349.593 26.28L349.873 27.2398ZM349.121 27.2981C349.373 27.3306 349.63 27.3109 349.873 27.2398L349.593 26.28C349.483 26.312 349.365 26.3213 349.25 26.3063L349.121 27.2981ZM343.333 27.3022H349.185V26.3022H343.333V27.3022ZM342.833 24.4146V26.8022H343.833V24.4146H342.833ZM349.184 23.9146H343.333V24.9146H349.184V23.9146ZM349.871 23.9786C349.629 23.9071 349.372 23.8869 349.121 23.9186L349.246 24.9107C349.362 24.8961 349.479 24.9057 349.588 24.9378L349.871 23.9786ZM350.527 24.3385C350.339 24.1718 350.114 24.0501 349.871 23.9786L349.588 24.9378C349.697 24.97 349.792 25.0227 349.865 25.0877L350.527 24.3385ZM350.953 24.9491C350.864 24.7134 350.716 24.5053 350.527 24.3385L349.865 25.0877C349.939 25.1526 349.989 25.2268 350.017 25.3019L350.953 24.9491Z" fill="white"/>
<defs>
<filter id="filter0_d_9157_9886" x="0" y="0" width="369" height="54" filterUnits="userSpaceOnUse" color-interpolation-filters="sRGB">
<feFlood flood-opacity="0" result="BackgroundImageFix"/>
<feColorMatrix in="SourceAlpha" type="matrix" values="0 0 0 0 0 0 0 0 0 0 0 0 0 0 0 0 0 0 127 0" result="hardAlpha"/>
<feOffset dy="1"/>
<feGaussianBlur stdDeviation="3.5"/>
<feColorMatrix type="matrix" values="0 0 0 0 0 0 0 0 0 0 0 0 0 0 0 0 0 0 0.1 0"/>
<feBlend mode="normal" in2="BackgroundImageFix" result="effect1_dropShadow_9157_9886"/>
<feBlend mode="normal" in="SourceGraphic" in2="effect1_dropShadow_9157_9886" result="shape"/>
</filter>
</defs>
</svg>
