<svg width="20" height="22" viewBox="0 0 20 22" fill="none" xmlns="http://www.w3.org/2000/svg">
<path fill-rule="evenodd" clip-rule="evenodd" d="M4.58333 15.3327C4.58333 14.7368 5.07083 14.2493 5.66667 14.2493C6.2625 14.2493 6.75 14.7368 6.75 15.3327C6.75 15.9285 6.2625 16.416 5.66667 16.416C5.07083 16.416 4.58333 15.9285 4.58333 15.3327ZM10 14.2493H14.3333C14.9292 14.2493 15.4167 14.7368 15.4167 15.3327C15.4167 15.9285 14.9292 16.416 14.3333 16.416H10C9.40417 16.416 8.91667 15.9285 8.91667 15.3327C8.91667 14.7368 9.40417 14.2493 10 14.2493ZM16.5 19.666H3.5C2.90308 19.666 2.41667 19.1796 2.41667 18.5827V12.0827H17.5833V18.5827C17.5833 19.1796 17.0969 19.666 16.5 19.666ZM3.5 4.49935H4.58333V5.58268C4.58333 6.17852 5.07083 6.66602 5.66667 6.66602C6.2625 6.66602 6.75 6.17852 6.75 5.58268V4.49935H13.25V5.58268C13.25 6.17852 13.7375 6.66602 14.3333 6.66602C14.9292 6.66602 15.4167 6.17852 15.4167 5.58268V4.49935H16.5C17.0969 4.49935 17.5833 4.98577 17.5833 5.58268V9.91602H2.41667V5.58268C2.41667 4.98577 2.90308 4.49935 3.5 4.49935ZM16.5 2.33268H15.4167V1.24935C15.4167 0.653516 14.9292 0.166016 14.3333 0.166016C13.7375 0.166016 13.25 0.653516 13.25 1.24935V2.33268H6.75V1.24935C6.75 0.653516 6.2625 0.166016 5.66667 0.166016C5.07083 0.166016 4.58333 0.653516 4.58333 1.24935V2.33268H3.5C1.70817 2.33268 0.25 3.79085 0.25 5.58268V18.5827C0.25 20.3745 1.70817 21.8327 3.5 21.8327H16.5C18.2918 21.8327 19.75 20.3745 19.75 18.5827V5.58268C19.75 3.79085 18.2918 2.33268 16.5 2.33268Z" fill="#A08BC8"/>
</svg>
