<svg width="19" height="19" viewBox="0 0 19 19" fill="none" xmlns="http://www.w3.org/2000/svg">
<g opacity="0.8">
<path fill-rule="evenodd" clip-rule="evenodd" d="M5.54167 12.6663C5.54167 12.2309 5.89792 11.8747 6.33333 11.8747C6.76875 11.8747 7.125 12.2309 7.125 12.6663C7.125 13.1018 6.76875 13.458 6.33333 13.458C5.89792 13.458 5.54167 13.1018 5.54167 12.6663ZM9.5 11.8747H12.6667C13.1021 11.8747 13.4583 12.2309 13.4583 12.6663C13.4583 13.1018 13.1021 13.458 12.6667 13.458H9.5C9.06458 13.458 8.70833 13.1018 8.70833 12.6663C8.70833 12.2309 9.06458 11.8747 9.5 11.8747ZM14.25 15.833H4.75C4.31379 15.833 3.95833 15.4775 3.95833 15.0413V10.2913H15.0417V15.0413C15.0417 15.4775 14.6862 15.833 14.25 15.833ZM4.75 4.74967H5.54167V5.54134C5.54167 5.97676 5.89792 6.33301 6.33333 6.33301C6.76875 6.33301 7.125 5.97676 7.125 5.54134V4.74967H11.875V5.54134C11.875 5.97676 12.2313 6.33301 12.6667 6.33301C13.1021 6.33301 13.4583 5.97676 13.4583 5.54134V4.74967H14.25C14.6862 4.74967 15.0417 5.10513 15.0417 5.54134V8.70801H3.95833V5.54134C3.95833 5.10513 4.31379 4.74967 4.75 4.74967ZM14.25 3.16634H13.4583V2.37467C13.4583 1.93926 13.1021 1.58301 12.6667 1.58301C12.2312 1.58301 11.875 1.93926 11.875 2.37467V3.16634H7.125V2.37467C7.125 1.93926 6.76875 1.58301 6.33333 1.58301C5.89792 1.58301 5.54167 1.93926 5.54167 2.37467V3.16634H4.75C3.44058 3.16634 2.375 4.23192 2.375 5.54134V15.0413C2.375 16.3508 3.44058 17.4163 4.75 17.4163H14.25C15.5594 17.4163 16.625 16.3508 16.625 15.0413V5.54134C16.625 4.23192 15.5594 3.16634 14.25 3.16634Z" fill="black"/>
</g>
</svg>
