<svg width="19" height="19" viewBox="0 0 19 19" fill="none" xmlns="http://www.w3.org/2000/svg">
<g opacity="0.8">
<path fill-rule="evenodd" clip-rule="evenodd" d="M5.54167 12.6673C5.54167 12.2319 5.89792 11.8757 6.33333 11.8757C6.76875 11.8757 7.125 12.2319 7.125 12.6673C7.125 13.1027 6.76875 13.459 6.33333 13.459C5.89792 13.459 5.54167 13.1027 5.54167 12.6673ZM9.5 11.8757H12.6667C13.1021 11.8757 13.4583 12.2319 13.4583 12.6673C13.4583 13.1027 13.1021 13.459 12.6667 13.459H9.5C9.06458 13.459 8.70833 13.1027 8.70833 12.6673C8.70833 12.2319 9.06458 11.8757 9.5 11.8757ZM14.25 15.834H4.75C4.31379 15.834 3.95833 15.4785 3.95833 15.0423V10.2923H15.0417V15.0423C15.0417 15.4785 14.6862 15.834 14.25 15.834ZM4.75 4.75065H5.54167V5.54232C5.54167 5.97773 5.89792 6.33398 6.33333 6.33398C6.76875 6.33398 7.125 5.97773 7.125 5.54232V4.75065H11.875V5.54232C11.875 5.97773 12.2312 6.33398 12.6667 6.33398C13.1021 6.33398 13.4583 5.97773 13.4583 5.54232V4.75065H14.25C14.6862 4.75065 15.0417 5.10611 15.0417 5.54232V8.70898H3.95833V5.54232C3.95833 5.10611 4.31379 4.75065 4.75 4.75065ZM14.25 3.16732H13.4583V2.37565C13.4583 1.94023 13.1021 1.58398 12.6667 1.58398C12.2312 1.58398 11.875 1.94023 11.875 2.37565V3.16732H7.125V2.37565C7.125 1.94023 6.76875 1.58398 6.33333 1.58398C5.89792 1.58398 5.54167 1.94023 5.54167 2.37565V3.16732H4.75C3.44058 3.16732 2.375 4.2329 2.375 5.54232V15.0423C2.375 16.3517 3.44058 17.4173 4.75 17.4173H14.25C15.5594 17.4173 16.625 16.3517 16.625 15.0423V5.54232C16.625 4.2329 15.5594 3.16732 14.25 3.16732Z" fill="black"/>
</g>
</svg>
