<svg width="19" height="20" viewBox="0 0 19 20" fill="none" xmlns="http://www.w3.org/2000/svg">
<path d="M16.9251 1.6996H14.2251V1.0246C14.2251 0.783378 14.0964 0.560547 13.8876 0.440011C13.6787 0.319475 13.4214 0.319475 13.2126 0.440011C13.0037 0.560547 12.8751 0.783385 12.8751 1.0246V1.6996H6.12505V1.0246C6.12505 0.783378 5.99638 0.560547 5.78755 0.440011C5.57872 0.319475 5.32138 0.319475 5.11255 0.440011C4.90373 0.560547 4.77505 0.783385 4.77505 1.0246V1.6996H2.07505C1.5379 1.6996 1.02294 1.91295 0.643085 2.29264C0.263395 2.67248 0.0500488 3.18745 0.0500488 3.7246V17.2246C0.0500488 17.7617 0.263395 18.2767 0.643085 18.6566C1.02292 19.0363 1.5379 19.2496 2.07505 19.2496H16.9251C17.4622 19.2496 17.9772 19.0363 18.357 18.6566C18.7367 18.2767 18.9501 17.7617 18.9501 17.2246V3.7246C18.9501 3.18745 18.7367 2.67249 18.357 2.29264C17.9772 1.91295 17.4622 1.6996 16.9251 1.6996ZM2.07505 3.0496H4.77505V3.7246C4.77505 3.96582 4.90372 4.18865 5.11255 4.30919C5.32138 4.42972 5.57873 4.42972 5.78755 4.30919C5.99638 4.18865 6.12505 3.96581 6.12505 3.7246V3.0496H12.8751V3.7246C12.8751 3.96582 13.0037 4.18865 13.2126 4.30919C13.4214 4.42972 13.6787 4.42972 13.8876 4.30919C14.0964 4.18865 14.2251 3.96581 14.2251 3.7246V3.0496H16.9251C17.104 3.0496 17.2758 3.12072 17.4024 3.24728C17.5289 3.37384 17.6001 3.5456 17.6001 3.7246V7.0996H1.40005V3.7246C1.40005 3.5456 1.47117 3.37384 1.59773 3.24728C1.72429 3.12072 1.89605 3.0496 2.07505 3.0496ZM16.9251 17.8996H2.07505C1.89605 17.8996 1.72429 17.8285 1.59773 17.7019C1.47117 17.5754 1.40005 17.4036 1.40005 17.2246V8.4496H17.6001V17.2246C17.6001 17.4036 17.5289 17.5754 17.4024 17.7019C17.2758 17.8285 17.104 17.8996 16.9251 17.8996Z" fill="black"/>
<path d="M14.2251 11.1504H4.77509C4.53387 11.1504 4.31104 11.2791 4.1905 11.4879C4.06996 11.6967 4.06996 11.9541 4.1905 12.1629C4.31104 12.3717 4.53387 12.5004 4.77509 12.5004H14.2251C14.4663 12.5004 14.6891 12.3717 14.8097 12.1629C14.9302 11.9541 14.9302 11.6967 14.8097 11.4879C14.6891 11.2791 14.4663 11.1504 14.2251 11.1504Z" fill="black"/>
<path d="M9.50008 13.8496H4.77509C4.53387 13.8496 4.31103 13.9783 4.1905 14.1871C4.06996 14.3959 4.06996 14.6533 4.1905 14.8621C4.31103 15.0709 4.53387 15.1996 4.77509 15.1996H9.50008C9.7413 15.1996 9.96413 15.0709 10.0847 14.8621C10.2052 14.6533 10.2052 14.3959 10.0847 14.1871C9.96413 13.9783 9.74129 13.8496 9.50008 13.8496Z" fill="black"/>
</svg>
