<svg width="17" height="20" viewBox="0 0 17 20" fill="none" xmlns="http://www.w3.org/2000/svg">
<path fill-rule="evenodd" clip-rule="evenodd" d="M4.11963 7.30912C1.91829 9.69137 1.96488 13.4679 4.25938 15.8068C5.37954 16.9519 6.86804 17.5835 8.45404 17.5845H8.45946C10.0487 17.5845 11.5426 16.953 12.6682 15.8068C15.0039 13.4256 14.9995 9.55271 12.6585 7.17479L9.42362 3.86954C9.09646 6.55837 8.08788 8.91787 6.29171 8.91787C5.74138 8.91787 4.84438 8.67304 4.11963 7.30912ZM8.45946 19.7512H8.45187C6.27871 19.749 4.23988 18.8878 2.71129 17.3224C-0.445541 14.1049 -0.449875 8.86912 2.70154 5.65704L3.76646 4.58021C4.04163 4.30504 4.44137 4.19887 4.81946 4.29746C5.19537 4.39929 5.48787 4.69504 5.58538 5.07204C5.83454 6.03512 6.13137 6.50854 6.29496 6.68837C6.67954 6.28321 7.37504 4.64629 7.37504 1.87621C7.37504 1.71696 7.37504 1.56637 7.36637 1.41579C7.34579 1.09621 7.46821 0.783123 7.70004 0.562123C8.13012 0.153707 8.81912 0.153707 9.23187 0.578373L14.2044 5.65812C17.3677 8.86912 17.3731 14.1049 14.2152 17.3235C12.678 18.89 10.6348 19.7512 8.45946 19.7512Z" fill="#A08BC8"/>
</svg>
