<svg width="97" height="8" viewBox="0 0 97 8" fill="none" xmlns="http://www.w3.org/2000/svg">
<path fill-rule="evenodd" clip-rule="evenodd" d="M8.05245 1.07468C7.81802 1.00563 7.56863 0.98578 7.32403 1.01671L2.81671 1.01418C2.57211 0.983246 2.32271 1.00309 2.08829 1.07214C1.85386 1.14119 1.64085 1.25755 1.46613 1.41201C1.2914 1.56645 1.15978 1.75475 1.08165 1.96197C1.00354 2.1692 0.98109 2.38965 1.01608 2.60587V5.39388C0.981013 5.61026 1.00348 5.8309 1.0817 6.03827C1.15992 6.24563 1.29174 6.43404 1.46669 6.58853C1.64164 6.74301 1.85491 6.85932 2.08959 6.92825C2.32425 6.99717 2.57387 7.0168 2.81862 6.98558H7.32403C7.56807 7.01583 7.81672 6.99557 8.0504 6.9264C8.28408 6.85722 8.49638 6.74102 8.67059 6.58695C8.84479 6.43287 8.97613 6.24514 9.05428 6.03854C9.13241 5.83194 9.15519 5.61212 9.12083 5.39642V3.80472H4.61925V4.20264H8.6745V5.39642C8.70069 5.55858 8.68382 5.7239 8.62521 5.87929C8.5666 6.03468 8.46788 6.17589 8.33684 6.29171C8.20582 6.40754 8.04607 6.49481 7.87028 6.54662C7.69449 6.59843 7.50747 6.61334 7.32403 6.59019H2.81862C2.63518 6.61334 2.44816 6.59843 2.27235 6.54662C2.09656 6.49481 1.93683 6.40754 1.8058 6.29171C1.67477 6.17589 1.57604 6.03468 1.51744 5.87929C1.45883 5.7239 1.44195 5.55858 1.46815 5.39642V2.60841C1.44195 2.44625 1.45883 2.28093 1.51744 2.12553C1.57604 1.97013 1.67477 1.82893 1.8058 1.7131C1.93683 1.59727 2.09656 1.51001 2.27235 1.4582C2.44816 1.4064 2.63518 1.39148 2.81862 1.41463H7.32403C7.50725 1.39192 7.69394 1.40716 7.86937 1.45916C8.04478 1.51116 8.20413 1.59849 8.33482 1.71426C8.46551 1.83003 8.56397 1.97108 8.62242 2.12625C8.68087 2.28143 8.69771 2.44648 8.67163 2.60841H9.12466C9.15965 2.39219 9.1372 2.17173 9.05907 1.96451C8.98096 1.75728 8.84933 1.56899 8.6746 1.41454C8.49988 1.26009 8.28687 1.14372 8.05245 1.07468ZM18.9375 1.07468C18.703 1.00563 18.4537 0.98578 18.209 1.01671L11.903 1.02009V6.98896H12.3531V4.20095H18.2071C18.3906 4.17779 18.5776 4.19271 18.7534 4.24452C18.9292 4.29633 19.089 4.38359 19.22 4.49942C19.351 4.61525 19.4498 4.75645 19.5083 4.91184C19.5669 5.06725 19.5839 5.23257 19.5576 5.39473V6.98642H20.0096V5.39473C20.0474 5.1233 19.9965 4.84801 19.8633 4.60123C19.7301 4.35443 19.5199 4.14639 19.2575 4.00157C19.5199 3.85673 19.7301 3.6487 19.8633 3.40191C19.9965 3.15512 20.0474 2.87983 20.0096 2.60841C20.0447 2.39219 20.0223 2.17173 19.9441 1.96451C19.866 1.75728 19.7344 1.56899 19.5597 1.41454C19.3849 1.26009 19.1719 1.14372 18.9375 1.07468ZM19.5576 2.60841C19.5839 2.44625 19.5669 2.28093 19.5083 2.12553C19.4498 1.97013 19.351 1.82893 19.22 1.7131C19.089 1.59727 18.9292 1.51001 18.7534 1.4582C18.5776 1.4064 18.3906 1.39148 18.2071 1.41463H12.3531V3.80218H18.2052C18.3888 3.82563 18.5761 3.81093 18.7521 3.75926C18.9281 3.70758 19.0881 3.62035 19.2194 3.50448C19.3506 3.38862 19.4496 3.24731 19.5083 3.09176C19.567 2.93623 19.5839 2.77073 19.5576 2.60841ZM23.8612 6.92761C24.0957 6.99666 24.345 7.01651 24.5896 6.98558H29.0912C29.3358 7.01651 29.5852 6.99666 29.8196 6.92761C30.0541 6.85856 30.267 6.7422 30.4418 6.58775C30.6165 6.4333 30.7482 6.245 30.8262 6.03778C30.9044 5.83056 30.9269 5.6101 30.8918 5.39388V2.60587C30.9269 2.38965 30.9044 2.1692 30.8262 1.96197C30.7482 1.75475 30.6165 1.56645 30.4418 1.41201C30.267 1.25755 30.0541 1.14119 29.8196 1.07214C29.5852 1.00309 29.3358 0.983246 29.0912 1.01418H24.5896C24.345 0.983246 24.0957 1.00309 23.8612 1.07214C23.6268 1.14119 23.4138 1.25755 23.239 1.41201C23.0643 1.56645 22.9327 1.75475 22.8546 1.96197C22.7764 2.1692 22.754 2.38965 22.789 2.60587V5.39388C22.754 5.6101 22.7764 5.83056 22.8546 6.03778C22.9327 6.245 23.0643 6.4333 23.239 6.58775C23.4138 6.7422 23.6268 6.85856 23.8612 6.92761ZM23.2372 5.39388C23.211 5.55604 23.2279 5.72136 23.2865 5.87676C23.3451 6.03215 23.4438 6.17336 23.5749 6.28918C23.7059 6.40501 23.8657 6.49228 24.0415 6.54409C24.2172 6.59589 24.4043 6.6108 24.5877 6.58765H29.0893C29.2728 6.6108 29.4598 6.59589 29.6356 6.54409C29.8113 6.49228 29.9711 6.40501 30.1022 6.28918C30.2332 6.17336 30.3319 6.03215 30.3905 5.87676C30.4491 5.72136 30.466 5.55604 30.4397 5.39388V2.60587C30.466 2.44371 30.4491 2.27839 30.3905 2.12299C30.3319 1.9676 30.2332 1.8264 30.1022 1.71057C29.9711 1.59474 29.8113 1.50748 29.6356 1.45567C29.4598 1.40386 29.2728 1.38894 29.0893 1.4121H24.5877C24.4043 1.38894 24.2172 1.40386 24.0415 1.45567C23.8657 1.50748 23.7059 1.59474 23.5749 1.71057C23.4438 1.8264 23.3451 1.9676 23.2865 2.12299C23.2279 2.27839 23.211 2.44371 23.2372 2.60587V5.39388ZM41.3248 1.01671V5.39388C41.351 5.55604 41.3341 5.72136 41.2755 5.87676C41.2169 6.03215 41.1182 6.17336 40.9872 6.28918C40.8562 6.40501 40.6964 6.49228 40.5206 6.54409C40.3448 6.59589 40.1578 6.6108 39.9744 6.58766H35.4727C35.2893 6.6108 35.1023 6.59589 34.9265 6.54409C34.7507 6.49228 34.5909 6.40501 34.4599 6.28918C34.3289 6.17336 34.2301 6.03215 34.1715 5.87676C34.113 5.72136 34.096 5.55604 34.1223 5.39388V1.01671H33.6721V5.39388C33.6371 5.6101 33.6596 5.83056 33.7377 6.03778C33.8158 6.245 33.9474 6.4333 34.1221 6.58775C34.2969 6.7422 34.5099 6.85856 34.7443 6.92761C34.9788 6.99666 35.2281 7.01651 35.4727 6.98558H39.9744C40.219 7.01651 40.4683 6.99666 40.7028 6.92761C40.9372 6.85856 41.1501 6.7422 41.325 6.58775C41.4997 6.4333 41.6313 6.245 41.7094 6.03778C41.7875 5.83056 41.81 5.6101 41.775 5.39388V1.01671H41.3248ZM50.8585 1.01671C51.103 0.98578 51.3524 1.00563 51.5868 1.07468C51.8213 1.14372 52.0342 1.26009 52.209 1.41454C52.3837 1.56899 52.5153 1.75728 52.5934 1.96451C52.6716 2.17173 52.6941 2.39219 52.6591 2.60841C52.6941 2.82463 52.6716 3.04509 52.5934 3.2523C52.5153 3.45953 52.3837 3.64783 52.209 3.80228C52.0342 3.95672 51.8213 4.07308 51.5868 4.14213C51.3524 4.21119 51.103 4.23104 50.8585 4.20011H45.0064V6.98811H44.5561V1.01924L50.8585 1.01671ZM52.1596 2.12553C52.2182 2.28093 52.2351 2.44625 52.2088 2.60841H52.2098C52.2361 2.77065 52.2192 2.93606 52.1606 3.09153C52.1019 3.247 52.0031 3.38825 51.8719 3.50409C51.7408 3.61994 51.5809 3.70719 51.405 3.75893C51.2291 3.81067 51.042 3.82548 50.8585 3.80218H45.0064V1.41463H50.8585C51.0419 1.39148 51.2289 1.4064 51.4047 1.4582C51.5804 1.51001 51.7402 1.59727 51.8713 1.7131C52.0023 1.82893 52.101 1.97013 52.1596 2.12553ZM57.0296 6.98558C56.7851 7.01651 56.5357 6.99666 56.3013 6.92761C56.0668 6.85856 55.8539 6.74219 55.6791 6.58775C55.5044 6.4333 55.3727 6.245 55.2947 6.03778C55.2165 5.83056 55.194 5.6101 55.229 5.39388H55.6793C55.653 5.55604 55.6699 5.72136 55.7285 5.87676C55.7871 6.03215 55.8858 6.17336 56.0168 6.28918C56.1479 6.40501 56.3077 6.49228 56.4834 6.54409C56.6592 6.59589 56.8462 6.6108 57.0296 6.58765H61.5313C61.7147 6.6108 61.9018 6.59589 62.0775 6.54409C62.2533 6.49228 62.4131 6.40501 62.5441 6.28918C62.6751 6.17336 62.7739 6.03215 62.8325 5.87676C62.8911 5.72136 62.908 5.55604 62.8818 5.39388C62.908 5.23172 62.8911 5.0664 62.8325 4.911C62.7739 4.7556 62.6751 4.61441 62.5441 4.49858C62.4131 4.38276 62.2533 4.29548 62.0775 4.24368C61.9018 4.19187 61.7147 4.17695 61.5313 4.20011H57.0296C56.7851 4.23104 56.5357 4.21119 56.3013 4.14213C56.0668 4.07308 55.8539 3.95672 55.6791 3.80228C55.5044 3.64783 55.3727 3.45953 55.2947 3.2523C55.2165 3.04509 55.194 2.82463 55.229 2.60841C55.194 2.39219 55.2165 2.17173 55.2947 1.96451C55.3727 1.75728 55.5044 1.56899 55.6791 1.41454C55.8539 1.26009 56.0668 1.14372 56.3013 1.07468C56.5357 1.00563 56.7851 0.98578 57.0296 1.01671H61.5313C61.7758 0.985924 62.025 1.00588 62.2594 1.075C62.4937 1.14411 62.7066 1.26049 62.8812 1.41492C63.0557 1.56935 63.1873 1.7576 63.2654 1.96475C63.3434 2.17189 63.3659 2.39226 63.3309 2.60841H62.8807C62.907 2.44625 62.8901 2.28093 62.8315 2.12553C62.7729 1.97013 62.6742 1.82893 62.5432 1.7131C62.4121 1.59727 62.2523 1.51001 62.0766 1.4582C61.9008 1.4064 61.7138 1.39148 61.5303 1.41463H57.0287C56.8453 1.39148 56.6582 1.4064 56.4825 1.4582C56.3067 1.51001 56.1469 1.59727 56.0159 1.7131C55.8848 1.82893 55.7861 1.97013 55.7275 2.12553C55.6689 2.28093 55.652 2.44625 55.6783 2.60841C55.652 2.77057 55.6689 2.93589 55.7275 3.09128C55.7861 3.24668 55.8848 3.38788 56.0159 3.50371C56.1469 3.61953 56.3067 3.70681 56.4825 3.75861C56.6582 3.81042 56.8453 3.82533 57.0287 3.80218H61.5303C61.7749 3.77125 62.0243 3.7911 62.2587 3.86015C62.4932 3.92921 62.7061 4.04556 62.8809 4.20001C63.0556 4.35446 63.1872 4.54275 63.2653 4.74998C63.3435 4.9572 63.366 5.17766 63.3309 5.39388C63.366 5.6101 63.3435 5.83056 63.2653 6.03778C63.1872 6.245 63.0556 6.4333 62.8809 6.58775C62.7061 6.74219 62.4932 6.85856 62.2587 6.92761C62.0243 6.99666 61.7749 7.01651 61.5303 6.98558H57.0296ZM66.5633 6.98558V4.19757H73.7678V6.98558H74.2179V1.01671H73.7678V3.80472H66.5633V1.01671H66.1132V6.98558H66.5633ZM78.7969 6.98558C78.5524 7.01621 78.3033 6.99615 78.069 6.92697C77.8349 6.85779 77.6221 6.74138 77.4477 6.58697C77.2732 6.43256 77.1417 6.24438 77.0637 6.0373C76.9857 5.83022 76.9632 5.60994 76.9982 5.39388V2.60587C76.9631 2.38965 76.9856 2.1692 77.0638 1.96197C77.1418 1.75475 77.2735 1.56645 77.4482 1.41201C77.623 1.25755 77.8359 1.14119 78.0704 1.07214C78.3048 1.00309 78.5542 0.983246 78.7988 1.01418H83.306C83.5507 0.983246 83.8001 1.00309 84.0345 1.07214C84.269 1.14119 84.4819 1.25755 84.6567 1.41201C84.8314 1.56645 84.963 1.75475 85.0411 1.96197C85.1193 2.1692 85.1418 2.38965 85.1068 2.60587V5.39388C85.1418 5.6101 85.1193 5.83056 85.0411 6.03778C84.963 6.245 84.8314 6.4333 84.6567 6.58775C84.4819 6.7422 84.269 6.85856 84.0345 6.92761C83.8001 6.99666 83.5507 7.01651 83.306 6.98558H78.7969ZM77.4957 5.87676C77.4371 5.72136 77.4202 5.55604 77.4464 5.39388L77.454 2.60841C77.4278 2.44625 77.4447 2.28093 77.5033 2.12553C77.5619 1.97013 77.6606 1.82893 77.7917 1.7131C77.9227 1.59727 78.0825 1.51001 78.2583 1.4582C78.434 1.4064 78.6211 1.39148 78.8045 1.41463H83.3061C83.4893 1.39157 83.676 1.40646 83.8516 1.45814C84.0271 1.50981 84.1867 1.59684 84.3176 1.71237C84.4486 1.82789 84.5474 1.96875 84.6062 2.12381C84.665 2.27887 84.6822 2.44391 84.6566 2.60587V5.39388C84.6828 5.55604 84.6659 5.72136 84.6073 5.87676C84.5487 6.03215 84.45 6.17336 84.319 6.28918C84.1879 6.40501 84.0281 6.49228 83.8524 6.54409C83.6766 6.59589 83.4896 6.6108 83.3061 6.58766H78.7969C78.6134 6.6108 78.4264 6.59589 78.2506 6.54409C78.0749 6.49228 77.915 6.40501 77.784 6.28918C77.653 6.17336 77.5543 6.03215 77.4957 5.87676ZM94.1835 1.01671C94.4281 0.98578 94.6775 1.00563 94.9119 1.07468C95.1463 1.14372 95.3593 1.26009 95.5341 1.41454C95.709 1.56899 95.8409 1.75728 95.9183 1.96451C95.9967 2.17173 96.0187 2.39219 95.9843 2.60841C96.0187 2.82463 95.9967 3.04509 95.9183 3.2523C95.8409 3.45953 95.709 3.64783 95.5341 3.80228C95.3593 3.95672 95.1463 4.07308 94.9119 4.14213C94.6775 4.21119 94.4281 4.23104 94.1835 4.20011H88.3334V6.98811H87.8832V1.01924L94.1835 1.01671ZM95.4847 2.12553C95.5437 2.28093 95.5599 2.44625 95.5341 2.60841H95.5398C95.5656 2.77089 95.5494 2.93656 95.4903 3.09225C95.4314 3.24794 95.3324 3.38936 95.2009 3.50526C95.0694 3.62116 94.9091 3.70835 94.7329 3.7599C94.5566 3.81144 94.3691 3.82591 94.1854 3.80218H88.3334V1.41463H94.1835C94.3669 1.39148 94.554 1.4064 94.7297 1.4582C94.9055 1.51001 95.0653 1.59727 95.1963 1.7131C95.3274 1.82893 95.4261 1.97013 95.4847 2.12553Z" fill="white"/>
<path d="M7.32403 1.01671L7.32374 1.51671L7.35537 1.51673L7.38675 1.51276L7.32403 1.01671ZM8.05245 1.07468L8.19373 0.59505L8.19372 0.595048L8.05245 1.07468ZM2.81671 1.01418L2.75399 1.51023L2.78508 1.51416L2.81643 1.51418L2.81671 1.01418ZM2.08829 1.07214L2.22956 1.55177L2.08829 1.07214ZM1.46613 1.41201L1.79727 1.78664L1.79729 1.78662L1.46613 1.41201ZM1.08165 1.96197L0.613797 1.78559L0.61379 1.78561L1.08165 1.96197ZM1.01608 2.60587H1.51608V2.56568L1.50966 2.526L1.01608 2.60587ZM1.01608 5.39388L1.50964 5.47387L1.51608 5.43413V5.39388H1.01608ZM1.0817 6.03827L1.54953 5.8618L1.0817 6.03827ZM1.46669 6.58853L1.13573 6.96331L1.13574 6.96332L1.46669 6.58853ZM2.08959 6.92825L2.23049 6.44851L2.23048 6.44851L2.08959 6.92825ZM2.81862 6.98558V6.48558H2.78686L2.75536 6.4896L2.81862 6.98558ZM7.32403 6.98558L7.38554 6.48938L7.3549 6.48558H7.32403V6.98558ZM8.0504 6.9264L7.90847 6.44696L7.90846 6.44697L8.0504 6.9264ZM8.67059 6.58695L9.00183 6.96148L9.00184 6.96147L8.67059 6.58695ZM9.05428 6.03854L9.52194 6.21542L9.52195 6.2154L9.05428 6.03854ZM9.12083 5.39642H8.62083V5.43599L8.62706 5.47507L9.12083 5.39642ZM9.12083 3.80472H9.62083V3.30472H9.12083V3.80472ZM4.61925 3.80472V3.30472H4.11925V3.80472H4.61925ZM4.61925 4.20264H4.11925V4.70264H4.61925V4.20264ZM8.6745 4.20264H9.1745V3.70264H8.6745V4.20264ZM8.6745 5.39642H8.1745V5.43653L8.18089 5.47613L8.6745 5.39642ZM8.33684 6.29171L8.00571 5.91708L8.00568 5.91711L8.33684 6.29171ZM7.32403 6.59019L7.38662 6.09412L7.35545 6.09019H7.32403V6.59019ZM2.81862 6.59019V6.09019H2.7872L2.75602 6.09412L2.81862 6.59019ZM2.27235 6.54662L2.13101 7.02623L2.13102 7.02623L2.27235 6.54662ZM1.8058 6.29171L2.13695 5.91709H2.13695L1.8058 6.29171ZM1.46815 5.39642L1.96175 5.47616L1.96815 5.43654V5.39642H1.46815ZM1.46815 2.60841H1.96815V2.56828L1.96175 2.52867L1.46815 2.60841ZM1.51744 2.12553L1.0496 1.94908L1.0496 1.94909L1.51744 2.12553ZM1.8058 1.7131L1.47465 1.33848L1.47463 1.3385L1.8058 1.7131ZM2.27235 1.4582L2.13102 0.978595L2.13101 0.978597L2.27235 1.4582ZM2.81862 1.41463L2.756 1.9107L2.78719 1.91463H2.81862V1.41463ZM7.32403 1.41463V1.91463H7.3549L7.38555 1.91084L7.32403 1.41463ZM7.86937 1.45916L8.01147 0.979778L8.01147 0.979776L7.86937 1.45916ZM8.62242 2.12625L9.09032 1.94999V1.94999L8.62242 2.12625ZM8.67163 2.60841L8.17799 2.52889L8.08465 3.10841H8.67163V2.60841ZM9.12466 2.60841V3.10841H9.55025L9.61824 2.68828L9.12466 2.60841ZM9.05907 1.96451L8.59121 2.14087L8.59122 2.14089L9.05907 1.96451ZM8.6746 1.41454L8.34344 1.78915L8.34345 1.78916L8.6746 1.41454ZM18.209 1.01671L18.2093 1.51671L18.2406 1.51669L18.2717 1.51276L18.209 1.01671ZM18.9375 1.07468L18.7962 1.55431L18.9375 1.07468ZM11.903 1.02009L11.9027 0.52009L11.403 0.520357V1.02009H11.903ZM11.903 6.98896H11.403V7.48896H11.903V6.98896ZM12.3531 6.98896V7.48896H12.8531V6.98896H12.3531ZM12.3531 4.20095V3.70095H11.8531V4.20095H12.3531ZM18.2071 4.20095V4.70095H18.2385L18.2697 4.69702L18.2071 4.20095ZM19.5083 4.91184L19.9762 4.73546L19.9762 4.73545L19.5083 4.91184ZM19.5576 5.39473L19.064 5.31473L19.0576 5.35447V5.39473H19.5576ZM19.5576 6.98642H19.0576V7.48642H19.5576V6.98642ZM20.0096 6.98642V7.48642H20.5096V6.98642H20.0096ZM20.0096 5.39473L19.5144 5.32584L19.5096 5.36012V5.39473H20.0096ZM19.8633 4.60123L19.4233 4.83874L19.4233 4.83875L19.8633 4.60123ZM19.2575 4.00157L19.0159 3.5638L18.2226 4.00158L19.0159 4.43934L19.2575 4.00157ZM19.8633 3.40191L19.4233 3.16438L19.4233 3.16438L19.8633 3.40191ZM20.0096 2.60841L19.5161 2.52834L19.504 2.60269L19.5144 2.67729L20.0096 2.60841ZM19.9441 1.96451L19.4762 2.14081L19.4763 2.141L19.9441 1.96451ZM19.5597 1.41454L19.8908 1.03993L19.8907 1.03985L19.5597 1.41454ZM19.5083 2.12553L19.9762 1.94914L19.9762 1.94914L19.5083 2.12553ZM19.5576 2.60841L19.064 2.52841L19.051 2.60837L19.064 2.68833L19.5576 2.60841ZM18.2071 1.41463V1.91463H18.2385L18.2697 1.9107L18.2071 1.41463ZM12.3531 1.41463V0.914635H11.8531V1.41463H12.3531ZM12.3531 3.80218H11.8531V4.30218H12.3531V3.80218ZM18.2052 3.80218L18.2685 3.30621L18.237 3.30218H18.2052V3.80218ZM18.7521 3.75926L18.6112 3.2795L18.6112 3.27951L18.7521 3.75926ZM19.2194 3.50448L19.5502 3.87941L19.5504 3.87929L19.2194 3.50448ZM19.5083 3.09176L19.0405 2.91501L19.0404 2.91528L19.5083 3.09176ZM24.5896 6.98558V6.48558H24.5581L24.5269 6.48953L24.5896 6.98558ZM23.8612 6.92761L24.0025 6.44798L24.0025 6.44798L23.8612 6.92761ZM29.0912 6.98558L29.1539 6.48953L29.1226 6.48558H29.0912V6.98558ZM29.8196 6.92761L29.6784 6.44798L29.6784 6.44798L29.8196 6.92761ZM30.4418 6.58775L30.7729 6.96245L30.773 6.96236L30.4418 6.58775ZM30.8262 6.03778L30.3584 5.86129L30.3584 5.86147L30.8262 6.03778ZM30.8918 5.39388H30.3918V5.43417L30.3983 5.47395L30.8918 5.39388ZM30.8918 2.60587L30.3983 2.52581L30.3918 2.56558V2.60587H30.8918ZM30.8262 1.96197L30.3584 2.13828L30.3584 2.13846L30.8262 1.96197ZM30.4418 1.41201L30.773 1.0374L30.7729 1.03732L30.4418 1.41201ZM29.8196 1.07214L29.9609 0.592511L29.8196 1.07214ZM29.0912 1.01418V1.51418H29.1226L29.1539 1.51023L29.0912 1.01418ZM24.5896 1.01418L24.5269 1.51022L24.5581 1.51418H24.5896V1.01418ZM23.8612 1.07214L23.72 0.592511L23.8612 1.07214ZM23.239 1.41201L22.9079 1.03732L22.9079 1.0374L23.239 1.41201ZM22.8546 1.96197L23.3224 2.13846L23.3225 2.13828L22.8546 1.96197ZM22.789 2.60587H23.289V2.56569L23.2825 2.52602L22.789 2.60587ZM22.789 5.39388L23.2825 5.47373L23.289 5.43406V5.39388H22.789ZM22.8546 6.03778L23.3225 5.86147L23.3224 5.86129L22.8546 6.03778ZM23.239 6.58775L22.9079 6.96236L22.908 6.96245L23.239 6.58775ZM23.2865 5.87676L22.8187 6.05314L22.8187 6.05315L23.2865 5.87676ZM23.2372 5.39388L23.7308 5.47359L23.7372 5.43399V5.39388H23.2372ZM23.5749 6.28918L23.906 5.91456L23.906 5.91454L23.5749 6.28918ZM24.0415 6.54409L24.1828 6.06449V6.06449L24.0415 6.54409ZM24.5877 6.58765V6.08765H24.5562L24.5251 6.09159L24.5877 6.58765ZM29.0893 6.58765L29.1518 6.09159L29.1207 6.08765H29.0893V6.58765ZM29.6356 6.54409L29.4942 6.06449V6.06449L29.6356 6.54409ZM30.1022 6.28918L29.771 5.91455L29.771 5.91456L30.1022 6.28918ZM30.3905 5.87676L30.8584 6.05315L30.8584 6.05314L30.3905 5.87676ZM30.4397 5.39388H29.9397V5.43414L29.9462 5.47388L30.4397 5.39388ZM30.4397 2.60587L29.9462 2.52588L29.9397 2.56562V2.60587H30.4397ZM30.3905 2.12299L30.8584 1.94661L30.8584 1.9466L30.3905 2.12299ZM30.1022 1.71057L30.4333 1.33595L30.4333 1.33595L30.1022 1.71057ZM29.0893 1.4121V1.9121H29.1207L29.1519 1.90817L29.0893 1.4121ZM24.5877 1.4121L24.525 1.90816L24.5562 1.9121H24.5877V1.4121ZM23.5749 1.71057L23.906 2.08519L23.906 2.08519L23.5749 1.71057ZM23.2865 2.12299L22.8187 1.9466L22.8187 1.94661L23.2865 2.12299ZM23.2372 2.60587H23.7372V2.56576L23.7308 2.52616L23.2372 2.60587ZM41.3248 5.39388H40.8248V5.43413L40.8312 5.47387L41.3248 5.39388ZM41.3248 1.01671V0.51671H40.8248V1.01671H41.3248ZM41.2755 5.87676L40.8077 5.70036L40.8077 5.70037L41.2755 5.87676ZM40.9872 6.28918L40.6561 5.91455L40.656 5.91456L40.9872 6.28918ZM40.5206 6.54409L40.662 7.02369L40.662 7.02369L40.5206 6.54409ZM39.9744 6.58766L40.037 6.09159L40.0058 6.08766H39.9744V6.58766ZM35.4727 6.58766V6.08766H35.4413L35.4101 6.09159L35.4727 6.58766ZM34.9265 6.54409L34.7851 7.02369L34.7851 7.02369L34.9265 6.54409ZM34.4599 6.28918L34.791 5.91456L34.791 5.91455L34.4599 6.28918ZM34.1715 5.87676L33.7037 6.05314L33.7037 6.05316L34.1715 5.87676ZM34.1223 5.39388L34.6159 5.47388L34.6223 5.43414V5.39388H34.1223ZM34.1223 1.01671H34.6223V0.51671H34.1223V1.01671ZM33.6721 1.01671V0.51671H33.1721V1.01671H33.6721ZM33.6721 5.39388L34.1657 5.47373L34.1721 5.43407V5.39388H33.6721ZM33.7377 6.03778L34.2056 5.86147L34.2055 5.86129L33.7377 6.03778ZM34.1221 6.58775L33.791 6.96236L33.7911 6.96245L34.1221 6.58775ZM34.7443 6.92761L34.8856 6.44798L34.8856 6.44798L34.7443 6.92761ZM35.4727 6.98558V6.48558H35.4412L35.41 6.48953L35.4727 6.98558ZM39.9744 6.98558L40.0371 6.48953L40.0059 6.48558H39.9744V6.98558ZM40.7028 6.92761L40.5615 6.44798L40.5615 6.44798L40.7028 6.92761ZM41.325 6.58775L41.656 6.96245L41.6561 6.96236L41.325 6.58775ZM41.7094 6.03778L41.2415 5.86129L41.2415 5.86148L41.7094 6.03778ZM41.775 5.39388H41.275V5.43407L41.2814 5.47373L41.775 5.39388ZM41.775 1.01671H42.275V0.51671H41.775V1.01671ZM51.5868 1.07468L51.4456 1.55431V1.55431L51.5868 1.07468ZM50.8585 1.01671L50.8587 1.51671L50.89 1.5167L50.9212 1.51276L50.8585 1.01671ZM52.209 1.41454L52.5402 1.03993L52.5401 1.03985L52.209 1.41454ZM52.5934 1.96451L52.1255 2.14081L52.1256 2.141L52.5934 1.96451ZM52.6591 2.60841L52.1655 2.52856L52.1526 2.60841L52.1655 2.68826L52.6591 2.60841ZM52.5934 3.2523L52.1256 3.0758L52.1255 3.076L52.5934 3.2523ZM52.209 3.80228L52.5401 4.17697L52.5402 4.17689L52.209 3.80228ZM51.5868 4.14213L51.4456 3.6625L51.4456 3.66251L51.5868 4.14213ZM50.8585 4.20011L50.9212 3.70406L50.8899 3.70011H50.8585V4.20011ZM45.0064 4.20011V3.70011H44.5064V4.20011H45.0064ZM45.0064 6.98811V7.48811H45.5064V6.98811H45.0064ZM44.5561 6.98811H44.0561V7.48811H44.5561V6.98811ZM44.5561 1.01924L44.5559 0.519245L44.0561 0.519446V1.01924H44.5561ZM52.2088 2.60841L51.7153 2.52841L51.6213 3.10841H52.2088V2.60841ZM52.1596 2.12553L52.6275 1.94915L52.6275 1.94914L52.1596 2.12553ZM52.2098 2.60841L52.7034 2.52845L52.6353 2.10841H52.2098V2.60841ZM52.1606 3.09153L52.6284 3.2681L52.6284 3.26784L52.1606 3.09153ZM51.8719 3.50409L51.5409 3.12938L51.5409 3.12938L51.8719 3.50409ZM51.405 3.75893L51.2639 3.27925L51.2638 3.27926L51.405 3.75893ZM50.8585 3.80218L50.9214 3.30616L50.8901 3.30218H50.8585V3.80218ZM45.0064 3.80218H44.5064V4.30218H45.0064V3.80218ZM45.0064 1.41463V0.914635H44.5064V1.41463H45.0064ZM50.8585 1.41463V1.91463H50.8899L50.9211 1.9107L50.8585 1.41463ZM51.4047 1.4582L51.2633 1.9378V1.9378L51.4047 1.4582ZM56.3013 6.92761L56.4425 6.44798L56.4425 6.44798L56.3013 6.92761ZM57.0296 6.98558V6.48558H56.9981L56.9669 6.48953L57.0296 6.98558ZM55.6791 6.58775L55.3479 6.96236L55.348 6.96245L55.6791 6.58775ZM55.2947 6.03778L55.7625 5.86147L55.7625 5.86129L55.2947 6.03778ZM55.229 5.39388V4.89388H54.8034L54.7354 5.31403L55.229 5.39388ZM55.6793 5.39388L56.1728 5.47388L56.2668 4.89388H55.6793V5.39388ZM55.7285 5.87676L55.2606 6.05314L55.2606 6.05315L55.7285 5.87676ZM56.0168 6.28918L56.348 5.91456L56.348 5.91455L56.0168 6.28918ZM56.4834 6.54409L56.6248 6.06449L56.6248 6.06449L56.4834 6.54409ZM57.0296 6.58765V6.08765H56.9982L56.967 6.09159L57.0296 6.58765ZM61.5313 6.58765L61.5939 6.09159L61.5627 6.08765H61.5313V6.58765ZM62.0775 6.54409L61.9362 6.06449L61.9362 6.06449L62.0775 6.54409ZM62.5441 6.28918L62.213 5.91454L62.213 5.91456L62.5441 6.28918ZM62.8325 5.87676L63.3003 6.05315L63.3003 6.05314L62.8325 5.87676ZM62.8818 5.39388L62.3882 5.31418L62.3753 5.39388L62.3882 5.47358L62.8818 5.39388ZM62.8325 4.911L63.3003 4.73462L63.3003 4.7346L62.8325 4.911ZM62.5441 4.49858L62.8753 4.12396L62.8753 4.12395L62.5441 4.49858ZM61.5313 4.20011V4.70011H61.5627L61.5939 4.69617L61.5313 4.20011ZM57.0296 4.20011V3.70011H56.9981L56.9669 3.70406L57.0296 4.20011ZM56.3013 4.14213L56.4425 3.66251L56.4425 3.6625L56.3013 4.14213ZM55.6791 3.80228L55.3479 4.17688L55.348 4.17698L55.6791 3.80228ZM55.2947 3.2523L55.7625 3.07599L55.7625 3.07581L55.2947 3.2523ZM55.229 2.60841L55.7226 2.68826L55.7355 2.60841L55.7226 2.52856L55.229 2.60841ZM55.2947 1.96451L55.7625 2.141L55.7625 2.14081L55.2947 1.96451ZM55.6791 1.41454L55.348 1.03985L55.3479 1.03993L55.6791 1.41454ZM56.3013 1.07468L56.16 0.595045V0.595045L56.3013 1.07468ZM57.0296 1.01671L56.9669 1.51276L56.9981 1.51671H57.0296V1.01671ZM61.5313 1.01671V1.51671H61.5627L61.5938 1.51279L61.5313 1.01671ZM62.2594 1.075L62.4009 0.595435L62.4008 0.59542L62.2594 1.075ZM62.8812 1.41492L63.2125 1.04047L63.2125 1.04039L62.8812 1.41492ZM63.2654 1.96475L63.7334 1.78858L63.7333 1.78839L63.2654 1.96475ZM63.3309 2.60841V3.10841H63.7565L63.8245 2.68829L63.3309 2.60841ZM62.8807 2.60841L62.3872 2.52841L62.2932 3.10841H62.8807V2.60841ZM62.8315 2.12553L63.2994 1.94914L63.2994 1.94914L62.8315 2.12553ZM62.5432 1.7131L62.8743 1.33849L62.8743 1.33848L62.5432 1.7131ZM62.0766 1.4582L62.2179 0.978603L62.2179 0.978603L62.0766 1.4582ZM61.5303 1.41463V1.91463H61.5618L61.593 1.9107L61.5303 1.41463ZM57.0287 1.41463L56.966 1.9107L56.9972 1.91463H57.0287V1.41463ZM56.4825 1.4582L56.3411 0.978603L56.3411 0.978603L56.4825 1.4582ZM56.0159 1.7131L56.347 2.08772L56.347 2.08772L56.0159 1.7131ZM55.7275 2.12553L56.1954 2.30192V2.30191L55.7275 2.12553ZM55.6783 2.60841L56.1719 2.68841L56.1848 2.60841L56.1719 2.52841L55.6783 2.60841ZM55.7275 3.09128L56.1954 2.91489L56.1954 2.91488L55.7275 3.09128ZM56.0159 3.50371L56.347 3.12909L56.347 3.12907L56.0159 3.50371ZM57.0287 3.80218V3.30218H56.9972L56.9661 3.30612L57.0287 3.80218ZM61.5303 3.80218V4.30218H61.5618L61.5931 4.29823L61.5303 3.80218ZM62.2587 3.86015L62.4 3.38052L62.4 3.38052L62.2587 3.86015ZM62.8809 4.20001L63.2121 3.82541L63.212 3.82533L62.8809 4.20001ZM63.2653 4.74998L62.7974 4.92629L62.7975 4.92647L63.2653 4.74998ZM63.3309 5.39388L62.8373 5.31382L62.8244 5.39388L62.8373 5.47395L63.3309 5.39388ZM63.2653 6.03778L62.7975 5.86129L62.7974 5.86147L63.2653 6.03778ZM62.8809 6.58775L63.212 6.96245L63.2121 6.96236L62.8809 6.58775ZM62.2587 6.92761L62.1175 6.44798L62.1175 6.44798L62.2587 6.92761ZM61.5303 6.98558L61.5931 6.48953L61.5618 6.48558H61.5303V6.98558ZM66.5633 4.19757V3.69757H66.0633V4.19757H66.5633ZM66.5633 6.98558V7.48558H67.0633V6.98558H66.5633ZM73.7678 4.19757H74.2678V3.69757H73.7678V4.19757ZM73.7678 6.98558H73.2678V7.48558H73.7678V6.98558ZM74.2179 6.98558V7.48558H74.7179V6.98558H74.2179ZM74.2179 1.01671H74.7179V0.51671H74.2179V1.01671ZM73.7678 1.01671V0.51671H73.2678V1.01671H73.7678ZM73.7678 3.80472V4.30472H74.2678V3.80472H73.7678ZM66.5633 3.80472H66.0633V4.30472H66.5633V3.80472ZM66.5633 1.01671H67.0633V0.51671H66.5633V1.01671ZM66.1132 1.01671V0.51671H65.6132V1.01671H66.1132ZM66.1132 6.98558H65.6132V7.48558H66.1132V6.98558ZM78.069 6.92697L77.9273 7.40648L77.9274 7.4065L78.069 6.92697ZM78.7969 6.98558V6.48558H78.7657L78.7348 6.48946L78.7969 6.98558ZM77.4477 6.58697L77.7791 6.2126L77.779 6.21251L77.4477 6.58697ZM77.0637 6.0373L76.5957 6.21352V6.21353L77.0637 6.0373ZM76.9982 5.39388L77.4918 5.47379L77.4982 5.43409V5.39388H76.9982ZM76.9982 2.60587H77.4982V2.56558L77.4917 2.5258L76.9982 2.60587ZM77.0638 1.96197L77.5316 2.13848L77.5317 2.13826L77.0638 1.96197ZM77.4482 1.41201L77.1171 1.03732L77.117 1.0374L77.4482 1.41201ZM78.0704 1.07214L77.9291 0.592511L78.0704 1.07214ZM78.7988 1.01418L78.7361 1.51023L78.7673 1.51418H78.7988V1.01418ZM83.306 1.01418V1.51418H83.3375L83.3688 1.51023L83.306 1.01418ZM84.0345 1.07214L84.1758 0.592511L84.1758 0.59251L84.0345 1.07214ZM84.6567 1.41201L84.9879 1.0374L84.9878 1.03732L84.6567 1.41201ZM85.0411 1.96197L84.5732 2.13828L84.5733 2.13846L85.0411 1.96197ZM85.1068 2.60587L84.6132 2.52602L84.6068 2.56569V2.60587H85.1068ZM85.1068 5.39388H84.6068V5.43406L84.6132 5.47373L85.1068 5.39388ZM85.0411 6.03778L84.5733 5.86129L84.5732 5.86147L85.0411 6.03778ZM84.6567 6.58775L84.9878 6.96245L84.9879 6.96235L84.6567 6.58775ZM84.0345 6.92761L83.8933 6.44798L83.8932 6.44798L84.0345 6.92761ZM83.306 6.98558L83.3688 6.48953L83.3375 6.48558H83.306V6.98558ZM77.4464 5.39388L77.94 5.47388L77.9463 5.43481L77.9464 5.39524L77.4464 5.39388ZM77.4957 5.87676L77.0278 6.05314V6.05315L77.4957 5.87676ZM77.454 2.60841L77.954 2.60976L77.9541 2.56897L77.9476 2.52871L77.454 2.60841ZM77.5033 2.12553L77.0355 1.94912L77.0355 1.94915L77.5033 2.12553ZM78.2583 1.4582L78.3996 1.9378L78.3996 1.9378L78.2583 1.4582ZM78.8045 1.41463L78.7418 1.9107L78.773 1.91463H78.8045V1.41463ZM83.3061 1.41463V1.91463H83.3374L83.3685 1.91072L83.3061 1.41463ZM83.8516 1.45814L83.9928 0.978498L83.9928 0.978476L83.8516 1.45814ZM84.3176 1.71237L83.9868 2.0873L83.9868 2.08731L84.3176 1.71237ZM84.6062 2.12381L84.1386 2.30103L84.1387 2.30129L84.6062 2.12381ZM84.6566 2.60587L84.1628 2.52776L84.1566 2.56657V2.60587H84.6566ZM84.6566 5.39388H84.1566V5.434L84.163 5.47361L84.6566 5.39388ZM84.6073 5.87676L84.1395 5.70035V5.70037L84.6073 5.87676ZM84.319 6.28918L83.9878 5.91455L83.9878 5.91456L84.319 6.28918ZM83.8524 6.54409L83.711 6.06449L83.711 6.06449L83.8524 6.54409ZM83.3061 6.58766L83.3686 6.09159L83.3375 6.08766H83.3061V6.58766ZM78.7969 6.58766V6.08766H78.7655L78.7343 6.09159L78.7969 6.58766ZM78.2506 6.54409L78.1092 7.02369L78.1093 7.02369L78.2506 6.54409ZM77.784 6.28918L78.1152 5.91457L78.1152 5.91455L77.784 6.28918ZM94.9119 1.07468L95.0532 0.595045L95.0532 0.595044L94.9119 1.07468ZM94.1835 1.01671L94.1837 1.51671L94.2151 1.5167L94.2463 1.51276L94.1835 1.01671ZM95.5341 1.41454L95.203 1.78924L95.2031 1.78933L95.5341 1.41454ZM95.9183 1.96451L95.4499 2.13949L95.4506 2.14137L95.9183 1.96451ZM95.9843 2.60841L95.4905 2.52983L95.478 2.60841L95.4905 2.68699L95.9843 2.60841ZM95.9183 3.2523L95.4506 3.07543L95.4499 3.07732L95.9183 3.2523ZM95.5341 3.80228L95.2031 3.42749L95.203 3.42757L95.5341 3.80228ZM94.9119 4.14213L94.7706 3.6625L94.7706 3.66251L94.9119 4.14213ZM94.1835 4.20011L94.2463 3.70406L94.215 3.70011H94.1835V4.20011ZM88.3334 4.20011V3.70011H87.8334V4.20011H88.3334ZM88.3334 6.98811V7.48811H88.8334V6.98811H88.3334ZM87.8832 6.98811H87.3832V7.48811H87.8832V6.98811ZM87.8832 1.01924L87.883 0.519245L87.3832 0.519446V1.01924H87.8832ZM95.5341 2.60841L95.0403 2.52984L94.9483 3.10841H95.5341V2.60841ZM95.4847 2.12553L95.0168 2.30192L95.0172 2.30291L95.4847 2.12553ZM95.5398 2.60841L96.0336 2.52997L95.9667 2.10841H95.5398V2.60841ZM95.4903 3.09225L95.0228 2.9149L95.0227 2.9154L95.4903 3.09225ZM95.2009 3.50526L94.8703 3.13014V3.13015L95.2009 3.50526ZM94.7329 3.7599L94.8732 4.23982L94.8733 4.23979L94.7329 3.7599ZM94.1854 3.80218L94.2495 3.3063L94.2176 3.30218H94.1854V3.80218ZM88.3334 3.80218H87.8334V4.30218H88.3334V3.80218ZM88.3334 1.41463V0.914635H87.8334V1.41463H88.3334ZM94.1835 1.41463V1.91463H94.215L94.2462 1.9107L94.1835 1.41463ZM94.7297 1.4582L94.8711 0.978604L94.8711 0.978602L94.7297 1.4582ZM95.1963 1.7131L94.8652 2.08771L94.8652 2.08772L95.1963 1.7131ZM7.38675 1.51276C7.56358 1.4904 7.74349 1.50491 7.91118 1.5543L8.19372 0.595048C7.89255 0.50634 7.57368 0.48116 7.2613 0.52066L7.38675 1.51276ZM2.81643 1.51418L7.32374 1.51671L7.32431 0.51671L2.81699 0.514176L2.81643 1.51418ZM2.22956 1.55177C2.39724 1.50238 2.57716 1.48787 2.75399 1.51023L2.87944 0.518126C2.56705 0.478625 2.24818 0.503805 1.94701 0.592514L2.22956 1.55177ZM1.79729 1.78662C1.91454 1.68297 2.06191 1.60115 2.22956 1.55177L1.94701 0.592514C1.64582 0.681231 1.36717 0.832132 1.13497 1.0374L1.79729 1.78662ZM1.54951 2.13835C1.59737 2.01141 1.68026 1.89007 1.79727 1.78664L1.13499 1.03738C0.902547 1.24284 0.722187 1.49808 0.613797 1.78559L1.54951 2.13835ZM1.50966 2.526C1.48878 2.39697 1.50184 2.2648 1.54952 2.13833L0.61379 1.78561C0.505237 2.07359 0.473402 2.38234 0.522501 2.68575L1.50966 2.526ZM1.51608 5.39388V2.60587H0.51608V5.39388H1.51608ZM1.54953 5.8618C1.50179 5.73525 1.48872 5.60299 1.50964 5.47387L0.522519 5.3139C0.473311 5.61754 0.505175 5.92655 0.613876 6.21473L1.54953 5.8618ZM1.79764 6.21374C1.68045 6.11025 1.59744 5.98881 1.54953 5.8618L0.613876 6.21473C0.722405 6.50245 0.903024 6.75782 1.13573 6.96331L1.79764 6.21374ZM2.23048 6.44851C2.06263 6.39921 1.91505 6.3174 1.79763 6.21373L1.13574 6.96332C1.36822 7.16861 1.6472 7.31944 1.94869 7.40799L2.23048 6.44851ZM2.75536 6.4896C2.57843 6.51217 2.39834 6.49781 2.23049 6.44851L1.94868 7.40798C2.25016 7.49653 2.56932 7.52143 2.88188 7.48156L2.75536 6.4896ZM7.32403 6.48558H2.81862V7.48558H7.32403V6.48558ZM7.90846 6.44697C7.74135 6.49644 7.56197 6.51125 7.38554 6.48938L7.26251 7.48178C7.57416 7.52042 7.8921 7.49471 8.19233 7.40583L7.90846 6.44697ZM8.33935 6.21241C8.22244 6.3158 8.07557 6.3975 7.90847 6.44696L8.19232 7.40583C8.49258 7.31695 8.77031 7.16624 9.00183 6.96148L8.33935 6.21241ZM8.58661 5.86165C8.53873 5.98824 8.456 6.10923 8.33934 6.21242L9.00184 6.96147C9.23359 6.75651 9.41354 6.50204 9.52194 6.21542L8.58661 5.86165ZM8.62706 5.47507C8.64756 5.60377 8.6343 5.73556 8.5866 5.86167L9.52195 6.2154C9.63052 5.92832 9.66283 5.62047 9.61461 5.31776L8.62706 5.47507ZM8.62083 3.80472V5.39642H9.62083V3.80472H8.62083ZM4.61925 4.30472H9.12083V3.30472H4.61925V4.30472ZM5.11925 4.20264V3.80472H4.11925V4.20264H5.11925ZM8.6745 3.70264H4.61925V4.70264H8.6745V3.70264ZM9.1745 5.39642V4.20264H8.1745V5.39642H9.1745ZM9.09304 6.05573C9.1821 5.8196 9.20837 5.56601 9.1681 5.3167L8.18089 5.47613C8.19301 5.55114 8.18553 5.62819 8.15738 5.70285L9.09304 6.05573ZM8.66798 6.66634C8.85671 6.49952 9.00417 6.29139 9.09304 6.05573L8.15738 5.70285C8.12904 5.77798 8.07904 5.85226 8.00571 5.91708L8.66798 6.66634ZM8.01163 7.02623C8.25415 6.95475 8.47952 6.83295 8.66801 6.66632L8.00568 5.91711C7.93212 5.98213 7.838 6.03487 7.72894 6.06701L8.01163 7.02623ZM7.26143 7.08626C7.51262 7.11795 7.7691 7.0977 8.01163 7.02623L7.72894 6.06701C7.61989 6.09915 7.50232 6.10872 7.38662 6.09412L7.26143 7.08626ZM2.81862 7.09019H7.32403V6.09019H2.81862V7.09019ZM2.13102 7.02623C2.37355 7.0977 2.63003 7.11795 2.88122 7.08626L2.75602 6.09412C2.64033 6.10872 2.52276 6.09915 2.41369 6.06701L2.13102 7.02623ZM1.47465 6.66633C1.66313 6.83295 1.88848 6.95475 2.13101 7.02623L2.4137 6.06701C2.30465 6.03488 2.21053 5.98214 2.13695 5.91709L1.47465 6.66633ZM1.0496 6.05573C1.13848 6.29139 1.28593 6.49952 1.47465 6.66633L2.13695 5.91709C2.06361 5.85227 2.01361 5.77798 1.98527 5.70285L1.0496 6.05573ZM0.974549 5.31667C0.934267 5.56602 0.960553 5.81962 1.0496 6.05573L1.98527 5.70285C1.95711 5.62818 1.94964 5.55113 1.96175 5.47616L0.974549 5.31667ZM0.968149 2.60841V5.39642H1.96815V2.60841H0.968149ZM1.0496 1.94909C0.960555 2.18521 0.934266 2.4388 0.974549 2.68815L1.96175 2.52867C1.94964 2.4537 1.95711 2.37665 1.98527 2.30196L1.0496 1.94909ZM1.47463 1.3385C1.28594 1.50531 1.13848 1.71342 1.0496 1.94908L1.98527 2.30197C2.0136 2.22685 2.06361 2.15256 2.13696 2.08771L1.47463 1.3385ZM2.13101 0.978597C1.88849 1.05007 1.66314 1.17186 1.47465 1.33848L2.13695 2.08772C2.21052 2.02269 2.30464 1.96995 2.4137 1.93781L2.13101 0.978597ZM2.88124 0.918572C2.63002 0.886858 2.37354 0.907128 2.13102 0.978595L2.41369 1.93781C2.52277 1.90567 2.64033 1.8961 2.756 1.9107L2.88124 0.918572ZM7.32403 0.914635H2.81862V1.91463H7.32403V0.914635ZM8.01147 0.979776C7.76943 0.908031 7.5134 0.887326 7.2625 0.918434L7.38555 1.91084C7.50111 1.89651 7.61845 1.90628 7.72727 1.93854L8.01147 0.979776ZM8.66636 1.33999C8.47834 1.17344 8.25352 1.05153 8.01147 0.979778L7.72726 1.93854C7.83605 1.97079 7.92991 2.02355 8.00327 2.08853L8.66636 1.33999ZM9.09032 1.94999C9.00167 1.71466 8.85461 1.50675 8.66636 1.33999L8.00327 2.08853C8.0764 2.15331 8.12626 2.22749 8.15452 2.30251L9.09032 1.94999ZM9.16527 2.68792C9.20537 2.43899 9.17915 2.1858 9.09032 1.94999L8.15452 2.30251C8.1826 2.37705 8.19006 2.45398 8.17799 2.52889L9.16527 2.68792ZM9.12466 2.10841H8.67163V3.10841H9.12466V2.10841ZM8.59122 2.14089C8.63889 2.26735 8.65196 2.3995 8.63108 2.52854L9.61824 2.68828C9.66734 2.38487 9.6355 2.07611 9.52693 1.78813L8.59122 2.14089ZM8.34345 1.78916C8.46048 1.8926 8.54337 2.01395 8.59121 2.14087L9.52694 1.78814C9.41855 1.50061 9.23817 1.24537 9.00575 1.03992L8.34345 1.78916ZM7.91117 1.5543C8.07882 1.60368 8.2262 1.68551 8.34344 1.78915L9.00576 1.03993C8.77356 0.834664 8.49491 0.683766 8.19373 0.59505L7.91117 1.5543ZM18.2717 1.51276C18.4486 1.4904 18.6285 1.50491 18.7962 1.55431L19.0787 0.595045C18.7776 0.50634 18.4587 0.481161 18.1463 0.520658L18.2717 1.51276ZM11.9032 1.52009L18.2093 1.51671L18.2087 0.51671L11.9027 0.52009L11.9032 1.52009ZM12.403 6.98896V1.02009H11.403V6.98896H12.403ZM12.3531 6.48896H11.903V7.48896H12.3531V6.48896ZM11.8531 4.20095V6.98896H12.8531V4.20095H11.8531ZM18.2071 3.70095H12.3531V4.70095H18.2071V3.70095ZM18.8948 3.76492C18.6522 3.69344 18.3957 3.67318 18.1445 3.70489L18.2697 4.69702C18.3855 4.68241 18.503 4.69199 18.612 4.72412L18.8948 3.76492ZM19.5511 4.1248C19.3626 3.95814 19.1372 3.83638 18.8948 3.76492L18.612 4.72412C18.7211 4.75628 18.8153 4.80904 18.8888 4.87404L19.5511 4.1248ZM19.9762 4.73545C19.8873 4.49974 19.7399 4.29161 19.5511 4.1248L18.8888 4.87404C18.9622 4.93889 19.0122 5.01316 19.0405 5.08823L19.9762 4.73545ZM20.0511 5.47472C20.0916 5.22513 20.0652 4.97147 19.9762 4.73546L19.0405 5.08823C19.0687 5.16302 19.0761 5.24 19.064 5.31473L20.0511 5.47472ZM20.0576 6.98642V5.39473H19.0576V6.98642H20.0576ZM20.0096 6.48642H19.5576V7.48642H20.0096V6.48642ZM19.5096 5.39473V6.98642H20.5096V5.39473H19.5096ZM19.4233 4.83875C19.5074 4.99439 19.5371 5.16261 19.5144 5.32584L20.5049 5.46361C20.5577 5.08399 20.4857 4.70164 20.3033 4.3637L19.4233 4.83875ZM19.0159 4.43934C19.2004 4.54115 19.3388 4.6822 19.4233 4.83874L20.3033 4.36371C20.1213 4.02665 19.8394 3.75163 19.499 3.5638L19.0159 4.43934ZM19.4233 3.16438C19.3388 3.32092 19.2004 3.46198 19.0159 3.5638L19.499 4.43933C19.8394 4.25149 20.1213 3.97648 20.3033 3.63943L19.4233 3.16438ZM19.5144 2.67729C19.5371 2.84052 19.5074 3.00875 19.4233 3.16438L20.3033 3.63944C20.4857 3.30149 20.5577 2.91913 20.5049 2.53953L19.5144 2.67729ZM19.4763 2.141C19.524 2.26741 19.537 2.39945 19.5161 2.52834L20.5032 2.68847C20.5524 2.38492 20.5206 2.07605 20.4119 1.78801L19.4763 2.141ZM19.2285 1.78915C19.3455 1.89258 19.4284 2.0139 19.4762 2.14081L20.412 1.7882C20.3036 1.50066 20.1233 1.2454 19.8908 1.03993L19.2285 1.78915ZM18.7962 1.55431C18.9638 1.60367 19.1112 1.68548 19.2286 1.78923L19.8907 1.03985C19.6585 0.834691 19.38 0.68378 19.0787 0.595045L18.7962 1.55431ZM19.0405 2.30191C19.0687 2.3767 19.0761 2.45368 19.064 2.52841L20.0511 2.68841C20.0916 2.43881 20.0652 2.18515 19.9762 1.94914L19.0405 2.30191ZM18.8888 2.08772C18.9622 2.15257 19.0122 2.22684 19.0405 2.30192L19.9762 1.94914C19.8873 1.71343 19.7399 1.5053 19.5511 1.33849L18.8888 2.08772ZM18.612 1.9378C18.7211 1.96996 18.8153 2.02272 18.8888 2.08772L19.5511 1.33849C19.3626 1.17183 19.1372 1.05006 18.8948 0.978603L18.612 1.9378ZM18.2697 1.9107C18.3855 1.89609 18.503 1.90567 18.612 1.9378L18.8948 0.978603C18.6522 0.907121 18.3957 0.886863 18.1445 0.918569L18.2697 1.9107ZM12.3531 1.91463H18.2071V0.914635H12.3531V1.91463ZM12.8531 3.80218V1.41463H11.8531V3.80218H12.8531ZM18.2052 3.30218H12.3531V4.30218H18.2052V3.30218ZM18.6112 3.27951C18.5021 3.31155 18.3843 3.321 18.2685 3.30621L18.1419 4.29816C18.3932 4.33026 18.6501 4.3103 18.8929 4.239L18.6112 3.27951ZM18.8886 3.12955C18.8148 3.1947 18.7204 3.24744 18.6112 3.2795L18.8929 4.23901C19.1358 4.16771 19.3614 4.04599 19.5502 3.87941L18.8886 3.12955ZM19.0404 2.91528C19.0121 2.99041 18.962 3.06477 18.8885 3.12967L19.5504 3.87929C19.7393 3.71247 19.887 3.50421 19.9761 3.26825L19.0404 2.91528ZM19.064 2.68833C19.0762 2.7635 19.0687 2.84053 19.0405 2.91501L19.976 3.26852C20.0654 3.03192 20.0915 2.77796 20.0511 2.52849L19.064 2.68833ZM24.5269 6.48953C24.3501 6.51189 24.1702 6.49738 24.0025 6.44798L23.7199 7.40723C24.0211 7.49595 24.34 7.52113 24.6523 7.48163L24.5269 6.48953ZM29.0912 6.48558H24.5896V7.48558H29.0912V6.48558ZM29.6784 6.44798C29.5107 6.49738 29.3308 6.51189 29.1539 6.48953L29.0285 7.48163C29.3409 7.52113 29.6597 7.49595 29.9609 7.40723L29.6784 6.44798ZM30.1108 6.21305C29.9933 6.3168 29.846 6.39861 29.6784 6.44798L29.9609 7.40724C30.2622 7.3185 30.5407 7.16759 30.7729 6.96245L30.1108 6.21305ZM30.3584 5.86147C30.3105 5.98838 30.2277 6.10972 30.1107 6.21314L30.773 6.96236C31.0054 6.75689 31.1858 6.50162 31.2941 6.2141L30.3584 5.86147ZM30.3983 5.47395C30.4192 5.60284 30.4061 5.73488 30.3584 5.86129L31.2941 6.21427C31.4027 5.92624 31.4346 5.61737 31.3853 5.31382L30.3983 5.47395ZM30.3918 2.60587V5.39388H31.3918V2.60587H30.3918ZM30.3584 2.13846C30.4061 2.26487 30.4192 2.39692 30.3983 2.52581L31.3853 2.68594C31.4346 2.38239 31.4027 2.07352 31.2941 1.78548L30.3584 2.13846ZM30.1107 1.78662C30.2277 1.89004 30.3105 2.01137 30.3584 2.13828L31.2941 1.78567C31.1858 1.49812 31.0054 1.24286 30.773 1.0374L30.1107 1.78662ZM29.6784 1.55177C29.846 1.60114 29.9933 1.68295 30.1108 1.7867L30.7729 1.03732C30.5407 0.832156 30.2622 0.681245 29.9609 0.592511L29.6784 1.55177ZM29.1539 1.51023C29.3308 1.48786 29.5107 1.50238 29.6784 1.55177L29.9609 0.592511C29.6597 0.503805 29.3409 0.478627 29.0285 0.518123L29.1539 1.51023ZM24.5896 1.51418H29.0912V0.514176H24.5896V1.51418ZM24.0025 1.55177C24.1702 1.50237 24.3501 1.48787 24.5269 1.51022L24.6523 0.518126C24.34 0.478623 24.0211 0.503809 23.72 0.592511L24.0025 1.55177ZM23.5701 1.7867C23.6875 1.68295 23.8349 1.60114 24.0025 1.55177L23.72 0.592511C23.4187 0.681245 23.1401 0.832155 22.9079 1.03732L23.5701 1.7867ZM23.3225 2.13828C23.3703 2.01137 23.4532 1.89004 23.5702 1.78662L22.9079 1.0374C22.6754 1.24287 22.4951 1.49812 22.3867 1.78567L23.3225 2.13828ZM23.2825 2.52602C23.2617 2.39699 23.2747 2.26487 23.3224 2.13846L22.3868 1.78548C22.2781 2.07352 22.2463 2.38231 22.2954 2.68573L23.2825 2.52602ZM23.289 5.39388V2.60587H22.289V5.39388H23.289ZM23.3224 5.86129C23.2747 5.73488 23.2617 5.60276 23.2825 5.47373L22.2954 5.31403C22.2463 5.61744 22.2781 5.92624 22.3868 6.21428L23.3224 5.86129ZM23.5702 6.21314C23.4532 6.10972 23.3703 5.98838 23.3225 5.86147L22.3867 6.2141C22.4951 6.50162 22.6754 6.75689 22.9079 6.96236L23.5702 6.21314ZM24.0025 6.44798C23.8349 6.39861 23.6875 6.3168 23.5701 6.21305L22.908 6.96245C23.1401 7.16759 23.4187 7.3185 23.72 7.40724L24.0025 6.44798ZM23.7544 5.70037C23.7262 5.62558 23.7187 5.54851 23.7308 5.47359L22.7436 5.31417C22.7033 5.56358 22.7297 5.81714 22.8187 6.05314L23.7544 5.70037ZM23.906 5.91454C23.8327 5.84972 23.7827 5.77545 23.7544 5.70036L22.8187 6.05315C22.9075 6.28884 23.055 6.49699 23.2437 6.66381L23.906 5.91454ZM24.1828 6.06449C24.0737 6.03233 23.9796 5.97957 23.906 5.91456L23.2437 6.6638C23.4322 6.83045 23.6577 6.95223 23.9001 7.02369L24.1828 6.06449ZM24.5251 6.09159C24.4094 6.10619 24.2918 6.09662 24.1828 6.06449L23.9001 7.02369C24.1426 7.09517 24.3991 7.11542 24.6503 7.08372L24.5251 6.09159ZM29.0893 6.08765H24.5877V7.08765H29.0893V6.08765ZM29.4942 6.06449C29.3852 6.09661 29.2676 6.10619 29.1518 6.09159L29.0267 7.08372C29.2779 7.11541 29.5344 7.09517 29.7769 7.02369L29.4942 6.06449ZM29.771 5.91456C29.6975 5.97957 29.6033 6.03233 29.4942 6.06449L29.7769 7.02369C30.0194 6.95223 30.2448 6.83045 30.4333 6.6638L29.771 5.91456ZM29.9227 5.70036C29.8943 5.77545 29.8444 5.84972 29.771 5.91455L30.4333 6.66381C30.622 6.49699 30.7695 6.28884 30.8584 6.05315L29.9227 5.70036ZM29.9462 5.47388C29.9583 5.54861 29.9509 5.62558 29.9227 5.70037L30.8584 6.05314C30.9473 5.81714 30.9737 5.56348 30.9333 5.31388L29.9462 5.47388ZM29.9397 2.60587V5.39388H30.9397V2.60587H29.9397ZM29.9227 2.29937C29.9509 2.37417 29.9583 2.45115 29.9462 2.52588L30.9333 2.68587C30.9737 2.43628 30.9473 2.18262 30.8584 1.94661L29.9227 2.29937ZM29.771 2.08519C29.8444 2.15003 29.8944 2.2243 29.9227 2.29939L30.8584 1.9466C30.7695 1.71089 30.622 1.50276 30.4333 1.33595L29.771 2.08519ZM29.4942 1.93527C29.6033 1.96743 29.6975 2.02019 29.771 2.08519L30.4333 1.33595C30.2448 1.16929 30.0194 1.04752 29.7769 0.976069L29.4942 1.93527ZM29.1519 1.90817C29.2676 1.89356 29.3852 1.90314 29.4942 1.93527L29.7769 0.976069C29.5344 0.904587 29.2779 0.884328 29.0267 0.916035L29.1519 1.90817ZM24.5877 1.9121H29.0893V0.9121H24.5877V1.9121ZM24.1828 1.93527C24.2919 1.90313 24.4094 1.89356 24.525 1.90816L24.6503 0.916039C24.3991 0.884323 24.1426 0.904592 23.9001 0.976069L24.1828 1.93527ZM23.906 2.08519C23.9796 2.02019 24.0737 1.96743 24.1828 1.93527L23.9001 0.976069C23.6577 1.04752 23.4323 1.16929 23.2437 1.33595L23.906 2.08519ZM23.7544 2.29939C23.7827 2.2243 23.8327 2.15003 23.906 2.08519L23.2437 1.33595C23.055 1.50276 22.9075 1.71089 22.8187 1.9466L23.7544 2.29939ZM23.7308 2.52616C23.7187 2.45125 23.7262 2.37417 23.7544 2.29937L22.8187 1.94661C22.7297 2.18262 22.7033 2.43618 22.7436 2.68559L23.7308 2.52616ZM23.7372 5.39388V2.60587H22.7372V5.39388H23.7372ZM41.8248 5.39388V1.01671H40.8248V5.39388H41.8248ZM41.7434 6.05315C41.8324 5.81714 41.8588 5.56347 41.8183 5.3139L40.8312 5.47387C40.8433 5.54861 40.8359 5.62559 40.8077 5.70036L41.7434 6.05315ZM41.3183 6.66381C41.5071 6.49699 41.6545 6.28884 41.7434 6.05315L40.8077 5.70037C40.7794 5.77545 40.7294 5.84972 40.6561 5.91455L41.3183 6.66381ZM40.662 7.02369C40.9044 6.95223 41.1298 6.83045 41.3183 6.66379L40.656 5.91456C40.5825 5.97957 40.4883 6.03233 40.3792 6.06449L40.662 7.02369ZM39.9118 7.08372C40.1629 7.11542 40.4194 7.09517 40.662 7.02369L40.3792 6.06449C40.2702 6.09662 40.1526 6.10619 40.037 6.09159L39.9118 7.08372ZM35.4727 7.08766H39.9744V6.08766H35.4727V7.08766ZM34.7851 7.02369C35.0276 7.09517 35.2842 7.11542 35.5353 7.08372L35.4101 6.09159C35.2944 6.10619 35.1769 6.09662 35.0679 6.06449L34.7851 7.02369ZM34.1287 6.6638C34.3173 6.83045 34.5427 6.95223 34.7851 7.02369L35.0679 6.06449C34.9588 6.03233 34.8646 5.97957 34.791 5.91456L34.1287 6.6638ZM33.7037 6.05316C33.7926 6.28884 33.94 6.49699 34.1288 6.66381L34.791 5.91455C34.7177 5.84973 34.6677 5.77545 34.6394 5.70036L33.7037 6.05316ZM33.6288 5.31388C33.5883 5.56348 33.6147 5.81714 33.7037 6.05314L34.6394 5.70037C34.6112 5.62558 34.6038 5.54861 34.6159 5.47388L33.6288 5.31388ZM33.6223 1.01671V5.39388H34.6223V1.01671H33.6223ZM33.6721 1.51671H34.1223V0.51671H33.6721V1.51671ZM34.1721 5.39388V1.01671H33.1721V5.39388H34.1721ZM34.2055 5.86129C34.1579 5.73488 34.1448 5.60276 34.1657 5.47373L33.1785 5.31403C33.1294 5.61744 33.1613 5.92624 33.2699 6.21427L34.2055 5.86129ZM34.4533 6.21314C34.3363 6.10972 34.2534 5.98838 34.2056 5.86147L33.2699 6.2141C33.3782 6.50162 33.5585 6.75688 33.791 6.96236L34.4533 6.21314ZM34.8856 6.44798C34.718 6.39861 34.5706 6.3168 34.4532 6.21305L33.7911 6.96245C34.0233 7.16759 34.3018 7.3185 34.6031 7.40724L34.8856 6.44798ZM35.41 6.48953C35.2332 6.51189 35.0533 6.49738 34.8856 6.44798L34.6031 7.40723C34.9042 7.49595 35.2231 7.52113 35.5354 7.48163L35.41 6.48953ZM39.9744 6.48558H35.4727V7.48558H39.9744V6.48558ZM40.5615 6.44798C40.3938 6.49738 40.2139 6.51189 40.0371 6.48953L39.9116 7.48163C40.224 7.52113 40.5429 7.49595 40.844 7.40723L40.5615 6.44798ZM40.9939 6.21305C40.8765 6.3168 40.7291 6.39861 40.5615 6.44798L40.844 7.40724C41.1453 7.3185 41.4238 7.16759 41.656 6.96245L40.9939 6.21305ZM41.2415 5.86148C41.1936 5.98838 41.1108 6.10972 40.9938 6.21314L41.6561 6.96236C41.8885 6.75688 42.0689 6.50162 42.1772 6.21409L41.2415 5.86148ZM41.2814 5.47373C41.3023 5.60276 41.2892 5.73488 41.2415 5.86129L42.1772 6.21428C42.2858 5.92624 42.3177 5.61744 42.2686 5.31403L41.2814 5.47373ZM41.275 1.01671V5.39388H42.275V1.01671H41.275ZM41.3248 1.51671H41.775V0.51671H41.3248V1.51671ZM51.7281 0.595046C51.4269 0.506343 51.1081 0.481158 50.7957 0.520661L50.9212 1.51276C51.098 1.4904 51.2778 1.50491 51.4456 1.55431L51.7281 0.595046ZM52.5401 1.03985C52.3079 0.83469 52.0294 0.683779 51.7281 0.595045L51.4456 1.55431C51.6132 1.60367 51.7605 1.68548 51.878 1.78923L52.5401 1.03985ZM53.0613 1.7882C52.953 1.50066 52.7726 1.2454 52.5402 1.03993L51.8779 1.78915C51.9949 1.89258 52.0777 2.0139 52.1255 2.14081L53.0613 1.7882ZM53.1527 2.68826C53.2018 2.38485 53.1699 2.07605 53.0612 1.78801L52.1256 2.141C52.1733 2.26741 52.1864 2.39953 52.1655 2.52856L53.1527 2.68826ZM53.0612 3.42881C53.1699 3.14077 53.2018 2.83197 53.1527 2.52856L52.1655 2.68826C52.1864 2.81729 52.1733 2.94941 52.1256 3.0758L53.0612 3.42881ZM52.5402 4.17689C52.7726 3.97141 52.953 3.71615 53.0613 3.4286L52.1255 3.076C52.0777 3.20291 51.9949 3.32424 51.8779 3.42766L52.5402 4.17689ZM51.7281 4.62176C52.0294 4.53303 52.3079 4.38212 52.5401 4.17697L51.878 3.42758C51.7605 3.53132 51.6132 3.61314 51.4456 3.6625L51.7281 4.62176ZM50.7957 4.69616C51.1081 4.73566 51.4269 4.71047 51.7281 4.62176L51.4456 3.66251C51.2778 3.71191 51.098 3.72641 50.9212 3.70406L50.7957 4.69616ZM45.0064 4.70011H50.8585V3.70011H45.0064V4.70011ZM45.5064 6.98811V4.20011H44.5064V6.98811H45.5064ZM44.5561 7.48811H45.0064V6.48811H44.5561V7.48811ZM44.0561 1.01924V6.98811H45.0561V1.01924H44.0561ZM50.8583 0.51671L44.5559 0.519245L44.5564 1.51924L50.8587 1.51671L50.8583 0.51671ZM52.7024 2.68841C52.7428 2.43881 52.7164 2.18515 52.6275 1.94915L51.6918 2.30191C51.72 2.37671 51.7274 2.45369 51.7153 2.52841L52.7024 2.68841ZM52.2098 2.10841H52.2088V3.10841H52.2098V2.10841ZM52.6284 3.26784C52.7174 3.03179 52.7438 2.77807 52.7034 2.52845L51.7162 2.68837C51.7284 2.76322 51.7209 2.84033 51.6927 2.91521L52.6284 3.26784ZM52.203 3.87881C52.3918 3.71199 52.5394 3.50383 52.6284 3.2681L51.6928 2.91495C51.6644 2.99016 51.6143 3.06451 51.5409 3.12938L52.203 3.87881ZM51.546 4.23862C51.7887 4.16724 52.0143 4.04549 52.203 3.87881L51.5409 3.12938C51.4673 3.19439 51.3731 3.24713 51.2639 3.27925L51.546 4.23862ZM50.7955 4.2982C51.0468 4.3301 51.3034 4.31 51.5461 4.23861L51.2638 3.27926C51.1548 3.31135 51.0372 3.32085 50.9214 3.30616L50.7955 4.2982ZM45.0064 4.30218H50.8585V3.30218H45.0064V4.30218ZM44.5064 1.41463V3.80218H45.5064V1.41463H44.5064ZM50.8585 0.914635H45.0064V1.91463H50.8585V0.914635ZM51.546 0.978603C51.3035 0.907126 51.047 0.886857 50.7958 0.918573L50.9211 1.9107C51.0367 1.8961 51.1543 1.90567 51.2633 1.9378L51.546 0.978603ZM52.2024 1.33848C52.0139 1.17183 51.7885 1.05006 51.546 0.978602L51.2633 1.9378C51.3724 1.96996 51.4666 2.02272 51.5401 2.08772L52.2024 1.33848ZM52.6275 1.94914C52.5386 1.71343 52.3911 1.5053 52.2024 1.33848L51.5401 2.08772C51.6135 2.15257 51.6635 2.22684 51.6918 2.30192L52.6275 1.94914ZM56.16 7.40723C56.4612 7.49595 56.78 7.52113 57.0924 7.48163L56.9669 6.48953C56.7901 6.51189 56.6102 6.49738 56.4425 6.44798L56.16 7.40723ZM55.348 6.96245C55.5802 7.16759 55.8587 7.3185 56.16 7.40724L56.4425 6.44798C56.2749 6.39861 56.1275 6.3168 56.0101 6.21305L55.348 6.96245ZM54.8268 6.2141C54.9351 6.50162 55.1155 6.75688 55.3479 6.96236L56.0102 6.21314C55.8932 6.10972 55.8104 5.98838 55.7625 5.86147L54.8268 6.2141ZM54.7354 5.31403C54.6863 5.61744 54.7182 5.92624 54.8268 6.21427L55.7625 5.86129C55.7148 5.73488 55.7017 5.60276 55.7226 5.47373L54.7354 5.31403ZM55.6793 4.89388H55.229V5.89388H55.6793V4.89388ZM56.1963 5.70037C56.1681 5.62558 56.1607 5.54861 56.1728 5.47388L55.1857 5.31388C55.1452 5.56348 55.1716 5.81714 55.2606 6.05314L56.1963 5.70037ZM56.348 5.91455C56.2746 5.84973 56.2246 5.77545 56.1963 5.70036L55.2606 6.05315C55.3495 6.28884 55.497 6.49699 55.6857 6.66381L56.348 5.91455ZM56.6248 6.06449C56.5157 6.03233 56.4215 5.97957 56.348 5.91456L55.6857 6.6638C55.8742 6.83045 56.0996 6.95223 56.3421 7.02369L56.6248 6.06449ZM56.967 6.09159C56.8514 6.10619 56.7338 6.09662 56.6248 6.06449L56.3421 7.02369C56.5846 7.09517 56.8411 7.11542 57.0922 7.08372L56.967 6.09159ZM61.5313 6.08765H57.0296V7.08765H61.5313V6.08765ZM61.9362 6.06449C61.8271 6.09662 61.7096 6.10619 61.5939 6.09159L61.4687 7.08372C61.7199 7.11542 61.9764 7.09517 62.2189 7.02369L61.9362 6.06449ZM62.213 5.91456C62.1394 5.97957 62.0452 6.03233 61.9362 6.06449L62.2189 7.02369C62.4613 6.95223 62.6867 6.83045 62.8753 6.66379L62.213 5.91456ZM62.3646 5.70036C62.3363 5.77545 62.2863 5.84972 62.213 5.91454L62.8752 6.66381C63.064 6.49699 63.2115 6.28884 63.3003 6.05315L62.3646 5.70036ZM62.3882 5.47358C62.4003 5.54851 62.3928 5.62559 62.3646 5.70037L63.3003 6.05314C63.3893 5.81713 63.4157 5.56357 63.3754 5.31418L62.3882 5.47358ZM62.3646 5.08738C62.3928 5.16217 62.4003 5.23925 62.3882 5.31418L63.3754 5.47358C63.4157 5.22419 63.3893 4.97063 63.3003 4.73462L62.3646 5.08738ZM62.213 4.8732C62.2863 4.93804 62.3363 5.01231 62.3646 5.0874L63.3003 4.7346C63.2114 4.4989 63.064 4.29077 62.8753 4.12396L62.213 4.8732ZM61.9362 4.72328C62.0452 4.75543 62.1394 4.8082 62.213 4.8732L62.8753 4.12395C62.6867 3.95731 62.4613 3.83554 62.2189 3.76408L61.9362 4.72328ZM61.5939 4.69617C61.7096 4.68157 61.8271 4.69114 61.9362 4.72328L62.2189 3.76408C61.9764 3.6926 61.7199 3.67233 61.4687 3.70405L61.5939 4.69617ZM57.0296 4.70011H61.5313V3.70011H57.0296V4.70011ZM56.16 4.62176C56.4612 4.71047 56.78 4.73566 57.0924 4.69616L56.9669 3.70406C56.7901 3.72641 56.6102 3.71191 56.4425 3.66251L56.16 4.62176ZM55.348 4.17698C55.5802 4.38212 55.8587 4.53303 56.16 4.62176L56.4425 3.6625C56.2749 3.61314 56.1275 3.53132 56.0101 3.42757L55.348 4.17698ZM54.8268 3.42861C54.9351 3.71615 55.1155 3.97141 55.3479 4.17688L56.0102 3.42767C55.8932 3.32424 55.8104 3.20291 55.7625 3.07599L54.8268 3.42861ZM54.7354 2.52856C54.6863 2.83197 54.7182 3.14076 54.8268 3.4288L55.7625 3.07581C55.7148 2.94941 55.7017 2.81729 55.7226 2.68826L54.7354 2.52856ZM54.8268 1.78802C54.7182 2.07605 54.6863 2.38485 54.7354 2.68826L55.7226 2.52856C55.7017 2.39953 55.7148 2.26741 55.7625 2.141L54.8268 1.78802ZM55.3479 1.03993C55.1155 1.2454 54.9351 1.50066 54.8268 1.7882L55.7625 2.14081C55.8104 2.01391 55.8932 1.89258 56.0102 1.78915L55.3479 1.03993ZM56.16 0.595045C55.8587 0.68378 55.5802 0.834691 55.348 1.03985L56.0101 1.78923C56.1276 1.68548 56.2749 1.60367 56.4425 1.55431L56.16 0.595045ZM57.0924 0.520661C56.78 0.481157 56.4612 0.506344 56.16 0.595045L56.4425 1.55431C56.6102 1.50491 56.7901 1.4904 56.9669 1.51276L57.0924 0.520661ZM61.5313 0.51671H57.0296V1.51671H61.5313V0.51671ZM62.4008 0.59542C62.0998 0.506635 61.7811 0.481306 61.4688 0.520628L61.5938 1.51279C61.7705 1.49054 61.9503 1.50512 62.118 1.55457L62.4008 0.59542ZM63.2125 1.04039C62.9804 0.835132 62.7018 0.684226 62.4009 0.595435L62.1179 1.55456C62.2855 1.604 62.4328 1.68585 62.55 1.78946L63.2125 1.04039ZM63.7333 1.78839C63.6249 1.50095 63.4446 1.24583 63.2125 1.04047L62.5499 1.78937C62.6668 1.89287 62.7497 2.01426 62.7976 2.14112L63.7333 1.78839ZM63.8245 2.68829C63.8736 2.38493 63.8417 2.07633 63.7334 1.78858L62.7975 2.14093C62.8451 2.26745 62.8582 2.3996 62.8373 2.52853L63.8245 2.68829ZM62.8807 3.10841H63.3309V2.10841H62.8807V3.10841ZM62.3637 2.30191C62.3918 2.37671 62.3993 2.45369 62.3872 2.52841L63.3743 2.68841C63.4147 2.43881 63.3883 2.18515 63.2994 1.94914L62.3637 2.30191ZM62.212 2.08772C62.2854 2.15257 62.3354 2.22684 62.3637 2.30191L63.2994 1.94914C63.2105 1.71342 63.063 1.5053 62.8743 1.33849L62.212 2.08772ZM61.9352 1.9378C62.0443 1.96996 62.1385 2.02272 62.212 2.08772L62.8743 1.33848C62.6858 1.17182 62.4604 1.05006 62.2179 0.978603L61.9352 1.9378ZM61.593 1.9107C61.7086 1.8961 61.8262 1.90567 61.9352 1.9378L62.2179 0.978603C61.9754 0.907126 61.7189 0.886858 61.4677 0.918573L61.593 1.9107ZM57.0287 1.91463H61.5303V0.914635H57.0287V1.91463ZM56.6238 1.9378C56.7329 1.90567 56.8504 1.8961 56.966 1.9107L57.0913 0.918573C56.8401 0.886857 56.5836 0.907126 56.3411 0.978603L56.6238 1.9378ZM56.347 2.08772C56.4205 2.02272 56.5147 1.96996 56.6238 1.9378L56.3411 0.978603C56.0987 1.05006 55.8733 1.17183 55.6847 1.33849L56.347 2.08772ZM56.1954 2.30191C56.2237 2.22684 56.2737 2.15257 56.347 2.08772L55.6847 1.33848C55.496 1.5053 55.3485 1.71343 55.2597 1.94914L56.1954 2.30191ZM56.1719 2.52841C56.1597 2.45368 56.1672 2.3767 56.1954 2.30192L55.2597 1.94913C55.1707 2.18515 55.1443 2.43882 55.1847 2.68841L56.1719 2.52841ZM56.1954 2.91488C56.1672 2.84011 56.1597 2.76314 56.1719 2.68841L55.1847 2.52841C55.1443 2.778 55.1707 3.03166 55.2597 3.26768L56.1954 2.91488ZM56.347 3.12907C56.2737 3.06425 56.2237 2.98998 56.1954 2.91489L55.2597 3.26767C55.3485 3.50337 55.496 3.71152 55.6847 3.87834L56.347 3.12907ZM56.6238 3.27901C56.5147 3.24686 56.4206 3.19409 56.347 3.12909L55.6847 3.87832C55.8732 4.04497 56.0987 4.16675 56.3411 4.23821L56.6238 3.27901ZM56.9661 3.30612C56.8504 3.32072 56.7328 3.31114 56.6238 3.27901L56.3411 4.23821C56.5836 4.3097 56.8401 4.32995 57.0913 4.29825L56.9661 3.30612ZM61.5303 3.30218H57.0287V4.30218H61.5303V3.30218ZM62.4 3.38052C62.0988 3.29182 61.78 3.26663 61.4676 3.30613L61.5931 4.29823C61.7699 4.27588 61.9497 4.29038 62.1175 4.33978L62.4 3.38052ZM63.212 3.82533C62.9798 3.62015 62.7013 3.46926 62.4 3.38052L62.1175 4.33977C62.2851 4.38915 62.4324 4.47096 62.5499 4.5747L63.212 3.82533ZM63.7332 4.57367C63.6249 4.28613 63.4445 4.03087 63.2121 3.82541L62.5498 4.57462C62.6668 4.67805 62.7496 4.79938 62.7974 4.92629L63.7332 4.57367ZM63.8244 5.47395C63.8737 5.17039 63.8418 4.86153 63.7331 4.57349L62.7975 4.92647C62.8452 5.05288 62.8582 5.18492 62.8373 5.31382L63.8244 5.47395ZM63.7331 6.21427C63.8418 5.92624 63.8737 5.61737 63.8244 5.31382L62.8373 5.47395C62.8582 5.60284 62.8452 5.73488 62.7975 5.86129L63.7331 6.21427ZM63.2121 6.96236C63.4445 6.75688 63.6249 6.50162 63.7332 6.2141L62.7974 5.86147C62.7496 5.98838 62.6667 6.10972 62.5498 6.21314L63.2121 6.96236ZM62.4 7.40724C62.7013 7.3185 62.9798 7.16759 63.212 6.96245L62.5499 6.21305C62.4324 6.3168 62.2851 6.39861 62.1175 6.44798L62.4 7.40724ZM61.4676 7.48163C61.78 7.52113 62.0988 7.49595 62.4 7.40723L62.1175 6.44798C61.9497 6.49738 61.7699 6.51189 61.5931 6.48953L61.4676 7.48163ZM57.0296 7.48558H61.5303V6.48558H57.0296V7.48558ZM66.0633 4.19757V6.98558H67.0633V4.19757H66.0633ZM73.7678 3.69757H66.5633V4.69757H73.7678V3.69757ZM74.2678 6.98558V4.19757H73.2678V6.98558H74.2678ZM74.2179 6.48558H73.7678V7.48558H74.2179V6.48558ZM73.7179 1.01671V6.98558H74.7179V1.01671H73.7179ZM73.7678 1.51671H74.2179V0.51671H73.7678V1.51671ZM74.2678 3.80472V1.01671H73.2678V3.80472H74.2678ZM66.5633 4.30472H73.7678V3.30472H66.5633V4.30472ZM66.0633 1.01671V3.80472H67.0633V1.01671H66.0633ZM66.1132 1.51671H66.5633V0.51671H66.1132V1.51671ZM66.6132 6.98558V1.01671H65.6132V6.98558H66.6132ZM66.5633 6.48558H66.1132V7.48558H66.5633V6.48558ZM77.9274 7.4065C78.2283 7.49536 78.5469 7.52082 78.8591 7.4817L78.7348 6.48946C78.558 6.51161 78.3782 6.49694 78.2106 6.44744L77.9274 7.4065ZM77.1163 6.96135C77.3481 7.16663 77.6265 7.31759 77.9273 7.40648L78.2107 6.44746C78.0432 6.39798 77.8961 6.31614 77.7791 6.2126L77.1163 6.96135ZM76.5957 6.21353C76.704 6.50096 76.8843 6.75607 77.1164 6.96143L77.779 6.21251C77.6621 6.10905 77.5793 5.98779 77.5316 5.86108L76.5957 6.21353ZM76.5046 5.31397C76.4555 5.61729 76.4874 5.92582 76.5957 6.21352L77.5316 5.86108C77.484 5.73463 77.4709 5.6026 77.4918 5.47379L76.5046 5.31397ZM76.4982 2.60587V5.39388H77.4982V2.60587H76.4982ZM76.596 1.78547C76.4873 2.07351 76.4554 2.38239 76.5047 2.68595L77.4917 2.5258C77.4708 2.39691 77.4839 2.26488 77.5316 2.13848L76.596 1.78547ZM77.117 1.0374C76.8846 1.24286 76.7042 1.49812 76.5959 1.78568L77.5317 2.13826C77.5795 2.01137 77.6623 1.89005 77.7793 1.78662L77.117 1.0374ZM77.9291 0.592511C77.6278 0.681245 77.3493 0.832155 77.1171 1.03732L77.7792 1.7867C77.8967 1.68295 78.044 1.60114 78.2116 1.55177L77.9291 0.592511ZM78.8615 0.518124C78.5491 0.478627 78.2303 0.503805 77.9291 0.592511L78.2116 1.55177C78.3793 1.50238 78.5592 1.48786 78.7361 1.51023L78.8615 0.518124ZM83.306 0.514176H78.7988V1.51418H83.306V0.514176ZM84.1758 0.59251C83.8746 0.503806 83.5558 0.478627 83.2433 0.518123L83.3688 1.51023C83.5457 1.48786 83.7255 1.50238 83.8933 1.55177L84.1758 0.59251ZM84.9878 1.03732C84.7556 0.832155 84.4771 0.681245 84.1758 0.592511L83.8933 1.55177C84.0609 1.60114 84.2082 1.68295 84.3256 1.7867L84.9878 1.03732ZM85.509 1.78566C85.4007 1.49812 85.2203 1.24287 84.9879 1.0374L84.3255 1.78661C84.4425 1.89004 84.5254 2.01137 84.5732 2.13828L85.509 1.78566ZM85.6004 2.68573C85.6494 2.38231 85.6176 2.07352 85.5089 1.78548L84.5733 2.13846C84.621 2.26487 84.6341 2.39699 84.6132 2.52602L85.6004 2.68573ZM85.6068 5.39388V2.60587H84.6068V5.39388H85.6068ZM85.5089 6.21427C85.6176 5.92624 85.6494 5.61744 85.6004 5.31403L84.6132 5.47373C84.6341 5.60276 84.621 5.73488 84.5733 5.86129L85.5089 6.21427ZM84.9879 6.96235C85.2203 6.75688 85.4007 6.50162 85.509 6.2141L84.5732 5.86147C84.5254 5.98838 84.4425 6.10972 84.3255 6.21314L84.9879 6.96235ZM84.1758 7.40724C84.4771 7.3185 84.7556 7.16759 84.9878 6.96245L84.3257 6.21305C84.2082 6.3168 84.0609 6.39861 83.8933 6.44798L84.1758 7.40724ZM83.2433 7.48163C83.5558 7.52113 83.8746 7.49595 84.1758 7.40723L83.8932 6.44798C83.7255 6.49738 83.5457 6.51189 83.3688 6.48953L83.2433 7.48163ZM78.7969 7.48558H83.306V6.48558H78.7969V7.48558ZM76.9529 5.31388C76.9124 5.56347 76.9388 5.81713 77.0278 6.05314L77.9635 5.70037C77.9353 5.62559 77.9279 5.54861 77.94 5.47388L76.9529 5.31388ZM76.954 2.60705L76.9464 5.39253L77.9464 5.39524L77.954 2.60976L76.954 2.60705ZM77.0355 1.94915C76.9465 2.18516 76.9201 2.43871 76.9604 2.68811L77.9476 2.52871C77.9355 2.45378 77.943 2.3767 77.9712 2.30191L77.0355 1.94915ZM77.4605 1.33848C77.2718 1.5053 77.1243 1.71343 77.0355 1.94912L77.9712 2.30194C77.9995 2.22683 78.0495 2.15256 78.1228 2.08772L77.4605 1.33848ZM78.1169 0.978602C77.8745 1.05006 77.649 1.17183 77.4605 1.33848L78.1228 2.08772C78.1964 2.02272 78.2905 1.96996 78.3996 1.9378L78.1169 0.978602ZM78.8671 0.918573C78.6159 0.886858 78.3594 0.907126 78.1169 0.978604L78.3996 1.9378C78.5086 1.90567 78.6262 1.8961 78.7418 1.9107L78.8671 0.918573ZM83.3061 0.914635H78.8045V1.91463H83.3061V0.914635ZM83.9928 0.978476C83.7506 0.907201 83.4945 0.886968 83.2436 0.91855L83.3685 1.91072C83.4841 1.89617 83.6015 1.90573 83.7104 1.9378L83.9928 0.978476ZM84.6484 1.33744C84.46 1.17122 84.2349 1.04977 83.9928 0.978498L83.7104 1.93777C83.8193 1.96984 83.9133 2.02247 83.9868 2.0873L84.6484 1.33744ZM85.0737 1.94659C84.9845 1.71133 84.8369 1.50374 84.6484 1.33743L83.9868 2.08731C84.0602 2.15205 84.1102 2.22617 84.1386 2.30103L85.0737 1.94659ZM85.1505 2.68399C85.1898 2.43517 85.1631 2.18207 85.0736 1.94633L84.1387 2.30129C84.167 2.37568 84.1746 2.45265 84.1628 2.52776L85.1505 2.68399ZM85.1566 5.39388V2.60587H84.1566V5.39388H85.1566ZM85.0751 6.05316C85.1641 5.81714 85.1905 5.56357 85.1502 5.31416L84.163 5.47361C84.1751 5.54852 84.1676 5.62558 84.1395 5.70035L85.0751 6.05316ZM84.6501 6.66381C84.8388 6.49699 84.9863 6.28884 85.0751 6.05315L84.1395 5.70037C84.1111 5.77546 84.0611 5.84973 83.9878 5.91455L84.6501 6.66381ZM83.9937 7.02369C84.2362 6.95223 84.4616 6.83045 84.6501 6.6638L83.9878 5.91456C83.9143 5.97957 83.8201 6.03233 83.711 6.06449L83.9937 7.02369ZM83.2435 7.08372C83.4947 7.11541 83.7512 7.09517 83.9937 7.02369L83.711 6.06449C83.602 6.09661 83.4844 6.10619 83.3686 6.09159L83.2435 7.08372ZM78.7969 7.08766H83.3061V6.08766H78.7969V7.08766ZM78.1093 7.02369C78.3518 7.09517 78.6083 7.11541 78.8595 7.08372L78.7343 6.09159C78.6186 6.10619 78.501 6.09661 78.392 6.06448L78.1093 7.02369ZM77.4529 6.66379C77.6414 6.83045 77.8668 6.95223 78.1092 7.02369L78.392 6.06449C78.2829 6.03233 78.1887 5.97956 78.1152 5.91457L77.4529 6.66379ZM77.0278 6.05315C77.1167 6.28885 77.2642 6.497 77.4529 6.66381L78.1152 5.91455C78.0418 5.84972 77.9918 5.77545 77.9635 5.70037L77.0278 6.05315ZM95.0532 0.595044C94.752 0.506344 94.4332 0.481157 94.1208 0.520661L94.2463 1.51276C94.423 1.4904 94.6029 1.50491 94.7706 1.55431L95.0532 0.595044ZM95.8652 1.03985C95.633 0.834692 95.3544 0.683781 95.0532 0.595045L94.7706 1.55431C94.9382 1.60367 95.0856 1.68548 95.203 1.78924L95.8652 1.03985ZM96.3867 1.78953C96.2787 1.50059 96.0975 1.24499 95.8651 1.03976L95.2031 1.78933C95.3205 1.89299 95.403 2.01398 95.4499 2.13948L96.3867 1.78953ZM96.478 2.68699C96.5261 2.38513 96.4953 2.0766 96.386 1.78764L95.4506 2.14137C95.4981 2.26686 95.5112 2.39925 95.4905 2.52983L96.478 2.68699ZM96.386 3.42918C96.4953 3.14022 96.5261 2.83169 96.478 2.52983L95.4905 2.68699C95.5112 2.81757 95.4981 2.94996 95.4506 3.07543L96.386 3.42918ZM95.8651 4.17706C96.0975 3.97182 96.2787 3.71622 96.3867 3.42728L95.4499 3.07732C95.403 3.20284 95.3205 3.32383 95.2031 3.42749L95.8651 4.17706ZM95.0532 4.62176C95.3544 4.53303 95.633 4.38212 95.8652 4.17698L95.203 3.42757C95.0856 3.53133 94.9382 3.61314 94.7706 3.6625L95.0532 4.62176ZM94.1208 4.69616C94.4332 4.73566 94.752 4.71047 95.0532 4.62176L94.7706 3.66251C94.6029 3.71191 94.423 3.72641 94.2463 3.70406L94.1208 4.69616ZM88.3334 4.70011H94.1835V3.70011H88.3334V4.70011ZM88.8334 6.98811V4.20011H87.8334V6.98811H88.8334ZM87.8832 7.48811H88.3334V6.48811H87.8832V7.48811ZM87.3832 1.01924V6.98811H88.3832V1.01924H87.3832ZM94.1833 0.51671L87.883 0.519245L87.8834 1.51924L94.1837 1.51671L94.1833 0.51671ZM96.0279 2.68698C96.0672 2.43967 96.0424 2.18605 95.9522 1.94814L95.0172 2.30291C95.0449 2.3758 95.0526 2.45282 95.0403 2.52984L96.0279 2.68698ZM95.5398 2.10841H95.5341V3.10841H95.5398V2.10841ZM95.9578 3.26961C96.0482 3.03135 96.073 2.77743 96.0336 2.52997L95.046 2.68685C95.0583 2.76435 95.0506 2.84177 95.0228 2.9149L95.9578 3.26961ZM95.5315 3.88038C95.721 3.71338 95.8688 3.50497 95.958 3.26911L95.0227 2.9154C94.9941 2.99092 94.9439 3.06535 94.8703 3.13014L95.5315 3.88038ZM94.8733 4.23979C95.1164 4.16869 95.3424 4.04705 95.5315 3.88037L94.8703 3.13015C94.7964 3.19528 94.7019 3.24801 94.5925 3.28L94.8733 4.23979ZM94.1214 4.29806C94.373 4.33056 94.63 4.3109 94.8732 4.23982L94.5926 3.27998C94.4831 3.31198 94.3653 3.32126 94.2495 3.3063L94.1214 4.29806ZM88.3334 4.30218H94.1854V3.30218H88.3334V4.30218ZM87.8334 1.41463V3.80218H88.8334V1.41463H87.8334ZM94.1835 0.914635H88.3334V1.91463H94.1835V0.914635ZM94.8711 0.978602C94.6286 0.907127 94.3721 0.886857 94.1209 0.918573L94.2462 1.9107C94.3618 1.8961 94.4794 1.90567 94.5884 1.9378L94.8711 0.978602ZM95.5275 1.33849C95.339 1.17182 95.1135 1.05006 94.8711 0.978604L94.5884 1.9378C94.6975 1.96996 94.7917 2.02273 94.8652 2.08771L95.5275 1.33849ZM95.9525 1.94914C95.8637 1.71342 95.7162 1.50529 95.5275 1.33848L94.8652 2.08772C94.9385 2.15257 94.9885 2.22684 95.0168 2.30192L95.9525 1.94914Z" fill="white"/>
</svg>
