<svg width="15" height="14" viewBox="0 0 15 14" fill="none" xmlns="http://www.w3.org/2000/svg">
<path d="M12.5586 0.134277H5.8368C5.39577 0.134277 4.97272 0.309507 4.66083 0.621396C4.34894 0.933284 4.17371 1.35637 4.17371 1.79752V3.41752H2.44567C2.00527 3.41631 1.58248 3.58988 1.26986 3.90012C0.957221 4.2102 0.780468 4.63178 0.778076 5.07204V11.8028C0.779282 12.2435 0.954811 12.6659 1.26654 12.9775C1.57813 13.2893 2.0006 13.4648 2.44131 13.466H9.16316C9.60418 13.466 10.0272 13.2908 10.3391 12.9789C10.651 12.667 10.8262 12.2439 10.8262 11.8028V10.1828H12.5543C12.9947 10.184 13.4175 10.0104 13.7301 9.70015C14.0427 9.39007 14.2195 8.96848 14.2219 8.52823V1.79752C14.2207 1.3568 14.0451 0.934326 13.7334 0.622746C13.4218 0.311012 12.9994 0.135473 12.5586 0.134277ZM9.49584 11.7983L9.49569 11.7984C9.49569 11.9821 9.34682 12.131 9.16316 12.131H2.44131C2.25855 12.1287 2.11105 11.981 2.10864 11.7984V5.07196C2.10864 4.88829 2.25765 4.73928 2.44131 4.73928H9.16316C9.25175 4.73822 9.33703 4.77288 9.39956 4.83556C9.46224 4.89808 9.49689 4.98336 9.49569 5.07196V11.8027L9.49584 11.7983ZM12.8913 8.52815C12.8913 8.71182 12.7423 8.86083 12.5586 8.86083H10.8306V5.07208C10.8306 4.63105 10.6554 4.208 10.3435 3.89611C10.0316 3.58407 9.6085 3.40884 9.16736 3.40884H5.50412V1.79759C5.50412 1.61393 5.65298 1.46491 5.83665 1.46491H12.5585C12.7413 1.46732 12.8888 1.61483 12.8912 1.79759L12.8913 8.52815Z" fill="black"/>
</svg>
