<svg width="16" height="16" viewBox="0 0 16 16" fill="none" xmlns="http://www.w3.org/2000/svg">
<path d="M8.2645 11.175C7.20541 11.1757 6.21568 10.6482 5.62582 9.7686C5.036 8.88905 4.92365 7.77315 5.32625 6.79369C5.72895 5.81413 6.59364 5.09991 7.63149 4.88951C8.6695 4.67909 9.74391 5.00015 10.4964 5.74554C11.2487 6.49094 11.5798 7.56237 11.3791 8.60224C11.1783 9.6421 10.4722 10.5134 9.49653 10.9251C9.10672 11.0902 8.68768 11.1752 8.26436 11.1749L8.2645 11.175ZM8.2645 5.15536V5.15544C7.51044 5.15512 6.78708 5.45445 6.25369 5.98756C5.72027 6.52066 5.42056 7.24379 5.42048 7.99797C5.4204 8.75203 5.71989 9.47531 6.25315 10.0086C6.78632 10.5418 7.5096 10.8413 8.26376 10.8412C9.0179 10.8412 9.74101 10.5415 10.2742 10.008C10.8073 9.47471 11.1066 8.75135 11.1063 7.99723C11.1054 7.24379 10.8058 6.52154 10.273 5.98882C9.74029 5.45603 9.01804 5.1564 8.2646 5.15554L8.2645 5.15536Z" fill="black" stroke="black" stroke-width="0.3"/>
<path d="M9.64648 15.5H6.87788C6.74417 15.5 6.63579 15.3917 6.63579 15.258V14.148C6.08579 14.0046 5.55773 13.7875 5.06592 13.5026L4.28182 14.2867V14.2868C4.23635 14.3326 4.17456 14.3584 4.10996 14.3584C4.04548 14.3584 3.98358 14.3326 3.93822 14.2868L1.98265 12.3264C1.93685 12.281 1.91107 12.2191 1.91107 12.1546C1.91107 12.09 1.93684 12.0282 1.98265 11.9828L2.76675 11.1987H2.76686C2.48224 10.7061 2.26514 10.1776 2.12143 9.6271H1.00174C0.868033 9.6271 0.759766 9.51884 0.759766 9.38513V6.6197C0.759766 6.486 0.868033 6.37773 1.00174 6.37773H2.11175C2.25547 5.82729 2.47256 5.29877 2.75718 4.80616L1.97308 4.02205H1.97297C1.92717 3.97659 1.90139 3.9148 1.90139 3.8502C1.90139 3.78571 1.92716 3.72381 1.97297 3.67846L3.93822 1.72289C3.98358 1.67708 4.04548 1.65131 4.10996 1.65131C4.17456 1.65131 4.23635 1.67708 4.28182 1.72289L5.06592 2.50699V2.5071C5.55773 2.22214 6.08579 2.00503 6.63579 1.86167V0.74197C6.63579 0.608267 6.74417 0.5 6.87788 0.5H9.64648C9.78018 0.5 9.88856 0.608267 9.88856 0.74197V1.85199C10.4386 1.99537 10.9666 2.21247 11.4584 2.49742L12.2425 1.71332V1.7132C12.288 1.6674 12.3498 1.64163 12.4144 1.64163C12.4789 1.64163 12.5408 1.6674 12.5861 1.7132L14.5417 3.67846C14.5875 3.72381 14.6133 3.78571 14.6133 3.8502C14.6133 3.9148 14.5875 3.97659 14.5417 4.02205L13.7576 4.80616H13.7575C14.0421 5.29877 14.2592 5.82726 14.4029 6.37773H15.5226C15.6563 6.37773 15.7646 6.486 15.7646 6.6197V9.38513C15.7646 9.51884 15.6563 9.6271 15.5226 9.6271H14.4078C14.264 10.1775 14.047 10.7061 13.7623 11.1987L14.5464 11.9828H14.5465C14.5923 12.0282 14.6181 12.09 14.6181 12.1546C14.6181 12.2191 14.5924 12.281 14.5465 12.3264L12.5861 14.282C12.5408 14.3278 12.4789 14.3535 12.4144 14.3535C12.3498 14.3535 12.288 14.3278 12.2425 14.282L11.4584 13.4978V13.4977C10.9666 13.7827 10.4386 13.9998 9.88856 14.1432V15.2629C9.88586 15.3947 9.77827 15.5001 9.64648 15.5V15.5ZM7.11986 15.0159L9.40452 15.016V13.9576C9.40519 13.8454 9.48251 13.748 9.59168 13.722C10.2201 13.5773 10.8199 13.3287 11.3664 12.9863C11.462 12.9268 11.586 12.9415 11.665 13.0218L12.4136 13.7689L14.027 12.1554L13.2816 11.4068C13.2013 11.3279 13.1866 11.2039 13.2461 11.1083C13.5878 10.5615 13.8364 9.96171 13.9818 9.33348C14.0079 9.22341 14.1058 9.14542 14.219 9.14474H15.2758V6.86167H14.219C14.1058 6.861 14.0079 6.783 13.9818 6.67293C13.8364 6.0447 13.5878 5.44508 13.2461 4.89821C13.1866 4.80266 13.2013 4.67863 13.2816 4.59964L14.0286 3.85256L12.4152 2.23912L11.6666 2.98303C11.5877 3.06327 11.4636 3.07802 11.3681 3.01848C10.8216 2.67612 10.2217 2.4275 9.59326 2.28278C9.4841 2.25679 9.40678 2.15944 9.4061 2.04723V0.988754H7.11986V2.04723C7.11919 2.15943 7.04187 2.25678 6.9327 2.28278C6.30427 2.42751 5.7045 2.67612 5.15798 3.01848C5.06243 3.07802 4.9384 3.06327 4.85941 2.98303L4.11077 2.23595L2.49733 3.84939L3.24441 4.59647C3.32466 4.67536 3.3394 4.79939 3.27987 4.89493C2.93831 5.44177 2.68969 6.04153 2.54417 6.66965C2.51817 6.77983 2.42014 6.85782 2.30703 6.8585H1.24856V9.14316H2.30536C2.41858 9.14383 2.5165 9.22183 2.54261 9.33189C2.68802 9.96013 2.93663 10.5597 3.27831 11.1066C3.33784 11.2022 3.3231 11.3262 3.24285 11.4052L2.49577 12.1523L4.10921 13.7657L4.85785 13.0186C4.93674 12.9384 5.06077 12.9236 5.1563 12.9831C5.70283 13.3254 6.30268 13.574 6.93114 13.7188C7.04031 13.7449 7.11763 13.8421 7.1183 13.9544L7.11986 15.0159Z" fill="black" stroke="black" stroke-width="0.2"/>
</svg>
