<svg width="14" height="14" viewBox="0 0 14 14" fill="none" xmlns="http://www.w3.org/2000/svg">
<path d="M4.89362 3.75047L3.93357 4.68124L8.75562 9.35626L9.70955 8.40433L4.89362 3.75047ZM12.3052 6.6274C12.3002 7.73251 11.9377 8.80826 11.2687 9.70302C10.5997 10.5978 9.65797 11.2664 8.57619 11.6147C7.49442 11.963 6.32717 11.9734 5.23898 11.6444C4.15079 11.3154 3.19653 10.6637 2.5107 9.78096C1.82487 8.89825 1.44205 7.82914 1.41621 6.7243C1.39037 5.61947 1.7228 4.53463 2.36666 3.62269C3.01051 2.71075 3.93332 2.0177 5.00501 1.64122C6.0767 1.26474 7.24323 1.22382 8.34018 1.52422L9.39972 0.496988C8.58998 0.161107 7.7171 -0.00803048 6.8364 0.000292931C5.48429 0.000292931 4.16254 0.389016 3.0383 1.1173C1.91406 1.84559 1.03782 2.88074 0.520393 4.09184C0.00296218 5.30294 -0.132421 6.6356 0.131362 7.9213C0.395146 9.207 1.04625 10.388 2.00234 11.3149C2.95842 12.2419 4.17655 12.8731 5.50268 13.1288C6.82881 13.3846 8.20339 13.2533 9.45257 12.7517C10.7018 12.25 11.7695 11.4005 12.5207 10.3105C13.2718 9.22058 13.6728 7.93913 13.6728 6.62825L12.3052 6.6274Z" fill="black"/>
<path d="M8.76428 3.68359L9.72433 4.61437L4.89966 9.28601L3.94922 8.33069L8.76428 3.68359Z" fill="black"/>
</svg>
