<svg width="31" height="22" viewBox="0 0 31 22" fill="none" xmlns="http://www.w3.org/2000/svg">
<path d="M16.3011 4.29057V1.75727C16.3011 1.30259 15.9487 0.945312 15.5002 0.945312C15.0516 0.945312 14.6992 1.30259 14.6992 1.75727V4.29057C14.6992 4.74526 15.0516 5.10253 15.5002 5.10253C15.9487 5.10253 16.3011 4.74526 16.3011 4.29057Z" fill="#CCCCCC" stroke="#CCCCCC" stroke-width="0.5"/>
<path d="M11.1748 5.6867C11.2389 5.6867 11.3028 5.6867 11.367 5.65431C11.7835 5.52449 12.0399 5.1022 11.9435 4.64754L11.3028 2.17925C11.1748 1.75696 10.7582 1.49709 10.3097 1.59476C9.89316 1.72457 9.63681 2.14686 9.73315 2.60152L10.3739 5.06981C10.5021 5.42685 10.8224 5.68673 11.1748 5.68673L11.1748 5.6867Z" fill="#CCCCCC" stroke="#CCCCCC" stroke-width="0.5"/>
<path d="M7.13798 7.37669C7.26603 7.37669 7.42627 7.3443 7.52237 7.27928C7.90675 7.05182 8.03503 6.56475 7.81066 6.17507L6.56117 3.96667C6.3368 3.577 5.85633 3.44696 5.47193 3.67441C5.08753 3.90187 4.95927 4.38894 5.18364 4.77862L6.43313 6.98702C6.59336 7.21426 6.84969 7.37669 7.13797 7.37669H7.13798Z" fill="#CCCCCC" stroke="#CCCCCC" stroke-width="0.5"/>
<path d="M3.64602 10.0701C3.83821 10.0701 4.06258 10.0051 4.22259 9.84266C4.54306 9.51778 4.54306 8.99828 4.22259 8.7058L2.46044 6.91944C2.13996 6.59456 1.6275 6.59456 1.33899 6.91944C1.01851 7.24431 1.01851 7.76382 1.33899 8.05629L3.10114 9.84266C3.26138 9.9727 3.45379 10.0701 3.64598 10.0701H3.64602Z" fill="#CCCCCC" stroke="#CCCCCC" stroke-width="0.5"/>
<path d="M19.8249 5.68812C20.1773 5.68812 20.4978 5.46066 20.5939 5.07097L21.2346 2.60268C21.3626 2.1804 21.1065 1.72571 20.658 1.59591C20.2414 1.4661 19.7929 1.72573 19.6649 2.18041L19.0242 4.6487C18.8961 5.07098 19.1522 5.52567 19.6007 5.65547C19.6966 5.65569 19.7608 5.68809 19.8249 5.68809V5.68812Z" fill="#CCCCCC" stroke="#CCCCCC" stroke-width="0.5"/>
<path d="M25.5285 3.63926C25.1441 3.4118 24.6634 3.54184 24.4392 3.93151L23.1895 6.14015C22.9651 6.52982 23.0934 7.01712 23.4778 7.24435C23.6058 7.30937 23.7341 7.34177 23.8622 7.34177C24.1505 7.34177 24.4068 7.21196 24.567 6.91948L25.8165 4.71108C26.0409 4.38643 25.9128 3.8667 25.5284 3.6393L25.5285 3.63926Z" fill="#CCCCCC" stroke="#CCCCCC" stroke-width="0.5"/>
<path d="M28.5396 6.88802L26.7775 8.67438C26.457 8.99926 26.457 9.51876 26.7775 9.81124C26.9377 9.97367 27.1299 10.0387 27.354 10.0387C27.5784 10.0387 27.7706 9.97367 27.9306 9.81124L29.6928 8.02487C30.0132 7.7 30.0132 7.1805 29.6928 6.88802C29.3725 6.56337 28.8598 6.56337 28.5396 6.88802Z" fill="#CCCCCC" stroke="#CCCCCC" stroke-width="0.5"/>
<path d="M28.5072 14.4569C28.6674 14.197 28.6674 13.8724 28.5072 13.6125C25.816 9.16305 20.8501 6.40234 15.4997 6.40234C10.1494 6.40234 5.18345 9.16311 2.49225 13.58C2.33201 13.8399 2.33201 14.1645 2.49225 14.4244C5.18339 18.8739 10.1494 21.6346 15.4997 21.6346C20.8501 21.6346 25.816 18.8738 28.5072 14.4569ZM15.4997 20.0108C10.8862 20.0108 6.59312 17.7374 4.12619 14.0348C6.59318 10.3323 10.8862 8.02631 15.4997 8.02631C20.1132 8.02631 24.4063 10.2997 26.8732 14.0023C24.4062 17.7048 20.1132 20.0108 15.4997 20.0108Z" fill="#CCCCCC" stroke="#CCCCCC" stroke-width="0.5"/>
<path d="M15.4999 9.94141C13.2892 9.94141 11.4951 11.7601 11.4951 14.0012C11.4951 16.2422 13.2892 18.061 15.4999 18.061C17.7106 18.061 19.5046 16.2422 19.5046 14.0012C19.5046 11.7601 17.7106 9.94141 15.4999 9.94141ZM15.4999 16.4371C14.1863 16.4371 13.097 15.3329 13.097 14.0012C13.097 12.6695 14.1863 11.5653 15.4999 11.5653C16.8135 11.5653 17.9027 12.6695 17.9027 14.0012C17.9027 15.3329 16.8135 16.4371 15.4999 16.4371Z" fill="#CCCCCC" stroke="#CCCCCC" stroke-width="0.5"/>
</svg>
