<svg width="35" height="34" viewBox="0 0 35 34" fill="none" xmlns="http://www.w3.org/2000/svg">
<path d="M25.6495 15.7502V20.2353C25.6495 21.0601 24.9793 21.7305 24.1544 21.7305H11.1973C10.3726 21.7305 9.70215 21.0603 9.70215 20.2353L9.70232 15.7502C9.70232 15.4761 9.9241 15.2519 10.2006 15.2519C10.4771 15.2519 10.6989 15.4761 10.6989 15.7502V20.2353C10.6989 20.5094 10.9231 20.7336 11.1972 20.7336H24.1543C24.4284 20.7336 24.6526 20.5094 24.6526 20.2353L24.6528 15.7502C24.6528 15.4761 24.8746 15.2519 25.1511 15.2519C25.4276 15.2519 25.6494 15.4761 25.6494 15.7502H25.6495ZM17.3248 18.5934C17.422 18.6905 17.5491 18.7402 17.6761 18.7402C17.8032 18.7402 17.9302 18.6903 18.0274 18.5932L20.5191 16.1014C20.7134 15.9071 20.7134 15.5906 20.5191 15.3963C20.3248 15.202 20.0083 15.202 19.814 15.3963L18.1744 17.0384V9.27174C18.1744 8.99764 17.9526 8.77344 17.6761 8.77344C17.3996 8.77344 17.1778 8.99765 17.1778 9.27174V17.0384L15.5358 15.3965C15.3415 15.2021 15.025 15.2021 14.8306 15.3965C14.6363 15.5908 14.6363 15.9073 14.8306 16.1016L17.3248 18.5934Z" fill="black"/>
<circle cx="17.6759" cy="17.0001" r="16.3751" stroke="black"/>
</svg>
