<svg width="2" height="8" viewBox="0 0 2 8" fill="none" xmlns="http://www.w3.org/2000/svg">
<path d="M0.000349803 0.778991C-0.00423194 0.628404 0.0362835 0.479881 0.116698 0.35248C0.197113 0.225078 0.313759 0.124608 0.45167 0.0639606C0.589582 0.003313 0.742467 -0.0147463 0.890714 0.0120998C1.03896 0.038946 1.17581 0.109473 1.28369 0.214633C1.39158 0.319792 1.46558 0.454787 1.49621 0.602297C1.52684 0.749808 1.5127 0.903107 1.4556 1.04252C1.3985 1.18194 1.30105 1.30112 1.17575 1.38477C1.05044 1.46842 0.903006 1.51272 0.752351 1.51199C0.65454 1.51439 0.557237 1.49721 0.466162 1.46146C0.375088 1.42571 0.292079 1.37212 0.222016 1.30383C0.151954 1.23553 0.0962514 1.15392 0.0581844 1.06379C0.0201175 0.973662 0.000453674 0.876831 0.000349803 0.778991ZM0.0513504 2.08799H1.44835V7.37199H0.0483501L0.0513504 2.08799Z" fill="black"/>
</svg>
