<?xml version="1.0" encoding="UTF-8"?>
<svg xmlns="http://www.w3.org/2000/svg" xmlns:xlink="http://www.w3.org/1999/xlink" viewBox="0 0 48 48" width="48px" height="48px">
<g id="surface47788311">
<path style=" stroke:none;fill-rule:nonzero;fill:rgb(100%,100%,100%);fill-opacity:1;" d="M 30 7.5 C 29.171875 7.5 28.5 8.171875 28.5 9 C 28.5 9.828125 29.171875 10.5 30 10.5 L 35.378906 10.5 L 22.941406 22.941406 C 22.355469 23.523438 22.355469 24.476562 22.941406 25.058594 C 23.234375 25.355469 23.617188 25.5 24 25.5 C 24.382812 25.5 24.765625 25.355469 25.058594 25.058594 L 37.5 12.621094 L 37.5 18 C 37.5 18.828125 38.171875 19.5 39 19.5 C 39.828125 19.5 40.5 18.828125 40.5 18 L 40.5 9 C 40.5 8.171875 39.828125 7.5 39 7.5 Z M 13.5 9 C 11.019531 9 9 11.019531 9 13.5 L 9 34.5 C 9 36.980469 11.019531 39 13.5 39 L 34.5 39 C 36.980469 39 39 36.980469 39 34.5 L 39 25.5 C 39 24.671875 38.328125 24 37.5 24 C 36.671875 24 36 24.671875 36 25.5 L 36 34.5 C 36 35.328125 35.328125 36 34.5 36 L 13.5 36 C 12.671875 36 12 35.328125 12 34.5 L 12 13.5 C 12 12.671875 12.671875 12 13.5 12 L 22.5 12 C 23.328125 12 24 11.328125 24 10.5 C 24 9.671875 23.328125 9 22.5 9 Z M 13.5 9 "/>
</g>
</svg>
