<svg width="36" height="36" viewBox="0 0 36 36" fill="none" xmlns="http://www.w3.org/2000/svg">
<circle cx="18" cy="18" r="18" fill="#F0F0F0"/>
<path d="M28.6562 18C28.6562 12.1133 23.8867 7.34375 18 7.34375C12.1133 7.34375 7.34375 12.1133 7.34375 18C7.34375 23.3187 11.2406 27.7273 16.335 28.5273V21.0804H13.6279V18H16.335V15.6522C16.335 12.9817 17.9248 11.5066 20.3598 11.5066C21.526 11.5066 22.7455 11.7145 22.7455 11.7145V14.3356H21.4014C20.078 14.3356 19.665 15.1572 19.665 15.9998V18H22.6204L22.1478 21.0804H19.665V28.5273C24.7594 27.7273 28.6562 23.3187 28.6562 18Z" fill="black"/>
</svg>
