<svg width="19" height="19" viewBox="0 0 19 19" fill="none" xmlns="http://www.w3.org/2000/svg">
<path d="M2.88906 1H16.1109C16.6119 1 17.0924 1.19903 17.4467 1.55329C17.801 1.90756 18 2.38805 18 2.88906V16.1109C18 16.6119 17.801 17.0924 17.4467 17.4467C17.0924 17.801 16.6119 18 16.1109 18H2.88906C2.38805 18 1.90756 17.801 1.55329 17.4467C1.19903 17.0924 1 16.6119 1 16.1109V2.88906C1 2.38805 1.19903 1.90756 1.55329 1.55329C1.90756 1.19903 2.38805 1 2.88906 1Z" fill="white" stroke="#F7BC7D" stroke-linecap="round" stroke-linejoin="round"/>
<path d="M1 6.66602H17.9992H1Z" fill="white"/>
<path d="M1 6.66602H17.9992" stroke="#F7BC7D" stroke-linecap="round" stroke-linejoin="round"/>
<path d="M6.6665 17.9988V6.66602V17.9988Z" fill="white"/>
<path d="M6.6665 17.9988V6.66602" stroke="#F7BC7D" stroke-linecap="round" stroke-linejoin="round"/>
</svg>
