<svg width="21" height="21" viewBox="0 0 21 21" fill="none" xmlns="http://www.w3.org/2000/svg">
<path d="M13.4394 9.54374V12.871C13.4394 13.558 13.0211 14.1758 12.3833 14.4309L9.86328 15.4389C9.00183 15.7835 8.02413 15.3644 7.67949 14.503C7.60016 14.3046 7.55938 14.0927 7.55938 13.8791V9.5438L3.74878 4.9712C3.49717 4.66922 3.35938 4.2887 3.35938 3.89564C3.35938 3.43169 3.73543 3.05564 4.19938 3.05564C4.66333 3.05564 5.03938 3.43169 5.03938 3.89564L9.04468 8.70194C9.17686 8.86061 9.24073 9.05363 9.23933 9.24521V13.879L11.7593 12.8709V9.24515C11.7579 9.05355 11.8218 8.86055 11.954 8.70188L15.9593 3.89558V3.35969H6.30047C5.83652 3.35969 5.46047 2.98364 5.46047 2.51969C5.46047 2.05574 5.83652 1.67969 6.30047 1.67969H15.9593C16.8872 1.67969 17.6393 2.43179 17.6393 3.35969V3.89558C17.6393 4.28864 17.5015 4.66913 17.2499 4.97114L13.4394 9.54374Z" fill="#323232"/>
</svg>
