<svg width="31" height="31" viewBox="0 0 31 31" fill="none" xmlns="http://www.w3.org/2000/svg">
<circle cx="15.209" cy="15.1855" r="15" fill="black" fill-opacity="0.8"/>
<path d="M22.2091 15.1856C22.2091 14.7458 22.1678 14.3056 22.0861 13.8782C22.0493 13.6847 21.8799 13.5449 21.6832 13.5449H15.2363C15.0096 13.5449 14.8262 13.7284 14.8262 13.9551V16.4161C14.8262 16.6428 15.0096 16.8262 15.2363 16.8262H18.5441C18.338 17.2434 18.054 17.6055 17.7204 17.91L20.0387 20.2283C21.3726 18.9574 22.2091 17.1691 22.2091 15.1856Z" fill="white"/>
<path d="M15.2085 11.4669C16.0132 11.4669 16.7787 11.7224 17.422 12.2063C17.5846 12.3284 17.8141 12.3136 17.9583 12.1682L19.7087 10.4178C19.79 10.3365 19.8337 10.2247 19.8285 10.1098C19.8233 9.9948 19.7704 9.88745 19.6823 9.81335C18.4298 8.76355 16.8408 8.18555 15.2085 8.18555C12.8064 8.18555 10.6842 9.40658 9.42969 11.2605L11.8373 13.6681C12.4117 12.3742 13.704 11.4669 15.2085 11.4669Z" fill="white"/>
<path d="M15.2085 22.1856C16.7743 22.1856 18.2162 21.6606 19.3813 20.786L17.0196 18.4242C16.4797 18.7282 15.8627 18.9043 15.2085 18.9043C13.704 18.9043 12.4117 17.9969 11.8373 16.7031L9.42969 19.1107C10.6842 20.9646 12.8064 22.1856 15.2085 22.1856Z" fill="white"/>
<path d="M11.55 15.7768C11.5186 15.5832 11.4903 15.3883 11.4903 15.186C11.4903 14.9837 11.5186 14.7888 11.55 14.5952L8.97626 12.0215C8.48932 12.9725 8.20898 14.0462 8.20898 15.186C8.20898 16.3258 8.48932 17.3995 8.97629 18.3505L11.55 15.7768Z" fill="white"/>
</svg>
