<svg width="140" height="10" viewBox="0 0 140 10" fill="none" xmlns="http://www.w3.org/2000/svg">
<path fill-rule="evenodd" clip-rule="evenodd" d="M73.1467 9.69369C72.8192 9.73863 72.4852 9.70979 72.1713 9.60945C71.8573 9.50912 71.5721 9.34004 71.338 9.11562C71.1041 8.8912 70.9278 8.61759 70.8233 8.31649C70.7186 8.01538 70.6885 7.69505 70.7353 7.38086H71.3383C71.3031 7.61649 71.3258 7.85671 71.4042 8.08251C71.4827 8.3083 71.6149 8.51349 71.7904 8.68178C71.9658 8.85008 72.1798 8.9769 72.4152 9.05217C72.6506 9.12745 72.9011 9.14912 73.1467 9.11548H79.1752C79.4208 9.14912 79.6713 9.12745 79.9067 9.05217C80.1421 8.9769 80.3561 8.85008 80.5315 8.68178C80.707 8.51349 80.8392 8.3083 80.9177 8.08251C80.9962 7.85671 81.0188 7.61649 80.9837 7.38086C81.0188 7.14524 80.9962 6.90502 80.9177 6.67921C80.8392 6.45341 80.707 6.24824 80.5315 6.07994C80.3561 5.91164 80.1421 5.78483 79.9067 5.70955C79.6713 5.63428 79.4208 5.6126 79.1752 5.64625H73.1467C72.8192 5.69119 72.4852 5.66235 72.1713 5.56201C71.8573 5.46167 71.5721 5.2926 71.338 5.06818C71.1041 4.84376 70.9278 4.57014 70.8233 4.26904C70.7186 3.96794 70.6885 3.64761 70.7353 3.33342C70.6885 3.01924 70.7186 2.69891 70.8233 2.3978C70.9278 2.09669 71.1041 1.82309 71.338 1.59867C71.5721 1.37424 71.8573 1.20516 72.1713 1.10482C72.4852 1.00449 72.8192 0.975655 73.1467 1.0206H79.1752C79.5026 0.975864 79.8364 1.00486 80.1503 1.10529C80.464 1.20572 80.7491 1.37483 80.983 1.59922C81.2167 1.82362 81.3929 2.09715 81.4975 2.39815C81.6019 2.69914 81.632 3.01935 81.5852 3.33342H80.9823C81.0175 3.09779 80.9949 2.85757 80.9164 2.63177C80.838 2.40597 80.7057 2.2008 80.5303 2.0325C80.3548 1.86419 80.1408 1.73739 79.9054 1.66211C79.67 1.58683 79.4196 1.56515 79.1739 1.5988H73.1454C72.8998 1.56515 72.6493 1.58683 72.4139 1.66211C72.1786 1.73739 71.9646 1.86419 71.7891 2.0325C71.6136 2.2008 71.4814 2.40597 71.4029 2.63177C71.3245 2.85757 71.3018 3.09779 71.337 3.33342C71.3018 3.56905 71.3245 3.80927 71.4029 4.03506C71.4814 4.26086 71.6136 4.46604 71.7891 4.63434C71.9646 4.80264 72.1786 4.92945 72.4139 5.00473C72.6493 5.08001 72.8998 5.10168 73.1454 5.06804H79.1739C79.5015 5.0231 79.8354 5.05193 80.1494 5.15227C80.4633 5.25261 80.7485 5.42168 80.9826 5.64611C81.2166 5.87053 81.3928 6.14413 81.4974 6.44524C81.6021 6.74635 81.6321 7.06668 81.5852 7.38086C81.6321 7.69505 81.6021 8.01538 81.4974 8.31649C81.3928 8.61759 81.2166 8.8912 80.9826 9.11562C80.7485 9.34004 80.4633 9.50912 80.1494 9.60945C79.8354 9.70979 79.5015 9.73863 79.1739 9.69369H73.1467ZM30.052 9.60949C30.3659 9.7098 30.6998 9.73862 31.0273 9.6937H37.055C37.3826 9.73862 37.7165 9.7098 38.0304 9.60949C38.3443 9.5092 38.6295 9.3402 38.8635 9.11587C39.0975 8.89154 39.2737 8.61805 39.3782 8.31708C39.4829 8.0161 39.513 7.6959 39.466 7.38185V3.33244C39.513 3.01839 39.4829 2.69819 39.3782 2.39721C39.2737 2.09622 39.0975 1.82274 38.8635 1.59842C38.6295 1.37408 38.3443 1.20507 38.0304 1.10478C37.7165 1.00449 37.3826 0.975665 37.055 1.02059H31.0273C30.6998 0.975665 30.3659 1.00449 30.052 1.10478C29.738 1.20507 29.4529 1.37408 29.2188 1.59842C28.9849 1.82274 28.8087 2.09622 28.7041 2.39721C28.5994 2.69819 28.5693 3.01839 28.6162 3.33244V7.38185C28.5693 7.6959 28.5994 8.0161 28.7041 8.31708C28.8087 8.61805 28.9849 8.89154 29.2188 9.11587C29.4529 9.3402 29.738 9.5092 30.052 9.60949ZM24.2313 1.10501C23.9169 1.0045 23.5825 0.975611 23.2544 1.02063L14.7979 1.02555V9.71429H15.4015V5.65586H23.2519C23.498 5.62215 23.7488 5.64386 23.9845 5.71928C24.2202 5.79469 24.4345 5.92172 24.6102 6.09033C24.7859 6.25894 24.9183 6.46448 24.9969 6.69068C25.0755 6.9169 25.0981 7.15755 25.0629 7.3936V9.7106H25.6691V7.3936C25.7198 6.99849 25.6516 6.59777 25.4729 6.23852C25.2942 5.87927 25.0124 5.57643 24.6604 5.36562C25.0124 5.15479 25.2942 4.85195 25.4729 4.49271C25.6516 4.13346 25.7198 3.73272 25.6691 3.33763C25.7162 3.02288 25.6861 2.70197 25.5812 2.40032C25.4765 2.09866 25.3 1.82457 25.0657 1.59975C24.8313 1.37491 24.5457 1.20553 24.2313 1.10501ZM10.4367 1.10846C10.123 1.00817 9.78932 0.979347 9.46202 1.02427L3.4309 1.02059C3.1036 0.975666 2.76989 1.00449 2.45621 1.10478C2.14253 1.20506 1.85751 1.37406 1.62372 1.59839C1.38992 1.82271 1.21379 2.09618 1.10926 2.39715C1.00474 2.69812 0.974697 3.0183 1.02152 3.33234V7.38159C0.974595 7.69586 1.00466 8.0163 1.10932 8.31748C1.21399 8.61866 1.39037 8.89229 1.62446 9.11667C1.85856 9.34103 2.14394 9.50997 2.45795 9.61007C2.77195 9.71018 3.10596 9.73868 3.43345 9.69334H9.46202C9.78857 9.73728 10.1213 9.70786 10.434 9.60739C10.7466 9.50692 11.0307 9.33815 11.2638 9.11437C11.4969 8.8906 11.6727 8.61794 11.7772 8.31787C11.8818 8.01781 11.9123 7.69856 11.8663 7.38527V5.07352H5.84283V5.65146H11.2691V7.38527C11.3041 7.62079 11.2815 7.8609 11.2031 8.08659C11.1247 8.31228 10.9926 8.51737 10.8172 8.68558C10.6419 8.85381 10.4282 8.98056 10.193 9.05581C9.95773 9.13105 9.70749 9.15271 9.46202 9.11909H3.43345C3.18799 9.15271 2.93774 9.13105 2.70251 9.05581C2.46728 8.98056 2.25355 8.85381 2.07822 8.68558C1.9029 8.51737 1.77079 8.31228 1.69237 8.08659C1.61395 7.8609 1.59137 7.62079 1.62642 7.38527V3.33602C1.59137 3.1005 1.61395 2.86039 1.69237 2.63469C1.77079 2.409 1.9029 2.20393 2.07822 2.0357C2.25355 1.86747 2.46728 1.74073 2.70251 1.66549C2.93774 1.59024 3.18799 1.56857 3.43345 1.60221H9.46202C9.70719 1.56921 9.95699 1.59135 10.1917 1.66687C10.4264 1.7424 10.6397 1.86924 10.8145 2.03738C10.9894 2.20552 11.1212 2.41038 11.1994 2.63575C11.2776 2.86112 11.3001 3.10085 11.2652 3.33602H11.8714C11.9182 3.02198 11.8882 2.7018 11.7836 2.40083C11.6791 2.09986 11.503 1.82639 11.2692 1.60207C11.0354 1.37774 10.7504 1.20874 10.4367 1.10846ZM24.9491 3.54137C24.9835 3.29695 24.9614 3.04777 24.8847 2.81354C24.8081 2.57932 24.6789 2.3665 24.5075 2.19191C24.3361 2.01733 24.1271 1.8858 23.8971 1.80772C23.6672 1.72963 23.4225 1.70714 23.1825 1.74205H15.5244V5.34069H23.18C23.4201 5.37602 23.6652 5.35387 23.8954 5.27598C24.1257 5.19809 24.335 5.06661 24.5068 4.89198C24.6784 4.71734 24.8078 4.50435 24.8846 4.26991C24.9615 4.03547 24.9835 3.78602 24.9491 3.54137ZM29.3369 7.305C29.3027 7.53161 29.3248 7.76262 29.4014 7.97977C29.4779 8.19692 29.6069 8.39424 29.778 8.55609C29.9492 8.71794 30.158 8.8399 30.3876 8.91229C30.6172 8.98469 30.8615 9.00552 31.1011 8.97318H36.9818C37.2216 9.00552 37.4659 8.98469 37.6955 8.91229C37.9251 8.8399 38.1339 8.71794 38.305 8.55609C38.4762 8.39424 38.6052 8.19692 38.6817 7.97977C38.7583 7.76262 38.7804 7.53161 38.746 7.305V3.40906C38.7804 3.18245 38.7583 2.95143 38.6817 2.73428C38.6052 2.51713 38.4762 2.31982 38.305 2.15796C38.1339 1.9961 37.9251 1.87416 37.6955 1.80176C37.4659 1.72937 37.2216 1.70852 36.9818 1.74088H31.1011C30.8615 1.70852 30.6172 1.72937 30.3876 1.80176C30.158 1.87416 29.9492 1.9961 29.778 2.15796C29.6069 2.31982 29.4779 2.51713 29.4014 2.73428C29.3248 2.95143 29.3027 3.18245 29.3369 3.40906V7.305ZM52.6611 1V7.37534C52.6963 7.61152 52.6736 7.85231 52.5952 8.07864C52.5167 8.30497 52.3845 8.51064 52.2091 8.67933C52.0336 8.84804 51.8196 8.97515 51.5843 9.05061C51.3489 9.12606 51.0985 9.14778 50.8529 9.11406H44.8251C44.5795 9.14778 44.3291 9.12606 44.0937 9.05061C43.8584 8.97515 43.6444 8.84804 43.4689 8.67933C43.2935 8.51064 43.1613 8.30497 43.0828 8.07864C43.0044 7.85231 42.9817 7.61152 43.0169 7.37534V1H42.414V7.37534C42.3672 7.69026 42.3973 8.01136 42.502 8.31318C42.6065 8.61499 42.7827 8.88925 43.0167 9.1142C43.2507 9.33915 43.5359 9.50863 43.8498 9.6092C44.1637 9.70978 44.4976 9.73869 44.8251 9.69364H50.8529C51.1804 9.73869 51.5143 9.70978 51.8282 9.6092C52.1421 9.50863 52.4273 9.33915 52.6613 9.1142C52.8953 8.88925 53.0715 8.61499 53.1761 8.31318C53.2807 8.01136 53.3108 7.69026 53.264 7.37534V1H52.6611ZM65.3725 1.02064C65.7006 0.975607 66.0352 1.0045 66.3497 1.10503C66.6643 1.20556 66.95 1.37496 67.1845 1.59983C67.4189 1.82469 67.5955 2.09882 67.7002 2.40051C67.8051 2.70221 67.8353 3.02317 67.7883 3.33796C67.8353 3.65275 67.8051 3.97371 67.7002 4.27539C67.5955 4.57709 67.4189 4.85123 67.1845 5.07609C66.95 5.30094 66.6643 5.47035 66.3497 5.57088C66.0352 5.67142 65.7006 5.70031 65.3725 5.65528H57.5211V9.71429H56.917V1.02433L65.3725 1.02064ZM67.0017 2.8136C67.0783 3.04784 67.1004 3.29703 67.0661 3.54146H67.0673C67.1017 3.78601 67.0796 4.03534 67.0029 4.26968C66.9261 4.50403 66.7968 4.71694 66.6253 4.89156C66.4537 5.06618 66.2445 5.19769 66.0143 5.27569C65.7842 5.35367 65.5393 5.37599 65.2993 5.34088H57.6426V1.74205H65.2993C65.5392 1.70714 65.7839 1.72963 66.0139 1.80772C66.2439 1.88581 66.4529 2.01735 66.6244 2.19194C66.7958 2.36653 66.925 2.57937 67.0017 2.8136ZM85.1167 9.71429V5.64392H94.7996V9.71429H95.4046V1H94.7996V5.07037H85.1167V1H84.5117V9.71429H85.1167ZM100.738 9.6937C100.411 9.73819 100.077 9.70905 99.7639 9.60857C99.4506 9.50809 99.1659 9.33902 98.9325 9.11474C98.699 8.89047 98.5231 8.61714 98.4187 8.31638C98.3143 8.01561 98.2843 7.69567 98.3311 7.38185V3.33244C98.2842 3.01839 98.3142 2.69819 98.4188 2.39721C98.5233 2.09622 98.6994 1.82274 98.9332 1.59842C99.1671 1.37408 99.452 1.20507 99.7657 1.10478C100.079 1.00449 100.413 0.975665 100.74 1.02059H106.771C107.099 0.975665 107.433 1.00449 107.746 1.10478C108.06 1.20507 108.345 1.37408 108.579 1.59842C108.813 1.82274 108.989 2.09622 109.093 2.39721C109.198 2.69819 109.228 3.01839 109.181 3.33244V7.38185C109.228 7.6959 109.198 8.0161 109.093 8.31708C108.989 8.61805 108.813 8.89154 108.579 9.11587C108.345 9.3402 108.06 9.5092 107.746 9.60949C107.433 9.7098 107.099 9.73862 106.771 9.6937H100.738ZM99.1161 7.97928C99.0396 7.76203 99.0175 7.53089 99.0518 7.30418L99.0617 3.40988C99.0275 3.18316 99.0496 2.95203 99.1261 2.73477C99.2025 2.51752 99.3313 2.32011 99.5023 2.15817C99.6733 1.99623 99.8819 1.87423 100.111 1.8018C100.341 1.72937 100.585 1.70851 100.824 1.74089H106.699C106.938 1.70864 107.181 1.72947 107.41 1.80171C107.639 1.87395 107.848 1.99563 108.019 2.15714C108.189 2.31866 108.318 2.51558 108.395 2.73237C108.472 2.94916 108.494 3.17989 108.461 3.40633V7.30418C108.495 7.53089 108.473 7.76203 108.397 7.97928C108.32 8.19653 108.191 8.39395 108.02 8.55588C107.849 8.71781 107.641 8.83983 107.411 8.91226C107.182 8.98469 106.938 9.00553 106.699 8.97317H100.814C100.575 9.00553 100.331 8.98469 100.101 8.91226C99.8719 8.83983 99.6634 8.71781 99.4924 8.55588C99.3214 8.39395 99.1925 8.19653 99.1161 7.97928ZM120.563 1.02064C120.891 0.975607 121.225 1.0045 121.54 1.10503C121.855 1.20556 122.14 1.37496 122.375 1.59983C122.61 1.82469 122.787 2.09882 122.891 2.40051C122.996 2.70221 123.025 3.02317 122.979 3.33796C123.025 3.65275 122.996 3.97371 122.891 4.27539C122.787 4.57709 122.61 4.85123 122.375 5.07609C122.14 5.30094 121.855 5.47035 121.54 5.57088C121.225 5.67142 120.891 5.70031 120.563 5.65528H112.712V9.71429H112.107V1.02433L120.563 1.02064ZM122.186 2.81343C122.263 3.04763 122.284 3.29679 122.25 3.54118H122.258C122.292 3.78605 122.27 4.03573 122.193 4.27038C122.116 4.50502 121.987 4.71815 121.815 4.89282C121.643 5.0675 121.433 5.1989 121.203 5.27658C120.972 5.35427 120.727 5.37608 120.487 5.34031H112.833V1.74204H120.484C120.724 1.70714 120.969 1.72963 121.198 1.80771C121.428 1.88578 121.637 2.0173 121.809 2.19187C121.98 2.36643 122.109 2.57923 122.186 2.81343Z" fill="black"/>
<path d="M72.1713 9.60945L72.3235 9.13318L72.3235 9.13318L72.1713 9.60945ZM73.1467 9.69369V9.19369H73.1125L73.0787 9.19833L73.1467 9.69369ZM71.338 9.11562L70.9919 9.47646L70.992 9.47655L71.338 9.11562ZM70.8233 8.31649L71.2956 8.15246L71.2955 8.15228L70.8233 8.31649ZM70.7353 7.38086V6.88086H70.3044L70.2408 7.30713L70.7353 7.38086ZM71.3383 7.38086L71.8328 7.45473L71.9185 6.88086H71.3383V7.38086ZM71.7904 8.68178L72.1365 8.32093L72.1365 8.32091L71.7904 8.68178ZM72.4152 9.05217L72.5675 8.57594L72.5675 8.57594L72.4152 9.05217ZM73.1467 9.11548V8.61548H73.1126L73.0788 8.62011L73.1467 9.11548ZM79.1752 9.11548L79.2431 8.62011L79.2093 8.61548H79.1752V9.11548ZM79.9067 9.05217L79.7544 8.57594L79.7544 8.57594L79.9067 9.05217ZM80.5315 8.68178L80.1855 8.32091L80.1854 8.32093L80.5315 8.68178ZM80.9837 7.38086L80.4892 7.30727L80.4782 7.38086L80.4892 7.45446L80.9837 7.38086ZM80.9177 6.67921L81.39 6.5151V6.51509L80.9177 6.67921ZM80.5315 6.07994L80.8776 5.71908L80.8776 5.71908L80.5315 6.07994ZM79.9067 5.70955L79.7544 6.18579L79.7544 6.18579L79.9067 5.70955ZM79.1752 5.64625V6.14625H79.2093L79.2431 6.14162L79.1752 5.64625ZM73.1467 5.64625V5.14625H73.1125L73.0787 5.15089L73.1467 5.64625ZM72.1713 5.56201L72.3235 5.08574L72.3235 5.08574L72.1713 5.56201ZM71.338 5.06818L70.9919 5.42902L70.992 5.42911L71.338 5.06818ZM70.8233 4.26904L71.2956 4.10501L71.2955 4.10482L70.8233 4.26904ZM70.7353 3.33342L71.2299 3.40716L71.2409 3.33342L71.2299 3.25969L70.7353 3.33342ZM70.8233 2.3978L71.2955 2.56201L71.2956 2.56183L70.8233 2.3978ZM71.338 1.59867L70.992 1.23775L70.9919 1.23783L71.338 1.59867ZM72.1713 1.10482L72.3235 1.5811L72.1713 1.10482ZM73.1467 1.0206L73.0787 1.51596L73.1125 1.5206H73.1467V1.0206ZM79.1752 1.0206V1.5206H79.2092L79.2429 1.51599L79.1752 1.0206ZM80.1503 1.10529L80.3027 0.629098L80.3027 0.62908L80.1503 1.10529ZM80.983 1.59922L81.3293 1.23855L81.3292 1.23846L80.983 1.59922ZM81.4975 2.39815L81.9699 2.23424L81.9698 2.23407L81.4975 2.39815ZM81.5852 3.33342V3.83342H82.0161L82.0797 3.40719L81.5852 3.33342ZM80.9823 3.33342L80.4878 3.25956L80.4021 3.83342H80.9823V3.33342ZM80.9164 2.63177L80.4441 2.79587L80.4441 2.79588L80.9164 2.63177ZM80.5303 2.0325L80.8764 1.67165V1.67165L80.5303 2.0325ZM79.9054 1.66211L80.0577 1.18587L80.0577 1.18587L79.9054 1.66211ZM79.1739 1.5988V2.0988H79.208L79.2418 2.09418L79.1739 1.5988ZM73.1454 1.5988L73.0775 2.09418L73.1113 2.0988H73.1454V1.5988ZM72.4139 1.66211L72.5662 2.13835L72.5663 2.13835L72.4139 1.66211ZM71.7891 2.0325L71.443 1.67165V1.67165L71.7891 2.0325ZM71.4029 2.63177L70.9306 2.46765V2.46766L71.4029 2.63177ZM71.337 3.33342L71.8315 3.4073L71.8426 3.33342L71.8315 3.25954L71.337 3.33342ZM71.7891 4.63434L72.1352 4.27349L72.1352 4.27348L71.7891 4.63434ZM72.4139 5.00473L72.5663 4.5285L72.5662 4.52849L72.4139 5.00473ZM73.1454 5.06804V4.56804H73.1113L73.0776 4.57266L73.1454 5.06804ZM79.1739 5.06804V5.56804H79.2081L79.2419 5.5634L79.1739 5.06804ZM80.1494 5.15227L80.3016 4.676L80.3016 4.676L80.1494 5.15227ZM80.9826 5.64611L81.3287 5.28528L81.3286 5.28518L80.9826 5.64611ZM81.4974 6.44524L81.025 6.60927L81.0251 6.60945L81.4974 6.44524ZM81.5852 7.38086L81.0907 7.30693L81.0796 7.38086L81.0907 7.4548L81.5852 7.38086ZM81.4974 8.31649L81.0251 8.15228L81.025 8.15246L81.4974 8.31649ZM80.9826 9.11562L81.3286 9.47655L81.3287 9.47645L80.9826 9.11562ZM80.1494 9.60945L79.9972 9.13318L79.9972 9.13318L80.1494 9.60945ZM79.1739 9.69369L79.2419 9.19833L79.2081 9.19369H79.1739V9.69369ZM31.0273 9.6937V9.1937H30.9931L30.9593 9.19834L31.0273 9.6937ZM30.052 9.60949L30.2041 9.13321L30.2041 9.13321L30.052 9.60949ZM37.055 9.6937L37.1229 9.19833L37.0891 9.1937H37.055V9.6937ZM38.0304 9.60949L37.8782 9.13321L37.8782 9.13321L38.0304 9.60949ZM38.8635 9.11587L39.2095 9.47686L39.2096 9.47676L38.8635 9.11587ZM39.3782 8.31708L38.906 8.15282L38.9059 8.153L39.3782 8.31708ZM39.466 7.38185H38.966V7.41903L38.9715 7.4558L39.466 7.38185ZM39.466 3.33244L38.9715 3.25848L38.966 3.29526V3.33244H39.466ZM39.3782 2.39721L38.9059 2.56128L38.906 2.56146L39.3782 2.39721ZM38.8635 1.59842L39.2096 1.23752L39.2095 1.23744L38.8635 1.59842ZM38.0304 1.10478L38.1826 0.628495L38.0304 1.10478ZM37.055 1.02059V1.52059H37.0891L37.1229 1.51595L37.055 1.02059ZM31.0273 1.02059L30.9593 1.51595L30.9931 1.52059H31.0273V1.02059ZM30.052 1.10478L29.8998 0.628495L30.052 1.10478ZM29.2188 1.59842L28.8729 1.23744L28.8728 1.23752L29.2188 1.59842ZM28.7041 2.39721L29.1764 2.56146L29.1764 2.56128L28.7041 2.39721ZM28.6162 3.33244H29.1162V3.29535L29.1107 3.25868L28.6162 3.33244ZM28.6162 7.38185L29.1107 7.45561L29.1162 7.41893V7.38185H28.6162ZM28.7041 8.31708L29.1764 8.153L29.1764 8.15283L28.7041 8.31708ZM29.2188 9.11587L28.8728 9.47676L28.8729 9.47686L29.2188 9.11587ZM23.2544 1.02063L23.2547 1.52063L23.2887 1.52062L23.3224 1.51599L23.2544 1.02063ZM24.2313 1.10501L24.0791 1.58127L24.2313 1.10501ZM14.7979 1.02555L14.7976 0.525554L14.2979 0.525845V1.02555H14.7979ZM14.7979 9.71429H14.2979V10.2143H14.7979V9.71429ZM15.4015 9.71429V10.2143H15.9015V9.71429H15.4015ZM15.4015 5.65586V5.15586H14.9015V5.65586H15.4015ZM23.2519 5.65586V6.15586H23.286L23.3197 6.15123L23.2519 5.65586ZM24.6102 6.09033L24.264 6.4511L24.264 6.45111L24.6102 6.09033ZM24.9969 6.69068L25.4692 6.52664L25.4692 6.52663L24.9969 6.69068ZM25.0629 7.3936L24.5684 7.31976L24.5629 7.35648V7.3936H25.0629ZM25.0629 9.7106H24.5629V10.2106H25.0629V9.7106ZM25.6691 9.7106V10.2106H26.1691V9.7106H25.6691ZM25.6691 7.3936L25.1732 7.33005L25.1691 7.3617V7.3936H25.6691ZM25.4729 6.23852L25.0252 6.46117L25.0252 6.46118L25.4729 6.23852ZM24.6604 5.36562L24.4035 4.93669L23.6874 5.36563L24.4035 5.79455L24.6604 5.36562ZM25.4729 4.49271L25.9206 4.71536V4.71536L25.4729 4.49271ZM25.6691 3.33763L25.1746 3.26373L25.1644 3.33235L25.1732 3.40118L25.6691 3.33763ZM25.5812 2.40032L25.1089 2.56429L25.1089 2.56446L25.5812 2.40032ZM25.0657 1.59975L25.4119 1.23898L25.4118 1.2389L25.0657 1.59975ZM9.46202 1.02427L9.46171 1.52427L9.49602 1.52429L9.53001 1.51963L9.46202 1.02427ZM10.4367 1.10846L10.589 0.632206L10.589 0.632205L10.4367 1.10846ZM3.4309 1.02059L3.36291 1.51594L3.39659 1.52057L3.43059 1.52059L3.4309 1.02059ZM2.45621 1.10478L2.30395 0.628524L2.30395 0.628524L2.45621 1.10478ZM1.62372 1.59839L1.96988 1.95919L1.9699 1.95917L1.62372 1.59839ZM1.10926 2.39715L0.636937 2.2331L0.636931 2.23312L1.10926 2.39715ZM1.02152 3.33234H1.52152V3.29527L1.51605 3.25861L1.02152 3.33234ZM1.02152 7.38159L1.51603 7.45542L1.52152 7.41871V7.38159H1.02152ZM1.10932 8.31748L0.637028 8.48161H0.637028L1.10932 8.31748ZM1.62446 9.11667L1.27848 9.47763L1.27849 9.47764L1.62446 9.11667ZM2.45795 9.61007L2.60982 9.1337L2.60981 9.1337L2.45795 9.61007ZM3.43345 9.69334V9.19334H3.39901L3.36489 9.19807L3.43345 9.69334ZM9.46202 9.69334L9.5287 9.19781L9.49551 9.19334H9.46202V9.69334ZM10.434 9.60739L10.281 9.13136L10.281 9.13136L10.434 9.60739ZM11.2638 9.11437L11.6101 9.47507L11.6101 9.47507L11.2638 9.11437ZM11.7772 8.31787L12.2494 8.4824L12.2494 8.48238L11.7772 8.31787ZM11.8663 7.38527H11.3663V7.42176L11.3716 7.45787L11.8663 7.38527ZM11.8663 5.07352H12.3663V4.57352H11.8663V5.07352ZM5.84283 5.07352V4.57352H5.34283V5.07352H5.84283ZM5.84283 5.65146H5.34283V6.15146H5.84283V5.65146ZM11.2691 5.65146H11.7691V5.15146H11.2691V5.65146ZM11.2691 7.38527H10.7691V7.42226L10.7745 7.45885L11.2691 7.38527ZM10.8172 8.68558L10.4711 8.32478L10.4711 8.32481L10.8172 8.68558ZM10.193 9.05581L10.3453 9.53203H10.3453L10.193 9.05581ZM9.46202 9.11909L9.52987 8.62371L9.4961 8.61909H9.46202V9.11909ZM3.43345 9.11909V8.61909H3.39937L3.3656 8.62371L3.43345 9.11909ZM2.70251 9.05581L2.55017 9.53203L2.55018 9.53204L2.70251 9.05581ZM2.07822 8.68558L1.73205 9.04637L1.73205 9.04637L2.07822 8.68558ZM1.69237 8.08659L2.16467 7.92248L2.16467 7.92248L1.69237 8.08659ZM1.62642 7.38527L2.12097 7.45888L2.12642 7.42228V7.38527H1.62642ZM1.62642 3.33602H2.12642V3.29902L2.12097 3.26242L1.62642 3.33602ZM1.69237 2.63469L1.22007 2.47058L1.22007 2.47059L1.69237 2.63469ZM2.07822 2.0357L1.73205 1.67491L1.73203 1.67492L2.07822 2.0357ZM2.70251 1.66549L2.55018 1.18926L2.55017 1.18926L2.70251 1.66549ZM3.43345 1.60221L3.36558 2.09758L3.39936 2.10221H3.43345V1.60221ZM9.46202 1.60221V2.10221H9.49551L9.52871 2.09774L9.46202 1.60221ZM10.1917 1.66687L10.3449 1.1909L10.3449 1.1909L10.1917 1.66687ZM11.1994 2.63575L11.6717 2.47182L11.6717 2.47181L11.1994 2.63575ZM11.2652 3.33602L10.7706 3.26262L10.6855 3.83602H11.2652V3.33602ZM11.8714 3.33602V3.83602H12.3024L12.3659 3.40975L11.8714 3.33602ZM11.7836 2.40083L11.3113 2.56486L11.3113 2.56488L11.7836 2.40083ZM11.2692 1.60207L10.923 1.96285L10.923 1.96286L11.2692 1.60207ZM24.8847 2.81354L25.3599 2.65804L25.3599 2.65804L24.8847 2.81354ZM24.9491 3.54137L24.454 3.47171L24.4442 3.54133L24.454 3.61095L24.9491 3.54137ZM23.1825 1.74205V2.24205H23.2186L23.2544 2.23684L23.1825 1.74205ZM15.5244 1.74205V1.24205H15.0244V1.74205H15.5244ZM15.5244 5.34069H15.0244V5.84069H15.5244V5.34069ZM23.18 5.34069L23.2527 4.84601L23.2165 4.84069H23.18V5.34069ZM23.8954 5.27598L23.7352 4.80234L23.7351 4.80236L23.8954 5.27598ZM24.5068 4.89198L24.8632 5.24261L24.8633 5.24249L24.5068 4.89198ZM24.8846 4.26991L24.4095 4.11408L24.4094 4.11431L24.8846 4.26991ZM29.3369 7.305L29.8313 7.37964L29.8369 7.34253V7.305H29.3369ZM29.778 8.55609L30.1216 8.19278L30.1216 8.19277L29.778 8.55609ZM30.3876 8.91229L30.2372 9.38915L30.2372 9.38915L30.3876 8.91229ZM31.1011 8.97318V8.47318H31.0675L31.0342 8.47767L31.1011 8.97318ZM36.9818 8.97318L37.0487 8.47767L37.0154 8.47318H36.9818V8.97318ZM38.305 8.55609L37.9615 8.19277L37.9615 8.19278L38.305 8.55609ZM38.6817 7.97977L38.2102 7.81356V7.81356L38.6817 7.97977ZM38.746 7.305H38.246V7.34267L38.2517 7.37991L38.746 7.305ZM38.746 3.40906L38.2517 3.33415L38.246 3.37139V3.40906H38.746ZM38.6817 2.73428L39.1533 2.56807L39.1533 2.56807L38.6817 2.73428ZM36.9818 1.74088V2.24088H37.0154L37.0487 2.23639L36.9818 1.74088ZM31.1011 1.74088L31.0342 2.23638L31.0675 2.24088H31.1011V1.74088ZM30.3876 1.80176L30.2372 1.3249L30.2372 1.32491L30.3876 1.80176ZM29.4014 2.73428L28.9298 2.56807L28.9298 2.56808L29.4014 2.73428ZM29.3369 3.40906H29.8369V3.37153L29.8313 3.33442L29.3369 3.40906ZM52.6611 7.37534H52.1611V7.41238L52.1665 7.44902L52.6611 7.37534ZM52.6611 1V0.5H52.1611V1H52.6611ZM52.5952 8.07864L52.1227 7.91489V7.91489L52.5952 8.07864ZM52.2091 8.67933L51.8625 8.3189L51.8625 8.31892L52.2091 8.67933ZM50.8529 9.11406L50.9209 8.61871L50.8871 8.61406H50.8529V9.11406ZM44.8251 9.11406V8.61406H44.7909L44.7571 8.61871L44.8251 9.11406ZM43.4689 8.67933L43.8155 8.31892L43.8155 8.3189L43.4689 8.67933ZM43.0828 8.07864L43.5553 7.91489V7.91489L43.0828 8.07864ZM43.0169 7.37534L43.5115 7.44903L43.5169 7.41238V7.37534H43.0169ZM43.0169 1H43.5169V0.5H43.0169V1ZM42.414 1V0.5H41.914V1H42.414ZM42.414 7.37534L42.9086 7.44889L42.914 7.41231V7.37534H42.414ZM42.502 8.31318L42.9744 8.14951L42.9743 8.14933L42.502 8.31318ZM43.0167 9.1142L42.6701 9.47461L42.6702 9.4747L43.0167 9.1142ZM43.8498 9.6092L44.0024 9.13305L44.0023 9.13304L43.8498 9.6092ZM44.8251 9.69364V9.19364H44.7909L44.757 9.1983L44.8251 9.69364ZM50.8529 9.69364L50.921 9.1983L50.8871 9.19364H50.8529V9.69364ZM51.8282 9.6092L51.6757 9.13304L51.6757 9.13305L51.8282 9.6092ZM52.6613 9.1142L53.0078 9.4747L53.0079 9.47461L52.6613 9.1142ZM53.1761 8.31318L52.7037 8.14933L52.7036 8.14951L53.1761 8.31318ZM53.264 7.37534H52.764V7.41232L52.7694 7.44889L53.264 7.37534ZM53.264 1H53.764V0.5H53.264V1ZM66.3497 1.10503L66.502 0.628761V0.628761L66.3497 1.10503ZM65.3725 1.02064L65.3727 1.52064L65.4068 1.52062L65.4405 1.516L65.3725 1.02064ZM67.1845 1.59983L67.5306 1.23901L67.5305 1.23893L67.1845 1.59983ZM67.7002 2.40051L67.2279 2.56454L67.228 2.56471L67.7002 2.40051ZM67.7883 3.33796L67.2938 3.26422L67.2828 3.33796L67.2938 3.4117L67.7883 3.33796ZM67.7002 4.27539L67.228 4.11119L67.2279 4.11137L67.7002 4.27539ZM67.1845 5.07609L67.5305 5.437L67.5306 5.43691L67.1845 5.07609ZM66.3497 5.57088L66.1975 5.09461L66.1975 5.09462L66.3497 5.57088ZM65.3725 5.65528L65.4405 5.15992L65.4067 5.15528H65.3725V5.65528ZM57.5211 5.65528V5.15528H57.0211V5.65528H57.5211ZM57.5211 9.71429V10.2143H58.0211V9.71429H57.5211ZM56.917 9.71429H56.417V10.2143H56.917V9.71429ZM56.917 1.02433L56.9168 0.524328L56.417 0.524546V1.02433H56.917ZM67.0661 3.54146L66.5709 3.47181L66.4908 4.04146H67.0661V3.54146ZM67.0017 2.8136L67.4769 2.65809V2.65808L67.0017 2.8136ZM67.0673 3.54146L67.5624 3.47184L67.5019 3.04146H67.0673V3.54146ZM67.0029 4.26968L67.4781 4.42536L67.4781 4.42513L67.0029 4.26968ZM66.6253 4.89156L66.2686 4.54113L66.2686 4.54114L66.6253 4.89156ZM66.0143 5.27569L65.8538 4.80213L65.8538 4.80215L66.0143 5.27569ZM65.2993 5.34088L65.3716 4.84614L65.3356 4.84088H65.2993V5.34088ZM57.6426 5.34088H57.1426V5.84088H57.6426V5.34088ZM57.6426 1.74205V1.24205H57.1426V1.74205H57.6426ZM65.2993 1.74205V2.24205H65.3354L65.3712 2.23684L65.2993 1.74205ZM66.0139 1.80772L65.8531 2.28117L65.8531 2.28117L66.0139 1.80772ZM85.1167 5.64392V5.14392H84.6167V5.64392H85.1167ZM85.1167 9.71429V10.2143H85.6167V9.71429H85.1167ZM94.7996 5.64392H95.2996V5.14392H94.7996V5.64392ZM94.7996 9.71429H94.2996V10.2143H94.7996V9.71429ZM95.4046 9.71429V10.2143H95.9046V9.71429H95.4046ZM95.4046 1H95.9046V0.5H95.4046V1ZM94.7996 1V0.5H94.2996V1H94.7996ZM94.7996 5.07037V5.57037H95.2996V5.07037H94.7996ZM85.1167 5.07037H84.6167V5.57037H85.1167V5.07037ZM85.1167 1H85.6167V0.5H85.1167V1ZM84.5117 1V0.5H84.0117V1H84.5117ZM84.5117 9.71429H84.0117V10.2143H84.5117V9.71429ZM99.7639 9.60857L99.6112 10.0847L99.6113 10.0847L99.7639 9.60857ZM100.738 9.6937V9.1937H100.704L100.671 9.19826L100.738 9.6937ZM98.9325 9.11474L99.279 8.75422L99.2789 8.75412L98.9325 9.11474ZM98.4187 8.31638L97.9463 8.48027V8.48028L98.4187 8.31638ZM98.3311 7.38185L98.8256 7.45561L98.8311 7.41893V7.38185H98.3311ZM98.3311 3.33244H98.8311V3.29528L98.8256 3.25853L98.3311 3.33244ZM98.4188 2.39721L98.8911 2.56136L98.8912 2.56118L98.4188 2.39721ZM98.9332 1.59842L98.5871 1.23756L98.587 1.23764L98.9332 1.59842ZM99.7657 1.10478L99.6135 0.628526L99.7657 1.10478ZM100.74 1.02059L100.673 1.51595L100.706 1.52059H100.74V1.02059ZM106.771 1.02059V1.52059H106.806L106.839 1.51595L106.771 1.02059ZM107.746 1.10478L107.898 0.628526L107.746 1.10478ZM108.579 1.59842L108.925 1.23764L108.925 1.23756L108.579 1.59842ZM109.093 2.39721L108.621 2.56118L108.621 2.56136L109.093 2.39721ZM109.181 3.33244L108.686 3.25873L108.681 3.29538V3.33244H109.181ZM109.181 7.38185H108.681V7.41891L108.686 7.45556L109.181 7.38185ZM109.093 8.31708L108.621 8.15293L108.621 8.1531L109.093 8.31708ZM108.579 9.11587L108.925 9.47673L108.925 9.47664L108.579 9.11587ZM107.746 9.60949L107.594 9.13324L107.594 9.13325L107.746 9.60949ZM106.771 9.6937L106.839 9.19834L106.806 9.1937H106.771V9.6937ZM99.0518 7.30418L99.5462 7.37898L99.5518 7.34242L99.5518 7.30545L99.0518 7.30418ZM99.1161 7.97928L99.5877 7.8133L99.1161 7.97928ZM99.0617 3.40988L99.5617 3.41114L99.5618 3.37303L99.5561 3.33535L99.0617 3.40988ZM99.1261 2.73477L98.6544 2.56879V2.5688L99.1261 2.73477ZM99.5023 2.15817L99.8461 2.52121V2.52121L99.5023 2.15817ZM100.111 1.8018L100.262 2.27859L100.262 2.27859L100.111 1.8018ZM100.824 1.74089L100.757 2.23638L100.79 2.24089H100.824V1.74089ZM106.699 1.74089V2.24089H106.732L106.765 2.2364L106.699 1.74089ZM107.41 1.80171L107.561 1.32487L107.561 1.32485L107.41 1.80171ZM108.019 2.15714L108.362 1.79378L108.362 1.79378L108.019 2.15714ZM108.395 2.73237L107.924 2.89915L107.924 2.89939L108.395 2.73237ZM108.461 3.40633L107.966 3.33332L107.961 3.36963V3.40633H108.461ZM108.461 7.30418H107.961V7.34165L107.967 7.3787L108.461 7.30418ZM108.397 7.97928L107.925 7.8133L108.397 7.97928ZM108.02 8.55588L107.677 8.19283V8.19284L108.02 8.55588ZM107.411 8.91226L107.562 9.38905L107.562 9.38905L107.411 8.91226ZM106.699 8.97317L106.765 8.47767L106.732 8.47317H106.699V8.97317ZM100.814 8.97317V8.47317H100.781L100.747 8.47767L100.814 8.97317ZM100.101 8.91226L100.252 8.43546L100.252 8.43546L100.101 8.91226ZM99.4924 8.55588L99.8362 8.19284L99.8362 8.19282L99.4924 8.55588ZM121.54 1.10503L121.388 1.58131V1.58131L121.54 1.10503ZM120.563 1.02064L120.563 1.52064L120.597 1.52062L120.631 1.516L120.563 1.02064ZM122.375 1.59983L122.029 1.96079L122.029 1.96089L122.375 1.59983ZM122.891 2.40051L122.418 2.56332L122.419 2.5651L122.891 2.40051ZM122.979 3.33796L122.484 3.2654L122.474 3.33796L122.484 3.41052L122.979 3.33796ZM122.891 4.27539L122.419 4.1108L122.418 4.11259L122.891 4.27539ZM122.375 5.07609L122.029 4.71503L122.029 4.71512L122.375 5.07609ZM121.54 5.57088L121.388 5.0946L121.388 5.09461L121.54 5.57088ZM120.563 5.65528L120.631 5.15992L120.597 5.15528H120.563V5.65528ZM112.712 5.65528V5.15528H112.212V5.65528H112.712ZM112.712 9.71429V10.2143H113.212V9.71429H112.712ZM112.107 9.71429H111.607V10.2143H112.107V9.71429ZM112.107 1.02433L112.107 0.524328L111.607 0.524546V1.02433H112.107ZM122.25 3.54118L121.755 3.47277L121.677 4.04118H122.25V3.54118ZM122.186 2.81343L121.711 2.96892L121.711 2.9698L122.186 2.81343ZM122.258 3.54118L122.753 3.47291L122.694 3.04118H122.258V3.54118ZM122.193 4.27038L121.718 4.11403L121.718 4.11449L122.193 4.27038ZM121.815 4.89282L121.458 4.542L121.458 4.54201L121.815 4.89282ZM121.203 5.27658L121.362 5.75043L121.362 5.7504L121.203 5.27658ZM120.487 5.34031L120.56 4.84576L120.524 4.84031H120.487V5.34031ZM112.833 5.34031H112.333V5.84031H112.833V5.34031ZM112.833 1.74204V1.24204H112.333V1.74204H112.833ZM120.484 1.74204V2.24204H120.52L120.556 2.23683L120.484 1.74204ZM121.198 1.80771L121.038 2.28114V2.28114L121.198 1.80771ZM72.0191 10.0857C72.4043 10.2088 72.8135 10.2441 73.2147 10.189L73.0787 9.19833C72.8249 9.23316 72.5662 9.21075 72.3235 9.13318L72.0191 10.0857ZM70.992 9.47655C71.282 9.7545 71.6337 9.96257 72.0191 10.0857L72.3235 9.13318C72.0809 9.05566 71.8623 8.92558 71.6841 8.75469L70.992 9.47655ZM70.3509 8.48053C70.4819 8.85758 70.7019 9.1983 70.9919 9.47646L71.6842 8.75478C71.5062 8.5841 71.3738 8.37759 71.2956 8.15246L70.3509 8.48053ZM70.2408 7.30713C70.182 7.70151 70.2198 8.10348 70.351 8.4807L71.2955 8.15228C71.2173 7.92728 71.195 7.68858 71.2299 7.4546L70.2408 7.30713ZM71.3383 6.88086H70.7353V7.88086H71.3383V6.88086ZM71.8765 7.91839C71.8244 7.76852 71.8096 7.60994 71.8328 7.45473L70.8438 7.307C70.7966 7.62305 70.8271 7.94491 70.9319 8.24662L71.8765 7.91839ZM72.1365 8.32091C72.017 8.20634 71.9286 8.06824 71.8765 7.91839L70.9319 8.24662C71.0368 8.54837 71.2128 8.82063 71.4443 9.04265L72.1365 8.32091ZM72.5675 8.57594C72.4034 8.52344 72.256 8.43558 72.1365 8.32093L71.4443 9.04263C71.6757 9.26459 71.9563 9.43035 72.2629 9.52841L72.5675 8.57594ZM73.0788 8.62011C72.9069 8.64366 72.7316 8.62841 72.5675 8.57594L72.2629 9.52841C72.5696 9.62649 72.8953 9.65458 73.2145 9.61086L73.0788 8.62011ZM79.1752 8.61548H73.1467V9.61548H79.1752V8.61548ZM79.7544 8.57594C79.5903 8.62841 79.4151 8.64366 79.2431 8.62011L79.1074 9.61086C79.4266 9.65458 79.7523 9.62649 80.059 9.52841L79.7544 8.57594ZM80.1854 8.32093C80.0659 8.43558 79.9185 8.52344 79.7544 8.57594L80.059 9.52841C80.3656 9.43035 80.6462 9.26459 80.8777 9.04263L80.1854 8.32093ZM80.4454 7.91839C80.3933 8.06824 80.3049 8.20634 80.1855 8.32091L80.8776 9.04265C81.1091 8.82063 81.2851 8.54837 81.39 8.24662L80.4454 7.91839ZM80.4892 7.45446C80.5123 7.60985 80.4975 7.76852 80.4454 7.91839L81.39 8.24662C81.4948 7.94491 81.5253 7.62314 81.4783 7.30727L80.4892 7.45446ZM80.4454 6.84332C80.4975 6.99321 80.5123 7.15188 80.4892 7.30727L81.4783 7.45446C81.5253 7.13859 81.4948 6.81682 81.39 6.5151L80.4454 6.84332ZM80.1854 6.44079C80.3049 6.55539 80.3933 6.69349 80.4454 6.84333L81.39 6.51509C81.2851 6.21334 81.1091 5.94109 80.8776 5.71908L80.1854 6.44079ZM79.7544 6.18579C79.9185 6.23829 80.0659 6.32615 80.1855 6.4408L80.8776 5.71908C80.6462 5.49713 80.3656 5.33138 80.059 5.23332L79.7544 6.18579ZM79.2431 6.14162C79.415 6.11806 79.5903 6.13331 79.7544 6.18579L80.059 5.23332C79.7523 5.13524 79.4266 5.10713 79.1074 5.15087L79.2431 6.14162ZM73.1467 6.14625H79.1752V5.14625H73.1467V6.14625ZM72.0191 6.03827C72.4043 6.1614 72.8135 6.19666 73.2147 6.1416L73.0787 5.15089C72.8249 5.18572 72.5662 5.16331 72.3235 5.08574L72.0191 6.03827ZM70.992 5.42911C71.282 5.70706 71.6337 5.91513 72.0191 6.03828L72.3235 5.08574C72.0809 5.00822 71.8623 4.87813 71.6841 4.70724L70.992 5.42911ZM70.3509 4.43306C70.4819 4.81014 70.7019 5.15086 70.9919 5.42902L71.6842 4.70733C71.5062 4.53665 71.3738 4.33015 71.2956 4.10501L70.3509 4.43306ZM70.2408 3.25969C70.182 3.65407 70.2198 4.05604 70.351 4.43325L71.2955 4.10482C71.2173 3.87984 71.195 3.64114 71.2299 3.40716L70.2408 3.25969ZM70.351 2.23359C70.2198 2.6108 70.182 3.01277 70.2408 3.40716L71.2299 3.25969C71.195 3.0257 71.2173 2.78701 71.2955 2.56201L70.351 2.23359ZM70.9919 1.23783C70.7019 1.51598 70.4819 1.85669 70.3509 2.23377L71.2956 2.56183C71.3738 2.33669 71.5062 2.13019 71.6842 1.95951L70.9919 1.23783ZM72.0191 0.628552C71.6337 0.751705 71.282 0.959778 70.992 1.23775L71.6841 1.95959C71.8623 1.78869 72.0809 1.65861 72.3235 1.5811L72.0191 0.628552ZM73.2147 0.525239C72.8135 0.470188 72.4043 0.505445 72.0191 0.628552L72.3235 1.5811C72.5662 1.50354 72.8249 1.48112 73.0787 1.51596L73.2147 0.525239ZM79.1752 0.520598H73.1467V1.5206H79.1752V0.520598ZM80.3027 0.62908C79.9176 0.505859 79.5086 0.470402 79.1075 0.525201L79.2429 1.51599C79.4967 1.48133 79.7552 1.50386 79.9979 1.5815L80.3027 0.62908ZM81.3292 1.23846C81.0394 0.960405 80.6877 0.752336 80.3027 0.629098L79.9978 1.58148C80.2403 1.65911 80.4589 1.78925 80.6368 1.95999L81.3292 1.23846ZM81.9698 2.23407C81.8389 1.85712 81.6188 1.51658 81.3293 1.23855L80.6367 1.95989C80.8145 2.13066 80.947 2.33719 81.0252 2.56224L81.9698 2.23407ZM82.0797 3.40719C82.1385 3.01289 82.1007 2.61114 81.9699 2.23424L81.0251 2.56206C81.1032 2.78714 81.1255 3.02581 81.0906 3.25965L82.0797 3.40719ZM80.9823 3.83342H81.5852V2.83342H80.9823V3.83342ZM80.4441 2.79588C80.4962 2.94577 80.511 3.10435 80.4878 3.25956L81.4769 3.40728C81.5241 3.09124 81.4936 2.76938 81.3887 2.46766L80.4441 2.79588ZM80.1842 2.39334C80.3037 2.50795 80.3921 2.64605 80.4441 2.79587L81.3887 2.46766C81.2839 2.16589 81.1078 1.89365 80.8764 1.67165L80.1842 2.39334ZM79.7531 2.13835C79.9173 2.19085 80.0647 2.27871 80.1842 2.39334L80.8764 1.67165C80.6449 1.44967 80.3643 1.28393 80.0577 1.18587L79.7531 2.13835ZM79.2418 2.09418C79.4138 2.07062 79.589 2.08587 79.7531 2.13835L80.0577 1.18587C79.7511 1.0878 79.4254 1.05969 79.1061 1.10343L79.2418 2.09418ZM73.1454 2.0988H79.1739V1.0988H73.1454V2.0988ZM72.5663 2.13835C72.7303 2.08587 72.9056 2.07062 73.0775 2.09418L73.2133 1.10343C72.894 1.05969 72.5683 1.0878 72.2616 1.18587L72.5663 2.13835ZM72.1352 2.39334C72.2547 2.27871 72.4021 2.19085 72.5662 2.13835L72.2616 1.18587C71.955 1.28393 71.6744 1.44967 71.443 1.67165L72.1352 2.39334ZM71.8752 2.79588C71.9273 2.64605 72.0157 2.50795 72.1352 2.39334L71.443 1.67165C71.2115 1.89365 71.0355 2.16589 70.9306 2.46765L71.8752 2.79588ZM71.8315 3.25954C71.8083 3.10434 71.8232 2.94577 71.8752 2.79588L70.9306 2.46766C70.8258 2.76938 70.7953 3.09124 70.8425 3.4073L71.8315 3.25954ZM71.8752 3.87095C71.8232 3.72108 71.8083 3.5625 71.8315 3.4073L70.8425 3.25954C70.7953 3.5756 70.8258 3.89746 70.9306 4.19918L71.8752 3.87095ZM72.1352 4.27348C72.0157 4.15889 71.9273 4.02079 71.8752 3.87095L70.9306 4.19918C71.0355 4.50093 71.2115 4.77319 71.443 4.9952L72.1352 4.27348ZM72.5662 4.52849C72.4021 4.476 72.2547 4.38814 72.1352 4.27349L71.443 4.99519C71.6744 5.21715 71.955 5.38291 72.2616 5.48097L72.5662 4.52849ZM73.0776 4.57266C72.9056 4.59622 72.7303 4.58097 72.5663 4.5285L72.2616 5.48097C72.5683 5.57905 72.894 5.60714 73.2132 5.56342L73.0776 4.57266ZM79.1739 4.56804H73.1454V5.56804H79.1739V4.56804ZM80.3016 4.676C79.9163 4.55289 79.5072 4.51763 79.106 4.57268L79.2419 5.5634C79.4958 5.52856 79.7545 5.55098 79.9972 5.62854L80.3016 4.676ZM81.3286 5.28518C81.0387 5.00721 80.6869 4.79916 80.3016 4.676L79.9972 5.62853C80.2397 5.70606 80.4583 5.83615 80.6366 6.00704L81.3286 5.28518ZM81.9697 6.28121C81.8388 5.90413 81.6187 5.56343 81.3287 5.28528L80.6365 6.00695C80.8144 6.17763 80.9469 6.38413 81.025 6.60927L81.9697 6.28121ZM82.0797 7.4548C82.1387 7.06029 82.1008 6.65825 81.9696 6.28103L81.0251 6.60945C81.1033 6.83445 81.1256 7.07308 81.0907 7.30693L82.0797 7.4548ZM81.9696 8.4807C82.1008 8.10348 82.1387 7.70144 82.0797 7.30693L81.0907 7.4548C81.1256 7.68865 81.1033 7.92728 81.0251 8.15228L81.9696 8.4807ZM81.3287 9.47645C81.6187 9.1983 81.8388 8.85758 81.9697 8.48053L81.025 8.15246C80.9469 8.37759 80.8144 8.5841 80.6365 8.75478L81.3287 9.47645ZM80.3016 10.0857C80.6869 9.96257 81.0387 9.7545 81.3286 9.47655L80.6366 8.75468C80.4583 8.92558 80.2397 9.05567 79.9972 9.13318L80.3016 10.0857ZM79.106 10.189C79.5072 10.2441 79.9163 10.2088 80.3016 10.0857L79.9972 9.13318C79.7545 9.21075 79.4958 9.23316 79.2419 9.19833L79.106 10.189ZM73.1467 10.1937H79.1739V9.19369H73.1467V10.1937ZM30.9593 9.19834C30.7055 9.23316 30.4468 9.21075 30.2041 9.13321L29.8998 10.0858C30.285 10.2088 30.6941 10.2441 31.0952 10.1891L30.9593 9.19834ZM37.055 9.1937H31.0273V10.1937H37.055V9.1937ZM37.8782 9.13321C37.6356 9.21074 37.3769 9.23316 37.1229 9.19833L36.987 10.1891C37.3883 10.2441 37.7974 10.2088 38.1826 10.0858L37.8782 9.13321ZM38.5176 8.75489C38.3393 8.92569 38.1208 9.05573 37.8782 9.13321L38.1826 10.0858C38.5679 9.96268 38.9196 9.7547 39.2095 9.47686L38.5176 8.75489ZM38.9059 8.153C38.8278 8.378 38.6954 8.58439 38.5175 8.75498L39.2096 9.47676C39.4996 9.1987 39.7196 8.8581 39.8506 8.48116L38.9059 8.153ZM38.9715 7.4558C39.0065 7.6895 38.9842 7.92797 38.906 8.15282L39.8505 8.48134C39.9817 8.10423 40.0195 7.7023 39.9605 7.3079L38.9715 7.4558ZM38.966 3.33244V7.38185H39.966V3.33244H38.966ZM38.906 2.56146C38.9842 2.78632 39.0065 3.02479 38.9715 3.25848L39.9605 3.40639C40.0195 3.01198 39.9817 2.61006 39.8505 2.23295L38.906 2.56146ZM38.5175 1.95931C38.6954 2.1299 38.8278 2.33628 38.9059 2.56128L39.8506 2.23313C39.7196 1.85617 39.4996 1.51558 39.2096 1.23752L38.5175 1.95931ZM37.8782 1.58107C38.1208 1.65855 38.3393 1.78858 38.5176 1.95939L39.2095 1.23744C38.9196 0.959576 38.5679 0.751592 38.1826 0.628495L37.8782 1.58107ZM37.1229 1.51595C37.3769 1.48112 37.6356 1.50354 37.8782 1.58107L38.1826 0.628495C37.7974 0.505438 37.3883 0.470206 36.987 0.525224L37.1229 1.51595ZM31.0273 1.52059H37.055V0.520589H31.0273V1.52059ZM30.2041 1.58107C30.4468 1.50354 30.7055 1.48113 30.9593 1.51595L31.0952 0.525228C30.6941 0.470202 30.285 0.505442 29.8998 0.628495L30.2041 1.58107ZM29.5648 1.95939C29.743 1.78858 29.9616 1.65855 30.2041 1.58107L29.8998 0.628495C29.5145 0.751592 29.1628 0.959576 28.8729 1.23744L29.5648 1.95939ZM29.1764 2.56128C29.2546 2.33628 29.387 2.12991 29.5649 1.95931L28.8728 1.23752C28.5828 1.51558 28.3627 1.85616 28.2318 2.23313L29.1764 2.56128ZM29.1107 3.25868C29.0758 3.02486 29.0981 2.78632 29.1764 2.56146L28.2319 2.23295C28.1007 2.61006 28.0628 3.01192 28.1217 3.4062L29.1107 3.25868ZM29.1162 7.38185V3.33244H28.1162V7.38185H29.1162ZM29.1764 8.15283C29.0981 7.92797 29.0758 7.68943 29.1107 7.45561L28.1217 7.30809C28.0628 7.70237 28.1007 8.10423 28.2319 8.48133L29.1764 8.15283ZM29.5649 8.75498C29.387 8.58438 29.2546 8.37799 29.1764 8.153L28.2318 8.48116C28.3627 8.85811 28.5828 9.1987 28.8728 9.47676L29.5649 8.75498ZM30.2041 9.13321C29.9616 9.05573 29.743 8.92569 29.5648 8.75488L28.8729 9.47686C29.1628 9.7547 29.5145 9.96268 29.8998 10.0858L30.2041 9.13321ZM23.3224 1.51599C23.5769 1.48108 23.836 1.50355 24.0791 1.58127L24.3836 0.62876C23.9979 0.50545 23.5882 0.470144 23.1865 0.525277L23.3224 1.51599ZM14.7981 1.52555L23.2547 1.52063L23.2541 0.520635L14.7976 0.525554L14.7981 1.52555ZM15.2979 9.71429V1.02555H14.2979V9.71429H15.2979ZM15.4015 9.21429H14.7979V10.2143H15.4015V9.21429ZM14.9015 5.65586V9.71429H15.9015V5.65586H14.9015ZM23.2519 5.15586H15.4015V6.15586H23.2519V5.15586ZM24.1368 5.24306C23.8298 5.14483 23.5037 5.11668 23.184 5.16048L23.3197 6.15123C23.4922 6.12761 23.6677 6.1429 23.8321 6.1955L24.1368 5.24306ZM24.9564 5.72955C24.7247 5.50726 24.4438 5.34127 24.1368 5.24306L23.8321 6.1955C23.9966 6.24811 24.1442 6.33618 24.264 6.4511L24.9564 5.72955ZM25.4692 6.52663C25.3643 6.22448 25.1881 5.95187 24.9564 5.72955L24.264 6.45111C24.3838 6.566 24.4724 6.70447 24.5246 6.85473L25.4692 6.52663ZM25.5574 7.46744C25.6047 7.151 25.5741 6.82874 25.4692 6.52664L24.5246 6.85473C24.5768 7.00505 24.5916 7.1641 24.5684 7.31976L25.5574 7.46744ZM25.5629 9.7106V7.3936H24.5629V9.7106H25.5629ZM25.6691 9.2106H25.0629V10.2106H25.6691V9.2106ZM25.1691 7.3936V9.7106H26.1691V7.3936H25.1691ZM25.0252 6.46118C25.1603 6.73271 25.2111 7.03392 25.1732 7.33005L26.1651 7.45715C26.2284 6.96307 26.1429 6.46283 25.9206 6.01587L25.0252 6.46118ZM24.4035 5.79455C24.6754 5.95741 24.8901 6.18949 25.0252 6.46117L25.9206 6.01587C25.6984 5.56904 25.3494 5.19545 24.9174 4.93668L24.4035 5.79455ZM25.0252 4.27005C24.8901 4.54172 24.6754 4.77381 24.4035 4.93669L24.9174 5.79455C25.3494 5.53576 25.6984 5.16219 25.9206 4.71536L25.0252 4.27005ZM25.1732 3.40118C25.2111 3.6973 25.1603 3.99853 25.0252 4.27006L25.9206 4.71536C26.1429 4.2684 26.2284 3.76815 26.1651 3.27408L25.1732 3.40118ZM25.1089 2.56446C25.1873 2.79004 25.2097 3.02928 25.1746 3.26373L26.1636 3.41153C26.2227 3.01648 26.1848 2.6139 26.0535 2.23617L25.1089 2.56446ZM24.7195 1.96052C24.8978 2.13159 25.0305 2.33858 25.1089 2.56429L26.0536 2.23635C25.9225 1.85875 25.7022 1.51755 25.4119 1.23898L24.7195 1.96052ZM24.0791 1.58127C24.322 1.65894 24.541 1.78931 24.7196 1.9606L25.4118 1.2389C25.1216 0.960511 24.7694 0.75211 24.3836 0.62876L24.0791 1.58127ZM9.53001 1.51963C9.78363 1.48482 10.0421 1.50722 10.2844 1.58471L10.589 0.632205C10.204 0.509121 9.79501 0.473879 9.39403 0.528913L9.53001 1.51963ZM3.43059 1.52059L9.46171 1.52427L9.46233 0.524269L3.4312 0.520588L3.43059 1.52059ZM2.60847 1.58103C2.85085 1.50354 3.10929 1.48113 3.36291 1.51594L3.49888 0.525232C3.09791 0.470198 2.68893 0.50544 2.30395 0.628524L2.60847 1.58103ZM1.9699 1.95917C2.14777 1.7885 2.36616 1.6585 2.60847 1.58103L2.30395 0.628524C1.9189 0.751625 1.56725 0.95963 1.27754 1.23761L1.9699 1.95917ZM1.58158 2.5612C1.65975 2.33615 1.79209 2.12976 1.96988 1.95919L1.27756 1.23759C0.987745 1.51565 0.767839 1.85621 0.636937 2.2331L1.58158 2.5612ZM1.51605 3.25861C1.48118 3.02474 1.50347 2.78613 1.58159 2.56118L0.636931 2.23312C0.506008 2.61011 0.46821 3.01186 0.526982 3.40607L1.51605 3.25861ZM1.52152 7.38159V3.33234H0.521516V7.38159H1.52152ZM1.58162 8.15335C1.50339 7.92826 1.48109 7.68945 1.51603 7.45542L0.526997 7.30776C0.468096 7.70227 0.505927 8.10435 0.637028 8.48161L1.58162 8.15335ZM1.97044 8.7557C1.79241 8.58506 1.65987 8.37854 1.58162 8.15335L0.637028 8.48161C0.768097 8.85878 0.988322 9.19952 1.27848 9.47763L1.97044 8.7557ZM2.60981 9.1337C2.36722 9.05636 2.14855 8.9264 1.97043 8.75569L1.27849 9.47764C1.56857 9.75567 1.92065 9.96358 2.30609 10.0865L2.60981 9.1337ZM3.36489 9.19807C3.11111 9.2332 2.85243 9.21104 2.60982 9.1337L2.30608 10.0865C2.69147 10.2093 3.10082 10.2442 3.50202 10.1886L3.36489 9.19807ZM9.46202 9.19334H3.43345V10.1933H9.46202V9.19334ZM10.281 9.13136C10.0394 9.20899 9.78174 9.23186 9.5287 9.19781L9.39534 10.1889C9.79539 10.2427 10.2032 10.2067 10.5869 10.0834L10.281 9.13136ZM10.9176 8.75367C10.7402 8.92393 10.5225 9.05375 10.281 9.13136L10.5869 10.0834C10.9707 9.96009 11.3212 9.75237 11.6101 9.47507L10.9176 8.75367ZM11.3051 8.15335C11.2269 8.37773 11.0948 8.58351 10.9176 8.75368L11.6101 9.47507C11.899 9.19768 12.1184 8.85814 12.2494 8.4824L11.3051 8.15335ZM11.3716 7.45787C11.4058 7.69117 11.3832 7.92909 11.3051 8.15336L12.2494 8.48238C12.3803 8.10654 12.4187 7.70595 12.361 7.31267L11.3716 7.45787ZM11.3663 5.07352V7.38527H12.3663V5.07352H11.3663ZM5.84283 5.57352H11.8663V4.57352H5.84283V5.57352ZM6.34283 5.65146V5.07352H5.34283V5.65146H6.34283ZM11.2691 5.15146H5.84283V6.15146H11.2691V5.15146ZM11.7691 7.38527V5.65146H10.7691V7.38527H11.7691ZM11.6754 8.2507C11.7802 7.94899 11.8106 7.62734 11.7636 7.31169L10.7745 7.45885C10.7976 7.61424 10.7828 7.7728 10.7308 7.92248L11.6754 8.2507ZM11.1634 9.04638C11.3947 8.82444 11.5706 8.55229 11.6754 8.2507L10.7308 7.92248C10.6788 8.07227 10.5904 8.21029 10.4711 8.32478L11.1634 9.04638ZM10.3453 9.53203C10.6518 9.43398 10.9322 9.26823 11.1634 9.04636L10.4711 8.32481C10.3517 8.43939 10.2045 8.52715 10.0406 8.57958L10.3453 9.53203ZM9.39417 9.61446C9.71328 9.65817 10.0388 9.63008 10.3453 9.53203L10.0406 8.57958C9.8767 8.63201 9.70169 8.64724 9.52987 8.62371L9.39417 9.61446ZM3.43345 9.61909H9.46202V8.61909H3.43345V9.61909ZM2.55018 9.53204C2.85671 9.63008 3.18219 9.65817 3.5013 9.61446L3.3656 8.62371C3.19378 8.64724 3.01878 8.63201 2.85483 8.57957L2.55018 9.53204ZM1.73205 9.04637C1.96328 9.26823 2.24362 9.43397 2.55017 9.53203L2.85484 8.57958C2.69095 8.52715 2.54382 8.43939 2.42438 8.3248L1.73205 9.04637ZM1.22007 8.2507C1.32486 8.55228 1.50074 8.82443 1.73205 9.04637L2.42438 8.3248C2.30505 8.2103 2.21672 8.07227 2.16467 7.92248L1.22007 8.2507ZM1.13187 7.31166C1.08488 7.62735 1.11524 7.94901 1.22007 8.2507L2.16467 7.92248C2.11266 7.77279 2.09785 7.61423 2.12097 7.45888L1.13187 7.31166ZM1.12642 3.33602V7.38527H2.12642V3.33602H1.12642ZM1.22007 2.47059C1.11524 2.77228 1.08488 3.09394 1.13187 3.40963L2.12097 3.26242C2.09785 3.10707 2.11266 2.94851 2.16467 2.79879L1.22007 2.47059ZM1.73203 1.67492C1.50075 1.89686 1.32486 2.16899 1.22007 2.47058L2.16467 2.7988C2.21672 2.64902 2.30505 2.51099 2.4244 2.39647L1.73203 1.67492ZM2.55017 1.18926C2.24363 1.28731 1.96329 1.45304 1.73205 1.67491L2.42438 2.39649C2.54381 2.2819 2.69094 2.19414 2.85484 2.14172L2.55017 1.18926ZM3.50133 1.10684C3.18219 1.06311 2.85669 1.09121 2.55018 1.18926L2.85483 2.14172C3.01879 2.08927 3.19379 2.07404 3.36558 2.09758L3.50133 1.10684ZM9.46202 1.10221H3.43345V2.10221H9.46202V1.10221ZM10.3449 1.1909C10.039 1.09249 9.71407 1.06378 9.39533 1.10667L9.52871 2.09774C9.70031 2.07465 9.875 2.09021 10.0386 2.14284L10.3449 1.1909ZM11.1611 1.67696C10.9305 1.4552 10.6508 1.28933 10.3449 1.1909L10.0386 2.14284C10.2021 2.19546 10.3489 2.28327 10.468 2.3978L11.1611 1.67696ZM11.6717 2.47181C11.5672 2.17065 11.3918 1.8988 11.1611 1.67696L10.468 2.3978C10.587 2.51224 10.6751 2.65011 10.727 2.79968L11.6717 2.47181ZM11.7598 3.40942C11.8066 3.09423 11.7763 2.77309 11.6717 2.47182L10.727 2.79968C10.7789 2.94914 10.7937 3.10746 10.7706 3.26262L11.7598 3.40942ZM11.8714 2.83602H11.2652V3.83602H11.8714V2.83602ZM11.3113 2.56488C11.3894 2.78982 11.4117 3.02843 11.3769 3.26229L12.3659 3.40975C12.4247 3.01554 12.3869 2.61378 12.256 2.23678L11.3113 2.56488ZM10.923 1.96286C11.1008 2.13345 11.2332 2.33983 11.3113 2.56486L12.256 2.2368C12.1251 1.85989 11.9052 1.51933 11.6154 1.24129L10.923 1.96286ZM10.2844 1.58471C10.5268 1.66218 10.7452 1.79218 10.923 1.96285L11.6154 1.24129C11.3257 0.963307 10.974 0.755306 10.589 0.632206L10.2844 1.58471ZM24.4095 2.96903C24.4625 3.13078 24.4777 3.30294 24.454 3.47171L25.4442 3.61102C25.4893 3.29095 25.4603 2.96476 25.3599 2.65804L24.4095 2.96903ZM24.1507 2.54221C24.2678 2.66145 24.3567 2.80747 24.4095 2.96904L25.3599 2.65804C25.2595 2.35117 25.0901 2.07154 24.8643 1.84161L24.1507 2.54221ZM23.7363 2.28116C23.8917 2.33392 24.0338 2.42307 24.1507 2.54221L24.8643 1.84161C24.6384 1.61159 24.3624 1.43768 24.0579 1.33427L23.7363 2.28116ZM23.2544 2.23684C23.4162 2.21332 23.5811 2.22845 23.7363 2.28116L24.0579 1.33427C23.7533 1.23081 23.4288 1.20096 23.1105 1.24725L23.2544 2.23684ZM15.5244 2.24205H23.1825V1.24205H15.5244V2.24205ZM16.0244 5.34069V1.74205H15.0244V5.34069H16.0244ZM23.18 4.84069H15.5244V5.84069H23.18V4.84069ZM23.7351 4.80236C23.5798 4.85491 23.4146 4.86983 23.2527 4.84601L23.1072 5.83536C23.4257 5.88222 23.7506 5.85282 24.0556 5.74961L23.7351 4.80236ZM24.1503 4.54134C24.033 4.66065 23.8907 4.74973 23.7352 4.80234L24.0556 5.74963C24.3606 5.64645 24.637 5.47258 24.8632 5.24261L24.1503 4.54134ZM24.4094 4.11431C24.3565 4.27601 24.2675 4.42217 24.1502 4.54147L24.8633 5.24249C25.0894 5.01252 25.2592 4.73269 25.3598 4.4255L24.4094 4.11431ZM24.454 3.61095C24.4778 3.78021 24.4625 3.95254 24.4095 4.11408L25.3597 4.42573C25.4605 4.11841 25.4892 3.79184 25.4443 3.47178L24.454 3.61095ZM29.8729 7.81356C29.8234 7.67315 29.8094 7.52481 29.8313 7.37964L28.8425 7.23036C28.796 7.5384 28.8262 7.8521 28.9298 8.14598L29.8729 7.81356ZM30.1216 8.19277C30.0067 8.0842 29.9224 7.95398 29.8729 7.81356L28.9298 8.14598C29.0334 8.43985 29.207 8.70428 29.4345 8.9194L30.1216 8.19277ZM30.5379 8.43543C30.3788 8.38525 30.2365 8.30144 30.1216 8.19278L29.4345 8.91939C29.662 9.13445 29.9372 9.29455 30.2372 9.38915L30.5379 8.43543ZM31.0342 8.47767C30.8672 8.50022 30.6971 8.4856 30.5379 8.43543L30.2372 9.38915C30.5373 9.48377 30.8559 9.51083 31.168 9.46868L31.0342 8.47767ZM36.9818 8.47318H31.1011V9.47318H36.9818V8.47318ZM37.5452 8.43543C37.3861 8.4856 37.2159 8.50023 37.0487 8.47767L36.915 9.46869C37.2272 9.51082 37.5457 9.48378 37.8459 9.38915L37.5452 8.43543ZM37.9615 8.19278C37.8466 8.30145 37.7043 8.38525 37.5452 8.43543L37.8459 9.38915C38.1459 9.29455 38.4211 9.13444 38.6486 8.91939L37.9615 8.19278ZM38.2102 7.81356C38.1607 7.95397 38.0764 8.0842 37.9615 8.19277L38.6486 8.9194C38.8761 8.70428 39.0497 8.43986 39.1533 8.14598L38.2102 7.81356ZM38.2517 7.37991C38.2737 7.52491 38.2597 7.67315 38.2102 7.81356L39.1533 8.14598C39.2569 7.8521 39.2871 7.5383 39.2404 7.23009L38.2517 7.37991ZM38.246 3.40906V7.305H39.246V3.40906H38.246ZM38.2102 2.90048C38.2597 3.04091 38.2737 3.18915 38.2517 3.33415L39.2404 3.48396C39.2871 3.17575 39.2569 2.86196 39.1533 2.56807L38.2102 2.90048ZM37.9615 2.52126C38.0764 2.62986 38.1607 2.76008 38.2102 2.90048L39.1533 2.56807C39.0497 2.27418 38.8761 2.00978 38.6486 1.79466L37.9615 2.52126ZM37.5452 2.27862C37.7043 2.32881 37.8466 2.41261 37.9615 2.52126L38.6486 1.79466C38.4211 1.57959 38.1459 1.41951 37.8459 1.3249L37.5452 2.27862ZM37.0487 2.23639C37.2159 2.21382 37.386 2.22846 37.5452 2.27862L37.8459 1.3249C37.5458 1.23029 37.2272 1.20322 36.9149 1.24538L37.0487 2.23639ZM31.1011 2.24088H36.9818V1.24088H31.1011V2.24088ZM30.5379 2.27862C30.6971 2.22845 30.8672 2.21383 31.0342 2.23638L31.1681 1.24538C30.8559 1.20322 30.5373 1.23029 30.2372 1.3249L30.5379 2.27862ZM30.1216 2.52126C30.2365 2.41261 30.3788 2.32881 30.5379 2.27862L30.2372 1.32491C29.9372 1.41951 29.662 1.57959 29.4345 1.79466L30.1216 2.52126ZM29.8729 2.90049C29.9224 2.76008 30.0067 2.62986 30.1216 2.52126L29.4345 1.79466C29.207 2.00978 29.0334 2.27418 28.9298 2.56807L29.8729 2.90049ZM29.8313 3.33442C29.8094 3.18925 29.8234 3.04091 29.8729 2.90048L28.9298 2.56808C28.8262 2.86196 28.796 3.17566 28.8425 3.48369L29.8313 3.33442ZM29.8369 7.305V3.40906H28.8369V7.305H29.8369ZM53.1611 7.37534V1H52.1611V7.37534H53.1611ZM53.0676 8.24239C53.1723 7.94029 53.2028 7.61805 53.1556 7.30165L52.1665 7.44902C52.1898 7.60499 52.1749 7.76434 52.1227 7.91489L53.0676 8.24239ZM52.5556 9.03977C52.787 8.81728 52.9629 8.54454 53.0676 8.24239L52.1227 7.91489C52.0706 8.0654 51.982 8.204 51.8625 8.3189L52.5556 9.03977ZM51.7369 9.52673C52.0437 9.42839 52.3243 9.2622 52.5556 9.03975L51.8625 8.31892C51.743 8.43388 51.5956 8.52191 51.4316 8.57448L51.7369 9.52673ZM50.7849 9.60942C51.1043 9.65327 51.4302 9.62509 51.7369 9.52673L51.4316 8.57448C51.2677 8.62703 51.0927 8.64229 50.9209 8.61871L50.7849 9.60942ZM44.8251 9.61406H50.8529V8.61406H44.8251V9.61406ZM43.9411 9.52673C44.2479 9.62509 44.5737 9.65327 44.8931 9.60942L44.7571 8.61871C44.5853 8.64229 44.4103 8.62703 44.2464 8.57448L43.9411 9.52673ZM43.1224 9.03975C43.3537 9.2622 43.6343 9.42839 43.9411 9.52673L44.2464 8.57448C44.0824 8.52191 43.9351 8.43388 43.8155 8.31892L43.1224 9.03975ZM42.6104 8.24239C42.7151 8.54454 42.891 8.81728 43.1224 9.03977L43.8155 8.3189C43.696 8.204 43.6074 8.0654 43.5553 7.91489L42.6104 8.24239ZM42.5224 7.30164C42.4752 7.61805 42.5057 7.94029 42.6104 8.24239L43.5553 7.91489C43.5031 7.76434 43.4882 7.60499 43.5115 7.44903L42.5224 7.30164ZM42.5169 1V7.37534H43.5169V1H42.5169ZM42.414 1.5H43.0169V0.5H42.414V1.5ZM42.914 7.37534V1H41.914V7.37534H42.914ZM42.9743 8.14933C42.896 7.92348 42.8737 7.68382 42.9086 7.44889L41.9195 7.30178C41.8607 7.6967 41.8985 8.09924 42.0296 8.47703L42.9743 8.14933ZM43.3632 8.75379C43.1853 8.58265 43.0527 8.37549 42.9744 8.14951L42.0295 8.47685C42.1603 8.85448 42.3802 9.19584 42.6701 9.47461L43.3632 8.75379ZM44.0023 9.13304C43.76 9.05539 43.5414 8.92504 43.3631 8.7537L42.6702 9.4747C42.9601 9.75326 43.3118 9.96187 43.6973 10.0854L44.0023 9.13304ZM44.757 9.1983C44.5033 9.23319 44.2449 9.21075 44.0024 9.13305L43.6972 10.0854C44.0826 10.2088 44.4919 10.2442 44.8932 10.189L44.757 9.1983ZM50.8529 9.19364H44.8251V10.1936H50.8529V9.19364ZM51.6757 9.13305C51.4331 9.21075 51.1747 9.23319 50.921 9.1983L50.7848 10.189C51.1861 10.2442 51.5954 10.2088 51.9808 10.0854L51.6757 9.13305ZM52.3149 8.75369C52.1366 8.92504 51.918 9.05539 51.6757 9.13304L51.9808 10.0854C52.3662 9.96187 52.718 9.75326 53.0078 9.4747L52.3149 8.75369ZM52.7036 8.14951C52.6253 8.37549 52.4928 8.58265 52.3148 8.75379L53.0079 9.47461C53.2978 9.19584 53.5177 8.85448 53.6485 8.47685L52.7036 8.14951ZM52.7694 7.44889C52.8044 7.68382 52.782 7.92347 52.7037 8.14933L53.6484 8.47703C53.7795 8.09924 53.8173 7.69671 53.7585 7.30178L52.7694 7.44889ZM52.764 1V7.37534H53.764V1H52.764ZM52.6611 1.5H53.264V0.5H52.6611V1.5ZM66.502 0.628761C66.1161 0.505454 65.7063 0.47014 65.3045 0.52528L65.4405 1.516C65.6949 1.48108 65.9543 1.50355 66.1975 1.5813L66.502 0.628761ZM67.5305 1.23893C67.2402 0.960519 66.8879 0.752112 66.502 0.628761L66.1975 1.5813C66.4407 1.659 66.6598 1.78941 66.8385 1.96074L67.5305 1.23893ZM68.1726 2.23649C68.0414 1.85884 67.8211 1.51761 67.5306 1.23901L66.8384 1.96066C67.0168 2.13177 67.1495 2.3388 67.2279 2.56454L68.1726 2.23649ZM68.2829 3.4117C68.3418 3.0167 68.3039 2.61411 68.1725 2.23632L67.228 2.56471C67.3064 2.79031 67.3288 3.02963 67.2938 3.26422L68.2829 3.4117ZM68.1725 4.43959C68.3039 4.06181 68.3418 3.65922 68.2829 3.26422L67.2938 3.4117C67.3288 3.64629 67.3064 3.88561 67.228 4.11119L68.1725 4.43959ZM67.5306 5.43691C67.8211 5.15831 68.0414 4.81706 68.1726 4.43942L67.2279 4.11137C67.1495 4.33712 67.0167 4.54415 66.8384 4.71526L67.5306 5.43691ZM66.502 6.04715C66.8879 5.9238 67.2402 5.71539 67.5305 5.437L66.8385 4.71517C66.6598 4.8865 66.4407 5.01691 66.1975 5.09461L66.502 6.04715ZM65.3045 6.15064C65.7063 6.20578 66.1161 6.17047 66.502 6.04714L66.1975 5.09462C65.9542 5.17237 65.6949 5.19484 65.4405 5.15992L65.3045 6.15064ZM57.5211 6.15528H65.3725V5.15528H57.5211V6.15528ZM58.0211 9.71429V5.65528H57.0211V9.71429H58.0211ZM56.917 10.2143H57.5211V9.21429H56.917V10.2143ZM56.417 1.02433V9.71429H57.417V1.02433H56.417ZM65.3723 0.520638L56.9168 0.524328L56.9172 1.52433L65.3727 1.52064L65.3723 0.520638ZM67.5612 3.61111C67.6062 3.29104 67.5772 2.96483 67.4769 2.65809L66.5265 2.9691C66.5794 3.13085 66.5947 3.30303 66.5709 3.47181L67.5612 3.61111ZM67.0673 3.04146H67.0661V4.04146H67.0673V3.04146ZM67.4781 4.42513C67.5785 4.11831 67.6075 3.79199 67.5624 3.47184L66.5722 3.61108C66.5959 3.78002 66.5806 3.95237 66.5277 4.11424L67.4781 4.42513ZM66.9819 5.24198C67.2079 5.01202 67.3775 4.73232 67.4781 4.42536L66.5278 4.114C66.4748 4.27573 66.3858 4.42186 66.2686 4.54113L66.9819 5.24198ZM66.1747 5.74924C66.4796 5.64595 66.7559 5.47204 66.9819 5.24198L66.2686 4.54114C66.1515 4.66031 66.0094 4.74943 65.8538 4.80213L66.1747 5.74924ZM65.2269 5.83561C65.5453 5.88217 65.8699 5.85256 66.1748 5.74923L65.8538 4.80215C65.6985 4.85479 65.5334 4.8698 65.3716 4.84614L65.2269 5.83561ZM57.6426 5.84088H65.2993V4.84088H57.6426V5.84088ZM57.1426 1.74205V5.34088H58.1426V1.74205H57.1426ZM65.2993 1.24205H57.6426V2.24205H65.2993V1.24205ZM66.1747 1.33427C65.87 1.23082 65.5456 1.20096 65.2273 1.24725L65.3712 2.23684C65.5329 2.21332 65.6979 2.22844 65.8531 2.28117L66.1747 1.33427ZM66.9811 1.84162C66.7553 1.61159 66.4792 1.43768 66.1747 1.33427L65.8531 2.28117C66.0085 2.33394 66.1506 2.4231 66.2676 2.54226L66.9811 1.84162ZM67.4769 2.65808C67.3764 2.35119 67.2069 2.07156 66.9811 1.84162L66.2676 2.54226C66.3847 2.6615 66.4736 2.80754 66.5265 2.96911L67.4769 2.65808ZM84.6167 5.64392V9.71429H85.6167V5.64392H84.6167ZM94.7996 5.14392H85.1167V6.14392H94.7996V5.14392ZM95.2996 9.71429V5.64392H94.2996V9.71429H95.2996ZM95.4046 9.21429H94.7996V10.2143H95.4046V9.21429ZM94.9046 1V9.71429H95.9046V1H94.9046ZM94.7996 1.5H95.4046V0.5H94.7996V1.5ZM95.2996 5.07037V1H94.2996V5.07037H95.2996ZM85.1167 5.57037H94.7996V4.57037H85.1167V5.57037ZM84.6167 1V5.07037H85.6167V1H84.6167ZM84.5117 1.5H85.1167V0.5H84.5117V1.5ZM85.0117 9.71429V1H84.0117V9.71429H85.0117ZM85.1167 9.21429H84.5117V10.2143H85.1167V9.21429ZM99.6113 10.0847C99.996 10.208 100.405 10.2436 100.805 10.1891L100.671 9.19826C100.417 9.23274 100.159 9.21009 99.9166 9.13244L99.6113 10.0847ZM98.5861 9.47526C98.8754 9.75325 99.2266 9.96134 99.6112 10.0847L99.9166 9.13246C99.6746 9.05483 99.4565 8.92479 99.279 8.75422L98.5861 9.47526ZM97.9463 8.48028C98.077 8.85703 98.2968 9.1974 98.5862 9.47536L99.2789 8.75412C99.1013 8.58353 98.9691 8.37726 98.8911 8.15248L97.9463 8.48028ZM97.8366 7.30809C97.7778 7.70213 97.8156 8.1036 97.9463 8.48027L98.8911 8.15249C98.8131 7.92762 98.7908 7.6892 98.8256 7.45561L97.8366 7.30809ZM97.8311 3.33244V7.38185H98.8311V3.33244H97.8311ZM97.9465 2.23305C97.8155 2.61012 97.7777 3.01199 97.8366 3.40634L98.8256 3.25853C98.7907 3.02478 98.813 2.78626 98.8911 2.56136L97.9465 2.23305ZM98.587 1.23764C98.2972 1.51572 98.0773 1.85631 97.9465 2.23323L98.8912 2.56118C98.9693 2.33614 99.1016 2.12976 99.2794 1.95919L98.587 1.23764ZM99.6135 0.628526C99.2283 0.751651 98.8768 0.959674 98.5871 1.23756L99.2793 1.95927C99.4574 1.78848 99.6757 1.65849 99.918 1.58103L99.6135 0.628526ZM100.808 0.525231C100.407 0.470198 99.9985 0.50544 99.6135 0.628526L99.918 1.58103C100.16 1.50354 100.419 1.48113 100.673 1.51595L100.808 0.525231ZM106.771 0.520589H100.74V1.52059H106.771V0.520589ZM107.898 0.628526C107.513 0.50544 107.105 0.470198 106.704 0.525231L106.839 1.51595C107.093 1.48113 107.352 1.50354 107.594 1.58103L107.898 0.628526ZM108.925 1.23756C108.635 0.959674 108.284 0.751651 107.898 0.628526L107.594 1.58103C107.836 1.65849 108.055 1.78848 108.233 1.95927L108.925 1.23756ZM109.565 2.23323C109.435 1.85631 109.215 1.51572 108.925 1.23764L108.233 1.95919C108.41 2.12976 108.543 2.33614 108.621 2.56118L109.565 2.23323ZM109.676 3.40614C109.734 3.01192 109.696 2.61012 109.565 2.23305L108.621 2.56136C108.699 2.78626 108.721 3.02485 108.686 3.25873L109.676 3.40614ZM109.681 7.38185V3.33244H108.681V7.38185H109.681ZM109.565 8.48124C109.696 8.10417 109.734 7.70236 109.676 7.30814L108.686 7.45556C108.721 7.68944 108.699 7.92803 108.621 8.15293L109.565 8.48124ZM108.925 9.47664C109.215 9.19856 109.435 8.85796 109.565 8.48106L108.621 8.1531C108.543 8.37814 108.41 8.58453 108.233 8.7551L108.925 9.47664ZM107.898 10.0857C108.284 9.96262 108.635 9.7546 108.925 9.47673L108.233 8.75501C108.055 8.92579 107.836 9.05578 107.594 9.13324L107.898 10.0857ZM106.703 10.1891C107.105 10.2441 107.513 10.2088 107.898 10.0857L107.594 9.13325C107.352 9.21075 107.093 9.23315 106.839 9.19834L106.703 10.1891ZM100.738 10.1937H106.771V9.1937H100.738V10.1937ZM98.5575 7.22938C98.5108 7.53758 98.541 7.85136 98.6444 8.14526L99.5877 7.8133C99.5382 7.67269 99.5242 7.52421 99.5462 7.37898L98.5575 7.22938ZM98.5617 3.40861L98.5518 7.30292L99.5518 7.30545L99.5617 3.41114L98.5617 3.40861ZM98.6544 2.5688C98.551 2.8627 98.5209 3.17638 98.5673 3.4844L99.5561 3.33535C99.5342 3.18995 99.5482 3.04137 99.5977 2.90074L98.6544 2.5688ZM99.1585 1.79513C98.9312 2.01038 98.7578 2.27488 98.6544 2.56879L99.5977 2.90075C99.6472 2.76015 99.7314 2.62984 99.8461 2.52121L99.1585 1.79513ZM99.9607 1.32501C99.6608 1.41971 99.3858 1.57994 99.1585 1.79513L99.8461 2.52121C99.9609 2.41253 100.103 2.32876 100.262 2.27859L99.9607 1.32501ZM100.891 1.2454C100.579 1.20319 100.261 1.2303 99.9607 1.32501L100.262 2.27859C100.421 2.22845 100.59 2.21384 100.757 2.23638L100.891 1.2454ZM106.699 1.24089H100.824V2.24089H106.699V1.24089ZM107.561 1.32485C107.261 1.2304 106.943 1.20334 106.632 1.24537L106.765 2.2364C106.932 2.21394 107.101 2.22854 107.26 2.27857L107.561 1.32485ZM108.362 1.79378C108.135 1.57914 107.86 1.41933 107.561 1.32487L107.26 2.27854C107.419 2.32857 107.56 2.41212 107.675 2.52051L108.362 1.79378ZM108.867 2.56559C108.763 2.27223 108.589 2.00841 108.362 1.79378L107.675 2.5205C107.79 2.62891 107.874 2.75893 107.924 2.89915L108.867 2.56559ZM108.956 3.47935C109.001 3.172 108.97 2.85887 108.866 2.56536L107.924 2.89939C107.973 3.03945 107.988 3.18778 107.966 3.33332L108.956 3.47935ZM108.961 7.30418V3.40633H107.961V7.30418H108.961ZM108.868 8.14526C108.972 7.85135 109.002 7.53766 108.955 7.22966L107.967 7.3787C107.988 7.52412 107.974 7.6727 107.925 7.8133L108.868 8.14526ZM108.364 8.91892C108.591 8.70368 108.765 8.43916 108.868 8.14526L107.925 7.8133C107.876 7.9539 107.791 8.08422 107.677 8.19283L108.364 8.91892ZM107.562 9.38905C107.862 9.29435 108.137 9.1341 108.364 8.91892L107.677 8.19284C107.562 8.30153 107.42 8.38531 107.261 8.43546L107.562 9.38905ZM106.632 9.46867C106.944 9.51085 107.262 9.48377 107.562 9.38905L107.261 8.43546C107.102 8.4856 106.932 8.50022 106.765 8.47767L106.632 9.46867ZM100.814 9.47317H106.699V8.47317H100.814V9.47317ZM99.9507 9.38905C100.251 9.48377 100.569 9.51085 100.881 9.46867L100.747 8.47767C100.58 8.50022 100.411 8.4856 100.252 8.43546L99.9507 9.38905ZM99.1486 8.91892C99.3758 9.1341 99.6508 9.29435 99.9507 9.38905L100.252 8.43546C100.093 8.38531 99.9509 8.30153 99.8362 8.19284L99.1486 8.91892ZM98.6444 8.14526C98.7479 8.43915 98.9213 8.70367 99.1486 8.91893L99.8362 8.19282C99.7215 8.08422 99.6372 7.9539 99.5877 7.8133L98.6444 8.14526ZM121.692 0.628749C121.306 0.505453 120.896 0.470143 120.495 0.525278L120.631 1.516C120.885 1.48107 121.144 1.50355 121.388 1.58131L121.692 0.628749ZM122.721 1.23888C122.431 0.960481 122.078 0.752088 121.692 0.628748L121.388 1.58131C121.631 1.65902 121.85 1.78945 122.029 1.96079L122.721 1.23888ZM123.363 2.23771C123.233 1.85873 123.012 1.51716 122.721 1.23878L122.029 1.96089C122.208 2.13222 122.341 2.33891 122.418 2.56332L123.363 2.23771ZM123.474 3.41052C123.532 3.01696 123.495 2.6146 123.363 2.23593L122.419 2.5651C122.497 2.78982 122.519 3.02937 122.484 3.2654L123.474 3.41052ZM123.363 4.43999C123.495 4.06132 123.532 3.65895 123.474 3.2654L122.484 3.41052C122.519 3.64655 122.497 3.8861 122.419 4.1108L123.363 4.43999ZM122.721 5.43714C123.012 5.15875 123.233 4.81717 123.363 4.4382L122.418 4.11259C122.341 4.337 122.208 4.54371 122.029 4.71503L122.721 5.43714ZM121.692 6.04716C122.078 5.92382 122.431 5.71543 122.721 5.43705L122.029 4.71512C121.85 4.88646 121.631 5.01688 121.388 5.0946L121.692 6.04716ZM120.495 6.15064C120.896 6.20578 121.306 6.17047 121.692 6.04715L121.388 5.09461C121.144 5.17237 120.885 5.19485 120.631 5.15992L120.495 6.15064ZM112.712 6.15528H120.563V5.15528H112.712V6.15528ZM113.212 9.71429V5.65528H112.212V9.71429H113.212ZM112.107 10.2143H112.712V9.21429H112.107V10.2143ZM111.607 1.02433V9.71429H112.607V1.02433H111.607ZM120.562 0.520638L112.107 0.524328L112.108 1.52433L120.563 1.52064L120.562 0.520638ZM122.746 3.60958C122.79 3.29156 122.762 2.96542 122.661 2.65705L121.711 2.9698C121.764 3.12984 121.779 3.30201 121.755 3.47277L122.746 3.60958ZM122.258 3.04118H122.25V4.04118H122.258V3.04118ZM122.668 4.42673C122.77 4.11787 122.797 3.79126 122.753 3.47291L121.763 3.60945C121.786 3.78085 121.771 3.95359 121.718 4.11403L122.668 4.42673ZM122.171 5.24364C122.398 5.01348 122.568 4.73344 122.668 4.42628L121.718 4.11449C121.665 4.2766 121.576 4.42283 121.458 4.542L122.171 5.24364ZM121.362 5.7504C121.668 5.6475 121.944 5.47372 122.171 5.24363L121.458 4.54201C121.341 4.66128 121.199 4.75031 121.043 4.80277L121.362 5.7504ZM120.413 5.83486C120.732 5.8823 121.057 5.85333 121.362 5.75043L121.043 4.80274C120.887 4.85521 120.722 4.86985 120.56 4.84576L120.413 5.83486ZM112.833 5.84031H120.487V4.84031H112.833V5.84031ZM112.333 1.74204V5.34031H113.333V1.74204H112.333ZM120.484 1.24204H112.833V2.24204H120.484V1.24204ZM121.359 1.33427C121.055 1.23082 120.73 1.20096 120.412 1.24725L120.556 2.23683C120.718 2.21333 120.883 2.22844 121.038 2.28114L121.359 1.33427ZM122.166 1.84159C121.94 1.61158 121.664 1.43767 121.359 1.33427L121.038 2.28114C121.193 2.33389 121.335 2.42302 121.452 2.54214L122.166 1.84159ZM122.661 2.65793C122.561 2.35111 122.391 2.07151 122.166 1.84159L121.452 2.54214C121.569 2.66135 121.658 2.80736 121.711 2.96892L122.661 2.65793Z" fill="black"/>
</svg>
