<svg width="113" height="10" viewBox="0 0 113 10" fill="none" xmlns="http://www.w3.org/2000/svg">
<path fill-rule="evenodd" clip-rule="evenodd" d="M66.642 8.90983C66.344 8.95072 66.0402 8.92449 65.7546 8.83319C65.4689 8.7419 65.2095 8.58807 64.9965 8.38388C64.7836 8.1797 64.6232 7.93076 64.5281 7.65681C64.4328 7.38285 64.4055 7.0914 64.4481 6.80554H64.9967C64.9647 7.01992 64.9853 7.23848 65.0567 7.44392C65.1281 7.64936 65.2484 7.83604 65.408 7.98916C65.5677 8.14229 65.7624 8.25767 65.9765 8.32616C66.1907 8.39465 66.4186 8.41436 66.642 8.38376H72.127C72.3505 8.41436 72.5784 8.39465 72.7925 8.32616C73.0067 8.25767 73.2014 8.14229 73.3611 7.98916C73.5207 7.83604 73.641 7.64936 73.7124 7.44392C73.7838 7.23848 73.8044 7.01992 73.7725 6.80554C73.8044 6.59116 73.7838 6.3726 73.7124 6.16715C73.641 5.96171 73.5207 5.77504 73.3611 5.62191C73.2014 5.46879 73.0067 5.35341 72.7925 5.28492C72.5784 5.21643 72.3505 5.19671 72.127 5.22732H66.642C66.344 5.26821 66.0402 5.24198 65.7546 5.15068C65.4689 5.05939 65.2095 4.90556 64.9965 4.70137C64.7836 4.49719 64.6232 4.24825 64.5281 3.97429C64.4328 3.70034 64.4055 3.40889 64.4481 3.12303C64.4055 2.83718 64.4328 2.54573 64.5281 2.27177C64.6232 1.99781 64.7836 1.74888 64.9965 1.54469C65.2095 1.34049 65.4689 1.18666 65.7546 1.09537C66.0402 1.00409 66.344 0.97785 66.642 1.01874H72.127C72.4249 0.97804 72.7286 1.00442 73.0141 1.0958C73.2996 1.18717 73.559 1.34103 73.7718 1.54519C73.9844 1.74936 74.1448 1.99823 74.2399 2.27209C74.3349 2.54594 74.3623 2.83728 74.3197 3.12303H73.7712C73.8032 2.90865 73.7826 2.69009 73.7112 2.48464C73.6398 2.2792 73.5195 2.09253 73.3599 1.9394C73.2002 1.78627 73.0055 1.6709 72.7914 1.60241C72.5772 1.53392 72.3493 1.5142 72.1259 1.54481H66.6409C66.4174 1.5142 66.1895 1.53392 65.9754 1.60241C65.7612 1.6709 65.5665 1.78627 65.4068 1.9394C65.2472 2.09253 65.1269 2.2792 65.0555 2.48464C64.9841 2.69009 64.9635 2.90865 64.9955 3.12303C64.9635 3.33741 64.9841 3.55597 65.0555 3.76141C65.1269 3.96685 65.2472 4.15353 65.4068 4.30665C65.5665 4.45978 65.7612 4.57516 65.9754 4.64365C66.1895 4.71214 66.4174 4.73185 66.6409 4.70125H72.1259C72.4239 4.66036 72.7277 4.6866 73.0133 4.77788C73.299 4.86918 73.5584 5.023 73.7714 5.2272C73.9843 5.43138 74.1447 5.68031 74.2398 5.95427C74.3351 6.22823 74.3624 6.51969 74.3197 6.80554C74.3624 7.0914 74.3351 7.38285 74.2398 7.65681C74.1447 7.93076 73.9843 8.1797 73.7714 8.38388C73.5584 8.58807 73.299 8.7419 73.0133 8.83319C72.7277 8.92449 72.4239 8.95072 72.1259 8.90983H66.642ZM27.433 8.83323C27.7187 8.92449 28.0225 8.95071 28.3204 8.90984H33.8046C34.1027 8.95071 34.4065 8.92449 34.6921 8.83323C34.9777 8.74198 35.2372 8.58821 35.4501 8.38411C35.663 8.18001 35.8233 7.93118 35.9184 7.65734C36.0137 7.3835 36.0411 7.09217 35.9983 6.80644V3.12213C36.0411 2.8364 36.0137 2.54507 35.9184 2.27123C35.8233 1.99738 35.663 1.74856 35.4501 1.54446C35.2372 1.34035 34.9777 1.18658 34.6921 1.09533C34.4065 1.00408 34.1027 0.977859 33.8046 1.01873H28.3204C28.0225 0.977859 27.7187 1.00408 27.433 1.09533C27.1474 1.18658 26.888 1.34035 26.675 1.54446C26.4622 1.74856 26.3019 1.99738 26.2067 2.27123C26.1115 2.54507 26.0841 2.8364 26.1267 3.12213V6.80644C26.0841 7.09217 26.1115 7.3835 26.2067 7.65734C26.3019 7.93118 26.4622 8.18001 26.675 8.38411C26.888 8.58821 27.1474 8.74198 27.433 8.83323ZM22.1364 1.09554C21.8504 1.00409 21.5461 0.97781 21.2476 1.01877L13.5535 1.02325V8.92857H14.1028V5.23606H21.2453C21.4692 5.20539 21.6974 5.22515 21.9118 5.29377C22.1263 5.36238 22.3213 5.47796 22.4811 5.63136C22.641 5.78477 22.7615 5.97178 22.833 6.17759C22.9044 6.3834 22.9251 6.60236 22.893 6.81713V8.92521H23.4446V6.81713C23.4907 6.45765 23.4286 6.09305 23.2661 5.7662C23.1035 5.43933 22.8471 5.1638 22.5268 4.97199C22.8471 4.78017 23.1035 4.50465 23.2661 4.17779C23.4286 3.85094 23.4907 3.48633 23.4446 3.12686C23.4874 2.84049 23.46 2.54851 23.3646 2.27406C23.2693 1.9996 23.1087 1.75023 22.8956 1.54567C22.6823 1.34111 22.4225 1.187 22.1364 1.09554ZM9.58586 1.09868C9.30046 1.00743 8.99684 0.981209 8.69905 1.02208L3.21172 1.01873C2.91393 0.97786 2.61031 1.00408 2.32491 1.09533C2.03952 1.18657 1.78019 1.34034 1.56748 1.54444C1.35476 1.74853 1.19452 1.99734 1.09941 2.27118C1.00431 2.54501 0.976978 2.83633 1.01958 3.12205V6.8062C0.976885 7.09213 1.00424 7.38369 1.09947 7.65771C1.19469 7.93173 1.35517 8.18069 1.56816 8.38484C1.78115 8.58897 2.04079 8.74268 2.32649 8.83376C2.61218 8.92483 2.91608 8.95077 3.21404 8.90952H8.69905C8.99615 8.94949 9.29888 8.92272 9.58335 8.83131C9.86784 8.7399 10.1263 8.58635 10.3384 8.38275C10.5505 8.17915 10.7104 7.93107 10.8055 7.65807C10.9006 7.38506 10.9284 7.09459 10.8865 6.80955V4.70623H5.40619V5.23206H10.3432V6.80955C10.375 7.02383 10.3545 7.24229 10.2832 7.44763C10.2118 7.65297 10.0916 7.83957 9.93208 7.99262C9.77257 8.14568 9.57809 8.261 9.36408 8.32946C9.15007 8.39792 8.92238 8.41763 8.69905 8.38704H3.21404C2.99071 8.41763 2.76303 8.39792 2.549 8.32946C2.33499 8.261 2.14052 8.14568 1.981 7.99262C1.82149 7.83957 1.70129 7.65297 1.62994 7.44763C1.55859 7.24229 1.53805 7.02383 1.56994 6.80955V3.1254C1.53805 2.91111 1.55859 2.69265 1.62994 2.4873C1.70129 2.28196 1.82149 2.09538 1.981 1.94232C2.14052 1.78926 2.33499 1.67394 2.549 1.60548C2.76303 1.53703 2.99071 1.51731 3.21404 1.54791H8.69905C8.92212 1.51789 9.14939 1.53803 9.36296 1.60674C9.57652 1.67546 9.77051 1.79086 9.92962 1.94384C10.0887 2.09683 10.2086 2.28321 10.2798 2.48826C10.3509 2.69331 10.3714 2.91143 10.3397 3.1254H10.8912C10.9338 2.83967 10.9065 2.54836 10.8113 2.27453C10.7163 2.00069 10.556 1.75188 10.3433 1.54779C10.1306 1.34369 9.87124 1.18992 9.58586 1.09868ZM22.7893 3.31207C22.8206 3.08969 22.8004 2.86298 22.7307 2.64987C22.661 2.43677 22.5435 2.24314 22.3875 2.08429C22.2315 1.92545 22.0413 1.80578 21.8321 1.73474C21.6229 1.66369 21.4003 1.64323 21.1819 1.67499H14.2144V4.94916H21.1796C21.3982 4.98131 21.6211 4.96115 21.8306 4.89029C22.0401 4.81942 22.2305 4.6998 22.3868 4.54091C22.543 4.38202 22.6607 4.18823 22.7306 3.97493C22.8006 3.76163 22.8206 3.53467 22.7893 3.31207ZM26.7821 6.73637C26.751 6.94254 26.7711 7.15273 26.8407 7.35029C26.9103 7.54786 27.0277 7.72739 27.1834 7.87465C27.3392 8.02191 27.5291 8.13287 27.738 8.19874C27.9469 8.2646 28.1692 8.28356 28.3872 8.25413H33.7377C33.9558 8.28356 34.1781 8.2646 34.387 8.19874C34.5959 8.13287 34.7859 8.02191 34.9416 7.87465C35.0974 7.72739 35.2147 7.54786 35.2843 7.35029C35.354 7.15273 35.3741 6.94254 35.3428 6.73637V3.19169C35.3741 2.98552 35.354 2.77533 35.2843 2.57776C35.2147 2.38019 35.0974 2.20067 34.9416 2.0534C34.7859 1.90614 34.5959 1.79519 34.387 1.72932C34.1781 1.66346 33.9558 1.64449 33.7377 1.67393H28.3872C28.1692 1.64449 27.9469 1.66346 27.738 1.72932C27.5291 1.79519 27.3392 1.90614 27.1834 2.0534C27.0277 2.20067 26.9103 2.38019 26.8407 2.57776C26.7711 2.77533 26.751 2.98552 26.7821 3.19169V6.73637ZM48.0034 1V6.80051C48.0354 7.0154 48.0148 7.23448 47.9434 7.4404C47.872 7.64633 47.7517 7.83345 47.5921 7.98693C47.4325 8.14043 47.2378 8.25608 47.0237 8.32473C46.8095 8.39338 46.5817 8.41314 46.3582 8.38247H40.8739C40.6505 8.41314 40.4226 8.39338 40.2085 8.32473C39.9943 8.25608 39.7997 8.14043 39.64 7.98693C39.4804 7.83345 39.3601 7.64633 39.2887 7.4404C39.2174 7.23448 39.1968 7.0154 39.2288 6.80051V1H38.6802V6.80051C38.6376 7.08704 38.665 7.37918 38.7602 7.65379C38.8554 7.92839 39.0157 8.17792 39.2285 8.38259C39.4415 8.58726 39.7009 8.74146 39.9865 8.83296C40.2722 8.92448 40.576 8.95077 40.8739 8.90979H46.3582C46.6562 8.95077 46.96 8.92448 47.2456 8.83296C47.5312 8.74146 47.7906 8.58726 48.0036 8.38259C48.2164 8.17792 48.3768 7.92839 48.4719 7.65379C48.5672 7.37918 48.5945 7.08704 48.5519 6.80051V1H48.0034ZM59.5682 1.01878C59.8668 0.977807 60.1711 1.00409 60.4573 1.09556C60.7435 1.18702 61.0034 1.34116 61.2168 1.54575C61.4301 1.75033 61.5907 1.99975 61.6861 2.27424C61.7815 2.54873 61.8089 2.84075 61.7662 3.12716C61.8089 3.41357 61.7815 3.70559 61.6861 3.98007C61.5907 4.25456 61.4301 4.50399 61.2168 4.70857C61.0034 4.91315 60.7435 5.06729 60.4573 5.15875C60.1711 5.25023 59.8668 5.27651 59.5682 5.23554H52.4247V8.92857H51.8751V1.02213L59.5682 1.01878ZM61.0509 2.64992C61.1207 2.86304 61.1408 3.08977 61.1095 3.31216H61.1107C61.142 3.53466 61.1218 3.76151 61.0521 3.97472C60.9822 4.18794 60.8646 4.38165 60.7085 4.54053C60.5524 4.6994 60.362 4.81905 60.1526 4.89002C59.9432 4.96098 59.7205 4.98128 59.502 4.94933H52.5357V1.67499H59.502C59.7204 1.64323 59.943 1.66369 60.1522 1.73474C60.3615 1.80579 60.5517 1.92547 60.7077 2.08432C60.8637 2.24317 60.9812 2.43681 61.0509 2.64992ZM77.5325 8.92857V5.2252H86.3423V8.92857H86.8928V1H86.3423V4.70337H77.5325V1H76.9821V8.92857H77.5325ZM91.7452 8.90984C91.4475 8.95032 91.1442 8.92381 90.859 8.83239C90.5739 8.74096 90.3149 8.58714 90.1026 8.38308C89.8901 8.17903 89.73 7.93035 89.6351 7.65671C89.5401 7.38305 89.5128 7.09196 89.5554 6.80644V3.12213C89.5127 2.8364 89.54 2.54507 89.6352 2.27123C89.7303 1.99738 89.8905 1.74856 90.1032 1.54446C90.316 1.34035 90.5752 1.18658 90.8606 1.09533C91.1461 1.00408 91.4496 0.977859 91.7475 1.01873H97.2347C97.5326 0.977859 97.8362 1.00408 98.1216 1.09533C98.407 1.18658 98.6663 1.34035 98.8791 1.54446C99.0918 1.74856 99.252 1.99738 99.347 2.27123C99.4422 2.54507 99.4696 2.8364 99.427 3.12213V6.80644C99.4696 7.09217 99.4422 7.3835 99.347 7.65734C99.252 7.93118 99.0918 8.18001 98.8791 8.38411C98.6663 8.58821 98.407 8.74198 98.1216 8.83323C97.8362 8.92449 97.5326 8.95071 97.2347 8.90984H91.7452ZM90.2692 7.34985C90.1996 7.15218 90.1795 6.94189 90.2107 6.73562L90.2197 3.19244C90.1886 2.98617 90.2087 2.77588 90.2782 2.5782C90.3478 2.38054 90.465 2.20093 90.6206 2.05359C90.7762 1.90626 90.9659 1.79525 91.1746 1.72936C91.3833 1.66346 91.6054 1.64448 91.8231 1.67393H97.1679C97.3855 1.6446 97.6072 1.66354 97.8157 1.72927C98.024 1.795 98.2135 1.90571 98.369 2.05266C98.5245 2.19961 98.6418 2.37878 98.7116 2.57602C98.7815 2.77327 98.8019 2.98319 98.7715 3.18922V6.73562C98.8026 6.94189 98.7825 7.15218 98.7129 7.34985C98.6434 7.54751 98.5262 7.72713 98.3706 7.87446C98.215 8.02179 98.0253 8.13281 97.8166 8.1987C97.6079 8.2646 97.3858 8.28357 97.1679 8.25412H91.8142C91.5963 8.28357 91.3742 8.2646 91.1655 8.1987C90.9568 8.13281 90.7671 8.02179 90.6115 7.87446C90.4559 7.72713 90.3387 7.54751 90.2692 7.34985ZM109.782 1.01878C110.081 0.977807 110.385 1.00409 110.671 1.09556C110.958 1.18702 111.218 1.34116 111.431 1.54575C111.645 1.75033 111.806 1.99975 111.9 2.27424C111.996 2.54873 112.023 2.84075 111.981 3.12716C112.023 3.41357 111.996 3.70559 111.9 3.98007C111.806 4.25456 111.645 4.50399 111.431 4.70857C111.218 4.91315 110.958 5.06729 110.671 5.15875C110.385 5.25023 110.081 5.27651 109.782 5.23554H102.639V8.92857H102.089V1.02213L109.782 1.01878ZM111.259 2.64977C111.33 2.86286 111.349 3.08955 111.318 3.3119H111.325C111.356 3.5347 111.336 3.76186 111.266 3.97536C111.196 4.18884 111.078 4.38276 110.922 4.54168C110.765 4.70061 110.575 4.82016 110.365 4.89084C110.155 4.96152 109.932 4.98136 109.713 4.94882H102.75V1.67499H109.711C109.929 1.64323 110.152 1.66369 110.361 1.73473C110.57 1.80577 110.76 1.92542 110.916 2.08425C111.072 2.24308 111.19 2.43669 111.259 2.64977Z" fill="white"/>
<path d="M65.7546 8.83319L65.9068 8.35692L65.9068 8.35692L65.7546 8.83319ZM66.642 8.90983V8.40983H66.6079L66.5741 8.41447L66.642 8.90983ZM64.9965 8.38388L64.6504 8.74472L64.6505 8.74482L64.9965 8.38388ZM64.5281 7.65681L65.0004 7.49277L65.0004 7.4926L64.5281 7.65681ZM64.4481 6.80554V6.30554H64.0171L63.9536 6.7318L64.4481 6.80554ZM64.9967 6.80554L65.4912 6.87941L65.5769 6.30554H64.9967V6.80554ZM65.0567 7.44392L64.5844 7.60803L64.5844 7.60804L65.0567 7.44392ZM65.408 7.98916L65.7541 7.62831L65.7541 7.6283L65.408 7.98916ZM65.9765 8.32616L66.1288 7.84992L66.1288 7.84992L65.9765 8.32616ZM66.642 8.38376V7.88376H66.608L66.5742 7.88838L66.642 8.38376ZM72.127 8.38376L72.1949 7.88838L72.1611 7.88376H72.127V8.38376ZM72.7925 8.32616L72.6402 7.84992L72.6402 7.84992L72.7925 8.32616ZM73.3611 7.98916L73.015 7.6283L73.0149 7.62831L73.3611 7.98916ZM73.7124 7.44392L74.1847 7.60804L74.1847 7.60803L73.7124 7.44392ZM73.7725 6.80554L73.2779 6.73194L73.267 6.80554L73.2779 6.87914L73.7725 6.80554ZM73.7124 6.16715L74.1847 6.00305L74.1847 6.00303L73.7124 6.16715ZM73.3611 5.62191L73.7072 5.26106L73.7071 5.26105L73.3611 5.62191ZM72.7925 5.28492L72.6402 5.76116L72.6402 5.76116L72.7925 5.28492ZM72.127 5.22732V5.72732H72.1611L72.1949 5.7227L72.127 5.22732ZM66.642 5.22732V4.72732H66.6079L66.5741 4.73196L66.642 5.22732ZM65.7546 5.15068L65.9068 4.67441L65.9068 4.67441L65.7546 5.15068ZM64.9965 4.70137L64.6504 5.06221L64.6505 5.06231L64.9965 4.70137ZM64.5281 3.97429L65.0004 3.81026L65.0004 3.81007L64.5281 3.97429ZM64.4481 3.12303L64.9426 3.19677L64.9536 3.12303L64.9426 3.0493L64.4481 3.12303ZM64.5281 2.27177L65.0004 2.43597L65.0004 2.43579L64.5281 2.27177ZM64.9965 1.54469L64.6504 1.18377L64.6504 1.18385L64.9965 1.54469ZM65.7546 1.09537L65.6024 0.619101L65.6024 0.619102L65.7546 1.09537ZM66.642 1.01874L66.5741 1.5141L66.6079 1.51874H66.642V1.01874ZM72.127 1.01874V1.51874H72.161L72.1947 1.51414L72.127 1.01874ZM73.0141 1.0958L73.1666 0.619605L73.1665 0.619587L73.0141 1.0958ZM73.7718 1.54519L74.1181 1.18452L74.118 1.18443L73.7718 1.54519ZM74.2399 2.27209L74.7123 2.10818L74.7122 2.108L74.2399 2.27209ZM74.3197 3.12303V3.62303H74.7506L74.8142 3.1968L74.3197 3.12303ZM73.7712 3.12303L73.2767 3.04917L73.191 3.62303H73.7712V3.12303ZM73.7112 2.48464L73.2389 2.64875L73.2389 2.64875L73.7112 2.48464ZM73.3599 1.9394L73.706 1.57855V1.57855L73.3599 1.9394ZM72.7914 1.60241L72.9437 1.12618L72.9437 1.12618L72.7914 1.60241ZM72.1259 1.54481V2.04481H72.1599L72.1937 2.04019L72.1259 1.54481ZM66.6409 1.54481L66.573 2.04019L66.6068 2.04481H66.6409V1.54481ZM65.9754 1.60241L66.1277 2.07865L66.1277 2.07865L65.9754 1.60241ZM65.4068 1.9394L65.0607 1.57855L65.0607 1.57855L65.4068 1.9394ZM65.0555 2.48464L64.5832 2.32052L64.5832 2.32054L65.0555 2.48464ZM64.9955 3.12303L65.49 3.1969L65.5011 3.12303L65.49 3.04916L64.9955 3.12303ZM65.0555 3.76141L64.5832 3.92552L64.5832 3.92553L65.0555 3.76141ZM65.4068 4.30665L65.7529 3.9458L65.7529 3.94579L65.4068 4.30665ZM65.9754 4.64365L66.1277 4.16741L66.1277 4.16741L65.9754 4.64365ZM66.6409 4.70125V4.20125H66.6068L66.573 4.20587L66.6409 4.70125ZM72.1259 4.70125V5.20125H72.16L72.1938 5.19661L72.1259 4.70125ZM73.0133 4.77788L73.1656 4.30162L73.1655 4.30161L73.0133 4.77788ZM73.7714 5.2272L74.1175 4.86636L74.1175 4.86628L73.7714 5.2272ZM74.2398 5.95427L73.7675 6.1183L73.7675 6.11849L74.2398 5.95427ZM74.3197 6.80554L73.8252 6.7316L73.8141 6.80554L73.8252 6.87948L74.3197 6.80554ZM74.2398 7.65681L73.7675 7.49259L73.7675 7.49277L74.2398 7.65681ZM73.7714 8.38388L74.1174 8.74481L74.1175 8.74472L73.7714 8.38388ZM73.0133 8.83319L72.8611 8.35692L72.8611 8.35692L73.0133 8.83319ZM72.1259 8.90983L72.1938 8.41447L72.16 8.40983H72.1259V8.90983ZM28.3204 8.90984V8.40984H28.2863L28.2525 8.41448L28.3204 8.90984ZM27.433 8.83323L27.5852 8.35695L27.5852 8.35694L27.433 8.83323ZM33.8046 8.90984L33.8726 8.41447L33.8388 8.40984H33.8046V8.90984ZM34.6921 8.83323L34.54 8.35694L34.5399 8.35695L34.6921 8.83323ZM35.4501 8.38411L35.7961 8.7451L35.7962 8.745L35.4501 8.38411ZM35.9184 7.65734L35.4462 7.49309L35.4461 7.49326L35.9184 7.65734ZM35.9983 6.80644H35.4983V6.84362L35.5038 6.88039L35.9983 6.80644ZM35.9983 3.12213L35.5038 3.04818L35.4983 3.08495V3.12213H35.9983ZM35.9184 2.27123L35.4461 2.4353L35.4462 2.43548L35.9184 2.27123ZM35.4501 1.54446L35.7962 1.18357L35.7961 1.18348L35.4501 1.54446ZM34.6921 1.09533L34.8443 0.619048L34.6921 1.09533ZM33.8046 1.01873V1.51873H33.8388L33.8726 1.5141L33.8046 1.01873ZM28.3204 1.01873L28.2525 1.51409L28.2863 1.51873H28.3204V1.01873ZM27.433 1.09533L27.2809 0.619048L27.433 1.09533ZM26.675 1.54446L26.3291 1.18348L26.329 1.18357L26.675 1.54446ZM26.2067 2.27123L26.679 2.43548L26.679 2.4353L26.2067 2.27123ZM26.1267 3.12213H26.6267V3.08505L26.6213 3.04838L26.1267 3.12213ZM26.1267 6.80644L26.6213 6.88019L26.6267 6.84352V6.80644H26.1267ZM26.2067 7.65734L26.679 7.49326L26.679 7.49309L26.2067 7.65734ZM26.675 8.38411L26.329 8.745L26.3291 8.7451L26.675 8.38411ZM21.2476 1.01877L21.2479 1.51877L21.2819 1.51875L21.3156 1.51413L21.2476 1.01877ZM22.1364 1.09554L21.9842 1.5718L22.1364 1.09554ZM13.5535 1.02325L13.5532 0.52325L13.0535 0.523541V1.02325H13.5535ZM13.5535 8.92857H13.0535V9.42857H13.5535V8.92857ZM14.1028 8.92857V9.42857H14.6028V8.92857H14.1028ZM14.1028 5.23606V4.73606H13.6028V5.23606H14.1028ZM21.2453 5.23606V5.73606H21.2794L21.3131 5.73144L21.2453 5.23606ZM22.4811 5.63136L22.135 5.99214L22.135 5.99214L22.4811 5.63136ZM22.833 6.17759L23.3053 6.01354L23.3053 6.01353L22.833 6.17759ZM22.893 6.81713L22.3985 6.74329L22.393 6.78V6.81713H22.893ZM22.893 8.92521H22.393V9.42521H22.893V8.92521ZM23.4446 8.92521V9.42521H23.9446V8.92521H23.4446ZM23.4446 6.81713L22.9486 6.75358L22.9446 6.78523V6.81713H23.4446ZM23.2661 5.7662L22.8184 5.98884L22.8184 5.98885L23.2661 5.7662ZM22.5268 4.97199L22.2699 4.54306L21.5538 4.97201L22.2699 5.40093L22.5268 4.97199ZM23.4446 3.12686L22.9501 3.05296L22.9398 3.12158L22.9486 3.19041L23.4446 3.12686ZM23.3646 2.27406L22.8922 2.43803L22.8923 2.43821L23.3646 2.27406ZM22.8956 1.54567L23.2418 1.18491L23.2417 1.18482L22.8956 1.54567ZM8.69905 1.02208L8.69875 1.52208L8.73305 1.5221L8.76704 1.51744L8.69905 1.02208ZM9.58586 1.09868L9.73812 0.622428L9.73812 0.622426L9.58586 1.09868ZM3.21172 1.01873L3.14373 1.51409L3.17741 1.51871L3.21141 1.51873L3.21172 1.01873ZM2.32491 1.09533L2.17265 0.619077L2.17265 0.619077L2.32491 1.09533ZM1.56748 1.54444L1.91364 1.90523L1.91366 1.90522L1.56748 1.54444ZM1.09941 2.27118L0.627086 2.10713L0.62708 2.10714L1.09941 2.27118ZM1.01958 3.12205H1.51958V3.08498L1.51411 3.04832L1.01958 3.12205ZM1.01958 6.8062L1.51409 6.88003L1.51958 6.84332V6.8062H1.01958ZM1.09947 7.65771L0.627171 7.82184H0.627171L1.09947 7.65771ZM1.56816 8.38484L1.22218 8.7458L1.22219 8.74581L1.56816 8.38484ZM2.32649 8.83376L2.47836 8.35738L2.47836 8.35738L2.32649 8.83376ZM3.21404 8.90952V8.40952H3.1796L3.14548 8.41424L3.21404 8.90952ZM8.69905 8.90952L8.76573 8.41398L8.73254 8.40952H8.69905V8.90952ZM9.58335 8.83131L9.4304 8.35528L9.43039 8.35528L9.58335 8.83131ZM10.3384 8.38275L10.6847 8.74345L10.6847 8.74344L10.3384 8.38275ZM10.8055 7.65807L11.2777 7.82259L11.2777 7.82258L10.8055 7.65807ZM10.8865 6.80955H10.3865V6.84604L10.3918 6.88215L10.8865 6.80955ZM10.8865 4.70623H11.3865V4.20623H10.8865V4.70623ZM5.40619 4.70623V4.20623H4.90619V4.70623H5.40619ZM5.40619 5.23206H4.90619V5.73206H5.40619V5.23206ZM10.3432 5.23206H10.8432V4.73206H10.3432V5.23206ZM10.3432 6.80955H9.84316V6.84654L9.8486 6.88313L10.3432 6.80955ZM9.93208 7.99262L9.58593 7.63182L9.5859 7.63185L9.93208 7.99262ZM9.36408 8.32946L9.51642 8.80569H9.51642L9.36408 8.32946ZM8.69905 8.38704L8.7669 7.89166L8.73313 7.88704H8.69905V8.38704ZM3.21404 8.38704V7.88704H3.17996L3.14619 7.89166L3.21404 8.38704ZM2.549 8.32946L2.39667 8.80569L2.39667 8.80569L2.549 8.32946ZM1.981 7.99262L2.32717 7.63183L2.32717 7.63183L1.981 7.99262ZM1.62994 7.44763L1.15764 7.61174H1.15764L1.62994 7.44763ZM1.56994 6.80955L2.06449 6.88316L2.06994 6.84655V6.80955H1.56994ZM1.56994 3.1254H2.06994V3.08839L2.06449 3.05179L1.56994 3.1254ZM1.62994 2.4873L1.15764 2.32319L1.15764 2.3232L1.62994 2.4873ZM1.981 1.94232L1.63483 1.58153L1.63482 1.58154L1.981 1.94232ZM2.549 1.60548L2.39667 1.12925L2.39667 1.12925L2.549 1.60548ZM3.21404 1.54791L3.14617 2.04328L3.17995 2.04791H3.21404V1.54791ZM8.69905 1.54791V2.04791H8.73254L8.76574 2.04344L8.69905 1.54791ZM9.36296 1.60674L9.51611 1.13078L9.51611 1.13077L9.36296 1.60674ZM9.92962 1.94384L10.2762 1.58342L10.2762 1.58342L9.92962 1.94384ZM10.3397 3.1254L9.84508 3.052L9.75999 3.6254H10.3397V3.1254ZM10.8912 3.1254V3.6254H11.3222L11.3857 3.19913L10.8912 3.1254ZM10.8113 2.27453L10.339 2.43856L10.339 2.43857L10.8113 2.27453ZM10.3433 1.54779L9.99711 1.90857L9.99712 1.90857L10.3433 1.54779ZM22.7307 2.64987L23.2059 2.49438L23.2059 2.49437L22.7307 2.64987ZM22.7893 3.31207L22.2942 3.24242L22.2844 3.31204L22.2942 3.38166L22.7893 3.31207ZM22.3875 2.08429L22.7443 1.73399L22.7443 1.73399L22.3875 2.08429ZM21.8321 1.73474L21.6714 2.20818L21.6714 2.20818L21.8321 1.73474ZM21.1819 1.67499V2.17499H21.2181L21.2539 2.16978L21.1819 1.67499ZM14.2144 1.67499V1.17499H13.7144V1.67499H14.2144ZM14.2144 4.94916H13.7144V5.44916H14.2144V4.94916ZM21.1796 4.94916L21.2524 4.45449L21.2162 4.44916H21.1796V4.94916ZM21.8306 4.89029L21.6704 4.41665L21.6703 4.41667L21.8306 4.89029ZM22.3868 4.54091L22.7433 4.89155L22.7434 4.89142L22.3868 4.54091ZM22.7306 3.97493L22.2555 3.8191L22.2554 3.81933L22.7306 3.97493ZM26.8407 7.35029L27.3123 7.18408V7.18408L26.8407 7.35029ZM26.7821 6.73637L27.2765 6.81101L27.2821 6.7739V6.73637H26.7821ZM27.1834 7.87465L27.527 7.51134L27.5269 7.51133L27.1834 7.87465ZM27.738 8.19874L27.5877 8.6756H27.5877L27.738 8.19874ZM28.3872 8.25413V7.75413H28.3536L28.3203 7.75863L28.3872 8.25413ZM33.7377 8.25413L33.8046 7.75862L33.7713 7.75413H33.7377V8.25413ZM34.387 8.19874L34.2367 7.72188L34.2367 7.72188L34.387 8.19874ZM34.9416 7.87465L34.5981 7.51133L34.5981 7.51134L34.9416 7.87465ZM35.2843 7.35029L34.8128 7.18408L34.8128 7.18409L35.2843 7.35029ZM35.3428 6.73637H34.8428V6.77404L34.8485 6.81128L35.3428 6.73637ZM35.3428 3.19169L34.8485 3.11678L34.8428 3.15402V3.19169H35.3428ZM35.2843 2.57776L34.8128 2.74396V2.74396L35.2843 2.57776ZM34.387 1.72932L34.2367 2.20618L34.2367 2.20618L34.387 1.72932ZM33.7377 1.67393V2.17393H33.7713L33.8046 2.16943L33.7377 1.67393ZM28.3872 1.67393L28.3203 2.16943L28.3536 2.17393H28.3872V1.67393ZM27.738 1.72932L27.5877 1.25246L27.5877 1.25246L27.738 1.72932ZM26.8407 2.57776L26.3691 2.41155L26.3691 2.41155L26.8407 2.57776ZM26.7821 3.19169H27.2821V3.15416L27.2765 3.11705L26.7821 3.19169ZM48.0034 6.80051H47.5034V6.83756L47.5088 6.8742L48.0034 6.80051ZM48.0034 1V0.5H47.5034V1H48.0034ZM47.5921 7.98693L47.2456 7.6265L47.2456 7.62652L47.5921 7.98693ZM47.0237 8.32473L47.1763 8.80086V8.80086L47.0237 8.32473ZM46.3582 8.38247L46.4262 7.88711L46.3924 7.88247H46.3582V8.38247ZM40.8739 8.38247V7.88247H40.8398L40.8059 7.88711L40.8739 8.38247ZM40.2085 8.32473L40.3611 7.8486V7.8486L40.2085 8.32473ZM39.64 7.98693L39.9866 7.62652L39.9866 7.6265L39.64 7.98693ZM39.2288 6.80051L39.7233 6.87419L39.7288 6.83755V6.80051H39.2288ZM39.2288 1H39.7288V0.5H39.2288V1ZM38.6802 1V0.5H38.1802V1H38.6802ZM38.6802 6.80051L39.1748 6.87406L39.1802 6.83749V6.80051H38.6802ZM38.7602 7.65379L39.2327 7.49012L39.2326 7.48995L38.7602 7.65379ZM39.2285 8.38259L38.882 8.743L38.8821 8.7431L39.2285 8.38259ZM39.9865 8.83296L40.1391 8.3568L40.1391 8.3568L39.9865 8.83296ZM40.8739 8.90979V8.40979H40.8397L40.8058 8.41445L40.8739 8.90979ZM46.3582 8.90979L46.4264 8.41445L46.3925 8.40979H46.3582V8.90979ZM47.2456 8.83296L47.093 8.3568L47.093 8.3568L47.2456 8.83296ZM48.0036 8.38259L48.3501 8.74309L48.3502 8.743L48.0036 8.38259ZM48.4719 7.65379L47.9995 7.48995L47.9995 7.49012L48.4719 7.65379ZM48.5519 6.80051H48.0519V6.83749L48.0573 6.87407L48.5519 6.80051ZM48.5519 1H49.0519V0.5H48.5519V1ZM60.4573 1.09556L60.6095 0.619291V0.619291L60.4573 1.09556ZM59.5682 1.01878L59.5684 1.51878L59.6025 1.51876L59.6362 1.51413L59.5682 1.01878ZM61.2168 1.54575L61.563 1.18493L61.5629 1.18484L61.2168 1.54575ZM61.6861 2.27424L61.2137 2.43826L61.2138 2.43843L61.6861 2.27424ZM61.7662 3.12716L61.2717 3.05343L61.2607 3.12716L61.2717 3.20089L61.7662 3.12716ZM61.6861 3.98007L61.2138 3.81587L61.2137 3.81605L61.6861 3.98007ZM61.2168 4.70857L61.5629 5.06949L61.563 5.0694L61.2168 4.70857ZM60.4573 5.15875L60.3051 4.68248L60.3051 4.68249L60.4573 5.15875ZM59.5682 5.23554L59.6362 4.74019L59.6024 4.73554H59.5682V5.23554ZM52.4247 5.23554V4.73554H51.9247V5.23554H52.4247ZM52.4247 8.92857V9.42857H52.9247V8.92857H52.4247ZM51.8751 8.92857H51.3751V9.42857H51.8751V8.92857ZM51.8751 1.02213L51.8748 0.522134L51.3751 0.522352V1.02213H51.8751ZM61.1095 3.31216L60.6144 3.2425L60.5343 3.81216H61.1095V3.31216ZM61.0509 2.64992L61.5261 2.49442L61.5261 2.49441L61.0509 2.64992ZM61.1107 3.31216L61.6058 3.24253L61.5453 2.81216H61.1107V3.31216ZM61.0521 3.97472L61.5272 4.1304L61.5273 4.13016L61.0521 3.97472ZM60.7085 4.54053L60.3518 4.1901L60.3518 4.19011L60.7085 4.54053ZM60.1526 4.89002L59.9921 4.41646L59.9921 4.41648L60.1526 4.89002ZM59.502 4.94933L59.5744 4.45459L59.5384 4.44933H59.502V4.94933ZM52.5357 4.94933H52.0357V5.44933H52.5357V4.94933ZM52.5357 1.67499V1.17499H52.0357V1.67499H52.5357ZM59.502 1.67499V2.17499H59.5382L59.574 2.16978L59.502 1.67499ZM60.1522 1.73474L59.9915 2.20819L60.1522 1.73474ZM77.5325 5.2252V4.7252H77.0325V5.2252H77.5325ZM77.5325 8.92857V9.42857H78.0325V8.92857H77.5325ZM86.3423 5.2252H86.8423V4.7252H86.3423V5.2252ZM86.3423 8.92857H85.8423V9.42857H86.3423V8.92857ZM86.8928 8.92857V9.42857H87.3928V8.92857H86.8928ZM86.8928 1H87.3928V0.5H86.8928V1ZM86.3423 1V0.5H85.8423V1H86.3423ZM86.3423 4.70337V5.20337H86.8423V4.70337H86.3423ZM77.5325 4.70337H77.0325V5.20337H77.5325V4.70337ZM77.5325 1H78.0325V0.5H77.5325V1ZM76.9821 1V0.5H76.4821V1H76.9821ZM76.9821 8.92857H76.4821V9.42857H76.9821V8.92857ZM90.859 8.83239L90.7063 9.3085L90.7064 9.30853L90.859 8.83239ZM91.7452 8.90984V8.40984H91.7113L91.6778 8.4144L91.7452 8.90984ZM90.1026 8.38308L90.449 8.02256L90.4489 8.02246L90.1026 8.38308ZM89.6351 7.65671L89.1627 7.82059L89.1627 7.82061L89.6351 7.65671ZM89.5554 6.80644L90.0499 6.88019L90.0554 6.84351V6.80644H89.5554ZM89.5554 3.12213H90.0554V3.08498L90.0499 3.04823L89.5554 3.12213ZM89.6352 2.27123L90.1075 2.43539L90.1075 2.4352L89.6352 2.27123ZM90.1032 1.54446L89.7571 1.1836L89.757 1.18369L90.1032 1.54446ZM90.8606 1.09533L91.0129 1.57159L91.0129 1.57159L90.8606 1.09533ZM91.7475 1.01873L91.6795 1.51409L91.7134 1.51873H91.7475V1.01873ZM97.2347 1.01873V1.51873H97.2689L97.3027 1.51409L97.2347 1.01873ZM98.1216 1.09533L97.9693 1.57159L97.9693 1.57159L98.1216 1.09533ZM98.8791 1.54446L99.2253 1.18369L99.2252 1.1836L98.8791 1.54446ZM99.347 2.27123L98.8747 2.4352L98.8748 2.43539L99.347 2.27123ZM99.427 3.12213L98.9324 3.04843L98.927 3.08508V3.12213H99.427ZM99.427 6.80644H98.927V6.84349L98.9324 6.88015L99.427 6.80644ZM99.347 7.65734L98.8748 7.49318L98.8747 7.49337L99.347 7.65734ZM98.8791 8.38411L99.2252 8.74498L99.2253 8.74488L98.8791 8.38411ZM98.1216 8.83323L97.9693 8.35697L97.9693 8.35698L98.1216 8.83323ZM97.2347 8.90984L97.3027 8.41448L97.2689 8.40984H97.2347V8.90984ZM90.2107 6.73562L90.7051 6.81041L90.7106 6.77385L90.7107 6.73688L90.2107 6.73562ZM90.2692 7.34985L89.7975 7.51582L89.7975 7.51583L90.2692 7.34985ZM90.2197 3.19244L90.7197 3.19371L90.7198 3.1556L90.7141 3.11792L90.2197 3.19244ZM90.2782 2.5782L89.8066 2.41222L89.8066 2.41222L90.2782 2.5782ZM90.6206 2.05359L90.2768 1.69056V1.69056L90.6206 2.05359ZM91.8231 1.67393L91.7561 2.16942L91.7895 2.17394H91.8231V1.67393ZM97.1679 1.67393V2.17394H97.2015L97.2348 2.16945L97.1679 1.67393ZM97.8157 1.72927L97.9661 1.25243L97.966 1.25241L97.8157 1.72927ZM98.369 2.05266L98.7124 1.6893V1.6893L98.369 2.05266ZM98.7116 2.57602L98.2402 2.74279L98.2403 2.74304L98.7116 2.57602ZM98.7715 3.18922L98.2769 3.1162L98.2715 3.15251V3.18922H98.7715ZM98.7715 6.73562H98.2715V6.77309L98.2771 6.81014L98.7715 6.73562ZM98.7129 7.34985L99.1846 7.51583L99.1846 7.51582L98.7129 7.34985ZM98.3706 7.87446L98.0268 7.5114L98.0268 7.51142L98.3706 7.87446ZM97.8166 8.1987L97.666 7.72191V7.72191L97.8166 8.1987ZM97.1679 8.25412L97.2349 7.75863L97.2016 7.75412H97.1679V8.25412ZM91.8142 8.25412V7.75412H91.7805L91.7472 7.75863L91.8142 8.25412ZM91.1655 8.1987L91.3161 7.72191V7.72191L91.1655 8.1987ZM90.6115 7.87446L90.9553 7.51142L90.9553 7.5114L90.6115 7.87446ZM110.671 1.09556L110.824 0.619279L110.671 1.09556ZM109.782 1.01878L109.782 1.51878L109.816 1.51876L109.85 1.51414L109.782 1.01878ZM111.431 1.54575L111.085 1.9067L111.085 1.90681L111.431 1.54575ZM111.9 2.27424L111.427 2.43704L111.428 2.43884L111.9 2.27424ZM111.981 3.12716L111.486 3.05459L111.475 3.12716L111.486 3.19973L111.981 3.12716ZM111.9 3.98007L111.428 3.81547L111.427 3.81727L111.9 3.98007ZM111.431 4.70857L111.085 4.34751L111.085 4.34761L111.431 4.70857ZM110.671 5.15875L110.519 4.68247L110.519 4.68248L110.671 5.15875ZM109.782 5.23554L109.85 4.74018L109.816 4.73554H109.782V5.23554ZM102.639 5.23554V4.73554H102.139V5.23554H102.639ZM102.639 8.92857V9.42857H103.139V8.92857H102.639ZM102.089 8.92857H101.589V9.42857H102.089V8.92857ZM102.089 1.02213L102.089 0.522134L101.589 0.522352V1.02213H102.089ZM111.318 3.3119L110.823 3.24352L110.745 3.8119H111.318V3.3119ZM111.259 2.64977L110.784 2.80525L110.785 2.80615L111.259 2.64977ZM111.325 3.3119L111.82 3.24363L111.761 2.8119H111.325V3.3119ZM111.266 3.97536L110.791 3.819L110.791 3.81946L111.266 3.97536ZM110.922 4.54168L110.566 4.19085L110.566 4.19087L110.922 4.54168ZM110.365 4.89084L110.525 5.36468L110.525 5.36465L110.365 4.89084ZM109.713 4.94882L109.787 4.45427L109.751 4.44882H109.713V4.94882ZM102.75 4.94882H102.25V5.44882H102.75V4.94882ZM102.75 1.67499V1.17499H102.25V1.67499H102.75ZM109.711 1.67499V2.17499H109.747L109.783 2.16978L109.711 1.67499ZM110.361 1.73473L110.522 1.26129V1.26129L110.361 1.73473ZM110.916 2.08425L110.56 2.43453L110.916 2.08425ZM65.6023 9.30945C65.9593 9.42353 66.3383 9.45619 66.71 9.40519L66.5741 8.41447C66.3497 8.44525 66.1212 8.42544 65.9068 8.35692L65.6023 9.30945ZM64.6505 8.74482C64.9193 9.00253 65.2453 9.19535 65.6024 9.30946L65.9068 8.35692C65.6925 8.28845 65.4996 8.17361 65.3425 8.02295L64.6505 8.74482ZM64.0558 7.82084C64.1773 8.17075 64.3815 8.4868 64.6504 8.74472L65.3426 8.02304C65.1857 7.87259 65.0692 7.69076 65.0004 7.49277L64.0558 7.82084ZM63.9536 6.7318C63.899 7.09786 63.9341 7.47095 64.0558 7.82101L65.0004 7.4926C64.9316 7.29474 64.912 7.08493 64.9426 6.87928L63.9536 6.7318ZM64.9967 6.30554H64.4481V7.30554H64.9967V6.30554ZM65.529 7.27981C65.484 7.15029 65.4712 7.01337 65.4912 6.87941L64.5022 6.73167C64.4581 7.02648 64.4866 7.32668 64.5844 7.60803L65.529 7.27981ZM65.7541 7.6283C65.6505 7.52889 65.574 7.40929 65.529 7.2798L64.5844 7.60804C64.6822 7.88942 64.8463 8.14319 65.0619 8.35002L65.7541 7.6283ZM66.1288 7.84992C65.9859 7.80421 65.8578 7.72778 65.7541 7.62831L65.0619 8.35001C65.2775 8.5568 65.5388 8.71112 65.8242 8.8024L66.1288 7.84992ZM66.5742 7.88838C66.4244 7.9089 66.2717 7.89561 66.1288 7.84992L65.8242 8.80239C66.1097 8.89369 66.4128 8.91982 66.7099 8.87913L66.5742 7.88838ZM72.127 7.88376H66.642V8.88376H72.127V7.88376ZM72.6402 7.84992C72.4974 7.89561 72.3447 7.9089 72.1949 7.88838L72.0592 8.87913C72.3563 8.91982 72.6594 8.89369 72.9448 8.80239L72.6402 7.84992ZM73.0149 7.62831C72.9112 7.72778 72.7831 7.80421 72.6402 7.84992L72.9448 8.8024C73.2302 8.71112 73.4916 8.5568 73.7072 8.35001L73.0149 7.62831ZM73.2401 7.2798C73.1951 7.40929 73.1186 7.52889 73.015 7.6283L73.7071 8.35002C73.9228 8.14319 74.0869 7.88942 74.1847 7.60804L73.2401 7.2798ZM73.2779 6.87914C73.2979 7.01327 73.2851 7.15029 73.2401 7.27981L74.1847 7.60803C74.2824 7.32668 74.3109 7.02658 74.267 6.73194L73.2779 6.87914ZM73.2401 6.33125C73.2851 6.46079 73.2979 6.59781 73.2779 6.73194L74.267 6.87914C74.3109 6.5845 74.2824 6.2844 74.1847 6.00305L73.2401 6.33125ZM73.0149 5.98276C73.1186 6.08219 73.1951 6.20179 73.2401 6.33127L74.1847 6.00303C74.0869 5.72163 73.9228 5.46789 73.7072 5.26106L73.0149 5.98276ZM72.6402 5.76116C72.7831 5.80687 72.9112 5.8833 73.015 5.98277L73.7071 5.26105C73.4916 5.05428 73.2302 4.89996 72.9448 4.80868L72.6402 5.76116ZM72.1949 5.7227C72.3447 5.70217 72.4974 5.71547 72.6402 5.76116L72.9448 4.80869C72.6594 4.7174 72.3563 4.69124 72.0592 4.73195L72.1949 5.7227ZM66.642 5.72732H72.127V4.72732H66.642V5.72732ZM65.6023 5.62695C65.9593 5.74102 66.3383 5.77368 66.71 5.72268L66.5741 4.73196C66.3497 4.76275 66.1212 4.74293 65.9068 4.67441L65.6023 5.62695ZM64.6505 5.06231C64.9193 5.32002 65.2453 5.51284 65.6024 5.62695L65.9068 4.67441C65.6925 4.60594 65.4996 4.4911 65.3425 4.34044L64.6505 5.06231ZM64.0558 4.13831C64.1773 4.48824 64.3815 4.80429 64.6504 5.06221L65.3426 4.34053C65.1857 4.19009 65.0692 4.00825 65.0004 3.81026L64.0558 4.13831ZM63.9536 3.0493C63.899 3.41535 63.9341 3.78844 64.0558 4.1385L65.0004 3.81007C64.9316 3.61223 64.912 3.40242 64.9426 3.19677L63.9536 3.0493ZM64.0558 2.10756C63.9341 2.45762 63.899 2.83071 63.9536 3.19677L64.9426 3.0493C64.912 2.84364 64.9316 2.63383 65.0004 2.43597L64.0558 2.10756ZM64.6504 1.18385C64.3815 1.44177 64.1773 1.75781 64.0558 2.10774L65.0004 2.43579C65.0692 2.2378 65.1857 2.05598 65.3426 1.90553L64.6504 1.18385ZM65.6024 0.619102C65.2453 0.733208 64.9193 0.926035 64.6504 1.18377L65.3425 1.90562C65.4996 1.75495 65.6925 1.64011 65.9068 1.57164L65.6024 0.619102ZM66.71 0.523382C66.3383 0.472383 65.9593 0.50504 65.6024 0.619101L65.9068 1.57165C66.1212 1.50313 66.3497 1.48332 66.5741 1.5141L66.71 0.523382ZM72.127 0.518741H66.642V1.51874H72.127V0.518741ZM73.1665 0.619587C72.8098 0.505421 72.4309 0.472578 72.0593 0.523343L72.1947 1.51414C72.4189 1.4835 72.6474 1.50342 72.8617 1.57201L73.1665 0.619587ZM74.118 1.18443C73.8493 0.92661 73.5233 0.733788 73.1666 0.619605L72.8617 1.57199C73.0759 1.64056 73.2687 1.75545 73.4256 1.90595L74.118 1.18443ZM74.7122 2.108C74.5907 1.75819 74.3866 1.44232 74.1181 1.18452L73.4255 1.90586C73.5823 2.05639 73.6988 2.23827 73.7676 2.43618L74.7122 2.108ZM74.8142 3.1968C74.8688 2.83082 74.8336 2.45794 74.7123 2.10818L73.7675 2.436C73.8362 2.63393 73.8558 2.84374 73.8251 3.04926L74.8142 3.1968ZM73.7712 3.62303H74.3197V2.62303H73.7712V3.62303ZM73.2389 2.64875C73.2839 2.77828 73.2967 2.9152 73.2767 3.04917L74.2657 3.19689C74.3097 2.9021 74.2813 2.6019 74.1835 2.32053L73.2389 2.64875ZM73.0138 2.30025C73.1175 2.39969 73.1939 2.51929 73.2389 2.64875L74.1835 2.32054C74.0857 2.03912 73.9216 1.78538 73.706 1.57855L73.0138 2.30025ZM72.6391 2.07865C72.782 2.12436 72.9101 2.20079 73.0138 2.30025L73.706 1.57855C73.4904 1.37175 73.2291 1.21745 72.9437 1.12618L72.6391 2.07865ZM72.1937 2.04019C72.3435 2.01966 72.4962 2.03296 72.6391 2.07865L72.9437 1.12618C72.6582 1.03489 72.3551 1.00873 72.058 1.04944L72.1937 2.04019ZM66.6409 2.04481H72.1259V1.04481H66.6409V2.04481ZM66.1277 2.07865C66.2705 2.03296 66.4232 2.01966 66.573 2.04019L66.7087 1.04944C66.4116 1.00873 66.1085 1.03489 65.823 1.12618L66.1277 2.07865ZM65.7529 2.30026C65.8566 2.20079 65.9847 2.12436 66.1277 2.07865L65.8231 1.12618C65.5377 1.21745 65.2764 1.37175 65.0607 1.57855L65.7529 2.30026ZM65.5278 2.64876C65.5728 2.51928 65.6493 2.39968 65.7529 2.30025L65.0607 1.57855C64.8451 1.78538 64.681 2.03913 64.5832 2.32052L65.5278 2.64876ZM65.49 3.04916C65.47 2.91521 65.4828 2.77828 65.5278 2.64874L64.5832 2.32054C64.4854 2.60189 64.457 2.90209 64.501 3.1969L65.49 3.04916ZM65.5278 3.59731C65.4828 3.46778 65.47 3.33086 65.49 3.1969L64.501 3.04916C64.457 3.34397 64.4854 3.64417 64.5832 3.92552L65.5278 3.59731ZM65.7529 3.94579C65.6493 3.84639 65.5728 3.72678 65.5278 3.59729L64.5832 3.92553C64.681 4.20691 64.8451 4.46068 65.0607 4.66751L65.7529 3.94579ZM66.1277 4.16741C65.9847 4.12171 65.8567 4.04527 65.7529 3.9458L65.0607 4.66751C65.2763 4.87429 65.5377 5.02861 65.8231 5.11989L66.1277 4.16741ZM66.573 4.20587C66.4232 4.22639 66.2705 4.2131 66.1277 4.16741L65.823 5.11989C66.1085 5.21118 66.4116 5.23731 66.7087 5.19663L66.573 4.20587ZM72.1259 4.20125H66.6409V5.20125H72.1259V4.20125ZM73.1655 4.30161C72.8086 4.18755 72.4296 4.15489 72.0579 4.20589L72.1938 5.19661C72.4182 5.16583 72.6467 5.18564 72.8611 5.25415L73.1655 4.30161ZM74.1175 4.86628C73.8486 4.60853 73.5226 4.41573 73.1656 4.30162L72.8611 5.25415C73.0754 5.32263 73.2683 5.43747 73.4254 5.58812L74.1175 4.86628ZM74.7121 5.79025C74.5906 5.44032 74.3864 5.12428 74.1175 4.86636L73.4253 5.58804C73.5822 5.73849 73.6987 5.92031 73.7675 6.1183L74.7121 5.79025ZM74.8142 6.87948C74.8689 6.51329 74.8338 6.14013 74.7121 5.79006L73.7675 6.11849C73.8363 6.31634 73.8559 6.52608 73.8252 6.7316L74.8142 6.87948ZM74.7121 7.82102C74.8338 7.47095 74.8689 7.09779 74.8142 6.7316L73.8252 6.87948C73.8559 7.085 73.8363 7.29474 73.7675 7.49259L74.7121 7.82102ZM74.1175 8.74472C74.3864 8.4868 74.5906 8.17075 74.7121 7.82084L73.7675 7.49277C73.6987 7.69076 73.5822 7.87259 73.4253 8.02304L74.1175 8.74472ZM73.1655 9.30946C73.5226 9.19536 73.8486 9.00253 74.1174 8.74481L73.4254 8.02295C73.2683 8.1736 73.0754 8.28845 72.8611 8.35692L73.1655 9.30946ZM72.0579 9.40519C72.4296 9.45619 72.8086 9.42353 73.1656 9.30945L72.8611 8.35692C72.6467 8.42544 72.4182 8.44525 72.1938 8.41447L72.0579 9.40519ZM66.642 9.40983H72.1259V8.40983H66.642V9.40983ZM28.2525 8.41448C28.0281 8.44525 27.7996 8.42544 27.5852 8.35695L27.2809 9.30951C27.6378 9.42354 28.0168 9.45618 28.3884 9.4052L28.2525 8.41448ZM33.8046 8.40984H28.3204V9.40984H33.8046V8.40984ZM34.5399 8.35695C34.3256 8.42543 34.097 8.44525 33.8726 8.41447L33.7367 9.4052C34.1084 9.45617 34.4874 9.42354 34.8443 9.30951L34.5399 8.35695ZM35.1042 8.02312C34.947 8.17371 34.7542 8.2885 34.54 8.35694L34.8443 9.30951C35.2013 9.19546 35.5273 9.00271 35.7961 8.7451L35.1042 8.02312ZM35.4461 7.49326C35.3774 7.69112 35.2609 7.87285 35.1041 8.02322L35.7962 8.745C36.0651 8.48717 36.2692 8.17123 36.3908 7.82143L35.4461 7.49326ZM35.5038 6.88039C35.5345 7.08577 35.515 7.29537 35.4462 7.49309L36.3907 7.8216C36.5124 7.47163 36.5476 7.09857 36.4928 6.73248L35.5038 6.88039ZM35.4983 3.12213V6.80644H36.4983V3.12213H35.4983ZM35.4462 2.43548C35.515 2.6332 35.5345 2.8428 35.5038 3.04818L36.4928 3.19609C36.5476 2.83 36.5124 2.45694 36.3907 2.10698L35.4462 2.43548ZM35.1041 1.90535C35.2609 2.05572 35.3774 2.23744 35.4461 2.4353L36.3908 2.10715C36.2692 1.75732 36.0651 1.44139 35.7962 1.18357L35.1041 1.90535ZM34.54 1.57162C34.7542 1.64006 34.947 1.75485 35.1042 1.90544L35.7961 1.18348C35.5273 0.925848 35.2013 0.733102 34.8443 0.619048L34.54 1.57162ZM33.8726 1.5141C34.097 1.48332 34.3256 1.50314 34.54 1.57162L34.8443 0.619048C34.4874 0.505033 34.1084 0.472401 33.7367 0.523368L33.8726 1.5141ZM28.3204 1.51873H33.8046V0.518733H28.3204V1.51873ZM27.5852 1.57162C27.7996 1.50313 28.0281 1.48332 28.2525 1.51409L28.3884 0.523372C28.0168 0.472396 27.6378 0.505037 27.2809 0.619048L27.5852 1.57162ZM27.021 1.90544C27.1781 1.75485 27.371 1.64006 27.5852 1.57162L27.2809 0.619048C26.9239 0.733102 26.5979 0.925848 26.3291 1.18348L27.021 1.90544ZM26.679 2.4353C26.7478 2.23744 26.8643 2.05572 27.0211 1.90535L26.329 1.18357C26.0601 1.4414 25.8559 1.75732 25.7344 2.10715L26.679 2.4353ZM26.6213 3.04838C26.5906 2.84287 26.6102 2.6332 26.679 2.43548L25.7345 2.10698C25.6128 2.45694 25.5776 2.82993 25.6322 3.19589L26.6213 3.04838ZM26.6267 6.80644V3.12213H25.6267V6.80644H26.6267ZM26.679 7.49309C26.6102 7.29537 26.5906 7.0857 26.6213 6.88019L25.6322 6.73268C25.5776 7.09864 25.6128 7.47163 25.7345 7.8216L26.679 7.49309ZM27.0211 8.02322C26.8643 7.87285 26.7478 7.69112 26.679 7.49326L25.7344 7.82143C25.8559 8.17123 26.0601 8.48717 26.329 8.745L27.0211 8.02322ZM27.5852 8.35694C27.371 8.2885 27.1781 8.17371 27.021 8.02312L26.3291 8.7451C26.5979 9.00271 26.9239 9.19546 27.2809 9.30951L27.5852 8.35694ZM21.3156 1.51413C21.5404 1.48328 21.7694 1.50314 21.9842 1.5718L22.2887 0.619292C21.9313 0.505044 21.5518 0.472343 21.1796 0.523416L21.3156 1.51413ZM13.5538 1.52325L21.2479 1.51877L21.2473 0.518774L13.5532 0.52325L13.5538 1.52325ZM14.0535 8.92857V1.02325H13.0535V8.92857H14.0535ZM14.1028 8.42857H13.5535V9.42857H14.1028V8.42857ZM13.6028 5.23606V8.92857H14.6028V5.23606H13.6028ZM21.2453 4.73606H14.1028V5.73606H21.2453V4.73606ZM22.0642 4.81755C21.7784 4.72612 21.475 4.69993 21.1774 4.74069L21.3131 5.73144C21.4634 5.71086 21.6163 5.72419 21.7595 5.76999L22.0642 4.81755ZM22.8273 5.27059C22.6115 5.0635 22.3499 4.90896 22.0642 4.81755L21.7595 5.76999C21.9027 5.8158 22.031 5.89242 22.135 5.99214L22.8273 5.27059ZM23.3053 6.01353C23.2074 5.73179 23.0432 5.47771 22.8273 5.27059L22.135 5.99214C22.2389 6.09184 22.3155 6.21177 22.3606 6.34164L23.3053 6.01353ZM23.3875 6.89097C23.4316 6.59581 23.4031 6.29525 23.3053 6.01354L22.3606 6.34163C22.4058 6.47156 22.4186 6.60891 22.3985 6.74329L23.3875 6.89097ZM23.393 8.92521V6.81713H22.393V8.92521H23.393ZM23.4446 8.42521H22.893V9.42521H23.4446V8.42521ZM22.9446 6.81713V8.92521H23.9446V6.81713H22.9446ZM22.8184 5.98885C22.9373 6.22799 22.982 6.49307 22.9486 6.75358L23.9405 6.88068C23.9993 6.42222 23.9199 5.95811 23.7137 5.54354L22.8184 5.98885ZM22.2699 5.40093C22.5101 5.54478 22.6994 5.74956 22.8184 5.98884L23.7137 5.54355C23.5076 5.1291 23.1841 4.78282 22.7838 4.54306L22.2699 5.40093ZM22.8184 3.95514C22.6994 4.19441 22.5101 4.3992 22.2699 4.54306L22.7838 5.40092C23.1841 5.16115 23.5076 4.81488 23.7137 4.40045L22.8184 3.95514ZM22.9486 3.19041C22.982 3.45091 22.9373 3.716 22.8184 3.95514L23.7137 4.40045C23.9199 3.98588 23.9993 3.52176 23.9405 3.06331L22.9486 3.19041ZM22.8923 2.43821C22.9613 2.63658 22.9809 2.84688 22.9501 3.05296L23.9391 3.20076C23.9939 2.83409 23.9587 2.46045 23.8369 2.10991L22.8923 2.43821ZM22.5494 1.90644C22.7065 2.05724 22.8233 2.23952 22.8922 2.43803L23.8369 2.11009C23.7153 1.75969 23.5109 1.44321 23.2418 1.18491L22.5494 1.90644ZM21.9842 1.5718C22.1988 1.64041 22.392 1.75551 22.5495 1.90653L23.2417 1.18482C22.9726 0.926707 22.6462 0.733579 22.2887 0.619292L21.9842 1.5718ZM8.76704 1.51744C8.99115 1.48668 9.2195 1.50648 9.43359 1.57493L9.73812 0.622426C9.38141 0.508384 9.00253 0.475741 8.63106 0.526725L8.76704 1.51744ZM3.21141 1.51873L8.69875 1.52208L8.69936 0.522081L3.21202 0.518732L3.21141 1.51873ZM2.47717 1.57158C2.69127 1.50313 2.91962 1.48333 3.14373 1.51409L3.2797 0.523376C2.90824 0.472392 2.52935 0.505035 2.17265 0.619077L2.47717 1.57158ZM1.91366 1.90522C2.07045 1.75477 2.26314 1.64001 2.47717 1.57158L2.17265 0.619077C1.81589 0.733136 1.48993 0.925902 1.22131 1.18366L1.91366 1.90522ZM1.57173 2.43523C1.64047 2.23731 1.75694 2.05558 1.91364 1.90523L1.22132 1.18364C0.952588 1.44147 0.748563 1.75738 0.627086 2.10713L1.57173 2.43523ZM1.51411 3.04832C1.48346 2.84277 1.50304 2.63302 1.57174 2.43521L0.62708 2.10714C0.505581 2.457 0.470492 2.82988 0.525042 3.19578L1.51411 3.04832ZM1.51958 6.8062V3.12205H0.519576V6.8062H1.51958ZM1.57176 7.49358C1.50297 7.29564 1.48338 7.08573 1.51409 6.88003L0.525057 6.73237C0.470387 7.09854 0.505507 7.47173 0.627171 7.82184L1.57176 7.49358ZM1.91414 8.02387C1.75721 7.87346 1.64058 7.69162 1.57176 7.49358L0.627171 7.82184C0.748803 8.17185 0.953125 8.48792 1.22218 8.7458L1.91414 8.02387ZM2.47836 8.35738C2.26408 8.28907 2.07113 8.17434 1.91413 8.02386L1.22219 8.74581C1.49116 9.0036 1.81751 9.19629 2.17463 9.31014L2.47836 8.35738ZM3.14548 8.41424C2.92123 8.44529 2.69266 8.4257 2.47836 8.35738L2.17463 9.31013C2.5317 9.42397 2.91093 9.45625 3.28261 9.40479L3.14548 8.41424ZM8.69905 8.40952H3.21404V9.40952H8.69905V8.40952ZM9.43039 8.35528C9.217 8.42385 8.98933 8.44407 8.76573 8.41398L8.63237 9.40505C9.00298 9.45492 9.38075 9.42159 9.73632 9.30734L9.43039 8.35528ZM9.99214 8.02205C9.8358 8.17213 9.64375 8.28673 9.4304 8.35528L9.73631 9.30734C10.0919 9.19307 10.4168 9.00057 10.6847 8.74345L9.99214 8.02205ZM10.3334 7.49354C10.2646 7.69087 10.1484 7.87207 9.99213 8.02206L10.6847 8.74344C10.9526 8.48623 11.1562 8.17128 11.2777 7.82259L10.3334 7.49354ZM10.3918 6.88215C10.4219 7.0872 10.4021 7.29634 10.3333 7.49355L11.2777 7.82258C11.3992 7.47378 11.4348 7.10198 11.3812 6.73695L10.3918 6.88215ZM10.3865 4.70623V6.80955H11.3865V4.70623H10.3865ZM5.40619 5.20623H10.8865V4.20623H5.40619V5.20623ZM5.90619 5.23206V4.70623H4.90619V5.23206H5.90619ZM10.3432 4.73206H5.40619V5.73206H10.3432V4.73206ZM10.8432 6.80955V5.23206H9.84316V6.80955H10.8432ZM10.7555 7.61174C10.8532 7.33039 10.8815 7.03039 10.8377 6.73597L9.8486 6.88313C9.86856 7.01728 9.85579 7.1542 9.81085 7.28352L10.7555 7.61174ZM10.2782 8.35342C10.4938 8.14665 10.6577 7.89298 10.7555 7.61174L9.81085 7.28352C9.76587 7.41297 9.68945 7.5325 9.58593 7.63182L10.2782 8.35342ZM9.51642 8.80569C9.80175 8.71442 10.0628 8.5601 10.2783 8.35339L9.5859 7.63185C9.4823 7.73126 9.35444 7.80759 9.21175 7.85323L9.51642 8.80569ZM8.6312 8.88241C8.92818 8.92309 9.2311 8.89696 9.51642 8.80569L9.21175 7.85323C9.06903 7.89888 8.91659 7.91216 8.7669 7.89166L8.6312 8.88241ZM3.21404 8.88704H8.69905V7.88704H3.21404V8.88704ZM2.39667 8.80569C2.68199 8.89696 2.98492 8.92309 3.28189 8.88241L3.14619 7.89166C2.99651 7.91216 2.84406 7.89889 2.70133 7.85323L2.39667 8.80569ZM1.63483 8.35341C1.85025 8.5601 2.11132 8.71441 2.39667 8.80569L2.70134 7.85323C2.55866 7.80759 2.4308 7.73126 2.32717 7.63183L1.63483 8.35341ZM1.15764 7.61174C1.25536 7.89298 1.41933 8.14664 1.63483 8.35341L2.32717 7.63183C2.22364 7.5325 2.14722 7.41297 2.10224 7.28352L1.15764 7.61174ZM1.07539 6.73594C1.03156 7.03039 1.05989 7.3304 1.15764 7.61174L2.10224 7.28352C2.0573 7.15418 2.04453 7.01727 2.06449 6.88316L1.07539 6.73594ZM1.06994 3.1254V6.80955H2.06994V3.1254H1.06994ZM1.15764 2.3232C1.05989 2.60454 1.03156 2.90455 1.07539 3.199L2.06449 3.05179C2.04453 2.91768 2.0573 2.78077 2.10225 2.6514L1.15764 2.3232ZM1.63482 1.58154C1.41934 1.78831 1.25537 2.04194 1.15764 2.32319L2.10224 2.65141C2.14722 2.52198 2.22364 2.40244 2.32718 2.30309L1.63482 1.58154ZM2.39667 1.12925C2.11133 1.22053 1.85026 1.37483 1.63483 1.58153L2.32717 2.3031C2.43079 2.20368 2.55864 2.12736 2.70134 2.08171L2.39667 1.12925ZM3.28192 1.05254C2.98491 1.01184 2.68197 1.038 2.39667 1.12925L2.70133 2.08171C2.84408 2.03606 2.99651 2.02278 3.14617 2.04328L3.28192 1.05254ZM8.69905 1.04791H3.21404V2.04791H8.69905V1.04791ZM9.51611 1.13077C9.23139 1.03917 8.929 1.01246 8.63236 1.05238L8.76574 2.04344C8.91524 2.02332 9.0674 2.03689 9.20982 2.08272L9.51611 1.13077ZM10.2762 1.58342C10.0613 1.37683 9.80086 1.2224 9.51611 1.13078L9.20982 2.08271C9.35219 2.12852 9.47972 2.2049 9.58307 2.30427L10.2762 1.58342ZM10.7521 2.32433C10.6546 2.04348 10.4911 1.79011 10.2762 1.58342L9.58307 2.30427C9.68632 2.40355 9.76253 2.52294 9.80739 2.6522L10.7521 2.32433ZM10.8342 3.19879C10.8779 2.90481 10.8496 2.60529 10.7521 2.32433L9.80739 2.6522C9.85221 2.78134 9.86496 2.91804 9.84508 3.052L10.8342 3.19879ZM10.8912 2.6254H10.3397V3.6254H10.8912V2.6254ZM10.339 2.43857C10.4077 2.63637 10.4273 2.84612 10.3967 3.05167L11.3857 3.19913C11.4403 2.83323 11.4052 2.46034 11.2837 2.11048L10.339 2.43857ZM9.99712 1.90857C10.1538 2.05894 10.2703 2.24066 10.339 2.43856L11.2837 2.11049C11.1622 1.76072 10.9582 1.44482 10.6895 1.187L9.99712 1.90857ZM9.43359 1.57493C9.64762 1.64336 9.84032 1.75812 9.99711 1.90857L10.6895 1.18701C10.4208 0.929248 10.0949 0.736485 9.73812 0.622428L9.43359 1.57493ZM22.2555 2.80536C22.3015 2.94599 22.3148 3.09569 22.2942 3.24242L23.2844 3.38172C23.3263 3.0837 23.2994 2.77998 23.2059 2.49438L22.2555 2.80536ZM22.0307 2.43459C22.1323 2.53809 22.2095 2.66493 22.2555 2.80537L23.2059 2.49437C23.1124 2.20861 22.9546 1.94818 22.7443 1.73399L22.0307 2.43459ZM21.6714 2.20818C21.806 2.2539 21.9292 2.33119 22.0307 2.4346L22.7443 1.73399C22.5339 1.51971 22.2767 1.35766 21.9929 1.26129L21.6714 2.20818ZM21.2539 2.16978C21.394 2.14941 21.5369 2.16251 21.6714 2.20818L21.9929 1.26129C21.709 1.16488 21.4067 1.13705 21.11 1.18019L21.2539 2.16978ZM14.2144 2.17499H21.1819V1.17499H14.2144V2.17499ZM14.7144 4.94916V1.67499H13.7144V4.94916H14.7144ZM21.1796 4.44916H14.2144V5.44916H21.1796V4.44916ZM21.6703 4.41667C21.5357 4.4622 21.3926 4.47511 21.2524 4.45449L21.1069 5.44383C21.4037 5.48751 21.7065 5.4601 21.9908 5.36392L21.6703 4.41667ZM22.0304 4.19027C21.9285 4.29383 21.8051 4.37107 21.6704 4.41665L21.9908 5.36393C22.2751 5.26778 22.5325 5.10576 22.7433 4.89155L22.0304 4.19027ZM22.2554 3.81933C22.2094 3.95989 22.132 4.08684 22.0302 4.1904L22.7434 4.89142C22.954 4.67719 23.1121 4.41657 23.2058 4.13052L22.2554 3.81933ZM22.2942 3.38166C22.3148 3.52886 22.3015 3.67869 22.2555 3.8191L23.2057 4.13075C23.2996 3.84457 23.3263 3.54049 23.2844 3.24249L22.2942 3.38166ZM27.3123 7.18408C27.2697 7.06325 27.2577 6.93575 27.2765 6.81101L26.2877 6.66173C26.2443 6.94933 26.2725 7.2422 26.3691 7.5165L27.3123 7.18408ZM27.5269 7.51133C27.4275 7.41735 27.3549 7.30492 27.3123 7.18408L26.3691 7.5165C26.4658 7.7908 26.6278 8.03743 26.8399 8.23796L27.5269 7.51133ZM27.8884 7.72188C27.7499 7.67822 27.6264 7.60541 27.527 7.51134L26.8399 8.23795C27.0519 8.43841 27.3083 8.58752 27.5877 8.6756L27.8884 7.72188ZM28.3203 7.75863C28.1749 7.77826 28.0268 7.76552 27.8884 7.72188L27.5877 8.6756C27.8671 8.76369 28.1636 8.78886 28.4541 8.74964L28.3203 7.75863ZM33.7377 7.75413H28.3872V8.75413H33.7377V7.75413ZM34.2367 7.72188C34.0983 7.76551 33.9501 7.77827 33.8046 7.75862L33.6708 8.74964C33.9615 8.78886 34.258 8.7637 34.5374 8.6756L34.2367 7.72188ZM34.5981 7.51134C34.4986 7.60541 34.3751 7.67822 34.2367 7.72188L34.5374 8.6756C34.8167 8.58752 35.0731 8.43841 35.2851 8.23795L34.5981 7.51134ZM34.8128 7.18409C34.7702 7.30492 34.6975 7.41735 34.5981 7.51133L35.2851 8.23796C35.4972 8.03743 35.6592 7.7908 35.7559 7.5165L34.8128 7.18409ZM34.8485 6.81128C34.8674 6.93584 34.8554 7.06325 34.8128 7.18408L35.7559 7.51651C35.8526 7.2422 35.8808 6.94923 35.8372 6.66145L34.8485 6.81128ZM34.8428 3.19169V6.73637H35.8428V3.19169H34.8428ZM34.8128 2.74396C34.8554 2.86481 34.8674 2.99222 34.8485 3.11678L35.8372 3.26661C35.8808 2.97882 35.8526 2.68586 35.7559 2.41155L34.8128 2.74396ZM34.5981 2.4167C34.6975 2.51071 34.7702 2.62314 34.8128 2.74396L35.7559 2.41155C35.6592 2.13724 35.4972 1.89063 35.2851 1.6901L34.5981 2.4167ZM34.2367 2.20618C34.3751 2.24984 34.4986 2.32265 34.5981 2.4167L35.2851 1.6901C35.0731 1.48963 34.8167 1.34053 34.5374 1.25246L34.2367 2.20618ZM33.8046 2.16943C33.9501 2.14979 34.0983 2.16254 34.2367 2.20618L34.5374 1.25246C34.258 1.16437 33.9615 1.13919 33.6708 1.17842L33.8046 2.16943ZM28.3872 2.17393H33.7377V1.17393H28.3872V2.17393ZM27.8884 2.20618C28.0268 2.16254 28.1749 2.14979 28.3203 2.16943L28.4541 1.17843C28.1636 1.13918 27.867 1.16438 27.5877 1.25246L27.8884 2.20618ZM27.527 2.4167C27.6264 2.32265 27.7499 2.24984 27.8884 2.20618L27.5877 1.25246C27.3083 1.34054 27.0519 1.48963 26.8399 1.6901L27.527 2.4167ZM27.3123 2.74397C27.3549 2.62314 27.4275 2.51071 27.527 2.4167L26.8399 1.6901C26.6278 1.89063 26.4658 2.13724 26.3691 2.41155L27.3123 2.74397ZM27.2765 3.11705C27.2577 2.99232 27.2697 2.86481 27.3123 2.74396L26.3691 2.41155C26.2725 2.68586 26.2443 2.97873 26.2877 3.26633L27.2765 3.11705ZM27.2821 6.73637V3.19169H26.2821V6.73637H27.2821ZM48.5034 6.80051V1H47.5034V6.80051H48.5034ZM48.4158 7.60415C48.5135 7.32246 48.5419 7.02193 48.4979 6.72682L47.5088 6.8742C47.5289 7.00887 47.5161 7.1465 47.471 7.27665L48.4158 7.60415ZM47.9386 8.34737C48.1542 8.14009 48.3182 7.88589 48.4158 7.60415L47.471 7.27665C47.4259 7.40676 47.3493 7.52681 47.2456 7.6265L47.9386 8.34737ZM47.1763 8.80086C47.4618 8.70932 47.7231 8.55458 47.9387 8.34735L47.2456 7.62652C47.1418 7.72627 47.0138 7.80284 46.871 7.8486L47.1763 8.80086ZM46.2902 8.87782C46.5875 8.91863 46.8908 8.89241 47.1763 8.80086L46.871 7.8486C46.7283 7.89435 46.5759 7.90766 46.4262 7.88711L46.2902 8.87782ZM40.8739 8.88247H46.3582V7.88247H40.8739V8.88247ZM40.0558 8.80086C40.3414 8.89241 40.6447 8.91863 40.9419 8.87782L40.8059 7.88711C40.6563 7.90766 40.5038 7.89435 40.3611 7.8486L40.0558 8.80086ZM39.2935 8.34735C39.509 8.55458 39.7703 8.70932 40.0558 8.80086L40.3611 7.8486C40.2184 7.80284 40.0903 7.72627 39.9866 7.62652L39.2935 8.34735ZM38.8163 7.60415C38.914 7.88589 39.0779 8.14009 39.2935 8.34737L39.9866 7.6265C39.8829 7.52681 39.8063 7.40676 39.7612 7.27665L38.8163 7.60415ZM38.7342 6.72683C38.6903 7.02193 38.7187 7.32245 38.8163 7.60415L39.7612 7.27665C39.7161 7.14651 39.7032 7.00887 39.7233 6.87419L38.7342 6.72683ZM38.7288 1V6.80051H39.7288V1H38.7288ZM38.6802 1.5H39.2288V0.5H38.6802V1.5ZM39.1802 6.80051V1H38.1802V6.80051H39.1802ZM39.2326 7.48995C39.1637 7.2913 39.1441 7.0806 39.1748 6.87406L38.1857 6.72696C38.1312 7.09349 38.1662 7.46707 38.2878 7.81764L39.2326 7.48995ZM39.5751 8.02218C39.4182 7.87133 39.3015 7.6889 39.2327 7.49012L38.2878 7.81746C38.4092 8.16789 38.6132 8.48452 38.882 8.743L39.5751 8.02218ZM40.1391 8.3568C39.925 8.28822 39.7322 8.17315 39.575 8.02208L38.8821 8.7431C39.1508 9.00137 39.4768 9.1947 39.834 9.30912L40.1391 8.3568ZM40.8058 8.41445C40.5817 8.44528 40.3533 8.42544 40.1391 8.3568L39.834 9.30912C40.191 9.42351 40.5702 9.45627 40.9421 9.40512L40.8058 8.41445ZM46.3582 8.40979H40.8739V9.40979H46.3582V8.40979ZM47.093 8.3568C46.8788 8.42544 46.6505 8.44528 46.4264 8.41445L46.2901 9.40512C46.6619 9.45627 47.0411 9.42351 47.3982 9.30912L47.093 8.3568ZM47.6571 8.02209C47.5 8.17315 47.3071 8.28822 47.093 8.3568L47.3981 9.30912C47.7553 9.1947 48.0813 9.00137 48.3501 8.74309L47.6571 8.02209ZM47.9995 7.49012C47.9306 7.68889 47.8139 7.87133 47.657 8.02218L48.3502 8.743C48.619 8.48452 48.823 8.16789 48.9444 7.81747L47.9995 7.49012ZM48.0573 6.87407C48.0881 7.0806 48.0684 7.2913 47.9995 7.48995L48.9443 7.81764C49.0659 7.46707 49.101 7.09348 49.0465 6.72695L48.0573 6.87407ZM48.0519 1V6.80051H49.0519V1H48.0519ZM48.0034 1.5H48.5519V0.5H48.0034V1.5ZM60.6095 0.619291C60.2521 0.505048 59.8725 0.472339 59.5002 0.52342L59.6362 1.51413C59.8611 1.48327 60.0902 1.50314 60.3051 1.57183L60.6095 0.619291ZM61.5629 1.18484C61.2937 0.926709 60.9671 0.733577 60.6095 0.619291L60.3051 1.57183C60.5199 1.64047 60.7132 1.7556 60.8708 1.90666L61.5629 1.18484ZM62.1584 2.11022C62.0367 1.75977 61.8323 1.44325 61.563 1.18493L60.8707 1.90657C61.0279 2.05742 61.1448 2.23972 61.2137 2.43826L62.1584 2.11022ZM62.2607 3.20089C62.3154 2.83428 62.2802 2.46063 62.1583 2.11004L61.2138 2.43843C61.2828 2.63683 61.3024 2.84722 61.2717 3.05343L62.2607 3.20089ZM62.1583 4.14427C62.2802 3.79369 62.3154 3.42004 62.2607 3.05343L61.2717 3.20089C61.3024 3.4071 61.2828 3.61749 61.2138 3.81587L62.1583 4.14427ZM61.563 5.0694C61.8323 4.81107 62.0367 4.49453 62.1584 4.14409L61.2137 3.81605C61.1448 4.01459 61.0279 4.19691 60.8707 4.34775L61.563 5.0694ZM60.6095 5.63502C60.9671 5.52073 61.2936 5.3276 61.5629 5.06949L60.8708 4.34765C60.7132 4.4987 60.5199 4.61384 60.3051 4.68248L60.6095 5.63502ZM59.5002 5.7309C59.8725 5.78198 60.2521 5.74927 60.6096 5.63501L60.3051 4.68249C60.0902 4.75118 59.8611 4.77105 59.6362 4.74019L59.5002 5.7309ZM52.4247 5.73554H59.5682V4.73554H52.4247V5.73554ZM52.9247 8.92857V5.23554H51.9247V8.92857H52.9247ZM51.8751 9.42857H52.4247V8.42857H51.8751V9.42857ZM51.3751 1.02213V8.92857H52.3751V1.02213H51.3751ZM59.568 0.518777L51.8748 0.522134L51.8753 1.52213L59.5684 1.51878L59.568 0.518777ZM61.6047 3.38182C61.6466 3.08378 61.6196 2.78003 61.5261 2.49442L60.5757 2.80542C60.6218 2.94606 60.6351 3.09576 60.6144 3.2425L61.6047 3.38182ZM61.1107 2.81216H61.1095V3.81216H61.1107V2.81216ZM61.5273 4.13016C61.6207 3.84448 61.6477 3.54064 61.6058 3.24253L60.6155 3.38179C60.6362 3.52867 60.6229 3.67854 60.5769 3.81928L61.5273 4.13016ZM61.0651 4.89095C61.2756 4.67674 61.4336 4.41624 61.5272 4.1304L60.5769 3.81904C60.5309 3.95964 60.4536 4.08657 60.3518 4.1901L61.0651 4.89095ZM60.313 5.36358C60.5972 5.26732 60.8546 5.10527 61.0651 4.89095L60.3518 4.19011C60.2502 4.29353 60.1269 4.37079 59.9921 4.41646L60.313 5.36358ZM59.4297 5.44407C59.7264 5.48746 60.029 5.45986 60.3131 5.36356L59.9921 4.41648C59.8575 4.46209 59.7145 4.47509 59.5744 4.45459L59.4297 5.44407ZM52.5357 5.44933H59.502V4.44933H52.5357V5.44933ZM52.0357 1.67499V4.94933H53.0357V1.67499H52.0357ZM59.502 1.17499H52.5357V2.17499H59.502V1.17499ZM60.313 1.26129C60.0291 1.16488 59.7267 1.13705 59.4301 1.1802L59.574 2.16978C59.714 2.14941 59.8569 2.1625 59.9915 2.20819L60.313 1.26129ZM61.0644 1.734C60.854 1.51971 60.5968 1.35766 60.313 1.26129L59.9915 2.20819C60.1262 2.25392 60.2494 2.33122 60.3509 2.43463L61.0644 1.734ZM61.5261 2.49441C61.4326 2.20864 61.2748 1.94819 61.0644 1.734L60.3509 2.43463C60.4526 2.53814 60.5298 2.66499 60.5757 2.80544L61.5261 2.49441ZM77.0325 5.2252V8.92857H78.0325V5.2252H77.0325ZM86.3423 4.7252H77.5325V5.7252H86.3423V4.7252ZM86.8423 8.92857V5.2252H85.8423V8.92857H86.8423ZM86.8928 8.42857H86.3423V9.42857H86.8928V8.42857ZM86.3928 1V8.92857H87.3928V1H86.3928ZM86.3423 1.5H86.8928V0.5H86.3423V1.5ZM86.8423 4.70337V1H85.8423V4.70337H86.8423ZM77.5325 5.20337H86.3423V4.20337H77.5325V5.20337ZM77.0325 1V4.70337H78.0325V1H77.0325ZM76.9821 1.5H77.5325V0.5H76.9821V1.5ZM77.4821 8.92857V1H76.4821V8.92857H77.4821ZM77.5325 8.42857H76.9821V9.42857H77.5325V8.42857ZM90.7064 9.30853C91.0628 9.42276 91.4413 9.45578 91.8126 9.40528L91.6778 8.4144C91.4538 8.44487 91.2256 8.42485 91.0116 8.35625L90.7064 9.30853ZM89.7561 8.74361C90.0244 9.00137 90.35 9.19422 90.7063 9.3085L91.0117 8.35628C90.7979 8.28771 90.6055 8.17291 90.449 8.02256L89.7561 8.74361ZM89.1627 7.82061C89.284 8.17023 89.4879 8.48597 89.7563 8.74371L90.4489 8.02246C90.2924 7.87209 90.176 7.69047 90.1074 7.4928L89.1627 7.82061ZM89.0608 6.73269C89.0063 7.09843 89.0414 7.47104 89.1627 7.82059L90.1075 7.49282C90.0388 7.29506 90.0193 7.08549 90.0499 6.88019L89.0608 6.73269ZM89.0554 3.12213V6.80644H90.0554V3.12213H89.0554ZM89.1629 2.10707C89.0413 2.457 89.0062 2.83 89.0609 3.19604L90.0499 3.04823C90.0192 2.8428 90.0387 2.63314 90.1075 2.43539L89.1629 2.10707ZM89.757 1.18369C89.4883 1.44154 89.2843 1.75747 89.1628 2.10726L90.1075 2.4352C90.1762 2.2373 90.2927 2.05558 90.4494 1.90523L89.757 1.18369ZM90.7084 0.619078C90.3515 0.733162 90.0257 0.925947 89.7571 1.1836L90.4493 1.90532C90.6063 1.75475 90.7989 1.64 91.0129 1.57159L90.7084 0.619078ZM91.8155 0.523374C91.4439 0.472393 91.0651 0.505035 90.7084 0.619079L91.0129 1.57159C91.227 1.50313 91.4553 1.48333 91.6795 1.51409L91.8155 0.523374ZM97.2347 0.518733H91.7475V1.51873H97.2347V0.518733ZM98.2738 0.619079C97.9171 0.505035 97.5383 0.472393 97.1668 0.523374L97.3027 1.51409C97.5269 1.48333 97.7552 1.50313 97.9693 1.57159L98.2738 0.619079ZM99.2252 1.1836C98.9565 0.925947 98.6307 0.733162 98.2738 0.619078L97.9693 1.57159C98.1833 1.64 98.376 1.75475 98.533 1.90532L99.2252 1.1836ZM99.8194 2.10726C99.698 1.75747 99.494 1.44154 99.2253 1.18369L98.5329 1.90523C98.6896 2.05558 98.806 2.2373 98.8747 2.4352L99.8194 2.10726ZM99.9215 3.19584C99.9761 2.82994 99.941 2.457 99.8193 2.10707L98.8748 2.43539C98.9435 2.63314 98.9631 2.84286 98.9324 3.04843L99.9215 3.19584ZM99.927 6.80644V3.12213H98.927V6.80644H99.927ZM99.8193 7.8215C99.941 7.47157 99.9761 7.09864 99.9215 6.73273L98.9324 6.88015C98.9631 7.08571 98.9435 7.29543 98.8748 7.49318L99.8193 7.8215ZM99.2253 8.74488C99.494 8.48703 99.698 8.17109 99.8194 7.82132L98.8747 7.49337C98.806 7.69127 98.6896 7.873 98.5329 8.02334L99.2253 8.74488ZM98.2738 9.30948C98.6307 9.1954 98.9565 9.00261 99.2252 8.74498L98.533 8.02325C98.376 8.17381 98.1833 8.28856 97.9693 8.35697L98.2738 9.30948ZM97.1668 9.4052C97.5383 9.45618 97.9171 9.42354 98.2739 9.30948L97.9693 8.35698C97.7552 8.42544 97.5269 8.44525 97.3027 8.41448L97.1668 9.4052ZM91.7452 9.40984H97.2347V8.40984H91.7452V9.40984ZM89.7163 6.66083C89.6728 6.94858 89.701 7.24152 89.7975 7.51582L90.7408 7.18387C90.6982 7.06285 90.6862 6.9352 90.7051 6.81041L89.7163 6.66083ZM89.7197 3.19118L89.7107 6.73435L90.7107 6.73688L90.7197 3.19371L89.7197 3.19118ZM89.8066 2.41222C89.7101 2.68655 89.6819 2.9794 89.7253 3.26696L90.7141 3.11792C90.6953 2.99294 90.7073 2.86521 90.7499 2.74418L89.8066 2.41222ZM90.2768 1.69056C90.0649 1.89121 89.9031 2.13791 89.8066 2.41222L90.7499 2.74419C90.7925 2.62317 90.8651 2.51065 90.9644 2.41663L90.2768 1.69056ZM91.024 1.25256C90.7448 1.34073 90.4886 1.48996 90.2768 1.69056L90.9644 2.41663C91.0637 2.32255 91.187 2.24978 91.3252 2.20615L91.024 1.25256ZM91.8902 1.17845C91.5997 1.13916 91.3033 1.16438 91.024 1.25256L91.3252 2.20615C91.4633 2.16253 91.611 2.1498 91.7561 2.16942L91.8902 1.17845ZM97.1679 1.17393H91.8231V2.17394H97.1679V1.17393ZM97.966 1.25241C97.6871 1.16448 97.3912 1.13929 97.1011 1.17842L97.2348 2.16945C97.3797 2.1499 97.5273 2.16261 97.6653 2.20613L97.966 1.25241ZM98.7124 1.6893C98.5008 1.48922 98.2449 1.34038 97.9661 1.25243L97.6652 2.2061C97.8032 2.24962 97.9263 2.3222 98.0255 2.41602L98.7124 1.6893ZM99.1829 2.40925C99.0861 2.13543 98.9241 1.88936 98.7124 1.6893L98.0255 2.41602C98.1248 2.50986 98.1975 2.62213 98.2402 2.74279L99.1829 2.40925ZM99.2661 3.26223C99.3085 2.97529 99.2799 2.68296 99.1829 2.40901L98.2403 2.74304C98.283 2.86357 98.2953 2.9911 98.2769 3.1162L99.2661 3.26223ZM99.2715 6.73562V3.18922H98.2715V6.73562H99.2715ZM99.1846 7.51582C99.2811 7.24152 99.3093 6.94867 99.2659 6.6611L98.2771 6.81014C98.2959 6.93511 98.2839 7.06285 98.2413 7.18387L99.1846 7.51582ZM98.7144 8.23751C98.9263 8.03686 99.0881 7.79014 99.1846 7.51583L98.2413 7.18386C98.1987 7.30488 98.1261 7.4174 98.0268 7.5114L98.7144 8.23751ZM97.9671 8.6755C98.2464 8.58732 98.5026 8.43807 98.7144 8.23749L98.0268 7.51142C97.9274 7.60551 97.8042 7.67829 97.666 7.72191L97.9671 8.6755ZM97.101 8.74962C97.3915 8.78888 97.6879 8.76369 97.9671 8.6755L97.666 7.72191C97.5279 7.76552 97.3801 7.77826 97.2349 7.75863L97.101 8.74962ZM91.8142 8.75412H97.1679V7.75412H91.8142V8.75412ZM91.015 8.6755C91.2942 8.76369 91.5906 8.78888 91.8811 8.74962L91.7472 7.75863C91.602 7.77826 91.4542 7.76552 91.3161 7.72191L91.015 8.6755ZM90.2677 8.23749C90.4795 8.43808 90.7357 8.58733 91.015 8.6755L91.3161 7.72191C91.1779 7.67829 91.0547 7.60551 90.9553 7.51142L90.2677 8.23749ZM89.7975 7.51583C89.8941 7.79013 90.0558 8.03685 90.2677 8.23751L90.9553 7.5114C90.856 7.41741 90.7834 7.30489 90.7408 7.18386L89.7975 7.51583ZM110.824 0.619279C110.466 0.505048 110.086 0.472342 109.714 0.523417L109.85 1.51414C110.075 1.48327 110.304 1.50314 110.519 1.57184L110.824 0.619279ZM111.777 1.1848C111.508 0.926673 111.181 0.733555 110.824 0.619279L110.519 1.57184C110.734 1.64049 110.928 1.75564 111.085 1.9067L111.777 1.1848ZM112.373 2.11143C112.252 1.75966 112.046 1.4428 111.777 1.18469L111.085 1.90681C111.243 2.05786 111.36 2.23984 111.427 2.43704L112.373 2.11143ZM112.475 3.19973C112.529 2.83455 112.495 2.46112 112.372 2.10964L111.428 2.43884C111.497 2.63634 111.517 2.84694 111.486 3.05459L112.475 3.19973ZM112.372 4.14467C112.495 3.7932 112.529 3.41976 112.475 3.05459L111.486 3.19973C111.517 3.40738 111.497 3.61798 111.428 3.81547L112.372 4.14467ZM111.777 5.06963C112.046 4.81151 112.252 4.49465 112.373 4.14287L111.427 3.81727C111.36 4.01448 111.243 4.19646 111.085 4.34751L111.777 5.06963ZM110.824 5.63503C111.181 5.52075 111.508 5.32764 111.777 5.06953L111.085 4.34761C110.928 4.49867 110.734 4.61382 110.519 4.68247L110.824 5.63503ZM109.714 5.7309C110.086 5.78198 110.466 5.74927 110.824 5.63503L110.519 4.68248C110.304 4.75118 110.075 4.77105 109.85 4.74018L109.714 5.7309ZM102.639 5.73554H109.782V4.73554H102.639V5.73554ZM103.139 8.92857V5.23554H102.139V8.92857H103.139ZM102.089 9.42857H102.639V8.42857H102.089V9.42857ZM101.589 1.02213V8.92857H102.589V1.02213H101.589ZM109.782 0.518777L102.089 0.522134L102.09 1.52213L109.782 1.51878L109.782 0.518777ZM111.814 3.38029C111.854 3.08432 111.829 2.78065 111.734 2.49338L110.785 2.80615C110.83 2.94506 110.844 3.09477 110.823 3.24352L111.814 3.38029ZM111.325 2.8119H111.318V3.8119H111.325V2.8119ZM111.741 4.13172C111.836 3.844 111.861 3.5399 111.82 3.24363L110.83 3.38017C110.85 3.5295 110.837 3.67973 110.791 3.819L111.741 4.13172ZM111.278 4.8925C111.489 4.67808 111.647 4.41726 111.741 4.13125L110.791 3.81946C110.745 3.96042 110.667 4.08743 110.566 4.19085L111.278 4.8925ZM110.525 5.36465C110.809 5.26875 111.067 5.10683 111.278 4.89248L110.566 4.19087C110.464 4.29439 110.34 4.37157 110.205 4.41702L110.525 5.36465ZM109.64 5.44337C109.937 5.48759 110.24 5.46058 110.525 5.36468L110.205 4.417C110.07 4.46246 109.927 4.47514 109.787 4.45427L109.64 5.44337ZM102.75 5.44882H109.713V4.44882H102.75V5.44882ZM102.25 1.67499V4.94882H103.25V1.67499H102.25ZM109.711 1.17499H102.75V2.17499H109.711V1.17499ZM110.522 1.26129C110.238 1.16488 109.936 1.13705 109.639 1.1802L109.783 2.16978C109.923 2.14942 110.066 2.1625 110.2 2.20816L110.522 1.26129ZM111.273 1.73397C111.063 1.5197 110.806 1.35766 110.522 1.26129L110.2 2.20816C110.335 2.25388 110.458 2.33114 110.56 2.43453L111.273 1.73397ZM111.735 2.49428C111.641 2.20857 111.483 1.94815 111.273 1.73397L110.56 2.43453C110.661 2.538 110.738 2.66481 110.784 2.80525L111.735 2.49428Z" fill="white"/>
</svg>
