<svg width="257" height="20" viewBox="0 0 257 20" fill="none" xmlns="http://www.w3.org/2000/svg">
<path fill-rule="evenodd" clip-rule="evenodd" d="M20.7243 1.22669C20.0686 1.01708 19.3711 0.956832 18.687 1.05073L6.08097 1.04303C5.39686 0.949138 4.69936 1.00938 4.04372 1.219C3.38808 1.42861 2.79234 1.78185 2.30368 2.25074C1.81499 2.71959 1.44686 3.29119 1.22837 3.92027C1.0099 4.54935 0.947112 5.21858 1.04497 5.87497V14.3386C0.946898 14.9954 1.00974 15.6652 1.2285 16.2947C1.44726 16.9242 1.81593 17.4962 2.30523 17.9652C2.79453 18.4341 3.39102 18.7872 4.04735 18.9965C4.70366 19.2057 5.40181 19.2653 6.08632 19.1705H18.687C19.3695 19.2624 20.065 19.2008 20.7185 18.9908C21.3721 18.7808 21.9658 18.4281 22.4531 17.9604C22.9403 17.4926 23.3076 16.9227 23.5262 16.2956C23.7447 15.6684 23.8084 15.0011 23.7123 14.3463V9.51432H11.1223V10.7223H22.464V14.3463C22.5372 14.8385 22.4901 15.3404 22.3262 15.8121C22.1622 16.2839 21.8861 16.7125 21.5197 17.0641C21.1532 17.4157 20.7064 17.6807 20.2148 17.838C19.7231 17.9952 19.2001 18.0405 18.687 17.9702H6.08632C5.57326 18.0405 5.0502 17.9952 4.55852 17.838C4.06687 17.6807 3.62012 17.4157 3.25365 17.0641C2.8872 16.7125 2.61108 16.2839 2.44717 15.8121C2.28326 15.3404 2.23605 14.8385 2.30932 14.3463V5.88267C2.23605 5.3904 2.28326 4.88853 2.44717 4.41677C2.61108 3.94504 2.8872 3.5164 3.25365 3.16478C3.62012 2.81315 4.06687 2.54824 4.55852 2.39098C5.0502 2.23371 5.57326 2.18841 6.08632 2.25871H18.687C19.1995 2.18975 19.7216 2.23601 20.2122 2.39387C20.7028 2.55173 21.1485 2.81685 21.514 3.16829C21.8795 3.51974 22.1549 3.94792 22.3184 4.41898C22.4818 4.89004 22.5289 5.39111 22.456 5.88267H23.723C23.8209 5.22628 23.7581 4.55704 23.5396 3.92796C23.3211 3.29889 22.953 2.72729 22.4643 2.25843C21.9756 1.78955 21.3799 1.43631 20.7243 1.22669ZM49.5562 1.2195C48.899 1.0094 48.2001 0.949023 47.5143 1.04313L29.8386 1.05341V19.2143H31.1004V10.7315H47.5089C48.0233 10.661 48.5475 10.7064 49.0402 10.8641C49.5328 11.0217 49.9808 11.2872 50.348 11.6396C50.7153 11.992 50.9921 12.4217 51.1563 12.8945C51.3205 13.3673 51.3679 13.8703 51.2942 14.3637V19.2066H52.5614V14.3637C52.6672 13.5378 52.5247 12.7003 52.1512 11.9494C51.7778 11.1985 51.1887 10.5655 50.4531 10.1249C51.1887 9.68418 51.7778 9.05121 52.1512 8.30033C52.5247 7.54945 52.6672 6.71184 52.5614 5.88603C52.6597 5.22815 52.5967 4.55739 52.3776 3.92689C52.1587 3.29639 51.7899 2.72349 51.3001 2.25357C50.8102 1.78363 50.2133 1.42959 49.5562 1.2195ZM51.057 6.31244C51.1289 5.80157 51.0826 5.28075 50.9224 4.79117C50.7622 4.30161 50.4923 3.85678 50.134 3.49187C49.7757 3.12696 49.3387 2.85204 48.8581 2.68883C48.3776 2.52562 47.8661 2.47861 47.3644 2.55157H31.3578V10.0733H47.3591C47.8612 10.1472 48.3734 10.1009 48.8545 9.93808C49.3359 9.77527 49.7733 9.50046 50.1324 9.13544C50.4912 8.77043 50.7617 8.32524 50.9221 7.83521C51.0829 7.34521 51.1289 6.82382 51.057 6.31244ZM61.7251 18.9953C62.3812 19.2049 63.0791 19.2651 63.7636 19.1712H76.3625C77.0473 19.2651 77.7452 19.2049 78.4013 18.9953C79.0575 18.7856 79.6535 18.4324 80.1427 17.9635C80.6317 17.4946 81 16.923 81.2186 16.2939C81.4374 15.6648 81.5002 14.9955 81.4021 14.3391V5.87517C81.5002 5.21876 81.4374 4.54949 81.2186 3.92039C81 3.29129 80.6317 2.71966 80.1427 2.25079C79.6535 1.78188 79.0575 1.42863 78.4013 1.21901C77.7452 1.00938 77.0473 0.949136 76.3625 1.04303H63.7636C63.0791 0.949136 62.3812 1.00938 61.7251 1.21901C61.0689 1.42863 60.4729 1.78188 59.9837 2.25079C59.4947 2.71966 59.1264 3.29129 58.9078 3.92039C58.689 4.54949 58.6262 5.21876 58.7241 5.87517V14.3391C58.6262 14.9955 58.689 15.6648 58.9078 16.2939C59.1264 16.923 59.4947 17.4946 59.9837 17.9635C60.4729 18.4324 61.0689 18.7856 61.7251 18.9953ZM60.2291 14.1791C60.1576 14.6527 60.2038 15.1356 60.3638 15.5894C60.5238 16.0433 60.7933 16.4557 61.1511 16.794C61.5089 17.1323 61.9453 17.3872 62.4252 17.5386C62.9051 17.6899 63.4158 17.7334 63.9166 17.6658H76.2082C76.7093 17.7334 77.22 17.6899 77.6999 17.5386C78.1798 17.3872 78.6162 17.1323 78.974 16.794C79.3318 16.4557 79.6013 16.0433 79.7613 15.5894C79.9213 15.1356 79.9675 14.6527 79.8957 14.1791V6.03589C79.9675 5.56226 79.9213 5.07939 79.7613 4.6255C79.6013 4.17163 79.3318 3.75921 78.974 3.4209C78.6162 3.08259 78.1798 2.82771 77.6999 2.67639C77.22 2.52508 76.7093 2.4815 76.2082 2.54914H63.9166C63.4158 2.4815 62.9051 2.52508 62.4252 2.67639C61.9453 2.82771 61.5089 3.08259 61.1511 3.4209C60.7933 3.75921 60.5238 4.17163 60.3638 4.6255C60.2038 5.07939 60.1576 5.56226 60.2291 6.03589V14.1791ZM108.981 1V14.3255C109.054 14.8192 109.007 15.3225 108.843 15.7955C108.679 16.2686 108.403 16.6985 108.036 17.0511C107.669 17.4037 107.222 17.6694 106.73 17.8271C106.238 17.9848 105.715 18.0302 105.201 17.9597H92.6022C92.0889 18.0302 91.5654 17.9848 91.0735 17.8271C90.5816 17.6694 90.1344 17.4037 89.7676 17.0511C89.4009 16.6985 89.1246 16.2686 88.9606 15.7955C88.7966 15.3225 88.7493 14.8192 88.8229 14.3255V1H87.5627V14.3255C87.4648 14.9837 87.5277 15.6549 87.7465 16.2857C87.965 16.9166 88.3334 17.4898 88.8223 17.96C89.3116 18.4302 89.9075 18.7844 90.5637 18.9946C91.2198 19.2049 91.9177 19.2653 92.6022 19.1711H105.201C105.886 19.2653 106.584 19.2049 107.24 18.9946C107.896 18.7844 108.492 18.4302 108.981 17.96C109.47 17.4898 109.839 16.9166 110.057 16.2857C110.276 15.6549 110.339 14.9837 110.241 14.3255V1H108.981ZM135.549 1.04314C136.235 0.949016 136.934 1.00941 137.592 1.21953C138.249 1.42965 138.846 1.78374 139.336 2.25375C139.826 2.72374 140.195 3.29671 140.414 3.9273C140.634 4.5579 140.697 5.22875 140.599 5.88672C140.697 6.54469 140.634 7.21554 140.414 7.84611C140.195 8.4767 139.826 9.0497 139.336 9.51969C138.846 9.98968 138.249 10.3438 137.592 10.5539C136.934 10.764 136.235 10.8244 135.549 10.7303H119.138V19.2143H117.876V1.05085L135.549 1.04314ZM138.955 4.79129C139.115 5.28089 139.161 5.80174 139.089 6.31264H139.092C139.164 6.82378 139.118 7.34493 138.957 7.83475C138.797 8.32456 138.527 8.76958 138.168 9.13456C137.81 9.49955 137.372 9.77443 136.891 9.93746C136.41 10.1005 135.898 10.1471 135.397 10.0737H119.393V2.55157H135.397C135.898 2.47861 136.41 2.52562 136.89 2.68884C137.371 2.85206 137.808 3.12699 138.166 3.49192C138.525 3.85685 138.795 4.30171 138.955 4.79129ZM151.799 19.1712C151.115 19.2652 150.417 19.2049 149.76 18.9952C149.104 18.7854 148.508 18.432 148.019 17.963C147.53 17.4939 147.161 16.922 146.943 16.2927C146.724 15.6633 146.661 14.9937 146.759 14.3371H148.019C147.946 14.8296 147.993 15.3317 148.157 15.8036C148.321 16.2755 148.598 16.7044 148.964 17.0562C149.331 17.408 149.778 17.673 150.27 17.8304C150.762 17.9877 151.286 18.033 151.799 17.9627H164.4C164.913 18.033 165.437 17.9877 165.929 17.8304C166.421 17.673 166.868 17.408 167.235 17.0562C167.602 16.7044 167.878 16.2755 168.042 15.8036C168.206 15.3317 168.253 14.8296 168.18 14.3371C168.253 13.8446 168.206 13.3425 168.042 12.8705C167.878 12.3985 167.602 11.9697 167.235 11.6179C166.868 11.2661 166.421 11.0011 165.929 10.8437C165.437 10.6864 164.913 10.6411 164.4 10.7114H151.799C151.115 10.8054 150.417 10.7451 149.76 10.5353C149.104 10.3256 148.508 9.97223 148.019 9.50315C147.53 9.03408 147.161 8.46219 146.943 7.83282C146.724 7.20348 146.661 6.53393 146.759 5.87723C146.661 5.22054 146.724 4.55099 146.943 3.92162C147.161 3.29226 147.53 2.72039 148.019 2.25132C148.508 1.78222 149.104 1.42881 149.76 1.2191C150.417 1.00939 151.115 0.949115 151.799 1.04305H164.4C165.084 0.949551 165.782 1.01016 166.438 1.22008C167.094 1.42999 167.69 1.78345 168.178 2.25247C168.667 2.72149 169.035 3.29323 169.254 3.92237C169.472 4.55148 169.535 5.22077 169.437 5.87723H168.177C168.251 5.38473 168.203 4.88263 168.039 4.41066C167.875 3.93871 167.599 3.50987 167.232 3.15808C166.865 2.8063 166.418 2.54126 165.926 2.38392C165.434 2.22658 164.911 2.18127 164.397 2.2516H151.797C151.283 2.18127 150.76 2.22658 150.268 2.38392C149.776 2.54126 149.328 2.8063 148.962 3.15808C148.595 3.50987 148.319 3.93871 148.155 4.41066C147.991 4.88263 147.943 5.38473 148.017 5.87723C147.943 6.36974 147.991 6.87183 148.155 7.34378C148.319 7.81573 148.595 8.2446 148.962 8.59636C149.328 8.94815 149.776 9.2132 150.268 9.37055C150.76 9.52789 151.283 9.57318 151.797 9.50287H164.397C165.082 9.40893 165.78 9.46921 166.436 9.67892C167.092 9.88866 167.688 10.242 168.178 10.7111C168.667 11.1802 169.035 11.7521 169.254 12.3814C169.472 13.0108 169.535 13.6804 169.437 14.3371C169.535 14.9937 169.472 15.6633 169.254 16.2927C169.035 16.922 168.667 17.4939 168.178 17.963C167.688 18.432 167.092 18.7854 166.436 18.9952C165.78 19.2049 165.082 19.2652 164.397 19.1712H151.799ZM176.818 19.2143V10.7066H197.056V19.2143H198.321V1H197.056V9.50773H176.818V1H175.553V19.2143H176.818ZM209.469 19.1712C208.785 19.2643 208.089 19.2033 207.433 18.9933C206.778 18.7833 206.183 18.4299 205.696 17.9611C205.208 17.4924 204.84 16.9211 204.622 16.2924C204.403 15.6638 204.341 14.995 204.439 14.3391V5.87517C204.34 5.21876 204.403 4.54949 204.622 3.92039C204.84 3.29129 205.208 2.71966 205.697 2.25079C206.186 1.78188 206.781 1.42863 207.437 1.21901C208.093 1.00938 208.79 0.949136 209.475 1.04303H222.08C222.765 0.949136 223.462 1.00938 224.118 1.21901C224.773 1.42863 225.369 1.78188 225.858 2.25079C226.346 2.71966 226.715 3.29129 226.933 3.92039C227.152 4.54949 227.214 5.21876 227.117 5.87517V14.3391C227.214 14.9955 227.152 15.6648 226.933 16.2939C226.715 16.923 226.346 17.4946 225.858 17.9635C225.369 18.4324 224.773 18.7856 224.118 18.9953C223.462 19.2049 222.765 19.2651 222.08 19.1712H209.469ZM206.078 15.5884C205.918 15.1343 205.872 14.6512 205.944 14.1773L205.964 6.03761C205.893 5.56374 205.939 5.08064 206.099 4.62652C206.258 4.17243 206.528 3.75982 206.885 3.42134C207.243 3.08286 207.678 2.82786 208.158 2.67647C208.637 2.52508 209.147 2.48148 209.648 2.54915H221.926C222.426 2.48175 222.936 2.52528 223.414 2.67627C223.893 2.82727 224.328 3.0816 224.686 3.41919C225.043 3.75678 225.312 4.16838 225.473 4.62151C225.633 5.07464 225.68 5.5569 225.61 6.0302V14.1773C225.682 14.6512 225.635 15.1343 225.476 15.5884C225.316 16.0425 225.047 16.4551 224.689 16.7936C224.332 17.1321 223.896 17.3871 223.416 17.5385C222.937 17.6899 222.427 17.7334 221.926 17.6658H209.627C209.127 17.7334 208.616 17.6899 208.137 17.5385C207.658 17.3871 207.222 17.1321 206.864 16.7936C206.507 16.4551 206.238 16.0425 206.078 15.5884ZM250.905 1.04314C251.591 0.949016 252.29 1.00941 252.948 1.21953C253.605 1.42965 254.203 1.78374 254.693 2.25375C255.184 2.72374 255.554 3.29671 255.771 3.9273C255.991 4.5579 256.052 5.22875 255.956 5.88672C256.052 6.54469 255.991 7.21554 255.771 7.84611C255.554 8.4767 255.184 9.0497 254.693 9.51969C254.203 9.98968 253.605 10.3438 252.948 10.5539C252.29 10.764 251.591 10.8244 250.905 10.7303H234.495V19.2143H233.232V1.05085L250.905 1.04314ZM254.298 4.79093C254.46 5.28046 254.504 5.80123 254.433 6.31205H254.449C254.52 6.82388 254.475 7.34575 254.314 7.83621C254.153 8.32664 253.882 8.77212 253.523 9.13721C253.163 9.50232 252.725 9.77697 252.243 9.93934C251.761 10.1017 251.249 10.1473 250.747 10.0725H234.749V2.55157H250.741C251.243 2.47862 251.754 2.52562 252.235 2.68881C252.715 2.85201 253.152 3.1269 253.51 3.49177C253.868 3.85664 254.138 4.30143 254.298 4.79093Z" fill="white"/>
<path d="M18.687 1.05073L18.6867 1.55073L18.721 1.55075L18.755 1.54608L18.687 1.05073ZM20.7243 1.22669L20.8765 0.750442L20.8765 0.75044L20.7243 1.22669ZM6.08097 1.04303L6.01298 1.53839L6.04667 1.54301L6.08067 1.54303L6.08097 1.04303ZM4.04372 1.219L3.89145 0.742746H3.89145L4.04372 1.219ZM2.30368 2.25074L2.64984 2.61153L2.64986 2.61151L2.30368 2.25074ZM1.22837 3.92027L0.756047 3.75622L0.756041 3.75624L1.22837 3.92027ZM1.04497 5.87497H1.54497V5.83791L1.53951 5.80125L1.04497 5.87497ZM1.04497 14.3386L1.53949 14.4124L1.54497 14.3757V14.3386H1.04497ZM2.30523 17.9652L1.95925 18.3261L1.95926 18.3261L2.30523 17.9652ZM4.04735 18.9965L4.19922 18.5201L4.19922 18.5201L4.04735 18.9965ZM6.08632 19.1705V18.6705H6.05187L6.01775 18.6752L6.08632 19.1705ZM18.687 19.1705L18.7537 18.675L18.7205 18.6705H18.687V19.1705ZM20.7185 18.9908L20.5656 18.5148L20.5656 18.5148L20.7185 18.9908ZM22.4531 17.9604L22.7993 18.3211L22.7993 18.3211L22.4531 17.9604ZM23.5262 16.2956L23.9983 16.4601L23.9983 16.4601L23.5262 16.2956ZM23.7123 14.3463H23.2123V14.3828L23.2176 14.4189L23.7123 14.3463ZM23.7123 9.51432H24.2123V9.01432H23.7123V9.51432ZM11.1223 9.51432V9.01432H10.6223V9.51432H11.1223ZM11.1223 10.7223H10.6223V11.2223H11.1223V10.7223ZM22.464 10.7223H22.964V10.2223H22.464V10.7223ZM22.464 14.3463H21.964V14.3833L21.9694 14.4198L22.464 14.3463ZM22.3262 15.8121L21.8539 15.648L22.3262 15.8121ZM21.5197 17.0641L21.1735 16.7033L21.1735 16.7034L21.5197 17.0641ZM18.687 17.9702L18.7549 17.4748L18.7211 17.4702H18.687V17.9702ZM6.08632 17.9702V17.4702H6.05224L6.01847 17.4748L6.08632 17.9702ZM4.55852 17.838L4.40618 18.3142L4.40619 18.3142L4.55852 17.838ZM3.25365 17.0641L3.59982 16.7033H3.59982L3.25365 17.0641ZM2.44717 15.8121L2.91947 15.648H2.91947L2.44717 15.8121ZM2.30932 14.3463L2.80387 14.4199L2.80932 14.3833V14.3463H2.30932ZM2.30932 5.88267H2.80932V5.84566L2.80387 5.80906L2.30932 5.88267ZM2.44717 4.41677L1.97487 4.25267L1.97486 4.25267L2.44717 4.41677ZM3.25365 3.16478L2.90748 2.80399L2.90747 2.804L3.25365 3.16478ZM4.55852 2.39098L4.40619 1.91474L4.40618 1.91475L4.55852 2.39098ZM6.08632 2.25871L6.01844 2.75408L6.05222 2.75871H6.08632V2.25871ZM18.687 2.25871V2.75871H18.7205L18.7537 2.75425L18.687 2.25871ZM20.2122 2.39387L20.3654 1.91791L20.3654 1.9179L20.2122 2.39387ZM21.514 3.16829L21.8605 2.80787V2.80787L21.514 3.16829ZM22.3184 4.41898L21.846 4.58291L22.3184 4.41898ZM22.456 5.88267L21.9614 5.80927L21.8763 6.38267H22.456V5.88267ZM23.723 5.88267V6.38267H24.154L24.2175 5.9564L23.723 5.88267ZM23.5396 3.92796L23.0673 4.092L23.0673 4.09201L23.5396 3.92796ZM22.4643 2.25843L22.1181 2.61921L22.1181 2.61922L22.4643 2.25843ZM47.5143 1.04313L47.5146 1.54313L47.5486 1.54311L47.5822 1.53849L47.5143 1.04313ZM49.5562 1.2195L49.4039 1.69575L49.5562 1.2195ZM29.8386 1.05341L29.8383 0.553413L29.3386 0.553703V1.05341H29.8386ZM29.8386 19.2143H29.3386V19.7143H29.8386V19.2143ZM31.1004 19.2143V19.7143H31.6004V19.2143H31.1004ZM31.1004 10.7315V10.2315H30.6004V10.7315H31.1004ZM47.5089 10.7315V11.2315H47.543L47.5768 11.2269L47.5089 10.7315ZM49.0402 10.8641L49.1926 10.3878L49.0402 10.8641ZM50.348 11.6396L50.0019 12.0004L50.348 11.6396ZM51.1563 12.8945L51.6286 12.7304L51.6286 12.7304L51.1563 12.8945ZM51.2942 14.3637L50.7997 14.2898L50.7942 14.3266V14.3637H51.2942ZM51.2942 19.2066H50.7942V19.7066H51.2942V19.2066ZM52.5614 19.2066V19.7066H53.0614V19.2066H52.5614ZM52.5614 14.3637L52.0654 14.3001L52.0614 14.3318V14.3637H52.5614ZM52.1512 11.9494L51.7035 12.172L51.7035 12.172L52.1512 11.9494ZM50.4531 10.1249L50.1961 9.69592L49.4801 10.1249L50.1961 10.5538L50.4531 10.1249ZM52.5614 5.88603L52.0669 5.81213L52.0566 5.88075L52.0654 5.94958L52.5614 5.88603ZM52.3776 3.92689L51.9053 4.09086L51.9053 4.09104L52.3776 3.92689ZM51.3001 2.25357L51.6463 1.8928L51.6462 1.89272L51.3001 2.25357ZM50.9224 4.79117L51.3976 4.63567L51.3976 4.63566L50.9224 4.79117ZM51.057 6.31244L50.5619 6.24279L50.5521 6.31241L50.5619 6.38203L51.057 6.31244ZM50.134 3.49187L49.7772 3.84217L49.7772 3.84217L50.134 3.49187ZM48.8581 2.68883L48.6974 3.16227L48.6974 3.16227L48.8581 2.68883ZM47.3644 2.55157V3.05157H47.4005L47.4363 3.04637L47.3644 2.55157ZM31.3578 2.55157V2.05157H30.8578V2.55157H31.3578ZM31.3578 10.0733H30.8578V10.5733H31.3578V10.0733ZM47.3591 10.0733L47.4319 9.57864L47.3957 9.57332H47.3591V10.0733ZM48.8545 9.93808L48.6943 9.46444L48.6942 9.46446L48.8545 9.93808ZM50.1324 9.13544L50.4888 9.48608L50.489 9.48595L50.1324 9.13544ZM50.9221 7.83521L50.447 7.67938L50.447 7.67962L50.9221 7.83521ZM63.7636 19.1712V18.6712H63.7295L63.6957 18.6759L63.7636 19.1712ZM61.7251 18.9953L61.8773 18.519L61.8772 18.519L61.7251 18.9953ZM76.3625 19.1712L76.4304 18.6759L76.3966 18.6712H76.3625V19.1712ZM78.4013 18.9953L78.2492 18.519L78.2492 18.519L78.4013 18.9953ZM80.1427 17.9635L80.4887 18.3245L80.4888 18.3244L80.1427 17.9635ZM81.2186 16.2939L80.7463 16.1296L80.7462 16.1298L81.2186 16.2939ZM81.4021 14.3391H80.9021V14.3763L80.9076 14.4131L81.4021 14.3391ZM81.4021 5.87517L80.9076 5.80122L80.9021 5.83799V5.87517H81.4021ZM81.2186 3.92039L80.7462 4.08446L80.7463 4.08464L81.2186 3.92039ZM80.1427 2.25079L80.4888 1.88989L80.4887 1.88981L80.1427 2.25079ZM78.4013 1.21901L78.2492 1.69529L78.4013 1.21901ZM76.3625 1.04303V1.54303H76.3966L76.4304 1.5384L76.3625 1.04303ZM63.7636 1.04303L63.6957 1.5384L63.7295 1.54303H63.7636V1.04303ZM61.7251 1.21901L61.8772 1.69529L61.7251 1.21901ZM59.9837 2.25079L59.6377 1.88981L59.6376 1.88989L59.9837 2.25079ZM58.9078 3.92039L59.3801 4.08464L59.3802 4.08446L58.9078 3.92039ZM58.7241 5.87517H59.2241V5.83809L59.2186 5.80141L58.7241 5.87517ZM58.7241 14.3391L59.2186 14.4129L59.2241 14.3762V14.3391H58.7241ZM58.9078 16.2939L59.3802 16.1298L59.3801 16.1296L58.9078 16.2939ZM59.9837 17.9635L59.6376 18.3244L59.6377 18.3245L59.9837 17.9635ZM60.3638 15.5894L60.8353 15.4232L60.3638 15.5894ZM60.2291 14.1791L60.7235 14.2537L60.7291 14.2166V14.1791H60.2291ZM61.1511 16.794L61.4947 16.4307L61.4946 16.4307L61.1511 16.794ZM62.4252 17.5386L62.5755 17.0617L62.4252 17.5386ZM63.9166 17.6658V17.1658H63.883L63.8497 17.1703L63.9166 17.6658ZM76.2082 17.6658L76.2751 17.1703L76.2418 17.1658H76.2082V17.6658ZM77.6999 17.5386L77.5496 17.0617L77.6999 17.5386ZM78.974 16.794L78.6305 16.4307L78.6304 16.4307L78.974 16.794ZM79.7613 15.5894L79.2897 15.4232L79.7613 15.5894ZM79.8957 14.1791H79.3957V14.2167L79.4014 14.254L79.8957 14.1791ZM79.8957 6.03589L79.4014 5.96098L79.3957 5.99823V6.03589H79.8957ZM79.7613 4.6255L80.2329 4.45929V4.45929L79.7613 4.6255ZM77.6999 2.67639L77.8503 2.19953L77.6999 2.67639ZM76.2082 2.54914V3.04914H76.2418L76.2751 3.04464L76.2082 2.54914ZM63.9166 2.54914L63.8497 3.04464L63.883 3.04914H63.9166V2.54914ZM62.4252 2.67639L62.2748 2.19953V2.19953L62.4252 2.67639ZM60.3638 4.6255L59.8922 4.45929L59.8922 4.45929L60.3638 4.6255ZM60.2291 6.03589H60.7291V5.99836L60.7235 5.96125L60.2291 6.03589ZM108.981 14.3255H108.481V14.3625L108.486 14.3992L108.981 14.3255ZM108.981 1V0.5H108.481V1H108.981ZM108.843 15.7955L108.371 15.6318L108.843 15.7955ZM108.036 17.0511L107.689 16.6906L107.689 16.6906L108.036 17.0511ZM106.73 17.8271L106.883 18.3032H106.883L106.73 17.8271ZM105.201 17.9597L105.269 17.4644L105.235 17.4597H105.201V17.9597ZM92.6022 17.9597V17.4597H92.5681L92.5342 17.4644L92.6022 17.9597ZM89.7676 17.0511L90.1142 16.6906L90.1142 16.6906L89.7676 17.0511ZM88.9606 15.7955L88.4882 15.9593V15.9593L88.9606 15.7955ZM88.8229 14.3255L89.3174 14.3992L89.3229 14.3625V14.3255H88.8229ZM88.8229 1H89.3229V0.5H88.8229V1ZM87.5627 1V0.5H87.0627V1H87.5627ZM87.5627 14.3255L88.0573 14.3991L88.0627 14.3625V14.3255H87.5627ZM87.7465 16.2857L88.2189 16.1221L88.2189 16.1219L87.7465 16.2857ZM88.8223 17.96L88.4758 18.3204L88.4759 18.3205L88.8223 17.96ZM90.5637 18.9946L90.7162 18.5185L90.7162 18.5185L90.5637 18.9946ZM92.6022 19.1711V18.6711H92.568L92.5341 18.6758L92.6022 19.1711ZM105.201 19.1711L105.269 18.6758L105.236 18.6711H105.201V19.1711ZM107.24 18.9946L107.087 18.5185L107.087 18.5185L107.24 18.9946ZM108.981 17.96L109.328 18.3205L109.328 18.3204L108.981 17.96ZM110.057 16.2857L109.585 16.1219L109.585 16.1221L110.057 16.2857ZM110.241 14.3255H109.741V14.3625L109.746 14.3991L110.241 14.3255ZM110.241 1H110.741V0.5H110.241V1ZM137.592 1.21953L137.439 1.69579L137.439 1.69579L137.592 1.21953ZM135.549 1.04314L135.549 1.54314L135.583 1.54312L135.617 1.53849L135.549 1.04314ZM139.336 2.25375L139.683 1.89292L139.683 1.89284L139.336 2.25375ZM140.414 3.9273L139.942 4.09133L139.942 4.0915L140.414 3.9273ZM140.599 5.88672L140.104 5.81299L140.093 5.88672L140.104 5.96045L140.599 5.88672ZM140.414 7.84611L139.942 7.68191L139.942 7.68209L140.414 7.84611ZM139.336 9.51969L139.683 9.88061L139.683 9.88052L139.336 9.51969ZM137.592 10.5539L137.439 10.0776L137.439 10.0776L137.592 10.5539ZM135.549 10.7303L135.617 10.2349L135.583 10.2303H135.549V10.7303ZM119.138 10.7303V10.2303H118.638V10.7303H119.138ZM119.138 19.2143V19.7143H119.638V19.2143H119.138ZM117.876 19.2143H117.376V19.7143H117.876V19.2143ZM117.876 1.05085L117.875 0.550849L117.376 0.551067V1.05085H117.876ZM139.089 6.31264L138.594 6.24299L138.514 6.81264H139.089V6.31264ZM138.955 4.79129L139.43 4.63578V4.63577L138.955 4.79129ZM139.092 6.31264L139.587 6.24301L139.527 5.81264H139.092V6.31264ZM138.957 7.83475L139.433 7.99043L139.433 7.99019L138.957 7.83475ZM138.168 9.13456L137.811 8.78414V8.78414L138.168 9.13456ZM136.891 9.93746L136.731 9.4639L136.731 9.46392L136.891 9.93746ZM135.397 10.0737L135.469 9.57898L135.433 9.57371H135.397V10.0737ZM119.393 10.0737H118.893V10.5737H119.393V10.0737ZM119.393 2.55157V2.05157H118.893V2.55157H119.393ZM135.397 2.55157V3.05157H135.433L135.469 3.04636L135.397 2.55157ZM136.89 2.68884L137.051 2.21539V2.21539L136.89 2.68884ZM138.166 3.49192L138.523 3.1416L138.523 3.14159L138.166 3.49192ZM149.76 18.9952L149.913 18.5189L149.913 18.5189L149.76 18.9952ZM151.799 19.1712V18.6712H151.765L151.731 18.6759L151.799 19.1712ZM148.019 17.963L147.673 18.3238L147.673 18.3239L148.019 17.963ZM146.943 16.2927L147.415 16.1286L147.415 16.1284L146.943 16.2927ZM146.759 14.3371V13.8371H146.328L146.265 14.2633L146.759 14.3371ZM148.019 14.3371L148.514 14.4109L148.6 13.8371H148.019V14.3371ZM148.157 15.8036L147.685 15.9677L147.685 15.9677L148.157 15.8036ZM148.964 17.0562L149.31 16.6953L149.31 16.6953L148.964 17.0562ZM151.799 17.9627V17.4627H151.765L151.731 17.4673L151.799 17.9627ZM164.4 17.9627L164.468 17.4673L164.434 17.4627H164.4V17.9627ZM165.929 17.8304L166.081 18.3066L166.081 18.3066L165.929 17.8304ZM167.235 17.0562L166.889 16.6953L166.889 16.6953L167.235 17.0562ZM168.042 15.8036L167.57 15.6395L167.57 15.6395L168.042 15.8036ZM168.18 14.3371L167.685 14.2634L167.674 14.3371L167.685 14.4107L168.18 14.3371ZM168.042 12.8705L167.57 13.0346V13.0346L168.042 12.8705ZM167.235 11.6179L167.581 11.2571L167.581 11.257L167.235 11.6179ZM165.929 10.8437L166.081 10.3675L166.081 10.3675L165.929 10.8437ZM164.4 10.7114V11.2114H164.434L164.468 11.2068L164.4 10.7114ZM151.799 10.7114V10.2114H151.765L151.731 10.2161L151.799 10.7114ZM149.76 10.5353L149.913 10.0591L149.913 10.0591L149.76 10.5353ZM148.019 9.50315L147.673 9.86399L147.673 9.86409L148.019 9.50315ZM146.943 7.83282L147.415 7.66879L147.415 7.6686L146.943 7.83282ZM146.759 5.87723L147.254 5.95097L147.265 5.87723L147.254 5.8035L146.759 5.87723ZM146.943 3.92162L147.415 4.08584L147.415 4.08565L146.943 3.92162ZM148.019 2.25132L147.673 1.89039L147.673 1.89048L148.019 2.25132ZM149.76 1.2191L149.913 1.69537L149.76 1.2191ZM151.799 1.04305L151.731 1.53841L151.765 1.54305H151.799V1.04305ZM164.4 1.04305V1.54305H164.434L164.468 1.53845L164.4 1.04305ZM166.438 1.22008L166.59 0.743883L166.59 0.743864L166.438 1.22008ZM168.178 2.25247L168.525 1.8918L168.525 1.8917L168.178 2.25247ZM169.254 3.92237L169.726 3.75845L169.726 3.75828L169.254 3.92237ZM169.437 5.87723V6.37723H169.868L169.932 5.951L169.437 5.87723ZM168.177 5.87723L167.683 5.80337L167.597 6.37723H168.177V5.87723ZM168.039 4.41066L168.512 4.24656V4.24655L168.039 4.41066ZM167.232 3.15808L166.886 3.51893L167.232 3.15808ZM164.397 2.2516V2.7516H164.431L164.465 2.74697L164.397 2.2516ZM151.797 2.2516L151.729 2.74697L151.763 2.7516H151.797V2.2516ZM150.268 2.38392L150.115 1.90768L150.115 1.90768L150.268 2.38392ZM148.962 3.15808L149.308 3.51893L148.962 3.15808ZM148.155 4.41066L147.682 4.24655V4.24656L148.155 4.41066ZM148.017 5.87723L148.511 5.95111L148.522 5.87723L148.511 5.80336L148.017 5.87723ZM148.962 8.59636L149.308 8.23551L149.308 8.2355L148.962 8.59636ZM150.268 9.37055L150.115 9.84678L150.115 9.84679L150.268 9.37055ZM151.797 9.50287V9.00287H151.763L151.729 9.00749L151.797 9.50287ZM164.397 9.50287V10.0029H164.431L164.465 9.99823L164.397 9.50287ZM166.436 9.67892L166.588 9.20265L166.588 9.20265L166.436 9.67892ZM168.178 10.7111L168.524 10.3503L168.524 10.3502L168.178 10.7111ZM169.254 12.3814L168.781 12.5455L168.781 12.5456L169.254 12.3814ZM169.437 14.3371L168.943 14.2631L168.932 14.3371L168.943 14.411L169.437 14.3371ZM169.254 16.2927L168.781 16.1285L168.781 16.1286L169.254 16.2927ZM168.178 17.963L168.524 18.3239L168.524 18.3238L168.178 17.963ZM166.436 18.9952L166.284 18.5189L166.284 18.5189L166.436 18.9952ZM164.397 19.1712L164.465 18.6759L164.431 18.6712H164.397V19.1712ZM176.818 10.7066V10.2066H176.318V10.7066H176.818ZM176.818 19.2143V19.7143H177.318V19.2143H176.818ZM197.056 10.7066H197.556V10.2066H197.056V10.7066ZM197.056 19.2143H196.556V19.7143H197.056V19.2143ZM198.321 19.2143V19.7143H198.821V19.2143H198.321ZM198.321 1H198.821V0.5H198.321V1ZM197.056 1V0.5H196.556V1H197.056ZM197.056 9.50773V10.0077H197.556V9.50773H197.056ZM176.818 9.50773H176.318V10.0077H176.818V9.50773ZM176.818 1H177.318V0.5H176.818V1ZM175.553 1V0.5H175.053V1H175.553ZM175.553 19.2143H175.053V19.7143H175.553V19.2143ZM207.433 18.9933L207.281 19.4694L207.281 19.4695L207.433 18.9933ZM209.469 19.1712V18.6712H209.435L209.402 18.6758L209.469 19.1712ZM205.696 17.9611L206.042 17.6006L206.042 17.6005L205.696 17.9611ZM204.622 16.2924L204.149 16.4563L204.149 16.4563L204.622 16.2924ZM204.439 14.3391L204.933 14.4129L204.939 14.3762V14.3391H204.439ZM204.439 5.87517H204.939V5.83802L204.933 5.80127L204.439 5.87517ZM204.622 3.92039L205.094 4.08453L205.094 4.08437L204.622 3.92039ZM205.697 2.25079L205.351 1.88993L205.351 1.89002L205.697 2.25079ZM207.437 1.21901L207.589 1.69526L207.437 1.21901ZM209.475 1.04303L209.407 1.53839L209.44 1.54303H209.475V1.04303ZM222.08 1.04303V1.54303H222.114L222.148 1.53839L222.08 1.04303ZM224.118 1.21901L223.965 1.69526V1.69526L224.118 1.21901ZM225.858 2.25079L226.204 1.89002L226.204 1.88993L225.858 2.25079ZM226.933 3.92039L226.461 4.08436L226.461 4.08454L226.933 3.92039ZM227.117 5.87517L226.622 5.80147L226.617 5.83812V5.87517H227.117ZM227.117 14.3391H226.617V14.3762L226.622 14.4128L227.117 14.3391ZM226.933 16.2939L226.461 16.1297L226.461 16.1299L226.933 16.2939ZM225.858 17.9635L226.204 18.3244L226.204 18.3243L225.858 17.9635ZM224.118 18.9953L223.965 18.519L223.965 18.519L224.118 18.9953ZM222.08 19.1712L222.148 18.6759L222.114 18.6712H222.08V19.1712ZM205.944 14.1773L206.438 14.2521L206.443 14.2156L206.444 14.1786L205.944 14.1773ZM205.964 6.03761L206.464 6.03887L206.464 6.00077L206.459 5.96309L205.964 6.03761ZM206.099 4.62652L205.627 4.46054V4.46055L206.099 4.62652ZM206.885 3.42134L207.229 3.78438L206.885 3.42134ZM208.158 2.67647L208.308 3.15326V3.15326L208.158 2.67647ZM209.648 2.54915L209.581 3.04464L209.614 3.04915H209.648V2.54915ZM221.926 2.54915V3.04915H221.96L221.993 3.04467L221.926 2.54915ZM223.414 2.67627L223.565 2.19944L223.565 2.19941L223.414 2.67627ZM224.686 3.41919L224.342 3.78256L224.686 3.41919ZM225.473 4.62151L225.001 4.78829L225.001 4.78853L225.473 4.62151ZM225.61 6.0302L225.116 5.95718L225.11 5.9935V6.0302H225.61ZM225.61 14.1773H225.11V14.2148L225.116 14.2519L225.61 14.1773ZM224.689 16.7936L224.345 16.4305L224.345 16.4306L224.689 16.7936ZM221.926 17.6658L221.993 17.1703L221.96 17.1658H221.926V17.6658ZM209.627 17.6658V17.1658H209.594L209.56 17.1703L209.627 17.6658ZM206.864 16.7936L207.208 16.4306L207.208 16.4305L206.864 16.7936ZM252.948 1.21953L252.796 1.69581V1.69581L252.948 1.21953ZM250.905 1.04314L250.905 1.54314L250.939 1.54312L250.973 1.5385L250.905 1.04314ZM254.693 2.25375L254.347 2.61471L254.347 2.61481L254.693 2.25375ZM255.771 3.9273L255.298 4.09011L255.299 4.0919L255.771 3.9273ZM255.956 5.88672L255.461 5.81416L255.45 5.88672L255.461 5.95928L255.956 5.88672ZM255.771 7.84611L255.299 7.68151L255.298 7.6833L255.771 7.84611ZM254.693 9.51969L254.347 9.15863L254.347 9.15872L254.693 9.51969ZM252.948 10.5539L252.796 10.0776L252.796 10.0776L252.948 10.5539ZM250.905 10.7303L250.973 10.2349L250.939 10.2303H250.905V10.7303ZM234.495 10.7303V10.2303H233.995V10.7303H234.495ZM234.495 19.2143V19.7143H234.995V19.2143H234.495ZM233.232 19.2143H232.732V19.7143H233.232V19.2143ZM233.232 1.05085L233.232 0.550849L232.732 0.551067V1.05085H233.232ZM254.433 6.31205L253.938 6.24365L253.86 6.81205H254.433V6.31205ZM254.298 4.79093L253.823 4.94641L253.823 4.94733L254.298 4.79093ZM254.449 6.31205L254.944 6.24379L254.885 5.81205H254.449V6.31205ZM254.314 7.83621L253.839 7.67986L253.839 7.6803L254.314 7.83621ZM253.523 9.13721L253.166 8.78638L253.166 8.7864L253.523 9.13721ZM252.243 9.93934L252.403 10.4132L252.403 10.4132L252.243 9.93934ZM250.747 10.0725L250.82 9.57799L250.784 9.57254H250.747V10.0725ZM234.749 10.0725H234.249V10.5725H234.749V10.0725ZM234.749 2.55157V2.05157H234.249V2.55157H234.749ZM250.741 2.55157V3.05157H250.778L250.813 3.04636L250.741 2.55157ZM252.235 2.68881L252.395 2.21538V2.21538L252.235 2.68881ZM253.51 3.49177L253.153 3.84204L253.153 3.84204L253.51 3.49177ZM18.755 1.54608C19.3654 1.4623 19.9877 1.51613 20.572 1.70295L20.8765 0.75044C20.1496 0.518028 19.3768 0.451364 18.619 0.555371L18.755 1.54608ZM6.08067 1.54303L18.6867 1.55073L18.6873 0.550727L6.08128 0.543033L6.08067 1.54303ZM4.19598 1.69525C4.78032 1.50843 5.40255 1.45461 6.01298 1.53839L6.14896 0.547677C5.39117 0.44367 4.6184 0.510334 3.89145 0.742746L4.19598 1.69525ZM2.64986 2.61151C3.0826 2.19629 3.6117 1.88205 4.19598 1.69525L3.89145 0.742746C3.16445 0.975177 2.50208 1.36742 1.9575 1.88996L2.64986 2.61151ZM1.70069 4.08432C1.89282 3.53116 2.21717 3.02665 2.64984 2.61153L1.95752 1.88994C1.41282 2.41254 1.00091 3.05123 0.756047 3.75622L1.70069 4.08432ZM1.53951 5.80125C1.4536 5.22503 1.50863 4.63735 1.7007 4.0843L0.756041 3.75624C0.511172 4.46134 0.440626 5.21214 0.550438 5.9487L1.53951 5.80125ZM1.54497 14.3386V5.87497H0.544972V14.3386H1.54497ZM1.7008 16.1306C1.50848 15.5772 1.4534 14.989 1.53949 14.4124L0.550453 14.2647C0.4404 15.0018 0.511008 15.7533 0.756208 16.4589L1.7008 16.1306ZM2.65121 17.6042C2.21797 17.1889 1.89315 16.6841 1.7008 16.1306L0.756208 16.4589C1.00138 17.1644 1.41389 17.8034 1.95925 18.3261L2.65121 17.6042ZM4.19922 18.5201C3.6143 18.3336 3.08451 18.0195 2.6512 17.6042L1.95926 18.3261C2.50454 18.8488 3.16773 19.2408 3.89549 19.4728L4.19922 18.5201ZM6.01775 18.6752C5.40695 18.7598 4.78414 18.7066 4.19922 18.5201L3.89548 19.4728C4.62318 19.7048 5.39666 19.7708 6.15489 19.6658L6.01775 18.6752ZM18.687 18.6705H6.08632V19.6705H18.687V18.6705ZM20.5656 18.5148C19.9831 18.702 19.3627 18.7569 18.7537 18.675L18.6203 19.666C19.3764 19.7678 20.1469 19.6997 20.8715 19.4669L20.5656 18.5148ZM22.1068 17.5997C21.6753 18.0139 21.148 18.3277 20.5656 18.5148L20.8715 19.4669C21.5962 19.234 22.2563 18.8423 22.7993 18.3211L22.1068 17.5997ZM23.054 16.131C22.8618 16.6825 22.5382 17.1856 22.1068 17.5997L22.7993 18.3211C23.3424 17.7997 23.7534 17.1629 23.9983 16.4601L23.054 16.131ZM23.2176 14.4189C23.302 14.9937 23.2461 15.5797 23.054 16.131L23.9983 16.4601C24.2433 15.7571 24.3148 15.0085 24.207 14.2737L23.2176 14.4189ZM23.2123 9.51432V14.3463H24.2123V9.51432H23.2123ZM11.1223 10.0143H23.7123V9.01432H11.1223V10.0143ZM11.6223 10.7223V9.51432H10.6223V10.7223H11.6223ZM22.464 10.2223H11.1223V11.2223H22.464V10.2223ZM22.964 14.3463V10.7223H21.964V14.3463H22.964ZM22.7985 15.9762C22.9888 15.4285 23.0437 14.8451 22.9586 14.2727L21.9694 14.4198C22.0308 14.832 21.9914 15.2523 21.8539 15.648L22.7985 15.9762ZM21.8658 17.4249C22.2883 17.0196 22.6082 16.5239 22.7985 15.9762L21.8539 15.648C21.7163 16.0439 21.484 16.4055 21.1735 16.7033L21.8658 17.4249ZM20.3671 18.3142C20.9301 18.1341 21.4435 17.8302 21.8658 17.4249L21.1735 16.7034C20.8629 17.0013 20.4828 17.2273 20.0624 17.3617L20.3671 18.3142ZM18.6192 18.4656C19.2059 18.546 19.8042 18.4943 20.3671 18.3142L20.0624 17.3617C19.6421 17.4962 19.1943 17.535 18.7549 17.4748L18.6192 18.4656ZM6.08632 18.4702H18.687V17.4702H6.08632V18.4702ZM4.40619 18.3142C4.96916 18.4943 5.56746 18.546 6.15417 18.4656L6.01847 17.4748C5.57905 17.535 5.13123 17.4962 4.71084 17.3617L4.40619 18.3142ZM2.90748 17.4249C3.32985 17.8302 3.8432 18.1341 4.40618 18.3142L4.71085 17.3617C4.29054 17.2273 3.91039 17.0013 3.59982 16.7033L2.90748 17.4249ZM1.97487 15.9762C2.16515 16.5239 2.48504 17.0196 2.90748 17.4249L3.59982 16.7033C3.28936 16.4055 3.05701 16.0439 2.91947 15.648L1.97487 15.9762ZM1.81477 14.2727C1.72957 14.8451 1.78455 15.4285 1.97487 15.9762L2.91947 15.648C2.78196 15.2523 2.74253 14.832 2.80387 14.4199L1.81477 14.2727ZM1.80932 5.88267V14.3463H2.80932V5.88267H1.80932ZM1.97486 4.25267C1.78455 4.80042 1.72957 5.38383 1.81477 5.95628L2.80387 5.80906C2.74253 5.39696 2.78196 4.97664 2.91947 4.58088L1.97486 4.25267ZM2.90747 2.804C2.48505 3.20933 2.16515 3.70503 1.97487 4.25267L2.91947 4.58088C3.057 4.18506 3.28935 3.82347 3.59983 3.52555L2.90747 2.804ZM4.40618 1.91475C3.84321 2.09483 3.32986 2.39873 2.90748 2.80399L3.59982 3.52557C3.91038 3.22758 4.29052 3.00166 4.71085 2.8672L4.40618 1.91475ZM6.15419 1.76334C5.56745 1.68295 4.96914 1.73468 4.40619 1.91474L4.71085 2.86721C5.13125 2.73274 5.57906 2.69388 6.01844 2.75408L6.15419 1.76334ZM18.687 1.75871H6.08632V2.75871H18.687V1.75871ZM20.3654 1.9179C19.8036 1.73715 19.2063 1.68431 18.6203 1.76318L18.7537 2.75425C19.1926 2.69518 19.6396 2.73488 20.0591 2.86984L20.3654 1.9179ZM21.8605 2.80787C21.4393 2.40281 20.9272 2.09867 20.3654 1.91791L20.0591 2.86984C20.4785 3.00479 20.8577 3.23088 21.1674 3.52871L21.8605 2.80787ZM22.7907 4.25505C22.6009 3.70819 22.2819 3.21302 21.8605 2.80787L21.1674 3.52871C21.4771 3.82646 21.7088 4.18765 21.846 4.58291L22.7907 4.25505ZM22.9506 5.95607C23.0354 5.3845 22.9805 4.80202 22.7907 4.25505L21.846 4.58291C21.9831 4.97807 22.0225 5.39773 21.9614 5.80927L22.9506 5.95607ZM23.723 5.38267H22.456V6.38267H23.723V5.38267ZM23.0673 4.09201C23.2593 4.64506 23.3144 5.23272 23.2285 5.80894L24.2175 5.9564C24.3274 5.21984 24.2568 4.46902 24.0119 3.76391L23.0673 4.09201ZM22.1181 2.61922C22.5508 3.03434 22.8752 3.53886 23.0673 4.092L24.0119 3.76393C23.7671 3.05892 23.3551 2.42023 22.8105 1.89764L22.1181 2.61922ZM20.572 1.70294C21.1563 1.88974 21.6854 2.20398 22.1181 2.61921L22.8105 1.89765C22.2659 1.37511 21.6035 0.982871 20.8765 0.750442L20.572 1.70294ZM47.5822 1.53849C48.1944 1.45449 48.8181 1.50845 49.4039 1.69575L49.7084 0.743242C48.98 0.510355 48.2058 0.443556 47.4463 0.547772L47.5822 1.53849ZM29.8389 1.55341L47.5146 1.54313L47.514 0.54313L29.8383 0.553413L29.8389 1.55341ZM30.3386 19.2143V1.05341H29.3386V19.2143H30.3386ZM31.1004 18.7143H29.8386V19.7143H31.1004V18.7143ZM30.6004 10.7315V19.2143H31.6004V10.7315H30.6004ZM47.5089 10.2315H31.1004V11.2315H47.5089V10.2315ZM49.1926 10.3878C48.6286 10.2074 48.029 10.1556 47.441 10.2361L47.5768 11.2269C48.0175 11.1665 48.4665 11.2055 48.8878 11.3403L49.1926 10.3878ZM50.6942 11.2788C50.271 10.8727 49.7565 10.5683 49.1926 10.3878L48.8878 11.3403C49.3092 11.4751 49.6905 11.7017 50.0019 12.0004L50.6942 11.2788ZM51.6286 12.7304C51.438 12.1817 51.1175 11.685 50.6942 11.2788L50.0019 12.0004C50.3132 12.2991 50.5461 12.6617 50.684 13.0585L51.6286 12.7304ZM51.7888 14.4375C51.8744 13.8637 51.8192 13.2791 51.6286 12.7304L50.684 13.0585C50.8218 13.4554 50.8614 13.8768 50.7997 14.2898L51.7888 14.4375ZM51.7942 19.2066V14.3637H50.7942V19.2066H51.7942ZM52.5614 18.7066H51.2942V19.7066H52.5614V18.7066ZM52.0614 14.3637V19.2066H53.0614V14.3637H52.0614ZM51.7035 12.172C52.0334 12.8352 52.1586 13.5733 52.0654 14.3001L53.0573 14.4272C53.1758 13.5024 53.016 12.5653 52.5989 11.7267L51.7035 12.172ZM50.1961 10.5538C50.8517 10.9465 51.3737 11.5087 51.7035 12.172L52.5989 11.7267C52.1819 10.8882 51.5257 10.1845 50.71 9.69592L50.1961 10.5538ZM51.7035 8.07768C51.3737 8.74098 50.8517 9.30321 50.1961 9.69592L50.71 10.5538C51.5257 10.0652 52.1819 9.36144 52.5989 8.52299L51.7035 8.07768ZM52.0654 5.94958C52.1586 6.67642 52.0334 7.41451 51.7035 8.07768L52.5989 8.52299C53.016 7.68439 53.1758 6.74727 53.0573 5.82248L52.0654 5.94958ZM51.9053 4.09104C52.098 4.64546 52.1532 5.23455 52.0669 5.81213L53.0559 5.95993C53.1662 5.22176 53.0955 4.46933 52.8499 3.76274L51.9053 4.09104ZM50.954 2.61434C51.3876 3.03051 51.7128 3.5363 51.9053 4.09086L52.85 3.76292C52.6047 3.05648 52.1921 2.41647 51.6463 1.8928L50.954 2.61434ZM49.4039 1.69575C49.9896 1.883 50.5199 2.19803 50.954 2.61443L51.6462 1.89272C51.1004 1.36923 50.437 0.976169 49.7084 0.743242L49.4039 1.69575ZM50.4472 4.94666C50.5837 5.36375 50.6231 5.80757 50.5619 6.24279L51.5521 6.38209C51.6346 5.79558 51.5815 5.19774 51.3976 4.63567L50.4472 4.94666ZM49.7772 3.84217C50.0811 4.15173 50.3108 4.52977 50.4472 4.94667L51.3976 4.63566C51.2136 4.07346 50.9034 3.56182 50.4907 3.14157L49.7772 3.84217ZM48.6974 3.16227C49.1034 3.30016 49.4733 3.5327 49.7772 3.84217L50.4907 3.14157C50.078 2.72122 49.5741 2.40392 49.0189 2.21539L48.6974 3.16227ZM47.4363 3.04637C47.8598 2.98479 48.2915 3.02443 48.6974 3.16227L49.0189 2.21539C48.4636 2.0268 47.8725 1.97244 47.2924 2.05677L47.4363 3.04637ZM31.3578 3.05157H47.3644V2.05157H31.3578V3.05157ZM31.8578 10.0733V2.55157H30.8578V10.0733H31.8578ZM47.3591 9.57332H31.3578V10.5733H47.3591V9.57332ZM48.6942 9.46446C48.288 9.60191 47.8556 9.64098 47.4319 9.57864L47.2864 10.568C47.8667 10.6534 48.4588 10.5998 49.0147 10.4117L48.6942 9.46446ZM49.776 8.7848C49.4713 9.09449 49.1009 9.32691 48.6943 9.46444L49.0147 10.4117C49.5708 10.2236 50.0753 9.90642 50.4888 9.48608L49.776 8.7848ZM50.447 7.67962C50.3103 8.0969 50.0802 8.47525 49.7758 8.78493L50.489 9.48595C50.9022 9.0656 51.213 8.55358 51.3973 7.9908L50.447 7.67962ZM50.5619 6.38203C50.6231 6.81801 50.5839 7.26227 50.447 7.67938L51.3972 7.99104C51.5819 7.42814 51.6346 6.82963 51.5521 6.24286L50.5619 6.38203ZM63.6957 18.6759C63.0848 18.7597 62.4621 18.7059 61.8773 18.519L61.5729 19.4715C62.3003 19.7039 63.0734 19.7706 63.8316 19.6666L63.6957 18.6759ZM76.3625 18.6712H63.7636V19.6712H76.3625V18.6712ZM78.2492 18.519C77.6643 18.7058 77.0416 18.7597 76.4304 18.6759L76.2946 19.6666C77.053 19.7706 77.8261 19.704 78.5535 19.4715L78.2492 18.519ZM79.7967 17.6025C79.3633 18.0179 78.8339 18.3322 78.2492 18.519L78.5535 19.4715C79.281 19.2391 79.9436 18.8469 80.4887 18.3245L79.7967 17.6025ZM80.7462 16.1298C80.5541 16.6829 80.2296 17.1875 79.7966 17.6026L80.4888 18.3244C81.0338 17.8018 81.4459 17.163 81.6909 16.458L80.7462 16.1298ZM80.9076 14.4131C80.9937 14.9891 80.9386 15.5767 80.7463 16.1296L81.6908 16.4582C81.9361 15.7529 82.0067 15.0019 81.8966 14.2652L80.9076 14.4131ZM80.9021 5.87517V14.3391H81.9021V5.87517H80.9021ZM80.7463 4.08464C80.9386 4.63762 80.9937 5.22516 80.9076 5.80122L81.8966 5.94913C82.0067 5.21235 81.9361 4.46136 81.6908 3.75613L80.7463 4.08464ZM79.7966 2.61168C80.2296 3.02683 80.5541 3.53135 80.7462 4.08446L81.6909 3.75632C81.4459 3.05123 81.0338 2.4125 80.4888 1.88989L79.7966 2.61168ZM78.2492 1.69529C78.8339 1.88211 79.3633 2.19639 79.7967 2.61176L80.4887 1.88981C79.9436 1.36738 79.281 0.975153 78.5535 0.742722L78.2492 1.69529ZM76.4304 1.5384C77.0416 1.45459 77.6643 1.50844 78.2492 1.69529L78.5535 0.742722C77.8261 0.510332 77.053 0.443677 76.2946 0.54767L76.4304 1.5384ZM63.7636 1.54303H76.3625V0.543035H63.7636V1.54303ZM61.8772 1.69529C62.4621 1.50843 63.0848 1.4546 63.6957 1.5384L63.8316 0.547673C63.0734 0.443673 62.3003 0.510336 61.5729 0.742722L61.8772 1.69529ZM60.3297 2.61176C60.7631 2.19639 61.2925 1.88211 61.8772 1.69529L61.5729 0.742722C60.8454 0.975153 60.1828 1.36738 59.6377 1.88981L60.3297 2.61176ZM59.3802 4.08446C59.5723 3.53135 59.8968 3.02683 60.3298 2.61168L59.6376 1.88989C59.0926 2.4125 58.6805 3.05123 58.4355 3.75631L59.3802 4.08446ZM59.2186 5.80141C59.1327 5.22523 59.1878 4.63762 59.3801 4.08464L58.4356 3.75614C58.1903 4.46136 58.1197 5.21229 58.2296 5.94893L59.2186 5.80141ZM59.2241 14.3391V5.87517H58.2241V14.3391H59.2241ZM59.3801 16.1296C59.1878 15.5767 59.1327 14.9891 59.2186 14.4129L58.2296 14.2654C58.1197 15.002 58.1903 15.7529 58.4356 16.4581L59.3801 16.1296ZM60.3298 17.6026C59.8968 17.1875 59.5723 16.6829 59.3802 16.1298L58.4355 16.458C58.6805 17.163 59.0926 17.8018 59.6376 18.3244L60.3298 17.6026ZM61.8772 18.519C61.2925 18.3322 60.7631 18.0179 60.3297 17.6025L59.6377 18.3245C60.1828 18.8469 60.8454 19.2391 61.5729 19.4715L61.8772 18.519ZM60.8353 15.4232C60.7024 15.0461 60.6643 14.6459 60.7235 14.2537L59.7347 14.1044C59.6509 14.6595 59.7052 15.225 59.8922 15.7556L60.8353 15.4232ZM61.4946 16.4307C61.1932 16.1457 60.9683 15.8004 60.8353 15.4232L59.8922 15.7556C60.0792 16.2862 60.3935 16.7658 60.8076 17.1573L61.4946 16.4307ZM62.5755 17.0617C62.166 16.9326 61.7962 16.7158 61.4947 16.4307L60.8076 17.1573C61.2216 17.5488 61.7245 17.8419 62.2748 18.0154L62.5755 17.0617ZM63.8497 17.1703C63.4215 17.2281 62.985 17.1908 62.5755 17.0617L62.2748 18.0154C62.8252 18.189 63.4101 18.2387 63.9835 18.1613L63.8497 17.1703ZM76.2082 17.1658H63.9166V18.1658H76.2082V17.1658ZM77.5496 17.0617C77.1402 17.1908 76.7036 17.2281 76.2751 17.1703L76.1414 18.1613C76.7149 18.2387 77.2998 18.189 77.8503 18.0154L77.5496 17.0617ZM78.6304 16.4307C78.3289 16.7158 77.959 16.9326 77.5496 17.0617L77.8503 18.0154C78.4006 17.8419 78.9035 17.5488 79.3175 17.1573L78.6304 16.4307ZM79.2897 15.4232C79.1568 15.8004 78.9319 16.1457 78.6305 16.4307L79.3175 17.1573C79.7316 16.7658 80.0459 16.2862 80.2329 15.7556L79.2897 15.4232ZM79.4014 14.254C79.4608 14.646 79.4227 15.0461 79.2897 15.4232L80.2329 15.7556C80.4199 15.225 80.4742 14.6594 80.3901 14.1042L79.4014 14.254ZM79.3957 6.03589V14.1791H80.3957V6.03589H79.3957ZM79.2897 4.7917C79.4227 5.16887 79.4608 5.56896 79.4014 5.96098L80.3901 6.1108C80.4742 5.55555 80.4199 4.98992 80.2329 4.45929L79.2897 4.7917ZM78.6304 3.7842C78.9319 4.06925 79.1568 4.41457 79.2897 4.79171L80.2329 4.45929C80.0459 3.92868 79.7316 3.44917 79.3175 3.0576L78.6304 3.7842ZM77.5496 3.15325C77.9591 3.28236 78.3289 3.4991 78.6304 3.7842L79.3175 3.0576C78.9034 2.66608 78.4006 2.37305 77.8503 2.19953L77.5496 3.15325ZM76.2751 3.04464C76.7036 2.9868 77.1401 3.02416 77.5496 3.15325L77.8503 2.19953C77.2999 2.02599 76.7149 1.9762 76.1413 2.05363L76.2751 3.04464ZM63.9166 3.04914H76.2082V2.04914H63.9166V3.04914ZM62.5755 3.15325C62.985 3.02416 63.4215 2.9868 63.8497 3.04464L63.9835 2.05364C63.4101 1.97619 62.8252 2.026 62.2748 2.19953L62.5755 3.15325ZM61.4946 3.7842C61.7962 3.4991 62.166 3.28236 62.5755 3.15325L62.2748 2.19953C61.7245 2.37305 61.2217 2.66608 60.8076 3.0576L61.4946 3.7842ZM60.8353 4.79171C60.9683 4.41458 61.1932 4.06925 61.4946 3.7842L60.8076 3.0576C60.3935 3.44917 60.0792 3.92868 59.8922 4.45929L60.8353 4.79171ZM60.7235 5.96125C60.6643 5.56905 60.7024 5.16887 60.8354 4.7917L59.8922 4.45929C59.7052 4.98992 59.6509 5.55546 59.7347 6.11053L60.7235 5.96125ZM60.7291 14.1791V6.03589H59.7291V14.1791H60.7291ZM109.481 14.3255V1H108.481V14.3255H109.481ZM109.315 15.9593C109.506 15.4104 109.561 14.8257 109.475 14.2518L108.486 14.3992C108.548 14.8126 108.508 15.2345 108.371 15.6318L109.315 15.9593ZM108.382 17.4115C108.805 17.0051 109.125 16.5082 109.315 15.9593L108.371 15.6318C108.233 16.029 108 16.3918 107.689 16.6906L108.382 17.4115ZM106.883 18.3032C107.446 18.1226 107.96 17.8178 108.382 17.4115L107.689 16.6906C107.379 16.9895 106.998 17.2161 106.577 17.351L106.883 18.3032ZM105.133 18.4551C105.72 18.5357 106.319 18.4838 106.883 18.3032L106.577 17.351C106.157 17.4858 105.709 17.5247 105.269 17.4644L105.133 18.4551ZM92.6022 18.4597H105.201V17.4597H92.6022V18.4597ZM90.9209 18.3032C91.4842 18.4838 92.0831 18.5357 92.6702 18.4551L92.5342 17.4644C92.0947 17.5247 91.6467 17.4858 91.2262 17.351L90.9209 18.3032ZM89.4211 17.4115C89.8437 17.8178 90.3576 18.1226 90.9209 18.3032L91.2262 17.351C90.8056 17.2161 90.425 16.9895 90.1142 16.6906L89.4211 17.4115ZM88.4882 15.9593C88.6785 16.5082 88.9984 17.0051 89.4211 17.4115L90.1142 16.6906C89.8034 16.3918 89.5707 16.029 89.433 15.6318L88.4882 15.9593ZM88.3283 14.2518C88.2428 14.8257 88.298 15.4104 88.4882 15.9593L89.433 15.6318C89.2953 15.2345 89.2558 14.8126 89.3174 14.3992L88.3283 14.2518ZM88.3229 1V14.3255H89.3229V1H88.3229ZM87.5627 1.5H88.8229V0.5H87.5627V1.5ZM88.0627 14.3255V1H87.0627V14.3255H88.0627ZM88.2189 16.1219C88.0264 15.567 87.9713 14.9773 88.0573 14.3991L87.0682 14.2519C86.9584 14.9902 87.0289 15.7428 87.2741 16.4496L88.2189 16.1219ZM89.1689 17.5996C88.7359 17.1832 88.4112 16.6771 88.2189 16.1221L87.274 16.4494C87.5188 17.1561 87.9308 17.7964 88.4758 18.3204L89.1689 17.5996ZM90.7162 18.5185C90.1316 18.3312 89.6023 18.0161 89.1688 17.5995L88.4759 18.3205C89.0209 18.8443 89.6834 19.2377 90.4111 19.4708L90.7162 18.5185ZM92.5341 18.6758C91.9234 18.7598 91.301 18.7058 90.7162 18.5185L90.4111 19.4708C91.1387 19.7039 91.912 19.7708 92.6704 19.6665L92.5341 18.6758ZM105.201 18.6711H92.6022V19.6711H105.201V18.6711ZM107.087 18.5185C106.503 18.7058 105.88 18.7598 105.269 18.6758L105.133 19.6665C105.892 19.7708 106.665 19.7039 107.392 19.4708L107.087 18.5185ZM108.635 17.5995C108.201 18.0161 107.672 18.3312 107.087 18.5185L107.392 19.4708C108.12 19.2377 108.783 18.8443 109.328 18.3205L108.635 17.5995ZM109.585 16.1221C109.392 16.6771 109.068 17.1832 108.635 17.5996L109.328 18.3204C109.873 17.7964 110.285 17.1561 110.53 16.4494L109.585 16.1221ZM109.746 14.3991C109.832 14.9773 109.777 15.567 109.585 16.1219L110.529 16.4496C110.775 15.7428 110.845 14.9902 110.735 14.2519L109.746 14.3991ZM109.741 1V14.3255H110.741V1H109.741ZM108.981 1.5H110.241V0.5H108.981V1.5ZM137.744 0.743259C137.015 0.51036 136.241 0.443548 135.481 0.547779L135.617 1.53849C136.229 1.45448 136.853 1.50845 137.439 1.69579L137.744 0.743259ZM139.683 1.89284C139.136 1.36929 138.473 0.976201 137.744 0.743258L137.439 1.69579C138.025 1.88309 138.556 2.19818 138.99 2.61466L139.683 1.89284ZM140.887 3.76328C140.641 3.05674 140.229 2.41666 139.683 1.89292L138.99 2.61458C139.424 3.03082 139.75 3.53669 139.942 4.09133L140.887 3.76328ZM141.093 5.96045C141.203 5.22228 141.132 4.4698 140.887 3.76311L139.942 4.0915C140.135 4.64599 140.19 5.23522 140.104 5.81299L141.093 5.96045ZM140.887 8.01031C141.132 7.30364 141.203 6.55116 141.093 5.81299L140.104 5.96045C140.19 6.53822 140.135 7.12745 139.942 7.68191L140.887 8.01031ZM139.683 9.88052C140.229 9.35678 140.641 8.71667 140.887 8.01013L139.942 7.68209C139.75 8.23673 139.424 8.74263 138.99 9.15886L139.683 9.88052ZM137.744 11.0302C138.473 10.7972 139.136 10.4041 139.683 9.88061L138.99 9.15877C138.556 9.57523 138.025 9.89032 137.439 10.0776L137.744 11.0302ZM135.481 11.2257C136.241 11.3299 137.015 11.2631 137.744 11.0301L137.439 10.0776C136.853 10.265 136.229 10.319 135.617 10.2349L135.481 11.2257ZM119.138 11.2303H135.549V10.2303H119.138V11.2303ZM119.638 19.2143V10.7303H118.638V19.2143H119.638ZM117.876 19.7143H119.138V18.7143H117.876V19.7143ZM117.376 1.05085V19.2143H118.376V1.05085H117.376ZM135.549 0.543136L117.875 0.550849L117.876 1.55085L135.549 1.54314L135.549 0.543136ZM139.585 6.38229C139.667 5.79575 139.614 5.19787 139.43 4.63578L138.48 4.94679C138.616 5.36391 138.656 5.80774 138.594 6.24299L139.585 6.38229ZM139.092 5.81264H139.089V6.81264H139.092V5.81264ZM139.433 7.99019C139.617 7.4279 139.67 6.82977 139.587 6.24301L138.597 6.38228C138.658 6.8178 138.619 7.26195 138.482 7.6793L139.433 7.99019ZM138.525 9.48499C138.938 9.06467 139.248 8.55286 139.433 7.99043L138.482 7.67906C138.346 8.09627 138.116 8.4745 137.811 8.78414L138.525 9.48499ZM137.052 10.411C137.607 10.2227 138.112 9.90541 138.525 9.48499L137.811 8.78414C137.507 9.09368 137.137 9.32616 136.731 9.4639L137.052 10.411ZM135.324 10.5685C135.904 10.6533 136.496 10.5993 137.052 10.411L136.731 9.46392C136.324 9.60158 135.892 9.64091 135.469 9.57898L135.324 10.5685ZM119.393 10.5737H135.397V9.57371H119.393V10.5737ZM118.893 2.55157V10.0737H119.893V2.55157H118.893ZM135.397 2.05157H119.393V3.05157H135.397V2.05157ZM137.051 2.21539C136.496 2.02681 135.904 1.97243 135.325 2.05678L135.469 3.04636C135.892 2.9848 136.324 3.02443 136.73 3.16229L137.051 2.21539ZM138.523 3.14159C138.11 2.72124 137.606 2.40393 137.051 2.21539L136.73 3.16229C137.136 3.30019 137.506 3.53275 137.81 3.84224L138.523 3.14159ZM139.43 4.63577C139.246 4.07354 138.936 3.56188 138.523 3.1416L137.81 3.84224C138.114 4.15182 138.343 4.52988 138.48 4.9468L139.43 4.63577ZM149.608 19.4714C150.336 19.7039 151.109 19.7706 151.867 19.6666L151.731 18.6759C151.12 18.7597 150.498 18.7059 149.913 18.5189L149.608 19.4714ZM147.673 18.3239C148.218 18.8465 148.881 19.2389 149.608 19.4714L149.913 18.5189C149.328 18.332 148.798 18.0176 148.365 17.602L147.673 18.3239ZM146.471 16.4567C146.716 17.162 147.128 17.801 147.673 18.3238L148.365 17.6021C147.932 17.1868 147.607 16.682 147.415 16.1286L146.471 16.4567ZM146.265 14.2633C146.155 15.0002 146.225 15.7514 146.471 16.4569L147.415 16.1284C147.223 15.5752 147.168 14.9873 147.254 14.4108L146.265 14.2633ZM148.019 13.8371H146.759V14.8371H148.019V13.8371ZM148.63 15.6395C148.492 15.2435 148.452 14.823 148.514 14.4109L147.525 14.2632C147.439 14.8361 147.495 15.4198 147.685 15.9677L148.63 15.6395ZM149.31 16.6953C149 16.3973 148.767 16.0355 148.63 15.6395L147.685 15.9677C147.875 16.5156 148.195 17.0116 148.618 17.417L149.31 16.6953ZM150.423 17.3541C150.002 17.2196 149.621 16.9935 149.31 16.6953L148.618 17.417C149.041 17.8225 149.555 18.1265 150.118 18.3066L150.423 17.3541ZM151.731 17.4673C151.292 17.5275 150.843 17.4887 150.423 17.3541L150.118 18.3066C150.681 18.4867 151.28 18.5385 151.867 18.4581L151.731 17.4673ZM164.4 17.4627H151.799V18.4627H164.4V17.4627ZM165.777 17.3541C165.356 17.4887 164.908 17.5275 164.468 17.4673L164.332 18.4581C164.919 18.5385 165.518 18.4867 166.081 18.3066L165.777 17.3541ZM166.889 16.6953C166.578 16.9935 166.197 17.2196 165.776 17.3541L166.081 18.3066C166.644 18.1265 167.158 17.8225 167.581 17.417L166.889 16.6953ZM167.57 15.6395C167.432 16.0355 167.2 16.3973 166.889 16.6953L167.581 17.417C168.004 17.0116 168.324 16.5156 168.514 15.9677L167.57 15.6395ZM167.685 14.4107C167.747 14.8229 167.707 15.2435 167.57 15.6395L168.514 15.9677C168.705 15.4198 168.76 14.8362 168.675 14.2634L167.685 14.4107ZM167.57 13.0346C167.707 13.4306 167.747 13.8512 167.685 14.2634L168.675 14.4107C168.76 13.8379 168.705 13.2543 168.514 12.7064L167.57 13.0346ZM166.889 11.9788C167.2 12.2768 167.432 12.6386 167.57 13.0346L168.514 12.7064C168.324 12.1585 168.004 11.6625 167.581 11.2571L166.889 11.9788ZM165.776 11.32C166.197 11.4545 166.578 11.6807 166.889 11.9788L167.581 11.257C167.158 10.8516 166.644 10.5476 166.081 10.3675L165.776 11.32ZM164.468 11.2068C164.907 11.1465 165.356 11.1854 165.777 11.32L166.081 10.3675C165.518 10.1874 164.919 10.1356 164.332 10.216L164.468 11.2068ZM151.799 11.2114H164.4V10.2114H151.799V11.2114ZM149.608 11.0116C150.336 11.2441 151.109 11.3108 151.867 11.2068L151.731 10.2161C151.12 10.2999 150.498 10.246 149.913 10.0591L149.608 11.0116ZM147.673 9.86409C148.218 10.3867 148.881 10.7791 149.608 11.0116L149.913 10.0591C149.328 9.87218 148.798 9.55777 148.365 9.14222L147.673 9.86409ZM146.471 7.99685C146.716 8.70218 147.128 9.34117 147.673 9.86399L148.365 9.14231C147.932 8.72698 147.607 8.2222 147.415 7.66879L146.471 7.99685ZM146.265 5.8035C146.155 6.54039 146.225 7.29158 146.471 7.99704L147.415 7.6686C147.223 7.11537 147.168 6.52746 147.254 5.95097L146.265 5.8035ZM146.471 3.75741C146.225 4.46289 146.155 5.21407 146.265 5.95097L147.254 5.8035C147.168 5.22701 147.223 4.63909 147.415 4.08584L146.471 3.75741ZM147.673 1.89048C147.128 2.41329 146.716 3.05226 146.471 3.75759L147.415 4.08565C147.607 3.53225 147.932 3.02749 148.365 2.61215L147.673 1.89048ZM149.608 0.742828C148.881 0.97536 148.218 1.36776 147.673 1.89039L148.365 2.61224C148.798 2.19667 149.328 1.88226 149.913 1.69537L149.608 0.742828ZM151.867 0.547694C151.109 0.443648 150.336 0.510341 149.608 0.742828L149.913 1.69537C150.498 1.50843 151.12 1.45458 151.731 1.53841L151.867 0.547694ZM164.4 0.543053H151.799V1.54305H164.4V0.543053ZM166.59 0.743864C165.863 0.511157 165.09 0.444089 164.332 0.547656L164.468 1.53845C165.078 1.45501 165.701 1.50916 166.286 1.69629L166.59 0.743864ZM168.525 1.8917C167.98 1.36903 167.317 0.976608 166.59 0.743883L166.285 1.69627C166.87 1.88338 167.399 2.19787 167.832 2.61324L168.525 1.8917ZM169.726 3.75828C169.481 3.0532 169.069 2.41446 168.525 1.8918L167.832 2.61314C168.265 3.02853 168.589 3.53327 168.782 4.08645L169.726 3.75828ZM169.932 5.951C170.042 5.21431 169.971 4.46348 169.726 3.75845L168.781 4.08628C168.973 4.63947 169.029 5.22723 168.943 5.80347L169.932 5.951ZM168.177 6.37723H169.437V5.37723H168.177V6.37723ZM167.567 4.57476C167.705 4.97083 167.744 5.39129 167.683 5.80337L168.672 5.9511C168.757 5.37818 168.702 4.79444 168.512 4.24656L167.567 4.57476ZM166.886 3.51893C167.197 3.81702 167.429 4.17879 167.567 4.57477L168.512 4.24655C168.321 3.69863 168.001 3.20272 167.578 2.79723L166.886 3.51893ZM165.774 2.86016C166.195 2.99472 166.575 3.22082 166.886 3.51893L167.578 2.79723C167.156 2.39178 166.642 2.08781 166.078 1.90768L165.774 2.86016ZM164.465 2.74697C164.905 2.68673 165.353 2.72561 165.774 2.86016L166.078 1.90768C165.515 1.72755 164.916 1.6758 164.329 1.75623L164.465 2.74697ZM151.797 2.7516H164.397V1.7516H151.797V2.7516ZM150.42 2.86016C150.841 2.72561 151.289 2.68673 151.729 2.74697L151.864 1.75623C151.277 1.6758 150.679 1.72755 150.115 1.90768L150.42 2.86016ZM149.308 3.51893C149.619 3.22082 149.999 2.99472 150.42 2.86016L150.115 1.90768C149.552 2.08781 149.038 2.39178 148.616 2.79723L149.308 3.51893ZM148.627 4.57477C148.764 4.17879 148.997 3.81702 149.308 3.51893L148.616 2.79723C148.193 3.20272 147.873 3.69863 147.682 4.24655L148.627 4.57477ZM148.511 5.80336C148.45 5.39129 148.489 4.97084 148.627 4.57476L147.682 4.24656C147.492 4.79443 147.437 5.37817 147.522 5.95111L148.511 5.80336ZM148.627 7.17967C148.489 6.78363 148.45 6.36318 148.511 5.95111L147.522 5.80336C147.437 6.3763 147.492 6.96003 147.682 7.50789L148.627 7.17967ZM149.308 8.2355C148.997 7.93745 148.764 7.57566 148.627 7.17967L147.682 7.50789C147.873 8.0558 148.193 8.55175 148.616 8.95722L149.308 8.2355ZM150.42 8.89431C149.999 8.75975 149.619 8.53364 149.308 8.23551L148.616 8.95721C149.038 9.36265 149.552 9.66666 150.115 9.84678L150.42 8.89431ZM151.729 9.00749C151.289 9.06772 150.841 9.02885 150.42 8.89431L150.115 9.84679C150.679 10.0269 151.277 10.0786 151.864 9.99825L151.729 9.00749ZM164.397 9.00287H151.797V10.0029H164.397V9.00287ZM166.588 9.20265C165.861 8.97016 165.088 8.90346 164.329 9.00751L164.465 9.99823C165.076 9.9144 165.699 9.96825 166.284 10.1552L166.588 9.20265ZM168.524 10.3502C167.978 9.82757 167.316 9.4352 166.588 9.20265L166.284 10.1552C166.869 10.3421 167.398 10.6565 167.832 11.0721L168.524 10.3502ZM169.726 12.2174C169.481 11.5121 169.069 10.8731 168.524 10.3503L167.831 11.072C168.264 11.4873 168.589 11.9921 168.781 12.5455L169.726 12.2174ZM169.932 14.411C170.042 13.674 169.971 12.9227 169.726 12.2172L168.781 12.5456C168.974 13.0989 169.029 13.6868 168.943 14.2631L169.932 14.411ZM169.726 16.4569C169.971 15.7514 170.042 15.0001 169.932 14.2631L168.943 14.411C169.029 14.9873 168.974 15.5752 168.781 16.1285L169.726 16.4569ZM168.524 18.3238C169.069 17.801 169.481 17.162 169.726 16.4567L168.781 16.1286C168.589 16.682 168.264 17.1868 167.831 17.6021L168.524 18.3238ZM166.588 19.4714C167.316 19.2389 167.978 18.8465 168.524 18.3239L167.832 17.602C167.398 18.0176 166.869 18.332 166.284 18.5189L166.588 19.4714ZM164.329 19.6666C165.088 19.7706 165.861 19.7039 166.588 19.4714L166.284 18.5189C165.699 18.7059 165.076 18.7597 164.465 18.6759L164.329 19.6666ZM151.799 19.6712H164.397V18.6712H151.799V19.6712ZM176.318 10.7066V19.2143H177.318V10.7066H176.318ZM197.056 10.2066H176.818V11.2066H197.056V10.2066ZM197.556 19.2143V10.7066H196.556V19.2143H197.556ZM198.321 18.7143H197.056V19.7143H198.321V18.7143ZM197.821 1V19.2143H198.821V1H197.821ZM197.056 1.5H198.321V0.5H197.056V1.5ZM197.556 9.50773V1H196.556V9.50773H197.556ZM176.818 10.0077H197.056V9.00773H176.818V10.0077ZM176.318 1V9.50773H177.318V1H176.318ZM175.553 1.5H176.818V0.5H175.553V1.5ZM176.053 19.2143V1H175.053V19.2143H176.053ZM176.818 18.7143H175.553V19.7143H176.818V18.7143ZM207.281 19.4695C208.007 19.7023 208.779 19.7697 209.537 19.6667L209.402 18.6758C208.792 18.7588 208.17 18.7044 207.586 18.5172L207.281 19.4695ZM205.349 18.3217C205.893 18.8441 206.555 19.2366 207.281 19.4694L207.586 18.5172C207.002 18.33 206.474 18.0157 206.042 17.6006L205.349 18.3217ZM204.149 16.4563C204.394 17.161 204.805 17.7993 205.349 18.3218L206.042 17.6005C205.61 17.1854 205.286 16.6812 205.094 16.1285L204.149 16.4563ZM203.944 14.2653C203.834 15.0015 203.905 15.7518 204.149 16.4563L205.094 16.1285C204.902 15.5758 204.847 14.9886 204.933 14.4129L203.944 14.2653ZM203.939 5.87517V14.3391H204.939V5.87517H203.939ZM204.15 3.75625C203.904 4.46142 203.834 5.21236 203.944 5.94908L204.933 5.80127C204.847 5.22515 204.902 4.63756 205.094 4.08453L204.15 3.75625ZM205.351 1.89002C204.806 2.41264 204.394 3.05137 204.15 3.75641L205.094 4.08437C205.286 3.53121 205.611 3.02668 206.043 2.61156L205.351 1.89002ZM207.285 0.742753C206.558 0.975212 205.896 1.36748 205.351 1.88993L206.043 2.61164C206.476 2.19629 207.005 1.88205 207.589 1.69526L207.285 0.742753ZM209.542 0.547676C208.785 0.443669 208.012 0.510334 207.285 0.742753L207.589 1.69526C208.174 1.50843 208.796 1.4546 209.407 1.53839L209.542 0.547676ZM222.08 0.543035H209.475V1.54303H222.08V0.543035ZM224.27 0.742754C223.543 0.510334 222.77 0.44367 222.012 0.547676L222.148 1.53839C222.759 1.4546 223.381 1.50843 223.965 1.69526L224.27 0.742754ZM226.204 1.88993C225.659 1.36748 224.997 0.975212 224.27 0.742753L223.965 1.69526C224.55 1.88205 225.079 2.19629 225.512 2.61165L226.204 1.88993ZM227.405 3.75642C227.161 3.05137 226.749 2.41264 226.204 1.89002L225.512 2.61155C225.944 3.02669 226.269 3.53121 226.461 4.08436L227.405 3.75642ZM227.611 5.94887C227.721 5.2123 227.65 4.46143 227.405 3.75624L226.461 4.08454C226.653 4.63755 226.708 5.22522 226.622 5.80147L227.611 5.94887ZM227.617 14.3391V5.87517H226.617V14.3391H227.617ZM227.405 16.458C227.65 15.7529 227.721 15.002 227.611 14.2654L226.622 14.4128C226.708 14.9891 226.653 15.5767 226.461 16.1297L227.405 16.458ZM226.204 18.3243C226.749 17.8016 227.161 17.1629 227.405 16.4579L226.461 16.1299C226.269 16.6831 225.944 17.1876 225.512 17.6027L226.204 18.3243ZM224.27 19.4715C224.997 19.239 225.659 18.8468 226.204 18.3244L225.512 17.6026C225.079 18.018 224.55 18.3322 223.965 18.519L224.27 19.4715ZM222.012 19.6666C222.77 19.7706 223.543 19.704 224.27 19.4715L223.965 18.519C223.381 18.7059 222.759 18.7597 222.148 18.6759L222.012 19.6666ZM209.469 19.6712H222.08V18.6712H209.469V19.6712ZM205.449 14.1025C205.365 14.6579 205.419 15.2237 205.606 15.7544L206.549 15.4224C206.417 15.045 206.379 14.6445 206.438 14.2521L205.449 14.1025ZM205.464 6.03635L205.444 14.1761L206.444 14.1786L206.464 6.03887L205.464 6.03635ZM205.627 4.46055C205.44 4.99131 205.386 5.55696 205.47 6.11213L206.459 5.96309C206.399 5.57052 206.437 5.16998 206.57 4.7925L205.627 4.46055ZM206.541 3.0583C206.128 3.45009 205.814 3.92979 205.627 4.46054L206.57 4.79251C206.703 4.41507 206.928 4.06955 207.229 3.78438L206.541 3.0583ZM208.007 2.19968C207.457 2.37333 206.955 2.66657 206.541 3.0583L207.229 3.78438C207.53 3.49916 207.9 3.28238 208.308 3.15326L208.007 2.19968ZM209.715 2.05366C209.142 1.97616 208.557 2.026 208.007 2.19968L208.308 3.15326C208.717 3.02416 209.153 2.9868 209.581 3.04464L209.715 2.05366ZM221.926 2.04915H209.648V3.04915H221.926V2.04915ZM223.565 2.19941C223.015 2.02621 222.432 1.97645 221.86 2.05364L221.993 3.04467C222.42 2.98705 222.856 3.02435 223.264 3.15313L223.565 2.19941ZM225.029 3.05583C224.616 2.66511 224.114 2.37265 223.565 2.19944L223.264 3.15311C223.672 3.28188 224.041 3.49809 224.342 3.78256L225.029 3.05583ZM225.944 4.45474C225.757 3.92503 225.442 3.44653 225.029 3.05583L224.342 3.78256C224.643 4.06703 224.868 4.41173 225.001 4.78829L225.944 4.45474ZM226.105 6.10322C226.187 5.54901 226.132 4.98435 225.944 4.4545L225.001 4.78853C225.135 5.16493 225.173 5.5648 225.116 5.95718L226.105 6.10322ZM226.11 14.1773V6.0302H225.11V14.1773H226.11ZM225.947 15.7544C226.134 15.2236 226.188 14.658 226.105 14.1028L225.116 14.2519C225.175 14.6444 225.137 15.045 225.004 15.4224L225.947 15.7544ZM225.033 17.1566C225.447 16.7649 225.761 16.2851 225.947 15.7544L225.004 15.4224C224.871 15.7999 224.646 16.1454 224.345 16.4305L225.033 17.1566ZM223.567 18.0153C224.117 17.8416 224.619 17.5484 225.033 17.1566L224.345 16.4306C224.044 16.7158 223.675 16.9326 223.266 17.0617L223.567 18.0153ZM221.859 18.1613C222.433 18.2388 223.017 18.189 223.567 18.0153L223.266 17.0617C222.857 17.1908 222.421 17.2281 221.993 17.1703L221.859 18.1613ZM209.627 18.1658H221.926V17.1658H209.627V18.1658ZM207.986 18.0153C208.536 18.189 209.121 18.2388 209.694 18.1613L209.56 17.1703C209.132 17.2281 208.696 17.1908 208.288 17.0617L207.986 18.0153ZM206.521 17.1566C206.934 17.5484 207.437 17.8416 207.986 18.0153L208.288 17.0617C207.879 16.9326 207.509 16.7158 207.208 16.4306L206.521 17.1566ZM205.606 15.7544C205.793 16.2851 206.107 16.7649 206.521 17.1566L207.208 16.4305C206.907 16.1454 206.682 15.7999 206.549 15.4224L205.606 15.7544ZM253.1 0.743247C252.371 0.510359 251.596 0.443551 250.837 0.547776L250.973 1.5385C251.585 1.45448 252.209 1.50845 252.796 1.69581L253.1 0.743247ZM255.039 1.89279C254.493 1.36925 253.829 0.976178 253.1 0.743246L252.796 1.69581C253.382 1.88311 253.913 2.19822 254.347 2.61471L255.039 1.89279ZM256.244 3.7645C256 3.05662 255.585 2.41621 255.039 1.89269L254.347 2.61481C254.782 3.03127 255.108 3.53681 255.298 4.09011L256.244 3.7645ZM256.451 5.95928C256.559 5.22255 256.49 4.47029 256.243 3.76271L255.299 4.0919C255.492 4.6455 255.546 5.23495 255.461 5.81416L256.451 5.95928ZM256.243 8.01071C256.49 7.30315 256.559 6.55089 256.451 5.81416L255.461 5.95928C255.546 6.53849 255.492 7.12793 255.299 7.68151L256.243 8.01071ZM255.039 9.88075C255.585 9.35723 256 8.71679 256.244 8.00891L255.298 7.6833C255.108 8.23661 254.782 8.74218 254.347 9.15863L255.039 9.88075ZM253.1 11.0302C253.829 10.7972 254.493 10.4042 255.039 9.88065L254.347 9.15872C253.913 9.57519 253.382 9.8903 252.796 10.0776L253.1 11.0302ZM250.837 11.2257C251.596 11.3299 252.371 11.2631 253.1 11.0302L252.796 10.0776C252.209 10.265 251.585 10.319 250.973 10.2349L250.837 11.2257ZM234.495 11.2303H250.905V10.2303H234.495V11.2303ZM234.995 19.2143V10.7303H233.995V19.2143H234.995ZM233.232 19.7143H234.495V18.7143H233.232V19.7143ZM232.732 1.05085V19.2143H233.732V1.05085H232.732ZM250.905 0.543136L233.232 0.550849L233.232 1.55085L250.905 1.54314L250.905 0.543136ZM254.929 6.38045C255.009 5.79601 254.959 5.19825 254.773 4.63454L253.823 4.94733C253.96 5.36267 253.998 5.80645 253.938 6.24365L254.929 6.38045ZM254.449 5.81205H254.433V6.81205H254.449V5.81205ZM254.789 7.99255C254.975 7.42787 255.025 6.82908 254.944 6.24379L253.954 6.38032C254.014 6.81868 253.976 7.26362 253.839 7.67986L254.789 7.99255ZM253.879 9.48803C254.293 9.06744 254.604 8.55506 254.789 7.99211L253.839 7.6803C253.702 8.09822 253.471 8.4768 253.166 8.78638L253.879 9.48803ZM252.403 10.4132C252.96 10.2256 253.465 9.90854 253.879 9.48801L253.166 8.7864C252.861 9.0961 252.49 9.32837 252.084 9.46552L252.403 10.4132ZM250.673 10.5671C251.254 10.6535 251.846 10.6008 252.403 10.4132L252.084 9.46549C251.676 9.60264 251.244 9.64107 250.82 9.57799L250.673 10.5671ZM234.749 10.5725H250.747V9.57254H234.749V10.5725ZM234.249 2.55157V10.0725H235.249V2.55157H234.249ZM250.741 2.05157H234.749V3.05157H250.741V2.05157ZM252.395 2.21538C251.84 2.02681 251.249 1.97243 250.669 2.05678L250.813 3.04636C251.236 2.9848 251.668 3.02443 252.074 3.16225L252.395 2.21538ZM253.867 3.1415C253.454 2.72118 252.95 2.4039 252.395 2.21538L252.074 3.16225C252.48 3.30012 252.85 3.53262 253.153 3.84204L253.867 3.1415ZM254.774 4.63545C254.59 4.07331 254.279 3.56171 253.867 3.14149L253.153 3.84204C253.457 4.15156 253.687 4.52955 253.823 4.94641L254.774 4.63545Z" fill="white"/>
</svg>
