<svg width="23" height="13" viewBox="0 0 23 13" fill="none" xmlns="http://www.w3.org/2000/svg">
<path d="M22.2835 6.00543C21.2937 4.21334 19.7751 2.70385 17.8957 1.64396C16.0163 0.584068 13.8494 0.0150995 11.6346 0C9.41985 0.0152885 7.2529 0.584437 5.37351 1.64448C3.49412 2.70453 1.97555 4.21415 0.98579 6.00635C0.90058 6.15965 0.856201 6.32887 0.856201 6.50046C0.856201 6.67205 0.90058 6.84126 0.98579 6.99457C1.9756 8.78666 3.49421 10.2962 5.37361 11.356C7.25301 12.4159 9.41993 12.9849 11.6346 13C13.8494 12.9847 16.0164 12.4156 17.8958 11.3555C19.7752 10.2955 21.2937 8.78585 22.2835 6.99365C22.3687 6.84034 22.4131 6.67113 22.4131 6.49954C22.4131 6.32795 22.3687 6.15874 22.2835 6.00543ZM11.6346 11.3747C10.5686 11.3747 9.52658 11.0887 8.64023 10.5531C7.75388 10.0174 7.06306 9.25598 6.65512 8.36517C6.24718 7.47436 6.14044 6.49413 6.34841 5.54845C6.55638 4.60277 7.0697 3.73411 7.82348 3.05231C8.57726 2.37052 9.53763 1.90621 10.5831 1.7181C11.6287 1.52999 12.7124 1.62654 13.6972 1.99552C14.6821 2.36451 15.5239 2.98936 16.1161 3.79107C16.7083 4.59278 17.0244 5.53534 17.0244 6.49954C17.0244 7.7925 16.4566 9.03251 15.4458 9.94677C14.435 10.861 13.0641 11.3747 11.6346 11.3747ZM11.6346 3.24977C11.3138 3.25381 10.9951 3.29698 10.687 3.37811C10.9416 3.69011 11.064 4.07437 11.0319 4.46105C10.9999 4.84774 10.8156 5.2112 10.5124 5.48539C10.2093 5.75959 9.80744 5.92632 9.37993 5.95531C8.95242 5.98429 8.5276 5.87359 8.18266 5.64333C7.98613 6.2979 8.02149 6.99174 8.28377 7.62718C8.54604 8.26262 9.02203 8.80767 9.64473 9.1856C10.2674 9.56352 11.0055 9.75531 11.755 9.73394C12.5045 9.71258 13.2278 9.47915 13.8229 9.06652C14.4181 8.65388 14.8552 8.08281 15.0727 7.43369C15.2903 6.78458 15.2773 6.0901 15.0355 5.44802C14.7938 4.80594 14.3356 4.24858 13.7253 3.85441C13.1151 3.46023 12.3835 3.24908 11.6336 3.25069L11.6346 3.24977Z" fill="black"/>
</svg>
