<svg width="11" height="10" viewBox="0 0 11 10" fill="none" xmlns="http://www.w3.org/2000/svg">
<path d="M5.15589 0.673266C6.1884 0.672992 7.18906 1.01982 7.98738 1.65466C8.78569 2.2895 9.33226 3.17307 9.53395 4.15482C9.73563 5.13656 9.57997 6.15573 9.09347 7.03868C8.60697 7.92162 7.81974 8.6137 6.86592 8.99699C5.9121 9.38028 4.8507 9.43107 3.86259 9.14071C2.87447 8.85034 2.02078 8.23678 1.44696 7.40457C0.873147 6.57237 0.614719 5.57301 0.715713 4.57678C0.816707 3.58056 1.27087 2.6491 2.00083 1.94113C2.41413 1.53804 2.9058 1.21842 3.44736 1.00079C3.98893 0.783165 4.56965 0.671841 5.15589 0.673266ZM5.15589 0C4.13594 0.000259303 3.13898 0.293724 2.29105 0.843289C1.44312 1.39285 0.782318 2.17384 0.392186 3.08749C0.00205387 4.00114 -0.0998838 5.00644 0.0992622 5.97625C0.298408 6.94607 0.789694 7.83686 1.511 8.536C2.23231 9.23513 3.15124 9.7112 4.15161 9.90402C5.15198 10.0968 6.18886 9.99775 7.13115 9.61927C8.07343 9.24079 8.8788 8.59993 9.44543 7.77771C10.0121 6.9555 10.3145 5.98885 10.3145 5C10.3144 4.34337 10.1809 3.69318 9.92158 3.08658C9.66227 2.47998 9.28224 1.92885 8.80321 1.46466C8.32417 1.00047 7.7555 0.63232 7.12969 0.381236C6.50388 0.130152 5.83318 0.00105287 5.15589 0.00131119V0Z" fill="black"/>
<path d="M4.73315 3.13177C4.73005 3.03305 4.75744 2.93569 4.81182 2.85217C4.86619 2.76865 4.94507 2.70278 5.03832 2.66302C5.13157 2.62327 5.23495 2.61143 5.33519 2.62903C5.43544 2.64663 5.52797 2.69286 5.60092 2.7618C5.67387 2.83074 5.72391 2.91924 5.74462 3.01594C5.76533 3.11264 5.75577 3.21314 5.71716 3.30454C5.67855 3.39593 5.61266 3.47406 5.52793 3.5289C5.4432 3.58374 5.34351 3.61278 5.24164 3.6123C5.1755 3.61388 5.1097 3.60261 5.04812 3.57918C4.98654 3.55574 4.93041 3.52061 4.88303 3.47584C4.83566 3.43107 4.79799 3.37757 4.77225 3.31848C4.74651 3.25939 4.73322 3.19591 4.73315 3.13177ZM4.76763 3.98991H5.71226V7.45392H4.7656L4.76763 3.98991Z" fill="black"/>
</svg>
