<svg width="15" height="15" viewBox="0 0 15 15" fill="none" xmlns="http://www.w3.org/2000/svg">
<path d="M6.42123 4.55216C6.41694 4.41522 6.4548 4.28015 6.52995 4.16429C6.60509 4.04844 6.71409 3.95707 6.84296 3.90192C6.97183 3.84676 7.11469 3.83034 7.25322 3.85475C7.39174 3.87917 7.51962 3.9433 7.62043 4.03894C7.72124 4.13457 7.79039 4.25733 7.81902 4.39148C7.84764 4.52563 7.83442 4.66504 7.78107 4.79182C7.72771 4.91861 7.63665 5.02699 7.51956 5.10306C7.40247 5.17913 7.2647 5.21942 7.12392 5.21875C7.03253 5.22094 6.9416 5.20531 6.8565 5.1728C6.77139 5.14029 6.69383 5.09155 6.62836 5.02945C6.56289 4.96734 6.51084 4.89313 6.47527 4.81116C6.4397 4.7292 6.42132 4.64114 6.42123 4.55216ZM6.46888 5.74257H7.77429V10.5478H6.46608L6.46888 5.74257Z" fill="black"/>
<path d="M7.12513 1.34411C8.552 1.34373 9.93485 1.82485 11.0381 2.7055C12.1413 3.58615 12.8966 4.81184 13.1753 6.17371C13.4541 7.53558 13.2389 8.94938 12.5666 10.1742C11.8943 11.399 10.8064 12.3591 9.48829 12.8908C8.17017 13.4225 6.70338 13.4929 5.33786 13.0901C3.97235 12.6873 2.79259 11.8362 1.99961 10.6818C1.20664 9.52733 0.849505 8.14103 0.989073 6.75906C1.12864 5.3771 1.75627 4.08498 2.76502 3.10289C3.33618 2.54372 4.01563 2.10035 4.76405 1.79846C5.51246 1.49656 6.31498 1.34213 7.12513 1.34411ZM7.12513 0.410156C5.71562 0.410516 4.33788 0.81761 3.16609 1.57997C1.99431 2.34232 1.08112 3.4257 0.541977 4.69312C0.00283833 5.96054 -0.138033 7.35507 0.137174 8.70041C0.412382 10.0457 1.09131 11.2814 2.08811 12.2513C3.08492 13.2211 4.35483 13.8815 5.73728 14.149C7.11973 14.4165 8.55264 14.279 9.85482 13.754C11.157 13.229 12.27 12.34 13.053 11.1994C13.8361 10.0588 14.254 8.71788 14.254 7.34615C14.2539 6.43527 14.0694 5.53333 13.711 4.69185C13.3527 3.85038 12.8275 3.08585 12.1655 2.44193C11.5035 1.79801 10.7176 1.28731 9.8528 0.939007C8.98797 0.590703 8.0611 0.411617 7.12513 0.411975V0.410156Z" fill="black"/>
</svg>
