<svg width="13" height="13" viewBox="0 0 13 13" fill="none" xmlns="http://www.w3.org/2000/svg">
<g clip-path="url(#clip0_18067_819)">
<circle cx="6.29412" cy="6.50017" r="5.29412" stroke="black"/>
<path d="M6.44135 4.343C6.23135 4.343 6.05735 4.28 5.91935 4.154C5.78735 4.028 5.72135 3.869 5.72135 3.677C5.72135 3.485 5.78735 3.329 5.91935 3.209C6.05735 3.083 6.23135 3.02 6.44135 3.02C6.65135 3.02 6.82235 3.083 6.95435 3.209C7.09235 3.329 7.16135 3.485 7.16135 3.677C7.16135 3.869 7.09235 4.028 6.95435 4.154C6.82235 4.28 6.65135 4.343 6.44135 4.343ZM5.86535 9.5V5.036H7.01735V9.5H5.86535Z" fill="black"/>
</g>
<defs>
<clipPath id="clip0_18067_819">
<rect width="13" height="13" fill="white"/>
</clipPath>
</defs>
</svg>
