<svg width="36" height="36" fill="none" xmlns="http://www.w3.org/2000/svg"><circle cx="17.939" cy="18.061" r="17.939" fill="#F0F0F0"></circle><path fill-rule="evenodd" clip-rule="evenodd" d="M27.835 13.952c-.075-1.596-.44-3.01-1.61-4.176-1.164-1.165-2.579-1.53-4.175-1.61-1.645-.094-6.577-.094-8.222 0-1.592.075-3.006.44-4.176 1.605-1.17 1.166-1.53 2.58-1.61 4.177-.093 1.646-.093 6.578 0 8.224.076 1.597.44 3.011 1.61 4.176 1.17 1.166 2.58 1.53 4.176 1.61 1.645.094 6.577.094 8.222 0 1.596-.075 3.01-.44 4.176-1.61 1.165-1.165 1.53-2.58 1.61-4.176.093-1.646.093-6.574 0-8.22zm-4.575-.019a1.192 1.192 0 100-2.383 1.192 1.192 0 000 2.383zm-5.318-.982a5.102 5.102 0 00-5.109 5.11 5.102 5.102 0 005.11 5.111 5.102 5.102 0 005.109-5.11 5.102 5.102 0 00-5.11-5.11zm-.002 8.434a3.328 3.328 0 01-3.322-3.322 3.325 3.325 0 013.322-3.323 3.325 3.325 0 013.322 3.323 3.328 3.328 0 01-3.322 3.322zm5.874 4.447a3.363 3.363 0 001.895-1.895c.446-1.122.421-3.575.405-5.166a73.247 73.247 0 01-.005-.71c0-.206.002-.446.005-.71.016-1.59.041-4.04-.405-5.165a3.364 3.364 0 00-1.895-1.895c-1.124-.444-3.59-.42-5.179-.405-.258.002-.492.005-.695.005-.206 0-.446-.003-.71-.005-1.589-.016-4.039-.041-5.164.405a3.363 3.363 0 00-1.894 1.895c-.444 1.125-.42 3.59-.405 5.18.002.258.005.493.005.695 0 .207-.003.447-.006.71-.016 1.59-.04 4.04.406 5.166a3.363 3.363 0 001.894 1.895c1.125.444 3.59.42 5.18.405.257-.003.492-.005.694-.005.207 0 .447.002.71.005 1.59.016 4.04.04 5.165-.405z" fill="#000"></path></svg>