<svg width="20" height="20" viewBox="0 0 20 20" fill="none" xmlns="http://www.w3.org/2000/svg">
<path fill-rule="evenodd" clip-rule="evenodd" d="M19.9297 5.87638C19.8539 4.27424 19.488 2.85507 18.3146 1.68582C17.1456 0.516568 15.7267 0.150619 14.1249 0.070289C12.4741 -0.0234297 7.52593 -0.0234297 5.87507 0.070289C4.27775 0.146156 2.8589 0.512105 1.68544 1.68136C0.511991 2.85061 0.150586 4.26978 0.0702733 5.87192C-0.0234244 7.52315 -0.0234244 12.4724 0.0702733 14.1236C0.146124 15.7258 0.511991 17.1449 1.68544 18.3142C2.8589 19.4834 4.27328 19.8494 5.87507 19.9297C7.52593 20.0234 12.4741 20.0234 14.1249 19.9297C15.7267 19.8538 17.1456 19.4879 18.3146 18.3142C19.4835 17.1449 19.8494 15.7258 19.9297 14.1236C20.0234 12.4724 20.0234 7.52761 19.9297 5.87638ZM15.3385 5.85853C15.9989 5.85853 16.5343 5.32746 16.5343 4.6625C16.5343 4.00201 15.9989 3.46647 15.3385 3.46647C14.6782 3.46647 14.1428 4.00201 14.1428 4.6625C14.1428 5.32299 14.6737 5.85853 15.3385 5.85853ZM10.0022 4.87225C7.16453 4.87225 4.87563 7.16166 4.87563 10C4.87563 12.8383 7.16453 15.1277 10.0022 15.1277C12.8399 15.1277 15.1288 12.8383 15.1288 10C15.1288 7.16166 12.8399 4.87225 10.0022 4.87225ZM10.0022 13.3337C8.16843 13.3337 6.66927 11.8387 6.66927 10C6.66927 8.16133 8.16397 6.66629 10.0022 6.66629C11.8405 6.66629 13.3352 8.16133 13.3352 10C13.3352 11.8387 11.836 13.3337 10.0022 13.3337ZM15.8963 17.7965C16.7752 17.4439 17.449 16.7701 17.797 15.8953C18.2447 14.77 18.2198 12.3083 18.2037 10.7126C18.201 10.4479 18.1985 10.207 18.1985 10C18.1985 9.79297 18.201 9.55213 18.2037 9.28752C18.2198 7.69263 18.2447 5.23383 17.797 4.10465C17.4445 3.22548 16.7708 2.5516 15.8963 2.2035C14.7676 1.75808 12.2945 1.78181 10.6996 1.79711C10.4409 1.79959 10.2053 1.80185 10.0022 1.80185C9.79524 1.80185 9.55447 1.79941 9.28991 1.79673C7.69538 1.78057 5.23712 1.75566 4.1082 2.2035C3.22922 2.55606 2.55549 3.22995 2.20747 4.10465C1.76215 5.23357 1.78587 7.70717 1.80117 9.30245C1.80365 9.56124 1.80591 9.79692 1.80591 10C1.80591 10.207 1.80347 10.4479 1.80079 10.7125C1.78464 12.3074 1.75973 14.7662 2.20747 15.8953C2.55996 16.7745 3.23369 17.4484 4.1082 17.7965C5.23686 18.2419 7.70991 18.2182 9.30483 18.2029C9.56357 18.2004 9.7992 18.1981 10.0022 18.1981C10.2092 18.1981 10.45 18.2006 10.7146 18.2033C12.3091 18.2194 14.7673 18.2443 15.8963 17.7965Z" fill="black"/>
</svg>
