<svg width="36" height="36" viewBox="0 0 36 36" fill="none" xmlns="http://www.w3.org/2000/svg">
<circle cx="18" cy="18" r="18" fill="#F0F0F0"/>
<path fill-rule="evenodd" clip-rule="evenodd" d="M27.9297 13.8764C27.8539 12.2742 27.488 10.8551 26.3146 9.68582C25.1456 8.51657 23.7267 8.15062 22.1249 8.07029C20.4741 7.97657 15.5259 7.97657 13.8751 8.07029C12.2777 8.14616 10.8589 8.51211 9.68544 9.68136C8.51199 10.8506 8.15059 12.2698 8.07027 13.8719C7.97658 15.5232 7.97658 20.4724 8.07027 22.1236C8.14612 23.7258 8.51199 25.1449 9.68544 26.3142C10.8589 27.4834 12.2733 27.8494 13.8751 27.9297C15.5259 28.0234 20.4741 28.0234 22.1249 27.9297C23.7267 27.8538 25.1456 27.4879 26.3146 26.3142C27.4835 25.1449 27.8494 23.7258 27.9297 22.1236C28.0234 20.4724 28.0234 15.5276 27.9297 13.8764ZM23.3385 13.8585C23.9989 13.8585 24.5343 13.3275 24.5343 12.6625C24.5343 12.002 23.9989 11.4665 23.3385 11.4665C22.6782 11.4665 22.1428 12.002 22.1428 12.6625C22.1428 13.323 22.6737 13.8585 23.3385 13.8585ZM18.0022 12.8723C15.1645 12.8723 12.8756 15.1617 12.8756 18C12.8756 20.8383 15.1645 23.1277 18.0022 23.1277C20.8399 23.1277 23.1288 20.8383 23.1288 18C23.1288 15.1617 20.8399 12.8723 18.0022 12.8723ZM18.0022 21.3337C16.1684 21.3337 14.6693 19.8387 14.6693 18C14.6693 16.1613 16.164 14.6663 18.0022 14.6663C19.8405 14.6663 21.3352 16.1613 21.3352 18C21.3352 19.8387 19.836 21.3337 18.0022 21.3337ZM23.8963 25.7965C24.7752 25.4439 25.449 24.7701 25.797 23.8953C26.2447 22.77 26.2198 20.3083 26.2037 18.7126C26.201 18.4479 26.1985 18.207 26.1985 18C26.1985 17.793 26.201 17.5521 26.2037 17.2875C26.2198 15.6926 26.2447 13.2338 25.797 12.1047C25.4445 11.2255 24.7708 10.5516 23.8963 10.2035C22.7676 9.75808 20.2945 9.78181 18.6996 9.79711C18.4409 9.79959 18.2053 9.80185 18.0022 9.80185C17.7952 9.80185 17.5545 9.79941 17.2899 9.79673C15.6954 9.78057 13.2371 9.75566 12.1082 10.2035C11.2292 10.5561 10.5555 11.2299 10.2075 12.1047C9.76215 13.2336 9.78587 15.7072 9.80117 17.3024C9.80365 17.5612 9.80591 17.7969 9.80591 18C9.80591 18.207 9.80347 18.4479 9.80079 18.7125C9.78464 20.3074 9.75973 22.7662 10.2075 23.8953C10.56 24.7745 11.2337 25.4484 12.1082 25.7965C13.2369 26.2419 15.7099 26.2182 17.3048 26.2029C17.5636 26.2004 17.7992 26.1981 18.0022 26.1981C18.2092 26.1981 18.45 26.2006 18.7146 26.2033C20.3091 26.2194 22.7673 26.2443 23.8963 25.7965Z" fill="black"/>
</svg>
