<svg width="36" height="36" viewBox="0 0 36 36" fill="none" xmlns="http://www.w3.org/2000/svg">
<circle cx="17.9395" cy="18.0615" r="17.9395" fill="#F0F0F0"/>
<path fill-rule="evenodd" clip-rule="evenodd" d="M27.8354 13.9523C27.7598 12.3556 27.3951 10.9412 26.2256 9.77585C25.0606 8.61053 23.6465 8.24582 22.0501 8.16576C20.4048 8.07235 15.4733 8.07235 13.828 8.16576C12.236 8.24137 10.8219 8.60609 9.65243 9.77141C8.48293 10.9367 8.12274 12.3511 8.04269 13.9479C7.94931 15.5936 7.94931 20.5261 8.04269 22.1718C8.11829 23.7686 8.48293 25.183 9.65243 26.3483C10.8219 27.5136 12.2316 27.8783 13.828 27.9584C15.4733 28.0518 20.4048 28.0518 22.0501 27.9584C23.6465 27.8828 25.0606 27.5181 26.2256 26.3483C27.3907 25.183 27.7553 23.7686 27.8354 22.1718C27.9287 20.5261 27.9287 15.598 27.8354 13.9523ZM23.2604 13.9334C23.9183 13.9334 24.4518 13.4043 24.4518 12.7417C24.4518 12.0836 23.9183 11.5501 23.2604 11.5501C22.6024 11.5501 22.069 12.0836 22.069 12.7417C22.069 13.3998 22.598 13.9334 23.2604 13.9334ZM17.9424 12.9512C15.1142 12.9512 12.833 15.2329 12.833 18.0617C12.833 20.8905 15.1142 23.1722 17.9424 23.1722C20.7706 23.1722 23.0518 20.8905 23.0518 18.0617C23.0518 15.2329 20.7706 12.9512 17.9424 12.9512ZM17.9398 21.3851C16.1122 21.3851 14.618 19.8951 14.618 18.0626C14.618 16.2301 16.1077 14.7401 17.9398 14.7401C19.7719 14.7401 21.2615 16.2301 21.2615 18.0626C21.2615 19.8951 19.7674 21.3851 17.9398 21.3851ZM23.8145 25.8316C24.6906 25.4802 25.362 24.8086 25.7089 23.9368C26.1551 22.8152 26.1303 20.3618 26.1142 18.7715C26.1115 18.5077 26.1091 18.2676 26.1091 18.0613C26.1091 17.855 26.1115 17.6149 26.1142 17.3512C26.1303 15.7617 26.1551 13.3112 25.7089 12.1858C25.3576 11.3096 24.6861 10.638 23.8145 10.291C22.6897 9.8471 20.2249 9.87075 18.6354 9.886C18.3775 9.88848 18.1427 9.89073 17.9403 9.89073C17.734 9.89073 17.4941 9.8883 17.2304 9.88562C15.6412 9.86952 13.1912 9.84469 12.0661 10.291C11.1901 10.6424 10.5186 11.314 10.1718 12.1858C9.72795 13.3109 9.75159 15.7762 9.76684 17.3661C9.76931 17.624 9.77157 17.8589 9.77157 18.0613C9.77157 18.2676 9.76913 18.5077 9.76646 18.7714C9.75036 20.3609 9.72554 22.8114 10.1718 23.9368C10.5231 24.813 11.1945 25.4847 12.0661 25.8316C13.191 26.2755 15.6557 26.2519 17.2453 26.2366C17.5031 26.2341 17.738 26.2319 17.9403 26.2319C18.1466 26.2319 18.3866 26.2343 18.6502 26.237C20.2394 26.2531 22.6894 26.2779 23.8145 25.8316Z" fill="black"/>
</svg>
