<svg width="27" height="24" viewBox="0 0 27 24" fill="none" xmlns="http://www.w3.org/2000/svg">
<path d="M10.5197 10.5199C13.4128 10.5199 15.7797 8.15303 15.7797 5.25996C15.7797 2.36689 13.4128 0 10.5197 0C7.62665 0 5.25977 2.36689 5.25977 5.25996C5.25977 8.15303 7.62665 10.5199 10.5197 10.5199ZM10.5197 2.62998C11.9663 2.62998 13.1497 3.81342 13.1497 5.25996C13.1497 6.70649 11.9663 7.88994 10.5197 7.88994C9.07319 7.88994 7.88975 6.70649 7.88975 5.25996C7.88975 3.81342 9.07319 2.62998 10.5197 2.62998Z" fill="black"/>
<path d="M10.5199 11.8359C4.73396 11.8359 0 16.5699 0 22.3559V23.6708H21.0398V22.3559C21.0398 16.5699 16.3059 11.8359 10.5199 11.8359ZM2.76148 21.0409C3.41897 17.359 6.5749 14.4659 10.5199 14.4659C14.4649 14.4659 17.6209 17.359 18.2784 21.0409H2.76148Z" fill="black"/>
<path d="M26.3001 7.88974H23.6701V5.25977H21.0401V7.88974H18.4102V10.5197H21.0401V13.1497H23.6701V10.5197H26.3001V7.88974Z" fill="black"/>
</svg>
