<svg width="26" height="26" viewBox="0 0 26 26" fill="none" xmlns="http://www.w3.org/2000/svg">
<path fill-rule="evenodd" clip-rule="evenodd" d="M19.1478 7.63208C18.2594 5.04942 15.7959 3.25 12.9998 3.25C10.2048 3.25 7.74134 5.04942 6.85192 7.63208C4.20967 7.99067 2.1665 10.2613 2.1665 13C2.1665 14.3228 2.6475 15.5957 3.52175 16.5848C3.91717 17.0322 4.60075 17.0766 5.05034 16.6801C5.49884 16.2825 5.54109 15.5989 5.14567 15.1493C4.62134 14.5578 4.33317 13.793 4.33317 13C4.33317 11.2082 5.79134 9.75 7.58317 9.75H7.6915C8.20717 9.75 8.65242 9.386 8.75425 8.88008C9.15834 6.87375 10.9448 5.41667 12.9998 5.41667C15.056 5.41667 16.8413 6.87375 17.2465 8.88008C17.3483 9.386 17.7925 9.75 18.3082 9.75H18.4165C20.2083 9.75 21.6665 11.2082 21.6665 13C21.6665 13.793 21.3783 14.5578 20.8551 15.1493C20.4586 15.5989 20.5019 16.2825 20.9493 16.6801C21.1563 16.8621 21.4119 16.9509 21.6665 16.9509C21.9666 16.9509 22.2645 16.8263 22.479 16.5848C23.3522 15.5957 23.8332 14.3228 23.8332 13C23.8332 10.2613 21.79 7.99067 19.1478 7.63208Z" fill="#A08BC8"/>
<path d="M11.192 17.512L11.128 14.872H11.864C12.408 14.872 12.904 14.824 13.352 14.728C13.8 14.632 14.1573 14.4453 14.424 14.168C14.6907 13.8907 14.824 13.4853 14.824 12.952C14.824 12.44 14.6693 12.04 14.36 11.752C14.0507 11.4533 13.64 11.304 13.128 11.304C12.5947 11.304 12.1787 11.4533 11.88 11.752C11.5813 12.04 11.432 12.4347 11.432 12.936H9.496C9.48533 12.296 9.624 11.7253 9.912 11.224C10.2 10.7227 10.616 10.328 11.16 10.04C11.7147 9.752 12.376 9.608 13.144 9.608C13.8587 9.608 14.488 9.74133 15.032 10.008C15.5867 10.2747 16.0187 10.6587 16.328 11.16C16.648 11.6507 16.808 12.2533 16.808 12.968C16.808 13.704 16.6427 14.312 16.312 14.792C15.992 15.272 15.5493 15.6293 14.984 15.864C14.4293 16.0987 13.784 16.2213 13.048 16.232L13 17.512H11.192ZM12.104 21.112C11.7307 21.112 11.4213 20.9947 11.176 20.76C10.9413 20.5253 10.824 20.2427 10.824 19.912C10.824 19.5707 10.9413 19.2827 11.176 19.048C11.4213 18.8133 11.7307 18.696 12.104 18.696C12.4773 18.696 12.7813 18.8133 13.016 19.048C13.2507 19.2827 13.368 19.5707 13.368 19.912C13.368 20.2427 13.2507 20.5253 13.016 20.76C12.7813 20.9947 12.4773 21.112 12.104 21.112Z" fill="#A08BC8"/>
</svg>
