<svg width="102" height="19" viewBox="0 0 102 19" fill="none" xmlns="http://www.w3.org/2000/svg">
              <path d="M0.808594 5.04719H3.23554V17.5093H11.6528V18.5302H0.808594V5.04719Z" fill="black" />
              <path d="M13.3925 5.04719H25.1612V6.06805H15.8194V10.8064H24.0826V11.808H15.8194V17.5093H25.1612V18.5302H13.3925V5.04719Z" fill="black" />
              <path d="M38.6891 18.7228C36.6987 18.7228 35.1257 18.3376 33.97 17.5671C32.8143 16.7967 32.1851 15.7052 32.0824 14.2927H34.1049C34.1947 15.4741 34.6121 16.3408 35.3568 16.893C36.1016 17.4323 37.1995 17.702 38.6506 17.702C39.909 17.702 40.8592 17.4837 41.5012 17.0471C42.1561 16.6105 42.4836 15.9748 42.4836 15.1402C42.4836 14.6522 42.3616 14.2413 42.1176 13.9075C41.8736 13.5736 41.4435 13.2782 40.8271 13.0214C40.2107 12.7518 39.3311 12.5014 38.1883 12.2702C36.3905 11.9107 34.978 11.442 33.9508 10.8641C32.9363 10.2863 32.4291 9.45164 32.4291 8.36016C32.4291 7.15311 32.9877 6.26708 34.1049 5.70208C35.2349 5.13708 36.6923 4.85458 38.4772 4.85458C40.352 4.85458 41.7966 5.18202 42.811 5.83691C43.8383 6.47896 44.4226 7.3714 44.5638 8.51425H42.5606C42.368 7.57686 41.925 6.90271 41.2316 6.4918C40.5382 6.08089 39.5751 5.87543 38.3424 5.87543C37.1995 5.87543 36.3328 6.06805 35.7421 6.45328C35.1514 6.83851 34.856 7.35214 34.856 7.99419C34.856 8.37942 34.9652 8.71329 35.1835 8.99579C35.4018 9.26545 35.8063 9.51585 36.397 9.74698C36.9876 9.97812 37.8287 10.2093 38.9202 10.4404C40.3199 10.7357 41.4435 11.0503 42.291 11.3842C43.1385 11.7181 43.7869 12.1611 44.2364 12.7132C44.6858 13.2654 44.9105 13.9781 44.9105 14.8513C44.9105 16.0712 44.3519 17.0214 43.2348 17.702C42.1176 18.3825 40.6024 18.7228 38.6891 18.7228Z" fill="black" />
              <path d="M56.2981 15.0631H48.8247L47.1104 18.5302H45.4539L52.4651 4.85458H53.8712L60.4778 18.5302H57.9161L56.2981 15.0631ZM55.8166 14.0423L52.6769 7.30078L49.3447 14.0423H55.8166Z" fill="black" />
              <path d="M62.0728 5.04719H68.5253C69.6168 5.04719 70.5735 5.1756 71.3953 5.43242C72.23 5.68924 72.872 6.06163 73.3214 6.54958C73.7709 7.0247 73.9956 7.58328 73.9956 8.22533C73.9956 9.02147 73.6682 9.71488 73.0133 10.3056C72.3712 10.8962 71.5173 11.2943 70.4515 11.4998C71.7998 11.6539 72.8592 11.9942 73.6296 12.5206C74.4001 13.0343 74.7853 13.824 74.7853 14.8898C74.7853 16.0583 74.2845 16.9572 73.2829 17.5864C72.2942 18.2156 70.8624 18.5302 68.9876 18.5302H62.0728V5.04719ZM67.8127 11.0375C69.0326 11.0375 69.9635 10.8064 70.6056 10.3441C71.2605 9.88181 71.5879 9.21408 71.5879 8.3409C71.5879 6.82566 70.3488 6.06805 67.8705 6.06805H64.4997V11.0375H67.8127ZM69.1802 17.5093C70.1947 17.5093 70.978 17.2782 71.5301 16.8159C72.0823 16.3537 72.3584 15.6795 72.3584 14.7935C72.3584 13.8946 71.9603 13.214 71.1642 12.7518C70.3809 12.2767 69.2252 12.0391 67.6971 12.0391H64.4997V17.5093H69.1802Z" fill="black" />
              <path d="M76.8386 5.04719H79.2656V17.5093H87.6828V18.5302H76.8386V5.04719Z" fill="black" />
              <path d="M89.4225 5.04719H101.191V6.06805H91.8495V10.8064H100.113V11.808H91.8495V17.5093H101.191V18.5302H89.4225V5.04719ZM97.8205 0.694105C98.1287 0.334559 98.5075 0.154785 98.9569 0.154785C99.1624 0.154785 99.3293 0.206149 99.4577 0.308877C99.5861 0.411605 99.6503 0.540014 99.6503 0.694105C99.6503 0.976607 99.3999 1.29121 98.8991 1.63792L95.9521 3.69889H95.1432L97.8205 0.694105Z" fill="black" />
            </svg>