<svg width="320" height="25" viewBox="0 0 320 25" fill="none" xmlns="http://www.w3.org/2000/svg">
<path fill-rule="evenodd" clip-rule="evenodd" d="M24.6071 1.28626C23.8224 1.02156 22.9876 0.94549 22.1688 1.06406L7.0812 1.05434C6.26242 0.935774 5.42761 1.01185 4.6429 1.27654C3.85819 1.54123 3.14517 1.98728 2.56032 2.57936C1.97543 3.17141 1.53483 3.89319 1.27333 4.68756C1.01185 5.48192 0.936701 6.327 1.05383 7.15585V17.8432C0.936445 18.6727 1.01166 19.5184 1.27349 20.3134C1.53531 21.1083 1.97655 21.8305 2.56217 22.4227C3.1478 23.0149 3.86171 23.4607 4.64725 23.725C5.43276 23.9892 6.26834 24.0644 7.0876 23.9447H22.1688C22.9857 24.0607 23.8181 23.983 24.6003 23.7179C25.3825 23.4527 26.0931 23.0072 26.6763 22.4166C27.2594 21.826 27.6991 21.1064 27.9606 20.3144C28.2222 19.5224 28.2984 18.6798 28.1834 17.8529V11.7514H13.115V13.2768H26.6894V17.8529C26.777 18.4745 26.7206 19.1083 26.5244 19.7039C26.3282 20.2996 25.9977 20.8409 25.5591 21.2849C25.1205 21.7289 24.5858 22.0635 23.9974 22.262C23.4089 22.4606 22.7829 22.5178 22.1688 22.4291H7.0876C6.47354 22.5178 5.84751 22.4606 5.25904 22.262C4.6706 22.0635 4.13591 21.7289 3.6973 21.2849C3.25871 20.8409 2.92823 20.2996 2.73205 19.7039C2.53588 19.1083 2.47938 18.4745 2.56707 17.8529V7.16557C2.47938 6.54395 2.53588 5.91022 2.73205 5.31452C2.92823 4.71884 3.25871 4.17757 3.6973 3.73356C4.13591 3.28955 4.6706 2.95504 5.25904 2.75645C5.84751 2.55786 6.47354 2.50066 7.0876 2.58943H22.1688C22.7822 2.50235 23.4071 2.56077 23.9943 2.76011C24.5815 2.95944 25.1149 3.29422 25.5523 3.738C25.9898 4.18178 26.3194 4.72247 26.515 5.3173C26.7107 5.91213 26.7671 6.54486 26.6798 7.16557H28.1962C28.3133 6.33671 28.2382 5.49163 27.9767 4.69727C27.7152 3.90291 27.2746 3.18112 26.6897 2.58908C26.1049 1.997 25.3918 1.55095 24.6071 1.28626ZM61.0434 1.28626C60.2586 1.02156 59.4239 0.94549 58.6049 1.06406L37.4963 1.07701V23.9577H39.0031V13.2703H58.5985C59.2127 13.1815 59.8388 13.2387 60.4272 13.4373C61.0155 13.6359 61.5504 13.9704 61.989 14.4144C62.4277 14.8585 62.7581 15.3997 62.9543 15.9954C63.1504 16.5911 63.207 17.2248 63.119 17.8464V23.948H64.6323V17.8464C64.7586 16.806 64.5884 15.7507 64.1425 14.8047C63.6965 13.8586 62.993 13.0612 62.1145 12.506C62.993 11.9508 63.6965 11.1533 64.1425 10.2073C64.5884 9.26129 64.7586 8.206 64.6323 7.16557C64.7497 6.33671 64.6745 5.49163 64.4128 4.69727C64.1514 3.90291 63.7109 3.18112 63.1261 2.58908C62.5409 1.997 61.8281 1.55095 61.0434 1.28626ZM63.119 7.16557C63.207 6.54395 63.1504 5.91022 62.9543 5.31452C62.7581 4.71884 62.4277 4.17757 61.9891 3.73356C61.5504 3.28955 61.0155 2.95504 60.4272 2.75645C59.8388 2.55786 59.2127 2.50066 58.5985 2.58943H39.0031V11.7417H58.5921C59.2067 11.8316 59.8337 11.7752 60.4227 11.5771C61.012 11.379 61.5476 11.0447 61.9871 10.6005C62.4264 10.1564 62.7575 9.61469 62.9539 9.01843C63.1507 8.42221 63.207 7.7878 63.119 7.16557ZM77.5249 23.7225C78.3097 23.9872 79.1444 24.0633 79.9631 23.9447H95.0315C95.8505 24.0633 96.6852 23.9872 97.47 23.7225C98.2547 23.4578 98.9675 23.0117 99.5527 22.4197C100.137 21.8277 100.578 21.1058 100.839 20.3115C101.101 19.5171 101.176 18.6721 101.059 17.8432V7.15585C101.176 6.327 101.101 5.48192 100.839 4.68756C100.578 3.89319 100.137 3.17141 99.5527 2.57936C98.9675 1.98728 98.2547 1.54123 97.47 1.27654C96.6852 1.01185 95.8505 0.935774 95.0315 1.05434H79.9631C79.1444 0.935774 78.3097 1.01185 77.5249 1.27654C76.7401 1.54123 76.0273 1.98728 75.4422 2.57936C74.8574 3.17141 74.4168 3.89319 74.1555 4.68756C73.8938 5.48192 73.8186 6.327 73.9357 7.15585V17.8432C73.8186 18.6721 73.8938 19.5171 74.1555 20.3115C74.4168 21.1058 74.8574 21.8277 75.4422 22.4197C76.0273 23.0117 76.7401 23.4578 77.5249 23.7225ZM75.4361 17.8432C75.3485 18.4648 75.4051 19.0986 75.6012 19.6942C75.7973 20.2899 76.1278 20.8312 76.5664 21.2752C77.005 21.7192 77.5399 22.0537 78.1283 22.2523C78.7166 22.4509 79.3427 22.5081 79.9566 22.4193H95.0251C95.6394 22.5081 96.2654 22.4509 96.8538 22.2523C97.4421 22.0537 97.977 21.7192 98.4157 21.2752C98.8543 20.8312 99.1848 20.2899 99.3809 19.6942C99.577 19.0986 99.6336 18.4648 99.5456 17.8432V7.15585C99.6336 6.53423 99.577 5.90051 99.3809 5.3048C99.1848 4.70913 98.8543 4.16786 98.4157 3.72385C97.977 3.27984 97.4421 2.94532 96.8538 2.74673C96.2654 2.54814 95.6394 2.49095 95.0251 2.57972H79.9566C79.3427 2.49095 78.7166 2.54814 78.1283 2.74673C77.5399 2.94532 77.005 3.27984 76.5664 3.72385C76.1278 4.16786 75.7973 4.70913 75.6012 5.3048C75.4051 5.90051 75.3485 6.53423 75.4361 7.15585V17.8432ZM135.982 1.06406V17.8432C136.07 18.4648 136.013 19.0986 135.817 19.6942C135.621 20.2899 135.29 20.8312 134.852 21.2752C134.413 21.7192 133.878 22.0537 133.29 22.2523C132.702 22.4509 132.076 22.5081 131.462 22.4193H116.393C115.779 22.5081 115.153 22.4509 114.564 22.2523C113.976 22.0537 113.441 21.7192 113.003 21.2752C112.564 20.8312 112.234 20.2899 112.037 19.6942C111.841 19.0986 111.785 18.4648 111.873 17.8432V1.06406H110.365V17.8432C110.248 18.6721 110.324 19.5171 110.585 20.3115C110.847 21.1058 111.287 21.8277 111.872 22.4197C112.457 23.0117 113.17 23.4578 113.955 23.7225C114.739 23.9872 115.574 24.0633 116.393 23.9447H131.462C132.28 24.0633 133.115 23.9872 133.9 23.7225C134.685 23.4578 135.397 23.0117 135.982 22.4197C136.567 21.8277 137.008 21.1058 137.269 20.3115C137.531 19.5171 137.606 18.6721 137.489 17.8432V1.06406H135.982ZM167.895 1.06406C168.713 0.94549 169.548 1.02156 170.333 1.28626C171.118 1.55095 171.83 1.997 172.415 2.58908C173 3.18112 173.441 3.90291 173.702 4.69727C173.964 5.49163 174.039 6.33671 173.922 7.16557C174.039 7.99442 173.964 8.8395 173.702 9.63383C173.441 10.4282 173 11.15 172.415 11.7421C171.83 12.3341 171.118 12.7802 170.333 13.0448C169.548 13.3096 168.713 13.3856 167.895 13.2671H148.306V23.9544H146.798V1.07377L167.895 1.06406ZM172.25 5.31452C172.446 5.91022 172.503 6.54395 172.415 7.16557H172.418C172.506 7.78747 172.449 8.42156 172.253 9.01752C172.057 9.61349 171.726 10.155 171.287 10.599C170.848 11.0431 170.313 11.3776 169.724 11.5759C169.135 11.7742 168.509 11.831 167.895 11.7417H148.306V2.58943H167.895C168.509 2.50066 169.135 2.55786 169.723 2.75645C170.311 2.95504 170.846 3.28955 171.285 3.73356C171.723 4.17757 172.054 4.71884 172.25 5.31452ZM188.552 23.9447C187.733 24.0633 186.898 23.9872 186.114 23.7225C185.329 23.4578 184.616 23.0117 184.031 22.4197C183.446 21.8277 183.006 21.1058 182.744 20.3115C182.483 19.5171 182.407 18.6721 182.524 17.8432H184.032C183.944 18.4648 184 19.0986 184.196 19.6942C184.392 20.2899 184.723 20.8312 185.162 21.2752C185.6 21.7192 186.135 22.0537 186.723 22.2523C187.312 22.4509 187.938 22.5081 188.552 22.4193H203.621C204.235 22.5081 204.861 22.4509 205.449 22.2523C206.037 22.0537 206.572 21.7192 207.011 21.2752C207.449 20.8312 207.78 20.2899 207.976 19.6942C208.172 19.0986 208.229 18.4648 208.141 17.8432C208.229 17.2216 208.172 16.5879 207.976 15.9922C207.78 15.3965 207.449 14.8552 207.011 14.4112C206.572 13.9672 206.037 13.6327 205.449 13.4341C204.861 13.2355 204.235 13.1783 203.621 13.2671H188.552C187.733 13.3856 186.898 13.3096 186.114 13.0448C185.329 12.7802 184.616 12.3341 184.031 11.7421C183.446 11.15 183.006 10.4282 182.744 9.63383C182.483 8.8395 182.407 7.99442 182.524 7.16557C182.407 6.33671 182.483 5.49163 182.744 4.69727C183.006 3.90291 183.446 3.18112 184.031 2.58908C184.616 1.997 185.329 1.55095 186.114 1.28626C186.898 1.02156 187.733 0.94549 188.552 1.06406H203.621C204.439 0.946041 205.273 1.02254 206.058 1.28749C206.842 1.55244 207.555 1.99855 208.139 2.59053C208.723 3.18252 209.164 3.90414 209.425 4.69821C209.686 5.49225 209.762 6.337 209.644 7.16557H208.138C208.226 6.54395 208.169 5.91022 207.973 5.31452C207.777 4.71884 207.446 4.17757 207.008 3.73356C206.569 3.28955 206.034 2.95504 205.446 2.75645C204.857 2.55786 204.231 2.50066 203.617 2.58943H188.549C187.935 2.50066 187.309 2.55786 186.72 2.75645C186.132 2.95504 185.597 3.28955 185.158 3.73356C184.72 4.17757 184.389 4.71884 184.193 5.31452C183.997 5.91022 183.94 6.54395 184.028 7.16557C183.94 7.78718 183.997 8.42091 184.193 9.01658C184.389 9.61226 184.72 10.1536 185.158 10.5975C185.597 11.0415 186.132 11.3761 186.72 11.5747C187.309 11.7733 187.935 11.8304 188.549 11.7417H203.617C204.436 11.6231 205.271 11.6992 206.056 11.9639C206.84 12.2286 207.553 12.6746 208.138 13.2667C208.723 13.8588 209.164 14.5806 209.425 15.3749C209.687 16.1693 209.762 17.0144 209.644 17.8432C209.762 18.6721 209.687 19.5171 209.425 20.3115C209.164 21.1058 208.723 21.8277 208.138 22.4197C207.553 23.0117 206.84 23.4578 206.056 23.7225C205.271 23.9872 204.436 24.0633 203.617 23.9447H188.552ZM220.465 23.9447V13.2574H244.581V23.9447H246.087V1.06406H244.581V11.7514H220.465V1.06406H218.958V23.9447H220.465ZM261.415 23.9447C260.597 24.0622 259.763 23.9852 258.978 23.7201C258.195 23.4549 257.482 23.0086 256.899 22.4167C256.314 21.8248 255.874 21.1034 255.613 20.3097C255.352 19.5158 255.277 18.6714 255.394 17.8432V7.15585C255.277 6.327 255.352 5.48192 255.613 4.68756C255.875 3.89319 256.315 3.17141 256.9 2.57936C257.485 1.98728 258.198 1.54123 258.983 1.27654C259.768 1.01185 260.602 0.935774 261.421 1.05434H276.509C277.328 0.935774 278.162 1.01185 278.947 1.27654C279.732 1.54123 280.445 1.98728 281.03 2.57936C281.615 3.17141 282.055 3.89319 282.317 4.68756C282.578 5.48192 282.653 6.327 282.536 7.15585V17.8432C282.653 18.6721 282.578 19.5171 282.317 20.3115C282.055 21.1058 281.615 21.8277 281.03 22.4197C280.445 23.0117 279.732 23.4578 278.947 23.7225C278.162 23.9872 277.328 24.0633 276.509 23.9447H261.415ZM257.059 19.6942C256.863 19.0986 256.806 18.4648 256.894 17.8432L256.92 7.16557C256.832 6.54395 256.889 5.91022 257.085 5.31452C257.281 4.71884 257.611 4.17757 258.05 3.73356C258.489 3.28955 259.024 2.95504 259.612 2.75645C260.2 2.55786 260.826 2.50066 261.44 2.58943H276.509C277.122 2.50102 277.747 2.55812 278.335 2.75619C278.922 2.95426 279.456 3.2879 279.895 3.73075C280.333 4.17359 280.664 4.71353 280.861 5.30794C281.058 5.90235 281.115 6.53498 281.03 7.15585V17.8432C281.117 18.4648 281.061 19.0986 280.864 19.6942C280.668 20.2899 280.338 20.8312 279.899 21.2752C279.461 21.7192 278.926 22.0537 278.337 22.2523C277.749 22.4509 277.123 22.5081 276.509 22.4193H261.415C260.801 22.5081 260.175 22.4509 259.586 22.2523C258.998 22.0537 258.463 21.7192 258.024 21.2752C257.586 20.8312 257.255 20.2899 257.059 19.6942ZM312.92 1.06406C313.738 0.94549 314.573 1.02156 315.358 1.28626C316.143 1.55095 316.855 1.997 317.44 2.58908C318.026 3.18112 318.467 3.90291 318.727 4.69727C318.989 5.49163 319.062 6.33671 318.947 7.16557C319.062 7.99442 318.989 8.8395 318.727 9.63383C318.467 10.4282 318.026 11.15 317.44 11.7421C316.855 12.3341 316.143 12.7802 315.358 13.0448C314.573 13.3096 313.738 13.3856 312.92 13.2671H293.337V23.9544H291.83V1.07377L312.92 1.06406ZM317.275 5.31452C317.472 5.91022 317.527 6.54395 317.44 7.16557H317.46C317.546 7.78841 317.492 8.42347 317.294 9.02031C317.097 9.61712 316.765 10.1592 316.325 10.6035C315.885 11.0478 315.349 11.382 314.759 11.5796C314.168 11.7772 313.541 11.8327 312.926 11.7417H293.337V2.58943H312.92C313.534 2.50066 314.16 2.55786 314.748 2.75645C315.336 2.95504 315.871 3.28955 316.31 3.73356C316.748 4.17757 317.079 4.71884 317.275 5.31452Z" fill="black"/>
<path d="M22.1688 1.06406L22.1682 2.06405L22.2405 2.0641L22.3122 2.05373L22.1688 1.06406ZM24.6071 1.28626L24.9268 0.338712L24.9268 0.338708L24.6071 1.28626ZM7.0812 1.05434L6.93789 2.04402L7.00886 2.05429L7.08056 2.05434L7.0812 1.05434ZM4.6429 1.27654L4.32328 0.328992L4.6429 1.27654ZM2.56032 2.57936L3.27171 3.28215L3.27175 3.28211L2.56032 2.57936ZM1.27333 4.68756L0.323472 4.37486L0.32346 4.3749L1.27333 4.68756ZM1.05383 7.15585H2.05383V7.08555L2.04399 7.01593L1.05383 7.15585ZM1.05383 17.8432L2.04396 17.9833L2.05383 17.9136V17.8432H1.05383ZM1.27349 20.3134L2.22329 20.0005H2.22329L1.27349 20.3134ZM2.56217 22.4227L1.85112 23.1258L1.85114 23.1258L2.56217 22.4227ZM4.64725 23.725L4.96605 22.7771L4.96603 22.7771L4.64725 23.725ZM7.0876 23.9447V22.9447H7.01496L6.94307 22.9552L7.0876 23.9447ZM22.1688 23.9447L22.3094 22.9547L22.2395 22.9447H22.1688V23.9447ZM24.6003 23.7179L24.2792 22.7708L24.2792 22.7708L24.6003 23.7179ZM26.6763 22.4166L27.3879 23.1192L27.3879 23.1192L26.6763 22.4166ZM27.9606 20.3144L28.9102 20.628L28.9102 20.628L27.9606 20.3144ZM28.1834 17.8529H27.1834V17.9221L27.193 17.9907L28.1834 17.8529ZM28.1834 11.7514H29.1834V10.7514H28.1834V11.7514ZM13.115 11.7514V10.7514H12.115V11.7514H13.115ZM13.115 13.2768H12.115V14.2768H13.115V13.2768ZM26.6894 13.2768H27.6894V12.2768H26.6894V13.2768ZM26.6894 17.8529H25.6894V17.9231L25.6992 17.9926L26.6894 17.8529ZM26.5244 19.7039L25.5746 19.3911V19.3911L26.5244 19.7039ZM25.5591 21.2849L24.8477 20.5821L24.8477 20.5822L25.5591 21.2849ZM23.9974 22.262L24.3171 23.2095L24.3171 23.2095L23.9974 22.262ZM22.1688 22.4291L22.3119 21.4393L22.2407 21.4291H22.1688V22.4291ZM7.0876 22.4291V21.4291H7.01572L6.94458 21.4393L7.0876 22.4291ZM5.25904 22.262L4.93927 23.2095L4.93929 23.2095L5.25904 22.262ZM3.6973 21.2849L4.40871 20.5821H4.40871L3.6973 21.2849ZM2.56707 17.8529L3.55726 17.9926L3.56707 17.9231V17.8529H2.56707ZM2.56707 7.16557H3.56707V7.09538L3.55726 7.02588L2.56707 7.16557ZM2.73205 5.31452L1.78224 5.00171L1.78223 5.00172L2.73205 5.31452ZM3.6973 3.73356L2.98588 3.03079L2.98586 3.03082L3.6973 3.73356ZM5.25904 2.75645L4.93929 1.80895L4.93927 1.80895L5.25904 2.75645ZM7.0876 2.58943L6.94453 3.57914L7.01569 3.58943H7.0876V2.58943ZM22.1688 2.58943V3.58943H22.2395L22.3094 3.5795L22.1688 2.58943ZM23.9943 2.76011L24.3158 1.81318L24.3157 1.81318L23.9943 2.76011ZM25.5523 3.738L24.8402 4.44002L24.8402 4.44002L25.5523 3.738ZM26.515 5.3173L25.5651 5.62977V5.62977L26.515 5.3173ZM26.6798 7.16557L25.6895 7.02628L25.5293 8.16557H26.6798V7.16557ZM28.1962 7.16557V8.16557H29.0648L29.1864 7.30549L28.1962 7.16557ZM27.9767 4.69727L27.0268 5.00993L27.0268 5.00997L27.9767 4.69727ZM26.6897 2.58908L25.9783 3.29183L25.9783 3.29185L26.6897 2.58908ZM58.6049 1.06406L58.6055 2.06405L58.6772 2.06401L58.7482 2.05374L58.6049 1.06406ZM61.0434 1.28626L60.7238 2.23381L61.0434 1.28626ZM37.4963 1.07701L37.4957 0.0770097L36.4963 0.0776231V1.07701H37.4963ZM37.4963 23.9577H36.4963V24.9577H37.4963V23.9577ZM39.0031 23.9577V24.9577H40.0031V23.9577H39.0031ZM39.0031 13.2703V12.2703H38.0031V13.2703H39.0031ZM58.5985 13.2703V14.2703H58.6704L58.7415 14.26L58.5985 13.2703ZM60.4272 13.4373L60.747 12.4899V12.4898L60.4272 13.4373ZM61.989 14.4144L62.7005 13.7117V13.7117L61.989 14.4144ZM62.9543 15.9954L63.9041 15.6827L63.9041 15.6827L62.9543 15.9954ZM63.119 17.8464L62.1289 17.7063L62.119 17.776V17.8464H63.119ZM63.119 23.948H62.119V24.948H63.119V23.948ZM64.6323 23.948V24.948H65.6323V23.948H64.6323ZM64.6323 17.8464L63.6396 17.7259L63.6323 17.7859V17.8464H64.6323ZM64.1425 14.8047L63.2379 15.2311L63.2379 15.2311L64.1425 14.8047ZM62.1145 12.506L61.5802 11.6607L60.2426 12.506L61.5803 13.3514L62.1145 12.506ZM64.1425 10.2073L65.047 10.6337L65.047 10.6337L64.1425 10.2073ZM64.6323 7.16557L63.6422 7.02531L63.6237 7.15555L63.6396 7.28614L64.6323 7.16557ZM64.4128 4.69727L63.4629 5.00983L63.463 5.01018L64.4128 4.69727ZM63.1261 2.58908L63.8375 1.88632L63.8373 1.88615L63.1261 2.58908ZM62.9543 5.31452L63.9041 5.00181L63.9041 5.0018L62.9543 5.31452ZM63.119 7.16557L62.1289 7.02542L62.1091 7.1655L62.1289 7.30557L63.119 7.16557ZM61.9891 3.73356L62.7005 3.03079L62.7005 3.03079L61.9891 3.73356ZM60.4272 2.75645L60.747 1.80897V1.80897L60.4272 2.75645ZM58.5985 2.58943V3.58943H58.6704L58.7415 3.57915L58.5985 2.58943ZM39.0031 2.58943V1.58943H38.0031V2.58943H39.0031ZM39.0031 11.7417H38.0031V12.7417H39.0031V11.7417ZM58.5921 11.7417L58.7368 10.7522L58.6648 10.7417H58.5921V11.7417ZM60.4227 11.5771L60.1041 10.6293L60.1039 10.6293L60.4227 11.5771ZM61.9871 10.6005L62.6979 11.304L62.6981 11.3037L61.9871 10.6005ZM62.9539 9.01843L62.0043 8.70505L62.0042 8.70553L62.9539 9.01843ZM79.9631 23.9447V22.9447H79.891L79.8197 22.955L79.9631 23.9447ZM77.5249 23.7225L77.8445 22.7749L77.8445 22.7749L77.5249 23.7225ZM95.0315 23.9447L95.1748 22.955L95.1035 22.9447H95.0315V23.9447ZM97.47 23.7225L97.1504 22.7749L97.1503 22.7749L97.47 23.7225ZM99.5527 22.4197L100.264 23.1226L100.264 23.1225L99.5527 22.4197ZM100.839 20.3115L99.8896 19.9986L99.8895 19.9989L100.839 20.3115ZM101.059 17.8432H100.059V17.9137L100.069 17.9835L101.059 17.8432ZM101.059 7.15585L100.069 7.0156L100.059 7.08538V7.15585H101.059ZM100.839 4.68756L99.8895 5.00011L99.8896 5.00046L100.839 4.68756ZM99.5527 2.57936L100.264 1.87661L100.264 1.87644L99.5527 2.57936ZM97.47 1.27654L97.7896 0.328984L97.47 1.27654ZM95.0315 1.05434V2.05434H95.1035L95.1748 2.04402L95.0315 1.05434ZM79.9631 1.05434L79.8197 2.04401L79.891 2.05434H79.9631V1.05434ZM77.5249 1.27654L77.2053 0.328984L77.5249 1.27654ZM75.4422 2.57936L74.7309 1.87643L74.7308 1.87661L75.4422 2.57936ZM74.1555 4.68756L75.1052 5.00046L75.1054 5.00012L74.1555 4.68756ZM73.9357 7.15585H74.9357V7.08557L74.9258 7.01597L73.9357 7.15585ZM73.9357 17.8432L74.9258 17.9831L74.9357 17.9135V17.8432H73.9357ZM74.1555 20.3115L75.1053 19.9989L75.1052 19.9986L74.1555 20.3115ZM75.4422 22.4197L74.7308 23.1224L74.7309 23.1226L75.4422 22.4197ZM75.4361 17.8432L76.4263 17.9828L76.4361 17.9134V17.8432H75.4361ZM76.5664 21.2752L77.2778 20.5724L77.2778 20.5724L76.5664 21.2752ZM78.1283 22.2523L78.4481 21.3048L78.1283 22.2523ZM79.9566 22.4193V21.4193H79.8848L79.8136 21.4296L79.9566 22.4193ZM95.0251 22.4193L95.1681 21.4296L95.097 21.4193H95.0251V22.4193ZM96.8538 22.2523L96.534 21.3048L96.8538 22.2523ZM98.4157 21.2752L97.7043 20.5724L97.7042 20.5724L98.4157 21.2752ZM99.3809 19.6942L100.331 20.007V20.0069L99.3809 19.6942ZM99.5456 17.8432H98.5456V17.9136L98.5555 17.9833L99.5456 17.8432ZM99.5456 7.15585L98.5555 7.01571L98.5456 7.08543V7.15585H99.5456ZM99.3809 5.3048L100.331 4.9921L100.331 4.99207L99.3809 5.3048ZM98.4157 3.72385L97.7042 4.42662L97.7042 4.42662L98.4157 3.72385ZM96.8538 2.74673L96.534 3.69421L96.534 3.69421L96.8538 2.74673ZM95.0251 2.57972V3.57972H95.097L95.1681 3.56944L95.0251 2.57972ZM79.9566 2.57972L79.8135 3.56942L79.8847 3.57972H79.9566V2.57972ZM78.1283 2.74673L78.4481 3.69421L78.4481 3.69421L78.1283 2.74673ZM75.6012 5.3048L74.6514 4.99208L74.6514 4.9921L75.6012 5.3048ZM75.4361 7.15585H76.4361V7.08569L76.4263 7.01621L75.4361 7.15585ZM135.982 17.8432H134.982V17.9136L134.992 17.9834L135.982 17.8432ZM135.982 1.06406V0.0640552H134.982V1.06406H135.982ZM135.817 19.6942L136.767 20.007V20.0069L135.817 19.6942ZM134.852 21.2752L134.14 20.5724L134.14 20.5724L134.852 21.2752ZM133.29 22.2523L132.97 21.3048L132.97 21.3049L133.29 22.2523ZM131.462 22.4193L131.605 21.4296L131.534 21.4193H131.462V22.4193ZM116.393 22.4193V21.4193H116.321L116.25 21.4296L116.393 22.4193ZM114.564 22.2523L114.884 21.3049V21.3048L114.564 22.2523ZM113.003 21.2752L113.714 20.5724L113.714 20.5724L113.003 21.2752ZM111.873 17.8432L112.863 17.9833L112.873 17.9136V17.8432H111.873ZM111.873 1.06406H112.873V0.0640552H111.873V1.06406ZM110.365 1.06406V0.0640552H109.365V1.06406H110.365ZM110.365 17.8432L111.356 17.9831L111.365 17.9135V17.8432H110.365ZM110.585 20.3115L111.535 19.9989L111.535 19.9986L110.585 20.3115ZM111.872 22.4197L111.161 23.1225L111.161 23.1227L111.872 22.4197ZM113.955 23.7225L114.274 22.7749L114.274 22.7749L113.955 23.7225ZM116.393 23.9447V22.9447H116.321L116.25 22.955L116.393 23.9447ZM131.462 23.9447L131.605 22.955L131.534 22.9447H131.462V23.9447ZM133.9 23.7225L133.58 22.7749L133.58 22.7749L133.9 23.7225ZM135.982 22.4197L136.694 23.1227L136.694 23.1225L135.982 22.4197ZM137.269 20.3115L136.319 19.9986L136.319 19.9989L137.269 20.3115ZM137.489 17.8432H136.489V17.9135L136.499 17.9831L137.489 17.8432ZM137.489 1.06406H138.489V0.0640552H137.489V1.06406ZM170.333 1.28626L170.013 2.23381L170.333 1.28626ZM167.895 1.06406L167.895 2.06406L167.967 2.06402L168.038 2.05373L167.895 1.06406ZM172.415 2.58908L173.127 1.88632L173.127 1.88615L172.415 2.58908ZM173.702 4.69727L172.752 5.00982L172.752 5.01018L173.702 4.69727ZM173.922 7.16557L172.932 7.02568L172.912 7.16557L172.932 7.30545L173.922 7.16557ZM173.702 9.63383L172.752 9.32091L172.752 9.32128L173.702 9.63383ZM172.415 11.7421L173.127 12.445L173.127 12.4448L172.415 11.7421ZM170.333 13.0448L170.013 12.0973L170.013 12.0973L170.333 13.0448ZM167.895 13.2671L168.038 12.2774L167.967 12.2671H167.895V13.2671ZM148.306 13.2671V12.2671H147.306V13.2671H148.306ZM148.306 23.9544V24.9544H149.306V23.9544H148.306ZM146.798 23.9544H145.798V24.9544H146.798V23.9544ZM146.798 1.07377L146.798 0.0737711L145.798 0.0742314V1.07377H146.798ZM172.415 7.16557L171.425 7.02542L171.263 8.16557H172.415V7.16557ZM172.25 5.31452L173.2 5.0018V5.00179L172.25 5.31452ZM172.418 7.16557L173.408 7.02551L173.287 6.16557H172.418V7.16557ZM172.253 9.01752L173.203 9.33057L173.203 9.33009L172.253 9.01752ZM169.724 11.5759L169.405 10.6282L169.405 10.6283L169.724 11.5759ZM167.895 11.7417L168.038 10.7521L167.967 10.7417H167.895V11.7417ZM148.306 11.7417H147.306V12.7417H148.306V11.7417ZM148.306 2.58943V1.58943H147.306V2.58943H148.306ZM167.895 2.58943V3.58943H167.967L168.038 3.57914L167.895 2.58943ZM169.723 2.75645L170.043 1.80897V1.80897L169.723 2.75645ZM186.114 23.7225L186.433 22.7749L186.433 22.7749L186.114 23.7225ZM188.552 23.9447V22.9447H188.48L188.409 22.955L188.552 23.9447ZM184.031 22.4197L183.32 23.1225L183.32 23.1226L184.031 22.4197ZM182.744 20.3115L183.694 19.9989L183.694 19.9986L182.744 20.3115ZM182.524 17.8432V16.8432H181.656L181.534 17.7033L182.524 17.8432ZM184.032 17.8432L185.022 17.9834L185.183 16.8432H184.032V17.8432ZM184.196 19.6942L185.146 19.3815V19.3815L184.196 19.6942ZM185.162 21.2752L185.873 20.5724L185.873 20.5724L185.162 21.2752ZM186.723 22.2523L187.043 21.3049L187.043 21.3048L186.723 22.2523ZM188.552 22.4193V21.4193H188.48L188.409 21.4296L188.552 22.4193ZM203.621 22.4193L203.764 21.4296L203.692 21.4193H203.621V22.4193ZM205.449 22.2523L205.769 23.1998L205.769 23.1998L205.449 22.2523ZM207.011 21.2752L206.299 20.5724L206.299 20.5724L207.011 21.2752ZM207.976 19.6942L208.926 20.007V20.0069L207.976 19.6942ZM208.141 17.8432L207.151 17.7036L207.131 17.8432L207.151 17.9829L208.141 17.8432ZM207.976 15.9922L208.926 15.6795L208.926 15.6794L207.976 15.9922ZM207.011 14.4112L207.722 13.7084L207.722 13.7084L207.011 14.4112ZM205.449 13.4341L205.769 12.4866L205.769 12.4866L205.449 13.4341ZM203.621 13.2671V14.2671H203.693L203.764 14.2568L203.621 13.2671ZM188.552 13.2671V12.2671H188.48L188.409 12.2774L188.552 13.2671ZM186.114 13.0448L186.433 12.0973L186.433 12.0973L186.114 13.0448ZM184.031 11.7421L183.32 12.4448L183.32 12.445L184.031 11.7421ZM182.744 9.63383L183.694 9.32128L183.694 9.32091L182.744 9.63383ZM182.524 7.16557L183.515 7.30545L183.534 7.16557L183.515 7.02568L182.524 7.16557ZM182.744 4.69727L183.694 5.01018L183.694 5.00982L182.744 4.69727ZM184.031 2.58908L183.32 1.88615L183.32 1.88632L184.031 2.58908ZM188.552 1.06406L188.409 2.05373L188.48 2.06406H188.552V1.06406ZM203.621 1.06406V2.06406H203.692L203.763 2.05382L203.621 1.06406ZM206.058 1.28749L206.378 0.340105L206.378 0.340065L206.058 1.28749ZM208.139 2.59053L208.851 1.88813L208.851 1.88794L208.139 2.59053ZM209.425 4.69821L210.375 4.38588L210.375 4.38556L209.425 4.69821ZM209.644 7.16557V8.16557H210.513L210.635 7.3055L209.644 7.16557ZM208.138 7.16557L207.147 7.02543L206.986 8.16557H208.138V7.16557ZM207.973 5.31452L207.023 5.62722V5.62723L207.973 5.31452ZM205.446 2.75645L205.126 3.70393L205.126 3.70393L205.446 2.75645ZM203.617 2.58943V3.58943H203.689L203.76 3.57914L203.617 2.58943ZM188.549 2.58943L188.406 3.57914L188.477 3.58943H188.549V2.58943ZM186.72 2.75645L186.4 1.80897L186.4 1.80897L186.72 2.75645ZM185.158 3.73356L184.447 3.03078V3.03079L185.158 3.73356ZM184.193 5.31452L183.243 5.00179L183.243 5.00182L184.193 5.31452ZM184.028 7.16557L185.019 7.30568L185.038 7.16557L185.019 7.02545L184.028 7.16557ZM184.193 9.01658L183.243 9.32929V9.32931L184.193 9.01658ZM185.158 10.5975L185.87 9.89476L185.87 9.89474L185.158 10.5975ZM186.72 11.5747L186.4 12.5222L186.4 12.5222L186.72 11.5747ZM188.549 11.7417V10.7417H188.477L188.406 10.752L188.549 11.7417ZM203.617 11.7417V12.7417H203.689L203.761 12.7314L203.617 11.7417ZM206.056 11.9639L206.375 11.0164L206.375 11.0163L206.056 11.9639ZM208.138 13.2667L208.85 12.564L208.85 12.5638L208.138 13.2667ZM209.425 15.3749L208.475 15.6875L208.475 15.6878L209.425 15.3749ZM209.644 17.8432L208.654 17.7029L208.634 17.8432L208.654 17.9835L209.644 17.8432ZM209.425 20.3115L208.475 19.9986L208.475 19.9989L209.425 20.3115ZM208.138 22.4197L208.849 23.1226L208.85 23.1225L208.138 22.4197ZM206.056 23.7225L205.736 22.7749L205.736 22.7749L206.056 23.7225ZM203.617 23.9447L203.761 22.955L203.689 22.9447H203.617V23.9447ZM220.465 13.2574V12.2574H219.465V13.2574H220.465ZM220.465 23.9447V24.9447H221.465V23.9447H220.465ZM244.581 13.2574H245.581V12.2574H244.581V13.2574ZM244.581 23.9447H243.581V24.9447H244.581V23.9447ZM246.087 23.9447V24.9447H247.087V23.9447H246.087ZM246.087 1.06406H247.087V0.0640552H246.087V1.06406ZM244.581 1.06406V0.0640552H243.581V1.06406H244.581ZM244.581 11.7514V12.7514H245.581V11.7514H244.581ZM220.465 11.7514H219.465V12.7514H220.465V11.7514ZM220.465 1.06406H221.465V0.0640552H220.465V1.06406ZM218.958 1.06406V0.0640552H217.958V1.06406H218.958ZM218.958 23.9447H217.958V24.9447H218.958V23.9447ZM258.978 23.7201L258.658 24.6673L258.658 24.6674L258.978 23.7201ZM261.415 23.9447V22.9447H261.344L261.273 22.9549L261.415 23.9447ZM256.899 22.4167L257.611 21.7145L257.61 21.7143L256.899 22.4167ZM255.613 20.3097L256.563 19.9973V19.9972L255.613 20.3097ZM255.394 17.8432L256.384 17.9832L256.394 17.9135V17.8432H255.394ZM255.394 7.15585H256.394V7.08537L256.384 7.01559L255.394 7.15585ZM255.613 4.68756L256.563 5.00046L256.563 5.0001L255.613 4.68756ZM256.9 2.57936L256.189 1.87642L256.189 1.87661L256.9 2.57936ZM258.983 1.27654L259.302 2.2241L259.302 2.22409L258.983 1.27654ZM261.421 1.05434L261.278 2.04402L261.349 2.05434H261.421V1.05434ZM276.509 1.05434V2.05434H276.581L276.652 2.04402L276.509 1.05434ZM278.947 1.27654L278.628 2.22409L278.628 2.2241L278.947 1.27654ZM281.03 2.57936L281.741 1.8766L281.741 1.87643L281.03 2.57936ZM282.317 4.68756L281.367 5.00012L281.367 5.00048L282.317 4.68756ZM282.536 7.15585L281.546 7.01596L281.536 7.08556V7.15585H282.536ZM282.536 17.8432H281.536V17.9135L281.546 17.9831L282.536 17.8432ZM282.317 20.3115L281.367 19.9986L281.367 19.9989L282.317 20.3115ZM281.03 22.4197L281.741 23.1226L281.741 23.1225L281.03 22.4197ZM278.947 23.7225L278.628 22.7749L278.627 22.7749L278.947 23.7225ZM276.509 23.9447L276.652 22.955L276.581 22.9447H276.509V23.9447ZM256.894 17.8432L257.885 17.9833L257.894 17.9148L257.894 17.8456L256.894 17.8432ZM257.059 19.6942L258.009 19.3815L258.009 19.3815L257.059 19.6942ZM256.92 7.16557L257.92 7.16793L257.92 7.09658L257.91 7.02593L256.92 7.16557ZM257.085 5.31452L256.135 5.00177L256.135 5.00182L257.085 5.31452ZM258.05 3.73356L257.339 3.03078L257.339 3.03081L258.05 3.73356ZM259.612 2.75645L259.932 3.70393V3.70393L259.612 2.75645ZM261.44 2.58943L261.297 3.57914L261.368 3.58943H261.44V2.58943ZM276.509 2.58943V3.58943H276.58L276.651 3.5792L276.509 2.58943ZM278.335 2.75619L278.654 1.80861L278.654 1.80856L278.335 2.75619ZM279.895 3.73075L280.606 3.0273L280.605 3.02728L279.895 3.73075ZM280.861 5.30794L279.911 5.62221L279.911 5.62261L280.861 5.30794ZM281.03 7.15585L280.039 7.01908L280.03 7.08714V7.15585H281.03ZM281.03 17.8432H280.03V17.9134L280.039 17.9828L281.03 17.8432ZM280.864 19.6942L279.915 19.3815L279.915 19.3815L280.864 19.6942ZM279.899 21.2752L279.188 20.5724L279.188 20.5724L279.899 21.2752ZM278.337 22.2523L278.657 23.1998L278.337 22.2523ZM276.509 22.4193L276.652 21.4296L276.581 21.4193H276.509V22.4193ZM261.415 22.4193V21.4193H261.343L261.272 21.4296L261.415 22.4193ZM259.586 22.2523L259.266 23.1998L259.586 22.2523ZM258.024 21.2752L258.736 20.5724L258.736 20.5724L258.024 21.2752ZM315.358 1.28626L315.038 2.23381L315.038 2.23381L315.358 1.28626ZM312.92 1.06406L312.92 2.06406L312.992 2.06402L313.063 2.05373L312.92 1.06406ZM317.44 2.58908L316.729 3.29201L316.729 3.29221L317.44 2.58908ZM318.727 4.69727L317.776 5.0074L317.777 5.01089L318.727 4.69727ZM318.947 7.16557L317.957 7.02793L317.938 7.16557L317.957 7.3032L318.947 7.16557ZM318.727 9.63383L317.777 9.3202L317.776 9.32371L318.727 9.63383ZM317.44 11.7421L316.729 11.0389L316.729 11.0391L317.44 11.7421ZM315.358 13.0448L315.038 12.0973L315.038 12.0973L315.358 13.0448ZM312.92 13.2671L313.063 12.2774L312.992 12.2671H312.92V13.2671ZM293.337 13.2671V12.2671H292.337V13.2671H293.337ZM293.337 23.9544V24.9544H294.337V23.9544H293.337ZM291.83 23.9544H290.83V24.9544H291.83V23.9544ZM291.83 1.07377L291.83 0.0737711L290.83 0.0742316V1.07377H291.83ZM317.44 7.16557L316.45 7.02795L316.292 8.16557H317.44V7.16557ZM317.275 5.31452L316.325 5.62722L316.326 5.62905L317.275 5.31452ZM317.46 7.16557L318.45 7.02822L318.331 6.16557H317.46V7.16557ZM317.294 9.02031L316.345 8.70583L316.344 8.70678L317.294 9.02031ZM316.325 10.6035L315.615 9.89964L315.615 9.89966L316.325 10.6035ZM314.759 11.5796L315.076 12.5279L315.076 12.5278L314.759 11.5796ZM312.926 11.7417L313.072 10.7525L313 10.7417H312.926V11.7417ZM293.337 11.7417H292.337V12.7417H293.337V11.7417ZM293.337 2.58943V1.58943H292.337V2.58943H293.337ZM312.92 2.58943V3.58943H312.992L313.063 3.57914L312.92 2.58943ZM314.748 2.75645L314.428 3.70392V3.70393L314.748 2.75645ZM316.31 3.73356L317.021 3.03081L317.021 3.03078L316.31 3.73356ZM22.3122 2.05373C22.9753 1.95771 23.6515 2.01927 24.2875 2.2338L24.9268 0.338708C23.9933 0.0238587 23 -0.0667247 22.0255 0.0743776L22.3122 2.05373ZM7.08056 2.05434L22.1682 2.06405L22.1695 0.0640554L7.08185 0.0543396L7.08056 2.05434ZM4.96251 2.22409C5.59852 2.00956 6.27475 1.94799 6.93789 2.04402L7.22451 0.0646618C6.25009 -0.0764405 5.2567 0.0141429 4.32328 0.328992L4.96251 2.22409ZM3.27175 3.28211C3.74746 2.80052 4.32649 2.43862 4.96252 2.22409L4.32328 0.328992C3.38989 0.643835 2.54288 1.17404 1.84888 1.87661L3.27175 3.28211ZM2.22318 5.00025C2.43665 4.35181 2.79594 3.76375 3.27171 3.28215L1.84892 1.87657C1.15492 2.57907 0.633017 3.43457 0.323472 4.37486L2.22318 5.00025ZM2.04399 7.01593C1.94831 6.33888 2.00975 5.64866 2.22319 5.00022L0.32346 4.3749C0.0139564 5.31517 -0.074913 6.31511 0.0636622 7.29577L2.04399 7.01593ZM2.05383 17.8432V7.15585H0.0538252V17.8432H2.05383ZM2.22329 20.0005C2.00956 19.3516 1.94808 18.6609 2.04396 17.9833L0.0636902 17.7031C-0.0751904 18.6845 0.0137563 19.6853 0.323681 20.6262L2.22329 20.0005ZM3.27322 21.7195C2.79682 21.2378 2.437 20.6494 2.22329 20.0005L0.323681 20.6262C0.633619 21.5672 1.15628 22.4232 1.85112 23.1258L3.27322 21.7195ZM4.96603 22.7771C4.32931 22.563 3.74955 22.2012 3.2732 21.7195L1.85114 23.1258C2.54604 23.8285 3.3941 24.3585 4.32846 24.6728L4.96603 22.7771ZM6.94307 22.9552C6.27951 23.0521 5.60267 22.9913 4.96605 22.7771L4.32845 24.6728C5.26285 24.9871 6.25716 25.0766 7.23213 24.9342L6.94307 22.9552ZM22.1688 22.9447H7.0876V24.9447H22.1688V22.9447ZM24.2792 22.7708C23.6452 22.9857 22.971 23.0486 22.3094 22.9547L22.0283 24.9348C23.0005 25.0728 23.9909 24.9803 24.9213 24.6649L24.2792 22.7708ZM25.9647 21.714C25.4904 22.1944 24.9132 22.5559 24.2792 22.7708L24.9213 24.6649C25.8517 24.3495 26.6959 23.82 27.3879 23.1192L25.9647 21.714ZM27.0111 20.0008C26.7976 20.6473 26.439 21.2336 25.9647 21.714L27.3879 23.1192C28.0798 22.4184 28.6006 21.5655 28.9102 20.628L27.0111 20.0008ZM27.193 17.9907C27.2869 18.6661 27.2246 19.3543 27.0111 20.0008L28.9102 20.628C29.2198 19.6905 29.31 18.6935 29.1739 17.7152L27.193 17.9907ZM27.1834 11.7514V17.8529H29.1834V11.7514H27.1834ZM13.115 12.7514H28.1834V10.7514H13.115V12.7514ZM14.115 13.2768V11.7514H12.115V13.2768H14.115ZM26.6894 12.2768H13.115V14.2768H26.6894V12.2768ZM27.6894 17.8529V13.2768H25.6894V17.8529H27.6894ZM27.4742 20.0168C27.7184 19.2752 27.7886 18.4866 27.6796 17.7133L25.6992 17.9926C25.7654 18.4625 25.7227 18.9414 25.5746 19.3911L27.4742 20.0168ZM26.2705 21.9877C26.8182 21.4333 27.23 20.7583 27.4742 20.0168L25.5746 19.3911C25.4264 19.8409 25.1773 20.2485 24.8477 20.5821L26.2705 21.9877ZM24.3171 23.2095C25.0542 22.9608 25.7228 22.5421 26.2706 21.9876L24.8477 20.5822C24.5182 20.9157 24.1174 21.1661 23.6776 21.3146L24.3171 23.2095ZM22.0258 23.4188C22.7954 23.53 23.58 23.4583 24.3171 23.2095L23.6776 21.3146C23.2379 21.463 22.7704 21.5056 22.3119 21.4393L22.0258 23.4188ZM7.0876 23.4291H22.1688V21.4291H7.0876V23.4291ZM4.93929 23.2095C5.67643 23.4583 6.46099 23.53 7.23062 23.4188L6.94458 21.4393C6.48608 21.5056 6.01859 21.463 5.5788 21.3145L4.93929 23.2095ZM2.98588 21.9877C3.5336 22.5421 4.20221 22.9608 4.93927 23.2095L5.57881 21.3146C5.13899 21.1661 4.73823 20.9157 4.40871 20.5821L2.98588 21.9877ZM1.78224 20.0168C2.02646 20.7583 2.43823 21.4333 2.98588 21.9877L4.40871 20.5821C4.07919 20.2486 3.83 19.8409 3.68187 19.3911L1.78224 20.0168ZM1.57687 17.7132C1.46777 18.4867 1.53802 19.2752 1.78224 20.0168L3.68187 19.3911C3.53373 18.9413 3.49099 18.4624 3.55726 17.9926L1.57687 17.7132ZM1.56707 7.16557V17.8529H3.56707V7.16557H1.56707ZM1.78223 5.00172C1.53802 5.74328 1.46777 6.53184 1.57687 7.30525L3.55726 7.02588C3.49099 6.55607 3.53373 6.07716 3.68187 5.62731L1.78223 5.00172ZM2.98586 3.03082C2.43824 3.58521 2.02647 4.26012 1.78224 5.00171L3.68187 5.62733C3.82999 5.17756 4.07918 4.76994 4.40874 4.43631L2.98586 3.03082ZM4.93927 1.80895C4.20224 2.05769 3.53362 2.47632 2.98588 3.03079L4.40871 4.43634C4.73821 4.10278 5.13896 3.85239 5.57881 3.70394L4.93927 1.80895ZM7.23068 1.59972C6.46098 1.48845 5.6764 1.56019 4.93929 1.80895L5.57879 3.70395C6.01862 3.55552 6.4861 3.51287 6.94453 3.57914L7.23068 1.59972ZM22.1688 1.58943H7.0876V3.58943H22.1688V1.58943ZM24.3157 1.81318C23.5802 1.56349 22.797 1.49021 22.0283 1.59936L22.3094 3.5795C22.7673 3.51449 23.234 3.55805 23.6729 3.70704L24.3157 1.81318ZM26.2645 3.03598C25.7182 2.48181 25.0512 2.06286 24.3158 1.81318L23.6728 3.70703C24.1117 3.85603 24.5115 4.10662 24.8402 4.44002L26.2645 3.03598ZM27.465 5.00483C27.2214 4.26431 26.8107 3.59011 26.2645 3.03598L24.8402 4.44002C25.1689 4.77346 25.4174 5.18063 25.5651 5.62977L27.465 5.00483ZM27.67 7.30485C27.7786 6.53265 27.7086 5.74536 27.465 5.00483L25.5651 5.62977C25.7129 6.07891 25.7555 6.55706 25.6895 7.02628L27.67 7.30485ZM28.1962 6.16557H26.6798V8.16557H28.1962V6.16557ZM27.0268 5.00997C27.2403 5.65839 27.3017 6.3486 27.2061 7.02565L29.1864 7.30549C29.325 6.32483 29.2361 5.32488 28.9265 4.38458L27.0268 5.00997ZM25.9783 3.29185C26.4541 3.77347 26.8134 4.36154 27.0268 5.00993L28.9266 4.38461C28.617 3.44428 28.0951 2.58878 27.4011 1.8863L25.9783 3.29185ZM24.2875 2.2338C24.9235 2.44834 25.5026 2.81025 25.9783 3.29183L27.4012 1.88632C26.7072 1.18375 25.8601 0.653551 24.9268 0.338712L24.2875 2.2338ZM58.7482 2.05374C59.4116 1.9577 60.0877 2.01927 60.7238 2.23381L61.3629 0.3387C60.4295 0.023858 59.4362 -0.0667197 58.4616 0.0743721L58.7482 2.05374ZM37.4969 2.07701L58.6055 2.06405L58.6043 0.0640554L37.4957 0.0770097L37.4969 2.07701ZM38.4963 23.9577V1.07701H36.4963V23.9577H38.4963ZM39.0031 22.9577H37.4963V24.9577H39.0031V22.9577ZM38.0031 13.2703V23.9577H40.0031V13.2703H38.0031ZM58.5985 12.2703H39.0031V14.2703H58.5985V12.2703ZM60.747 12.4898C60.0099 12.2411 59.2253 12.1693 58.4555 12.2806L58.7415 14.26C59.2002 14.1937 59.6677 14.2364 60.1074 14.3848L60.747 12.4898ZM62.7005 13.7117C62.1526 13.1571 61.4838 12.7385 60.747 12.4899L60.1074 14.3848C60.5473 14.5333 60.9482 14.7838 61.2776 15.1172L62.7005 13.7117ZM63.9041 15.6827C63.6599 14.941 63.2481 14.2661 62.7005 13.7117L61.2776 15.1172C61.6072 15.4508 61.8564 15.8584 62.0044 16.3081L63.9041 15.6827ZM64.1092 17.9866C64.2187 17.2127 64.1482 16.4241 63.9041 15.6827L62.0044 16.3081C62.1526 16.7581 62.1953 17.2369 62.1289 17.7063L64.1092 17.9866ZM64.119 23.948V17.8464H62.119V23.948H64.119ZM64.6323 22.948H63.119V24.948H64.6323V22.948ZM63.6323 17.8464V23.948H65.6323V17.8464H63.6323ZM63.2379 15.2311C63.6035 16.0066 63.7432 16.8723 63.6396 17.7259L65.625 17.967C65.774 16.7397 65.5733 15.4948 65.047 14.3783L63.2379 15.2311ZM61.5803 13.3514C62.2969 13.8042 62.8725 14.4559 63.2379 15.2311L65.047 14.3783C64.5205 13.2614 63.6891 12.3181 62.6487 11.6607L61.5803 13.3514ZM63.2379 9.7809C62.8725 10.5561 62.2969 11.2078 61.5802 11.6607L62.6487 13.3513C63.6891 12.6939 64.5205 11.7506 65.047 10.6337L63.2379 9.7809ZM63.6396 7.28614C63.7432 8.13972 63.6035 9.0054 63.2379 9.78091L65.047 10.6337C65.5733 9.51719 65.774 8.27227 65.625 7.04499L63.6396 7.28614ZM63.463 5.01018C63.6766 5.6585 63.738 6.34851 63.6422 7.02531L65.6224 7.30582C65.7613 6.32492 65.6724 5.32477 65.3626 4.38437L63.463 5.01018ZM62.4146 3.29183C62.8903 3.77341 63.2496 4.36145 63.4629 5.00983L65.3627 4.38471C65.0533 3.44437 64.5314 2.58884 63.8375 1.88632L62.4146 3.29183ZM60.7238 2.23381C61.3597 2.44831 61.9386 2.81019 62.4148 3.292L63.8373 1.88615C63.1432 1.1838 62.2965 0.653581 61.3629 0.3387L60.7238 2.23381ZM62.0044 5.62722C62.1526 6.07726 62.1953 6.55605 62.1289 7.02542L64.1092 7.30571C64.2187 6.53185 64.1482 5.74318 63.9041 5.00181L62.0044 5.62722ZM61.2776 4.43633C61.6072 4.76996 61.8564 5.17754 62.0044 5.62723L63.9041 5.0018C63.6599 4.26014 63.2481 3.58519 62.7005 3.03079L61.2776 4.43633ZM60.1074 3.70393C60.5473 3.85241 60.9482 4.10287 61.2776 4.43634L62.7005 3.03079C62.1526 2.47623 61.4838 2.05766 60.747 1.80897L60.1074 3.70393ZM58.7415 3.57915C59.2002 3.51286 59.6677 3.55554 60.1074 3.70393L60.747 1.80897C60.0099 1.56018 59.2253 1.48846 58.4555 1.59971L58.7415 3.57915ZM39.0031 3.58943H58.5985V1.58943H39.0031V3.58943ZM40.0031 11.7417V2.58943H38.0031V11.7417H40.0031ZM58.5921 10.7417H39.0031V12.7417H58.5921V10.7417ZM60.1039 10.6293C59.664 10.7773 59.1957 10.8193 58.7368 10.7522L58.4474 12.7312C59.2176 12.8438 60.0035 12.7732 60.7415 12.525L60.1039 10.6293ZM61.2764 9.89707C60.946 10.2309 60.5445 10.4812 60.1041 10.6293L60.7413 12.525C61.4795 12.2769 62.1491 11.8584 62.6979 11.304L61.2764 9.89707ZM62.0042 8.70553C61.8559 9.15562 61.6062 9.56355 61.2761 9.89733L62.6981 11.3037C63.2465 10.7492 63.6591 10.0738 63.9037 9.33133L62.0042 8.70553ZM62.1289 7.30557C62.1954 7.77607 62.1527 8.25531 62.0043 8.70505L63.9036 9.33181C64.1487 8.58911 64.2186 7.79953 64.1092 7.02556L62.1289 7.30557ZM79.8197 22.955C79.1567 23.0511 78.4806 22.9895 77.8445 22.7749L77.2053 24.67C78.1387 24.9849 79.132 25.0755 80.1064 24.9344L79.8197 22.955ZM95.0315 22.9447H79.9631V24.9447H95.0315V22.9447ZM97.1503 22.7749C96.5143 22.9895 95.8382 23.0511 95.1748 22.955L94.8882 24.9344C95.8628 25.0755 96.8561 24.9849 97.7896 24.67L97.1503 22.7749ZM98.8414 21.7168C98.3652 22.1986 97.7863 22.5604 97.1504 22.7749L97.7896 24.67C98.7231 24.3552 99.5698 23.8249 100.264 23.1226L98.8414 21.7168ZM99.8895 19.9989C99.6762 20.6473 99.3169 21.2354 98.8412 21.7169L100.264 23.1225C100.958 22.4199 101.48 21.5644 101.789 20.6241L99.8895 19.9989ZM100.069 17.9835C100.165 18.6603 100.103 19.3503 99.8896 19.9986L101.789 20.6244C102.099 19.684 102.188 18.6839 102.049 17.703L100.069 17.9835ZM100.059 7.15585V17.8432H102.059V7.15585H100.059ZM99.8896 5.00046C100.103 5.64878 100.165 6.33879 100.069 7.0156L102.049 7.2961C102.188 6.3152 102.099 5.31505 101.789 4.37465L99.8896 5.00046ZM98.8412 3.28211C99.3169 3.7637 99.6762 4.35174 99.8895 5.00011L101.789 4.375C101.48 3.43465 100.958 2.57912 100.264 1.87661L98.8412 3.28211ZM97.1504 2.22409C97.7863 2.43859 98.3652 2.80047 98.8414 3.28228L100.264 1.87644C99.5698 1.17409 98.7231 0.643865 97.7896 0.328984L97.1504 2.22409ZM95.1748 2.04402C95.8382 1.94798 96.5143 2.00956 97.1504 2.22409L97.7896 0.328984C96.8561 0.014142 95.8628 -0.0764352 94.8882 0.0646562L95.1748 2.04402ZM79.9631 2.05434H95.0315V0.0543394H79.9631V2.05434ZM77.8445 2.22409C78.4806 2.00955 79.1567 1.94799 79.8197 2.04401L80.1064 0.0646641C79.132 -0.0764458 78.1387 0.014152 77.2053 0.328984L77.8445 2.22409ZM76.1535 3.28229C76.6296 2.80047 77.2085 2.43859 77.8445 2.22409L77.2053 0.328984C76.2717 0.643865 75.425 1.17409 74.7309 1.87643L76.1535 3.28229ZM75.1054 5.00012C75.3187 4.35174 75.6779 3.7637 76.1536 3.28211L74.7308 1.87661C74.0368 2.57912 73.515 3.43465 73.2056 4.37499L75.1054 5.00012ZM74.9258 7.01597C74.8302 6.33892 74.8917 5.64878 75.1052 5.00046L73.2057 4.37466C72.8959 5.31506 72.807 6.31507 72.9455 7.29573L74.9258 7.01597ZM74.9357 17.8432V7.15585H72.9357V17.8432H74.9357ZM75.1052 19.9986C74.8917 19.3503 74.8302 18.6601 74.9258 17.9831L72.9455 17.7033C72.807 18.684 72.8959 19.684 73.2057 20.6244L75.1052 19.9986ZM76.1536 21.717C75.6779 21.2354 75.3187 20.6473 75.1053 19.9989L73.2056 20.6241C73.515 21.5644 74.0368 22.4199 74.7308 23.1224L76.1536 21.717ZM77.8445 22.7749C77.2085 22.5604 76.6296 22.1986 76.1534 21.7168L74.7309 23.1226C75.4251 23.8249 76.2717 24.3552 77.2053 24.67L77.8445 22.7749ZM76.551 19.3815C76.4029 18.9315 76.3601 18.4526 76.4263 17.9828L74.4459 17.7036C74.3368 18.4771 74.4073 19.2656 74.6514 20.0069L76.551 19.3815ZM77.2778 20.5724C76.9483 20.2388 76.6991 19.8312 76.551 19.3815L74.6514 20.0069C74.8955 20.7486 75.3073 21.4236 75.855 21.978L77.2778 20.5724ZM78.4481 21.3048C78.0082 21.1564 77.6073 20.9059 77.2778 20.5724L75.855 21.9779C76.4028 22.5325 77.0717 22.9511 77.8085 23.1998L78.4481 21.3048ZM79.8136 21.4296C79.3552 21.4959 78.8877 21.4532 78.4481 21.3048L77.8085 23.1998C78.5455 23.4486 79.3302 23.5203 80.0997 23.4091L79.8136 21.4296ZM95.0251 21.4193H79.9566V23.4193H95.0251V21.4193ZM96.534 21.3048C96.0944 21.4532 95.6268 21.4959 95.1681 21.4296L94.8821 23.4091C95.6519 23.5203 96.4365 23.4486 97.1736 23.1998L96.534 21.3048ZM97.7042 20.5724C97.3748 20.9059 96.9738 21.1564 96.534 21.3048L97.1736 23.1998C97.9104 22.9511 98.5793 22.5325 99.1271 21.9779L97.7042 20.5724ZM98.431 19.3815C98.283 19.8312 98.0338 20.2388 97.7043 20.5724L99.127 21.978C99.6748 21.4236 100.087 20.7486 100.331 20.007L98.431 19.3815ZM98.5555 17.9833C98.6219 18.4527 98.5792 18.9315 98.431 19.3815L100.331 20.0069C100.575 19.2656 100.645 18.4769 100.536 17.7031L98.5555 17.9833ZM98.5456 7.15585V17.8432H100.546V7.15585H98.5456ZM98.431 5.6175C98.5792 6.06754 98.6219 6.54633 98.5555 7.01571L100.536 7.29599C100.645 6.52214 100.575 5.73347 100.331 4.9921L98.431 5.6175ZM97.7042 4.42662C98.0338 4.76024 98.283 5.16782 98.431 5.61753L100.331 4.99207C100.087 4.25043 99.6747 3.57548 99.1271 3.02107L97.7042 4.42662ZM96.534 3.69421C96.9739 3.8427 97.3748 4.09315 97.7042 4.42662L99.1271 3.02108C98.5793 2.46652 97.9104 2.04795 97.1736 1.79925L96.534 3.69421ZM95.1681 3.56944C95.6268 3.50315 96.0944 3.54582 96.534 3.69421L97.1736 1.79925C96.4365 1.55046 95.6519 1.47875 94.8821 1.59L95.1681 3.56944ZM79.9566 3.57972H95.0251V1.57972H79.9566V3.57972ZM78.4481 3.69421C78.8878 3.54581 79.3553 3.50316 79.8135 3.56942L80.0998 1.59001C79.3302 1.47873 78.5455 1.55047 77.8085 1.79925L78.4481 3.69421ZM77.2778 4.42662C77.6072 4.09315 78.0082 3.8427 78.4481 3.69421L77.8085 1.79925C77.0717 2.04795 76.4028 2.46652 75.855 3.02108L77.2778 4.42662ZM76.551 5.61752C76.6991 5.16783 76.9483 4.76024 77.2778 4.42662L75.855 3.02108C75.3073 3.57547 74.8955 4.25042 74.6514 4.99208L76.551 5.61752ZM76.4263 7.01621C76.3601 6.54651 76.4029 6.06755 76.5511 5.6175L74.6514 4.9921C74.4073 5.73346 74.3368 6.52196 74.4459 7.29549L76.4263 7.01621ZM76.4361 17.8432V7.15585H74.4361V17.8432H76.4361ZM136.982 17.8432V1.06406H134.982V17.8432H136.982ZM136.767 20.0069C137.011 19.2656 137.081 18.4769 136.972 17.7031L134.992 17.9834C135.058 18.4527 135.015 18.9315 134.867 19.3815L136.767 20.0069ZM135.563 21.978C136.111 21.4236 136.523 20.7486 136.767 20.007L134.867 19.3815C134.719 19.8312 134.47 20.2388 134.14 20.5724L135.563 21.978ZM133.61 23.1998C134.347 22.9511 135.015 22.5325 135.563 21.978L134.14 20.5724C133.811 20.9059 133.41 21.1564 132.97 21.3048L133.61 23.1998ZM131.319 23.4091C132.088 23.5203 132.873 23.4486 133.61 23.1998L132.97 21.3049C132.531 21.4532 132.063 21.4959 131.605 21.4296L131.319 23.4091ZM116.393 23.4193H131.462V21.4193H116.393V23.4193ZM114.245 23.1998C114.982 23.4486 115.766 23.5203 116.536 23.4091L116.25 21.4296C115.791 21.4959 115.324 21.4532 114.884 21.3049L114.245 23.1998ZM112.291 21.978C112.839 22.5325 113.508 22.9511 114.245 23.1998L114.884 21.3048C114.444 21.1564 114.043 20.9059 113.714 20.5724L112.291 21.978ZM111.088 20.0069C111.332 20.7486 111.744 21.4236 112.291 21.978L113.714 20.5724C113.384 20.2388 113.135 19.8312 112.987 19.3815L111.088 20.0069ZM110.883 17.7031C110.773 18.4769 110.843 19.2656 111.088 20.0069L112.987 19.3815C112.839 18.9315 112.796 18.4527 112.863 17.9833L110.883 17.7031ZM110.873 1.06406V17.8432H112.873V1.06406H110.873ZM110.365 2.06406H111.873V0.0640552H110.365V2.06406ZM111.365 17.8432V1.06406H109.365V17.8432H111.365ZM111.535 19.9986C111.321 19.3503 111.26 18.6601 111.356 17.9831L109.375 17.7033C109.237 18.684 109.326 19.684 109.635 20.6244L111.535 19.9986ZM112.583 21.717C112.108 21.2354 111.749 20.6473 111.535 19.9989L109.635 20.6241C109.945 21.5644 110.467 22.4199 111.161 23.1225L112.583 21.717ZM114.274 22.7749C113.638 22.5604 113.059 22.1986 112.583 21.7168L111.161 23.1227C111.855 23.8249 112.702 24.3552 113.635 24.67L114.274 22.7749ZM116.25 22.955C115.587 23.0511 114.91 22.9895 114.274 22.7749L113.635 24.67C114.569 24.9849 115.562 25.0755 116.536 24.9344L116.25 22.955ZM131.462 22.9447H116.393V24.9447H131.462V22.9447ZM133.58 22.7749C132.944 22.9895 132.268 23.0511 131.605 22.955L131.318 24.9344C132.293 25.0755 133.286 24.9849 134.219 24.67L133.58 22.7749ZM135.271 21.7168C134.795 22.1986 134.216 22.5604 133.58 22.7749L134.219 24.67C135.153 24.3552 136 23.8249 136.694 23.1227L135.271 21.7168ZM136.319 19.9989C136.106 20.6473 135.747 21.2354 135.271 21.7169L136.694 23.1225C137.388 22.4199 137.91 21.5644 138.219 20.6241L136.319 19.9989ZM136.499 17.9831C136.594 18.6601 136.533 19.3503 136.319 19.9986L138.219 20.6244C138.529 19.684 138.618 18.684 138.479 17.7033L136.499 17.9831ZM136.489 1.06406V17.8432H138.489V1.06406H136.489ZM135.982 2.06406H137.489V0.0640552H135.982V2.06406ZM170.652 0.3387C169.719 0.023868 168.726 -0.0667303 167.751 0.0743801L168.038 2.05373C168.701 1.95771 169.377 2.01926 170.013 2.23381L170.652 0.3387ZM173.127 1.88615C172.433 1.1838 171.586 0.65358 170.652 0.3387L170.013 2.23381C170.649 2.44831 171.228 2.81019 171.704 3.29201L173.127 1.88615ZM174.652 4.38473C174.343 3.44437 173.821 2.58883 173.127 1.88632L171.704 3.29183C172.18 3.77341 172.539 4.36145 172.752 5.00982L174.652 4.38473ZM174.912 7.30545C175.051 6.32479 174.962 5.32477 174.652 4.38436L172.752 5.01018C172.966 5.6585 173.027 6.34863 172.932 7.02568L174.912 7.30545ZM174.652 9.94675C174.962 9.00636 175.051 8.00634 174.912 7.02568L172.932 7.30545C173.027 7.9825 172.966 8.67263 172.752 9.32091L174.652 9.94675ZM173.127 12.4448C173.821 11.7423 174.343 10.8867 174.652 9.94637L172.752 9.32128C172.539 9.96966 172.18 10.5577 171.704 11.0393L173.127 12.4448ZM170.652 13.9924C171.586 13.6775 172.433 13.1473 173.127 12.445L171.704 11.0391C171.228 11.5209 170.649 11.8828 170.013 12.0973L170.652 13.9924ZM167.751 14.2568C168.726 14.3979 169.719 14.3073 170.652 13.9924L170.013 12.0973C169.377 12.3119 168.701 12.3734 168.038 12.2774L167.751 14.2568ZM148.306 14.2671H167.895V12.2671H148.306V14.2671ZM149.306 23.9544V13.2671H147.306V23.9544H149.306ZM146.798 24.9544H148.306V22.9544H146.798V24.9544ZM145.798 1.07377V23.9544H147.798V1.07377H145.798ZM167.894 0.0640553L146.798 0.0737711L146.799 2.07377L167.895 2.06406L167.894 0.0640553ZM173.405 7.30571C173.514 6.53186 173.444 5.74318 173.2 5.0018L171.3 5.62723C171.448 6.07726 171.491 6.55604 171.425 7.02542L173.405 7.30571ZM172.418 6.16557H172.415V8.16557H172.418V6.16557ZM173.203 9.33009C173.447 8.58851 173.518 7.79956 173.408 7.02551L171.428 7.30562C171.494 7.77539 171.452 8.25461 171.303 8.70496L173.203 9.33009ZM171.998 11.302C172.546 10.7476 172.958 10.0724 173.203 9.33057L171.304 8.70447C171.155 9.15454 170.906 9.56235 170.576 9.89605L171.998 11.302ZM170.043 12.5236C170.781 12.2752 171.45 11.8567 171.998 11.302L170.576 9.89605C170.246 10.2296 169.845 10.4799 169.405 10.6282L170.043 12.5236ZM167.751 12.7313C168.521 12.8432 169.306 12.7721 170.043 12.5236L169.405 10.6283C168.965 10.7764 168.497 10.8188 168.038 10.7521L167.751 12.7313ZM148.306 12.7417H167.895V10.7417H148.306V12.7417ZM147.306 2.58943V11.7417H149.306V2.58943H147.306ZM167.895 1.58943H148.306V3.58943H167.895V1.58943ZM170.043 1.80897C169.306 1.56019 168.521 1.48845 167.752 1.59973L168.038 3.57914C168.496 3.51288 168.964 3.55552 169.403 3.70393L170.043 1.80897ZM171.996 3.03079C171.448 2.47623 170.78 2.05766 170.043 1.80897L169.403 3.70393C169.843 3.85241 170.244 4.10287 170.573 4.43633L171.996 3.03079ZM173.2 5.00179C172.956 4.26014 172.544 3.5852 171.996 3.03079L170.573 4.43633C170.903 4.76995 171.152 5.17754 171.3 5.62724L173.2 5.00179ZM185.794 24.67C186.728 24.9849 187.721 25.0755 188.695 24.9344L188.409 22.955C187.745 23.0511 187.069 22.9895 186.433 22.7749L185.794 24.67ZM183.32 23.1226C184.014 23.8249 184.861 24.3552 185.794 24.67L186.433 22.7749C185.797 22.5604 185.218 22.1985 184.742 21.7168L183.32 23.1226ZM181.794 20.6241C182.104 21.5644 182.626 22.4199 183.32 23.1225L184.742 21.7169C184.267 21.2354 183.907 20.6473 183.694 19.9989L181.794 20.6241ZM181.534 17.7033C181.396 18.684 181.485 19.684 181.794 20.6244L183.694 19.9986C183.48 19.3503 183.419 18.6601 183.515 17.9831L181.534 17.7033ZM184.032 16.8432H182.524V18.8432H184.032V16.8432ZM185.146 19.3815C184.998 18.9315 184.955 18.4527 185.022 17.9834L183.041 17.7031C182.932 18.4769 183.002 19.2656 183.247 20.007L185.146 19.3815ZM185.873 20.5724C185.543 20.2388 185.294 19.8312 185.146 19.3815L183.247 20.0069C183.491 20.7486 183.903 21.4236 184.45 21.978L185.873 20.5724ZM187.043 21.3048C186.603 21.1564 186.202 20.9059 185.873 20.5724L184.45 21.9779C184.998 22.5325 185.667 22.9511 186.404 23.1998L187.043 21.3048ZM188.409 21.4296C187.95 21.4959 187.483 21.4532 187.043 21.3049L186.404 23.1998C187.141 23.4486 187.925 23.5203 188.695 23.4091L188.409 21.4296ZM203.621 21.4193H188.552V23.4193H203.621V21.4193ZM205.129 21.3048C204.69 21.4532 204.222 21.4959 203.764 21.4296L203.478 23.4091C204.247 23.5203 205.032 23.4486 205.769 23.1998L205.129 21.3048ZM206.299 20.5724C205.97 20.9059 205.569 21.1564 205.129 21.3049L205.769 23.1998C206.506 22.9511 207.174 22.5325 207.722 21.9779L206.299 20.5724ZM207.026 19.3815C206.878 19.8312 206.629 20.2388 206.299 20.5724L207.722 21.978C208.27 21.4236 208.682 20.7486 208.926 20.007L207.026 19.3815ZM207.151 17.9829C207.217 18.4526 207.174 18.9315 207.026 19.3815L208.926 20.0069C209.17 19.2656 209.24 18.4771 209.131 17.7036L207.151 17.9829ZM207.026 16.3049C207.174 16.7549 207.217 17.2339 207.151 17.7036L209.131 17.9829C209.24 17.2093 209.17 16.4208 208.926 15.6795L207.026 16.3049ZM206.299 15.114C206.629 15.4476 206.878 15.8552 207.026 16.3049L208.926 15.6794C208.682 14.9378 208.27 14.2628 207.722 13.7084L206.299 15.114ZM205.129 14.3816C205.569 14.53 205.97 14.7805 206.299 15.114L207.722 13.7084C207.174 13.1539 206.506 12.7353 205.769 12.4866L205.129 14.3816ZM203.764 14.2568C204.222 14.1905 204.689 14.2332 205.129 14.3816L205.769 12.4866C205.032 12.2378 204.247 12.1661 203.477 12.2774L203.764 14.2568ZM188.552 14.2671H203.621V12.2671H188.552V14.2671ZM185.794 13.9924C186.728 14.3073 187.721 14.3979 188.695 14.2568L188.409 12.2774C187.745 12.3734 187.069 12.3119 186.433 12.0973L185.794 13.9924ZM183.32 12.445C184.014 13.1473 184.861 13.6775 185.794 13.9924L186.433 12.0973C185.797 11.8828 185.218 11.5209 184.742 11.0391L183.32 12.445ZM181.794 9.94637C182.104 10.8867 182.626 11.7423 183.32 12.4448L184.742 11.0393C184.267 10.5577 183.907 9.96966 183.694 9.32128L181.794 9.94637ZM181.534 7.02568C181.396 8.00634 181.485 9.00636 181.794 9.94675L183.694 9.32091C183.48 8.67263 183.419 7.9825 183.515 7.30545L181.534 7.02568ZM181.794 4.38436C181.485 5.32477 181.396 6.32479 181.534 7.30545L183.515 7.02568C183.419 6.34863 183.48 5.6585 183.694 5.01018L181.794 4.38436ZM183.32 1.88632C182.626 2.58883 182.104 3.44437 181.794 4.38473L183.694 5.00982C183.907 4.36145 184.267 3.77341 184.742 3.29183L183.32 1.88632ZM185.794 0.3387C184.861 0.65358 184.014 1.1838 183.32 1.88615L184.742 3.29201C185.218 2.81019 185.797 2.44831 186.433 2.23381L185.794 0.3387ZM188.695 0.0743797C187.721 -0.0667299 186.728 0.0238679 185.794 0.3387L186.433 2.23381C187.069 2.01926 187.745 1.95771 188.409 2.05373L188.695 0.0743797ZM203.621 0.0640552H188.552V2.06406H203.621V0.0640552ZM206.378 0.340065C205.445 0.024942 204.452 -0.066168 203.478 0.0742938L203.763 2.05382C204.426 1.95825 205.102 2.02013 205.738 2.23491L206.378 0.340065ZM208.851 1.88794C208.157 1.18544 207.31 0.655219 206.378 0.340105L205.738 2.23487C206.373 2.44965 206.952 2.81166 207.428 3.29313L208.851 1.88794ZM210.375 4.38556C210.066 3.44552 209.544 2.59036 208.851 1.88813L207.427 3.29294C207.903 3.77468 208.262 4.36276 208.475 5.01086L210.375 4.38556ZM210.635 7.3055C210.773 6.32509 210.684 5.32559 210.375 4.38588L208.475 5.01054C208.688 5.65891 208.75 6.34892 208.654 7.02563L210.635 7.3055ZM208.138 8.16557H209.644V6.16557H208.138V8.16557ZM207.023 5.62723C207.171 6.07726 207.214 6.55604 207.147 7.02543L209.128 7.30571C209.237 6.53186 209.167 5.74318 208.923 5.0018L207.023 5.62723ZM206.296 4.43633C206.626 4.76996 206.875 5.17755 207.023 5.62722L208.923 5.00181C208.679 4.26013 208.267 3.58519 207.719 3.03079L206.296 4.43633ZM205.126 3.70393C205.566 3.85241 205.967 4.10287 206.296 4.43633L207.719 3.03079C207.171 2.47623 206.502 2.05766 205.766 1.80897L205.126 3.70393ZM203.76 3.57914C204.219 3.51288 204.686 3.55552 205.126 3.70393L205.766 1.80897C205.029 1.56019 204.244 1.48845 203.474 1.59973L203.76 3.57914ZM188.549 3.58943H203.617V1.58943H188.549V3.58943ZM187.04 3.70393C187.48 3.55552 187.947 3.51288 188.406 3.57914L188.692 1.59973C187.922 1.48845 187.137 1.56019 186.4 1.80897L187.04 3.70393ZM185.87 4.43635C186.199 4.10287 186.6 3.85241 187.04 3.70393L186.4 1.80897C185.664 2.05767 184.995 2.47623 184.447 3.03078L185.87 4.43635ZM185.143 5.62724C185.291 5.17754 185.54 4.76995 185.87 4.43633L184.447 3.03079C183.899 3.5852 183.488 4.26014 183.243 5.00179L185.143 5.62724ZM185.019 7.02545C184.952 6.55605 184.995 6.07726 185.143 5.62721L183.243 5.00182C182.999 5.74319 182.929 6.53185 183.038 7.30568L185.019 7.02545ZM185.143 8.70388C184.995 8.25388 184.952 7.77508 185.019 7.30568L183.038 7.02545C182.929 7.79928 182.999 8.58794 183.243 9.32929L185.143 8.70388ZM185.87 9.89474C185.54 9.56118 185.291 9.15358 185.143 8.70386L183.243 9.32931C183.488 10.0709 183.899 10.7459 184.447 11.3003L185.87 9.89474ZM187.04 10.6272C186.6 10.4787 186.199 10.2283 185.87 9.89476L184.447 11.3003C184.995 11.8548 185.664 12.2735 186.4 12.5222L187.04 10.6272ZM188.406 10.752C187.947 10.8182 187.48 10.7756 187.04 10.6272L186.4 12.5222C187.138 12.771 187.922 12.8426 188.692 12.7314L188.406 10.752ZM203.617 10.7417H188.549V12.7417H203.617V10.7417ZM206.375 11.0163C205.442 10.7015 204.448 10.6109 203.474 10.752L203.761 12.7314C204.424 12.6354 205.1 12.6969 205.736 12.9115L206.375 11.0163ZM208.85 12.5638C208.155 11.8614 207.309 11.3313 206.375 11.0164L205.736 12.9114C206.372 13.126 206.951 13.4879 207.427 13.9697L208.85 12.5638ZM210.375 15.0624C210.065 14.122 209.544 13.2665 208.85 12.564L207.427 13.9695C207.903 14.4511 208.262 15.0391 208.475 15.6875L210.375 15.0624ZM210.635 17.9835C210.774 17.0026 210.685 16.0024 210.375 15.062L208.475 15.6878C208.689 16.3361 208.75 17.0261 208.654 17.7029L210.635 17.9835ZM210.375 20.6244C210.685 19.684 210.774 18.6839 210.635 17.7029L208.654 17.9835C208.75 18.6603 208.689 19.3503 208.475 19.9986L210.375 20.6244ZM208.85 23.1225C209.544 22.4199 210.065 21.5644 210.375 20.6241L208.475 19.9989C208.262 20.6473 207.903 21.2354 207.427 21.7169L208.85 23.1225ZM206.375 24.67C207.309 24.3552 208.155 23.8249 208.849 23.1226L207.427 21.7168C206.951 22.1985 206.372 22.5604 205.736 22.7749L206.375 24.67ZM203.474 24.9344C204.448 25.0755 205.442 24.9849 206.375 24.67L205.736 22.7749C205.1 22.9895 204.424 23.0511 203.761 22.955L203.474 24.9344ZM188.552 24.9447H203.617V22.9447H188.552V24.9447ZM219.465 13.2574V23.9447H221.465V13.2574H219.465ZM244.581 12.2574H220.465V14.2574H244.581V12.2574ZM245.581 23.9447V13.2574H243.581V23.9447H245.581ZM246.087 22.9447H244.581V24.9447H246.087V22.9447ZM245.087 1.06406V23.9447H247.087V1.06406H245.087ZM244.581 2.06406H246.087V0.0640552H244.581V2.06406ZM245.581 11.7514V1.06406H243.581V11.7514H245.581ZM220.465 12.7514H244.581V10.7514H220.465V12.7514ZM219.465 1.06406V11.7514H221.465V1.06406H219.465ZM218.958 2.06406H220.465V0.0640552H218.958V2.06406ZM219.958 23.9447V1.06406H217.958V23.9447H219.958ZM220.465 22.9447H218.958V24.9447H220.465V22.9447ZM258.658 24.6674C259.591 24.9827 260.583 25.0743 261.557 24.9346L261.273 22.9549C260.61 23.05 259.934 22.9877 259.299 22.7728L258.658 24.6674ZM256.187 23.119C256.88 23.8215 257.726 24.3519 258.658 24.6673L259.299 22.7728C258.664 22.5578 258.085 22.1958 257.611 21.7145L256.187 23.119ZM254.663 20.6221C254.972 21.5619 255.494 22.4169 256.187 23.1192L257.61 21.7143C257.135 21.2327 256.776 20.645 256.563 19.9973L254.663 20.6221ZM254.404 17.7032C254.265 18.6834 254.354 19.6826 254.663 20.6221L256.563 19.9972C256.35 19.3491 256.288 18.6595 256.384 17.9832L254.404 17.7032ZM254.394 7.15585V17.8432H256.394V7.15585H254.394ZM254.664 4.37465C254.354 5.31505 254.265 6.31521 254.404 7.29611L256.384 7.01559C256.288 6.33879 256.35 5.64878 256.563 5.00046L254.664 4.37465ZM256.189 1.87661C255.495 2.57912 254.973 3.43465 254.664 4.37501L256.563 5.0001C256.777 4.35173 257.136 3.7637 257.612 3.28211L256.189 1.87661ZM258.663 0.328983C257.73 0.643867 256.883 1.1741 256.189 1.87642L257.611 3.2823C258.088 2.80047 258.667 2.43859 259.302 2.2241L258.663 0.328983ZM261.565 0.0646564C260.59 -0.0764353 259.597 0.0141414 258.663 0.328986L259.302 2.22409C259.939 2.00956 260.615 1.94798 261.278 2.04402L261.565 0.0646564ZM276.509 0.0543394H261.421V2.05434H276.509V0.0543394ZM279.267 0.328986C278.333 0.0141414 277.34 -0.0764353 276.365 0.0646564L276.652 2.04402C277.315 1.94798 277.991 2.00956 278.628 2.22409L279.267 0.328986ZM281.741 1.87643C281.047 1.1741 280.2 0.643867 279.267 0.328983L278.628 2.2241C279.263 2.43859 279.842 2.80047 280.319 3.28229L281.741 1.87643ZM283.266 4.37499C282.957 3.43466 282.435 2.57912 281.741 1.8766L280.318 3.28212C280.794 3.7637 281.153 4.35173 281.367 5.00012L283.266 4.37499ZM283.527 7.29574C283.665 6.31509 283.576 5.31506 283.266 4.37463L281.367 5.00048C281.58 5.64878 281.642 6.33891 281.546 7.01596L283.527 7.29574ZM283.536 17.8432V7.15585H281.536V17.8432H283.536ZM283.266 20.6244C283.576 19.684 283.665 18.684 283.527 17.7033L281.546 17.9831C281.642 18.6602 281.58 19.3503 281.367 19.9986L283.266 20.6244ZM281.741 23.1225C282.435 22.4199 282.957 21.5644 283.266 20.6241L281.367 19.9989C281.153 20.6473 280.794 21.2354 280.318 21.7169L281.741 23.1225ZM279.267 24.67C280.2 24.3552 281.047 23.8249 281.741 23.1226L280.319 21.7168C279.842 22.1986 279.263 22.5604 278.628 22.7749L279.267 24.67ZM276.365 24.9344C277.34 25.0755 278.333 24.9849 279.267 24.67L278.627 22.7749C277.991 22.9895 277.315 23.0511 276.652 22.955L276.365 24.9344ZM261.415 24.9447H276.509V22.9447H261.415V24.9447ZM255.904 17.7031C255.795 18.4769 255.865 19.2656 256.109 20.007L258.009 19.3815C257.861 18.9315 257.818 18.4527 257.885 17.9833L255.904 17.7031ZM255.92 7.1632L255.894 17.8408L257.894 17.8456L257.92 7.16793L255.92 7.1632ZM256.135 5.00182C255.891 5.74319 255.82 6.53168 255.93 7.30521L257.91 7.02593C257.844 6.55622 257.886 6.07725 258.035 5.62721L256.135 5.00182ZM257.339 3.03081C256.791 3.5852 256.379 4.26014 256.135 5.00177L258.035 5.62727C258.183 5.17754 258.432 4.76995 258.761 4.43632L257.339 3.03081ZM259.292 1.80897C258.555 2.05766 257.886 2.47623 257.339 3.03078L258.761 4.43635C259.091 4.10287 259.492 3.85241 259.932 3.70393L259.292 1.80897ZM261.583 1.59972C260.814 1.48845 260.029 1.56019 259.292 1.80897L259.932 3.70393C260.371 3.55552 260.839 3.51288 261.297 3.57914L261.583 1.59972ZM276.509 1.58943H261.44V3.58943H276.509V1.58943ZM278.654 1.80856C277.918 1.56046 277.135 1.48886 276.366 1.59966L276.651 3.5792C277.109 3.51318 277.576 3.55577 278.015 3.70382L278.654 1.80856ZM280.605 3.02728C280.058 2.47416 279.39 2.05668 278.654 1.80861L278.015 3.70376C278.454 3.85184 278.855 4.10164 279.184 4.43422L280.605 3.02728ZM281.81 4.99367C281.565 4.25345 281.153 3.58017 280.606 3.0273L279.184 4.43419C279.513 4.76701 279.763 5.17361 279.911 5.62221L281.81 4.99367ZM282.02 7.29262C282.127 6.52062 282.055 5.73352 281.81 4.99327L279.911 5.62261C280.06 6.07118 280.104 6.54934 280.039 7.01908L282.02 7.29262ZM282.03 17.8432V7.15585H280.03V17.8432H282.03ZM281.814 20.007C282.058 19.2656 282.129 18.4771 282.02 17.7036L280.039 17.9828C280.106 18.4526 280.063 18.9315 279.915 19.3815L281.814 20.007ZM280.611 21.978C281.158 21.4236 281.57 20.7486 281.814 20.0069L279.915 19.3815C279.767 19.8312 279.517 20.2388 279.188 20.5724L280.611 21.978ZM278.657 23.1998C279.394 22.9511 280.063 22.5325 280.611 21.9779L279.188 20.5724C278.858 20.9059 278.457 21.1564 278.018 21.3049L278.657 23.1998ZM276.366 23.4091C277.135 23.5203 277.92 23.4486 278.657 23.1998L278.018 21.3049C277.578 21.4532 277.11 21.4959 276.652 21.4296L276.366 23.4091ZM261.415 23.4193H276.509V21.4193H261.415V23.4193ZM259.266 23.1998C260.004 23.4486 260.788 23.5203 261.558 23.4091L261.272 21.4296C260.813 21.4959 260.346 21.4532 259.906 21.3049L259.266 23.1998ZM257.313 21.9779C257.861 22.5325 258.53 22.9511 259.266 23.1998L259.906 21.3049C259.466 21.1564 259.065 20.9059 258.736 20.5724L257.313 21.9779ZM256.109 20.0069C256.354 20.7486 256.765 21.4236 257.313 21.978L258.736 20.5724C258.406 20.2388 258.157 19.8312 258.009 19.3815L256.109 20.0069ZM315.677 0.338702C314.744 0.0238668 313.751 -0.0667295 312.776 0.0743797L313.063 2.05373C313.726 1.95771 314.402 2.01926 315.038 2.23381L315.677 0.338702ZM318.152 1.88615C317.458 1.1838 316.611 0.653578 315.677 0.338698L315.038 2.23381C315.674 2.44831 316.253 2.81019 316.729 3.29201L318.152 1.88615ZM319.677 4.38715C319.37 3.44427 318.846 2.58808 318.152 1.88594L316.729 3.29221C317.206 3.77417 317.565 4.36155 317.776 5.00739L319.677 4.38715ZM319.938 7.3032C320.074 6.32531 319.987 5.32573 319.676 4.38366L317.777 5.01089C317.991 5.65754 318.051 6.34811 317.957 7.02793L319.938 7.3032ZM319.676 9.94745C319.987 9.0054 320.074 8.00582 319.938 7.02793L317.957 7.3032C318.051 7.98302 317.991 8.67359 317.777 9.3202L319.676 9.94745ZM318.152 12.4452C318.846 11.743 319.37 10.8868 319.677 9.94395L317.776 9.32371C317.565 9.96956 317.206 10.557 316.729 11.0389L318.152 12.4452ZM315.677 13.9924C316.611 13.6775 317.458 13.1473 318.152 12.445L316.729 11.0391C316.253 11.5209 315.674 11.8828 315.038 12.0973L315.677 13.9924ZM312.776 14.2568C313.751 14.3979 314.744 14.3073 315.677 13.9924L315.038 12.0973C314.402 12.3119 313.726 12.3734 313.063 12.2774L312.776 14.2568ZM293.337 14.2671H312.92V12.2671H293.337V14.2671ZM294.337 23.9544V13.2671H292.337V23.9544H294.337ZM291.83 24.9544H293.337V22.9544H291.83V24.9544ZM290.83 1.07377V23.9544H292.83V1.07377H290.83ZM312.919 0.0640553L291.83 0.0737711L291.831 2.07377L312.92 2.06406L312.919 0.0640553ZM318.431 7.30318C318.538 6.53341 318.471 5.74478 318.224 4.99998L316.326 5.62905C316.474 6.07566 316.516 6.55449 316.45 7.02795L318.431 7.30318ZM317.46 6.16557H317.44V8.16557H317.46V6.16557ZM318.243 9.33479C318.49 8.58877 318.557 7.79892 318.45 7.02822L316.469 7.30291C316.535 7.77791 316.493 8.25817 316.345 8.70583L318.243 9.33479ZM317.036 11.3074C317.585 10.7524 317.998 10.0764 318.244 9.33384L316.344 8.70678C316.195 9.15782 315.945 9.56604 315.615 9.89964L317.036 11.3074ZM315.076 12.5278C315.815 12.2804 316.486 11.8621 317.036 11.3073L315.615 9.89966C315.284 10.2335 314.882 10.4837 314.441 10.6314L315.076 12.5278ZM312.78 12.7309C313.55 12.845 314.337 12.7754 315.076 12.5279L314.441 10.6313C314 10.779 313.531 10.8204 313.072 10.7525L312.78 12.7309ZM293.337 12.7417H312.926V10.7417H293.337V12.7417ZM292.337 2.58943V11.7417H294.337V2.58943H292.337ZM312.92 1.58943H293.337V3.58943H312.92V1.58943ZM315.068 1.80897C314.331 1.56019 313.546 1.48845 312.777 1.59972L313.063 3.57914C313.521 3.51288 313.989 3.55553 314.428 3.70392L315.068 1.80897ZM317.021 3.03078C316.473 2.47623 315.805 2.05766 315.068 1.80897L314.428 3.70393C314.868 3.85241 315.269 4.10287 315.598 4.43635L317.021 3.03078ZM318.225 5.00181C317.981 4.26012 317.569 3.58518 317.021 3.03081L315.598 4.43632C315.928 4.76997 316.177 5.17756 316.325 5.62722L318.225 5.00181Z" fill="black"/>
</svg>
