<svg width="135" height="12" viewBox="0 0 135 12" fill="none" xmlns="http://www.w3.org/2000/svg">
<path fill-rule="evenodd" clip-rule="evenodd" d="M11.0879 1.506C10.7606 1.39286 10.4129 1.36176 10.0724 1.41515L3.79253 1.44599C3.45144 1.3964 3.10415 1.43138 2.77817 1.54817C2.4522 1.66495 2.1565 1.86034 1.91451 2.11885C1.6725 2.37735 1.49086 2.69186 1.38394 3.03748C1.27703 3.3831 1.2478 3.75031 1.29856 4.11003L1.32447 8.75181C1.27763 9.11234 1.31099 9.4795 1.42189 9.82414C1.5328 10.1688 1.71821 10.4814 1.96339 10.7373C2.20858 10.9931 2.50681 11.1851 2.83442 11.298C3.16201 11.411 3.50998 11.4417 3.85069 11.3878L10.1279 11.3528C10.4682 11.4013 10.8145 11.3656 11.1394 11.2486C11.4643 11.1316 11.759 10.9365 12.0003 10.6786C12.2416 10.4207 12.4229 10.1072 12.5298 9.76258C12.6368 9.418 12.6665 9.05186 12.6166 8.69299L12.6018 6.04296L6.32988 6.07797L6.33358 6.74048L11.9836 6.70894L11.9947 8.69646C12.0327 8.96624 12.0107 9.24162 11.9305 9.50079C11.8503 9.75996 11.7141 9.99583 11.5326 10.1897C11.3511 10.3835 11.1294 10.5301 10.8849 10.6177C10.6405 10.7053 10.38 10.7316 10.1242 10.6945L3.84702 10.7295C3.59164 10.7695 3.33093 10.7461 3.08551 10.6612C2.84011 10.5764 2.61675 10.4323 2.4331 10.2405C2.24948 10.0487 2.11061 9.81433 2.02751 9.55607C1.94441 9.29781 1.91936 9.0227 1.95435 8.75252L1.92844 4.11074C1.89043 3.84096 1.91241 3.56558 1.99262 3.3064C2.07283 3.04723 2.20907 2.81137 2.39055 2.61751C2.57204 2.42364 2.79378 2.27711 3.03822 2.18949C3.28267 2.10187 3.54311 2.07558 3.79891 2.11271L10.0761 2.07766C10.3312 2.03841 10.5915 2.06234 10.8364 2.14755C11.0812 2.23276 11.3041 2.37692 11.4872 2.56865C11.6704 2.76038 11.8089 2.99445 11.8918 3.25234C11.9746 3.51024 11.9996 3.78491 11.9648 4.05471L12.596 4.05118C12.6427 3.69092 12.6094 3.32406 12.4986 2.97965C12.3879 2.63525 12.2027 2.32278 11.9578 2.067C11.713 1.81121 11.4151 1.61913 11.0879 1.506ZM26.2536 1.42133C25.9263 1.30819 25.5787 1.27709 25.2381 1.33049L16.4522 1.38516L16.5076 11.3228L17.1348 11.3193L17.1089 6.67751L25.265 6.63198C25.5205 6.59199 25.7812 6.61538 26.0266 6.70027C26.272 6.78515 26.4954 6.9292 26.6791 7.12102C26.8627 7.31285 27.0016 7.54716 27.0846 7.80542C27.1677 8.0637 27.1928 8.33881 27.1577 8.609L27.1725 11.259L27.8024 11.2555L27.7876 8.60548C27.8376 8.15329 27.7642 7.69536 27.5763 7.28551C27.3884 6.87565 27.0936 6.53093 26.7266 6.29185C27.091 6.04867 27.3818 5.70068 27.5652 5.28876C27.7485 4.87684 27.8168 4.41811 27.7617 3.96652C27.8085 3.60625 27.7752 3.23939 27.6643 2.89499C27.5536 2.55058 27.3685 2.23812 27.1236 1.98234C26.8787 1.72654 26.5809 1.53447 26.2536 1.42133ZM27.1318 3.97003C27.1669 3.69985 27.1418 3.42473 27.0587 3.16646C26.9757 2.9082 26.8368 2.67388 26.6532 2.48206C26.4695 2.29023 26.2461 2.14619 26.0007 2.0613C25.7553 1.97641 25.4946 1.95303 25.2391 1.99301L17.083 2.03855L17.1052 6.0136L25.2587 5.96808C25.5147 6.00568 25.7756 5.97975 26.0202 5.89235C26.265 5.80494 26.4871 5.65847 26.669 5.46454C26.8508 5.27062 26.9873 5.03459 27.0676 4.77516C27.148 4.51575 27.1699 4.24008 27.1318 3.97003ZM33.1681 11.1276C33.4954 11.2408 33.843 11.2719 34.1834 11.2185L40.4553 11.1835C40.7965 11.2331 41.1438 11.1981 41.4698 11.0813C41.7958 10.9645 42.0914 10.7691 42.3335 10.5106C42.5755 10.2521 42.7571 9.93759 42.8639 9.59198C42.9709 9.24636 43.0002 8.87915 42.9493 8.51943L42.9234 3.87765C42.9703 3.51739 42.9369 3.15052 42.8261 2.80612C42.7153 2.46172 42.5302 2.14925 42.2854 1.89347C42.0404 1.63768 41.7426 1.4456 41.4153 1.33246C41.088 1.21933 40.7404 1.18823 40.3998 1.24162L34.1279 1.27664C33.7869 1.22705 33.4397 1.26203 33.1137 1.37881C32.7877 1.4956 32.492 1.69098 32.2499 1.9495C32.0079 2.208 31.8263 2.52251 31.7195 2.86813C31.6125 3.21375 31.5832 3.58096 31.634 3.94068L31.6599 8.58246C31.6132 8.94272 31.6465 9.30958 31.7574 9.65399C31.8681 9.99838 32.0532 10.3109 32.298 10.5666C32.543 10.8224 32.8408 11.0145 33.1681 11.1276ZM32.2844 8.57897C32.2494 8.84916 32.2745 9.12427 32.3576 9.38253C32.4407 9.64079 32.5796 9.87512 32.7632 10.0669C32.9468 10.2588 33.1703 10.4028 33.4157 10.4877C33.661 10.5726 33.9218 10.596 34.1771 10.556L40.449 10.521C40.7049 10.5581 40.9653 10.5318 41.2097 10.4442C41.4541 10.3566 41.676 10.21 41.8574 10.0162C42.0389 9.82231 42.1752 9.58644 42.2554 9.32727C42.3355 9.0681 42.3576 8.79273 42.3195 8.52295L42.2935 3.88117C42.3286 3.61098 42.3035 3.33587 42.2205 3.0776C42.1374 2.81933 41.9985 2.58502 41.8149 2.39319C41.6312 2.20137 41.4078 2.05732 41.1624 1.97244C40.9171 1.88755 40.6563 1.86417 40.4009 1.90415L34.129 1.93916C33.8732 1.90203 33.6128 1.92833 33.3684 2.01595C33.124 2.10357 32.9021 2.2501 32.7206 2.44396C32.5392 2.63783 32.4029 2.87368 32.3227 3.13285C32.2425 3.39204 32.2205 3.66741 32.2585 3.93719L32.2844 8.57897ZM57.4445 1.15069L57.4852 8.43828C57.5233 8.70806 57.5013 8.98343 57.4211 9.24261C57.3409 9.50178 57.2047 9.73764 57.0232 9.93149C56.8417 10.1254 56.6199 10.2719 56.3755 10.3595C56.1311 10.4471 55.8706 10.4734 55.6149 10.4363L49.3428 10.4713C49.0875 10.5113 48.8268 10.4879 48.5814 10.403C48.336 10.3181 48.1126 10.1741 47.9289 9.98226C47.7453 9.79045 47.6064 9.55612 47.5234 9.29786C47.4403 9.0396 47.4152 8.76449 47.4503 8.4943L47.4096 1.20671L46.7823 1.21021L46.823 8.49781C46.7762 8.85807 46.8096 9.22493 46.9204 9.56933C47.0312 9.91372 47.2163 10.2262 47.4611 10.482C47.7061 10.7378 48.0039 10.9298 48.3312 11.043C48.6584 11.1561 49.0061 11.1872 49.3465 11.1338L55.6186 11.0988C55.9596 11.1484 56.3068 11.1134 56.6328 10.9966C56.9588 10.8798 57.2544 10.6845 57.4966 10.426C57.7385 10.1675 57.9202 9.85293 58.027 9.50733C58.134 9.16171 58.1633 8.7945 58.1125 8.43478L58.0718 1.14719L57.4445 1.15069ZM70.7275 1.07653C71.068 1.02313 71.4156 1.05424 71.7428 1.16737C72.0701 1.28051 72.3679 1.47259 72.6129 1.72838C72.8577 1.98416 73.0428 2.29663 73.1536 2.64103C73.2644 2.98543 73.2978 3.3523 73.251 3.71256C73.3018 4.07228 73.2725 4.43949 73.1655 4.7851C73.0587 5.13072 72.8771 5.44524 72.6351 5.70374C72.393 5.96224 72.0974 6.15763 71.7714 6.27441C71.4453 6.39121 71.0981 6.42619 70.7571 6.3766L62.6036 6.42212L62.6295 11.0639L62.0022 11.0674L61.9467 1.12977L70.7275 1.07653ZM72.5507 2.91249C72.6337 3.17076 72.6588 3.44588 72.6237 3.71606L72.625 3.71606C72.6632 3.98596 72.6411 4.26149 72.561 4.52079C72.4806 4.78009 72.3443 5.01603 72.1626 5.20992C71.981 5.40381 71.7591 5.55031 71.5144 5.63784C71.2699 5.72535 71.0093 5.75144 70.7534 5.71409L62.5999 5.75961L62.5777 1.78456L70.7312 1.73904C70.9865 1.69906 71.2472 1.72244 71.4926 1.80733C71.738 1.89222 71.9614 2.03626 72.1451 2.22809C72.3287 2.41991 72.4676 2.65423 72.5507 2.91249ZM79.3811 10.9662C79.0406 11.0196 78.693 10.9885 78.3657 10.8753C78.0384 10.7622 77.7406 10.5701 77.4957 10.3143C77.2508 10.0585 77.0657 9.74605 76.955 9.40166C76.8441 9.05726 76.8108 8.69039 76.8575 8.33013L77.4848 8.32663C77.4497 8.59682 77.4748 8.87193 77.5579 9.13019C77.641 9.38845 77.7798 9.62278 77.9635 9.81459C78.1471 10.0064 78.3706 10.1505 78.6159 10.2354C78.8613 10.3202 79.122 10.3436 79.3774 10.3036L85.6494 10.2686C85.9051 10.3057 86.1656 10.2795 86.41 10.1918C86.6544 10.1042 86.8762 9.95768 87.0577 9.76382C87.2392 9.56997 87.3755 9.3341 87.4556 9.07493C87.5358 8.81576 87.5579 8.54038 87.5199 8.2706C87.5548 8.00042 87.5297 7.72531 87.4467 7.46703C87.3636 7.20877 87.2247 6.97445 87.0411 6.78263C86.8574 6.59082 86.634 6.44676 86.3886 6.36187C86.1433 6.27699 85.8825 6.2536 85.6272 6.29358L79.3552 6.3286C79.0147 6.382 78.6671 6.3509 78.3398 6.23774C78.0125 6.12461 77.7148 5.93253 77.4698 5.67675C77.2249 5.42097 77.0398 5.10849 76.9291 4.76409C76.8182 4.4197 76.7849 4.05283 76.8316 3.69257C76.7809 3.33285 76.8101 2.96564 76.9171 2.62002C77.024 2.2744 77.2056 1.95989 77.4476 1.70139C77.6897 1.44288 77.9853 1.24749 78.3113 1.1307C78.6373 1.01392 78.9845 0.978938 79.3256 1.02853L85.5976 0.993516C85.938 0.940358 86.2854 0.971643 86.6126 1.08489C86.9396 1.19815 87.2374 1.39025 87.4821 1.646C87.7267 1.90176 87.9118 2.21415 88.0225 2.55843C88.1331 2.90269 88.1664 3.26942 88.1197 3.62955L87.4925 3.63305C87.5276 3.36287 87.5025 3.08775 87.4194 2.82948C87.3364 2.57122 87.1975 2.3369 87.0139 2.14508C86.8302 1.95325 86.6068 1.80921 86.3614 1.72432C86.116 1.63944 85.8553 1.61605 85.6 1.65603L79.3279 1.69105C79.0722 1.65392 78.8117 1.68021 78.5673 1.76783C78.3229 1.85545 78.1011 2.00198 77.9196 2.19585C77.7381 2.38971 77.6019 2.62557 77.5217 2.88474C77.4415 3.14392 77.4195 3.4193 77.4576 3.68908C77.4225 3.95926 77.4476 4.23438 77.5307 4.49264C77.6137 4.7509 77.7526 4.98523 77.9363 5.17704C78.1199 5.36886 78.3434 5.51292 78.5887 5.59781C78.8341 5.68269 79.0948 5.70607 79.3501 5.6661L85.6222 5.63108C85.9626 5.57768 86.3102 5.60879 86.6375 5.72192C86.9648 5.83508 87.2626 6.02714 87.5076 6.28293C87.7524 6.53871 87.9375 6.85118 88.0483 7.19558C88.1591 7.53998 88.1924 7.90685 88.1456 8.26711C88.1965 8.62683 88.1672 8.99404 88.0602 9.33966C87.9534 9.68527 87.7717 9.99979 87.5298 10.2583C87.2876 10.5168 86.992 10.7122 86.666 10.829C86.34 10.9458 85.9928 10.9807 85.6518 10.9311L79.3811 10.9662ZM92.664 10.892L92.6381 6.25022L102.676 6.19419L102.702 10.836L103.329 10.8325L103.273 0.894836L102.646 0.898338L102.672 5.54012L92.6345 5.59615L92.6086 0.954376L91.9814 0.957877L92.0368 10.8955L92.664 10.892ZM109.709 10.7968C109.368 10.8498 109.021 10.8183 108.694 10.7049C108.367 10.5916 108.07 10.3994 107.825 10.1437C107.581 9.88797 107.396 9.57568 107.285 9.23153C107.174 8.88737 107.141 8.5208 107.188 8.1608L107.162 3.51902C107.111 3.15931 107.14 2.79209 107.247 2.44647C107.354 2.10086 107.536 1.78634 107.778 1.52784C108.02 1.26933 108.315 1.07394 108.641 0.957158C108.967 0.840373 109.315 0.805393 109.656 0.854985L115.936 0.819927C116.276 0.766528 116.624 0.797629 116.951 0.910767C117.278 1.02391 117.576 1.21598 117.821 1.47177C118.066 1.72756 118.251 2.04002 118.362 2.38442C118.473 2.72883 118.506 3.09569 118.459 3.45595L118.485 8.09773C118.536 8.45745 118.507 8.82467 118.4 9.17028C118.293 9.51589 118.111 9.83041 117.869 10.0889C117.627 10.3474 117.332 10.5428 117.006 10.6596C116.68 10.7764 116.332 10.8114 115.991 10.7618L109.709 10.7968ZM107.885 8.96088C107.802 8.70262 107.777 8.42751 107.812 8.15732L107.797 3.5197C107.759 3.24992 107.781 2.97455 107.861 2.71536C107.941 2.45619 108.078 2.22033 108.259 2.02647C108.441 1.83261 108.662 1.68608 108.907 1.59846C109.151 1.51084 109.412 1.48454 109.667 1.52167L115.939 1.48666C116.194 1.44683 116.455 1.47018 116.7 1.55484C116.945 1.6395 117.168 1.78317 117.351 1.97449C117.535 2.16581 117.674 2.39955 117.757 2.65726C117.841 2.91497 117.866 3.1896 117.832 3.45946L117.858 8.10124C117.896 8.37101 117.874 8.64639 117.794 8.90556C117.714 9.16473 117.577 9.4006 117.396 9.59445C117.214 9.78831 116.993 9.93486 116.748 10.0225C116.504 10.1101 116.243 10.1364 115.987 10.0993L109.705 10.1343C109.45 10.1743 109.189 10.1509 108.943 10.0661C108.698 9.98116 108.475 9.83711 108.291 9.64528C108.107 9.45347 107.968 9.21914 107.885 8.96088ZM131.091 0.739539C131.431 0.686141 131.779 0.717242 132.106 0.83038C132.433 0.943518 132.731 1.13559 132.976 1.39139C133.221 1.64717 133.407 1.95963 133.517 2.30404C133.628 2.64844 133.66 3.01531 133.615 3.37557C133.664 3.73529 133.636 4.1025 133.529 4.4481C133.423 4.79372 133.241 5.10825 132.998 5.36675C132.756 5.62525 132.461 5.82064 132.135 5.93742C131.809 6.05422 131.461 6.0892 131.12 6.03961L122.97 6.08511L122.996 10.7269L122.368 10.7304L122.313 0.792764L131.091 0.739539ZM132.914 2.5755C132.998 2.83377 133.022 3.10888 132.987 3.37907L132.995 3.37902C133.033 3.64934 133.012 3.92529 132.931 4.18497C132.85 4.44463 132.714 4.68085 132.531 4.87483C132.349 5.06883 132.127 5.21524 131.882 5.30242C131.637 5.38961 131.376 5.41517 131.119 5.37708L122.966 5.4226L122.944 1.44755L131.095 1.40205C131.35 1.36207 131.611 1.38545 131.856 1.47034C132.101 1.55522 132.325 1.69927 132.508 1.89109C132.692 2.08292 132.831 2.31724 132.914 2.5755Z" fill="black"/>
<path d="M10.0724 1.41515L10.0749 1.91515L10.1126 1.91496L10.1499 1.90912L10.0724 1.41515ZM11.0879 1.506L11.2512 1.03344L11.2512 1.03344L11.0879 1.506ZM3.79253 1.44599L3.72058 1.94079L3.75759 1.94617L3.79498 1.94599L3.79253 1.44599ZM2.77817 1.54817L2.94681 2.01887L2.77817 1.54817ZM1.91451 2.11885L2.27951 2.46057L2.27953 2.46055L1.91451 2.11885ZM1.38394 3.03748L0.906272 2.88971L0.906267 2.88973L1.38394 3.03748ZM1.29856 4.11003L1.79855 4.10724L1.79836 4.07354L1.79366 4.04017L1.29856 4.11003ZM1.32447 8.75181L1.82031 8.81624L1.82465 8.78277L1.82447 8.74902L1.32447 8.75181ZM1.42189 9.82414L0.94593 9.97731L0.94593 9.97731L1.42189 9.82414ZM1.96339 10.7373L1.6024 11.0832L1.60241 11.0832L1.96339 10.7373ZM2.83442 11.298L2.99736 10.8253L2.99736 10.8253L2.83442 11.298ZM3.85069 11.3878L3.8479 10.8878L3.81002 10.888L3.7726 10.894L3.85069 11.3878ZM10.1279 11.3528L10.1984 10.8578L10.162 10.8526L10.1251 10.8528L10.1279 11.3528ZM11.1394 11.2486L10.97 10.7782L10.97 10.7782L11.1394 11.2486ZM12.0003 10.6786L12.3654 11.0202L12.3654 11.0202L12.0003 10.6786ZM12.5298 9.76258L13.0073 9.9108L13.0073 9.91078L12.5298 9.76258ZM12.6166 8.69299L12.1166 8.69578L12.1168 8.72896L12.1213 8.76182L12.6166 8.69299ZM12.6018 6.04296L13.1018 6.04017L13.099 5.54017L12.599 5.54296L12.6018 6.04296ZM6.32988 6.07797L6.32709 5.57798L5.8271 5.58077L5.82989 6.08076L6.32988 6.07797ZM6.33358 6.74048L5.83359 6.74327L5.83638 7.24326L6.33637 7.24047L6.33358 6.74048ZM11.9836 6.70894L12.4836 6.70615L12.4808 6.20615L11.9808 6.20895L11.9836 6.70894ZM11.9947 8.69646L11.4947 8.69925L11.4949 8.73289L11.4996 8.76619L11.9947 8.69646ZM11.9305 9.50079L12.4082 9.64861L12.4082 9.64861L11.9305 9.50079ZM11.5326 10.1897L11.1676 9.84795L11.1676 9.84798L11.5326 10.1897ZM10.8849 10.6177L11.0536 11.0884L11.0536 11.0884L10.8849 10.6177ZM10.1242 10.6945L10.196 10.1997L10.1589 10.1943L10.1214 10.1945L10.1242 10.6945ZM3.84702 10.7295L3.84422 10.2295L3.80674 10.2298L3.7697 10.2356L3.84702 10.7295ZM3.08551 10.6612L2.92207 11.1338L2.92207 11.1338L3.08551 10.6612ZM2.4331 10.2405L2.79428 9.89471L2.4331 10.2405ZM2.02751 9.55607L1.55154 9.70922L1.55154 9.70922L2.02751 9.55607ZM1.95435 8.75252L2.45021 8.81674L2.45453 8.78337L2.45434 8.74972L1.95435 8.75252ZM1.92844 4.11074L2.42843 4.10795L2.42824 4.0743L2.42355 4.04099L1.92844 4.11074ZM1.99262 3.3064L1.51497 3.15857L1.51497 3.15858L1.99262 3.3064ZM2.39055 2.61751L2.02553 2.2758L2.02552 2.27581L2.39055 2.61751ZM3.03822 2.18949L2.86951 1.71882L2.86951 1.71882L3.03822 2.18949ZM3.79891 2.11271L3.72709 2.60752L3.7642 2.61291L3.8017 2.6127L3.79891 2.11271ZM10.0761 2.07766L10.0789 2.57765L10.1158 2.57745L10.1522 2.57185L10.0761 2.07766ZM10.8364 2.14755L11.0007 1.67532L11.0007 1.67532L10.8364 2.14755ZM11.8918 3.25234L12.3678 3.09936L11.8918 3.25234ZM11.9648 4.05471L11.4689 3.99068L11.3957 4.55789L11.9676 4.5547L11.9648 4.05471ZM12.596 4.05118L12.5988 4.55117L13.0356 4.54874L13.0918 4.11551L12.596 4.05118ZM12.4986 2.97965L12.0226 3.13273L12.0226 3.13275L12.4986 2.97965ZM11.9578 2.067L11.5967 2.41276L11.5967 2.41277L11.9578 2.067ZM25.2381 1.33049L25.2412 1.83048L25.2786 1.83025L25.3156 1.82445L25.2381 1.33049ZM26.2536 1.42133L26.417 0.948767L26.417 0.948767L26.2536 1.42133ZM16.4522 1.38516L16.449 0.885174L15.9494 0.888284L15.9522 1.38796L16.4522 1.38516ZM16.5076 11.3228L16.0076 11.3256L16.0104 11.8256L16.5104 11.8228L16.5076 11.3228ZM17.1348 11.3193L17.1376 11.8193L17.6376 11.8165L17.6348 11.3165L17.1348 11.3193ZM17.1089 6.67751L17.1061 6.17752L16.6061 6.18031L16.6089 6.6803L17.1089 6.67751ZM25.265 6.63198L25.2678 7.13197L25.3053 7.13176L25.3424 7.12596L25.265 6.63198ZM26.0266 6.70027L25.8631 7.17279L25.8631 7.17279L26.0266 6.70027ZM26.6791 7.12102L26.3179 7.46679L26.3179 7.46679L26.6791 7.12102ZM27.0846 7.80542L27.5606 7.65233L27.5606 7.65232L27.0846 7.80542ZM27.1577 8.609L26.6619 8.54456L26.6575 8.57804L26.6577 8.61179L27.1577 8.609ZM27.1725 11.259L26.6725 11.2618L26.6753 11.7618L27.1753 11.759L27.1725 11.259ZM27.8024 11.2555L27.8052 11.7555L28.3051 11.7527L28.3024 11.2527L27.8024 11.2555ZM27.7876 8.60548L27.2906 8.55045L27.2874 8.57927L27.2876 8.60827L27.7876 8.60548ZM27.5763 7.28551L27.1218 7.4939L27.1218 7.49391L27.5763 7.28551ZM26.7266 6.29185L26.4491 5.87598L25.8184 6.29693L26.4537 6.7108L26.7266 6.29185ZM27.5652 5.28876L27.1084 5.08545L27.1084 5.08545L27.5652 5.28876ZM27.7617 3.96652L27.2658 3.90202L27.2577 3.96453L27.2654 4.0271L27.7617 3.96652ZM27.6643 2.89499L27.1883 3.04801L27.1884 3.04818L27.6643 2.89499ZM27.1236 1.98234L27.4848 1.63658L27.4847 1.63649L27.1236 1.98234ZM27.0587 3.16646L27.5347 3.01336L27.5347 3.01335L27.0587 3.16646ZM27.1318 3.97003L26.636 3.9056L26.6272 3.97282L26.6367 4.03993L27.1318 3.97003ZM26.6532 2.48206L26.292 2.82782L26.292 2.82782L26.6532 2.48206ZM26.0007 2.0613L25.8372 2.53382L25.8372 2.53382L26.0007 2.0613ZM25.2391 1.99301L25.2419 2.493L25.2794 2.49279L25.3165 2.487L25.2391 1.99301ZM17.083 2.03855L17.0802 1.53855L16.5802 1.54134L16.583 2.04134L17.083 2.03855ZM17.1052 6.0136L16.6052 6.01639L16.608 6.51638L17.108 6.51359L17.1052 6.0136ZM25.2587 5.96808L25.3313 5.47338L25.2938 5.46787L25.2559 5.46808L25.2587 5.96808ZM26.0202 5.89235L25.8521 5.42147L25.852 5.42149L26.0202 5.89235ZM26.669 5.46454L27.0337 5.8066L27.0338 5.80647L26.669 5.46454ZM27.0676 4.77516L26.59 4.62706L26.59 4.62729L27.0676 4.77516ZM34.1834 11.2185L34.1806 10.7185L34.1431 10.7187L34.106 10.7245L34.1834 11.2185ZM33.1681 11.1276L33.3315 10.6551L33.3314 10.6551L33.1681 11.1276ZM40.4553 11.1835L40.5273 10.6887L40.4901 10.6833L40.4526 10.6835L40.4553 11.1835ZM41.4698 11.0813L41.3011 10.6106L41.3011 10.6106L41.4698 11.0813ZM42.3335 10.5106L42.6984 10.8524L42.6985 10.8523L42.3335 10.5106ZM42.8639 9.59198L42.3863 9.44411L42.3863 9.44427L42.8639 9.59198ZM42.9493 8.51943L42.4493 8.52222L42.4495 8.55601L42.4542 8.58946L42.9493 8.51943ZM42.9234 3.87765L42.4276 3.81315L42.4232 3.84666L42.4234 3.88044L42.9234 3.87765ZM42.8261 2.80612L42.3501 2.95915L42.3501 2.95932L42.8261 2.80612ZM42.2854 1.89347L42.6466 1.54772L42.6465 1.54763L42.2854 1.89347ZM41.4153 1.33246L41.252 1.80503L41.252 1.80503L41.4153 1.33246ZM40.3998 1.24162L40.4026 1.74162L40.4402 1.74141L40.4773 1.73559L40.3998 1.24162ZM34.1279 1.27664L34.056 1.77143L34.0932 1.77684L34.1307 1.77663L34.1279 1.27664ZM33.1137 1.37881L32.945 0.908102L32.945 0.908103L33.1137 1.37881ZM32.2499 1.9495L31.885 1.60771L31.8849 1.6078L32.2499 1.9495ZM31.7195 2.86813L32.1971 3.016L32.1972 3.01583L31.7195 2.86813ZM31.634 3.94068L32.134 3.93789L32.1338 3.90419L32.1291 3.87083L31.634 3.94068ZM31.6599 8.58246L32.1557 8.64677L32.1601 8.61336L32.1599 8.57967L31.6599 8.58246ZM31.7574 9.65399L32.2334 9.50095L32.2333 9.50079L31.7574 9.65399ZM32.298 10.5666L31.9369 10.9124L31.937 10.9125L32.298 10.5666ZM32.3576 9.38253L32.8336 9.22943L32.3576 9.38253ZM32.2844 8.57897L32.7803 8.64317L32.7846 8.60981L32.7844 8.57618L32.2844 8.57897ZM32.7632 10.0669L33.1244 9.72117L33.1244 9.72115L32.7632 10.0669ZM33.4157 10.4877L33.2522 10.9602L33.2522 10.9602L33.4157 10.4877ZM34.1771 10.556L34.1743 10.056L34.1368 10.0562L34.0998 10.062L34.1771 10.556ZM40.449 10.521L40.5207 10.0262L40.4837 10.0208L40.4462 10.021L40.449 10.521ZM41.8574 10.0162L41.4924 9.67444L41.4924 9.67445L41.8574 10.0162ZM42.2554 9.32727L41.7777 9.17949L41.7777 9.1795L42.2554 9.32727ZM42.3195 8.52295L41.8195 8.52574L41.8196 8.55949L41.8244 8.59291L42.3195 8.52295ZM42.2935 3.88117L41.7977 3.81674L41.7934 3.85021L41.7935 3.88396L42.2935 3.88117ZM42.2205 3.0776L42.6965 2.9245L42.6965 2.92449L42.2205 3.0776ZM41.1624 1.97244L41.3259 1.49991L41.3259 1.49991L41.1624 1.97244ZM40.4009 1.90415L40.4037 2.40414L40.4411 2.40393L40.4782 2.39813L40.4009 1.90415ZM34.129 1.93916L34.0571 2.43397L34.0943 2.43936L34.1318 2.43915L34.129 1.93916ZM33.3684 2.01595L33.1996 1.54528L33.1996 1.54528L33.3684 2.01595ZM32.7206 2.44396L33.0857 2.78567L33.0857 2.78567L32.7206 2.44396ZM32.3227 3.13285L31.8451 2.98507L31.8451 2.98508L32.3227 3.13285ZM32.2585 3.93719L32.7585 3.9344L32.7583 3.90077L32.7536 3.86746L32.2585 3.93719ZM57.4852 8.43828L56.9852 8.44107L56.9854 8.47483L56.9901 8.50825L57.4852 8.43828ZM57.4445 1.15069L57.4417 0.650696L56.9417 0.653487L56.9445 1.15348L57.4445 1.15069ZM57.4211 9.24261L56.9434 9.09482L56.9434 9.09483L57.4211 9.24261ZM57.0232 9.93149L56.6582 9.58977L56.6582 9.58978L57.0232 9.93149ZM56.3755 10.3595L56.2067 9.88885L56.2067 9.88886L56.3755 10.3595ZM55.6149 10.4363L55.6867 9.94149L55.6496 9.93611L55.6121 9.93632L55.6149 10.4363ZM49.3428 10.4713L49.34 9.97133L49.3025 9.97154L49.2655 9.97734L49.3428 10.4713ZM48.5814 10.403L48.7449 9.93051L48.7449 9.93051L48.5814 10.403ZM47.9289 9.98226L48.2901 9.6365L48.2901 9.63649L47.9289 9.98226ZM47.5234 9.29786L47.0474 9.45096L47.0474 9.45097L47.5234 9.29786ZM47.4503 8.4943L47.9461 8.55874L47.9505 8.52527L47.9503 8.49151L47.4503 8.4943ZM47.4096 1.20671L47.9096 1.20392L47.9068 0.703927L47.4068 0.706718L47.4096 1.20671ZM46.7823 1.21021L46.7795 0.71022L46.2795 0.713011L46.2823 1.213L46.7823 1.21021ZM46.823 8.49781L47.3188 8.56212L47.3232 8.5287L47.323 8.49501L46.823 8.49781ZM46.9204 9.56933L47.3964 9.4163L47.3964 9.41614L46.9204 9.56933ZM47.4611 10.482L47.0999 10.8277L47.1 10.8278L47.4611 10.482ZM48.3312 11.043L48.4945 10.5704L48.4945 10.5704L48.3312 11.043ZM49.3465 11.1338L49.3437 10.6338L49.3062 10.6341L49.2691 10.6399L49.3465 11.1338ZM55.6186 11.0988L55.6905 10.604L55.6533 10.5986L55.6158 10.5988L55.6186 11.0988ZM56.6328 10.9966L56.4642 10.5259L56.4642 10.5259L56.6328 10.9966ZM57.4966 10.426L57.8615 10.7678L57.8616 10.7677L57.4966 10.426ZM58.027 9.50733L57.5494 9.35946L57.5493 9.35962L58.027 9.50733ZM58.1125 8.43478L57.6125 8.43757L57.6127 8.47126L57.6174 8.50462L58.1125 8.43478ZM58.0718 1.14719L58.5718 1.14439L58.569 0.644402L58.069 0.647193L58.0718 1.14719ZM71.7428 1.16737L71.9062 0.694812L71.7428 1.16737ZM70.7275 1.07653L70.7305 1.57652L70.768 1.5763L70.805 1.57049L70.7275 1.07653ZM72.6129 1.72838L72.9741 1.38263L72.974 1.38254L72.6129 1.72838ZM73.1536 2.64103L72.6776 2.79406L72.6776 2.79423L73.1536 2.64103ZM73.251 3.71256L72.7552 3.64825L72.7465 3.71538L72.7559 3.7824L73.251 3.71256ZM73.1655 4.7851L72.6879 4.63722L72.6878 4.63739L73.1655 4.7851ZM72.6351 5.70374L73 6.04554L73.0001 6.04544L72.6351 5.70374ZM71.7714 6.27441L71.6027 5.8037L71.6027 5.80371L71.7714 6.27441ZM70.7571 6.3766L70.829 5.8818L70.7918 5.8764L70.7543 5.87661L70.7571 6.3766ZM62.6036 6.42212L62.6008 5.92213L62.1008 5.92492L62.1036 6.42491L62.6036 6.42212ZM62.6295 11.0639L62.6323 11.5639L63.1323 11.5611L63.1295 11.0611L62.6295 11.0639ZM62.0022 11.0674L61.5022 11.0702L61.505 11.5702L62.005 11.5674L62.0022 11.0674ZM61.9467 1.12977L61.9437 0.629782L61.4439 0.632812L61.4467 1.13256L61.9467 1.12977ZM72.6237 3.71606L72.1279 3.65163L72.0541 4.21925L72.6265 4.21606L72.6237 3.71606ZM72.5507 2.91249L73.0266 2.7594L73.0266 2.75938L72.5507 2.91249ZM72.625 3.71606L73.1201 3.64612L73.059 3.21362L72.6223 3.21606L72.625 3.71606ZM72.561 4.52079L73.0386 4.66873L73.0386 4.6685L72.561 4.52079ZM71.5144 5.63784L71.346 5.16705L71.3459 5.16707L71.5144 5.63784ZM70.7534 5.71409L70.8256 5.21934L70.7883 5.21389L70.7506 5.2141L70.7534 5.71409ZM62.5999 5.75961L62.0999 5.7624L62.1027 6.26239L62.6027 6.2596L62.5999 5.75961ZM62.5777 1.78456L62.5749 1.28457L62.0749 1.28736L62.0777 1.78735L62.5777 1.78456ZM70.7312 1.73904L70.734 2.23903L70.7715 2.23882L70.8085 2.23302L70.7312 1.73904ZM71.4926 1.80733L71.3291 2.27985L71.3291 2.27985L71.4926 1.80733ZM72.1451 2.22809L72.5063 1.88233L72.5062 1.88232L72.1451 2.22809ZM78.3657 10.8753L78.5291 10.4027L78.5291 10.4027L78.3657 10.8753ZM79.3811 10.9662L79.3783 10.4662L79.3407 10.4664L79.3036 10.4722L79.3811 10.9662ZM77.4957 10.3143L77.1345 10.6601L77.1346 10.6602L77.4957 10.3143ZM76.955 9.40166L77.431 9.24864L77.4309 9.24846L76.955 9.40166ZM76.8575 8.33013L76.8547 7.83014L76.4179 7.83258L76.3617 8.26581L76.8575 8.33013ZM77.4848 8.32663L77.9807 8.39105L78.0544 7.82344L77.482 7.82664L77.4848 8.32663ZM77.5579 9.13019L77.0819 9.28329L77.0819 9.2833L77.5579 9.13019ZM77.9635 9.81459L78.3247 9.46883L78.3246 9.46881L77.9635 9.81459ZM79.3774 10.3036L79.3746 9.80366L79.3371 9.80387L79.3 9.80966L79.3774 10.3036ZM85.6494 10.2686L85.7212 9.77382L85.6841 9.76843L85.6466 9.76864L85.6494 10.2686ZM87.0577 9.76382L86.6927 9.42209L86.6927 9.42211L87.0577 9.76382ZM87.4556 9.07493L87.9333 9.22271L87.9333 9.22271L87.4556 9.07493ZM87.5199 8.2706L87.024 8.2064L87.0153 8.27342L87.0248 8.34034L87.5199 8.2706ZM87.4467 7.46703L87.9226 7.31394L87.9226 7.31393L87.4467 7.46703ZM87.0411 6.78263L87.4023 6.43686L87.4022 6.43686L87.0411 6.78263ZM85.6272 6.29358L85.63 6.79358L85.6675 6.79337L85.7045 6.78756L85.6272 6.29358ZM79.3552 6.3286L79.3524 5.82861L79.3148 5.82882L79.2777 5.83464L79.3552 6.3286ZM78.3398 6.23774L78.5032 5.76519L78.5032 5.76518L78.3398 6.23774ZM77.4698 5.67675L77.1086 6.02251L77.1087 6.0226L77.4698 5.67675ZM76.9291 4.76409L77.4051 4.61107L77.405 4.61088L76.9291 4.76409ZM76.8316 3.69257L77.3275 3.75689L77.3362 3.68975L77.3267 3.62272L76.8316 3.69257ZM76.9171 2.62002L77.3947 2.7679L77.3948 2.76771L76.9171 2.62002ZM77.4476 1.70139L77.0826 1.3596L77.0826 1.35969L77.4476 1.70139ZM78.3113 1.1307L78.1427 0.659995L78.3113 1.1307ZM79.3256 1.02853L79.2536 1.52333L79.2908 1.52873L79.3284 1.52852L79.3256 1.02853ZM85.5976 0.993516L85.6004 1.49351L85.6378 1.4933L85.6748 1.48753L85.5976 0.993516ZM86.6126 1.08489L86.7762 0.612424L86.7761 0.612404L86.6126 1.08489ZM87.4821 1.646L87.8434 1.30043L87.8433 1.30032L87.4821 1.646ZM88.0225 2.55843L88.4985 2.40552L88.4985 2.40535L88.0225 2.55843ZM88.1197 3.62955L88.1225 4.12954L88.5593 4.12711L88.6155 3.69389L88.1197 3.62955ZM87.4925 3.63305L86.9967 3.56862L86.9229 4.13624L87.4953 4.13305L87.4925 3.63305ZM87.4194 2.82948L87.8954 2.67639L87.8954 2.67637L87.4194 2.82948ZM87.0139 2.14508L87.375 1.79932L87.375 1.79931L87.0139 2.14508ZM86.3614 1.72432L86.1979 2.19684L86.1979 2.19684L86.3614 1.72432ZM85.6 1.65603L85.6028 2.15602L85.6403 2.15581L85.6773 2.15001L85.6 1.65603ZM79.3279 1.69105L79.2561 2.18586L79.2932 2.19125L79.3307 2.19104L79.3279 1.69105ZM78.5673 1.76783L78.7361 2.2385L78.7361 2.2385L78.5673 1.76783ZM77.9196 2.19585L77.5546 1.85413L77.5546 1.85414L77.9196 2.19585ZM77.5217 2.88474L77.9994 3.03252L77.9994 3.03251L77.5217 2.88474ZM77.4576 3.68908L77.9534 3.75351L77.9622 3.68626L77.9527 3.61911L77.4576 3.68908ZM77.5307 4.49264L78.0067 4.33953L78.0067 4.33952L77.5307 4.49264ZM77.9363 5.17704L78.2974 4.83127L78.2974 4.83126L77.9363 5.17704ZM78.5887 5.59781L78.4252 6.07033L78.4252 6.07033L78.5887 5.59781ZM79.3501 5.6661L79.3473 5.16611L79.3099 5.16632L79.2728 5.17211L79.3501 5.6661ZM85.6222 5.63108L85.625 6.13108L85.6625 6.13087L85.6996 6.12504L85.6222 5.63108ZM86.6375 5.72192L86.8009 5.24937L86.8009 5.24936L86.6375 5.72192ZM87.5076 6.28293L87.8687 5.93718L87.8687 5.93709L87.5076 6.28293ZM88.0483 7.19558L87.5723 7.34861L87.5723 7.34878L88.0483 7.19558ZM88.1456 8.26711L87.6498 8.20262L87.641 8.26993L87.6505 8.33713L88.1456 8.26711ZM88.0602 9.33966L87.5826 9.19179L87.5825 9.19195L88.0602 9.33966ZM87.5298 10.2583L87.8947 10.6001L87.8948 10.6L87.5298 10.2583ZM86.666 10.829L86.4974 10.3583L86.4974 10.3583L86.666 10.829ZM85.6518 10.9311L85.7237 10.4364L85.6865 10.4309L85.649 10.4312L85.6518 10.9311ZM92.6381 6.25022L92.6353 5.75023L92.1353 5.75302L92.1381 6.25302L92.6381 6.25022ZM92.664 10.892L92.6668 11.392L93.1668 11.3892L93.164 10.8892L92.664 10.892ZM102.676 6.19419L103.176 6.19139L103.173 5.6914L102.673 5.69419L102.676 6.19419ZM102.702 10.836L102.202 10.8388L102.205 11.3387L102.705 11.336L102.702 10.836ZM103.329 10.8325L103.332 11.3325L103.832 11.3297L103.829 10.8297L103.329 10.8325ZM103.273 0.894836L103.773 0.892045L103.771 0.392053L103.271 0.394844L103.273 0.894836ZM102.646 0.898338L102.643 0.398345L102.143 0.401137L102.146 0.901129L102.646 0.898338ZM102.672 5.54012L102.675 6.04011L103.175 6.03732L103.172 5.53733L102.672 5.54012ZM92.6345 5.59615L92.1345 5.59895L92.1373 6.09894L92.6373 6.09615L92.6345 5.59615ZM92.6086 0.954376L93.1085 0.951584L93.1058 0.451592L92.6058 0.454383L92.6086 0.954376ZM91.9814 0.957877L91.9786 0.457885L91.4786 0.460676L91.4814 0.960668L91.9814 0.957877ZM92.0368 10.8955L91.5369 10.8983L91.5396 11.3983L92.0396 11.3955L92.0368 10.8955ZM108.694 10.7049L108.53 11.1773L108.53 11.1774L108.694 10.7049ZM109.709 10.7968L109.706 10.2969L109.669 10.2971L109.632 10.3028L109.709 10.7968ZM107.825 10.1437L108.187 9.79819L108.186 9.7981L107.825 10.1437ZM107.285 9.23153L106.809 9.38448L106.809 9.3845L107.285 9.23153ZM107.188 8.1608L107.684 8.22516L107.688 8.19173L107.688 8.15801L107.188 8.1608ZM107.162 3.51902L107.662 3.51623L107.662 3.48245L107.657 3.44901L107.162 3.51902ZM107.247 2.44647L107.725 2.59435L107.725 2.59418L107.247 2.44647ZM107.778 1.52784L107.413 1.18606L107.413 1.18614L107.778 1.52784ZM108.641 0.957158L108.473 0.486449L108.473 0.486451L108.641 0.957158ZM109.656 0.854985L109.584 1.34979L109.621 1.35519L109.659 1.35498L109.656 0.854985ZM115.936 0.819927L115.938 1.31992L115.976 1.31971L116.013 1.31389L115.936 0.819927ZM116.951 0.910767L116.788 1.38333L116.951 0.910767ZM117.821 1.47177L118.182 1.12602L118.182 1.12593L117.821 1.47177ZM118.362 2.38442L117.886 2.53745L117.886 2.53762L118.362 2.38442ZM118.459 3.45595L117.963 3.39163L117.959 3.42505L117.959 3.45875L118.459 3.45595ZM118.485 8.09773L117.985 8.10052L117.985 8.13422L117.99 8.16759L118.485 8.09773ZM118.4 9.17028L117.922 9.02242L117.922 9.02257L118.4 9.17028ZM117.869 10.0889L118.234 10.4307L118.234 10.4306L117.869 10.0889ZM117.006 10.6596L116.837 10.1889L116.837 10.1889L117.006 10.6596ZM115.991 10.7618L116.063 10.267L116.026 10.2616L115.988 10.2618L115.991 10.7618ZM107.812 8.15732L108.308 8.22176L108.312 8.18885L108.312 8.15566L107.812 8.15732ZM107.885 8.96088L108.361 8.80778L108.361 8.80778L107.885 8.96088ZM107.797 3.5197L108.297 3.51804L108.297 3.48384L108.292 3.44998L107.797 3.5197ZM107.861 2.71536L107.384 2.56757L107.384 2.56759L107.861 2.71536ZM108.259 2.02647L107.894 1.68476L107.894 1.68476L108.259 2.02647ZM108.907 1.59846L108.738 1.12779L108.738 1.12779L108.907 1.59846ZM109.667 1.52167L109.596 2.01648L109.633 2.02187L109.67 2.02166L109.667 1.52167ZM115.939 1.48666L115.942 1.98665L115.98 1.98644L116.016 1.98067L115.939 1.48666ZM116.7 1.55484L116.863 1.08227L116.863 1.08224L116.7 1.55484ZM117.351 1.97449L116.991 2.32059L116.991 2.32059L117.351 1.97449ZM117.757 2.65726L117.282 2.81109L117.282 2.81131L117.757 2.65726ZM117.832 3.45946L117.336 3.39663L117.332 3.42931L117.332 3.46225L117.832 3.45946ZM117.858 8.10124L117.358 8.10403L117.358 8.13766L117.363 8.17096L117.858 8.10124ZM117.794 8.90556L117.316 8.75777L117.316 8.75778L117.794 8.90556ZM117.396 9.59445L117.031 9.25273L117.031 9.25274L117.396 9.59445ZM115.987 10.0993L116.059 9.60444L116.022 9.59906L115.985 9.59927L115.987 10.0993ZM109.705 10.1343L109.702 9.63435L109.665 9.63456L109.628 9.64035L109.705 10.1343ZM108.291 9.64528L108.652 9.29952L108.652 9.2995L108.291 9.64528ZM132.106 0.83038L131.943 1.30294L131.943 1.30294L132.106 0.83038ZM131.091 0.739539L131.094 1.23953L131.131 1.2393L131.168 1.2335L131.091 0.739539ZM132.976 1.39139L132.615 1.73723L132.615 1.73735L132.976 1.39139ZM133.517 2.30404L133.04 2.4559L133.041 2.45756L133.517 2.30404ZM133.615 3.37557L133.119 3.31233L133.11 3.37838L133.119 3.44434L133.615 3.37557ZM133.529 4.4481L133.051 4.2999L133.051 4.30158L133.529 4.4481ZM132.998 5.36675L132.634 5.02484L132.634 5.02494L132.998 5.36675ZM132.135 5.93742L131.966 5.46671L131.966 5.46672L132.135 5.93742ZM131.12 6.03961L131.192 5.54481L131.155 5.5394L131.118 5.53961L131.12 6.03961ZM122.97 6.08511L122.967 5.58512L122.467 5.58791L122.47 6.0879L122.97 6.08511ZM122.996 10.7269L122.998 11.2269L123.498 11.2241L123.496 10.7241L122.996 10.7269ZM122.368 10.7304L121.868 10.7332L121.871 11.2332L122.371 11.2304L122.368 10.7304ZM122.313 0.792764L122.31 0.292773L121.81 0.295803L121.813 0.795555L122.313 0.792764ZM132.987 3.37907L132.491 3.31584L132.419 3.88225L132.99 3.87906L132.987 3.37907ZM132.914 2.5755L132.438 2.72861L132.438 2.72949L132.914 2.5755ZM132.995 3.37902L133.491 3.31039L133.431 2.87659L132.993 2.87903L132.995 3.37902ZM132.931 4.18497L132.453 4.03635L132.453 4.03677L132.931 4.18497ZM132.531 4.87483L132.896 5.2171L132.896 5.2171L132.531 4.87483ZM131.882 5.30242L132.049 5.77353L132.049 5.7735L131.882 5.30242ZM131.119 5.37708L131.193 4.88252L131.155 4.87688L131.117 4.87709L131.119 5.37708ZM122.966 5.4226L122.466 5.42539L122.469 5.92538L122.969 5.92259L122.966 5.4226ZM122.944 1.44755L122.941 0.947559L122.441 0.95035L122.444 1.45034L122.944 1.44755ZM131.095 1.40205L131.097 1.90204L131.135 1.90183L131.172 1.89603L131.095 1.40205ZM131.856 1.47034L132.019 0.997818L132.019 0.997815L131.856 1.47034ZM132.508 1.89109L132.87 1.54534L132.87 1.54532L132.508 1.89109ZM10.1499 1.90912C10.4092 1.86845 10.6742 1.89202 10.9245 1.97855L11.2512 1.03344C10.847 0.893699 10.4167 0.855058 9.99497 0.921191L10.1499 1.90912ZM3.79498 1.94599L10.0749 1.91515L10.07 0.91516L3.79007 0.946L3.79498 1.94599ZM2.94681 2.01887C3.19614 1.92954 3.46084 1.90303 3.72058 1.94079L3.86447 0.951196C3.44203 0.889776 3.01216 0.933219 2.60954 1.07746L2.94681 2.01887ZM2.27953 2.46055C2.46852 2.25867 2.69735 2.10824 2.94681 2.01887L2.60954 1.07746C2.20704 1.22166 1.84449 1.46201 1.54948 1.77715L2.27953 2.46055ZM1.8616 3.18525C1.94665 2.91035 2.09042 2.66255 2.27951 2.46057L1.5495 1.77713C1.25458 2.09215 1.03507 2.47338 0.906272 2.88971L1.8616 3.18525ZM1.79366 4.04017C1.75314 3.75307 1.77656 3.46018 1.86161 3.18524L0.906267 2.88973C0.7775 3.30602 0.742457 3.74756 0.803465 4.1799L1.79366 4.04017ZM1.82447 8.74902L1.79855 4.10724L0.798568 4.11282L0.824482 8.7546L1.82447 8.74902ZM1.89785 9.67098C1.80963 9.39682 1.78292 9.10397 1.82031 8.81624L0.828642 8.68739C0.772338 9.12071 0.812342 9.56219 0.94593 9.97731L1.89785 9.67098ZM2.32439 10.3913C2.1328 10.1914 1.98606 9.94509 1.89785 9.67098L0.94593 9.97731C1.07953 10.3925 1.30361 10.7715 1.6024 11.0832L2.32439 10.3913ZM2.99736 10.8253C2.74665 10.7389 2.51586 10.5911 2.32438 10.3913L1.60241 11.0832C1.9013 11.3951 2.26697 11.6313 2.67148 11.7707L2.99736 10.8253ZM3.7726 10.894C3.51313 10.935 3.24791 10.9117 2.99736 10.8253L2.67147 11.7707C3.07611 11.9102 3.50684 11.9484 3.92879 11.8817L3.7726 10.894ZM10.1251 10.8528L3.8479 10.8878L3.85348 11.8878L10.1307 11.8528L10.1251 10.8528ZM10.97 10.7782C10.7215 10.8676 10.4576 10.8947 10.1984 10.8578L10.0574 11.8478C10.4789 11.9078 10.9075 11.8635 11.3088 11.719L10.97 10.7782ZM11.6352 10.337C11.4468 10.5384 11.2187 10.6886 10.97 10.7782L11.3088 11.719C11.71 11.5746 12.0713 11.3346 12.3654 11.0202L11.6352 10.337ZM12.0523 9.61436C11.9672 9.88844 11.8238 10.1355 11.6352 10.337L12.3654 11.0202C12.6595 10.706 12.8785 10.3259 13.0073 9.9108L12.0523 9.61436ZM12.1213 8.76182C12.1611 9.04824 12.1373 9.34027 12.0523 9.61438L13.0073 9.91078C13.1362 9.49573 13.1718 9.05548 13.1118 8.62416L12.1213 8.76182ZM12.1018 6.04575L12.1166 8.69578L13.1166 8.6902L13.1018 6.04017L12.1018 6.04575ZM6.33268 6.57796L12.6046 6.54295L12.599 5.54296L6.32709 5.57798L6.33268 6.57796ZM6.83358 6.73769L6.82988 6.07518L5.82989 6.08076L5.83359 6.74327L6.83358 6.73769ZM11.9808 6.20895L6.33079 6.24049L6.33637 7.24047L11.9864 7.20893L11.9808 6.20895ZM12.4947 8.69367L12.4836 6.70615L11.4836 6.71173L11.4947 8.69925L12.4947 8.69367ZM12.4082 9.64861C12.5103 9.31877 12.538 8.9691 12.4898 8.62674L11.4996 8.76619C11.5274 8.96338 11.5112 9.16446 11.4529 9.35296L12.4082 9.64861ZM11.8976 10.5314C12.132 10.281 12.3061 9.97848 12.4082 9.64861L11.4529 9.35296C11.3946 9.54144 11.2962 9.71061 11.1676 9.84795L11.8976 10.5314ZM11.0536 11.0884C11.3746 10.9733 11.6631 10.7819 11.8976 10.5314L11.1676 9.84798C11.0391 9.98523 10.8842 10.0868 10.7162 10.147L11.0536 11.0884ZM10.0524 11.1893C10.3896 11.2382 10.7326 11.2035 11.0536 11.0884L10.7162 10.147C10.5484 10.2072 10.3705 10.225 10.196 10.1997L10.0524 11.1893ZM3.84981 11.2295L10.127 11.1945L10.1214 10.1945L3.84422 10.2295L3.84981 11.2295ZM2.92207 11.1338C3.24442 11.2453 3.58778 11.2762 3.92433 11.2235L3.7697 10.2356C3.5955 10.2628 3.41744 10.247 3.24895 10.1887L2.92207 11.1338ZM2.07193 10.5862C2.30919 10.8341 2.59987 11.0223 2.92207 11.1338L3.24896 10.1887C3.08034 10.1304 2.9243 10.0305 2.79428 9.89471L2.07193 10.5862ZM1.55154 9.70922C1.65731 10.0379 1.83478 10.3385 2.07193 10.5862L2.79428 9.89471C2.66417 9.7588 2.56391 9.59074 2.50348 9.40292L1.55154 9.70922ZM1.45849 8.6883C1.41408 9.03121 1.44579 9.38056 1.55154 9.70922L2.50348 9.40293C2.44303 9.21507 2.42464 9.01419 2.45021 8.81674L1.45849 8.6883ZM1.42844 4.11353L1.45436 8.75531L2.45434 8.74972L2.42843 4.10795L1.42844 4.11353ZM1.51497 3.15858C1.4129 3.48841 1.38509 3.83809 1.43333 4.18049L2.42355 4.04099C2.39577 3.84383 2.41192 3.64276 2.47027 3.45422L1.51497 3.15858ZM2.02552 2.27581C1.79118 2.52616 1.61706 2.82869 1.51497 3.15857L2.47027 3.45422C2.5286 3.26576 2.62697 3.09659 2.75557 2.95921L2.02552 2.27581ZM2.86951 1.71882C2.54859 1.83385 2.26002 2.02532 2.02553 2.2758L2.75556 2.95922C2.88405 2.82197 3.03896 2.72038 3.20693 2.66017L2.86951 1.71882ZM3.87073 1.61789C3.53358 1.56896 3.19058 1.60374 2.86951 1.71882L3.20692 2.66017C3.37477 2.60001 3.55263 2.5822 3.72709 2.60752L3.87073 1.61789ZM10.0733 1.57767L3.79612 1.61271L3.8017 2.6127L10.0789 2.57765L10.0733 1.57767ZM11.0007 1.67532C10.679 1.5634 10.3363 1.53175 10.0001 1.58348L10.1522 2.57185C10.3261 2.54508 10.5039 2.56127 10.672 2.61978L11.0007 1.67532ZM11.8488 2.22327C11.6121 1.97557 11.3222 1.78719 11.0007 1.67532L10.672 2.61978C10.8403 2.67833 10.996 2.77827 11.1257 2.91403L11.8488 2.22327ZM12.3678 3.09936C12.2623 2.77111 12.0853 2.47086 11.8488 2.22327L11.1257 2.91403C11.2555 3.0499 11.3555 3.21778 11.4157 3.40533L12.3678 3.09936ZM12.4607 4.11873C12.5049 3.77636 12.4733 3.42757 12.3678 3.09936L11.4157 3.40533C11.476 3.5929 11.4944 3.79347 11.4689 3.99068L12.4607 4.11873ZM12.5932 3.55119L11.962 3.55471L11.9676 4.5547L12.5988 4.55117L12.5932 3.55119ZM12.0226 3.13275C12.1108 3.40671 12.1375 3.69932 12.1001 3.98685L13.0918 4.11551C13.148 3.68252 13.108 3.2414 12.9746 2.82656L12.0226 3.13275ZM11.5967 2.41277C11.788 2.61264 11.9345 2.85881 12.0226 3.13273L12.9746 2.82658C12.8412 2.41169 12.6174 2.03293 12.319 1.72124L11.5967 2.41277ZM10.9245 1.97855C11.1749 2.06513 11.4054 2.213 11.5967 2.41276L12.319 1.72125C12.0205 1.40942 11.6553 1.17313 11.2512 1.03344L10.9245 1.97855ZM25.3156 1.82445C25.575 1.78378 25.8399 1.80735 26.0903 1.89389L26.417 0.948767C26.0127 0.809032 25.5825 0.770394 25.1607 0.836522L25.3156 1.82445ZM16.4553 1.88515L25.2412 1.83048L25.235 0.830498L16.449 0.885174L16.4553 1.88515ZM17.0076 11.32L16.9522 1.38237L15.9522 1.38796L16.0076 11.3256L17.0076 11.32ZM17.132 10.8193L16.5048 10.8228L16.5104 11.8228L17.1376 11.8193L17.132 10.8193ZM16.6089 6.6803L16.6348 11.3221L17.6348 11.3165L17.6089 6.67472L16.6089 6.6803ZM25.2623 6.13198L17.1061 6.17752L17.1117 7.1775L25.2678 7.13197L25.2623 6.13198ZM26.1901 6.22774C25.8678 6.11624 25.5244 6.0853 25.1877 6.13799L25.3424 7.12596C25.5166 7.09869 25.6947 7.11452 25.8631 7.17279L26.1901 6.22774ZM27.0402 6.77526C26.8029 6.52737 26.5121 6.33916 26.1901 6.22774L25.8631 7.17279C26.0318 7.23114 26.1879 7.33102 26.3179 7.46679L27.0402 6.77526ZM27.5606 7.65232C27.4549 7.32357 27.2774 7.02298 27.0402 6.77526L26.3179 7.46679C26.448 7.60272 26.5483 7.77076 26.6087 7.95853L27.5606 7.65232ZM27.6535 8.67343C27.6981 8.33031 27.6663 7.98091 27.5606 7.65233L26.6087 7.95852C26.6691 8.14649 26.6875 8.34731 26.6619 8.54456L27.6535 8.67343ZM27.6725 11.2562L27.6577 8.60621L26.6577 8.61179L26.6725 11.2618L27.6725 11.2562ZM27.7996 10.7555L27.1697 10.759L27.1753 11.759L27.8052 11.7555L27.7996 10.7555ZM27.2876 8.60827L27.3024 11.2583L28.3024 11.2527L28.2876 8.60269L27.2876 8.60827ZM27.1218 7.49391C27.2717 7.82075 27.3308 8.18756 27.2906 8.55045L28.2845 8.66051C28.3445 8.11902 28.2568 7.56997 28.0308 7.07712L27.1218 7.49391ZM26.4537 6.7108C26.7391 6.89668 26.9721 7.1673 27.1218 7.4939L28.0308 7.07712C27.8047 6.584 27.4482 6.16517 26.9995 5.8729L26.4537 6.7108ZM27.1084 5.08545C26.9623 5.41369 26.7323 5.6869 26.4491 5.87598L27.0042 6.70772C27.4496 6.41045 27.8014 5.98767 28.022 5.49207L27.1084 5.08545ZM27.2654 4.0271C27.3096 4.38949 27.2546 4.75696 27.1084 5.08545L28.022 5.49207C28.2424 4.99673 28.324 4.44672 28.258 3.90594L27.2654 4.0271ZM27.1884 3.04818C27.2765 3.3221 27.3032 3.61461 27.2658 3.90202L28.2575 4.03101C28.3138 3.59789 28.2738 3.15668 28.1403 2.74179L27.1884 3.04818ZM26.7625 2.32809C26.9538 2.52794 27.1003 2.7741 27.1883 3.04801L28.1403 2.74196C28.007 2.32706 27.7832 1.94829 27.4848 1.63658L26.7625 2.32809ZM26.0903 1.89389C26.3407 1.98045 26.5711 2.1283 26.7625 2.32818L27.4847 1.63649C27.1862 1.32478 26.8211 1.08848 26.417 0.948767L26.0903 1.89389ZM26.5828 3.31956C26.6432 3.50753 26.6616 3.70835 26.636 3.9056L27.6276 4.03447C27.6722 3.69134 27.6404 3.34194 27.5347 3.01336L26.5828 3.31956ZM26.292 2.82782C26.4221 2.96375 26.5224 3.13179 26.5828 3.31956L27.5347 3.01335C27.429 2.6846 27.2515 2.38401 27.0143 2.13629L26.292 2.82782ZM25.8372 2.53382C26.0059 2.59217 26.162 2.69206 26.292 2.82782L27.0143 2.13629C26.777 1.88841 26.4862 1.7002 26.1642 1.58878L25.8372 2.53382ZM25.3165 2.487C25.4908 2.45972 25.6688 2.47556 25.8372 2.53382L26.1642 1.58878C25.8419 1.47727 25.4985 1.44634 25.1618 1.49903L25.3165 2.487ZM17.0858 2.53854L25.2419 2.493L25.2364 1.49302L17.0802 1.53855L17.0858 2.53854ZM17.6052 6.0108L17.583 2.03575L16.583 2.04134L16.6052 6.01639L17.6052 6.0108ZM25.2559 5.46808L17.1024 5.5136L17.108 6.51359L25.2615 6.46807L25.2559 5.46808ZM25.852 5.42149C25.6842 5.48145 25.506 5.49904 25.3313 5.47338L25.186 6.46277C25.5234 6.51232 25.8669 6.47805 26.1884 6.36322L25.852 5.42149ZM26.3043 5.12249C26.1755 5.25986 26.0203 5.36142 25.8521 5.42147L26.1884 6.36324C26.5098 6.24847 26.7988 6.05707 27.0337 5.8066L26.3043 5.12249ZM26.59 4.62729C26.5316 4.81588 26.433 4.98518 26.3042 5.12262L27.0338 5.80647C27.2685 5.55606 27.443 5.25329 27.5452 4.92303L26.59 4.62729ZM26.6367 4.03993C26.6646 4.23739 26.6485 4.4386 26.59 4.62706L27.5452 4.92326C27.6476 4.5929 27.6753 4.24276 27.6269 3.90013L26.6367 4.03993ZM34.106 10.7245C33.8467 10.7652 33.5818 10.7416 33.3315 10.6551L33.0047 11.6002C33.4089 11.7399 33.8392 11.7786 34.2609 11.7124L34.106 10.7245ZM40.4526 10.6835L34.1806 10.7185L34.1862 11.7185L40.4581 11.6835L40.4526 10.6835ZM41.3011 10.6106C41.0518 10.6999 40.7871 10.7264 40.5273 10.6887L40.3834 11.6783C40.8059 11.7397 41.2357 11.6962 41.6384 11.552L41.3011 10.6106ZM41.9685 10.1688C41.7794 10.3708 41.5506 10.5212 41.3011 10.6106L41.6384 11.552C42.041 11.4078 42.4034 11.1674 42.6984 10.8524L41.9685 10.1688ZM42.3863 9.44427C42.3013 9.71915 42.1575 9.96694 41.9685 10.1689L42.6985 10.8523C42.9934 10.5373 43.2129 10.156 43.3416 9.73969L42.3863 9.44427ZM42.4542 8.58946C42.4948 8.87643 42.4714 9.16922 42.3863 9.44411L43.3416 9.73985C43.4705 9.3235 43.5055 8.88187 43.4444 8.4494L42.4542 8.58946ZM42.4234 3.88044L42.4493 8.52222L43.4493 8.51664L43.4234 3.87486L42.4234 3.88044ZM42.3501 2.95932C42.4383 3.23324 42.465 3.52575 42.4276 3.81315L43.4192 3.94215C43.4756 3.50903 43.4355 3.06781 43.302 2.65293L42.3501 2.95932ZM41.9242 2.23923C42.1155 2.43908 42.262 2.68524 42.3501 2.95915L43.3021 2.65309C43.1687 2.2382 42.945 1.85943 42.6466 1.54772L41.9242 2.23923ZM41.252 1.80503C41.5024 1.89159 41.7328 2.03944 41.9243 2.23931L42.6465 1.54763C42.3479 1.23592 41.9829 0.999618 41.5787 0.859903L41.252 1.80503ZM40.4773 1.73559C40.7367 1.69492 41.0016 1.71849 41.252 1.80503L41.5787 0.859903C41.1745 0.720168 40.7442 0.68153 40.3224 0.747658L40.4773 1.73559ZM34.1307 1.77663L40.4026 1.74162L40.397 0.741632L34.1251 0.776646L34.1307 1.77663ZM33.2823 1.84952C33.5317 1.76018 33.7963 1.73367 34.056 1.77143L34.1999 0.781843C33.7775 0.720418 33.3477 0.763869 32.945 0.908102L33.2823 1.84952ZM32.6149 2.29129C32.8041 2.08928 33.0329 1.93887 33.2823 1.84952L32.945 0.908103C32.5424 1.05232 32.18 1.29268 31.885 1.60771L32.6149 2.29129ZM32.1972 3.01583C32.2822 2.74095 32.4259 2.49317 32.615 2.2912L31.8849 1.6078C31.59 1.92282 31.3705 2.30407 31.2418 2.72042L32.1972 3.01583ZM32.1291 3.87083C32.0886 3.58374 32.112 3.29088 32.1971 3.016L31.2418 2.72026C31.1129 3.13661 31.0779 3.57818 31.1389 4.01052L32.1291 3.87083ZM32.1599 8.57967L32.134 3.93789L31.134 3.94347L31.1599 8.58525L32.1599 8.57967ZM32.2333 9.50079C32.1451 9.22688 32.1184 8.9343 32.1557 8.64677L31.164 8.51814C31.1079 8.95114 31.1479 9.39229 31.2814 9.80718L32.2333 9.50079ZM32.6592 10.2209C32.4679 10.021 32.3214 9.77486 32.2334 9.50095L31.2813 9.80702C31.4147 10.2219 31.6385 10.6007 31.9369 10.9124L32.6592 10.2209ZM33.3314 10.6551C33.081 10.5685 32.8506 10.4207 32.6591 10.2208L31.937 10.9125C32.2355 11.2242 32.6006 11.4605 33.0047 11.6002L33.3314 10.6551ZM32.8336 9.22943C32.7731 9.04147 32.7547 8.84057 32.7803 8.64317L31.7886 8.51477C31.7442 8.85774 31.7759 9.20706 31.8816 9.53563L32.8336 9.22943ZM33.1244 9.72115C32.9942 9.58525 32.894 9.4172 32.8336 9.22943L31.8816 9.53563C31.9874 9.86438 32.1649 10.165 32.402 10.4127L33.1244 9.72115ZM33.5791 10.0152C33.4105 9.95683 33.2544 9.85694 33.1244 9.72117L32.402 10.4127C32.6393 10.6606 32.9301 10.8488 33.2522 10.9602L33.5791 10.0152ZM34.0998 10.062C33.9256 10.0893 33.7475 10.0734 33.5791 10.0152L33.2522 10.9602C33.5745 11.0717 33.9179 11.1027 34.2544 11.05L34.0998 10.062ZM40.4462 10.021L34.1743 10.056L34.1799 11.056L40.4518 11.021L40.4462 10.021ZM41.041 9.97352C40.8732 10.0337 40.6954 10.0515 40.5207 10.0262L40.3772 11.0158C40.7144 11.0647 41.0574 11.03 41.3785 10.9149L41.041 9.97352ZM41.4924 9.67445C41.364 9.81167 41.209 9.9133 41.041 9.97352L41.3785 10.9149C41.6993 10.7998 41.9879 10.6084 42.2225 10.3579L41.4924 9.67445ZM41.7777 9.1795C41.7194 9.36793 41.621 9.53709 41.4924 9.67444L42.2224 10.3579C42.4568 10.1075 42.631 9.80496 42.733 9.47505L41.7777 9.1795ZM41.8244 8.59291C41.8522 8.78987 41.8361 8.99088 41.7777 9.17949L42.733 9.47506C42.835 9.14532 42.8629 8.79558 42.8145 8.45298L41.8244 8.59291ZM41.7935 3.88396L41.8195 8.52574L42.8194 8.52016L42.7935 3.87838L41.7935 3.88396ZM41.7445 3.2307C41.8049 3.41866 41.8233 3.61948 41.7977 3.81674L42.7894 3.9456C42.834 3.60248 42.8021 3.25308 42.6965 2.9245L41.7445 3.2307ZM41.4537 2.73896C41.5838 2.87489 41.6841 3.04293 41.7445 3.2307L42.6965 2.92449C42.5907 2.59574 42.4132 2.29515 42.1761 2.04743L41.4537 2.73896ZM40.999 2.44496C41.1676 2.50331 41.3237 2.60319 41.4537 2.73896L42.1761 2.04743C41.9388 1.79954 41.648 1.61133 41.3259 1.49991L40.999 2.44496ZM40.4782 2.39813C40.6525 2.37086 40.8305 2.3867 40.999 2.44496L41.3259 1.49991C41.0036 1.38841 40.6602 1.35747 40.3236 1.41016L40.4782 2.39813ZM34.1318 2.43915L40.4037 2.40414L40.3981 1.40416L34.1262 1.43917L34.1318 2.43915ZM33.5371 2.48662C33.7049 2.42647 33.8827 2.40866 34.0571 2.43397L34.2008 1.44435C33.8637 1.39541 33.5207 1.43019 33.1996 1.54528L33.5371 2.48662ZM33.0857 2.78567C33.2141 2.64847 33.3691 2.54685 33.5371 2.48662L33.1996 1.54528C32.8788 1.66029 32.5902 1.85173 32.3556 2.10225L33.0857 2.78567ZM32.8004 3.28063C32.8587 3.0922 32.957 2.92305 33.0857 2.78567L32.3556 2.10225C32.1213 2.3526 31.9471 2.65516 31.8451 2.98507L32.8004 3.28063ZM32.7536 3.86746C32.7259 3.67036 32.742 3.46926 32.8004 3.28062L31.8451 2.98508C31.743 3.31482 31.7152 3.66447 31.7634 4.00692L32.7536 3.86746ZM32.7844 8.57618L32.7585 3.9344L31.7585 3.93998L31.7844 8.58176L32.7844 8.57618ZM57.9852 8.43549L57.9445 1.1479L56.9445 1.15348L56.9852 8.44107L57.9852 8.43549ZM57.8988 9.39039C58.0008 9.06066 58.0287 8.71092 57.9803 8.36831L56.9901 8.50825C57.018 8.7052 57.0018 8.90621 56.9434 9.09482L57.8988 9.39039ZM57.3882 10.2732C57.6226 10.0229 57.7967 9.72029 57.8988 9.39038L56.9434 9.09483C56.8851 9.28327 56.7868 9.45242 56.6582 9.58977L57.3882 10.2732ZM56.5442 10.8302C56.865 10.7152 57.1537 10.5237 57.3882 10.2732L56.6582 9.58978C56.5297 9.727 56.3747 9.82863 56.2067 9.88885L56.5442 10.8302ZM55.543 10.9311C55.8801 10.98 56.2232 10.9453 56.5442 10.8302L56.2067 9.88886C56.039 9.94899 55.8611 9.96681 55.6867 9.94149L55.543 10.9311ZM49.3456 10.9713L55.6176 10.9363L55.6121 9.93632L49.34 9.97133L49.3456 10.9713ZM48.4179 10.8756C48.7402 10.9871 49.0837 11.018 49.4202 10.9653L49.2655 9.97734C49.0914 10.0046 48.9133 9.98878 48.7449 9.93051L48.4179 10.8756ZM47.5678 10.328C47.8051 10.5759 48.0959 10.7641 48.4179 10.8756L48.7449 9.93051C48.5762 9.87217 48.4201 9.77228 48.2901 9.6365L47.5678 10.328ZM47.0474 9.45097C47.1531 9.77971 47.3306 10.0803 47.5678 10.328L48.2901 9.63649C48.16 9.50058 48.0597 9.33253 47.9993 9.14475L47.0474 9.45097ZM46.9545 8.42987C46.9099 8.77299 46.9417 9.1224 47.0474 9.45096L47.9993 9.14476C47.9389 8.95681 47.9205 8.75599 47.9461 8.55874L46.9545 8.42987ZM46.9096 1.2095L46.9503 8.49709L47.9503 8.49151L47.9096 1.20392L46.9096 1.2095ZM46.7851 1.7102L47.4124 1.7067L47.4068 0.706718L46.7795 0.71022L46.7851 1.7102ZM47.323 8.49501L47.2823 1.20742L46.2823 1.213L46.323 8.5006L47.323 8.49501ZM47.3964 9.41614C47.3082 9.14222 47.2815 8.84965 47.3188 8.56212L46.3271 8.43349C46.271 8.86649 46.3109 9.30764 46.4445 9.72253L47.3964 9.41614ZM47.8223 10.1362C47.631 9.93638 47.4845 9.69021 47.3964 9.4163L46.4444 9.72237C46.5778 10.1372 46.8015 10.516 47.0999 10.8277L47.8223 10.1362ZM48.4945 10.5704C48.2441 10.4839 48.0137 10.336 47.8222 10.1361L47.1 10.8278C47.3986 11.1395 47.7636 11.3758 48.1678 11.5155L48.4945 10.5704ZM49.2691 10.6399C49.0098 10.6805 48.7449 10.657 48.4945 10.5704L48.1678 11.5155C48.572 11.6553 49.0023 11.6939 49.424 11.6278L49.2691 10.6399ZM55.6158 10.5988L49.3437 10.6338L49.3493 11.6338L55.6213 11.5988L55.6158 10.5988ZM56.4642 10.5259C56.2148 10.6153 55.9502 10.6418 55.6905 10.604L55.5466 11.5936C55.969 11.655 56.3988 11.6116 56.8015 11.4673L56.4642 10.5259ZM57.1316 10.0842C56.9424 10.2862 56.7136 10.4366 56.4642 10.5259L56.8015 11.4673C57.204 11.3231 57.5664 11.0828 57.8615 10.7678L57.1316 10.0842ZM57.5493 9.35962C57.4643 9.63449 57.3206 9.88229 57.1315 10.0843L57.8616 10.7677C58.1565 10.4526 58.376 10.0714 58.5047 9.65504L57.5493 9.35962ZM57.6174 8.50462C57.6579 8.79172 57.6345 9.08457 57.5494 9.35946L58.5047 9.6552C58.6335 9.23885 58.6686 8.79728 58.6076 8.36493L57.6174 8.50462ZM57.5718 1.14998L57.6125 8.43757L58.6125 8.43199L58.5718 1.14439L57.5718 1.14998ZM57.4473 1.65068L58.0746 1.64718L58.069 0.647193L57.4417 0.650696L57.4473 1.65068ZM71.9062 0.694812C71.502 0.555083 71.0717 0.516433 70.65 0.58257L70.805 1.57049C71.0642 1.52984 71.3291 1.55339 71.5795 1.63994L71.9062 0.694812ZM72.974 1.38254C72.6754 1.07083 72.3104 0.834527 71.9062 0.694812L71.5795 1.63994C71.8299 1.7265 72.0603 1.87434 72.2518 2.07422L72.974 1.38254ZM73.6296 2.488C73.4962 2.07311 73.2725 1.69434 72.9741 1.38263L72.2517 2.07414C72.443 2.27399 72.5895 2.52015 72.6776 2.79406L73.6296 2.488ZM73.7469 3.77687C73.803 3.34388 73.7631 2.90273 73.6295 2.48783L72.6776 2.79423C72.7658 3.06814 72.7925 3.36071 72.7552 3.64825L73.7469 3.77687ZM73.6432 4.93298C73.7721 4.51663 73.8071 4.07505 73.7461 3.64272L72.7559 3.7824C72.7964 4.06951 72.773 4.36236 72.6879 4.63722L73.6432 4.93298ZM73.0001 6.04544C73.295 5.73041 73.5145 5.34915 73.6432 4.9328L72.6878 4.63739C72.6028 4.91228 72.4591 5.16007 72.2701 5.36204L73.0001 6.04544ZM71.94 6.74512C72.3426 6.6009 72.705 6.36054 73 6.04554L72.2701 5.36194C72.0809 5.56394 71.8522 5.71435 71.6027 5.8037L71.94 6.74512ZM70.6851 6.8714C71.1075 6.93282 71.5374 6.88937 71.94 6.74512L71.6027 5.80371C71.3533 5.89306 71.0887 5.91957 70.829 5.8818L70.6851 6.8714ZM62.6064 6.92211L70.7599 6.87659L70.7543 5.87661L62.6008 5.92213L62.6064 6.92211ZM63.1295 11.0611L63.1036 6.41933L62.1036 6.42491L62.1295 11.0667L63.1295 11.0611ZM62.005 11.5674L62.6323 11.5639L62.6267 10.5639L61.9994 10.5674L62.005 11.5674ZM61.4467 1.13256L61.5022 11.0702L62.5022 11.0646L62.4467 1.12698L61.4467 1.13256ZM70.7245 0.576541L61.9437 0.629782L61.9497 1.62976L70.7305 1.57652L70.7245 0.576541ZM73.1195 3.7805C73.1641 3.43738 73.1323 3.08798 73.0266 2.7594L72.0747 3.06558C72.1351 3.25355 72.1535 3.45437 72.1279 3.65163L73.1195 3.7805ZM72.6223 3.21606L72.6209 3.21607L72.6265 4.21606L72.6278 4.21605L72.6223 3.21606ZM73.0386 4.6685C73.1406 4.33868 73.1685 3.98882 73.1201 3.64612L72.13 3.78599C72.1578 3.9831 72.1416 4.18431 72.0833 4.37308L73.0386 4.6685ZM72.5276 5.55174C72.7621 5.30136 72.9364 4.99873 73.0386 4.66873L72.0834 4.37285C72.0249 4.56145 71.9264 4.73069 71.7977 4.8681L72.5276 5.55174ZM71.6828 6.10862C72.004 5.99373 72.2929 5.8023 72.5276 5.55174L71.7977 4.8681C71.6692 5.00533 71.5141 5.1069 71.346 5.16705L71.6828 6.10862ZM70.6812 6.20885C71.0184 6.25807 71.3616 6.22357 71.6829 6.1086L71.3459 5.16707C71.1781 5.22712 71.0002 5.24482 70.8256 5.21934L70.6812 6.20885ZM62.6027 6.2596L70.7562 6.21408L70.7506 5.2141L62.5971 5.25962L62.6027 6.2596ZM62.0777 1.78735L62.0999 5.7624L63.0999 5.75682L63.0777 1.78177L62.0777 1.78735ZM70.7284 1.23905L62.5749 1.28457L62.5805 2.28455L70.734 2.23903L70.7284 1.23905ZM71.6561 1.33481C71.3338 1.22331 70.9904 1.19236 70.6538 1.24506L70.8085 2.23302C70.9826 2.20576 71.1607 2.22158 71.3291 2.27985L71.6561 1.33481ZM72.5062 1.88232C72.2689 1.63444 71.9781 1.44623 71.6561 1.33481L71.3291 2.27985C71.4978 2.3382 71.6539 2.43809 71.7839 2.57385L72.5062 1.88232ZM73.0266 2.75938C72.9209 2.43063 72.7434 2.13004 72.5063 1.88233L71.7839 2.57385C71.914 2.70978 72.0143 2.87783 72.0747 3.0656L73.0266 2.75938ZM78.2023 11.3479C78.6065 11.4876 79.0368 11.5263 79.4585 11.4601L79.3036 10.4722C79.0443 10.5129 78.7794 10.4893 78.5291 10.4027L78.2023 11.3479ZM77.1346 10.6602C77.4331 10.9718 77.7982 11.2081 78.2023 11.3479L78.5291 10.4027C78.2787 10.3162 78.0482 10.1683 77.8568 9.96846L77.1346 10.6602ZM76.479 9.55468C76.6123 9.96957 76.8361 10.3484 77.1345 10.6601L77.8568 9.96855C77.6655 9.7687 77.519 9.52253 77.431 9.24864L76.479 9.55468ZM76.3617 8.26581C76.3055 8.69881 76.3455 9.13997 76.479 9.55486L77.4309 9.24846C77.3428 8.97454 77.3161 8.68197 77.3534 8.39445L76.3617 8.26581ZM77.482 7.82664L76.8547 7.83014L76.8603 8.83012L77.4876 8.82662L77.482 7.82664ZM78.0339 8.97709C77.9734 8.78914 77.955 8.58831 77.9807 8.39105L76.989 8.2622C76.9444 8.60532 76.9762 8.95472 77.0819 9.28329L78.0339 8.97709ZM78.3246 9.46881C78.1945 9.33291 78.0943 9.16487 78.0339 8.97707L77.0819 9.2833C77.1877 9.61203 77.3651 9.91264 77.6023 10.1604L78.3246 9.46881ZM78.7794 9.76284C78.6108 9.70449 78.4546 9.6046 78.3247 9.46883L77.6023 10.1604C77.8396 10.4082 78.1304 10.5965 78.4525 10.7079L78.7794 9.76284ZM79.3 9.80966C79.1259 9.83693 78.9478 9.8211 78.7794 9.76284L78.4525 10.7079C78.7748 10.8194 79.1182 10.8503 79.4547 10.7976L79.3 9.80966ZM85.6466 9.76864L79.3746 9.80366L79.3802 10.8036L85.6522 10.7686L85.6466 9.76864ZM86.2413 9.72118C86.0735 9.78132 85.8956 9.79913 85.7212 9.77382L85.5776 10.7635C85.9147 10.8124 86.2577 10.7776 86.5787 10.6625L86.2413 9.72118ZM86.6927 9.42211C86.5643 9.55933 86.4093 9.66095 86.2413 9.72118L86.5787 10.6625C86.8996 10.5475 87.1882 10.356 87.4227 10.1055L86.6927 9.42211ZM86.978 8.92715C86.9197 9.11559 86.8213 9.28475 86.6927 9.42209L87.4227 10.1055C87.6571 9.85519 87.8312 9.55261 87.9333 9.22271L86.978 8.92715ZM87.0248 8.34034C87.0525 8.53744 87.0363 8.73853 86.978 8.92715L87.9333 9.22271C88.0353 8.89298 88.0632 8.54333 88.015 8.20087L87.0248 8.34034ZM86.9707 7.62013C87.0311 7.8081 87.0496 8.00901 87.024 8.2064L88.0157 8.33481C88.0601 7.99183 88.0283 7.64251 87.9226 7.31394L86.9707 7.62013ZM86.6799 7.1284C86.81 7.26433 86.9103 7.43237 86.9707 7.62013L87.9226 7.31393C87.8169 6.98518 87.6394 6.68458 87.4023 6.43686L86.6799 7.1284ZM86.2252 6.8344C86.3938 6.89274 86.5499 6.99263 86.6799 7.1284L87.4022 6.43686C87.165 6.189 86.8742 6.00078 86.5521 5.88935L86.2252 6.8344ZM85.7045 6.78756C85.8787 6.7603 86.0567 6.77613 86.2252 6.8344L86.5521 5.88935C86.2298 5.77785 85.8864 5.7469 85.5498 5.7996L85.7045 6.78756ZM79.358 6.82859L85.63 6.79358L85.6244 5.79359L79.3524 5.82861L79.358 6.82859ZM78.1764 6.7103C78.5807 6.85005 79.0109 6.8887 79.4326 6.82256L79.2777 5.83464C79.0185 5.8753 78.7535 5.85174 78.5032 5.76519L78.1764 6.7103ZM77.1087 6.0226C77.4072 6.33429 77.7723 6.57059 78.1765 6.71031L78.5032 5.76518C78.2528 5.67862 78.0223 5.53077 77.8309 5.3309L77.1087 6.0226ZM76.4531 4.9171C76.5864 5.332 76.8102 5.71079 77.1086 6.02251L77.831 5.331C77.6396 5.13115 77.4931 4.88497 77.4051 4.61107L76.4531 4.9171ZM76.3358 3.62825C76.2796 4.06125 76.3196 4.50241 76.4531 4.91729L77.405 4.61088C77.3169 4.33698 77.2902 4.04442 77.3275 3.75689L76.3358 3.62825ZM76.4395 2.47214C76.3106 2.8885 76.2755 3.33007 76.3365 3.76242L77.3267 3.62272C77.2862 3.33563 77.3096 3.04278 77.3947 2.7679L76.4395 2.47214ZM77.0826 1.35969C76.7877 1.67471 76.5682 2.05596 76.4394 2.47233L77.3948 2.76771C77.4798 2.49285 77.6235 2.24507 77.8126 2.04309L77.0826 1.35969ZM78.1427 0.659995C77.7401 0.804215 77.3777 1.04458 77.0826 1.3596L77.8125 2.04318C78.0017 1.84117 78.2305 1.69076 78.4799 1.60141L78.1427 0.659995ZM79.3975 0.533735C78.9751 0.472311 78.5453 0.515762 78.1427 0.659995L78.4799 1.60141C78.7293 1.51208 78.9939 1.48557 79.2536 1.52333L79.3975 0.533735ZM85.5948 0.493524L79.3228 0.528539L79.3284 1.52852L85.6004 1.49351L85.5948 0.493524ZM86.7761 0.612404C86.3721 0.472544 85.942 0.433662 85.5204 0.499505L85.6748 1.48753C85.9339 1.44705 86.1987 1.47074 86.449 1.55738L86.7761 0.612404ZM87.8433 1.30032C87.545 0.988532 87.1799 0.752241 86.7762 0.612424L86.449 1.55736C86.6993 1.64405 86.9297 1.79197 87.1208 1.99168L87.8433 1.30032ZM88.4985 2.40535C88.3651 1.99059 88.1414 1.612 87.8434 1.30043L87.1207 1.99158C87.3119 2.19152 87.4585 2.43771 87.5465 2.71151L88.4985 2.40535ZM88.6155 3.69389C88.6717 3.26099 88.6317 2.82008 88.4985 2.40552L87.5465 2.71134C87.6345 2.9853 87.6611 3.27784 87.6239 3.56522L88.6155 3.69389ZM87.4953 4.13305L88.1225 4.12954L88.1169 3.12956L87.4897 3.13306L87.4953 4.13305ZM86.9435 2.98257C87.0039 3.17054 87.0223 3.37137 86.9967 3.56862L87.9883 3.69749C88.0329 3.35437 88.0011 3.00497 87.8954 2.67639L86.9435 2.98257ZM86.6527 2.49084C86.7828 2.62677 86.8831 2.79482 86.9435 2.98259L87.8954 2.67637C87.7897 2.34762 87.6122 2.04703 87.375 1.79932L86.6527 2.49084ZM86.1979 2.19684C86.3666 2.2552 86.5227 2.35508 86.6527 2.49085L87.375 1.79931C87.1377 1.55143 86.8469 1.36322 86.5249 1.2518L86.1979 2.19684ZM85.6773 2.15001C85.8514 2.12275 86.0295 2.13857 86.1979 2.19684L86.5249 1.2518C86.2026 1.1403 85.8592 1.10935 85.5226 1.16205L85.6773 2.15001ZM79.3307 2.19104L85.6028 2.15602L85.5972 1.15604L79.3252 1.19105L79.3307 2.19104ZM78.7361 2.2385C78.9038 2.17835 79.0817 2.16054 79.2561 2.18586L79.3998 1.19623C79.0627 1.1473 78.7196 1.18207 78.3986 1.29717L78.7361 2.2385ZM78.2846 2.53756C78.4131 2.40035 78.5681 2.29873 78.7361 2.2385L78.3986 1.29717C78.0778 1.41218 77.7891 1.60362 77.5546 1.85413L78.2846 2.53756ZM77.9994 3.03251C78.0577 2.84409 78.156 2.67493 78.2846 2.53756L77.5546 1.85414C77.3202 2.10449 77.1461 2.40704 77.044 2.73696L77.9994 3.03251ZM77.9527 3.61911C77.9249 3.42215 77.941 3.22114 77.9994 3.03252L77.044 2.73695C76.942 3.0667 76.9141 3.41644 76.9625 3.75905L77.9527 3.61911ZM78.0067 4.33952C77.9462 4.15158 77.9278 3.95077 77.9534 3.75351L76.9618 3.62464C76.9172 3.96776 76.949 4.31717 77.0547 4.64575L78.0067 4.33952ZM78.2974 4.83126C78.1673 4.69536 78.0671 4.52731 78.0067 4.33953L77.0547 4.64574C77.1604 4.97448 77.3379 5.27509 77.5751 5.52281L78.2974 4.83126ZM78.7522 5.12529C78.5835 5.06694 78.4274 4.96705 78.2974 4.83127L77.5751 5.52281C77.8124 5.77068 78.1032 5.95891 78.4252 6.07033L78.7522 5.12529ZM79.2728 5.17211C79.0987 5.19937 78.9206 5.18355 78.7522 5.12529L78.4252 6.07033C78.7476 6.18184 79.091 6.21276 79.4275 6.16008L79.2728 5.17211ZM85.6194 5.13109L79.3473 5.16611L79.3529 6.16609L85.625 6.13108L85.6194 5.13109ZM86.8009 5.24936C86.3967 5.10963 85.9664 5.07098 85.5447 5.13712L85.6996 6.12504C85.9589 6.08439 86.2238 6.10794 86.4742 6.19449L86.8009 5.24936ZM87.8687 5.93709C87.5701 5.62537 87.2051 5.38909 86.8009 5.24937L86.4742 6.19448C86.7246 6.28106 86.955 6.4289 87.1465 6.62877L87.8687 5.93709ZM88.5243 7.04255C88.3909 6.62766 88.1671 6.24889 87.8687 5.93718L87.1464 6.62869C87.3377 6.82854 87.4842 7.0747 87.5723 7.34861L88.5243 7.04255ZM88.6414 8.3316C88.6977 7.89849 88.6578 7.45728 88.5242 7.04238L87.5723 7.34878C87.6605 7.62269 87.6872 7.9152 87.6498 8.20262L88.6414 8.3316ZM88.5379 9.48754C88.6668 9.07118 88.7018 8.62954 88.6407 8.19709L87.6505 8.33713C87.6911 8.62412 87.6677 8.91691 87.5826 9.19179L88.5379 9.48754ZM87.8948 10.6C88.1897 10.285 88.4092 9.9037 88.5379 9.48737L87.5825 9.19195C87.4975 9.46683 87.3538 9.71462 87.1647 9.91659L87.8948 10.6ZM86.8347 11.2997C87.2372 11.1555 87.5997 10.9151 87.8947 10.6001L87.1648 9.91649C86.9756 10.1185 86.7468 10.2689 86.4974 10.3583L86.8347 11.2997ZM85.5798 11.4259C86.0022 11.4874 86.432 11.4439 86.8347 11.2997L86.4974 10.3583C86.248 10.4476 85.9834 10.4741 85.7237 10.4364L85.5798 11.4259ZM79.3839 11.4661L85.6546 11.4311L85.649 10.4312L79.3783 10.4662L79.3839 11.4661ZM92.1381 6.25302L92.164 10.8948L93.164 10.8892L93.1381 6.24743L92.1381 6.25302ZM102.673 5.69419L92.6353 5.75023L92.6409 6.75022L102.679 6.69418L102.673 5.69419ZM103.202 10.8332L103.176 6.19139L102.176 6.19698L102.202 10.8388L103.202 10.8332ZM103.326 10.3325L102.699 10.336L102.705 11.336L103.332 11.3325L103.326 10.3325ZM102.773 0.897628L102.829 10.8353L103.829 10.8297L103.773 0.892045L102.773 0.897628ZM102.649 1.39833L103.276 1.39483L103.271 0.394844L102.643 0.398345L102.649 1.39833ZM103.172 5.53733L103.146 0.895546L102.146 0.901129L102.172 5.54291L103.172 5.53733ZM92.6373 6.09615L102.675 6.04011L102.669 5.04012L92.6317 5.09616L92.6373 6.09615ZM92.1086 0.957167L92.1345 5.59895L93.1345 5.59336L93.1085 0.951584L92.1086 0.957167ZM91.9842 1.45787L92.6113 1.45437L92.6058 0.454383L91.9786 0.457885L91.9842 1.45787ZM92.5368 10.8927L92.4814 0.955086L91.4814 0.960668L91.5369 10.8983L92.5368 10.8927ZM92.6612 10.392L92.0341 10.3955L92.0396 11.3955L92.6668 11.392L92.6612 10.392ZM108.53 11.1774C108.934 11.3173 109.364 11.3564 109.785 11.2909L109.632 10.3028C109.373 10.3431 109.108 10.3192 108.858 10.2325L108.53 11.1774ZM107.464 10.4892C107.762 10.801 108.127 11.0374 108.53 11.1773L108.858 10.2325C108.608 10.1458 108.377 9.99785 108.187 9.79819L107.464 10.4892ZM106.809 9.3845C106.942 9.79917 107.166 10.1777 107.464 10.4893L108.186 9.7981C107.995 9.59823 107.849 9.3522 107.761 9.07857L106.809 9.3845ZM106.692 8.09644C106.636 8.52923 106.676 8.97001 106.809 9.38448L107.761 9.07858C107.673 8.80473 107.646 8.51237 107.684 8.22516L106.692 8.09644ZM106.662 3.52182L106.688 8.16359L107.688 8.15801L107.662 3.51623L106.662 3.52182ZM106.77 2.2986C106.641 2.71496 106.606 3.15659 106.667 3.58904L107.657 3.44901C107.616 3.16202 107.64 2.86923 107.725 2.59435L106.77 2.2986ZM107.413 1.18614C107.118 1.50117 106.898 1.88241 106.77 2.29877L107.725 2.59418C107.81 2.3193 107.954 2.07152 108.143 1.86955L107.413 1.18614ZM108.473 0.486451C108.07 0.630669 107.708 0.87103 107.413 1.18606L108.143 1.86963C108.332 1.66763 108.561 1.51722 108.81 1.42787L108.473 0.486451ZM109.728 0.360185C109.305 0.298771 108.875 0.342211 108.473 0.486449L108.81 1.42787C109.059 1.33854 109.324 1.31201 109.584 1.34979L109.728 0.360185ZM115.933 0.319934L109.653 0.354993L109.659 1.35498L115.938 1.31992L115.933 0.319934ZM117.114 0.438205C116.71 0.298471 116.28 0.259833 115.858 0.32596L116.013 1.31389C116.272 1.27322 116.537 1.29679 116.788 1.38333L117.114 0.438205ZM118.182 1.12593C117.884 0.814223 117.519 0.577921 117.114 0.438205L116.788 1.38333C117.038 1.46989 117.269 1.61774 117.46 1.81762L118.182 1.12593ZM118.838 2.2314C118.704 1.8165 118.481 1.43773 118.182 1.12602L117.46 1.81753C117.651 2.01738 117.798 2.26355 117.886 2.53745L118.838 2.2314ZM118.955 3.52028C119.011 3.08727 118.971 2.64612 118.838 2.23123L117.886 2.53762C117.974 2.81154 118.001 3.10411 117.963 3.39163L118.955 3.52028ZM118.985 8.09494L118.959 3.45316L117.959 3.45875L117.985 8.10052L118.985 8.09494ZM118.877 9.31815C119.006 8.9018 119.041 8.46023 118.98 8.02788L117.99 8.16759C118.031 8.45468 118.007 8.74753 117.922 9.02242L118.877 9.31815ZM118.234 10.4306C118.529 10.1156 118.749 9.73433 118.877 9.31799L117.922 9.02257C117.837 9.29744 117.693 9.54524 117.504 9.74721L118.234 10.4306ZM117.174 11.1303C117.577 10.9861 117.939 10.7457 118.234 10.4307L117.504 9.74712C117.315 9.94911 117.086 10.0995 116.837 10.1889L117.174 11.1303ZM115.919 11.2566C116.342 11.318 116.772 11.2745 117.174 11.1303L116.837 10.1889C116.588 10.2782 116.323 10.3047 116.063 10.267L115.919 11.2566ZM109.711 11.2968L115.994 11.2618L115.988 10.2618L109.706 10.2969L109.711 11.2968ZM107.316 8.09288C107.272 8.43601 107.304 8.78541 107.409 9.11398L108.361 8.80778C108.301 8.61982 108.283 8.419 108.308 8.22176L107.316 8.09288ZM107.297 3.52136L107.312 8.15897L108.312 8.15566L108.297 3.51804L107.297 3.52136ZM107.384 2.56759C107.281 2.89733 107.254 3.24698 107.302 3.58942L108.292 3.44998C108.264 3.25286 108.28 3.05176 108.339 2.86313L107.384 2.56759ZM107.894 1.68476C107.66 1.93511 107.486 2.23766 107.384 2.56757L108.339 2.86315C108.397 2.67471 108.495 2.50556 108.624 2.36818L107.894 1.68476ZM108.738 1.12779C108.417 1.2428 108.129 1.43424 107.894 1.68476L108.624 2.36818C108.753 2.23097 108.908 2.12935 109.076 2.06912L108.738 1.12779ZM109.739 1.02686C109.402 0.977918 109.059 1.0127 108.738 1.12779L109.076 2.06912C109.243 2.00898 109.421 1.99116 109.596 2.01648L109.739 1.02686ZM115.937 0.986663L109.665 1.02168L109.67 2.02166L115.942 1.98665L115.937 0.986663ZM116.863 1.08224C116.541 0.971045 116.198 0.940158 115.862 0.992641L116.016 1.98067C116.19 1.9535 116.368 1.96931 116.537 2.02744L116.863 1.08224ZM117.712 1.62838C117.475 1.38112 117.185 1.1934 116.863 1.08227L116.536 2.02741C116.705 2.0856 116.861 2.18521 116.991 2.32059L117.712 1.62838ZM118.233 2.50342C118.127 2.17526 117.949 1.87541 117.712 1.62838L116.991 2.32059C117.121 2.45621 117.221 2.62383 117.282 2.81109L118.233 2.50342ZM118.328 3.52228C118.371 3.18001 118.339 2.83131 118.233 2.5032L117.282 2.81131C117.342 2.99862 117.361 3.19918 117.336 3.39663L118.328 3.52228ZM118.358 8.09844L118.332 3.45666L117.332 3.46225L117.358 8.10403L118.358 8.09844ZM118.271 9.05335C118.373 8.72361 118.401 8.37395 118.353 8.03151L117.363 8.17096C117.391 8.36807 117.374 8.56917 117.316 8.75777L118.271 9.05335ZM117.761 9.93617C117.995 9.68582 118.169 9.38324 118.271 9.05334L117.316 8.75778C117.258 8.94622 117.159 9.11538 117.031 9.25273L117.761 9.93617ZM116.917 10.4931C117.238 10.3781 117.526 10.1867 117.761 9.93616L117.031 9.25274C116.902 9.38996 116.747 9.49158 116.579 9.55181L116.917 10.4931ZM115.916 10.5941C116.253 10.643 116.596 10.6083 116.917 10.4931L116.579 9.55181C116.412 9.61194 116.234 9.62977 116.059 9.60444L115.916 10.5941ZM109.708 10.6343L115.99 10.5993L115.985 9.59927L109.702 9.63435L109.708 10.6343ZM108.78 10.5386C109.102 10.6501 109.446 10.681 109.782 10.6283L109.628 9.64035C109.453 9.66762 109.275 9.65178 109.107 9.59353L108.78 10.5386ZM107.93 9.99104C108.167 10.2389 108.458 10.4271 108.78 10.5386L109.107 9.59353C108.938 9.53518 108.782 9.43529 108.652 9.29952L107.93 9.99104ZM107.409 9.11398C107.515 9.44272 107.693 9.74334 107.93 9.99106L108.652 9.2995C108.522 9.1636 108.422 8.99555 108.361 8.80778L107.409 9.11398ZM132.27 0.357819C131.865 0.218089 131.435 0.17944 131.013 0.245577L131.168 1.2335C131.428 1.19284 131.692 1.2164 131.943 1.30294L132.27 0.357819ZM133.337 1.04554C133.039 0.733838 132.674 0.497534 132.27 0.357817L131.943 1.30294C132.193 1.3895 132.424 1.53735 132.615 1.73723L133.337 1.04554ZM133.993 2.15218C133.86 1.73606 133.636 1.35698 133.337 1.04543L132.615 1.73735C132.807 1.93736 132.953 2.1832 133.04 2.4559L133.993 2.15218ZM134.111 3.4388C134.166 3.00715 134.127 2.5662 133.993 2.15051L133.041 2.45756C133.129 2.73068 133.155 3.02347 133.119 3.31233L134.111 3.4388ZM134.006 4.59631C134.136 4.17917 134.17 3.73781 134.11 3.30679L133.119 3.44434C133.159 3.73277 133.136 4.02583 133.051 4.2999L134.006 4.59631ZM133.363 5.70865C133.658 5.39379 133.879 5.0122 134.007 4.59463L133.051 4.30158C132.967 4.57524 132.823 4.8227 132.634 5.02484L133.363 5.70865ZM132.303 6.40813C132.706 6.26391 133.068 6.02355 133.363 5.70855L132.634 5.02494C132.444 5.22695 132.216 5.37736 131.966 5.46671L132.303 6.40813ZM131.048 6.5344C131.471 6.59583 131.901 6.55238 132.303 6.40812L131.966 5.46672C131.717 5.55606 131.452 5.58257 131.192 5.54481L131.048 6.5344ZM122.972 6.5851L131.123 6.5396L131.118 5.53961L122.967 5.58512L122.972 6.5851ZM123.496 10.7241L123.47 6.08232L122.47 6.0879L122.496 10.7297L123.496 10.7241ZM122.371 11.2304L122.998 11.2269L122.993 10.2269L122.366 10.2304L122.371 11.2304ZM121.813 0.795555L121.868 10.7332L122.868 10.7276L122.813 0.789972L121.813 0.795555ZM131.088 0.239548L122.31 0.292773L122.316 1.29275L131.094 1.23953L131.088 0.239548ZM133.483 3.44229C133.527 3.10114 133.497 2.75174 133.39 2.4215L132.438 2.72949C132.499 2.91579 132.517 3.11663 132.491 3.31584L133.483 3.44229ZM132.993 2.87903L132.985 2.87908L132.99 3.87906L132.998 3.87901L132.993 2.87903ZM133.408 4.33359C133.512 4.00167 133.538 3.65144 133.491 3.31039L132.5 3.44765C132.528 3.64724 132.512 3.8489 132.453 4.03635L133.408 4.33359ZM132.896 5.2171C133.131 4.96647 133.306 4.66344 133.408 4.33316L132.453 4.03677C132.395 4.22583 132.296 4.39524 132.167 4.53257L132.896 5.2171ZM132.049 5.7735C132.371 5.65903 132.661 5.46772 132.896 5.2171L132.167 4.53257C132.038 4.66994 131.883 4.77145 131.714 4.83135L132.049 5.7735ZM131.046 5.87165C131.383 5.92184 131.727 5.88803 132.049 5.77353L131.714 4.83132C131.546 4.89119 131.368 4.90849 131.193 4.88252L131.046 5.87165ZM122.969 5.92259L131.122 5.87707L131.117 4.87709L122.963 4.92261L122.969 5.92259ZM122.444 1.45034L122.466 5.42539L123.466 5.41981L123.444 1.44476L122.444 1.45034ZM131.092 0.902055L122.941 0.947559L122.947 1.94754L131.097 1.90204L131.092 0.902055ZM132.019 0.997815C131.697 0.886314 131.354 0.855368 131.017 0.908067L131.172 1.89603C131.346 1.86876 131.524 1.88459 131.693 1.94286L132.019 0.997815ZM132.87 1.54532C132.632 1.29744 132.342 1.10924 132.019 0.997818L131.692 1.94286C131.861 2.00121 132.017 2.1011 132.147 2.23686L132.87 1.54532ZM133.39 2.42238C133.284 2.09364 133.107 1.79305 132.87 1.54534L132.147 2.23685C132.277 2.37278 132.378 2.54083 132.438 2.72861L133.39 2.42238Z" fill="black"/>
</svg>
