<svg width="179" height="17" viewBox="0 0 179 17" fill="none" xmlns="http://www.w3.org/2000/svg">
<path d="M14.191 1C16.7041 1 17.9606 2.34799 17.9606 5.04396H17.0179C17.0179 3.02134 16.0756 2.01003 14.191 2.01003H4.76955C2.88494 2.01067 1.94263 3.02198 1.94263 5.04396V12.1238C1.94263 14.1464 2.88494 15.1577 4.76955 15.1577H14.191C16.0756 15.1577 17.0179 14.1464 17.0179 12.1238V9.08793H8.5391V8.07982H17.9625V12.1238C17.9625 14.8198 16.706 16.1678 14.1929 16.1678H4.76955C2.25652 16.1697 1 14.822 1 12.1248V5.04396C1 2.34799 2.25652 1 4.76955 1H14.191Z" fill="black" stroke="black" stroke-linejoin="round"/>
<path d="M33.4498 1C35.9628 1 37.2193 2.34799 37.2193 5.04396C37.2193 6.79057 36.6949 7.97038 35.646 8.58339C36.6949 9.19705 37.2193 10.3769 37.2193 12.1228V16.1668H36.2767V12.1228C36.2767 10.1002 35.3344 9.08889 33.4498 9.08889H21.2004V16.1687H20.2568V1H33.4498ZM36.2767 5.04396C36.2767 3.02134 35.3344 2.01003 33.4498 2.01003H21.2004V8.07597H33.4498C35.3344 8.07854 36.2767 7.06787 36.2767 5.04396Z" fill="black" stroke="black" stroke-linejoin="round"/>
<path d="M44.2461 16.1706C41.7331 16.1706 40.4766 14.8227 40.4766 12.1267V5.04396C40.4766 2.34799 41.7331 1 44.2461 1H53.6695C56.1825 1 57.4391 2.34799 57.4391 5.04396V12.1238C57.4391 14.8198 56.1825 16.1678 53.6695 16.1678L44.2461 16.1706ZM41.4192 12.1267C41.4192 14.1493 42.3615 15.1606 44.2461 15.1606H53.6695C55.5541 15.1606 56.4964 14.1493 56.4964 12.1267V5.04396C56.4964 3.02134 55.5541 2.01003 53.6695 2.01003H44.2461C42.3615 2.01003 41.4192 3.02134 41.4192 5.04396V12.1267Z" fill="black" stroke="black" stroke-linejoin="round"/>
<path d="M76.7186 12.1248V1H77.6612V12.1248C77.6612 14.8207 76.4047 16.1687 73.8916 16.1687H64.4663C61.9533 16.1687 60.6968 14.8207 60.6968 12.1248V1H61.6394V12.1248C61.6394 14.1474 62.5817 15.1587 64.4663 15.1587H73.8897C75.7756 15.1587 76.7186 14.1474 76.7186 12.1248Z" fill="black" stroke="black" stroke-linejoin="round"/>
<path d="M94.1095 1C96.6244 1 97.8819 2.34799 97.8819 5.04396C97.8819 7.73994 96.6254 9.08792 94.1123 9.08792H81.8591V16.1677H80.9165V1H94.1095ZM96.9364 5.04396C96.9364 3.02134 95.9941 2.01003 94.1095 2.01003H81.8591V8.07597H94.1095C95.9941 8.07854 96.9364 7.06787 96.9364 5.04396Z" fill="black" stroke="black" stroke-linejoin="round"/>
<path d="M104.906 16.1706C102.393 16.1706 101.136 14.8227 101.136 12.1267H102.079C102.079 14.1493 103.021 15.1606 104.906 15.1606H114.329C116.214 15.1606 117.156 14.1493 117.156 12.1267C117.156 10.1041 116.214 9.09114 114.329 9.08793H104.906C102.393 9.08793 101.136 7.73994 101.136 5.04396C101.136 2.34799 102.393 1 104.906 1H114.329C116.842 1 118.099 2.34799 118.099 5.04396H117.156C117.156 3.02134 116.214 2.01003 114.329 2.01003H104.906C103.021 2.01003 102.079 3.02134 102.079 5.04396C102.079 7.06659 103.021 8.0779 104.906 8.0779H114.329C116.842 8.0779 118.099 9.42589 118.099 12.1219C118.099 14.8178 116.842 16.1658 114.329 16.1658L104.906 16.1706Z" fill="black" stroke="black" stroke-linejoin="round"/>
<path d="M122.299 9.08793V16.1678H121.356V1H122.299V8.07982H137.377V1H138.319V16.1706H137.377V9.08793H122.299Z" fill="black" stroke="black" stroke-linejoin="round"/>
<path d="M145.346 16.1706C142.833 16.1706 141.576 14.8227 141.576 12.1267V5.04396C141.576 2.34799 142.833 1 145.346 1H154.765C157.278 1 158.535 2.34799 158.535 5.04396V12.1238C158.535 14.8198 157.278 16.1678 154.765 16.1678L145.346 16.1706ZM142.519 12.1267C142.519 14.1493 143.461 15.1606 145.346 15.1606H154.765C156.65 15.1606 157.592 14.1493 157.592 12.1267V5.04396C157.592 3.02134 156.65 2.01003 154.765 2.01003H145.342C143.457 2.01003 142.515 3.02134 142.515 5.04396L142.519 12.1267Z" fill="black" stroke="black" stroke-linejoin="round"/>
<path d="M174.025 1C176.538 1 177.795 2.34799 177.795 5.04396C177.795 7.73994 176.538 9.08792 174.025 9.08792H161.774V16.1677H160.832V1H174.025ZM176.852 5.04396C176.852 3.02134 175.91 2.01003 174.025 2.01003H161.774V8.07597H174.024C175.91 8.07854 176.852 7.06787 176.852 5.04396Z" fill="black" stroke="black" stroke-linejoin="round"/>
</svg>
