<svg width="140" height="16" viewBox="0 0 140 16" fill="none" xmlns="http://www.w3.org/2000/svg">
<g clip-path="url(#clip0_16083_5785)">
<mask id="mask0_16083_5785" style="mask-type:luminance" maskUnits="userSpaceOnUse" x="0" y="0" width="140" height="16">
<path d="M140 0H0V15.5556H140V0Z" fill="white"/>
</mask>
<g mask="url(#mask0_16083_5785)">
<path d="M18.609 15.225C18.5693 14.0732 18.5495 12.6832 18.5495 11.3527C18.5495 9.84345 18.5892 8.51295 18.5892 6.66614C18.5892 4.26331 17.0439 3.01225 14.825 3.01225C13.141 3.01225 11.6948 3.56827 10.9816 5.23636L10.8231 5.2165C10.4269 3.78671 9.00048 3.01225 7.33633 3.01225C5.61274 3.01225 4.44387 3.66756 3.75048 5.11721L3.63161 5.09735C3.69104 4.42217 3.71085 3.886 3.73067 3.19097H0.125C0.164623 4.93848 0.164623 6.686 0.164623 9.28742C0.164623 11.8094 0.184434 13.5172 0.125 15.225H3.65142C3.6118 13.9938 3.6118 11.8293 3.6118 8.61224C3.6118 6.74558 4.6618 6.05054 5.94953 6.05054C7.21746 6.05054 7.71274 6.72572 7.71274 7.97678C7.71274 11.4321 7.69293 13.4775 7.6335 15.225H11.1203C11.041 13.7754 11.0609 12.1073 11.0609 8.61224C11.0609 6.74558 12.1109 6.05054 13.3986 6.05054C14.6269 6.05054 15.1816 6.66614 15.1816 7.97678C15.1816 10.9754 15.1618 13.4775 15.1024 15.225H18.609ZM24.9746 1.12572C24.9746 0.490262 24.6378 0.0732422 22.8151 0.0732422C20.9727 0.0732422 20.6359 0.490262 20.6359 1.12572C20.6359 1.72147 20.9331 2.25764 22.8151 2.25764C24.6774 2.25764 24.9746 1.72147 24.9746 1.12572ZM24.6378 15.225C24.5783 13.3583 24.5783 11.8094 24.5783 9.08884C24.5783 6.70586 24.5783 5.05763 24.6378 3.19097H20.9727C20.9925 5.03778 21.0123 6.72572 21.0123 8.98955C21.0123 11.3924 21.0123 13.3186 20.9727 15.225H24.6378ZM38.6633 10.5782C38.1879 10.6179 37.5341 10.6378 36.9001 10.6378C36.3058 10.6378 35.7115 10.6378 35.2558 10.5782V10.6973C35.236 11.73 34.602 12.3257 32.7992 12.3257C30.7983 12.3257 30.0257 11.6108 30.0257 9.14841C30.0257 6.80515 30.8182 6.09026 32.7793 6.09026C34.6813 6.09026 35.236 6.52714 35.2558 7.83777V7.91721C35.652 7.89735 36.2464 7.87749 36.8803 7.87749C37.5341 7.87749 38.1879 7.89735 38.6039 7.91721V7.71863C38.6039 4.18387 36.4048 2.93282 32.7595 2.93282C28.7182 2.93282 26.5191 5.05763 26.5191 9.18813C26.5191 13.3186 28.738 15.4832 32.6803 15.4832C37.3756 15.4832 38.6633 13.4576 38.6633 10.6973V10.5782ZM43.6819 5.77253C43.6819 4.79948 43.7017 3.98529 43.7413 3.19097H40.5517C40.5913 4.87891 40.5913 6.60657 40.5913 9.14841C40.5913 11.7498 40.5913 13.5371 40.5517 15.225H44.4347C44.3555 13.8945 44.3356 11.73 44.3356 9.98245C44.3356 7.20231 45.0489 6.46756 46.9904 6.4477C47.6045 6.4477 48.1989 6.52714 48.6941 6.686C48.714 5.73281 48.8724 4.04487 48.9715 3.2704C48.4762 3.1314 47.9017 3.05196 47.347 3.05196C45.6036 3.03211 44.3753 3.82643 43.8206 5.79238L43.6819 5.77253ZM58.3452 9.12855C58.3452 11.313 57.315 12.3654 55.5518 12.3654C53.8282 12.3654 52.7584 11.3527 52.7584 9.12855C52.7584 6.88458 53.8481 6.05054 55.5518 6.05054C57.2754 6.05054 58.3452 6.94416 58.3452 9.12855ZM61.9113 9.00941C61.9113 5.01792 59.3358 2.91296 55.5518 2.91296C51.7679 2.91296 49.2716 5.01792 49.2716 9.00941C49.2716 12.981 51.5896 15.4832 55.5518 15.4832C59.5339 15.4832 61.9113 12.981 61.9113 9.00941Z" fill="black"/>
<path d="M66.4997 11.0049C66.12 11.038 65.6082 11.038 65.0634 11.038C64.5516 11.038 64.0398 11.0214 63.6766 10.9718C63.6436 11.2697 63.6436 11.5344 63.6436 11.8158C63.6436 14.3146 65.7072 15.5061 70.7756 15.5061C75.6459 15.5061 77.5775 14.1491 77.5775 11.6503C77.5775 9.23419 76.0091 8.22474 71.2214 7.82757C67.1105 7.51315 66.6318 6.96705 66.6318 6.10653C66.6318 5.17982 67.4903 4.66682 70.4124 4.66682C73.7308 4.66682 74.5398 5.27911 74.5398 6.4706C74.5398 6.60299 74.5398 6.80157 74.5233 6.96705C74.837 6.95051 75.3653 6.93396 75.8936 6.93396C76.4053 6.93396 76.9171 6.95051 77.2308 6.96705C77.2473 6.68573 77.2473 6.4375 77.2473 6.17273C77.2473 3.69046 75.4808 2.53207 70.4785 2.53207C65.7733 2.53207 63.8252 3.92214 63.8252 6.20583C63.8252 8.43987 65.1954 9.61481 70.2638 9.97887C74.1105 10.2436 74.8204 10.7401 74.8204 11.7661C74.8204 12.7756 73.962 13.3051 70.7426 13.3051C67.6223 13.3051 66.4997 12.7425 66.4997 11.3358V11.0049ZM78.475 2.81339C78.4915 3.14436 78.4915 3.59117 78.4915 4.02143C78.4915 4.41859 78.4915 4.93159 78.475 5.26256C80.291 5.22947 82.074 5.21292 83.6094 5.21292C83.6094 9.86303 83.5929 14.1987 83.5434 15.2413C83.9561 15.2082 84.567 15.2082 84.9962 15.2082C85.4254 15.2082 86.0693 15.2082 86.449 15.2413C86.416 14.1987 86.3995 9.84649 86.3995 5.21292C87.9184 5.21292 89.7014 5.22947 91.5174 5.26256C91.5009 4.93159 91.5009 4.41859 91.5009 4.02143C91.5009 3.59117 91.5009 3.12781 91.5174 2.81339H78.475ZM108.327 9.69755C109.416 5.29566 107.072 2.48242 101.657 2.48242C96.8031 2.48242 93.6663 4.33585 92.6757 8.32403C91.6026 12.6432 93.7984 15.5557 99.3455 15.5557C104.298 15.5557 107.353 13.5864 108.327 9.69755ZM99.6922 13.1562C96.1757 13.1562 94.7394 11.6172 95.4658 8.68809C96.1097 6.10653 98.1073 4.88195 101.294 4.88195C104.794 4.88195 106.23 6.52025 105.52 9.36658C104.876 11.915 102.879 13.1562 99.6922 13.1562ZM113.199 8.93632C113.199 7.69519 113.199 6.37131 113.215 5.04743C114.52 4.99779 117.145 4.98124 118.102 4.98124C120.43 4.98124 121.338 5.42805 121.338 6.93396C121.338 8.24129 120.414 8.98597 118.234 8.98597C116.088 8.98597 114.041 8.96942 113.199 8.93632ZM120.513 10.0947C122.989 9.7472 124.095 8.5888 124.095 6.5037C124.095 3.93869 122.23 2.81339 118.812 2.81339H110.409C110.442 4.60062 110.458 6.38786 110.458 9.01906C110.458 11.6834 110.425 13.421 110.409 15.2247H113.397C113.298 14.1987 113.248 12.7259 113.215 11.038H118.02C120.281 11.038 120.595 11.5675 121.388 13.9174C121.701 15.0593 121.767 15.2247 122.296 15.2247H124.937C124.706 14.7448 124.409 13.8347 124.013 12.6928C123.369 10.889 122.576 10.376 120.513 10.1444V10.0947ZM126.873 2.81339C126.939 4.3524 126.939 6.38786 126.939 9.01906C126.939 11.6668 126.939 13.6195 126.873 15.2247H139.685C139.668 14.9434 139.668 14.4635 139.668 14.116C139.668 13.7188 139.668 13.2224 139.685 12.941C136.63 12.9741 132.404 12.9907 129.796 12.9907V9.89613C132.883 9.89613 136.977 9.92923 139.487 9.96233C139.487 9.46587 139.487 8.40677 139.503 7.94341C136.961 7.97651 132.899 7.97651 129.796 7.97651V4.93159C132.388 4.93159 136.498 4.94814 139.685 4.98124C139.668 4.71646 139.668 4.22001 139.668 3.85594C139.668 3.50843 139.668 3.06162 139.685 2.81339H126.873Z" fill="black"/>
</g>
</g>
<defs>
<clipPath id="clip0_16083_5785">
<rect width="140" height="15.5556" fill="white"/>
</clipPath>
</defs>
</svg>
