<svg width="97" height="8" viewBox="0 0 97 8" fill="none" xmlns="http://www.w3.org/2000/svg">
<path fill-rule="evenodd" clip-rule="evenodd" d="M8.49483 1.07468C8.26041 1.00563 8.01101 0.98578 7.76641 1.01671L3.25909 1.01418C3.01449 0.983246 2.7651 1.00309 2.53067 1.07214C2.29624 1.14119 2.08324 1.25755 1.90852 1.41201C1.73379 1.56645 1.60216 1.75475 1.52404 1.96197C1.44592 2.1692 1.42347 2.38965 1.45846 2.60587V5.39388C1.4234 5.61026 1.44587 5.8309 1.52408 6.03827C1.6023 6.24563 1.73412 6.43404 1.90907 6.58853C2.08402 6.74301 2.2973 6.85932 2.53197 6.92825C2.76664 6.99717 3.01626 7.0168 3.26101 6.98558H7.76641C8.01045 7.01583 8.25911 6.99557 8.49278 6.9264C8.72646 6.85722 8.93876 6.74102 9.11297 6.58695C9.28718 6.43287 9.41852 6.24514 9.49666 6.03854C9.57479 5.83194 9.59758 5.61212 9.56322 5.39642V3.80472H5.06164V4.20264H9.11688V5.39642C9.14307 5.55858 9.1262 5.7239 9.06759 5.87929C9.00899 6.03468 8.91026 6.17589 8.77923 6.29171C8.6482 6.40754 8.48846 6.49481 8.31267 6.54662C8.13688 6.59843 7.94985 6.61334 7.76641 6.59019H3.26101C3.07756 6.61334 2.89054 6.59843 2.71474 6.54662C2.53895 6.49481 2.37921 6.40754 2.24818 6.29171C2.11716 6.17589 2.01843 6.03468 1.95982 5.87929C1.90121 5.7239 1.88434 5.55858 1.91053 5.39642V2.60841C1.88434 2.44625 1.90121 2.28093 1.95982 2.12553C2.01843 1.97013 2.11716 1.82893 2.24818 1.7131C2.37921 1.59727 2.53895 1.51001 2.71474 1.4582C2.89054 1.4064 3.07756 1.39148 3.26101 1.41463H7.76641C7.94963 1.39192 8.13632 1.40716 8.31175 1.45916C8.48717 1.51116 8.64651 1.59849 8.7772 1.71426C8.90789 1.83003 9.00635 1.97108 9.0648 2.12625C9.12326 2.28143 9.1401 2.44648 9.11401 2.60841H9.56704C9.60203 2.39219 9.57958 2.17173 9.50146 1.96451C9.42334 1.75728 9.29171 1.56899 9.11699 1.41454C8.94227 1.26009 8.72925 1.14372 8.49483 1.07468ZM19.3799 1.07468C19.1454 1.00563 18.8961 0.98578 18.6514 1.01671L12.3454 1.02009V6.98896H12.7955V4.20095H18.6495C18.833 4.17779 19.02 4.19271 19.1958 4.24452C19.3715 4.29633 19.5313 4.38359 19.6624 4.49942C19.7934 4.61525 19.8921 4.75645 19.9507 4.91184C20.0093 5.06725 20.0262 5.23257 20 5.39473V6.98642H20.452V5.39473C20.4898 5.1233 20.4389 4.84801 20.3057 4.60123C20.1725 4.35443 19.9623 4.14639 19.6998 4.00157C19.9623 3.85673 20.1725 3.6487 20.3057 3.40191C20.4389 3.15512 20.4898 2.87983 20.452 2.60841C20.4871 2.39219 20.4646 2.17173 20.3865 1.96451C20.3084 1.75728 20.1768 1.56899 20.0021 1.41454C19.8272 1.26009 19.6143 1.14372 19.3799 1.07468ZM20 2.60841C20.0262 2.44625 20.0093 2.28093 19.9507 2.12553C19.8921 1.97013 19.7934 1.82893 19.6624 1.7131C19.5313 1.59727 19.3715 1.51001 19.1958 1.4582C19.02 1.4064 18.833 1.39148 18.6495 1.41463H12.7955V3.80218H18.6476C18.8312 3.82563 19.0185 3.81093 19.1944 3.75926C19.3705 3.70758 19.5305 3.62035 19.6618 3.50448C19.793 3.38862 19.892 3.24731 19.9506 3.09176C20.0094 2.93623 20.0262 2.77073 20 2.60841ZM24.3036 6.92761C24.538 6.99666 24.7874 7.01651 25.032 6.98558H29.5336C29.7782 7.01651 30.0276 6.99666 30.262 6.92761C30.4965 6.85856 30.7094 6.7422 30.8842 6.58775C31.0589 6.4333 31.1905 6.245 31.2686 6.03778C31.3468 5.83056 31.3693 5.6101 31.3342 5.39388V2.60587C31.3693 2.38965 31.3468 2.1692 31.2686 1.96197C31.1905 1.75475 31.0589 1.56645 30.8842 1.41201C30.7094 1.25755 30.4965 1.14119 30.262 1.07214C30.0276 1.00309 29.7782 0.983246 29.5336 1.01418H25.032C24.7874 0.983246 24.538 1.00309 24.3036 1.07214C24.0692 1.14119 23.8562 1.25755 23.6814 1.41201C23.5067 1.56645 23.3751 1.75475 23.297 1.96197C23.2188 2.1692 23.1964 2.38965 23.2313 2.60587V5.39388C23.1964 5.6101 23.2188 5.83056 23.297 6.03778C23.3751 6.245 23.5067 6.4333 23.6814 6.58775C23.8562 6.7422 24.0692 6.85856 24.3036 6.92761ZM23.6796 5.39388C23.6534 5.55604 23.6703 5.72136 23.7289 5.87676C23.7875 6.03215 23.8862 6.17336 24.0173 6.28918C24.1483 6.40501 24.3081 6.49228 24.4839 6.54409C24.6596 6.59589 24.8467 6.6108 25.0301 6.58765H29.5316C29.7151 6.6108 29.9022 6.59589 30.0779 6.54409C30.2537 6.49228 30.4135 6.40501 30.5445 6.28918C30.6756 6.17336 30.7743 6.03215 30.8329 5.87676C30.8915 5.72136 30.9084 5.55604 30.8821 5.39388V2.60587C30.9084 2.44371 30.8915 2.27839 30.8329 2.12299C30.7743 1.9676 30.6756 1.8264 30.5445 1.71057C30.4135 1.59474 30.2537 1.50748 30.0779 1.45567C29.9022 1.40386 29.7151 1.38894 29.5316 1.4121H25.0301C24.8467 1.38894 24.6596 1.40386 24.4839 1.45567C24.3081 1.50748 24.1483 1.59474 24.0173 1.71057C23.8862 1.8264 23.7875 1.9676 23.7289 2.12299C23.6703 2.27839 23.6534 2.44371 23.6796 2.60587V5.39388ZM41.7671 1.01671V5.39388C41.7934 5.55604 41.7765 5.72136 41.7179 5.87676C41.6593 6.03215 41.5606 6.17336 41.4296 6.28918C41.2985 6.40501 41.1387 6.49228 40.963 6.54409C40.7872 6.59589 40.6002 6.6108 40.4168 6.58766H35.9151C35.7317 6.6108 35.5446 6.59589 35.3689 6.54409C35.1931 6.49228 35.0333 6.40501 34.9023 6.28918C34.7712 6.17336 34.6725 6.03215 34.6139 5.87676C34.5553 5.72136 34.5384 5.55604 34.5647 5.39388V1.01671H34.1145V5.39388C34.0795 5.6101 34.1019 5.83056 34.1801 6.03778C34.2582 6.245 34.3898 6.4333 34.5645 6.58775C34.7393 6.7422 34.9523 6.85856 35.1867 6.92761C35.4212 6.99666 35.6705 7.01651 35.9151 6.98558H40.4168C40.6613 7.01651 40.9107 6.99666 41.1451 6.92761C41.3796 6.85856 41.5925 6.7422 41.7673 6.58775C41.942 6.4333 42.0737 6.245 42.1517 6.03778C42.2299 5.83056 42.2524 5.6101 42.2174 5.39388V1.01671H41.7671ZM51.3008 1.01671C51.5454 0.98578 51.7948 1.00563 52.0292 1.07468C52.2637 1.14372 52.4766 1.26009 52.6514 1.41454C52.8261 1.56899 52.9577 1.75728 53.0358 1.96451C53.114 2.17173 53.1365 2.39219 53.1015 2.60841C53.1365 2.82463 53.114 3.04509 53.0358 3.2523C52.9577 3.45953 52.8261 3.64783 52.6514 3.80228C52.4766 3.95672 52.2637 4.07308 52.0292 4.14213C51.7948 4.21119 51.5454 4.23104 51.3008 4.20011H45.4488V6.98811H44.9985V1.01924L51.3008 1.01671ZM52.3136 1.7131C52.4447 1.82893 52.5434 1.97013 52.602 2.12553C52.6606 2.28093 52.6775 2.44625 52.6522 2.60841C52.6785 2.77065 52.6615 2.93606 52.603 3.09153C52.5443 3.247 52.4454 3.38825 52.3143 3.50409C52.1832 3.61994 52.0233 3.70719 51.8473 3.75893C51.6715 3.81067 51.4843 3.82548 51.3008 3.80218H45.4488V1.41463H51.3008C51.4842 1.39148 51.6713 1.4064 51.847 1.4582C52.0228 1.51001 52.1826 1.59727 52.3136 1.7131ZM57.472 6.98558C57.2274 7.01651 56.9781 6.99666 56.7436 6.92761C56.5092 6.85856 56.2963 6.74219 56.1214 6.58775C55.9467 6.4333 55.8151 6.245 55.737 6.03778C55.6589 5.83056 55.6364 5.6101 55.6714 5.39388H56.1216C56.0954 5.55604 56.1123 5.72136 56.1709 5.87676C56.2294 6.03215 56.3282 6.17336 56.4592 6.28918C56.5902 6.40501 56.75 6.49228 56.9258 6.54409C57.1016 6.59589 57.2886 6.6108 57.472 6.58765H61.9737C62.1571 6.6108 62.3441 6.59589 62.5199 6.54409C62.6957 6.49228 62.8555 6.40501 62.9865 6.28918C63.1175 6.17336 63.2163 6.03215 63.2748 5.87676C63.3334 5.72136 63.3503 5.55604 63.3242 5.39388C63.3503 5.23172 63.3334 5.0664 63.2748 4.911C63.2163 4.7556 63.1175 4.61441 62.9865 4.49858C62.8555 4.38276 62.6957 4.29548 62.5199 4.24368C62.3441 4.19187 62.1571 4.17695 61.9737 4.20011H57.472C57.2274 4.23104 56.9781 4.21119 56.7436 4.14213C56.5092 4.07308 56.2963 3.95672 56.1214 3.80228C55.9467 3.64783 55.8151 3.45953 55.737 3.2523C55.6589 3.04509 55.6364 2.82463 55.6714 2.60841C55.6364 2.39219 55.6589 2.17173 55.737 1.96451C55.8151 1.75728 55.9467 1.56899 56.1214 1.41454C56.2963 1.26009 56.5092 1.14372 56.7436 1.07468C56.9781 1.00563 57.2274 0.98578 57.472 1.01671H61.9737C62.2182 0.985924 62.4674 1.00588 62.7018 1.075C62.936 1.14411 63.149 1.26049 63.3236 1.41492C63.4981 1.56935 63.6297 1.7576 63.7078 1.96475C63.7858 2.17189 63.8083 2.39226 63.7733 2.60841H63.3231C63.3494 2.44625 63.3325 2.28093 63.2739 2.12553C63.2153 1.97013 63.1166 1.82893 62.9855 1.7131C62.8545 1.59727 62.6947 1.51001 62.5189 1.4582C62.3432 1.4064 62.1561 1.39148 61.9727 1.41463H57.4711C57.2877 1.39148 57.1006 1.4064 56.9248 1.4582C56.7491 1.51001 56.5893 1.59727 56.4583 1.7131C56.3272 1.82893 56.2285 1.97013 56.1699 2.12553C56.1113 2.28093 56.0944 2.44625 56.1207 2.60841C56.0944 2.77057 56.1113 2.93589 56.1699 3.09128C56.2285 3.24668 56.3272 3.38788 56.4583 3.50371C56.5893 3.61953 56.7491 3.70681 56.9248 3.75861C57.1006 3.81042 57.2877 3.82533 57.4711 3.80218H61.9727C62.2173 3.77125 62.4667 3.7911 62.7011 3.86015C62.9356 3.92921 63.1485 4.04556 63.3233 4.20001C63.498 4.35446 63.6296 4.54275 63.7077 4.74998C63.7859 4.9572 63.8083 5.17766 63.7733 5.39388C63.8083 5.6101 63.7859 5.83056 63.7077 6.03778C63.6296 6.245 63.498 6.4333 63.3233 6.58775C63.1485 6.74219 62.9356 6.85856 62.7011 6.92761C62.4667 6.99666 62.2173 7.01651 61.9727 6.98558H57.472ZM67.0057 6.98558V4.19757H74.2101V6.98558H74.6603V1.01671H74.2101V3.80472H67.0057V1.01671H66.5555V6.98558H67.0057ZM79.2393 6.98558C78.9948 7.01621 78.7457 6.99615 78.5114 6.92697C78.2772 6.85779 78.0645 6.74138 77.8901 6.58697C77.7156 6.43256 77.584 6.24438 77.5061 6.0373C77.4281 5.83022 77.4056 5.60994 77.4406 5.39388V2.60587C77.4055 2.38965 77.428 2.1692 77.5061 1.96197C77.5842 1.75475 77.7158 1.56645 77.8905 1.41201C78.0654 1.25755 78.2783 1.14119 78.5127 1.07214C78.7472 1.00309 78.9965 0.983246 79.2412 1.01418H83.7484C83.9931 0.983246 84.2425 1.00309 84.4769 1.07214C84.7113 1.14119 84.9243 1.25755 85.0991 1.41201C85.2738 1.56645 85.4054 1.75475 85.4835 1.96197C85.5617 2.1692 85.5841 2.38965 85.5492 2.60587V5.39388C85.5841 5.6101 85.5617 5.83056 85.4835 6.03778C85.4054 6.245 85.2738 6.4333 85.0991 6.58775C84.9243 6.7422 84.7113 6.85856 84.4769 6.92761C84.2425 6.99666 83.9931 7.01651 83.7484 6.98558H79.2393ZM77.938 5.87676C77.8795 5.72136 77.8625 5.55604 77.8888 5.39388L77.8964 2.60841C77.8702 2.44625 77.8871 2.28093 77.9457 2.12553C78.0043 1.97013 78.103 1.82893 78.234 1.7131C78.3651 1.59727 78.5249 1.51001 78.7006 1.4582C78.8764 1.4064 79.0634 1.39148 79.2469 1.41463H83.7484C83.9316 1.39157 84.1184 1.40646 84.294 1.45814C84.4695 1.50981 84.6291 1.59684 84.76 1.71237C84.8909 1.82789 84.9898 1.96875 85.0485 2.12381C85.1074 2.27887 85.1246 2.44391 85.099 2.60587V5.39388C85.1252 5.55604 85.1083 5.72136 85.0497 5.87676C84.9911 6.03215 84.8924 6.17336 84.7613 6.28918C84.6303 6.40501 84.4705 6.49228 84.2947 6.54409C84.119 6.59589 83.9319 6.6108 83.7484 6.58766H79.2393C79.0558 6.6108 78.8688 6.59589 78.693 6.54409C78.5172 6.49228 78.3574 6.40501 78.2264 6.28918C78.0954 6.17336 77.9966 6.03215 77.938 5.87676ZM94.6259 1.01671C94.8705 0.98578 95.1198 1.00563 95.3543 1.07468C95.5887 1.14372 95.8017 1.26009 95.9765 1.41454C96.1514 1.56899 96.2833 1.75728 96.3607 1.96451C96.4391 2.17173 96.461 2.39219 96.4266 2.60841C96.461 2.82463 96.4391 3.04509 96.3607 3.2523C96.2833 3.45953 96.1514 3.64783 95.9765 3.80228C95.8017 3.95672 95.5887 4.07308 95.3543 4.14213C95.1198 4.21119 94.8705 4.23104 94.6259 4.20011H88.7758V6.98811H88.3256V1.01924L94.6259 1.01671ZM95.9271 2.12553C95.986 2.28093 96.0023 2.44625 95.9765 2.60841H95.9822C96.008 2.77089 95.9918 2.93656 95.9327 3.09225C95.8738 3.24794 95.7748 3.38936 95.6433 3.50526C95.5118 3.62116 95.3515 3.70835 95.1753 3.7599C94.9989 3.81144 94.8115 3.82591 94.6278 3.80218H88.7758V1.41463H94.6259C94.8093 1.39148 94.9964 1.4064 95.1721 1.4582C95.3479 1.51001 95.5077 1.59727 95.6387 1.7131C95.7698 1.82893 95.8685 1.97013 95.9271 2.12553Z" fill="black"/>
<path d="M7.76641 1.01671L7.76613 1.51671L7.79775 1.51673L7.82913 1.51276L7.76641 1.01671ZM8.49483 1.07468L8.63611 0.59505L8.63611 0.595048L8.49483 1.07468ZM3.25909 1.01418L3.19637 1.51023L3.22747 1.51416L3.25881 1.51418L3.25909 1.01418ZM2.53067 1.07214L2.67194 1.55177L2.53067 1.07214ZM1.90852 1.41201L2.23966 1.78664L2.23968 1.78662L1.90852 1.41201ZM1.52404 1.96197L1.05618 1.78559L1.05617 1.78561L1.52404 1.96197ZM1.45846 2.60587H1.95846V2.56568L1.95204 2.526L1.45846 2.60587ZM1.45846 5.39388L1.95202 5.47387L1.95846 5.43413V5.39388H1.45846ZM1.52408 6.03827L1.99191 5.8618L1.52408 6.03827ZM1.90907 6.58853L1.57811 6.96331L1.57812 6.96332L1.90907 6.58853ZM2.53197 6.92825L2.67287 6.44851L2.67287 6.44851L2.53197 6.92825ZM3.26101 6.98558V6.48558H3.22925L3.19774 6.4896L3.26101 6.98558ZM7.76641 6.98558L7.82792 6.48938L7.79728 6.48558H7.76641V6.98558ZM8.49278 6.9264L8.35085 6.44696L8.35085 6.44697L8.49278 6.9264ZM9.11297 6.58695L9.44422 6.96148L9.44423 6.96147L9.11297 6.58695ZM9.49666 6.03854L9.96432 6.21542L9.96433 6.2154L9.49666 6.03854ZM9.56322 5.39642H9.06322V5.43599L9.06944 5.47507L9.56322 5.39642ZM9.56322 3.80472H10.0632V3.30472H9.56322V3.80472ZM5.06164 3.80472V3.30472H4.56164V3.80472H5.06164ZM5.06164 4.20264H4.56164V4.70264H5.06164V4.20264ZM9.11688 4.20264H9.61688V3.70264H9.11688V4.20264ZM9.11688 5.39642H8.61688V5.43653L8.62328 5.47613L9.11688 5.39642ZM8.77923 6.29171L8.44809 5.91708L8.44806 5.91711L8.77923 6.29171ZM7.76641 6.59019L7.82901 6.09412L7.79783 6.09019H7.76641V6.59019ZM3.26101 6.59019V6.09019H3.22958L3.19841 6.09412L3.26101 6.59019ZM2.71474 6.54662L2.5734 7.02623L2.5734 7.02623L2.71474 6.54662ZM2.24818 6.29171L2.57933 5.91709H2.57933L2.24818 6.29171ZM1.91053 5.39642L2.40413 5.47616L2.41053 5.43654V5.39642H1.91053ZM1.91053 2.60841H2.41053V2.56828L2.40413 2.52867L1.91053 2.60841ZM1.95982 2.12553L1.49199 1.94908L1.49198 1.94909L1.95982 2.12553ZM2.24818 1.7131L1.91703 1.33848L1.91702 1.3385L2.24818 1.7131ZM2.71474 1.4582L2.5734 0.978595L2.5734 0.978597L2.71474 1.4582ZM3.26101 1.41463L3.19839 1.9107L3.22957 1.91463H3.26101V1.41463ZM7.76641 1.41463V1.91463H7.79729L7.82793 1.91084L7.76641 1.41463ZM8.31175 1.45916L8.45386 0.979778L8.45385 0.979776L8.31175 1.45916ZM9.0648 2.12625L9.53271 1.94999V1.94999L9.0648 2.12625ZM9.11401 2.60841L8.62038 2.52889L8.52703 3.10841H9.11401V2.60841ZM9.56704 2.60841V3.10841H9.99263L10.0606 2.68828L9.56704 2.60841ZM9.50146 1.96451L9.03359 2.14087L9.0336 2.14089L9.50146 1.96451ZM9.11699 1.41454L8.78583 1.78915L8.78584 1.78916L9.11699 1.41454ZM18.6514 1.01671L18.6517 1.51671L18.683 1.51669L18.7141 1.51276L18.6514 1.01671ZM19.3799 1.07468L19.2386 1.55431L19.3799 1.07468ZM12.3454 1.02009L12.3451 0.52009L11.8454 0.520357V1.02009H12.3454ZM12.3454 6.98896H11.8454V7.48896H12.3454V6.98896ZM12.7955 6.98896V7.48896H13.2955V6.98896H12.7955ZM12.7955 4.20095V3.70095H12.2955V4.20095H12.7955ZM18.6495 4.20095V4.70095H18.6809L18.7121 4.69702L18.6495 4.20095ZM19.9507 4.91184L20.4186 4.73546L20.4186 4.73545L19.9507 4.91184ZM20 5.39473L19.5064 5.31473L19.5 5.35447V5.39473H20ZM20 6.98642H19.5V7.48642H20V6.98642ZM20.452 6.98642V7.48642H20.952V6.98642H20.452ZM20.452 5.39473L19.9568 5.32584L19.952 5.36012V5.39473H20.452ZM20.3057 4.60123L19.8657 4.83874L19.8657 4.83875L20.3057 4.60123ZM19.6998 4.00157L19.4583 3.5638L18.665 4.00158L19.4583 4.43934L19.6998 4.00157ZM20.3057 3.40191L19.8657 3.16438L19.8657 3.16438L20.3057 3.40191ZM20.452 2.60841L19.9585 2.52834L19.9464 2.60269L19.9568 2.67729L20.452 2.60841ZM20.3865 1.96451L19.9186 2.14081L19.9186 2.141L20.3865 1.96451ZM20.0021 1.41454L20.3332 1.03993L20.3331 1.03985L20.0021 1.41454ZM19.9507 2.12553L20.4186 1.94914L20.4186 1.94914L19.9507 2.12553ZM20 2.60841L19.5064 2.52841L19.4934 2.60837L19.5064 2.68833L20 2.60841ZM18.6495 1.41463V1.91463H18.6809L18.7121 1.9107L18.6495 1.41463ZM12.7955 1.41463V0.914635H12.2955V1.41463H12.7955ZM12.7955 3.80218H12.2955V4.30218H12.7955V3.80218ZM18.6476 3.80218L18.7109 3.30621L18.6794 3.30218H18.6476V3.80218ZM19.1944 3.75926L19.0536 3.2795L19.0536 3.27951L19.1944 3.75926ZM19.6618 3.50448L19.9926 3.87941L19.9927 3.87929L19.6618 3.50448ZM19.9506 3.09176L19.4829 2.91501L19.4828 2.91528L19.9506 3.09176ZM25.032 6.98558V6.48558H25.0005L24.9692 6.48953L25.032 6.98558ZM24.3036 6.92761L24.4449 6.44798L24.4449 6.44798L24.3036 6.92761ZM29.5336 6.98558L29.5963 6.48953L29.565 6.48558H29.5336V6.98558ZM30.262 6.92761L30.1208 6.44798L30.1207 6.44798L30.262 6.92761ZM30.8842 6.58775L31.2153 6.96245L31.2154 6.96236L30.8842 6.58775ZM31.2686 6.03778L30.8008 5.86129L30.8007 5.86147L31.2686 6.03778ZM31.3342 5.39388H30.8342V5.43417L30.8406 5.47395L31.3342 5.39388ZM31.3342 2.60587L30.8406 2.52581L30.8342 2.56558V2.60587H31.3342ZM31.2686 1.96197L30.8007 2.13828L30.8008 2.13846L31.2686 1.96197ZM30.8842 1.41201L31.2154 1.0374L31.2153 1.03732L30.8842 1.41201ZM30.262 1.07214L30.4033 0.592511L30.262 1.07214ZM29.5336 1.01418V1.51418H29.565L29.5963 1.51023L29.5336 1.01418ZM25.032 1.01418L24.9692 1.51022L25.0005 1.51418H25.032V1.01418ZM24.3036 1.07214L24.1623 0.592511L24.3036 1.07214ZM23.6814 1.41201L23.3503 1.03732L23.3502 1.0374L23.6814 1.41201ZM23.297 1.96197L23.7648 2.13846L23.7649 2.13828L23.297 1.96197ZM23.2313 2.60587H23.7313V2.56569L23.7249 2.52602L23.2313 2.60587ZM23.2313 5.39388L23.7249 5.47373L23.7313 5.43406V5.39388H23.2313ZM23.297 6.03778L23.7649 5.86147L23.7648 5.86129L23.297 6.03778ZM23.6814 6.58775L23.3502 6.96236L23.3503 6.96245L23.6814 6.58775ZM23.7289 5.87676L23.261 6.05314L23.2611 6.05315L23.7289 5.87676ZM23.6796 5.39388L24.1732 5.47359L24.1796 5.43399V5.39388H23.6796ZM24.0173 6.28918L24.3484 5.91456L24.3484 5.91454L24.0173 6.28918ZM24.4839 6.54409L24.6252 6.06449V6.06449L24.4839 6.54409ZM25.0301 6.58765V6.08765H24.9986L24.9674 6.09159L25.0301 6.58765ZM29.5316 6.58765L29.5942 6.09159L29.5631 6.08765H29.5316V6.58765ZM30.0779 6.54409L29.9366 6.06449V6.06449L30.0779 6.54409ZM30.5445 6.28918L30.2134 5.91455L30.2134 5.91456L30.5445 6.28918ZM30.8329 5.87676L31.3007 6.05315L31.3007 6.05314L30.8329 5.87676ZM30.8821 5.39388H30.3821V5.43414L30.3886 5.47388L30.8821 5.39388ZM30.8821 2.60587L30.3886 2.52588L30.3821 2.56562V2.60587H30.8821ZM30.8329 2.12299L31.3008 1.94661L31.3007 1.9466L30.8329 2.12299ZM30.5445 1.71057L30.8757 1.33595L30.8757 1.33595L30.5445 1.71057ZM29.5316 1.4121V1.9121H29.5631L29.5942 1.90817L29.5316 1.4121ZM25.0301 1.4121L24.9674 1.90816L24.9986 1.9121H25.0301V1.4121ZM24.0173 1.71057L24.3484 2.08519L24.3484 2.08519L24.0173 1.71057ZM23.7289 2.12299L23.2611 1.9466L23.261 1.94661L23.7289 2.12299ZM23.6796 2.60587H24.1796V2.56576L24.1732 2.52616L23.6796 2.60587ZM41.7671 5.39388H41.2671V5.43413L41.2736 5.47387L41.7671 5.39388ZM41.7671 1.01671V0.51671H41.2671V1.01671H41.7671ZM41.7179 5.87676L41.2501 5.70036L41.2501 5.70037L41.7179 5.87676ZM41.4296 6.28918L41.0984 5.91455L41.0984 5.91456L41.4296 6.28918ZM40.963 6.54409L41.1043 7.02369L41.1043 7.02369L40.963 6.54409ZM40.4168 6.58766L40.4794 6.09159L40.4482 6.08766H40.4168V6.58766ZM35.9151 6.58766V6.08766H35.8837L35.8525 6.09159L35.9151 6.58766ZM35.3689 6.54409L35.2275 7.02369L35.2275 7.02369L35.3689 6.54409ZM34.9023 6.28918L35.2334 5.91456L35.2334 5.91455L34.9023 6.28918ZM34.6139 5.87676L34.1461 6.05314L34.1461 6.05316L34.6139 5.87676ZM34.5647 5.39388L35.0583 5.47388L35.0647 5.43414V5.39388H34.5647ZM34.5647 1.01671H35.0647V0.51671H34.5647V1.01671ZM34.1145 1.01671V0.51671H33.6145V1.01671H34.1145ZM34.1145 5.39388L34.608 5.47373L34.6145 5.43407V5.39388H34.1145ZM34.1801 6.03778L34.648 5.86147L34.6479 5.86129L34.1801 6.03778ZM34.5645 6.58775L34.2334 6.96236L34.2335 6.96245L34.5645 6.58775ZM35.1867 6.92761L35.328 6.44798L35.328 6.44798L35.1867 6.92761ZM35.9151 6.98558V6.48558H35.8836L35.8524 6.48953L35.9151 6.98558ZM40.4168 6.98558L40.4795 6.48953L40.4483 6.48558H40.4168V6.98558ZM41.1451 6.92761L41.0039 6.44798L41.0039 6.44798L41.1451 6.92761ZM41.7673 6.58775L42.0984 6.96245L42.0985 6.96236L41.7673 6.58775ZM42.1517 6.03778L41.6839 5.86129L41.6838 5.86148L42.1517 6.03778ZM42.2174 5.39388H41.7174V5.43407L41.7238 5.47373L42.2174 5.39388ZM42.2174 1.01671H42.7174V0.51671H42.2174V1.01671ZM52.0292 1.07468L51.888 1.55431V1.55431L52.0292 1.07468ZM51.3008 1.01671L51.301 1.51671L51.3324 1.5167L51.3636 1.51276L51.3008 1.01671ZM52.6514 1.41454L52.9826 1.03993L52.9825 1.03985L52.6514 1.41454ZM53.0358 1.96451L52.5679 2.14081L52.568 2.141L53.0358 1.96451ZM53.1015 2.60841L52.6079 2.52856L52.595 2.60841L52.6079 2.68826L53.1015 2.60841ZM53.0358 3.2523L52.568 3.0758L52.5679 3.076L53.0358 3.2523ZM52.6514 3.80228L52.9825 4.17697L52.9826 4.17689L52.6514 3.80228ZM52.0292 4.14213L51.888 3.6625L51.8879 3.66251L52.0292 4.14213ZM51.3008 4.20011L51.3636 3.70406L51.3323 3.70011H51.3008V4.20011ZM45.4488 4.20011V3.70011H44.9488V4.20011H45.4488ZM45.4488 6.98811V7.48811H45.9488V6.98811H45.4488ZM44.9985 6.98811H44.4985V7.48811H44.9985V6.98811ZM44.9985 1.01924L44.9983 0.519245L44.4985 0.519446V1.01924H44.9985ZM52.602 2.12553L53.0699 1.94915L53.0698 1.94914L52.602 2.12553ZM52.6522 2.60841L52.1582 2.53126L52.1459 2.60985L52.1586 2.68837L52.6522 2.60841ZM52.603 3.09153L53.0707 3.2681L53.0708 3.26784L52.603 3.09153ZM52.3143 3.50409L51.9833 3.12938L51.9833 3.12938L52.3143 3.50409ZM51.8473 3.75893L51.7063 3.27925L51.7062 3.27926L51.8473 3.75893ZM51.3008 3.80218L51.3638 3.30616L51.3324 3.30218H51.3008V3.80218ZM45.4488 3.80218H44.9488V4.30218H45.4488V3.80218ZM45.4488 1.41463V0.914635H44.9488V1.41463H45.4488ZM51.3008 1.41463V1.91463H51.3323L51.3635 1.9107L51.3008 1.41463ZM51.847 1.4582L51.7057 1.9378V1.9378L51.847 1.4582ZM56.7436 6.92761L56.8849 6.44798L56.8849 6.44798L56.7436 6.92761ZM57.472 6.98558V6.48558H57.4405L57.4093 6.48953L57.472 6.98558ZM56.1214 6.58775L55.7903 6.96236L55.7904 6.96245L56.1214 6.58775ZM55.737 6.03778L56.2049 5.86147L56.2049 5.86129L55.737 6.03778ZM55.6714 5.39388V4.89388H55.2458L55.1778 5.31403L55.6714 5.39388ZM56.1216 5.39388L56.6152 5.47388L56.7092 4.89388H56.1216V5.39388ZM56.1709 5.87676L55.703 6.05314L55.703 6.05315L56.1709 5.87676ZM56.4592 6.28918L56.7904 5.91456L56.7903 5.91455L56.4592 6.28918ZM56.9258 6.54409L57.0672 6.06449L57.0672 6.06449L56.9258 6.54409ZM57.472 6.58765V6.08765H57.4406L57.4094 6.09159L57.472 6.58765ZM61.9737 6.58765L62.0363 6.09159L62.0051 6.08765H61.9737V6.58765ZM62.5199 6.54409L62.3785 6.06449L62.3785 6.06449L62.5199 6.54409ZM62.9865 6.28918L62.6554 5.91454L62.6553 5.91456L62.9865 6.28918ZM63.2748 5.87676L63.7427 6.05315L63.7427 6.05314L63.2748 5.87676ZM63.3242 5.39388L62.8306 5.31418L62.8177 5.39388L62.8306 5.47358L63.3242 5.39388ZM63.2748 4.911L63.7427 4.73462L63.7427 4.7346L63.2748 4.911ZM62.9865 4.49858L63.3176 4.12396L63.3176 4.12395L62.9865 4.49858ZM61.9737 4.20011V4.70011H62.0051L62.0363 4.69617L61.9737 4.20011ZM57.472 4.20011V3.70011H57.4405L57.4093 3.70406L57.472 4.20011ZM56.7436 4.14213L56.8849 3.66251L56.8849 3.6625L56.7436 4.14213ZM56.1214 3.80228L55.7903 4.17688L55.7904 4.17698L56.1214 3.80228ZM55.737 3.2523L56.2049 3.07599L56.2049 3.07581L55.737 3.2523ZM55.6714 2.60841L56.165 2.68826L56.1779 2.60841L56.165 2.52856L55.6714 2.60841ZM55.737 1.96451L56.2049 2.141L56.2049 2.14081L55.737 1.96451ZM56.1214 1.41454L55.7904 1.03985L55.7903 1.03993L56.1214 1.41454ZM56.7436 1.07468L56.6024 0.595045V0.595045L56.7436 1.07468ZM57.472 1.01671L57.4093 1.51276L57.4405 1.51671H57.472V1.01671ZM61.9737 1.01671V1.51671H62.005L62.0362 1.51279L61.9737 1.01671ZM62.7018 1.075L62.8433 0.595435L62.8432 0.59542L62.7018 1.075ZM63.3236 1.41492L63.6549 1.04047L63.6548 1.04039L63.3236 1.41492ZM63.7078 1.96475L64.1757 1.78858L64.1757 1.78839L63.7078 1.96475ZM63.7733 2.60841V3.10841H64.1989L64.2668 2.68829L63.7733 2.60841ZM63.3231 2.60841L62.8296 2.52841L62.7355 3.10841H63.3231V2.60841ZM63.2739 2.12553L63.7417 1.94914L63.7417 1.94914L63.2739 2.12553ZM62.9855 1.7131L63.3167 1.33849L63.3167 1.33848L62.9855 1.7131ZM62.5189 1.4582L62.6603 0.978603L62.6603 0.978603L62.5189 1.4582ZM61.9727 1.41463V1.91463H62.0042L62.0354 1.9107L61.9727 1.41463ZM57.4711 1.41463L57.4084 1.9107L57.4396 1.91463H57.4711V1.41463ZM56.9248 1.4582L56.7835 0.978603L56.7835 0.978603L56.9248 1.4582ZM56.4583 1.7131L56.7894 2.08772L56.7894 2.08772L56.4583 1.7131ZM56.1699 2.12553L56.6378 2.30192V2.30191L56.1699 2.12553ZM56.1207 2.60841L56.6142 2.68841L56.6272 2.60841L56.6142 2.52841L56.1207 2.60841ZM56.1699 3.09128L56.6378 2.91489L56.6378 2.91488L56.1699 3.09128ZM56.4583 3.50371L56.7894 3.12909L56.7894 3.12907L56.4583 3.50371ZM57.4711 3.80218V3.30218H57.4396L57.4084 3.30612L57.4711 3.80218ZM61.9727 3.80218V4.30218H62.0042L62.0355 4.29823L61.9727 3.80218ZM62.7011 3.86015L62.8424 3.38052L62.8424 3.38052L62.7011 3.86015ZM63.3233 4.20001L63.6545 3.82541L63.6544 3.82533L63.3233 4.20001ZM63.7077 4.74998L63.2398 4.92629L63.2399 4.92647L63.7077 4.74998ZM63.7733 5.39388L63.2797 5.31382L63.2667 5.39388L63.2797 5.47395L63.7733 5.39388ZM63.7077 6.03778L63.2399 5.86129L63.2398 5.86147L63.7077 6.03778ZM63.3233 6.58775L63.6544 6.96245L63.6545 6.96236L63.3233 6.58775ZM62.7011 6.92761L62.5598 6.44798L62.5598 6.44798L62.7011 6.92761ZM61.9727 6.98558L62.0355 6.48953L62.0042 6.48558H61.9727V6.98558ZM67.0057 4.19757V3.69757H66.5057V4.19757H67.0057ZM67.0057 6.98558V7.48558H67.5057V6.98558H67.0057ZM74.2101 4.19757H74.7101V3.69757H74.2101V4.19757ZM74.2101 6.98558H73.7101V7.48558H74.2101V6.98558ZM74.6603 6.98558V7.48558H75.1603V6.98558H74.6603ZM74.6603 1.01671H75.1603V0.51671H74.6603V1.01671ZM74.2101 1.01671V0.51671H73.7101V1.01671H74.2101ZM74.2101 3.80472V4.30472H74.7101V3.80472H74.2101ZM67.0057 3.80472H66.5057V4.30472H67.0057V3.80472ZM67.0057 1.01671H67.5057V0.51671H67.0057V1.01671ZM66.5555 1.01671V0.51671H66.0555V1.01671H66.5555ZM66.5555 6.98558H66.0555V7.48558H66.5555V6.98558ZM78.5114 6.92697L78.3697 7.40648L78.3698 7.4065L78.5114 6.92697ZM79.2393 6.98558V6.48558H79.2081L79.1771 6.48946L79.2393 6.98558ZM77.8901 6.58697L78.2215 6.2126L78.2214 6.21251L77.8901 6.58697ZM77.5061 6.0373L77.0381 6.21352V6.21353L77.5061 6.0373ZM77.4406 5.39388L77.9342 5.47379L77.9406 5.43409V5.39388H77.4406ZM77.4406 2.60587H77.9406V2.56558L77.9341 2.5258L77.4406 2.60587ZM77.5061 1.96197L77.974 2.13848L77.974 2.13826L77.5061 1.96197ZM77.8905 1.41201L77.5595 1.03732L77.5594 1.0374L77.8905 1.41201ZM78.5127 1.07214L78.3715 0.592511L78.5127 1.07214ZM79.2412 1.01418L79.1785 1.51023L79.2097 1.51418H79.2412V1.01418ZM83.7484 1.01418V1.51418H83.7799L83.8111 1.51023L83.7484 1.01418ZM84.4769 1.07214L84.6182 0.592511L84.6182 0.59251L84.4769 1.07214ZM85.0991 1.41201L85.4303 1.0374L85.4302 1.03732L85.0991 1.41201ZM85.4835 1.96197L85.0156 2.13828L85.0157 2.13846L85.4835 1.96197ZM85.5492 2.60587L85.0556 2.52602L85.0492 2.56569V2.60587H85.5492ZM85.5492 5.39388H85.0492V5.43406L85.0556 5.47373L85.5492 5.39388ZM85.4835 6.03778L85.0157 5.86129L85.0156 5.86147L85.4835 6.03778ZM85.0991 6.58775L85.4302 6.96245L85.4303 6.96235L85.0991 6.58775ZM84.4769 6.92761L84.3356 6.44798L84.3356 6.44798L84.4769 6.92761ZM83.7484 6.98558L83.8111 6.48953L83.7799 6.48558H83.7484V6.98558ZM77.8888 5.39388L78.3824 5.47388L78.3887 5.43481L78.3888 5.39524L77.8888 5.39388ZM77.938 5.87676L77.4702 6.05314V6.05315L77.938 5.87676ZM77.8964 2.60841L78.3964 2.60976L78.3965 2.56897L78.39 2.52871L77.8964 2.60841ZM77.9457 2.12553L77.4779 1.94912L77.4778 1.94915L77.9457 2.12553ZM78.7006 1.4582L78.842 1.9378L78.842 1.9378L78.7006 1.4582ZM79.2469 1.41463L79.1842 1.9107L79.2154 1.91463H79.2469V1.41463ZM83.7484 1.41463V1.91463H83.7798L83.8109 1.91072L83.7484 1.41463ZM84.294 1.45814L84.4352 0.978498L84.4351 0.978476L84.294 1.45814ZM84.76 1.71237L84.4292 2.0873L84.4292 2.08731L84.76 1.71237ZM85.0485 2.12381L84.581 2.30103L84.5811 2.30129L85.0485 2.12381ZM85.099 2.60587L84.6051 2.52776L84.599 2.56657V2.60587H85.099ZM85.099 5.39388H84.599V5.434L84.6054 5.47361L85.099 5.39388ZM85.0497 5.87676L84.5818 5.70035V5.70037L85.0497 5.87676ZM84.7613 6.28918L84.4302 5.91455L84.4302 5.91456L84.7613 6.28918ZM84.2947 6.54409L84.1534 6.06449L84.1534 6.06449L84.2947 6.54409ZM83.7484 6.58766L83.811 6.09159L83.7798 6.08766H83.7484V6.58766ZM79.2393 6.58766V6.08766H79.2079L79.1767 6.09159L79.2393 6.58766ZM78.693 6.54409L78.5516 7.02369L78.5516 7.02369L78.693 6.54409ZM78.2264 6.28918L78.5576 5.91457L78.5575 5.91455L78.2264 6.28918ZM95.3543 1.07468L95.4956 0.595045L95.4955 0.595044L95.3543 1.07468ZM94.6259 1.01671L94.6261 1.51671L94.6575 1.5167L94.6886 1.51276L94.6259 1.01671ZM95.9765 1.41454L95.6454 1.78924L95.6455 1.78933L95.9765 1.41454ZM96.3607 1.96451L95.8923 2.13949L95.893 2.14137L96.3607 1.96451ZM96.4266 2.60841L95.9328 2.52983L95.9203 2.60841L95.9328 2.68699L96.4266 2.60841ZM96.3607 3.2523L95.893 3.07543L95.8923 3.07732L96.3607 3.2523ZM95.9765 3.80228L95.6455 3.42749L95.6454 3.42757L95.9765 3.80228ZM95.3543 4.14213L95.213 3.6625L95.213 3.66251L95.3543 4.14213ZM94.6259 4.20011L94.6886 3.70406L94.6574 3.70011H94.6259V4.20011ZM88.7758 4.20011V3.70011H88.2758V4.20011H88.7758ZM88.7758 6.98811V7.48811H89.2758V6.98811H88.7758ZM88.3256 6.98811H87.8256V7.48811H88.3256V6.98811ZM88.3256 1.01924L88.3254 0.519245L87.8256 0.519446V1.01924H88.3256ZM95.9765 2.60841L95.4827 2.52984L95.3906 3.10841H95.9765V2.60841ZM95.9271 2.12553L95.4592 2.30192L95.4596 2.30291L95.9271 2.12553ZM95.9822 2.60841L96.476 2.52997L96.4091 2.10841H95.9822V2.60841ZM95.9327 3.09225L95.4652 2.9149L95.465 2.9154L95.9327 3.09225ZM95.6433 3.50526L95.3127 3.13014V3.13015L95.6433 3.50526ZM95.1753 3.7599L95.3156 4.23982L95.3156 4.23979L95.1753 3.7599ZM94.6278 3.80218L94.6919 3.3063L94.66 3.30218H94.6278V3.80218ZM88.7758 3.80218H88.2758V4.30218H88.7758V3.80218ZM88.7758 1.41463V0.914635H88.2758V1.41463H88.7758ZM94.6259 1.41463V1.91463H94.6574L94.6886 1.9107L94.6259 1.41463ZM95.1721 1.4582L95.3135 0.978604L95.3135 0.978602L95.1721 1.4582ZM95.6387 1.7131L95.3076 2.08771L95.3076 2.08772L95.6387 1.7131ZM7.82913 1.51276C8.00596 1.4904 8.18588 1.50491 8.35356 1.5543L8.63611 0.595048C8.33494 0.50634 8.01607 0.48116 7.70368 0.52066L7.82913 1.51276ZM3.25881 1.51418L7.76613 1.51671L7.76669 0.51671L3.25938 0.514176L3.25881 1.51418ZM2.67194 1.55177C2.83963 1.50238 3.01954 1.48787 3.19637 1.51023L3.32182 0.518126C3.00944 0.478625 2.69057 0.503805 2.3894 0.592514L2.67194 1.55177ZM2.23968 1.78662C2.35692 1.68297 2.50429 1.60115 2.67194 1.55177L2.3894 0.592514C2.0882 0.681231 1.80955 0.832132 1.57735 1.0374L2.23968 1.78662ZM1.99189 2.13835C2.03975 2.01141 2.12264 1.89007 2.23966 1.78664L1.57738 1.03738C1.34493 1.24284 1.16457 1.49808 1.05618 1.78559L1.99189 2.13835ZM1.95204 2.526C1.93116 2.39697 1.94423 2.2648 1.9919 2.13833L1.05617 1.78561C0.94762 2.07359 0.915785 2.38234 0.964884 2.68575L1.95204 2.526ZM1.95846 5.39388V2.60587H0.958463V5.39388H1.95846ZM1.99191 5.8618C1.94417 5.73525 1.9311 5.60299 1.95202 5.47387L0.964902 5.3139C0.915694 5.61754 0.947558 5.92655 1.05626 6.21473L1.99191 5.8618ZM2.24003 6.21374C2.12283 6.11025 2.03982 5.98881 1.99191 5.8618L1.05626 6.21473C1.16479 6.50245 1.34541 6.75782 1.57811 6.96331L2.24003 6.21374ZM2.67287 6.44851C2.50501 6.39921 2.35743 6.3174 2.24002 6.21373L1.57812 6.96332C1.81061 7.16861 2.08958 7.31944 2.39107 7.40799L2.67287 6.44851ZM3.19774 6.4896C3.02081 6.51217 2.84073 6.49781 2.67287 6.44851L2.39107 7.40798C2.69254 7.49653 3.0117 7.52143 3.32427 7.48156L3.19774 6.4896ZM7.76641 6.48558H3.26101V7.48558H7.76641V6.48558ZM8.35085 6.44697C8.18373 6.49644 8.00436 6.51125 7.82792 6.48938L7.70489 7.48178C8.01654 7.52042 8.33448 7.49471 8.63471 7.40583L8.35085 6.44697ZM8.78173 6.21241C8.66482 6.3158 8.51795 6.3975 8.35085 6.44696L8.6347 7.40583C8.93496 7.31695 9.21269 7.16624 9.44422 6.96148L8.78173 6.21241ZM9.02899 5.86165C8.98111 5.98824 8.89838 6.10923 8.78172 6.21242L9.44423 6.96147C9.67597 6.75651 9.85592 6.50204 9.96432 6.21542L9.02899 5.86165ZM9.06944 5.47507C9.08994 5.60377 9.07668 5.73556 9.02899 5.86167L9.96433 6.2154C10.0729 5.92832 10.1052 5.62047 10.057 5.31776L9.06944 5.47507ZM9.06322 3.80472V5.39642H10.0632V3.80472H9.06322ZM5.06164 4.30472H9.56322V3.30472H5.06164V4.30472ZM5.56164 4.20264V3.80472H4.56164V4.20264H5.56164ZM9.11688 3.70264H5.06164V4.70264H9.11688V3.70264ZM9.61688 5.39642V4.20264H8.61688V5.39642H9.61688ZM9.53543 6.05573C9.62449 5.8196 9.65075 5.56601 9.61049 5.3167L8.62328 5.47613C8.63539 5.55114 8.62792 5.62819 8.59976 5.70285L9.53543 6.05573ZM9.11036 6.66634C9.29909 6.49952 9.44655 6.29139 9.53543 6.05573L8.59976 5.70285C8.57143 5.77798 8.52142 5.85226 8.44809 5.91708L9.11036 6.66634ZM8.45401 7.02623C8.69654 6.95475 8.9219 6.83295 9.11039 6.66632L8.44806 5.91711C8.3745 5.98213 8.28038 6.03487 8.17132 6.06701L8.45401 7.02623ZM7.70381 7.08626C7.955 7.11795 8.21148 7.0977 8.45401 7.02623L8.17132 6.06701C8.06227 6.09915 7.94471 6.10872 7.82901 6.09412L7.70381 7.08626ZM3.26101 7.09019H7.76641V6.09019H3.26101V7.09019ZM2.5734 7.02623C2.81593 7.0977 3.07241 7.11795 3.3236 7.08626L3.19841 6.09412C3.08271 6.10872 2.96514 6.09915 2.85607 6.06701L2.5734 7.02623ZM1.91703 6.66633C2.10551 6.83295 2.33086 6.95475 2.5734 7.02623L2.85608 6.06701C2.74704 6.03488 2.65291 5.98214 2.57933 5.91709L1.91703 6.66633ZM1.49199 6.05573C1.58086 6.29139 1.72832 6.49952 1.91703 6.66633L2.57933 5.91709C2.50599 5.85227 2.45599 5.77798 2.42765 5.70285L1.49199 6.05573ZM1.41693 5.31667C1.37665 5.56602 1.40294 5.81962 1.49199 6.05573L2.42765 5.70285C2.39949 5.62818 2.39202 5.55113 2.40413 5.47616L1.41693 5.31667ZM1.41053 2.60841V5.39642H2.41053V2.60841H1.41053ZM1.49198 1.94909C1.40294 2.18521 1.37665 2.4388 1.41693 2.68815L2.40413 2.52867C2.39202 2.4537 2.39949 2.37665 2.42766 2.30196L1.49198 1.94909ZM1.91702 1.3385C1.72832 1.50531 1.58087 1.71342 1.49199 1.94908L2.42765 2.30197C2.45599 2.22685 2.50599 2.15256 2.57934 2.08771L1.91702 1.3385ZM2.5734 0.978597C2.33087 1.05007 2.10552 1.17186 1.91703 1.33848L2.57933 2.08772C2.6529 2.02269 2.74702 1.96995 2.85608 1.93781L2.5734 0.978597ZM3.32363 0.918572C3.0724 0.886858 2.81592 0.907128 2.5734 0.978595L2.85607 1.93781C2.96516 1.90567 3.08272 1.8961 3.19839 1.9107L3.32363 0.918572ZM7.76641 0.914635H3.26101V1.91463H7.76641V0.914635ZM8.45385 0.979776C8.21181 0.908031 7.95578 0.887326 7.70488 0.918434L7.82793 1.91084C7.94349 1.89651 8.06083 1.90628 8.16965 1.93854L8.45385 0.979776ZM9.10874 1.33999C8.92072 1.17344 8.6959 1.05153 8.45386 0.979778L8.16964 1.93854C8.27843 1.97079 8.3723 2.02355 8.44565 2.08853L9.10874 1.33999ZM9.53271 1.94999C9.44406 1.71466 9.29699 1.50675 9.10874 1.33999L8.44565 2.08853C8.51878 2.15331 8.56864 2.22749 8.5969 2.30251L9.53271 1.94999ZM9.60765 2.68792C9.64775 2.43899 9.62153 2.1858 9.53271 1.94999L8.5969 2.30251C8.62498 2.37705 8.63244 2.45398 8.62038 2.52889L9.60765 2.68792ZM9.56704 2.10841H9.11401V3.10841H9.56704V2.10841ZM9.0336 2.14089C9.08127 2.26735 9.09434 2.3995 9.07346 2.52854L10.0606 2.68828C10.1097 2.38487 10.0779 2.07611 9.96931 1.78813L9.0336 2.14089ZM8.78584 1.78916C8.90286 1.8926 8.98575 2.01395 9.03359 2.14087L9.96932 1.78814C9.86093 1.50061 9.68056 1.24537 9.44814 1.03992L8.78584 1.78916ZM8.35355 1.5543C8.52121 1.60368 8.66859 1.68551 8.78583 1.78915L9.44815 1.03993C9.21595 0.834664 8.93729 0.683766 8.63611 0.59505L8.35355 1.5543ZM18.7141 1.51276C18.891 1.4904 19.0709 1.50491 19.2386 1.55431L19.5211 0.595045C19.2199 0.50634 18.9011 0.481161 18.5887 0.520658L18.7141 1.51276ZM12.3456 1.52009L18.6517 1.51671L18.6511 0.51671L12.3451 0.52009L12.3456 1.52009ZM12.8454 6.98896V1.02009H11.8454V6.98896H12.8454ZM12.7955 6.48896H12.3454V7.48896H12.7955V6.48896ZM12.2955 4.20095V6.98896H13.2955V4.20095H12.2955ZM18.6495 3.70095H12.7955V4.70095H18.6495V3.70095ZM19.3371 3.76492C19.0946 3.69344 18.8381 3.67318 18.5869 3.70489L18.7121 4.69702C18.8278 4.68241 18.9454 4.69199 19.0544 4.72412L19.3371 3.76492ZM19.9935 4.1248C19.805 3.95814 19.5796 3.83638 19.3371 3.76492L19.0544 4.72412C19.1635 4.75628 19.2577 4.80904 19.3312 4.87404L19.9935 4.1248ZM20.4186 4.73545C20.3297 4.49974 20.1822 4.29161 19.9935 4.1248L19.3312 4.87404C19.4046 4.93889 19.4546 5.01316 19.4829 5.08823L20.4186 4.73545ZM20.4935 5.47472C20.534 5.22513 20.5076 4.97147 20.4186 4.73546L19.4829 5.08823C19.5111 5.16302 19.5185 5.24 19.5064 5.31473L20.4935 5.47472ZM20.5 6.98642V5.39473H19.5V6.98642H20.5ZM20.452 6.48642H20V7.48642H20.452V6.48642ZM19.952 5.39473V6.98642H20.952V5.39473H19.952ZM19.8657 4.83875C19.9497 4.99439 19.9795 5.16261 19.9568 5.32584L20.9473 5.46361C21.0001 5.08399 20.9281 4.70164 20.7457 4.3637L19.8657 4.83875ZM19.4583 4.43934C19.6428 4.54115 19.7812 4.6822 19.8657 4.83874L20.7457 4.36371C20.5637 4.02665 20.2818 3.75163 19.9414 3.5638L19.4583 4.43934ZM19.8657 3.16438C19.7812 3.32092 19.6428 3.46198 19.4583 3.5638L19.9414 4.43933C20.2818 4.25149 20.5637 3.97648 20.7457 3.63943L19.8657 3.16438ZM19.9568 2.67729C19.9795 2.84052 19.9497 3.00875 19.8657 3.16438L20.7457 3.63944C20.9281 3.30149 21.0001 2.91913 20.9473 2.53953L19.9568 2.67729ZM19.9186 2.141C19.9663 2.26741 19.9794 2.39945 19.9585 2.52834L20.9456 2.68847C20.9948 2.38492 20.9629 2.07605 20.8543 1.78801L19.9186 2.141ZM19.6709 1.78915C19.7879 1.89258 19.8708 2.0139 19.9186 2.14081L20.8543 1.7882C20.746 1.50066 20.5656 1.2454 20.3332 1.03993L19.6709 1.78915ZM19.2386 1.55431C19.4062 1.60367 19.5536 1.68548 19.671 1.78923L20.3331 1.03985C20.1009 0.834691 19.8224 0.68378 19.5211 0.595045L19.2386 1.55431ZM19.4829 2.30191C19.5111 2.3767 19.5185 2.45368 19.5064 2.52841L20.4935 2.68841C20.534 2.43881 20.5076 2.18515 20.4186 1.94914L19.4829 2.30191ZM19.3312 2.08772C19.4046 2.15257 19.4546 2.22684 19.4829 2.30192L20.4186 1.94914C20.3297 1.71343 20.1822 1.5053 19.9935 1.33849L19.3312 2.08772ZM19.0544 1.9378C19.1635 1.96996 19.2577 2.02272 19.3312 2.08772L19.9935 1.33849C19.805 1.17183 19.5796 1.05006 19.3371 0.978603L19.0544 1.9378ZM18.7121 1.9107C18.8278 1.89609 18.9454 1.90567 19.0544 1.9378L19.3371 0.978603C19.0946 0.907121 18.8381 0.886863 18.5869 0.918569L18.7121 1.9107ZM12.7955 1.91463H18.6495V0.914635H12.7955V1.91463ZM13.2955 3.80218V1.41463H12.2955V3.80218H13.2955ZM18.6476 3.30218H12.7955V4.30218H18.6476V3.30218ZM19.0536 3.27951C18.9445 3.31155 18.8267 3.321 18.7109 3.30621L18.5842 4.29816C18.8356 4.33026 19.0925 4.3103 19.3353 4.239L19.0536 3.27951ZM19.331 3.12955C19.2572 3.1947 19.1628 3.24744 19.0536 3.2795L19.3353 4.23901C19.5782 4.16771 19.8038 4.04599 19.9926 3.87941L19.331 3.12955ZM19.4828 2.91528C19.4545 2.99041 19.4044 3.06477 19.3309 3.12967L19.9927 3.87929C20.1817 3.71247 20.3294 3.50421 20.4184 3.26825L19.4828 2.91528ZM19.5064 2.68833C19.5186 2.7635 19.5111 2.84053 19.4829 2.91501L20.4184 3.26852C20.5078 3.03192 20.5339 2.77796 20.4935 2.52849L19.5064 2.68833ZM24.9692 6.48953C24.7925 6.51189 24.6126 6.49738 24.4449 6.44798L24.1623 7.40723C24.4635 7.49595 24.7823 7.52113 25.0947 7.48163L24.9692 6.48953ZM29.5336 6.48558H25.032V7.48558H29.5336V6.48558ZM30.1207 6.44798C29.953 6.49738 29.7732 6.51189 29.5963 6.48953L29.4708 7.48163C29.7833 7.52113 30.1021 7.49595 30.4033 7.40723L30.1207 6.44798ZM30.5532 6.21305C30.4357 6.3168 30.2884 6.39861 30.1208 6.44798L30.4033 7.40724C30.7046 7.3185 30.9831 7.16759 31.2153 6.96245L30.5532 6.21305ZM30.8007 5.86147C30.7529 5.98838 30.67 6.10972 30.5531 6.21314L31.2154 6.96236C31.4478 6.75689 31.6282 6.50162 31.7365 6.2141L30.8007 5.86147ZM30.8406 5.47395C30.8615 5.60284 30.8485 5.73488 30.8008 5.86129L31.7364 6.21427C31.8451 5.92624 31.877 5.61737 31.8277 5.31382L30.8406 5.47395ZM30.8342 2.60587V5.39388H31.8342V2.60587H30.8342ZM30.8008 2.13846C30.8485 2.26487 30.8615 2.39692 30.8406 2.52581L31.8277 2.68594C31.877 2.38239 31.8451 2.07352 31.7364 1.78548L30.8008 2.13846ZM30.5531 1.78662C30.6701 1.89004 30.7529 2.01137 30.8007 2.13828L31.7365 1.78567C31.6282 1.49812 31.4478 1.24286 31.2154 1.0374L30.5531 1.78662ZM30.1208 1.55177C30.2884 1.60114 30.4357 1.68295 30.5531 1.7867L31.2153 1.03732C30.9831 0.832156 30.7046 0.681245 30.4033 0.592511L30.1208 1.55177ZM29.5963 1.51023C29.7732 1.48786 29.9531 1.50238 30.1208 1.55177L30.4033 0.592511C30.1021 0.503805 29.7833 0.478627 29.4708 0.518123L29.5963 1.51023ZM25.032 1.51418H29.5336V0.514176H25.032V1.51418ZM24.4449 1.55177C24.6126 1.50237 24.7925 1.48787 24.9692 1.51022L25.0947 0.518126C24.7823 0.478623 24.4635 0.503809 24.1623 0.592511L24.4449 1.55177ZM24.0125 1.7867C24.1299 1.68295 24.2772 1.60114 24.4449 1.55177L24.1623 0.592511C23.8611 0.681245 23.5825 0.832155 23.3503 1.03732L24.0125 1.7867ZM23.7649 2.13828C23.8127 2.01137 23.8956 1.89004 24.0126 1.78662L23.3502 1.0374C23.1178 1.24287 22.9375 1.49812 22.8291 1.78567L23.7649 2.13828ZM23.7249 2.52602C23.704 2.39699 23.7171 2.26487 23.7648 2.13846L22.8292 1.78548C22.7205 2.07352 22.6887 2.38231 22.7378 2.68573L23.7249 2.52602ZM23.7313 5.39388V2.60587H22.7313V5.39388H23.7313ZM23.7648 5.86129C23.7171 5.73488 23.704 5.60276 23.7249 5.47373L22.7378 5.31403C22.6887 5.61744 22.7205 5.92624 22.8292 6.21428L23.7648 5.86129ZM24.0126 6.21314C23.8956 6.10972 23.8127 5.98838 23.7649 5.86147L22.8291 6.2141C22.9375 6.50162 23.1178 6.75689 23.3502 6.96236L24.0126 6.21314ZM24.4449 6.44798C24.2772 6.39861 24.1299 6.3168 24.0125 6.21305L23.3503 6.96245C23.5825 7.16759 23.8611 7.3185 24.1623 7.40724L24.4449 6.44798ZM24.1968 5.70037C24.1686 5.62558 24.1611 5.54851 24.1732 5.47359L23.186 5.31417C23.1457 5.56358 23.1721 5.81714 23.261 6.05314L24.1968 5.70037ZM24.3484 5.91454C24.2751 5.84972 24.2251 5.77545 24.1968 5.70036L23.2611 6.05315C23.3499 6.28884 23.4974 6.49699 23.6861 6.66381L24.3484 5.91454ZM24.6252 6.06449C24.5161 6.03233 24.4219 5.97957 24.3484 5.91456L23.6861 6.6638C23.8746 6.83045 24.1 6.95223 24.3425 7.02369L24.6252 6.06449ZM24.9674 6.09159C24.8518 6.10619 24.7342 6.09662 24.6252 6.06449L24.3425 7.02369C24.585 7.09517 24.8415 7.11542 25.0927 7.08372L24.9674 6.09159ZM29.5316 6.08765H25.0301V7.08765H29.5316V6.08765ZM29.9366 6.06449C29.8276 6.09661 29.71 6.10619 29.5942 6.09159L29.4691 7.08372C29.7203 7.11541 29.9768 7.09517 30.2193 7.02369L29.9366 6.06449ZM30.2134 5.91456C30.1399 5.97957 30.0457 6.03233 29.9366 6.06449L30.2193 7.02369C30.4618 6.95223 30.6872 6.83045 30.8757 6.6638L30.2134 5.91456ZM30.365 5.70036C30.3367 5.77545 30.2867 5.84972 30.2134 5.91455L30.8757 6.66381C31.0644 6.49699 31.2119 6.28884 31.3007 6.05315L30.365 5.70036ZM30.3886 5.47388C30.4007 5.54861 30.3932 5.62558 30.365 5.70037L31.3007 6.05314C31.3897 5.81714 31.4161 5.56348 31.3757 5.31388L30.3886 5.47388ZM30.3821 2.60587V5.39388H31.3821V2.60587H30.3821ZM30.365 2.29937C30.3932 2.37417 30.4007 2.45115 30.3886 2.52588L31.3757 2.68587C31.4161 2.43628 31.3897 2.18262 31.3008 1.94661L30.365 2.29937ZM30.2134 2.08519C30.2867 2.15003 30.3367 2.2243 30.365 2.29939L31.3007 1.9466C31.2119 1.71089 31.0644 1.50276 30.8757 1.33595L30.2134 2.08519ZM29.9366 1.93527C30.0457 1.96743 30.1399 2.02019 30.2134 2.08519L30.8757 1.33595C30.6872 1.16929 30.4617 1.04752 30.2193 0.976069L29.9366 1.93527ZM29.5942 1.90817C29.71 1.89356 29.8276 1.90314 29.9366 1.93527L30.2193 0.976069C29.9768 0.904587 29.7203 0.884328 29.469 0.916035L29.5942 1.90817ZM25.0301 1.9121H29.5316V0.9121H25.0301V1.9121ZM24.6252 1.93527C24.7342 1.90313 24.8518 1.89356 24.9674 1.90816L25.0927 0.916039C24.8415 0.884323 24.585 0.904592 24.3425 0.976069L24.6252 1.93527ZM24.3484 2.08519C24.4219 2.02019 24.5161 1.96743 24.6252 1.93527L24.3425 0.976069C24.1001 1.04752 23.8746 1.16929 23.6861 1.33595L24.3484 2.08519ZM24.1968 2.29939C24.2251 2.2243 24.275 2.15003 24.3484 2.08519L23.6861 1.33595C23.4974 1.50276 23.3499 1.71089 23.2611 1.9466L24.1968 2.29939ZM24.1732 2.52616C24.1611 2.45125 24.1686 2.37417 24.1968 2.29937L23.261 1.94661C23.1721 2.18262 23.1457 2.43618 23.186 2.68559L24.1732 2.52616ZM24.1796 5.39388V2.60587H23.1796V5.39388H24.1796ZM42.2671 5.39388V1.01671H41.2671V5.39388H42.2671ZM42.1858 6.05315C42.2748 5.81714 42.3012 5.56347 42.2607 5.3139L41.2736 5.47387C41.2857 5.54861 41.2783 5.62559 41.2501 5.70036L42.1858 6.05315ZM41.7607 6.66381C41.9494 6.49699 42.0969 6.28884 42.1858 6.05315L41.2501 5.70037C41.2218 5.77545 41.1718 5.84972 41.0984 5.91455L41.7607 6.66381ZM41.1043 7.02369C41.3468 6.95223 41.5722 6.83045 41.7607 6.66379L41.0984 5.91456C41.0249 5.97957 40.9307 6.03233 40.8216 6.06449L41.1043 7.02369ZM40.3542 7.08372C40.6053 7.11542 40.8618 7.09517 41.1043 7.02369L40.8216 6.06449C40.7126 6.09662 40.595 6.10619 40.4794 6.09159L40.3542 7.08372ZM35.9151 7.08766H40.4168V6.08766H35.9151V7.08766ZM35.2275 7.02369C35.47 7.09517 35.7265 7.11542 35.9777 7.08372L35.8525 6.09159C35.7368 6.10619 35.6193 6.09662 35.5102 6.06449L35.2275 7.02369ZM34.5711 6.6638C34.7597 6.83045 34.9851 6.95223 35.2275 7.02369L35.5102 6.06449C35.4012 6.03233 35.307 5.97957 35.2334 5.91456L34.5711 6.6638ZM34.1461 6.05316C34.2349 6.28884 34.3824 6.49699 34.5711 6.66381L35.2334 5.91455C35.1601 5.84973 35.1101 5.77545 35.0818 5.70036L34.1461 6.05316ZM34.0711 5.31388C34.0307 5.56348 34.0571 5.81714 34.1461 6.05314L35.0818 5.70037C35.0536 5.62558 35.0462 5.54861 35.0583 5.47388L34.0711 5.31388ZM34.0647 1.01671V5.39388H35.0647V1.01671H34.0647ZM34.1145 1.51671H34.5647V0.51671H34.1145V1.51671ZM34.6145 5.39388V1.01671H33.6145V5.39388H34.6145ZM34.6479 5.86129C34.6002 5.73488 34.5872 5.60276 34.608 5.47373L33.6209 5.31403C33.5718 5.61744 33.6036 5.92624 33.7123 6.21427L34.6479 5.86129ZM34.8957 6.21314C34.7787 6.10972 34.6958 5.98838 34.648 5.86147L33.7122 6.2141C33.8206 6.50162 34.0009 6.75688 34.2334 6.96236L34.8957 6.21314ZM35.328 6.44798C35.1604 6.39861 35.013 6.3168 34.8956 6.21305L34.2335 6.96245C34.4656 7.16759 34.7442 7.3185 35.0454 7.40724L35.328 6.44798ZM35.8524 6.48953C35.6756 6.51189 35.4957 6.49738 35.328 6.44798L35.0454 7.40723C35.3466 7.49595 35.6655 7.52113 35.9778 7.48163L35.8524 6.48953ZM40.4168 6.48558H35.9151V7.48558H40.4168V6.48558ZM41.0039 6.44798C40.8362 6.49738 40.6563 6.51189 40.4795 6.48953L40.354 7.48163C40.6664 7.52113 40.9852 7.49595 41.2864 7.40723L41.0039 6.44798ZM41.4363 6.21305C41.3188 6.3168 41.1715 6.39861 41.0039 6.44798L41.2864 7.40724C41.5877 7.3185 41.8662 7.16759 42.0984 6.96245L41.4363 6.21305ZM41.6838 5.86148C41.636 5.98838 41.5532 6.10972 41.4362 6.21314L42.0985 6.96236C42.3309 6.75688 42.5113 6.50162 42.6196 6.21409L41.6838 5.86148ZM41.7238 5.47373C41.7447 5.60276 41.7316 5.73488 41.6839 5.86129L42.6195 6.21428C42.7282 5.92624 42.7601 5.61744 42.711 5.31403L41.7238 5.47373ZM41.7174 1.01671V5.39388H42.7174V1.01671H41.7174ZM41.7671 1.51671H42.2174V0.51671H41.7671V1.51671ZM52.1705 0.595046C51.8693 0.506343 51.5505 0.481158 51.2381 0.520661L51.3636 1.51276C51.5404 1.4904 51.7202 1.50491 51.888 1.55431L52.1705 0.595046ZM52.9825 1.03985C52.7503 0.83469 52.4718 0.683779 52.1705 0.595045L51.888 1.55431C52.0556 1.60367 52.2029 1.68548 52.3203 1.78923L52.9825 1.03985ZM53.5037 1.7882C53.3953 1.50066 53.215 1.2454 52.9826 1.03993L52.3202 1.78915C52.4372 1.89258 52.5201 2.0139 52.5679 2.14081L53.5037 1.7882ZM53.5951 2.68826C53.6441 2.38485 53.6123 2.07605 53.5036 1.78801L52.568 2.141C52.6157 2.26741 52.6288 2.39953 52.6079 2.52856L53.5951 2.68826ZM53.5036 3.42881C53.6123 3.14077 53.6441 2.83197 53.5951 2.52856L52.6079 2.68826C52.6288 2.81729 52.6157 2.94941 52.568 3.0758L53.5036 3.42881ZM52.9826 4.17689C53.215 3.97141 53.3953 3.71615 53.5037 3.4286L52.5679 3.076C52.5201 3.20291 52.4372 3.32424 52.3202 3.42766L52.9826 4.17689ZM52.1705 4.62176C52.4718 4.53303 52.7503 4.38212 52.9825 4.17697L52.3203 3.42758C52.2029 3.53132 52.0556 3.61314 51.888 3.6625L52.1705 4.62176ZM51.2381 4.69616C51.5505 4.73566 51.8693 4.71047 52.1705 4.62176L51.8879 3.66251C51.7202 3.71191 51.5404 3.72641 51.3636 3.70406L51.2381 4.69616ZM45.4488 4.70011H51.3008V3.70011H45.4488V4.70011ZM45.9488 6.98811V4.20011H44.9488V6.98811H45.9488ZM44.9985 7.48811H45.4488V6.48811H44.9985V7.48811ZM44.4985 1.01924V6.98811H45.4985V1.01924H44.4985ZM51.3006 0.51671L44.9983 0.519245L44.9987 1.51924L51.301 1.51671L51.3006 0.51671ZM53.0698 1.94914C52.981 1.71343 52.8335 1.5053 52.6448 1.33848L51.9825 2.08772C52.0559 2.15257 52.1058 2.22684 52.1341 2.30192L53.0698 1.94914ZM53.1462 2.68556C53.1849 2.43781 53.1588 2.18516 53.0699 1.94915L52.1341 2.30191C52.1623 2.3767 52.1701 2.45468 52.1582 2.53126L53.1462 2.68556ZM53.0708 3.26784C53.1598 3.03179 53.1862 2.77807 53.1457 2.52845L52.1586 2.68837C52.1707 2.76322 52.1633 2.84033 52.1351 2.91521L53.0708 3.26784ZM52.6454 3.87881C52.8342 3.71199 52.9818 3.50383 53.0707 3.2681L52.1352 2.91495C52.1068 2.99016 52.0567 3.06451 51.9833 3.12938L52.6454 3.87881ZM51.9884 4.23862C52.2311 4.16724 52.4567 4.04549 52.6454 3.87881L51.9833 3.12938C51.9097 3.19439 51.8155 3.24713 51.7063 3.27925L51.9884 4.23862ZM51.2379 4.2982C51.4891 4.3301 51.7458 4.31 51.9885 4.23861L51.7062 3.27926C51.5972 3.31135 51.4795 3.32085 51.3638 3.30616L51.2379 4.2982ZM45.4488 4.30218H51.3008V3.30218H45.4488V4.30218ZM44.9488 1.41463V3.80218H45.9488V1.41463H44.9488ZM51.3008 0.914635H45.4488V1.91463H51.3008V0.914635ZM51.9884 0.978603C51.7459 0.907126 51.4894 0.886857 51.2382 0.918573L51.3635 1.9107C51.4791 1.8961 51.5967 1.90567 51.7057 1.9378L51.9884 0.978603ZM52.6448 1.33848C52.4563 1.17183 52.2308 1.05006 51.9884 0.978602L51.7057 1.9378C51.8148 1.96996 51.909 2.02272 51.9825 2.08772L52.6448 1.33848ZM56.6024 7.40723C56.9035 7.49595 57.2224 7.52113 57.5347 7.48163L57.4093 6.48953C57.2325 6.51189 57.0526 6.49738 56.8849 6.44798L56.6024 7.40723ZM55.7904 6.96245C56.0226 7.16759 56.3011 7.3185 56.6024 7.40724L56.8849 6.44798C56.7173 6.39861 56.5699 6.3168 56.4525 6.21305L55.7904 6.96245ZM55.2692 6.2141C55.3775 6.50162 55.5579 6.75688 55.7903 6.96236L56.4526 6.21314C56.3356 6.10972 56.2527 5.98838 56.2049 5.86147L55.2692 6.2141ZM55.1778 5.31403C55.1287 5.61744 55.1606 5.92624 55.2692 6.21427L56.2049 5.86129C56.1572 5.73488 56.1441 5.60276 56.165 5.47373L55.1778 5.31403ZM56.1216 4.89388H55.6714V5.89388H56.1216V4.89388ZM56.6387 5.70037C56.6105 5.62558 56.6031 5.54861 56.6152 5.47388L55.6281 5.31388C55.5876 5.56348 55.614 5.81714 55.703 6.05314L56.6387 5.70037ZM56.7903 5.91455C56.717 5.84973 56.667 5.77545 56.6387 5.70036L55.703 6.05315C55.7919 6.28884 55.9393 6.49699 56.1281 6.66381L56.7903 5.91455ZM57.0672 6.06449C56.9581 6.03233 56.8639 5.97957 56.7904 5.91456L56.1281 6.6638C56.3166 6.83045 56.542 6.95223 56.7844 7.02369L57.0672 6.06449ZM57.4094 6.09159C57.2937 6.10619 57.1762 6.09662 57.0672 6.06449L56.7844 7.02369C57.027 7.09517 57.2835 7.11542 57.5346 7.08372L57.4094 6.09159ZM61.9737 6.08765H57.472V7.08765H61.9737V6.08765ZM62.3785 6.06449C62.2695 6.09662 62.152 6.10619 62.0363 6.09159L61.9111 7.08372C62.1622 7.11542 62.4188 7.09517 62.6613 7.02369L62.3785 6.06449ZM62.6553 5.91456C62.5818 5.97957 62.4876 6.03233 62.3785 6.06449L62.6613 7.02369C62.9037 6.95223 63.1291 6.83045 63.3176 6.66379L62.6553 5.91456ZM62.807 5.70036C62.7787 5.77545 62.7287 5.84972 62.6554 5.91454L63.3176 6.66381C63.5064 6.49699 63.6538 6.28884 63.7427 6.05315L62.807 5.70036ZM62.8306 5.47358C62.8427 5.54851 62.8352 5.62559 62.807 5.70037L63.7427 6.05314C63.8317 5.81713 63.858 5.56357 63.8178 5.31418L62.8306 5.47358ZM62.807 5.08738C62.8352 5.16217 62.8427 5.23925 62.8306 5.31418L63.8178 5.47358C63.858 5.22419 63.8317 4.97063 63.7427 4.73462L62.807 5.08738ZM62.6553 4.8732C62.7287 4.93804 62.7787 5.01231 62.807 5.0874L63.7427 4.7346C63.6538 4.4989 63.5064 4.29077 63.3176 4.12396L62.6553 4.8732ZM62.3785 4.72328C62.4876 4.75543 62.5818 4.8082 62.6554 4.8732L63.3176 4.12395C63.1291 3.95731 62.9037 3.83554 62.6613 3.76408L62.3785 4.72328ZM62.0363 4.69617C62.1519 4.68157 62.2695 4.69114 62.3785 4.72328L62.6613 3.76408C62.4188 3.6926 62.1622 3.67233 61.9111 3.70405L62.0363 4.69617ZM57.472 4.70011H61.9737V3.70011H57.472V4.70011ZM56.6024 4.62176C56.9035 4.71047 57.2224 4.73566 57.5347 4.69616L57.4093 3.70406C57.2325 3.72641 57.0526 3.71191 56.8849 3.66251L56.6024 4.62176ZM55.7904 4.17698C56.0226 4.38212 56.3011 4.53303 56.6024 4.62176L56.8849 3.6625C56.7173 3.61314 56.5699 3.53132 56.4525 3.42757L55.7904 4.17698ZM55.2692 3.42861C55.3775 3.71615 55.5579 3.97141 55.7903 4.17688L56.4526 3.42767C56.3356 3.32424 56.2528 3.20291 56.2049 3.07599L55.2692 3.42861ZM55.1778 2.52856C55.1287 2.83197 55.1606 3.14076 55.2692 3.4288L56.2049 3.07581C56.1572 2.94941 56.1441 2.81729 56.165 2.68826L55.1778 2.52856ZM55.2692 1.78802C55.1606 2.07605 55.1287 2.38485 55.1778 2.68826L56.165 2.52856C56.1441 2.39953 56.1572 2.26741 56.2049 2.141L55.2692 1.78802ZM55.7903 1.03993C55.5579 1.2454 55.3775 1.50066 55.2692 1.7882L56.2049 2.14081C56.2527 2.01391 56.3356 1.89258 56.4526 1.78915L55.7903 1.03993ZM56.6024 0.595045C56.3011 0.68378 56.0226 0.834691 55.7904 1.03985L56.4525 1.78923C56.5699 1.68548 56.7173 1.60367 56.8849 1.55431L56.6024 0.595045ZM57.5347 0.520661C57.2224 0.481157 56.9035 0.506344 56.6024 0.595045L56.8849 1.55431C57.0526 1.50491 57.2325 1.4904 57.4093 1.51276L57.5347 0.520661ZM61.9737 0.51671H57.472V1.51671H61.9737V0.51671ZM62.8432 0.59542C62.5422 0.506635 62.2235 0.481306 61.9112 0.520628L62.0362 1.51279C62.2129 1.49054 62.3927 1.50512 62.5603 1.55457L62.8432 0.59542ZM63.6548 1.04039C63.4228 0.835132 63.1442 0.684226 62.8433 0.595435L62.5603 1.55456C62.7279 1.604 62.8752 1.68585 62.9923 1.78946L63.6548 1.04039ZM64.1757 1.78839C64.0673 1.50095 63.887 1.24583 63.6549 1.04047L62.9922 1.78937C63.1092 1.89287 63.1921 2.01426 63.2399 2.14112L64.1757 1.78839ZM64.2668 2.68829C64.3159 2.38493 64.2841 2.07633 64.1757 1.78858L63.2399 2.14093C63.2875 2.26745 63.3006 2.3996 63.2797 2.52853L64.2668 2.68829ZM63.3231 3.10841H63.7733V2.10841H63.3231V3.10841ZM62.806 2.30191C62.8342 2.37671 62.8417 2.45369 62.8296 2.52841L63.8167 2.68841C63.8571 2.43881 63.8307 2.18515 63.7417 1.94914L62.806 2.30191ZM62.6544 2.08772C62.7277 2.15257 62.7777 2.22684 62.806 2.30191L63.7417 1.94914C63.6529 1.71342 63.5054 1.5053 63.3167 1.33849L62.6544 2.08772ZM62.3776 1.9378C62.4867 1.96996 62.5809 2.02272 62.6544 2.08772L63.3167 1.33848C63.1282 1.17182 62.9027 1.05006 62.6603 0.978603L62.3776 1.9378ZM62.0354 1.9107C62.151 1.8961 62.2686 1.90567 62.3776 1.9378L62.6603 0.978603C62.4178 0.907126 62.1613 0.886858 61.9101 0.918573L62.0354 1.9107ZM57.4711 1.91463H61.9727V0.914635H57.4711V1.91463ZM57.0662 1.9378C57.1752 1.90567 57.2928 1.8961 57.4084 1.9107L57.5337 0.918573C57.2825 0.886857 57.026 0.907126 56.7835 0.978603L57.0662 1.9378ZM56.7894 2.08772C56.8629 2.02272 56.9571 1.96996 57.0662 1.9378L56.7835 0.978603C56.5411 1.05006 56.3156 1.17183 56.1271 1.33849L56.7894 2.08772ZM56.6378 2.30191C56.6661 2.22684 56.716 2.15257 56.7894 2.08772L56.1271 1.33848C55.9384 1.5053 55.7909 1.71343 55.702 1.94914L56.6378 2.30191ZM56.6142 2.52841C56.6021 2.45368 56.6096 2.3767 56.6378 2.30192L55.702 1.94913C55.6131 2.18515 55.5867 2.43882 55.6271 2.68841L56.6142 2.52841ZM56.6378 2.91488C56.6096 2.84011 56.6021 2.76314 56.6142 2.68841L55.6271 2.52841C55.5867 2.778 55.6131 3.03166 55.7021 3.26768L56.6378 2.91488ZM56.7894 3.12907C56.716 3.06425 56.6661 2.98998 56.6378 2.91489L55.702 3.26767C55.7909 3.50337 55.9384 3.71152 56.1271 3.87834L56.7894 3.12907ZM57.0662 3.27901C56.9571 3.24686 56.8629 3.19409 56.7894 3.12909L56.1271 3.87832C56.3156 4.04497 56.541 4.16675 56.7835 4.23821L57.0662 3.27901ZM57.4084 3.30612C57.2928 3.32072 57.1752 3.31114 57.0662 3.27901L56.7835 4.23821C57.026 4.3097 57.2825 4.32995 57.5337 4.29825L57.4084 3.30612ZM61.9727 3.30218H57.4711V4.30218H61.9727V3.30218ZM62.8424 3.38052C62.5412 3.29182 62.2224 3.26663 61.91 3.30613L62.0355 4.29823C62.2122 4.27588 62.3921 4.29038 62.5598 4.33978L62.8424 3.38052ZM63.6544 3.82533C63.4222 3.62015 63.1436 3.46926 62.8424 3.38052L62.5598 4.33977C62.7275 4.38915 62.8748 4.47096 62.9922 4.5747L63.6544 3.82533ZM64.1756 4.57367C64.0672 4.28613 63.8869 4.03087 63.6545 3.82541L62.9921 4.57462C63.1091 4.67805 63.192 4.79938 63.2398 4.92629L64.1756 4.57367ZM64.2668 5.47395C64.3161 5.17039 64.2842 4.86153 64.1755 4.57349L63.2399 4.92647C63.2876 5.05288 63.3006 5.18492 63.2797 5.31382L64.2668 5.47395ZM64.1755 6.21427C64.2842 5.92624 64.3161 5.61737 64.2668 5.31382L63.2797 5.47395C63.3006 5.60284 63.2876 5.73488 63.2399 5.86129L64.1755 6.21427ZM63.6545 6.96236C63.8869 6.75688 64.0672 6.50162 64.1756 6.2141L63.2398 5.86147C63.192 5.98838 63.1091 6.10972 62.9921 6.21314L63.6545 6.96236ZM62.8424 7.40724C63.1437 7.3185 63.4222 7.16759 63.6544 6.96245L62.9922 6.21305C62.8748 6.3168 62.7275 6.39861 62.5598 6.44798L62.8424 7.40724ZM61.91 7.48163C62.2224 7.52113 62.5412 7.49595 62.8424 7.40723L62.5598 6.44798C62.3921 6.49738 62.2122 6.51189 62.0355 6.48953L61.91 7.48163ZM57.472 7.48558H61.9727V6.48558H57.472V7.48558ZM66.5057 4.19757V6.98558H67.5057V4.19757H66.5057ZM74.2101 3.69757H67.0057V4.69757H74.2101V3.69757ZM74.7101 6.98558V4.19757H73.7101V6.98558H74.7101ZM74.6603 6.48558H74.2101V7.48558H74.6603V6.48558ZM74.1603 1.01671V6.98558H75.1603V1.01671H74.1603ZM74.2101 1.51671H74.6603V0.51671H74.2101V1.51671ZM74.7101 3.80472V1.01671H73.7101V3.80472H74.7101ZM67.0057 4.30472H74.2101V3.30472H67.0057V4.30472ZM66.5057 1.01671V3.80472H67.5057V1.01671H66.5057ZM66.5555 1.51671H67.0057V0.51671H66.5555V1.51671ZM67.0555 6.98558V1.01671H66.0555V6.98558H67.0555ZM67.0057 6.48558H66.5555V7.48558H67.0057V6.48558ZM78.3698 7.4065C78.6707 7.49536 78.9893 7.52082 79.3015 7.4817L79.1771 6.48946C79.0004 6.51161 78.8206 6.49694 78.653 6.44744L78.3698 7.4065ZM77.5586 6.96135C77.7905 7.16663 78.0689 7.31759 78.3697 7.40648L78.6531 6.44746C78.4856 6.39798 78.3385 6.31614 78.2215 6.2126L77.5586 6.96135ZM77.0381 6.21353C77.1464 6.50096 77.3266 6.75607 77.5587 6.96143L78.2214 6.21251C78.1045 6.10905 78.0217 5.98779 77.974 5.86108L77.0381 6.21353ZM76.947 5.31397C76.8979 5.61729 76.9298 5.92582 77.0381 6.21352L77.974 5.86108C77.9263 5.73463 77.9133 5.6026 77.9342 5.47379L76.947 5.31397ZM76.9406 2.60587V5.39388H77.9406V2.60587H76.9406ZM77.0383 1.78547C76.9297 2.07351 76.8978 2.38239 76.947 2.68595L77.9341 2.5258C77.9132 2.39691 77.9263 2.26488 77.974 2.13848L77.0383 1.78547ZM77.5594 1.0374C77.327 1.24286 77.1466 1.49812 77.0383 1.78568L77.974 2.13826C78.0219 2.01137 78.1047 1.89005 78.2217 1.78662L77.5594 1.0374ZM78.3715 0.592511C78.0702 0.681245 77.7917 0.832155 77.5595 1.03732L78.2216 1.7867C78.339 1.68295 78.4864 1.60114 78.654 1.55177L78.3715 0.592511ZM79.3039 0.518124C78.9915 0.478627 78.6727 0.503805 78.3715 0.592511L78.654 1.55177C78.8217 1.50238 79.0016 1.48786 79.1785 1.51023L79.3039 0.518124ZM83.7484 0.514176H79.2412V1.51418H83.7484V0.514176ZM84.6182 0.59251C84.317 0.503806 83.9982 0.478627 83.6857 0.518123L83.8111 1.51023C83.988 1.48786 84.1679 1.50238 84.3356 1.55177L84.6182 0.59251ZM85.4302 1.03732C85.198 0.832155 84.9194 0.681245 84.6182 0.592511L84.3356 1.55177C84.5033 1.60114 84.6506 1.68295 84.768 1.7867L85.4302 1.03732ZM85.9514 1.78566C85.843 1.49812 85.6627 1.24287 85.4303 1.0374L84.7679 1.78661C84.8849 1.89004 84.9678 2.01137 85.0156 2.13828L85.9514 1.78566ZM86.0427 2.68573C86.0918 2.38231 86.06 2.07352 85.9513 1.78548L85.0157 2.13846C85.0634 2.26487 85.0764 2.39699 85.0556 2.52602L86.0427 2.68573ZM86.0492 5.39388V2.60587H85.0492V5.39388H86.0492ZM85.9513 6.21427C86.06 5.92624 86.0918 5.61744 86.0427 5.31403L85.0556 5.47373C85.0764 5.60276 85.0634 5.73488 85.0157 5.86129L85.9513 6.21427ZM85.4303 6.96235C85.6627 6.75688 85.843 6.50162 85.9514 6.2141L85.0156 5.86147C84.9678 5.98838 84.8849 6.10972 84.7679 6.21314L85.4303 6.96235ZM84.6182 7.40724C84.9194 7.3185 85.198 7.16759 85.4302 6.96245L84.768 6.21305C84.6506 6.3168 84.5033 6.39861 84.3356 6.44798L84.6182 7.40724ZM83.6857 7.48163C83.9982 7.52113 84.317 7.49595 84.6182 7.40723L84.3356 6.44798C84.1679 6.49738 83.988 6.51189 83.8111 6.48953L83.6857 7.48163ZM79.2393 7.48558H83.7484V6.48558H79.2393V7.48558ZM77.3953 5.31388C77.3548 5.56347 77.3812 5.81713 77.4702 6.05314L78.4059 5.70037C78.3777 5.62559 78.3703 5.54861 78.3824 5.47388L77.3953 5.31388ZM77.3964 2.60705L77.3888 5.39253L78.3888 5.39524L78.3964 2.60976L77.3964 2.60705ZM77.4778 1.94915C77.3889 2.18516 77.3625 2.43871 77.4028 2.68811L78.39 2.52871C78.3779 2.45378 78.3854 2.3767 78.4136 2.30191L77.4778 1.94915ZM77.9029 1.33848C77.7142 1.5053 77.5667 1.71343 77.4779 1.94912L78.4135 2.30194C78.4419 2.22683 78.4918 2.15256 78.5652 2.08772L77.9029 1.33848ZM78.5593 0.978602C78.3168 1.05006 78.0914 1.17183 77.9029 1.33848L78.5652 2.08772C78.6387 2.02272 78.7329 1.96996 78.842 1.9378L78.5593 0.978602ZM79.3095 0.918573C79.0583 0.886858 78.8018 0.907126 78.5593 0.978604L78.842 1.9378C78.951 1.90567 79.0686 1.8961 79.1842 1.9107L79.3095 0.918573ZM83.7484 0.914635H79.2469V1.91463H83.7484V0.914635ZM84.4351 0.978476C84.1929 0.907201 83.9369 0.886968 83.686 0.91855L83.8109 1.91072C83.9264 1.89617 84.0439 1.90573 84.1528 1.9378L84.4351 0.978476ZM85.0908 1.33744C84.9024 1.17122 84.6773 1.04977 84.4352 0.978498L84.1527 1.93777C84.2616 1.96984 84.3557 2.02247 84.4292 2.0873L85.0908 1.33744ZM85.5161 1.94659C85.4269 1.71133 85.2793 1.50374 85.0908 1.33743L84.4292 2.08731C84.5026 2.15205 84.5526 2.22617 84.581 2.30103L85.5161 1.94659ZM85.5929 2.68399C85.6322 2.43517 85.6055 2.18207 85.516 1.94633L84.5811 2.30129C84.6093 2.37568 84.617 2.45265 84.6051 2.52776L85.5929 2.68399ZM85.599 5.39388V2.60587H84.599V5.39388H85.599ZM85.5175 6.05316C85.6065 5.81714 85.6329 5.56357 85.5926 5.31416L84.6054 5.47361C84.6175 5.54852 84.61 5.62558 84.5818 5.70035L85.5175 6.05316ZM85.0925 6.66381C85.2812 6.49699 85.4287 6.28884 85.5175 6.05315L84.5818 5.70037C84.5535 5.77546 84.5035 5.84973 84.4302 5.91455L85.0925 6.66381ZM84.4361 7.02369C84.6785 6.95223 84.904 6.83045 85.0925 6.6638L84.4302 5.91456C84.3566 5.97957 84.2625 6.03233 84.1534 6.06449L84.4361 7.02369ZM83.6859 7.08372C83.9371 7.11541 84.1936 7.09517 84.4361 7.02369L84.1534 6.06449C84.0444 6.09661 83.9268 6.10619 83.811 6.09159L83.6859 7.08372ZM79.2393 7.08766H83.7484V6.08766H79.2393V7.08766ZM78.5516 7.02369C78.7942 7.09517 79.0507 7.11541 79.3019 7.08372L79.1767 6.09159C79.0609 6.10619 78.9434 6.09661 78.8344 6.06448L78.5516 7.02369ZM77.8952 6.66379C78.0838 6.83045 78.3092 6.95223 78.5516 7.02369L78.8344 6.06449C78.7253 6.03233 78.6311 5.97956 78.5576 5.91457L77.8952 6.66379ZM77.4702 6.05315C77.5591 6.28885 77.7065 6.497 77.8953 6.66381L78.5575 5.91455C78.4842 5.84972 78.4342 5.77545 78.4059 5.70037L77.4702 6.05315ZM95.4955 0.595044C95.1944 0.506344 94.8755 0.481157 94.5632 0.520661L94.6886 1.51276C94.8654 1.4904 95.0453 1.50491 95.213 1.55431L95.4955 0.595044ZM96.3075 1.03985C96.0753 0.834692 95.7968 0.683781 95.4956 0.595045L95.213 1.55431C95.3806 1.60367 95.528 1.68548 95.6454 1.78924L96.3075 1.03985ZM96.8291 1.78953C96.7211 1.50059 96.5398 1.24499 96.3074 1.03976L95.6455 1.78933C95.7629 1.89299 95.8454 2.01398 95.8923 2.13948L96.8291 1.78953ZM96.9204 2.68699C96.9685 2.38513 96.9376 2.0766 96.8284 1.78764L95.893 2.14137C95.9405 2.26686 95.9536 2.39925 95.9328 2.52983L96.9204 2.68699ZM96.8284 3.42918C96.9376 3.14022 96.9685 2.83169 96.9204 2.52983L95.9328 2.68699C95.9536 2.81757 95.9405 2.94996 95.893 3.07543L96.8284 3.42918ZM96.3074 4.17706C96.5399 3.97182 96.7211 3.71622 96.8291 3.42728L95.8923 3.07732C95.8454 3.20284 95.7629 3.32383 95.6455 3.42749L96.3074 4.17706ZM95.4956 4.62176C95.7968 4.53303 96.0753 4.38212 96.3075 4.17698L95.6454 3.42757C95.528 3.53133 95.3806 3.61314 95.213 3.6625L95.4956 4.62176ZM94.5632 4.69616C94.8755 4.73566 95.1944 4.71047 95.4956 4.62176L95.213 3.66251C95.0453 3.71191 94.8654 3.72641 94.6886 3.70406L94.5632 4.69616ZM88.7758 4.70011H94.6259V3.70011H88.7758V4.70011ZM89.2758 6.98811V4.20011H88.2758V6.98811H89.2758ZM88.3256 7.48811H88.7758V6.48811H88.3256V7.48811ZM87.8256 1.01924V6.98811H88.8256V1.01924H87.8256ZM94.6257 0.51671L88.3254 0.519245L88.3258 1.51924L94.6261 1.51671L94.6257 0.51671ZM96.4703 2.68698C96.5096 2.43967 96.4848 2.18605 96.3945 1.94814L95.4596 2.30291C95.4873 2.3758 95.4949 2.45282 95.4827 2.52984L96.4703 2.68698ZM95.9822 2.10841H95.9765V3.10841H95.9822V2.10841ZM96.4002 3.26961C96.4906 3.03135 96.5153 2.77743 96.476 2.52997L95.4884 2.68685C95.5007 2.76435 95.493 2.84177 95.4652 2.9149L96.4002 3.26961ZM95.9739 3.88038C96.1634 3.71338 96.3112 3.50497 96.4004 3.26911L95.465 2.9154C95.4365 2.99092 95.3862 3.06535 95.3127 3.13014L95.9739 3.88038ZM95.3156 4.23979C95.5587 4.16869 95.7848 4.04705 95.9739 3.88037L95.3127 3.13015C95.2388 3.19528 95.1443 3.24801 95.0349 3.28L95.3156 4.23979ZM94.5638 4.29806C94.8154 4.33056 95.0724 4.3109 95.3156 4.23982L95.035 3.27998C94.9255 3.31198 94.8077 3.32126 94.6919 3.3063L94.5638 4.29806ZM88.7758 4.30218H94.6278V3.30218H88.7758V4.30218ZM88.2758 1.41463V3.80218H89.2758V1.41463H88.2758ZM94.6259 0.914635H88.7758V1.91463H94.6259V0.914635ZM95.3135 0.978602C95.071 0.907127 94.8145 0.886857 94.5633 0.918573L94.6886 1.9107C94.8042 1.8961 94.9217 1.90567 95.0308 1.9378L95.3135 0.978602ZM95.9699 1.33849C95.7813 1.17182 95.5559 1.05006 95.3135 0.978604L95.0308 1.9378C95.1399 1.96996 95.234 2.02273 95.3076 2.08771L95.9699 1.33849ZM96.3949 1.94914C96.3061 1.71342 96.1586 1.50529 95.9699 1.33848L95.3076 2.08772C95.3809 2.15257 95.4309 2.22684 95.4592 2.30192L96.3949 1.94914Z" fill="black"/>
</svg>
