<svg width="36" height="36" viewBox="0 0 36 36" fill="none" xmlns="http://www.w3.org/2000/svg">
<circle cx="17.9668" cy="18.0615" r="17.9395" fill="#F0F0F0"/>
<g clip-path="url(#clip0_1478_8936)">
<path d="M28.4294 18.0613C28.4294 23.9283 23.7456 28.6818 17.9647 28.6818C16.8845 28.6818 15.8464 28.5147 14.8675 28.2064C15.2937 27.4998 15.9308 26.3435 16.1671 25.4228C16.2937 24.9261 16.8169 22.8962 16.8169 22.8962C17.1587 23.5557 18.1546 24.1167 19.2137 24.1167C22.37 24.1167 24.6444 21.1704 24.6444 17.5089C24.6444 14.0016 21.8214 11.3765 18.1925 11.3765C13.6775 11.3765 11.2766 14.4512 11.2766 17.8044C11.2766 19.3632 12.0952 21.3031 13.399 21.9198C13.5974 22.014 13.7029 21.9712 13.7493 21.7785C13.783 21.6329 13.9603 20.9091 14.0404 20.5751C14.0657 20.4681 14.0531 20.3738 13.9687 20.2711C13.5425 19.7358 13.1965 18.7594 13.1965 17.8472C13.1965 15.5047 14.9434 13.2393 17.9225 13.2393C20.4922 13.2393 22.294 15.0165 22.294 17.5603C22.294 20.4338 20.8636 22.4251 19.0027 22.4251C17.9773 22.4251 17.2052 21.5644 17.4541 20.5066C17.7495 19.2433 18.3191 17.8815 18.3191 16.9693C18.3191 16.1557 17.8887 15.4747 16.9942 15.4747C15.9435 15.4747 15.0996 16.5753 15.0996 18.0528C15.0996 18.9949 15.4118 19.6287 15.4118 19.6287C15.4118 19.6287 14.378 24.0739 14.1881 24.9047C13.9771 25.8211 14.0615 27.1144 14.1501 27.9537C10.2596 26.4078 7.5 22.5622 7.5 18.0613C7.5 12.1944 12.1838 7.44092 17.9647 7.44092C23.7456 7.44092 28.4294 12.1944 28.4294 18.0613Z" fill="black"/>
</g>
<defs>
<clipPath id="clip0_1478_8936">
<rect width="20.9294" height="21.926" fill="white" transform="translate(7.5 7.09863)"/>
</clipPath>
</defs>
</svg>
