<svg width="15" height="18" viewBox="0 0 15 18" fill="none" xmlns="http://www.w3.org/2000/svg">
<path d="M4.95884 6.32538L4.50068 8.99793C4.47421 9.15312 4.53791 9.30947 4.66518 9.4021C4.73703 9.45417 4.82226 9.48094 4.90793 9.48094C4.97381 9.48094 5.03985 9.46523 5.10021 9.43323L7.50005 8.17133L9.90005 9.43349C10.0392 9.5068 10.2078 9.49472 10.3354 9.40208C10.4626 9.30957 10.5263 9.15278 10.4998 8.9979L10.0414 6.32535L11.9833 4.43282C12.096 4.32315 12.1364 4.15865 12.088 4.00913C12.0393 3.85947 11.91 3.75038 11.7543 3.72784L9.07101 3.33774L7.87081 0.906312C7.80144 0.765083 7.65759 0.675781 7.50022 0.675781C7.34285 0.675781 7.19929 0.765083 7.12962 0.906167L5.92968 3.33759L3.24638 3.72769C3.09075 3.75024 2.96145 3.85932 2.91272 4.00898C2.86429 4.15865 2.90473 4.32286 3.01745 4.43267L4.95884 6.32538ZM6.26349 4.12466C6.39788 4.10517 6.51453 4.02052 6.5746 3.89878L7.5002 2.02296L8.42595 3.89848C8.48602 4.02022 8.60252 4.10516 8.73706 4.12436L10.8067 4.42529L9.30893 5.88467C9.21134 5.9798 9.16698 6.11637 9.18996 6.25061L9.54339 8.31201L7.69215 7.33852C7.57143 7.2754 7.42788 7.2754 7.3076 7.33852L5.45666 8.31201L5.81009 6.25061C5.83293 6.11637 5.78857 5.9798 5.69112 5.88467L4.1939 4.42543L6.26349 4.12466Z" fill="white"/>
<path d="M7.50006 10.5273C3.58118 10.5273 0.392822 13.3913 0.392822 16.9115C0.392822 17.1397 0.577682 17.3247 0.806046 17.3247H14.1936C14.4218 17.3247 14.6068 17.1396 14.6068 16.9115C14.6069 13.3911 11.4189 10.5273 7.49991 10.5273H7.50006ZM7.50006 11.3539C10.806 11.3539 13.5212 13.626 13.7613 16.4985L1.23878 16.4984C1.47877 13.6261 4.19394 11.3541 7.50006 11.3541V11.3539Z" fill="white"/>
</svg>
