<svg width="16" height="18" viewBox="0 0 16 18" fill="none" xmlns="http://www.w3.org/2000/svg">
<path d="M5.45835 6.32538L5.00019 8.99793C4.97372 9.15312 5.03742 9.30947 5.16469 9.4021C5.23654 9.45417 5.32177 9.48094 5.40744 9.48094C5.47332 9.48094 5.53936 9.46523 5.59972 9.43323L7.99956 8.17133L10.3996 9.43349C10.5388 9.5068 10.7073 9.49472 10.8349 9.40208C10.9621 9.30957 11.0258 9.15278 10.9994 8.9979L10.5409 6.32535L12.4828 4.43282C12.5955 4.32315 12.6359 4.15865 12.5875 4.00913C12.5388 3.85947 12.4095 3.75038 12.2538 3.72784L9.57053 3.33774L8.37033 0.906312C8.30095 0.765083 8.1571 0.675781 7.99973 0.675781C7.84236 0.675781 7.69881 0.765083 7.62914 0.906167L6.4292 3.33759L3.74589 3.72769C3.59026 3.75024 3.46096 3.85932 3.41224 4.00898C3.3638 4.15865 3.40424 4.32286 3.51696 4.43267L5.45835 6.32538ZM6.763 4.12466C6.89739 4.10517 7.01404 4.02052 7.07411 3.89878L7.99971 2.02296L8.92546 3.89848C8.98553 4.02022 9.10203 4.10516 9.23657 4.12436L11.3063 4.42529L9.80844 5.88467C9.71085 5.9798 9.66649 6.11637 9.68947 6.25061L10.0429 8.31201L8.19167 7.33852C8.07094 7.2754 7.92739 7.2754 7.80711 7.33852L5.95617 8.31201L6.3096 6.25061C6.33244 6.11637 6.28808 5.9798 6.19063 5.88467L4.69341 4.42543L6.763 4.12466Z" fill="#A7C737"/>
<path d="M7.99982 10.5273C4.08093 10.5273 0.892578 13.3913 0.892578 16.9115C0.892578 17.1397 1.07744 17.3247 1.3058 17.3247H14.6933C14.9215 17.3247 15.1065 17.1396 15.1065 16.9115C15.1067 13.3911 11.9187 10.5273 7.99967 10.5273H7.99982ZM7.99982 11.3539C11.3058 11.3539 14.0209 13.626 14.2611 16.4985L1.73854 16.4984C1.97852 13.6261 4.69369 11.3541 7.99982 11.3541V11.3539Z" fill="#A7C737"/>
</svg>
