<svg width="19" height="22" viewBox="0 0 19 22" fill="none" xmlns="http://www.w3.org/2000/svg">
<path d="M5.96127 7.56182L5.33626 11.139C5.30015 11.3467 5.38706 11.5559 5.56067 11.6799C5.65868 11.7496 5.77495 11.7854 5.89181 11.7854C5.98169 11.7854 6.07177 11.7644 6.15411 11.7216L9.42785 10.0326L12.7018 11.7219C12.8917 11.8201 13.1216 11.8039 13.2956 11.6799C13.4692 11.5561 13.5561 11.3462 13.52 11.1389L12.8947 7.56178L15.5436 5.02868C15.6974 4.8819 15.7525 4.66172 15.6865 4.46159C15.62 4.26127 15.4436 4.11526 15.2313 4.08509L11.5709 3.56295L9.93362 0.308559C9.83898 0.119528 9.64275 0 9.42808 0C9.2134 0 9.01757 0.119528 8.92253 0.308365L7.28564 3.56275L3.62521 4.08489C3.41291 4.11507 3.23653 4.26108 3.17006 4.4614C3.10399 4.66171 3.15915 4.8815 3.31292 5.02849L5.96127 7.56182ZM7.74099 4.61622C7.92432 4.59013 8.08345 4.47683 8.16539 4.31389L9.42805 1.80317L10.6909 4.31349C10.7728 4.47643 10.9318 4.59013 11.1153 4.61582L13.9387 5.0186L11.8954 6.97195C11.7623 7.09927 11.7018 7.28207 11.7331 7.46175L12.2153 10.2209L9.6899 8.91788C9.52522 8.8334 9.32939 8.8334 9.16532 8.91788L6.64036 10.2209L7.12249 7.46175C7.15365 7.28207 7.09313 7.09927 6.9602 6.97195L4.91777 5.0188L7.74099 4.61622Z" fill="#A08BC8"/>
<path d="M9.42886 13.3574C4.22985 13.3574 0 16.9989 0 21.4748C0 21.765 0.245246 22.0002 0.548206 22.0002H18.3088C18.6116 22.0002 18.857 21.7648 18.857 21.4748C18.8572 16.9987 14.6278 13.3574 9.42866 13.3574H9.42886ZM9.42886 14.4084C13.8148 14.4084 17.4168 17.2974 17.7354 20.9497L1.1223 20.9496C1.44067 17.2975 5.04277 14.4087 9.42886 14.4087V14.4084Z" fill="#A08BC8"/>
</svg>
