<svg width="100" height="25" viewBox="0 0 100 25" fill="none" xmlns="http://www.w3.org/2000/svg">
<path fill-rule="evenodd" clip-rule="evenodd" d="M8.69416 5.68311H15.5041C19.1604 5.68311 20.5368 7.53412 20.3241 10.2535C19.9725 14.743 17.2584 17.2269 13.6583 17.2269H11.8407C11.3468 17.2269 11.0145 17.5538 10.8809 18.4398L10.1092 23.5903C10.0583 23.9243 9.88247 24.1176 9.61879 24.144H5.34019C4.93765 24.144 4.79526 23.8364 4.90073 23.1702L7.50938 6.65871C7.61133 5.99776 7.97345 5.68311 8.69416 5.68311Z" fill="#009EE3"/>
<path fill-rule="evenodd" clip-rule="evenodd" d="M38.2615 5.37744C40.559 5.37744 42.6789 6.62376 42.3889 9.72987C42.0373 13.4213 40.0597 15.464 36.9396 15.4728H34.2131C33.8211 15.4728 33.6313 15.7927 33.5293 16.4484L33.002 19.8006C32.9229 20.3068 32.6627 20.5564 32.2795 20.5564H29.7429C29.3386 20.5564 29.198 20.298 29.2877 19.7197L31.3812 6.28449C31.485 5.62354 31.7328 5.37744 32.1846 5.37744H38.2562H38.2615ZM34.1305 12.5705H36.196C37.488 12.5213 38.3458 11.6266 38.432 10.0129C38.4847 9.01618 37.8115 8.3025 36.7409 8.30777L34.7967 8.31656L34.1305 12.5705ZM49.2849 19.5281C49.517 19.3172 49.7525 19.2082 49.7191 19.4683L49.6365 20.0906C49.5943 20.4158 49.7226 20.5881 50.025 20.5881H52.2785C52.6582 20.5881 52.8428 20.4352 52.936 19.848L54.3247 11.1326C54.395 10.6949 54.2877 10.4805 53.9555 10.4805H51.477C51.2537 10.4805 51.1447 10.6053 51.0867 10.9463L50.9953 11.4824C50.9478 11.7619 50.8195 11.8112 50.7 11.5299C50.2799 10.535 49.2076 10.0885 47.7116 10.1236C44.2364 10.1957 41.8932 12.8342 41.6418 16.2163C41.4484 18.832 43.3223 20.8869 45.7938 20.8869C47.5868 20.8869 48.3884 20.3596 49.292 19.5334L49.2849 19.5281ZM47.397 18.1869C45.9011 18.1869 44.8587 16.9933 45.0749 15.5308C45.2911 14.0682 46.6903 12.8747 48.1863 12.8747C49.6822 12.8747 50.7246 14.0682 50.5084 15.5308C50.2922 16.9933 48.8947 18.1869 47.397 18.1869ZM58.7351 10.4523H56.4499C55.9788 10.4523 55.7872 10.8039 55.9366 11.2363L58.7738 19.5439L55.9911 23.4973C55.7573 23.8278 55.9384 24.1284 56.2671 24.1284H58.8353C58.985 24.1457 59.1365 24.1196 59.2717 24.0532C59.407 23.9868 59.5203 23.883 59.5982 23.754L68.3241 11.2381C68.5931 10.8531 68.4665 10.4488 68.0253 10.4488H65.5942C65.1776 10.4488 65.0106 10.6141 64.7715 10.9604L61.1328 16.2339L59.5068 10.9481C59.4119 10.6281 59.1746 10.4523 58.7369 10.4523H58.7351Z" fill="#113984"/>
<path fill-rule="evenodd" clip-rule="evenodd" d="M77.4003 5.37705C79.6978 5.37705 81.8178 6.62337 81.5278 9.72948C81.1762 13.421 79.1986 15.4636 76.0784 15.4724H73.3538C72.9618 15.4724 72.7719 15.7923 72.67 16.448L72.1426 19.8002C72.0635 20.3064 71.8033 20.5561 71.4201 20.5561H68.8836C68.4793 20.5561 68.3386 20.2977 68.4283 19.7193L70.5254 6.28058C70.6291 5.61963 70.877 5.37354 71.3287 5.37354H77.4003V5.37705ZM73.2694 12.5702H75.3349C76.6269 12.5209 77.4847 11.6262 77.5708 10.0125C77.6236 9.0158 76.9503 8.30211 75.8798 8.30738L73.9356 8.31617L73.2694 12.5702ZM88.4238 19.5277C88.6558 19.3168 88.8914 19.2078 88.858 19.468L88.7754 20.0902C88.7332 20.4154 88.8615 20.5877 89.1638 20.5877H91.4174C91.7971 20.5877 91.9817 20.4348 92.0748 19.8476L93.4635 11.1322C93.5338 10.6945 93.4266 10.4801 93.0944 10.4801H90.6193C90.3961 10.4801 90.2871 10.6049 90.2291 10.9459L90.1377 11.4821C90.0902 11.7615 89.9619 11.8108 89.8424 11.5295C89.4222 10.5346 88.35 10.0881 86.854 10.1232C83.3788 10.1953 81.0356 12.8338 80.7842 16.2159C80.5908 18.8316 82.4647 20.8865 84.9362 20.8865C86.7292 20.8865 87.5308 20.3592 88.4343 19.533L88.4238 19.5277ZM86.5376 18.1865C85.0417 18.1865 83.9993 16.9929 84.2155 15.5304C84.4317 14.0678 85.831 12.8743 87.3269 12.8743C88.8228 12.8743 89.8652 14.0678 89.649 15.5304C89.4328 16.9929 88.0335 18.1865 86.5376 18.1865ZM96.9317 20.6018H94.3301C94.2849 20.6038 94.2398 20.5958 94.1979 20.5783C94.1561 20.5609 94.1187 20.5344 94.0883 20.5009C94.0579 20.4673 94.0353 20.4274 94.0221 20.3841C94.0089 20.3407 94.0055 20.295 94.012 20.2502L96.2972 5.77257C96.319 5.67376 96.3736 5.58525 96.4521 5.52141C96.5306 5.45758 96.6284 5.42219 96.7296 5.421H99.3312C99.3765 5.41898 99.4216 5.42697 99.4634 5.44441C99.5052 5.46185 99.5427 5.48831 99.573 5.5219C99.6034 5.55548 99.626 5.59537 99.6392 5.6387C99.6524 5.68203 99.6559 5.72774 99.6494 5.77257L97.3642 20.2502C97.3431 20.3496 97.2888 20.439 97.2102 20.5035C97.1316 20.568 97.0334 20.6039 96.9317 20.6053V20.6018Z" fill="#009EE3"/>
<path fill-rule="evenodd" clip-rule="evenodd" d="M4.43651 0H11.2534C13.173 0 15.4512 0.0615246 16.9735 1.40628C17.9913 2.30454 18.5256 3.73367 18.4026 5.27354C17.9842 10.4785 14.8711 13.3948 10.6944 13.3948H7.33344C6.76038 13.3948 6.38244 13.7745 6.22072 14.8011L5.28203 20.7777C5.22051 21.1645 5.05351 21.393 4.75468 21.4211H0.548153C0.0823234 21.4211 -0.0829157 21.0695 0.0383757 20.2926L3.06187 1.13557C3.18316 0.365631 3.6068 0 4.43651 0Z" fill="#113984"/>
<path fill-rule="evenodd" clip-rule="evenodd" d="M6.32031 14.1944L7.51038 6.65852C7.61409 5.99757 7.9762 5.68115 8.69692 5.68115H15.5068C16.6336 5.68115 17.5459 5.85694 18.2596 6.18214C17.5758 10.8158 14.5787 13.3893 10.6552 13.3893H7.29943C6.84943 13.3911 6.51895 13.6161 6.32031 14.1944Z" fill="#172C70"/>
</svg>
