<svg width="21" height="22" viewBox="0 0 21 22" fill="none" xmlns="http://www.w3.org/2000/svg">
<path d="M21 11C21 16.8867 16.3004 21.6562 10.5 21.6562C9.41613 21.6562 8.3746 21.4887 7.39234 21.1793C7.81996 20.4703 8.45927 19.3102 8.69637 18.3863C8.82339 17.8879 9.34839 15.8512 9.34839 15.8512C9.69133 16.5129 10.6905 17.0758 11.7532 17.0758C14.9202 17.0758 17.2022 14.1195 17.2022 10.4457C17.2022 6.92656 14.3698 4.29258 10.7286 4.29258C6.19839 4.29258 3.78931 7.37773 3.78931 10.7422C3.78931 12.3063 4.61069 14.2527 5.91895 14.8715C6.11794 14.966 6.22379 14.923 6.27036 14.7297C6.30423 14.5836 6.48206 13.8574 6.5625 13.5223C6.5879 13.4148 6.5752 13.3203 6.49052 13.2172C6.0629 12.6801 5.71573 11.7004 5.71573 10.7852C5.71573 8.43477 7.46855 6.16172 10.4577 6.16172C13.0361 6.16172 14.844 7.94492 14.844 10.4973C14.844 13.3805 13.4087 15.3785 11.5415 15.3785C10.5127 15.3785 9.7379 14.5148 9.9877 13.4535C10.2841 12.1859 10.8556 10.8195 10.8556 9.9043C10.8556 9.08789 10.4238 8.40469 9.52621 8.40469C8.47198 8.40469 7.6252 9.50898 7.6252 10.9914C7.6252 11.9367 7.93851 12.5727 7.93851 12.5727C7.93851 12.5727 6.90121 17.0328 6.71069 17.8664C6.49899 18.7859 6.58367 20.0836 6.67258 20.9258C2.76895 19.3746 0 15.516 0 11C0 5.11328 4.6996 0.34375 10.5 0.34375C16.3004 0.34375 21 5.11328 21 11Z" fill="black"/>
</svg>
