<svg width="36" height="36" viewBox="0 0 36 36" fill="none" xmlns="http://www.w3.org/2000/svg">
<circle cx="18" cy="18" r="18" fill="#F0F0F0"/>
<path d="M29 18C29 23.8867 24.3004 28.6562 18.5 28.6562C17.4161 28.6562 16.3746 28.4887 15.3923 28.1793C15.82 27.4703 16.4593 26.3102 16.6964 25.3863C16.8234 24.8879 17.3484 22.8512 17.3484 22.8512C17.6913 23.5129 18.6905 24.0758 19.7532 24.0758C22.9202 24.0758 25.2022 21.1195 25.2022 17.4457C25.2022 13.9266 22.3698 11.2926 18.7286 11.2926C14.1984 11.2926 11.7893 14.3777 11.7893 17.7422C11.7893 19.3062 12.6107 21.2527 13.919 21.8715C14.1179 21.966 14.2238 21.923 14.2704 21.7297C14.3042 21.5836 14.4821 20.8574 14.5625 20.5223C14.5879 20.4148 14.5752 20.3203 14.4905 20.2172C14.0629 19.6801 13.7157 18.7004 13.7157 17.7852C13.7157 15.4348 15.4685 13.1617 18.4577 13.1617C21.0361 13.1617 22.844 14.9449 22.844 17.4973C22.844 20.3805 21.4087 22.3785 19.5415 22.3785C18.5127 22.3785 17.7379 21.5148 17.9877 20.4535C18.2841 19.1859 18.8556 17.8195 18.8556 16.9043C18.8556 16.0879 18.4238 15.4047 17.5262 15.4047C16.472 15.4047 15.6252 16.509 15.6252 17.9914C15.6252 18.9367 15.9385 19.5727 15.9385 19.5727C15.9385 19.5727 14.9012 24.0328 14.7107 24.8664C14.499 25.7859 14.5837 27.0836 14.6726 27.9258C10.769 26.3746 8 22.516 8 18C8 12.1133 12.6996 7.34375 18.5 7.34375C24.3004 7.34375 29 12.1133 29 18Z" fill="black"/>
</svg>
