<svg width="36" height="36" fill="none" xmlns="http://www.w3.org/2000/svg">
	<circle cx="17.967" cy="18.061" r="17.939" fill="#F0F0F0" fill-opacity="0.5"></circle>
	<g clip-path="url(#p-icon-black_svg__clip0_1478_8936)">
		<path d="M28.43 18.061c0 5.867-4.684 10.62-10.465 10.62-1.08 0-2.119-.166-3.098-.475.427-.706 1.064-1.863 1.3-2.783l.65-2.527c.342.66 1.338 1.22 2.397 1.22 3.156 0 5.43-2.946 5.43-6.607 0-3.507-2.823-6.133-6.451-6.133-4.516 0-6.916 3.075-6.916 6.428 0 1.56.818 3.5 2.122 4.116.198.094.304.051.35-.142.034-.145.211-.869.291-1.203a.321.321 0 00-.071-.304c-.426-.535-.772-1.512-.772-2.424 0-2.342 1.746-4.608 4.726-4.608 2.57 0 4.371 1.777 4.371 4.321 0 2.874-1.43 4.865-3.291 4.865-1.026 0-1.798-.86-1.549-1.918.296-1.264.865-2.626.865-3.538 0-.813-.43-1.494-1.325-1.494-1.05 0-1.894 1.1-1.894 2.578 0 .942.312 1.576.312 1.576s-1.034 4.445-1.224 5.276c-.21.916-.127 2.21-.038 3.049-3.89-1.546-6.65-5.392-6.65-9.893 0-5.867 4.684-10.62 10.465-10.62 5.78 0 10.464 4.753 10.464 10.62z" fill="#000" opacity="0.2">
			
		</path></g>
		<defs>
			<clipPath id="p-icon-black_svg__clip0_1478_8936">
				<path fill="#fff" transform="translate(7.5 7.099)" d="M0 0h20.929v21.926H0z"></path>
			</clipPath>
		</defs>
		</svg>