<svg width="17" height="17" viewBox="0 0 17 17" fill="none" xmlns="http://www.w3.org/2000/svg">
<g clip-path="url(#clip0_2288_5804)">
<path d="M6.72535 7.83819H1.72962C1.1783 7.83819 0.730469 7.39033 0.730469 6.83904V1.84331C0.747652 1.30919 1.1955 0.861328 1.74681 0.861328H6.74255C7.29386 0.861328 7.74169 1.30919 7.74169 1.86047V6.85621C7.72451 7.3902 7.27654 7.83819 6.72535 7.83819ZM1.91911 6.684H6.57031V2.0328H1.91911V6.684Z" fill="black"/>
<path d="M3.07422 3.18701H5.39988V5.51267H3.07422V3.18701Z" fill="black"/>
<path d="M6.72381 16.3656H1.72808C1.19396 16.3656 0.746094 15.9177 0.746094 15.3665V10.3707C0.746094 9.81941 1.19396 9.37158 1.74524 9.37158H6.74097C7.29229 9.37158 7.74012 9.81944 7.74012 10.3707V15.3665C7.72294 15.9178 7.27497 16.3656 6.72378 16.3656H6.72381ZM1.91757 15.1943H6.56877V10.5431H1.91757V15.1943Z" fill="black"/>
<path d="M3.07422 11.7144H5.39988V14.04H3.07422V11.7144Z" fill="black"/>
<path d="M11.6016 11.7144H13.9272V14.04H11.6016V11.7144Z" fill="black"/>
<path d="M9.27344 9.38867H11.5991V11.7143H9.27344V9.38867Z" fill="black"/>
<path d="M13.9258 9.38867H16.2514V11.7143H13.9258V9.38867Z" fill="black"/>
<path d="M13.9258 14.04H16.2514V16.3657H13.9258V14.04Z" fill="black"/>
<path d="M9.27344 14.04H11.5991V16.3657H9.27344V14.04Z" fill="black"/>
<path d="M15.2527 7.83827H10.257C9.70564 7.83827 9.25781 7.3904 9.25781 6.83912V1.84338C9.25781 1.29207 9.70567 0.844238 10.257 0.844238H15.2527C15.804 0.844238 16.2518 1.2921 16.2518 1.84338V6.83912C16.2518 7.39031 15.804 7.83827 15.2527 7.83827ZM10.4292 6.68408H15.0804V2.03288H10.4292V6.68408Z" fill="black"/>
<path d="M11.6016 3.18701H13.9272V5.51267H11.6016V3.18701Z" fill="black"/>
</g>
<defs>
<clipPath id="clip0_2288_5804">
<rect width="17" height="17" fill="white"/>
</clipPath>
</defs>
</svg>
