<svg width="147" height="13" viewBox="0 0 147 13" fill="none" xmlns="http://www.w3.org/2000/svg">
<path d="M10.6525 1.03064C11.0258 0.97393 11.4065 1.01031 11.7643 1.1369C12.1221 1.2635 12.4472 1.47682 12.7139 1.75999C12.9805 2.04315 13.1815 2.38835 13.3007 2.76826C13.4199 3.14817 13.4542 3.55234 13.4008 3.94875H12.7093C12.7491 3.65189 12.7234 3.34928 12.6342 3.0648C12.545 2.78031 12.3947 2.52172 12.1952 2.30948C11.9958 2.09723 11.7526 1.93712 11.4848 1.84179C11.2171 1.74646 10.9321 1.71851 10.6525 1.76016H3.77579C3.4958 1.71771 3.21034 1.74506 2.94202 1.84004C2.6737 1.93502 2.4299 2.095 2.2299 2.30736C2.02992 2.51971 1.87922 2.77858 1.78977 3.06346C1.70032 3.34837 1.67456 3.65145 1.71454 3.94875V9.06009C1.67456 9.35739 1.70032 9.66048 1.78977 9.94536C1.87922 10.2303 2.02992 10.4891 2.2299 10.7015C2.4299 10.9138 2.6737 11.0738 2.94202 11.1688C3.21034 11.2638 3.4958 11.2911 3.77579 11.2487H10.6525C10.9325 11.2911 11.2179 11.2638 11.4862 11.1688C11.7545 11.0738 11.9984 10.9138 12.1983 10.7015C12.3983 10.4891 12.549 10.2303 12.6385 9.94536C12.7279 9.66048 12.7537 9.35739 12.7137 9.06009V6.87151H6.52413V6.14198H13.395V9.06009C13.4474 9.45556 13.4126 9.85855 13.2934 10.2373C13.1741 10.6161 12.9736 10.9603 12.7077 11.2427C12.4418 11.5252 12.1178 11.7382 11.7611 11.8651C11.4045 11.9919 11.0249 12.029 10.6525 11.9736H3.77579C3.40223 12.0308 3.02123 11.9948 2.66305 11.8685C2.30487 11.7421 1.97934 11.5288 1.71231 11.2456C1.44528 10.9624 1.24409 10.617 1.1247 10.2368C1.00532 9.85664 0.971021 9.45215 1.02454 9.05545V3.9441C0.971137 3.54769 1.0054 3.14353 1.12463 2.76361C1.24387 2.3837 1.44477 2.0385 1.71147 1.75535C1.97814 1.47218 2.30326 1.25885 2.66107 1.13226C3.01888 1.00567 3.39953 0.969283 3.77288 1.02599L10.6525 1.03064ZM27.2664 1.03064C27.6398 0.97393 28.0204 1.01031 28.3783 1.1369C28.7361 1.2635 29.0611 1.47682 29.3279 1.75999C29.5946 2.04315 29.7955 2.38835 29.9146 2.76826C30.034 3.14817 30.0682 3.55234 30.0147 3.94875C30.0723 4.44635 29.9947 4.95105 29.7914 5.4035C29.588 5.85595 29.2672 6.23735 28.8667 6.50287C29.2672 6.76838 29.588 7.14978 29.7914 7.60225C29.9947 8.05469 30.0723 8.55938 30.0147 9.057V11.9751H29.3247V9.057C29.3648 8.7597 29.339 8.45662 29.2496 8.17171C29.1602 7.88683 29.0095 7.62796 28.8095 7.4156C28.6095 7.20325 28.3656 7.04327 28.0973 6.94829C27.829 6.85331 27.5435 6.82596 27.2635 6.86841H18.3285V11.9798H17.6414V1.03683L27.2664 1.03064ZM29.3247 3.94875C29.3648 3.65145 29.339 3.34837 29.2496 3.06346C29.1602 2.77858 29.0095 2.51971 28.8095 2.30736C28.6095 2.095 28.3656 1.93502 28.0973 1.84004C27.829 1.74506 27.5435 1.71771 27.2635 1.76016H18.3285V6.13733H27.2605C27.5408 6.18032 27.8267 6.15337 28.0953 6.05864C28.364 5.96389 28.6082 5.80397 28.8086 5.59155C29.0089 5.37914 29.1599 5.12007 29.2494 4.8349C29.3392 4.54975 29.3648 4.24634 29.3247 3.94875ZM37.0052 11.9736C36.6319 12.0303 36.2513 11.9939 35.8934 11.8673C35.5356 11.7407 35.2106 11.5274 34.9438 11.2442C34.6771 10.9611 34.4762 10.6158 34.357 10.2359C34.2377 9.85602 34.2034 9.45186 34.2568 9.05545V3.9441C34.2034 3.54769 34.2377 3.14353 34.357 2.76361C34.4762 2.3837 34.6771 2.0385 34.9438 1.75535C35.2106 1.47218 35.5356 1.25885 35.8934 1.13226C36.2513 1.00567 36.6319 0.969283 37.0052 1.02599H43.876C44.2494 0.969283 44.63 1.00567 44.9879 1.13226C45.3457 1.25885 45.6707 1.47218 45.9375 1.75535C46.2042 2.0385 46.4051 2.3837 46.5243 2.76361C46.6436 3.14353 46.6779 3.54769 46.6243 3.9441V9.05545C46.6779 9.45186 46.6436 9.85602 46.5243 10.2359C46.4051 10.6158 46.2042 10.9611 45.9375 11.2442C45.6707 11.5274 45.3457 11.7407 44.9879 11.8673C44.63 11.9939 44.2494 12.0303 43.876 11.9736H37.0052ZM34.941 9.05545C34.901 9.35274 34.9268 9.65583 35.0163 9.94072C35.1057 10.2256 35.2564 10.4845 35.4564 10.6968C35.6564 10.9092 35.9003 11.0692 36.1686 11.1642C36.4368 11.2591 36.7223 11.2865 37.0022 11.244H43.8731C44.1532 11.2865 44.4386 11.2591 44.7069 11.1642C44.9752 11.0692 45.2191 10.9092 45.4191 10.6968C45.6191 10.4845 45.7698 10.2256 45.8592 9.94072C45.9486 9.65583 45.9744 9.35274 45.9343 9.05545V3.9441C45.9744 3.64681 45.9486 3.34372 45.8592 3.05882C45.7698 2.77393 45.6191 2.51506 45.4191 2.30271C45.2191 2.09036 44.9752 1.93037 44.7069 1.83539C44.4386 1.74042 44.1532 1.71306 43.8731 1.75552H37.0022C36.7223 1.71306 36.4368 1.74042 36.1686 1.83539C35.9003 1.93037 35.6564 2.09036 35.4564 2.30271C35.2564 2.51506 35.1057 2.77393 35.0163 3.05882C34.9268 3.34372 34.901 3.64681 34.941 3.9441V9.05545ZM62.5483 9.05545V1.03064H63.2355V9.05545C63.2889 9.45186 63.2547 9.85602 63.1353 10.2359C63.0161 10.6158 62.8153 10.9611 62.5486 11.2442C62.2818 11.5274 61.9568 11.7407 61.5989 11.8673C61.2411 11.9939 60.8605 12.0303 60.4872 11.9736H53.6162C53.2429 12.0303 52.8623 11.9939 52.5045 11.8673C52.1467 11.7407 51.8216 11.5274 51.5548 11.2442C51.2882 10.9611 51.0873 10.6158 50.9681 10.2359C50.8488 9.85602 50.8145 9.45186 50.8679 9.05545V1.03064H51.5551V9.05545C51.515 9.35274 51.5408 9.65583 51.6303 9.94072C51.7197 10.2256 51.8704 10.4845 52.0704 10.6968C52.2704 10.9092 52.5143 11.0692 52.7825 11.1642C53.0508 11.2591 53.3363 11.2865 53.6162 11.244H60.4872C60.7672 11.2865 61.0526 11.2591 61.3209 11.1642C61.5892 11.0692 61.8331 10.9092 62.0331 10.6968C62.2331 10.4845 62.3838 10.2256 62.4732 9.94072C62.5626 9.65583 62.5884 9.35274 62.5483 9.05545ZM77.0997 1.03064C77.473 0.97393 77.8536 1.01031 78.2115 1.1369C78.5693 1.2635 78.8943 1.47682 79.1611 1.75999C79.4278 2.04315 79.6287 2.38835 79.7479 2.76826C79.8672 3.14817 79.9015 3.55234 79.8481 3.94875C79.9015 4.34516 79.8672 4.74933 79.7479 5.12922C79.6287 5.50913 79.4278 5.85435 79.1611 6.1375C78.8943 6.42066 78.5693 6.63399 78.2115 6.76058C77.8536 6.88718 77.473 6.92357 77.0997 6.86686H68.1677V11.9782H67.4804V1.03528L77.0997 1.03064ZM79.1609 3.94875C79.201 3.65145 79.1751 3.34837 79.0857 3.06346C78.9963 2.77858 78.8456 2.51971 78.6456 2.30736C78.4456 2.095 78.2017 1.93502 77.9334 1.84004C77.6652 1.74506 77.3797 1.71771 77.0997 1.76016H68.1677V6.13733H77.0997C77.3798 6.18004 77.6655 6.1529 77.9339 6.05805C78.2024 5.96318 78.4465 5.80322 78.6466 5.59084C78.8468 5.37845 78.9976 5.11949 79.0872 4.83447C79.1766 4.54944 79.2024 4.24618 79.1623 3.94875H79.1609ZM86.5189 11.9736C86.1456 12.0303 85.765 11.9939 85.4072 11.8673C85.0493 11.7407 84.7243 11.5274 84.4575 11.2442C84.1909 10.9611 83.99 10.6158 83.8708 10.2359C83.7515 9.85602 83.7172 9.45186 83.7706 9.05545H84.4578C84.4177 9.35274 84.4435 9.65583 84.5329 9.94072C84.6224 10.2256 84.773 10.4845 84.973 10.6968C85.173 10.9092 85.4169 11.0692 85.6852 11.1642C85.9535 11.2591 86.239 11.2865 86.5189 11.244H93.3899C93.6698 11.2865 93.9553 11.2591 94.2236 11.1642C94.4919 11.0692 94.7357 10.9092 94.9357 10.6968C95.1357 10.4845 95.2864 10.2256 95.3759 9.94072C95.4653 9.65583 95.4911 9.35274 95.4511 9.05545C95.4911 8.75815 95.4653 8.45507 95.3759 8.17016C95.2864 7.88528 95.1357 7.62641 94.9357 7.41406C94.7357 7.20172 94.4919 7.04172 94.2236 6.94674C93.9553 6.85176 93.6698 6.82441 93.3899 6.86686H86.5189C86.1456 6.92357 85.765 6.88718 85.4072 6.76058C85.0493 6.63399 84.7243 6.42066 84.4575 6.1375C84.1909 5.85435 83.99 5.50913 83.8708 5.12922C83.7515 4.74933 83.7172 4.34516 83.7706 3.94875C83.7172 3.55234 83.7515 3.14817 83.8708 2.76826C83.99 2.38835 84.1909 2.04315 84.4575 1.75999C84.7243 1.47682 85.0493 1.2635 85.4072 1.1369C85.765 1.01031 86.1456 0.97393 86.5189 1.03064H93.3899C93.763 0.974193 94.1435 1.01078 94.5012 1.13749C94.8587 1.26421 95.1837 1.47757 95.4503 1.76069C95.7166 2.04381 95.9175 2.38894 96.0367 2.76871C96.1557 3.14847 96.19 3.55248 96.1366 3.94875H95.4495C95.4896 3.65145 95.4638 3.34837 95.3744 3.06346C95.285 2.77858 95.1343 2.51971 94.9343 2.30736C94.7343 2.095 94.4904 1.93502 94.2221 1.84004C93.9538 1.74506 93.6684 1.71771 93.3884 1.76016H86.5174C86.2375 1.71771 85.952 1.74506 85.6838 1.84004C85.4155 1.93502 85.1716 2.095 84.9716 2.30736C84.7716 2.51971 84.6209 2.77858 84.5315 3.06346C84.442 3.34837 84.4162 3.65145 84.4563 3.94875C84.4162 4.24604 84.442 4.54913 84.5315 4.83402C84.6209 5.11891 84.7716 5.37779 84.9716 5.59013C85.1716 5.80248 85.4155 5.96248 85.6838 6.05746C85.952 6.15244 86.2375 6.17977 86.5174 6.13733H93.3884C93.7617 6.08063 94.1423 6.11701 94.5002 6.2436C94.858 6.37021 95.183 6.58352 95.4498 6.86669C95.7165 7.14985 95.9174 7.49505 96.0365 7.87496C96.1559 8.25487 96.1902 8.65904 96.1366 9.05545C96.1902 9.45186 96.1559 9.85602 96.0365 10.2359C95.9174 10.6158 95.7165 10.9611 95.4498 11.2442C95.183 11.5274 94.858 11.7407 94.5002 11.8673C94.1423 11.9939 93.7617 12.0303 93.3884 11.9736H86.5189ZM101.07 6.86222V11.9736H100.383V1.03064H101.07V6.14198H112.067V1.03064H112.754V11.9736H112.067V6.86222H101.07ZM119.743 11.9736C119.37 12.0297 118.989 11.9929 118.632 11.8661C118.274 11.7393 117.95 11.5259 117.683 11.2428C117.417 10.9597 117.216 10.6147 117.097 10.2351C116.978 9.85541 116.944 9.45156 116.997 9.05545V3.9441C116.944 3.54769 116.978 3.14353 117.097 2.76361C117.216 2.3837 117.417 2.0385 117.684 1.75535C117.951 1.47218 118.276 1.25885 118.634 1.13226C118.992 1.00567 119.372 0.969283 119.746 1.02599H126.625C126.998 0.969283 127.379 1.00567 127.737 1.13226C128.095 1.25885 128.42 1.47218 128.687 1.75535C128.953 2.0385 129.154 2.3837 129.273 2.76361C129.393 3.14353 129.427 3.54769 129.373 3.9441V9.05545C129.427 9.45186 129.393 9.85602 129.273 10.2359C129.154 10.6158 128.953 10.9611 128.687 11.2442C128.42 11.5274 128.095 11.7407 127.737 11.8673C127.379 11.9939 126.998 12.0303 126.625 11.9736H119.743ZM117.681 9.05545C117.641 9.35274 117.667 9.65583 117.757 9.94072C117.846 10.2256 117.997 10.4845 118.197 10.6968C118.397 10.9092 118.641 11.0692 118.909 11.1642C119.177 11.2591 119.463 11.2865 119.743 11.244H126.625C126.905 11.2865 127.191 11.2591 127.459 11.1642C127.727 11.0692 127.971 10.9092 128.171 10.6968C128.371 10.4845 128.522 10.2256 128.611 9.94072C128.701 9.65583 128.726 9.35274 128.686 9.05545V3.9441C128.726 3.64716 128.699 3.3446 128.609 3.06032C128.52 2.77604 128.369 2.5178 128.169 2.30601C127.969 2.09421 127.726 1.93465 127.458 1.83992C127.19 1.74519 126.905 1.71788 126.625 1.76016H119.754C119.474 1.71771 119.189 1.74506 118.921 1.84004C118.652 1.93502 118.408 2.095 118.208 2.30736C118.008 2.51971 117.858 2.77858 117.768 3.06346C117.679 3.34837 117.653 3.65145 117.693 3.94875L117.681 9.05545ZM143.227 1.03064C143.601 0.97393 143.981 1.01031 144.339 1.1369C144.697 1.2635 145.022 1.47682 145.289 1.75999C145.556 2.04315 145.757 2.38835 145.875 2.76826C145.995 3.14817 146.028 3.55234 145.976 3.94875C146.028 4.34516 145.995 4.74933 145.875 5.12922C145.757 5.50913 145.556 5.85435 145.289 6.1375C145.022 6.42066 144.697 6.63399 144.339 6.76058C143.981 6.88718 143.601 6.92357 143.227 6.86686H134.298V11.9782H133.611V1.03528L143.227 1.03064ZM145.289 3.94875C145.328 3.65145 145.303 3.34837 145.213 3.06346C145.124 2.77858 144.973 2.51971 144.773 2.30736C144.573 2.095 144.329 1.93502 144.061 1.84004C143.793 1.74506 143.507 1.71771 143.227 1.76016H134.298V6.13733H143.23C143.511 6.18084 143.797 6.15431 144.066 6.05981C144.335 5.96531 144.58 5.80547 144.78 5.59298C144.981 5.3805 145.132 5.12123 145.222 4.8358C145.312 4.55035 145.337 4.24663 145.298 3.94875H145.289Z" fill="black" stroke="black" stroke-linecap="square"/>
</svg>
