<svg width="28" height="28" viewBox="0 0 28 28" fill="none" xmlns="http://www.w3.org/2000/svg">
<path d="M14.0004 27.4332C13.7725 27.4332 13.5879 27.2486 13.5879 27.0207C13.5879 26.7928 13.7725 26.6082 14.0004 26.6082C20.8242 26.6082 26.3757 21.0569 26.3757 14.2329C26.3757 11.1171 25.2141 8.14014 23.1044 5.85025C22.95 5.6828 22.9608 5.4218 23.1282 5.26736C23.2957 5.11292 23.5567 5.12371 23.7111 5.29117C25.9615 7.73374 27.2007 10.9093 27.2007 14.2326C27.2007 16.0145 26.8516 17.7433 26.1633 19.3707C25.4984 20.9426 24.5467 22.3542 23.3345 23.5664C22.1226 24.7783 20.7107 25.7303 19.1388 26.3952C17.5114 27.0834 15.7825 27.4326 14.0007 27.4326L14.0004 27.4332Z" fill="#A08BC8" stroke="#A08BC8"/>
<path d="M4.95838 23.6871C4.9493 23.6871 4.94021 23.6868 4.93088 23.6861L2.04316 23.4936C1.81579 23.4784 1.64392 23.2819 1.65914 23.0546C1.67436 22.8274 1.87079 22.6553 2.09816 22.6705L4.51546 22.8319L4.35414 20.4146C4.33892 20.1872 4.51104 19.9908 4.73816 19.9755C4.96528 19.9603 5.16196 20.1324 5.17718 20.3596L5.36968 23.2473C5.37754 23.3661 5.33383 23.4823 5.24961 23.5665C5.17227 23.6441 5.06743 23.687 4.95841 23.687L4.95838 23.6871Z" fill="#A08BC8" stroke="#A08BC8"/>
<path d="M23.2343 8.49047C23.019 8.49047 22.8375 8.32351 22.8233 8.10523L22.6308 5.21751C22.6229 5.09891 22.6666 4.98253 22.7509 4.89831C22.8351 4.81434 22.9515 4.77039 23.07 4.77824L25.9578 4.97074C26.1851 4.98597 26.357 5.1824 26.3418 5.40976C26.3266 5.63713 26.1299 5.80901 25.9028 5.79378L23.4855 5.63247L23.6468 8.04976C23.662 8.27688 23.4899 8.47356 23.2628 8.48878C23.2527 8.49025 23.2434 8.4905 23.2343 8.4905L23.2343 8.49047Z" fill="#A08BC8" stroke="#A08BC8"/>
<path d="M4.67634 23.3978C4.56634 23.3978 4.45659 23.3541 4.37556 23.2677C2.06971 20.8121 0.799805 17.6034 0.799805 14.2332C0.799805 12.4513 1.14896 10.7225 1.8372 9.09513C2.5021 7.5232 3.45382 6.11162 4.66602 4.89942C5.87797 3.68747 7.2898 2.7355 8.86174 2.0706C10.4892 1.38237 12.218 1.0332 13.9998 1.0332C14.2277 1.0332 14.4123 1.21785 14.4123 1.4457C14.4123 1.67356 14.2277 1.8582 13.9998 1.8582C7.17603 1.8582 1.62449 7.40949 1.62449 14.2335C1.62449 17.3933 2.81507 20.4011 4.97679 22.7035C5.1327 22.8695 5.1246 23.1308 4.95837 23.2864C4.87882 23.3613 4.77741 23.3984 4.67601 23.3984L4.67634 23.3978Z" fill="#A08BC8" stroke="#A08BC8"/>
<path d="M18.4619 19.663C18.2925 19.663 18.1336 19.5579 18.0735 19.389C17.4874 17.7468 15.9216 16.6434 14.1773 16.6434H13.8233C12.0787 16.6434 10.5129 17.7468 9.92712 19.389C9.85051 19.6036 9.61455 19.7153 9.39995 19.6389C9.18535 19.5623 9.07364 19.3264 9.14999 19.1118C9.49055 18.1571 10.1078 17.3387 10.935 16.7455C11.7806 16.139 12.7795 15.8184 13.8232 15.8184H14.1773C15.221 15.8184 16.2196 16.139 17.0653 16.7455C17.8922 17.3387 18.5097 18.1568 18.8503 19.1118C18.9269 19.3264 18.8149 19.5623 18.6003 19.6389C18.5547 19.6551 18.508 19.663 18.4618 19.663H18.4619Z" fill="#A08BC8" stroke="#A08BC8"/>
<path d="M14 16.6445C12.3922 16.6445 11.084 15.3363 11.084 13.7285C11.084 12.1207 12.3922 10.8125 14 10.8125C15.6078 10.8125 16.916 12.1207 16.916 13.7285C16.916 15.3363 15.6078 16.6445 14 16.6445ZM14 11.6376C12.8469 11.6376 11.909 12.5758 11.909 13.7286C11.909 14.8816 12.8472 15.8196 14 15.8196C15.153 15.8196 16.091 14.8814 16.091 13.7286C16.091 12.5755 15.153 11.6376 14 11.6376Z" fill="#A08BC8" stroke="#A08BC8"/>
<path d="M14.0002 21.4808C13.022 21.4808 12.0727 21.2893 11.1787 20.9112C10.3157 20.546 9.54052 20.0233 8.87486 19.3579C8.20945 18.6925 7.68673 17.9173 7.3216 17.0541C6.94347 16.16 6.75195 15.2108 6.75195 14.2326C6.75195 13.2543 6.94347 12.3051 7.3216 11.4111C7.68671 10.5481 8.20945 9.77294 8.87486 9.10728C9.54026 8.44187 10.3154 7.91916 11.1787 7.55402C12.0727 7.17589 13.0219 6.98438 14.0002 6.98438C14.9784 6.98438 15.9276 7.17589 16.8216 7.55402C17.6847 7.91913 18.4598 8.44187 19.1255 9.10728C19.7909 9.77269 20.3136 10.5478 20.6787 11.4111C21.0569 12.3051 21.2484 13.2543 21.2484 14.2326C21.2484 15.2108 21.0569 16.16 20.6787 17.0541C20.3136 17.9171 19.7909 18.6922 19.1255 19.3579C18.4601 20.0233 17.6849 20.546 16.8216 20.9112C15.9276 21.2893 14.9784 21.4808 14.0002 21.4808ZM14.0002 7.80937C10.4583 7.80937 7.5768 10.691 7.5768 14.2327C7.5768 17.7746 10.4584 20.6561 14.0002 20.6561C17.542 20.6561 20.4235 17.7745 20.4235 14.2327C20.4235 10.6909 17.5422 7.80937 14.0002 7.80937Z" fill="#A08BC8" stroke="#A08BC8"/>
</svg>
