<svg width="27" height="32" viewBox="0 0 27 32" fill="none" xmlns="http://www.w3.org/2000/svg">
<path d="M12.2513 23.9855C12.2513 24.094 12.2192 24.2001 12.1589 24.2903C12.0987 24.3806 12.0131 24.4509 11.9129 24.4925C11.8127 24.5342 11.7024 24.5451 11.5959 24.5241C11.4895 24.5031 11.3917 24.451 11.3148 24.3744C11.238 24.2979 11.1855 24.2002 11.1641 24.0939C11.1427 23.9875 11.1533 23.8772 11.1945 23.7768C11.2358 23.6765 11.3058 23.5906 11.3959 23.53C11.4859 23.4695 11.5918 23.4369 11.7003 23.4365C11.7726 23.4363 11.8442 23.4503 11.911 23.4777C11.9779 23.5052 12.0386 23.5456 12.0898 23.5966C12.141 23.6476 12.1816 23.7082 12.2093 23.775C12.2371 23.8417 12.2513 23.9133 12.2513 23.9855V23.9855Z" stroke="black" stroke-opacity="0.8" stroke-width="2" stroke-linecap="round" stroke-linejoin="round"/>
<path d="M18.2865 23.9855C18.2865 24.094 18.2543 24.2001 18.1941 24.2903C18.1339 24.3806 18.0482 24.4509 17.948 24.4925C17.8478 24.5342 17.7375 24.5451 17.6311 24.5241C17.5247 24.5031 17.4268 24.451 17.35 24.3744C17.2731 24.2979 17.2207 24.2002 17.1993 24.0939C17.1779 23.9875 17.1884 23.8772 17.2297 23.7768C17.2709 23.6765 17.341 23.5906 17.431 23.53C17.521 23.4695 17.627 23.4369 17.7355 23.4365C17.8077 23.4363 17.8793 23.4503 17.9462 23.4777C18.013 23.5052 18.0738 23.5456 18.125 23.5966C18.1762 23.6476 18.2168 23.7082 18.2445 23.775C18.2722 23.8417 18.2865 23.9133 18.2865 23.9855V23.9855Z" stroke="black" stroke-opacity="0.8" stroke-width="2" stroke-linecap="round" stroke-linejoin="round"/>
<path d="M7.31055 13.0117H9.50555L10.9755 20.3587C11.0264 20.6115 11.1643 20.8384 11.3654 20.9997C11.5664 21.1611 11.8178 21.2468 12.0755 21.2417H17.4105C17.6683 21.2468 17.9197 21.1611 18.1207 20.9997C18.3218 20.8384 18.4597 20.6115 18.5105 20.3587L19.3885 15.7587H10.0535" stroke="black" stroke-opacity="0.8" stroke-width="2" stroke-linecap="round" stroke-linejoin="round"/>
<path d="M25.7914 18.0549C25.5287 18.0541 25.2753 18.1519 25.0813 18.3289C24.8872 18.5059 24.7667 18.7493 24.7434 19.0109C24.5715 21.2116 23.7653 23.3152 22.4223 25.0671C21.0793 26.8189 19.2572 28.1438 17.1766 28.8813C15.0961 29.6187 12.8463 29.7371 10.6998 29.2221C8.55336 28.7071 6.60224 27.5808 5.08279 25.9796C3.56334 24.3784 2.54074 22.371 2.13883 20.2005C1.73692 18.03 1.97296 15.7896 2.81834 13.7505C3.66372 11.7114 5.08219 9.96112 6.90196 8.7117C8.72172 7.46228 10.8647 6.76729 13.0714 6.71089C13.1091 6.7091 13.1468 6.71508 13.182 6.72848C13.2173 6.74187 13.2495 6.76239 13.2765 6.78875C13.3035 6.81511 13.3248 6.84675 13.3391 6.8817C13.3533 6.91664 13.3602 6.95415 13.3594 6.99189V10.5289C13.3599 10.7304 13.4145 10.928 13.5174 11.1013C13.6203 11.2745 13.7677 11.417 13.9444 11.5139C14.121 11.6108 14.3204 11.6586 14.5218 11.6522C14.7232 11.6459 14.9192 11.5857 15.0894 11.4779L21.8534 6.74889C22.0148 6.64779 22.1478 6.50734 22.24 6.34073C22.3322 6.17413 22.3806 5.98682 22.3806 5.79639C22.3806 5.60596 22.3322 5.41865 22.24 5.25205C22.1478 5.08544 22.0148 4.94499 21.8534 4.84389L15.0964 0.174889C14.9262 0.067086 14.7302 0.00688553 14.5288 0.000556319C14.3274 -0.00577289 14.128 0.0420005 13.9514 0.138902C13.7747 0.235804 13.6273 0.378291 13.5244 0.551525C13.4215 0.72476 13.3669 0.922408 13.3664 1.12389V4.33689C13.367 4.37338 13.3605 4.40965 13.347 4.44358C13.3336 4.47752 13.3135 4.50845 13.288 4.53458C13.2625 4.56072 13.2321 4.58153 13.1986 4.59583C13.165 4.61013 13.1289 4.61763 13.0924 4.61789C10.4976 4.68559 7.97789 5.50306 5.83757 6.97157C3.69724 8.44009 2.02784 10.4968 1.03095 12.8934C0.0340689 15.2901 -0.247657 17.924 0.219796 20.4773C0.68725 23.0305 1.88389 25.3938 3.66521 27.2818C5.44653 29.1697 7.73634 30.5016 10.2581 31.1166C12.7799 31.7316 15.4258 31.6033 17.8762 30.7473C20.3267 29.8913 22.4769 28.3442 24.0673 26.2927C25.6576 24.2413 26.6201 21.7734 26.8384 19.1869C26.8505 19.0423 26.8323 18.8967 26.785 18.7595C26.7378 18.6223 26.6624 18.4964 26.5638 18.3899C26.4653 18.2834 26.3456 18.1987 26.2124 18.141C26.0792 18.0833 25.9355 18.054 25.7904 18.0549H25.7914Z" fill="black" fill-opacity="0.8"/>
</svg>
