<svg width="21" height="21" viewBox="0 0 21 21" fill="none" xmlns="http://www.w3.org/2000/svg">
<circle cx="10.3993" cy="10.3583" r="9.48328" fill="white" stroke="black" stroke-width="0.5"/>
<path d="M13.1179 6.02344C12.7346 6.02344 12.369 6.15843 12.0794 6.40279C12.0626 6.41166 12.0478 6.42151 12.034 6.43531L11.6872 6.78214C11.6842 6.7851 11.6813 6.78707 11.6783 6.78904C11.6754 6.792 11.6734 6.79495 11.6714 6.79791L10.8585 7.61081C10.8566 7.61278 10.8536 7.61475 10.8507 7.61672C10.8487 7.61869 10.8467 7.62165 10.8447 7.6246L6.35655 12.1108C6.35458 12.1128 6.35261 12.1157 6.35064 12.1187C6.3467 12.1236 6.34275 12.1276 6.3398 12.1325C6.33586 12.1384 6.33093 12.1443 6.32797 12.1502C6.32502 12.1552 6.32206 12.1601 6.32009 12.166C6.31714 12.1719 6.31418 12.1788 6.31221 12.1847C6.31024 12.1906 6.30827 12.1956 6.30728 12.2015C6.30531 12.2084 6.30433 12.2153 6.30334 12.2222C6.30334 12.2251 6.30236 12.2271 6.30137 12.23L6.06489 14.4766C6.06391 14.4835 6.06489 14.4904 6.06489 14.4963C6.06489 14.5022 6.06391 14.5101 6.06489 14.516C6.06588 14.5288 6.06883 14.5407 6.07179 14.5515C6.07179 14.5525 6.07277 14.5535 6.07277 14.5544C6.07672 14.5663 6.08066 14.5771 6.08657 14.587C6.08755 14.5899 6.08952 14.5919 6.0915 14.5948C6.09642 14.6027 6.10135 14.6106 6.10628 14.6175C6.10923 14.6214 6.11219 14.6234 6.11514 14.6274C6.12007 14.6333 6.12598 14.6392 6.13091 14.6441C6.13485 14.6471 6.13879 14.65 6.14372 14.653C6.14963 14.6569 6.15456 14.6609 6.16145 14.6648C6.16638 14.6678 6.17131 14.6697 6.17623 14.6717C6.18215 14.6747 6.18904 14.6776 6.19594 14.6796C6.20087 14.6816 6.20579 14.6825 6.21171 14.6845C6.2186 14.6865 6.2255 14.6875 6.23338 14.6894C6.23634 14.6894 6.23831 14.6904 6.24127 14.6914C6.24619 14.6944 6.25309 14.6944 6.259 14.6944C6.259 14.6944 6.259 14.6944 6.25999 14.6944C6.25999 14.6944 6.25999 14.6944 6.26097 14.6944C6.26787 14.6944 6.27378 14.6944 6.28068 14.6934L8.52724 14.4569C8.53019 14.4569 8.53216 14.4559 8.53512 14.4549C8.53808 14.4549 8.54103 14.4549 8.54399 14.4539C8.54793 14.453 8.55187 14.452 8.55581 14.451C8.56172 14.449 8.56764 14.448 8.57355 14.4461C8.57946 14.4441 8.58537 14.4411 8.59128 14.4382C8.5972 14.4352 8.60311 14.4323 8.60902 14.4293C8.61395 14.4264 8.61887 14.4224 8.6238 14.4185C8.62971 14.4145 8.63464 14.4096 8.63956 14.4057C8.64154 14.4037 8.64351 14.4027 8.64646 14.4007L13.1396 9.90762L13.9604 9.08486C13.9623 9.08289 13.9653 9.08191 13.9673 9.07994C13.9692 9.07797 13.9712 9.07501 13.9732 9.07304L14.322 8.72423C14.3358 8.71044 14.3456 8.69467 14.3545 8.67891C14.5989 8.38922 14.7338 8.02268 14.7338 7.63938C14.7338 6.74864 14.0086 6.02344 13.1179 6.02344ZM12.9997 9.48787L11.2684 7.75664L11.8182 7.20781L13.5485 8.93805L12.9997 9.48787ZM6.64919 12.6823L8.07595 14.1091L6.48169 14.2766L6.64919 12.6823ZM8.50654 13.982L6.77532 12.2507L10.9896 8.03549L12.7208 9.76672L8.50654 13.982ZM14.0313 8.45031C14.0254 8.45721 14.0215 8.46411 14.0165 8.471L13.8273 8.66019L12.0971 6.92994L12.2863 6.74076C12.2932 6.73583 12.3001 6.73189 12.307 6.72598C12.5287 6.52694 12.8164 6.41757 13.1179 6.41757C13.7919 6.41757 14.3397 6.96542 14.3397 7.63938C14.3397 7.94089 14.2303 8.22861 14.0313 8.45031Z" fill="black"/>
</svg>
