<svg width="29" height="27" viewBox="0 0 29 27" fill="none" xmlns="http://www.w3.org/2000/svg">
<g clip-path="url(#clip0_2603_7098)">
<path fill-rule="evenodd" clip-rule="evenodd" d="M8.84314 16.9714V19.8H12.6146V21.6857H6.95742V15.0857H12.6146V16.9714H8.84314ZM16.386 24.5143H20.1574V16.9714H16.386V24.5143ZM24.8717 24.5143H22.0431V15.0857H14.5003V24.5143H4.12885V14.1429H2.24314V26.4H26.7574V14.1429H24.8717V24.5143ZM26.7574 8.48571C26.7574 9.78582 25.7004 10.8429 24.4003 10.8429C23.7753 10.8423 23.176 10.5939 22.7341 10.1519C22.2921 9.70998 22.0437 9.11073 22.0431 8.48571H20.1574C20.1574 9.78582 19.1004 10.8429 17.8003 10.8429C17.1753 10.8423 16.576 10.5939 16.1341 10.1519C15.6921 9.70998 15.4437 9.11073 15.4431 8.48571H13.5574C13.5574 9.78582 12.4995 10.8429 11.2003 10.8429C10.5753 10.8421 9.97622 10.5935 9.53444 10.1516C9.09247 9.70977 8.84389 9.11073 8.84314 8.48571H6.95742C6.95742 9.78582 5.89949 10.8429 4.60028 10.8429C3.97526 10.8421 3.37621 10.5935 2.93444 10.1516C2.49247 9.70977 2.24389 9.11073 2.24314 8.48571V5.91827L4.66251 1.88571H24.3381L26.0343 4.71429H6.95742V6.6H26.7574V8.48571ZM25.4054 0H3.59519L0.357422 5.39597V8.48567C0.357422 10.8249 2.261 12.7285 4.60028 12.7285C5.88271 12.7291 7.09626 12.1482 7.90028 11.1492C8.70392 12.1492 9.91747 12.7309 11.2003 12.7309C12.4831 12.7309 13.6966 12.1492 14.5003 11.1492C15.3039 12.1492 16.5175 12.7309 17.8003 12.7309C19.0831 12.7309 20.2966 12.1492 21.1003 11.1492C21.9043 12.1482 23.1179 12.7291 24.4003 12.7285C26.7396 12.7285 28.6431 10.8249 28.6431 8.48567V5.39597L25.4054 0Z" fill="#A08BC8"/>
</g>
<defs>
<clipPath id="clip0_2603_7098">
<rect width="29" height="27" fill="white"/>
</clipPath>
</defs>
</svg>
