<svg width="29" height="25" viewBox="0 0 29 25" fill="none" xmlns="http://www.w3.org/2000/svg">
<path d="M14.0058 18.0014C14.1538 18.0945 14.325 18.1439 14.4998 18.1439C14.6746 18.1439 14.8458 18.0945 14.9938 18.0014C16.1984 17.2388 18.3565 15.6873 19.2059 13.954C20.3933 11.7093 20.3152 9.45598 19.024 8.23383L19.0238 8.23405C18.2901 7.5457 17.2777 7.23793 16.2851 7.40201C15.6167 7.5056 14.9947 7.80768 14.4998 8.26865C14.0071 7.80922 13.3886 7.50737 12.7231 7.40201C11.7307 7.23204 10.7154 7.53303 9.97584 8.21661C8.68438 9.44734 8.61519 11.6833 9.78519 13.9195C10.6431 15.6963 12.7666 17.2389 14.0058 18.0015V18.0014ZM11.2412 9.56847C11.5622 9.28228 11.9959 9.15801 12.4199 9.23048C12.9833 9.33821 13.4571 9.71798 13.6852 10.2444C13.791 10.4438 13.9657 10.5974 14.1766 10.6771C14.3877 10.7567 14.6206 10.7567 14.8315 10.6771C15.0426 10.5974 15.2173 10.4438 15.3231 10.2444C15.551 9.71797 16.0248 9.33818 16.5884 9.23048C17.0096 9.15801 17.4409 9.28271 17.7584 9.56847C18.417 10.1924 18.3391 11.6399 17.5678 13.1131V13.1133C16.7924 14.3401 15.742 15.3697 14.4998 16.1206C13.2525 15.3658 12.199 14.3301 11.4231 13.0959C10.6605 11.6486 10.5911 10.2012 11.2412 9.57721V9.56847Z" fill="#A08BC8"/>
<path d="M23.7474 16.8403C22.7829 18.9526 21.1243 20.6709 19.0474 21.7096C16.9706 22.7482 14.6008 23.0446 12.3316 22.5492C10.063 22.0541 8.03228 20.7971 6.57691 18.9874C5.12182 17.1776 4.33029 14.9244 4.33374 12.602C4.34006 12.3258 4.22405 12.061 4.01687 11.8784C3.80968 11.6958 3.53242 11.6139 3.25904 11.6549C2.98591 11.6958 2.74477 11.8553 2.60028 12.0906L0.754296 14.8639V14.8641C0.630677 15.051 0.578885 15.2765 0.608915 15.4987C0.638731 15.7209 0.747983 15.9248 0.916429 16.0726C1.08509 16.2204 1.30143 16.3022 1.52561 16.3027H3.06823C3.81079 18.6083 5.23301 20.6356 7.14818 22.1187C9.06336 23.6016 11.3822 24.4709 13.7999 24.6123C16.218 24.754 18.6225 24.1612 20.6973 22.9118C22.7722 21.6624 24.4215 19.8148 25.4278 17.6115L23.7474 16.8403Z" fill="#A08BC8"/>
<path d="M28.2542 9.39458C28.1758 9.24616 28.0585 9.12189 27.9151 9.03484C27.7717 8.948 27.6074 8.90143 27.4396 8.90055H25.9316C25.1891 6.59493 23.7668 4.56765 21.8517 3.08454C19.9365 1.60159 17.6176 0.732338 15.1999 0.59088C12.7818 0.449198 10.3774 1.04204 8.3025 2.29145C6.22764 3.54086 4.57833 5.38838 3.57202 7.59171L5.25348 8.36302C6.218 6.25067 7.87662 4.53244 9.95348 3.49371C12.0303 2.45514 14.4001 2.15874 16.6693 2.65409C18.9379 3.14921 20.9686 4.40625 22.424 6.21591C23.8791 8.02573 24.6706 10.2789 24.6672 12.6013C24.6563 12.8803 24.7714 13.1495 24.981 13.3341C25.1908 13.5186 25.4722 13.5987 25.7477 13.5526C26.0231 13.5062 26.2629 13.3382 26.4007 13.0953L28.2466 10.348C28.3343 10.2047 28.3814 10.0404 28.3829 9.87264C28.3844 9.70463 28.3402 9.53944 28.2553 9.39472L28.2542 9.39458Z" fill="#A08BC8"/>
</svg>
