<svg width="17" height="18" viewBox="0 0 17 18" fill="none" xmlns="http://www.w3.org/2000/svg">
<path opacity="0.1" d="M14.2241 8.20884C14.2241 9.5096 13.8384 10.7812 13.1157 11.8627C12.3931 12.9443 11.3659 13.7873 10.1642 14.2851C8.96248 14.7829 7.64012 14.9132 6.36433 14.6595C5.08854 14.4058 3.91663 13.7795 2.99678 12.8598C2.07693 11.9401 1.45046 10.7683 1.19657 9.49256C0.942681 8.21681 1.07278 6.89443 1.57043 5.69262C2.06807 4.49081 2.91091 3.46356 3.99236 2.74075C5.07381 2.01794 6.34531 1.63203 7.64607 1.63184C8.50986 1.6317 9.36521 1.80173 10.1633 2.13219C10.9614 2.46266 11.6865 2.9471 12.2974 3.55784C12.9082 4.16858 13.3927 4.89367 13.7233 5.6917C14.0539 6.48972 14.2241 7.34505 14.2241 8.20884V8.20884Z" stroke="black" stroke-width="1.5" stroke-linecap="round" stroke-linejoin="round"/>
<path opacity="0.1" d="M15.8681 16.4305L12.2921 12.8545" stroke="black" stroke-width="1.5" stroke-linecap="round" stroke-linejoin="round"/>
</svg>
