<svg width="22" height="22" viewBox="0 0 22 22" fill="none" xmlns="http://www.w3.org/2000/svg">
<path fill-rule="evenodd" clip-rule="evenodd" d="M2.76951 10.5908C3.97851 11.0057 4.94159 12.0176 5.34459 13.3002L5.38793 13.4302C5.84943 14.7909 5.66201 16.2556 4.88851 17.3541C4.74768 17.5534 4.77909 17.7917 4.92751 17.9044L7.17218 19.6096C7.25126 19.6692 7.32818 19.6692 7.37584 19.6637C7.43001 19.6551 7.50909 19.6258 7.57301 19.5348L7.82326 19.1795C8.56968 18.1211 9.77218 17.4678 11.0418 17.431C12.4675 17.4017 13.748 18.055 14.5453 19.2066L14.6732 19.3918C14.7371 19.4828 14.8151 19.5132 14.8703 19.5218C14.918 19.5316 14.996 19.5283 15.074 19.4677L17.3068 17.7831C17.4628 17.6661 17.4974 17.4158 17.3815 17.2479L17.0998 16.8417C16.374 15.793 16.1584 14.4323 16.5235 13.2027C16.92 11.8637 17.9286 10.8042 19.2232 10.3709L19.4409 10.2972C19.6153 10.2398 19.7096 10.0232 19.6478 9.82383L18.7953 7.09274C18.7552 6.96491 18.6728 6.90749 18.6273 6.88366C18.5623 6.85008 18.4919 6.84466 18.4248 6.86741L18.0564 6.98983C16.7965 7.40908 15.4066 7.18158 14.3395 6.37883L14.2225 6.29108C13.2085 5.52841 12.6051 4.29883 12.6094 3.00316L12.6116 2.69983C12.6116 2.55574 12.5433 2.46583 12.5022 2.42466C12.4632 2.38458 12.3971 2.33691 12.3039 2.33691L9.54468 2.33366C9.37568 2.33366 9.23809 2.49508 9.23701 2.69441L9.23593 2.95658C9.23051 4.27283 8.61409 5.52516 7.58709 6.30841L7.44734 6.41458C6.31743 7.27366 4.84409 7.51633 3.50943 7.06133C3.45851 7.04399 3.41084 7.04724 3.36534 7.07108C3.33068 7.08841 3.26784 7.13283 3.23751 7.23141L2.35243 10.0437C2.28851 10.2485 2.39359 10.4619 2.59184 10.5302L2.76951 10.5908ZM7.33143 21.8337C6.80492 21.8337 6.29359 21.6625 5.86243 21.3342L3.61776 19.6302C2.54526 18.8177 2.30801 17.2544 3.08801 16.1462C3.49318 15.572 3.57659 14.8342 3.33826 14.1344L3.27868 13.9524C3.08043 13.3219 2.62759 12.8322 2.06751 12.6405H2.06643L1.88984 12.5787C0.570342 12.127 -0.133824 10.7284 0.285426 9.39374L1.16943 6.58249C1.36984 5.94658 1.80209 5.43307 2.38709 5.13732C2.95909 4.84916 3.60584 4.80474 4.21034 5.01166C4.85926 5.23266 5.57968 5.11241 6.13543 4.68991L6.27518 4.58374C6.76918 4.20674 7.06709 3.59466 7.06926 2.94791L7.07034 2.68683C7.07576 1.29583 8.18617 0.166992 9.54359 0.166992H9.54792L12.3072 0.170242C12.9593 0.171326 13.5747 0.429159 14.0383 0.896075C14.5183 1.37816 14.7804 2.02274 14.7783 2.71066L14.7761 3.01291C14.7739 3.62608 15.0545 4.20566 15.5279 4.56099L15.6438 4.64874C16.1411 5.02249 16.7889 5.12974 17.3707 4.93474L17.7379 4.81233C18.363 4.60433 19.0282 4.65524 19.6143 4.95533C20.2155 5.26299 20.6597 5.79274 20.8633 6.44816L21.7159 9.17924C22.1276 10.4987 21.4148 11.9222 20.1288 12.3523L19.9111 12.4249C19.2871 12.6351 18.7963 13.1551 18.6003 13.8181C18.4204 14.4258 18.5244 15.0942 18.8808 15.6077L19.1625 16.014C19.936 17.132 19.689 18.7007 18.6122 19.5121L16.3794 21.1977C15.8432 21.6029 15.1856 21.7665 14.5258 21.6614C13.8607 21.5542 13.28 21.1858 12.8911 20.6247L12.7633 20.4383C12.3841 19.8923 11.7774 19.5608 11.1415 19.5966C10.5045 19.6139 9.95417 19.9162 9.59451 20.4275L9.34426 20.7828C8.95209 21.3386 8.37034 21.7015 7.70843 21.8055C7.58168 21.825 7.45601 21.8337 7.33143 21.8337ZM10.9998 9.37522C10.1039 9.37522 9.37481 10.1043 9.37481 11.0002C9.37481 11.8961 10.1039 12.6252 10.9998 12.6252C11.8957 12.6252 12.6248 11.8961 12.6248 11.0002C12.6248 10.1043 11.8957 9.37522 10.9998 9.37522ZM10.9998 14.7919C8.90898 14.7919 7.20814 13.0911 7.20814 11.0002C7.20814 8.90938 8.90898 7.20855 10.9998 7.20855C13.0906 7.20855 14.7915 8.90938 14.7915 11.0002C14.7915 13.0911 13.0906 14.7919 10.9998 14.7919Z" fill="#A08BC8"/>
</svg>
