<svg width="17" height="17" viewBox="0 0 17 17" fill="none" xmlns="http://www.w3.org/2000/svg">
<path d="M8.4227 11.675C7.36361 11.6757 6.37389 11.1482 5.78403 10.2686C5.1942 9.38905 5.08185 8.27315 5.48445 7.29369C5.88716 6.31413 6.75185 5.59991 7.78969 5.38951C8.8277 5.17909 9.90211 5.50015 10.6546 6.24554C11.4069 6.99094 11.738 8.06237 11.5373 9.10224C11.3365 10.1421 10.6305 11.0134 9.65473 11.4251C9.26493 11.5902 8.84588 11.6752 8.42256 11.6749L8.4227 11.675ZM8.4227 5.65536V5.65544C7.66864 5.65512 6.94529 5.95445 6.41189 6.48756C5.87848 7.02066 5.57876 7.74379 5.57868 8.49797C5.57861 9.25203 5.8781 9.97531 6.41135 10.5086C6.94453 11.0418 7.6678 11.3413 8.42196 11.3412C9.1761 11.3412 9.89921 11.0415 10.4324 10.508C10.9655 9.97471 11.2648 9.25135 11.2645 8.49723C11.2636 7.74379 10.964 7.02154 10.4312 6.48882C9.89849 5.95603 9.17624 5.6564 8.4228 5.65554L8.4227 5.65536Z" fill="black" stroke="black" stroke-width="0.3"/>
<path d="M9.80468 16H7.03608C6.90238 16 6.794 15.8917 6.794 15.758V14.648C6.24399 14.5046 5.71593 14.2875 5.22412 14.0026L4.44002 14.7867V14.7868C4.39455 14.8326 4.33276 14.8584 4.26817 14.8584C4.20368 14.8584 4.14178 14.8326 4.09643 14.7868L2.14085 12.8264C2.09505 12.781 2.06927 12.7191 2.06927 12.6546C2.06927 12.59 2.09505 12.5282 2.14085 12.4828L2.92495 11.6987H2.92507C2.64044 11.2061 2.42335 10.6776 2.27964 10.1271H1.15994C1.02624 10.1271 0.917969 10.0188 0.917969 9.88513V7.1197C0.917969 6.986 1.02624 6.87773 1.15994 6.87773H2.26995C2.41367 6.32729 2.63076 5.79877 2.91539 5.30616L2.13129 4.52205H2.13117C2.08537 4.47659 2.05959 4.4148 2.05959 4.3502C2.05959 4.28571 2.08537 4.22381 2.13117 4.17846L4.09643 2.22289C4.14178 2.17708 4.20368 2.15131 4.26817 2.15131C4.33277 2.15131 4.39455 2.17708 4.44002 2.22289L5.22412 3.00699V3.0071C5.71593 2.72214 6.24399 2.50503 6.794 2.36167V1.24197C6.794 1.10827 6.90238 1 7.03608 1H9.80468C9.93838 1 10.0468 1.10827 10.0468 1.24197V2.35199C10.5968 2.49537 11.1248 2.71247 11.6166 2.99742L12.4007 2.21332V2.2132C12.4462 2.1674 12.508 2.14163 12.5726 2.14163C12.6371 2.14163 12.699 2.1674 12.7443 2.2132L14.6999 4.17846C14.7457 4.22381 14.7715 4.28571 14.7715 4.3502C14.7715 4.4148 14.7457 4.47659 14.6999 4.52205L13.9158 5.30616H13.9157C14.2003 5.79877 14.4174 6.32726 14.5611 6.87773H15.6808C15.8145 6.87773 15.9228 6.986 15.9228 7.1197V9.88513C15.9228 10.0188 15.8145 10.1271 15.6808 10.1271H14.566C14.4222 10.6775 14.2052 11.2061 13.9205 11.6987L14.7046 12.4828H14.7047C14.7506 12.5282 14.7763 12.59 14.7763 12.6546C14.7763 12.7191 14.7506 12.781 14.7047 12.8264L12.7443 14.782C12.699 14.8278 12.6371 14.8535 12.5726 14.8535C12.508 14.8535 12.4462 14.8278 12.4007 14.782L11.6166 13.9978V13.9977C11.1248 14.2827 10.5968 14.4998 10.0468 14.6432V15.7629C10.0441 15.8947 9.93647 16.0001 9.80468 16V16ZM7.27807 15.5159L9.56272 15.516V14.4576C9.5634 14.3454 9.64071 14.248 9.74988 14.222C10.3783 14.0773 10.9781 13.8287 11.5246 13.4863C11.6202 13.4268 11.7442 13.4415 11.8232 13.5218L12.5718 14.2689L14.1853 12.6554L13.4398 11.9068C13.3595 11.8279 13.3448 11.7039 13.4043 11.6083C13.746 11.0615 13.9946 10.4617 14.14 9.83348C14.1661 9.72341 14.264 9.64542 14.3772 9.64474H15.434V7.36167H14.3772C14.264 7.361 14.1661 7.283 14.14 7.17293C13.9946 6.5447 13.746 5.94508 13.4043 5.39821C13.3448 5.30266 13.3595 5.17863 13.4398 5.09964L14.1868 4.35256L12.5734 2.73912L11.8248 3.48303C11.7459 3.56327 11.6218 3.57802 11.5263 3.51848C10.9798 3.17612 10.3799 2.9275 9.75147 2.78278C9.6423 2.75679 9.56498 2.65944 9.56431 2.54723V1.48875H7.27807V2.54723C7.27739 2.65943 7.20007 2.75678 7.0909 2.78278C6.46247 2.92751 5.8627 3.17612 5.31618 3.51848C5.22063 3.57802 5.09661 3.56327 5.01761 3.48303L4.26897 2.73595L2.65554 4.34939L3.40262 5.09647C3.48286 5.17536 3.4976 5.29939 3.43807 5.39493C3.09651 5.94177 2.8479 6.54153 2.70237 7.16965C2.67637 7.27983 2.57835 7.35782 2.46524 7.3585H1.40677V9.64316H2.46357C2.57679 9.64383 2.6747 9.72183 2.70081 9.83189C2.84622 10.4601 3.09484 11.0597 3.43651 11.6066C3.49605 11.7022 3.4813 11.8262 3.40106 11.9052L2.65398 12.6523L4.26742 14.2657L5.01605 13.5186C5.09494 13.4384 5.21897 13.4236 5.31451 13.4831C5.86103 13.8254 6.46088 14.074 7.08935 14.2188C7.19852 14.2449 7.27583 14.3421 7.27651 14.4544L7.27807 15.5159Z" fill="black" stroke="black" stroke-width="0.2"/>
</svg>
