<svg width="26" height="26" viewBox="0 0 26 26" fill="none" xmlns="http://www.w3.org/2000/svg">
<g filter="url(#filter0_d_1478_8911)">
<circle cx="13" cy="13" r="9" transform="rotate(-180 13 13)" fill="white"/>
</g>
<path d="M10.292 11.7455L9.3652 12.6723L12.3353 15.6423L18.9353 9.04249L18.0085 8.11567L12.3328 13.7609L10.292 11.7455ZM18.2781 12.9992C18.2733 14.0996 17.9234 15.1708 17.2775 16.0618C16.6316 16.9527 15.7224 17.6186 14.6781 17.9654C13.6337 18.3122 12.5068 18.3226 11.4563 17.995C10.4057 17.6674 9.48443 17.0183 8.82232 16.1394C8.1602 15.2604 7.79063 14.1958 7.76568 13.0957C7.74073 11.9955 8.06167 10.9153 8.68326 10.0072C9.30485 9.09916 10.1957 8.40905 11.2304 8.03416C12.265 7.65928 13.3912 7.61853 14.4502 7.91766L15.4731 6.89478C14.6914 6.56033 13.8487 6.39191 12.9984 6.40019C11.6931 6.40019 10.417 6.78727 9.33168 7.51247C8.24631 8.23767 7.40037 9.26843 6.90084 10.4744C6.4013 11.6804 6.2706 13.0074 6.52526 14.2876C6.77992 15.5679 7.40851 16.7438 8.33153 17.6668C9.25456 18.5899 10.4306 19.2184 11.7108 19.4731C12.9911 19.7277 14.3182 19.597 15.5241 19.0975C16.7301 18.598 17.7609 17.7521 18.4861 16.6667C19.2114 15.5814 19.5984 14.3054 19.5984 13L18.2781 12.9992Z" fill="url(#paint0_linear_1478_8911)"/>
<defs>
<filter id="filter0_d_1478_8911" x="0" y="0" width="26" height="26" filterUnits="userSpaceOnUse" color-interpolation-filters="sRGB">
<feFlood flood-opacity="0" result="BackgroundImageFix"/>
<feColorMatrix in="SourceAlpha" type="matrix" values="0 0 0 0 0 0 0 0 0 0 0 0 0 0 0 0 0 0 127 0" result="hardAlpha"/>
<feOffset/>
<feGaussianBlur stdDeviation="2"/>
<feColorMatrix type="matrix" values="0 0 0 0 0 0 0 0 0 0 0 0 0 0 0 0 0 0 0.0823864 0"/>
<feBlend mode="normal" in2="BackgroundImageFix" result="effect1_dropShadow_1478_8911"/>
<feBlend mode="normal" in="SourceGraphic" in2="effect1_dropShadow_1478_8911" result="shape"/>
</filter>
<linearGradient id="paint0_linear_1478_8911" x1="19.5984" y1="6.3999" x2="6.39844" y2="6.3999" gradientUnits="userSpaceOnUse">
<stop stop-color="#FEE750"/>
<stop offset="0.453125" stop-color="#F4DEC4"/>
<stop offset="0.947917" stop-color="#CCB2F9"/>
<stop offset="1" stop-color="#CCB2F9"/>
</linearGradient>
</defs>
</svg>
