<svg width="31" height="31" viewBox="0 0 31 31" fill="none" xmlns="http://www.w3.org/2000/svg">
<circle cx="15.209" cy="15.1855" r="15" fill="black" fill-opacity="0.8"/>
<path d="M21.5102 13.9247C20.2716 13.9276 19.0634 13.5521 18.0563 12.8512V17.7392C18.0556 19.5931 16.8716 21.252 15.0856 21.9015C13.2995 22.5511 11.2864 22.0551 10.0342 20.6568C8.78205 19.2586 8.55381 17.2518 9.46151 15.6214C10.3692 13.991 12.2223 13.0794 14.1112 13.3339V15.7924C13.2453 15.5277 12.3025 15.8339 11.7742 16.5514C11.2459 17.2689 11.2518 18.2352 11.7887 18.9467C12.3257 19.6581 13.2722 19.9534 14.1347 19.6788C14.9973 19.4041 15.5806 18.6216 15.5806 17.7392V8.18359H18.0563C18.0545 8.38684 18.0721 8.58982 18.1086 8.78995C18.2825 9.69287 18.831 10.4864 19.6252 10.984C20.1844 11.3434 20.8399 11.535 21.5102 11.5348V13.9247Z" fill="white"/>
</svg>
