<svg width="36" height="36" fill="none" xmlns="http://www.w3.org/2000/svg"><circle cx="17.994" cy="18.061" r="17.939" fill="#F0F0F0" fill-opacity="0.5"></circle><path d="M26.963 16.27a8.579 8.579 0 01-4.918-1.53v6.96c0 2.64-1.686 5.002-4.23 5.926-2.542.925-5.408.219-7.191-1.772a6.191 6.191 0 01-.816-7.17c1.293-2.32 3.931-3.618 6.62-3.256v3.5c-1.232-.377-2.575.06-3.327 1.081a2.84 2.84 0 00.02 3.41c.765 1.013 2.113 1.434 3.341 1.043 1.228-.391 2.059-1.505 2.058-2.762V8.095h3.525c-.002.29.023.579.075.864a4.755 4.755 0 002.16 3.123c.795.512 1.729.785 2.683.785v3.402z" fill="#000" fill-opacity="1"></path></svg>