<svg width="36" height="36" viewBox="0 0 36 36" fill="none" xmlns="http://www.w3.org/2000/svg">
<circle cx="17.9942" cy="18.0615" r="17.9395" fill="#F0F0F0" fill-opacity="0.5"/>
<path d="M26.9629 16.2692C25.1995 16.2733 23.4793 15.7387 22.0454 14.7408V21.7002C22.0444 24.3397 20.3587 26.7015 17.8158 27.6264C15.2729 28.5512 12.4066 27.845 10.6238 25.8542C8.84104 23.8635 8.51608 21.0062 9.80844 18.6849C11.1008 16.3636 13.7391 15.0657 16.4285 15.4281V18.9284C15.1957 18.5515 13.8534 18.9874 13.1012 20.009C12.349 21.0306 12.3574 22.4064 13.1219 23.4193C13.8864 24.4322 15.2339 24.8527 16.462 24.4617C17.6901 24.0706 18.5206 22.9566 18.5205 21.7002V8.09521H22.0454C22.0429 8.3846 22.0679 8.67358 22.1199 8.95852C22.3674 10.2441 23.1484 11.3739 24.2792 12.0823C25.0753 12.594 26.0086 12.8668 26.9629 12.8666V16.2692Z" fill="black" fill-opacity="0.2"/>
</svg>
