<svg width="16" height="16" viewBox="0 0 16 16" fill="none" xmlns="http://www.w3.org/2000/svg">
<g opacity="0.5">
<path d="M6.87144 4.55634C6.86686 4.40575 6.90738 4.25722 6.98779 4.12982C7.06821 4.00242 7.18485 3.90195 7.32276 3.8413C7.46068 3.78066 7.61356 3.7626 7.76181 3.78944C7.91005 3.81629 8.0469 3.88682 8.15478 3.99198C8.26267 4.09714 8.33667 4.23213 8.3673 4.37964C8.39793 4.52715 8.38379 4.68045 8.32669 4.81987C8.26959 4.95929 8.17214 5.07846 8.04684 5.16211C7.92154 5.24576 7.7741 5.29006 7.62344 5.28933C7.52563 5.29173 7.42833 5.27455 7.33726 5.23881C7.24618 5.20306 7.16317 5.14946 7.09311 5.08117C7.02305 5.01288 6.96735 4.93127 6.92928 4.84114C6.89121 4.75101 6.87155 4.65417 6.87144 4.55634ZM6.92244 5.86533H8.31944V11.1493H6.91944L6.92244 5.86533Z" fill="black"/>
<path d="M7.625 1.027C9.15197 1.02658 10.6318 1.55564 11.8125 2.52403C12.9931 3.49241 13.8014 4.84021 14.0997 6.33776C14.3979 7.83531 14.1677 9.38996 13.4483 10.7368C12.7288 12.0836 11.5645 13.1393 10.154 13.724C8.74335 14.3087 7.17366 14.3862 5.71235 13.9432C4.25103 13.5003 2.98851 12.5644 2.1399 11.2949C1.29129 10.0255 0.909103 8.50107 1.05846 6.98143C1.20782 5.46178 1.87948 4.04094 2.959 2.961C3.57024 2.34612 4.29736 1.85858 5.09828 1.52661C5.8992 1.19464 6.75801 1.02483 7.625 1.027ZM7.625 0C6.11661 0.00039554 4.6422 0.448047 3.38821 1.28635C2.13422 2.12466 1.15696 3.31597 0.58 4.70966C0.00303745 6.10335 -0.147717 7.63682 0.146798 9.11618C0.441313 10.5955 1.16787 11.9544 2.23461 13.0208C3.30134 14.0873 4.66035 14.8135 6.13979 15.1076C7.61922 15.4017 9.15266 15.2506 10.5462 14.6732C11.9397 14.0959 13.1308 13.1183 13.9688 11.8641C14.8067 10.6099 15.254 9.13539 15.254 7.627C15.2539 6.62537 15.0564 5.63358 14.6729 4.70827C14.2894 3.78296 13.7274 2.94226 13.019 2.23419C12.3105 1.52612 11.4695 0.964541 10.544 0.581538C9.61853 0.198535 8.62663 0.00160605 7.625 0.00200009V0Z" fill="black"/>
</g>
</svg>
