<svg width="36" height="36" viewBox="0 0 36 36" fill="none" xmlns="http://www.w3.org/2000/svg">
<circle cx="18" cy="18" r="18" fill="#F0F0F0"/>
<path d="M25.9442 13.9875C25.9569 14.1625 25.9569 14.3375 25.9569 14.5125C25.9569 19.85 21.8326 26 14.2944 26C11.9721 26 9.81473 25.3375 8 24.1875C8.32996 24.225 8.64719 24.2375 8.98985 24.2375C10.9061 24.2375 12.6701 23.6 14.0787 22.5125C12.2767 22.475 10.7665 21.3125 10.2462 19.7125C10.5 19.75 10.7538 19.775 11.0203 19.775C11.3883 19.775 11.7564 19.725 12.099 19.6375C10.2208 19.2625 8.81215 17.6375 8.81215 15.675V15.625C9.35782 15.925 9.99239 16.1125 10.6649 16.1375C9.56087 15.4125 8.83754 14.175 8.83754 12.775C8.83754 12.025 9.04055 11.3375 9.3959 10.7375C11.4137 13.1875 14.4467 14.7875 17.8477 14.9625C17.7843 14.6625 17.7462 14.35 17.7462 14.0375C17.7462 11.8125 19.5736 10 21.8452 10C23.0254 10 24.0914 10.4875 24.8401 11.275C25.7665 11.1 26.6548 10.7625 27.4416 10.3C27.137 11.2375 26.4898 12.025 25.6396 12.525C26.4645 12.4375 27.264 12.2125 28 11.9C27.4417 12.7 26.7437 13.4125 25.9442 13.9875Z" fill="black"/>
</svg>
