<svg width="37" height="36" viewBox="0 0 37 36" fill="none" xmlns="http://www.w3.org/2000/svg">
<circle cx="18.3106" cy="17.9395" r="17.9395" fill="#F0F0F0" fill-opacity="0.5"/>
<path d="M26.2276 13.9404C26.2403 14.1148 26.2403 14.2892 26.2403 14.4636C26.2403 19.7832 22.1298 25.9125 14.617 25.9125C12.3025 25.9125 10.1524 25.2522 8.34375 24.1061C8.6726 24.1435 8.98876 24.1559 9.33027 24.1559C11.24 24.1559 12.9981 23.5206 14.402 22.4367C12.606 22.3994 11.1009 21.2408 10.5824 19.6461C10.8354 19.6835 11.0883 19.7084 11.3539 19.7084C11.7207 19.7084 12.0875 19.6586 12.429 19.5714C10.5571 19.1976 9.15317 17.5781 9.15317 15.6222V15.5724C9.697 15.8714 10.3294 16.0583 10.9997 16.0832C9.89937 15.3606 9.17848 14.1273 9.17848 12.7319C9.17848 11.9845 9.3808 11.2993 9.73496 10.7013C11.746 13.1431 14.7688 14.7377 18.1583 14.9121C18.0951 14.6131 18.0571 14.3017 18.0571 13.9902C18.0571 11.7727 19.8784 9.96631 22.1424 9.96631C23.3186 9.96631 24.381 10.4522 25.1272 11.237C26.0505 11.0626 26.9358 10.7262 27.72 10.2653C27.4164 11.1997 26.7714 11.9845 25.924 12.4828C26.7461 12.3956 27.5429 12.1714 28.2765 11.8599C27.7201 12.6572 27.0244 13.3673 26.2276 13.9404Z" fill="black" fill-opacity="0.2"/>
</svg>
