<svg width="37" height="36" fill="none" xmlns="http://www.w3.org/2000/svg"><circle cx="18.311" cy="17.939" r="17.939" fill="#F0F0F0" fill-opacity="0.5"></circle><path d="M26.228 13.94c.012.175.012.35.012.524 0 5.32-4.11 11.449-11.623 11.449-2.315 0-4.465-.66-6.273-1.807.329.037.645.05.986.05a8.26 8.26 0 005.072-1.72c-1.796-.037-3.301-1.195-3.82-2.79.253.037.506.062.772.062.367 0 .734-.05 1.075-.137-1.872-.373-3.276-1.993-3.276-3.949v-.05a4.162 4.162 0 001.847.511 4.006 4.006 0 01-1.822-3.351c0-.747.203-1.433.557-2.03a11.671 11.671 0 008.423 4.21 4.479 4.479 0 01-.1-.922c0-2.217 1.82-4.024 4.084-4.024 1.177 0 2.239.486 2.985 1.271a8.118 8.118 0 002.593-.972 4.025 4.025 0 01-1.796 2.218 8.287 8.287 0 002.352-.623 8.71 8.71 0 01-2.048 2.08z" fill="#000" fill-opacity="1"></path></svg>