<svg width="13" height="15" viewBox="0 0 13 15" fill="none" xmlns="http://www.w3.org/2000/svg">
<path d="M0.441535 6.63753V12.9865C0.441535 13.6899 1.01532 14.2451 1.71877 14.2451H11.4181C12.1215 14.2451 12.6953 13.6713 12.6953 12.9865L12.6952 6.63753C12.6952 5.93411 12.1214 5.37891 11.418 5.37891H8.8266C8.56746 5.37891 8.36384 5.58252 8.36384 5.84166C8.36384 6.10079 8.56746 6.30441 8.8266 6.30441H11.418C11.6031 6.30441 11.7697 6.45251 11.7697 6.63753V12.9865C11.7697 13.1717 11.6216 13.3196 11.418 13.3196L1.71864 13.3198C1.53348 13.3198 1.36691 13.1717 1.36691 12.9866V6.63766C1.36691 6.4525 1.51501 6.30454 1.71864 6.30454H3.93982C4.19896 6.30454 4.40258 6.10092 4.40258 5.84179C4.40258 5.58265 4.19896 5.37904 3.93982 5.37904H1.71864C1.01522 5.37904 0.441406 5.95282 0.441406 6.63766L0.441535 6.63753Z" fill="black" stroke="black" stroke-width="0.4"/>
<path d="M6.47605 10.7281C6.73519 10.7281 6.9388 10.5245 6.9388 10.2653V2.1394L8.91946 3.63868C9.01203 3.69421 9.10461 3.73126 9.19705 3.73126C9.34515 3.73126 9.47465 3.67574 9.56722 3.54611C9.71532 3.34249 9.67827 3.0463 9.47465 2.89819L6.75379 0.843561H6.73533C6.73533 0.843561 6.71686 0.825097 6.69827 0.825097C6.67981 0.825097 6.66121 0.806634 6.66121 0.806634C6.64275 0.806634 6.64275 0.806634 6.62416 0.78817C6.60569 0.78817 6.5871 0.769707 6.56863 0.769707H6.53158C6.47606 0.751243 6.42054 0.751243 6.36502 0.769707H6.32796C6.3095 0.769707 6.2909 0.78817 6.27244 0.78817C6.25398 0.78817 6.25398 0.788171 6.23538 0.806634C6.21692 0.806634 6.19833 0.825097 6.19833 0.825097C6.17986 0.825097 6.17986 0.843561 6.16127 0.843561H6.14281L3.47745 2.9168C3.27383 3.06489 3.23677 3.36107 3.38487 3.56472C3.53297 3.76834 3.82914 3.80539 4.03279 3.65729L6.01331 2.1394V10.2653C6.01331 10.5245 6.21693 10.7281 6.47606 10.7281H6.47605Z" fill="black" stroke="black" stroke-width="0.4"/>
</svg>
