<svg width="85" height="17" viewBox="0 0 85 17" fill="none" xmlns="http://www.w3.org/2000/svg">
<path fill-rule="evenodd" clip-rule="evenodd" d="M6.71488 10.8941L5.40008 0.328678L0 0.845253L2.48873 15.6837H8.68709C11.4106 12.115 14.7446 7.04356 14.7446 3.14611C14.7446 1.92522 14.5098 0.939145 13.8993 0L8.96883 0.98609C9.29753 1.64349 9.48537 2.44175 9.48537 3.61568C9.48537 5.77572 7.93577 8.92185 6.71488 10.8941Z" fill="white"/>
<path fill-rule="evenodd" clip-rule="evenodd" d="M23.9015 0.046875C18.2666 0.046875 15.4961 4.97741 15.4961 9.57922C15.4961 13.148 17.1865 16.0123 21.8823 16.0123C23.7606 16.0123 25.6389 15.5897 26.8597 15.0262L27.5171 10.5653C25.7797 11.4575 24.418 11.7862 23.0562 11.7862C21.7884 11.7862 20.8023 11.0818 20.8023 9.34443C23.7136 9.29747 28.738 8.12353 28.738 4.22608C28.738 1.7843 27.0006 0.046875 23.9015 0.046875ZM24.418 4.64871C24.418 6.05742 21.9292 6.527 20.8962 6.527C21.037 4.83654 22.3519 3.61561 23.338 3.61561C23.9484 3.61561 24.418 3.94435 24.418 4.64871Z" fill="white"/>
<path fill-rule="evenodd" clip-rule="evenodd" d="M31.5551 0.328607L29.1133 15.7306H34.4194L36.1099 4.93044C36.5795 4.69565 37.2369 4.36697 37.9412 4.36697C38.4578 4.36697 38.8804 4.55477 38.8804 5.21217C38.8804 5.49391 38.7865 6.01048 38.7865 6.24526L37.2839 15.6837H42.543L44.1865 5.40001C44.2805 4.83652 44.3744 4.03826 44.3744 3.47478C44.3744 1.40866 43.4352 0.046875 40.7587 0.046875C38.7395 0.046875 37.3308 0.798225 36.2038 1.54954L36.1569 0.328607H31.5551Z" fill="white"/>
<path fill-rule="evenodd" clip-rule="evenodd" d="M47.7074 0.328678L45.2656 15.7307H50.5718L52.2622 4.93051C52.7318 4.69572 53.3892 4.36704 54.0936 4.36704C54.6101 4.36704 55.0327 4.55487 55.0327 5.30619C55.0327 5.49402 54.9858 5.82271 54.9388 6.05749L53.4362 15.6837H58.6954L60.3858 4.88356C60.8554 4.64878 61.5128 4.32004 62.1702 4.32004C62.6868 4.32004 63.1094 4.50787 63.1094 5.25919C63.1094 5.44702 63.0624 5.77576 63.0155 6.01055L61.5128 15.6368H66.772L68.4155 5.35314C68.5094 4.78965 68.6033 3.99139 68.6033 3.4279C68.6033 1.36178 67.6642 0 64.9407 0C62.9685 0 61.5598 0.610433 60.0572 1.69045C59.4937 0.704347 58.4136 0 56.7701 0C54.8449 0 53.4362 0.751339 52.3562 1.54961L52.2153 0.281732H47.7074V0.328678Z" fill="white"/>
<path fill-rule="evenodd" clip-rule="evenodd" d="M78.464 0.046875C72.5474 0.046875 70.0117 4.60173 70.0117 9.43832C70.0117 13.101 71.5144 16.0593 75.9753 16.0593C82.0328 16.0593 84.5685 11.0818 84.5685 6.29221C84.5215 2.6765 82.878 0.046875 78.464 0.046875ZM75.3179 9.67311C75.3179 7.79482 75.7405 4.08519 77.8066 4.08519C78.7458 4.08519 79.0745 4.93042 79.0745 6.19826C79.0745 8.07655 78.6049 11.974 76.6327 11.974C75.7405 11.974 75.3179 11.0818 75.3179 9.67311Z" fill="white"/>
</svg>
