<svg width="57" height="24" viewBox="0 0 57 24" fill="none" xmlns="http://www.w3.org/2000/svg">
<path d="M13.5276 19.8994C13.8206 20.2189 13.8034 20.574 13.7517 20.716H8.40954V24H5.25596V20.716H0V17.858L8.4957 6.6568H0.327421V3.28402L5.25596 3.33728V0H8.40954V3.31953H13.407V6L4.89408 17.2722C4.89408 17.3077 10.96 17.3077 12.0112 17.3432C12.0629 17.3787 12.1835 17.7515 12.3386 18.071C12.6832 18.7988 13.0624 19.3669 13.5276 19.8994ZM33.035 18.2308C32.9489 17.6982 32.8455 17.6095 32.2251 17.6272C31.9321 17.6272 31.6392 17.6095 31.5875 17.574C31.2773 17.3787 31.2773 17.3254 31.2773 9.49704C31.2773 4.47337 31.2601 1.93491 31.2084 1.84615C31.1394 1.70414 31.036 1.70414 29.6057 1.70414C28.7785 1.70414 28.0375 1.72189 28.0031 1.7574C27.9342 1.7929 27.8997 3.49704 27.8997 9.95858C27.8997 18.6923 27.8997 18.5503 28.2616 19.2959C28.6062 19.9704 29.4162 20.574 30.3467 20.8225C30.8637 20.9645 32.3629 20.9822 32.9316 20.858C33.6726 20.6982 33.8105 20.4675 33.5175 19.8639C33.3452 19.4911 33.104 18.6923 33.035 18.2308ZM40.0142 18.2308L39.7213 17.645H39.1698C38.4805 17.6272 38.4116 17.5917 38.291 17.2722C38.1876 17.0414 38.1704 15.9053 38.1704 9.51479C38.1704 4.49112 38.1531 1.95266 38.1014 1.86391C38.0325 1.72189 37.9291 1.72189 36.4988 1.72189C35.6716 1.72189 34.9306 1.7574 34.8789 1.7929C34.7755 1.84615 34.7583 2.84024 34.7583 9.92308C34.7583 17.5562 34.7583 18.0177 34.8961 18.5503C35.1546 19.5976 35.7233 20.2367 36.8262 20.716C37.2398 20.8935 37.4294 20.929 38.2738 20.9467C39.4111 20.9822 39.9798 20.8935 40.5657 20.5917C41.1344 20.3077 41.1516 20.1124 40.6691 19.3669C40.4795 19.0651 40.1866 18.5503 40.0142 18.2308ZM56.6093 6.01775C56.1268 6.5503 55.179 6.67455 54.5931 6.26627C54.1278 5.94674 53.8865 5.50296 53.9038 4.91716C53.9038 4.22485 54.2312 3.72781 54.8343 3.44379C55.2479 3.26627 55.9372 3.31953 56.3336 3.60355C57.0918 4.13609 57.2297 5.32544 56.6093 6.01775ZM56.0234 3.72781C55.6443 3.53254 55.2652 3.51479 54.9377 3.67456C53.7142 4.2426 53.9727 6.12426 55.2824 6.24852C55.7477 6.30177 55.9717 6.23077 56.2819 5.94674C57.0057 5.28994 56.8678 4.1716 56.0234 3.72781ZM55.9372 5.43195C56.213 5.85799 56.2302 5.87574 56.0406 5.87574C55.9545 5.87574 55.8166 5.71598 55.696 5.48521C55.5236 5.20118 55.4202 5.09467 55.2996 5.09467C55.1445 5.09467 55.1273 5.13018 55.1273 5.48521C55.1273 5.76923 55.0928 5.87574 55.0239 5.87574C54.9722 5.87574 54.9033 5.82248 54.8688 5.75148C54.8171 5.60947 54.8171 4.1716 54.8688 4.08284C54.886 4.04734 55.1101 4.02958 55.3858 4.02958C55.92 4.02958 56.1613 4.18935 56.1613 4.52663C56.1613 4.72189 55.9717 4.97041 55.7821 5.04142C55.7304 5.05917 55.7649 5.18343 55.9372 5.43195ZM55.8683 4.57988C55.8855 4.47337 55.8511 4.36686 55.7994 4.33136C55.7477 4.29586 55.5753 4.26035 55.4203 4.26035C55.1445 4.26035 55.1273 4.26035 55.1273 4.54438V4.81065L55.4892 4.7929C55.7994 4.7574 55.8338 4.73964 55.8683 4.57988ZM26.2109 12.2663C26.3832 13.4911 26.3315 14.6095 26.0903 14.7692C26.0386 14.8047 23.8845 14.8402 21.3168 14.8402H16.6468L16.6985 15.1243C16.7674 15.5503 17.1293 16.3136 17.4222 16.6331C17.9909 17.2899 18.8698 17.6272 20.0761 17.6272C21.403 17.6272 22.4197 17.2722 23.2124 16.5266C23.4364 16.2959 23.6777 16.1361 23.7983 16.1361C23.9189 16.1361 24.1257 16.3136 24.4876 16.7219C24.7806 17.0414 25.2114 17.4675 25.4526 17.6627C26.0386 18.1243 26.0386 18.284 25.4699 18.8343C24.5565 19.7219 23.4364 20.3432 22.1095 20.7337C21.5753 20.8757 21.3168 20.9112 20.0416 20.9112C18.7491 20.9112 18.5079 20.8935 17.9392 20.7337C16.2849 20.2722 15.0097 19.3491 14.148 18C13.3725 16.7929 13.0451 15.5325 13.0451 13.8106C13.0451 12.5858 13.2002 11.7515 13.5966 10.6864C14.3203 8.75148 16.0264 7.22485 17.9392 6.78106C18.2494 6.71006 18.5423 6.63905 18.5768 6.6213C18.6285 6.60355 19.1455 6.5858 19.7314 6.5858C20.5758 6.5858 20.9549 6.6213 21.4374 6.72781C24.0913 7.38461 25.7801 9.35503 26.2109 12.2663ZM22.8333 12.0533L22.7816 11.8047C22.7127 11.4142 22.4025 10.7929 22.1095 10.4556C21.7993 10.0828 21.1272 9.69231 20.5758 9.5858C20.0761 9.47929 19.4212 9.47929 18.9559 9.60355C17.8703 9.88757 17.0086 10.7574 16.7846 11.8047L16.7329 12.0533H19.7831H22.8333ZM53.5591 10.9349C53.9555 12.1065 54.0761 14.645 53.7487 14.8757H44.2535L44.3052 15.071C44.6671 16.7751 45.77 17.6095 47.6828 17.6272C49.0442 17.6272 50.0092 17.2899 50.8364 16.5266C51.3878 16.0118 51.5084 16.0296 51.9909 16.5976C52.1977 16.8462 52.6458 17.2899 52.9732 17.574C53.6798 18.1775 53.6797 18.213 53.0249 18.8698C52.1633 19.7219 51.0432 20.3609 49.7507 20.6982C49.3371 20.8225 48.8374 20.8757 47.9413 20.8935C46.8728 20.929 46.5971 20.9112 45.9078 20.7692C43.7537 20.3077 42.1683 19.0473 41.2895 17.1124C40.6519 15.7101 40.4623 13.7396 40.8069 12.0533C41.3756 9.19527 43.1678 7.27811 45.8389 6.6568C46.4248 6.53254 48.2687 6.53254 48.8891 6.6568C50.8364 7.08284 52.2494 8.14793 53.1111 9.88757C53.2834 10.2426 53.473 10.7041 53.5591 10.9349ZM50.4055 11.8757C50.4055 11.574 49.8886 10.6331 49.5784 10.3314C49.1993 9.97633 48.6823 9.71006 48.1653 9.60355C46.4076 9.21302 44.7532 10.2071 44.3569 11.858L44.3052 12.071H50.3883V11.8757H50.4055Z" fill="white"/>
</svg>