<svg width="10" height="10" viewBox="0 0 10 10" fill="none" xmlns="http://www.w3.org/2000/svg">
<path d="M5.28 6.51429e-08V0.96H1.44C1.17489 0.96 0.96 1.17489 0.96 1.44V8.16C0.96 8.42512 1.17489 8.64 1.44 8.64H8.16C8.42512 8.64 8.64 8.42512 8.64 8.16V4.32H9.6V8.16C9.6 8.95528 8.95528 9.6 8.16 9.6H1.44C0.644726 9.6 0 8.95528 0 8.16V1.44C0 0.644726 0.644726 6.51429e-08 1.44 6.51429e-08H5.28ZM9.12 6.51429e-08L9.12931 6.70286e-05C9.14049 0.000334886 9.15168 0.00093756 9.16286 0.00187509L9.12 6.51429e-08C9.14431 6.51429e-08 9.16815 0.00180806 9.19152 0.00529012C9.19969 0.00656242 9.20799 0.00803571 9.21636 0.00970971C9.22694 0.0118526 9.23732 0.0143302 9.24763 0.0171427C9.25513 0.0192185 9.2625 0.0214954 9.2698 0.0239061C9.27924 0.0269194 9.28875 0.0304017 9.29812 0.0341517C9.30663 0.0375669 9.31493 0.0411159 9.32317 0.044933C9.33308 0.0496205 9.34286 0.0546429 9.35243 0.059933C9.35826 0.0631473 9.36415 0.0665625 9.36991 0.0700445C9.38223 0.0776115 9.39415 0.0856473 9.40567 0.0942194C9.42449 0.108148 9.44243 0.123616 9.45944 0.140558L9.41605 0.102121C9.44631 0.125893 9.4737 0.153215 9.49748 0.183482C9.50022 0.186964 9.50303 0.19058 9.50578 0.194264C9.51435 0.205848 9.52239 0.217768 9.52989 0.230089C9.53344 0.235848 9.53685 0.241741 9.54013 0.247633C9.54535 0.257142 9.55038 0.266918 9.55506 0.276896C9.55888 0.285065 9.56243 0.293369 9.56578 0.301739C9.5696 0.311248 9.57308 0.320757 9.57623 0.330333C9.5785 0.337498 9.58078 0.344865 9.58279 0.352297C9.58567 0.362676 9.58815 0.373055 9.59029 0.383636C9.59196 0.392006 9.59344 0.40031 9.59471 0.408746C9.59618 0.418322 9.59732 0.428233 9.59819 0.438212C9.59899 0.447252 9.59946 0.455889 9.59973 0.464529C9.59993 0.469351 9.6 0.474641 9.6 0.479998V2.88H8.64V1.63875L5.13943 5.1395C4.96639 5.31247 4.69411 5.32579 4.50581 5.17941L4.46054 5.1395C4.2731 4.95199 4.2731 4.64811 4.46054 4.4606L7.96026 0.960032H6.71993V3.22286e-05L9.12 6.51429e-08Z" fill="white"/>
</svg>
